  0
SECTION
  2
HEADER
  9
$ANGBASE
  50
0.0
  9
$ANGDIR
  70
1
  9
$MEASUREMENT
  70
1
  0
ENDSEC
  0
SECTION
  2
TABLES
  0
TABLE
  2
LTYPE
  70
4
  0
LTYPE
  5
40F
  2
CONTINUOUS
  70
0
  3
Solid line
  72
65
  73
0
  40
0.0
  0
LTYPE
  5
410
  2
DASHDOT
 70
0
  3
Dash Dot ____ _ ____ _
 72
65
 73
4
 40
2.0
 49
1.25
 49
-0.25
 49
0.25
 49
-0.25
  0
LTYPE
  5
411
  2
DASHED
 70
0
  3
Dashed __ __ __ __ __
 72
65
 73
2
 40
0.75
 49
0.5
 49
-0.25
  0
LTYPE
  5
43B
  2
DOTTED
 70
0
  3
Dotted .  .  .  .
 72
65
 73
2
 40
0.2
 49
0.0
 49
-0.2
  0
ENDTAB
  0
TABLE
  2
STYLE
  70
4
  0
STYLE
  2
KICAD
  70
0
  40
0
  41
1
  42
1
  50
0
  71
0
  3
isocp.shx
  0
STYLE
  2
KICADB
  70
0
  40
0
  41
1
  42
1
  50
0
  71
0
  3
isocp.shx
  0
STYLE
  2
KICADI
  70
0
  40
0
  41
1
  42
1
  50
15
  71
0
  3
isocp.shx
  0
STYLE
  2
KICADBI
  70
0
  40
0
  41
1
  42
1
  50
15
  71
0
  3
isocp.shx
  0
ENDTAB
  0
TABLE
  2
LAYER
  70
1
  0
LAYER
  2
BLACK
  70
0
  62
7
  6
CONTINUOUS
  0
ENDTAB
  0
ENDSEC
  0
SECTION
  2
ENTITIES
0
LINE
8
BLACK
6
CONTINUOUS
10
127.508
20
-46.228
11
172.888
21
-46.228
0
LINE
8
BLACK
6
CONTINUOUS
10
172.888
20
-46.228
11
172.888
21
-68.961
0
LINE
8
BLACK
6
CONTINUOUS
10
172.888
20
-68.961
11
127.508
21
-68.961
0
LINE
8
BLACK
6
CONTINUOUS
10
127.508
20
-68.961
11
127.508
21
-46.228
0
LINE
8
BLACK
6
CONTINUOUS
10
132.133
20
-62.1308
11
132.433
21
-62.4308
0
LINE
8
BLACK
6
CONTINUOUS
10
132.433
20
-62.1308
11
132.133
21
-62.4308
0
LINE
8
BLACK
6
CONTINUOUS
10
135.364
20
-53.5325
11
135.664
21
-53.8325
0
LINE
8
BLACK
6
CONTINUOUS
10
135.664
20
-53.5325
11
135.364
21
-53.8325
0
LINE
8
BLACK
6
CONTINUOUS
10
136.858
20
-66.2456
11
137.158
21
-66.5456
0
LINE
8
BLACK
6
CONTINUOUS
10
137.158
20
-66.2456
11
136.858
21
-66.5456
0
LINE
8
BLACK
6
CONTINUOUS
10
138.026
20
-47.856
11
138.326
21
-48.156
0
LINE
8
BLACK
6
CONTINUOUS
10
138.326
20
-47.856
11
138.026
21
-48.156
0
LINE
8
BLACK
6
CONTINUOUS
10
143.411
20
-66.144
11
143.711
21
-66.444
0
LINE
8
BLACK
6
CONTINUOUS
10
143.711
20
-66.144
11
143.411
21
-66.444
0
LINE
8
BLACK
6
CONTINUOUS
10
166.982
20
-50.5484
11
167.282
21
-50.8484
0
LINE
8
BLACK
6
CONTINUOUS
10
167.282
20
-50.5484
11
166.982
21
-50.8484
0
LINE
8
BLACK
6
CONTINUOUS
10
166.982
20
-52.3772
11
167.282
21
-52.6772
0
LINE
8
BLACK
6
CONTINUOUS
10
167.282
20
-52.3772
11
166.982
21
-52.6772
0
LINE
8
BLACK
6
CONTINUOUS
10
166.982
20
-54.2568
11
167.282
21
-54.5568
0
LINE
8
BLACK
6
CONTINUOUS
10
167.282
20
-54.2568
11
166.982
21
-54.5568
0
LINE
8
BLACK
6
CONTINUOUS
10
167.084
20
-60.6068
11
167.384
21
-60.9068
0
LINE
8
BLACK
6
CONTINUOUS
10
167.384
20
-60.6068
11
167.084
21
-60.9068
0
LINE
8
BLACK
6
CONTINUOUS
10
167.084
20
-62.4356
11
167.384
21
-62.7356
0
LINE
8
BLACK
6
CONTINUOUS
10
167.384
20
-62.4356
11
167.084
21
-62.7356
0
LINE
8
BLACK
6
CONTINUOUS
10
167.084
20
-64.3152
11
167.384
21
-64.6152
0
LINE
8
BLACK
6
CONTINUOUS
10
167.384
20
-64.3152
11
167.084
21
-64.6152
0
LINE
8
BLACK
6
CONTINUOUS
10
168.963
20
-50.5484
11
169.263
21
-50.8484
0
LINE
8
BLACK
6
CONTINUOUS
10
169.263
20
-50.5484
11
168.963
21
-50.8484
0
LINE
8
BLACK
6
CONTINUOUS
10
168.963
20
-52.3264
11
169.263
21
-52.6264
0
LINE
8
BLACK
6
CONTINUOUS
10
169.263
20
-52.3264
11
168.963
21
-52.6264
0
LINE
8
BLACK
6
CONTINUOUS
10
168.963
20
-54.2568
11
169.263
21
-54.5568
0
LINE
8
BLACK
6
CONTINUOUS
10
169.263
20
-54.2568
11
168.963
21
-54.5568
0
LINE
8
BLACK
6
CONTINUOUS
10
169.065
20
-60.6068
11
169.365
21
-60.9068
0
LINE
8
BLACK
6
CONTINUOUS
10
169.365
20
-60.6068
11
169.065
21
-60.9068
0
LINE
8
BLACK
6
CONTINUOUS
10
169.065
20
-62.3848
11
169.365
21
-62.6848
0
LINE
8
BLACK
6
CONTINUOUS
10
169.365
20
-62.3848
11
169.065
21
-62.6848
0
LINE
8
BLACK
6
CONTINUOUS
10
169.065
20
-64.3152
11
169.365
21
-64.6152
0
LINE
8
BLACK
6
CONTINUOUS
10
169.365
20
-64.3152
11
169.065
21
-64.6152
0
LINE
8
BLACK
6
CONTINUOUS
10
170.69
20
-52.3772
11
170.99
21
-52.6772
0
LINE
8
BLACK
6
CONTINUOUS
10
170.99
20
-52.3772
11
170.69
21
-52.6772
0
LINE
8
BLACK
6
CONTINUOUS
10
170.741
20
-50.5484
11
171.041
21
-50.8484
0
LINE
8
BLACK
6
CONTINUOUS
10
171.041
20
-50.5484
11
170.741
21
-50.8484
0
LINE
8
BLACK
6
CONTINUOUS
10
170.741
20
-54.2568
11
171.041
21
-54.5568
0
LINE
8
BLACK
6
CONTINUOUS
10
171.041
20
-54.2568
11
170.741
21
-54.5568
0
LINE
8
BLACK
6
CONTINUOUS
10
170.792
20
-62.4356
11
171.092
21
-62.7356
0
LINE
8
BLACK
6
CONTINUOUS
10
171.092
20
-62.4356
11
170.792
21
-62.7356
0
LINE
8
BLACK
6
CONTINUOUS
10
170.843
20
-60.6068
11
171.143
21
-60.9068
0
LINE
8
BLACK
6
CONTINUOUS
10
171.143
20
-60.6068
11
170.843
21
-60.9068
0
LINE
8
BLACK
6
CONTINUOUS
10
170.843
20
-64.3152
11
171.143
21
-64.6152
0
LINE
8
BLACK
6
CONTINUOUS
10
171.143
20
-64.3152
11
170.843
21
-64.6152
0
CIRCLE
8
BLACK
10
156.792
20
-48.208
40
0.3
0
LINE
8
BLACK
6
CONTINUOUS
10
156.292
20
-48.508
11
157.292
21
-48.508
0
LINE
8
BLACK
6
CONTINUOUS
10
156.292
20
-47.908
11
157.292
21
-47.908
0
ARC
8
BLACK
10
157.292
20
-48.208
40
0.3
50
270
51
450
0
ARC
8
BLACK
10
156.292
20
-48.208
40
0.3
50
90
51
270
0
CIRCLE
8
BLACK
10
156.792
20
-67.108
40
0.3
0
LINE
8
BLACK
6
CONTINUOUS
10
156.292
20
-67.408
11
157.292
21
-67.408
0
LINE
8
BLACK
6
CONTINUOUS
10
156.292
20
-66.808
11
157.292
21
-66.808
0
ARC
8
BLACK
10
157.292
20
-67.108
40
0.3
50
270
51
450
0
ARC
8
BLACK
10
156.292
20
-67.108
40
0.3
50
90
51
270
0
LINE
8
BLACK
6
CONTINUOUS
10
129.8
20
-50.83
11
129.8
21
-51.73
0
LINE
8
BLACK
6
CONTINUOUS
10
129.35
20
-51.28
11
130.25
21
-51.28
0
LINE
8
BLACK
6
CONTINUOUS
10
129.8
20
-53.37
11
129.8
21
-54.27
0
LINE
8
BLACK
6
CONTINUOUS
10
129.35
20
-53.82
11
130.25
21
-53.82
0
LINE
8
BLACK
6
CONTINUOUS
10
129.8
20
-55.91
11
129.8
21
-56.81
0
LINE
8
BLACK
6
CONTINUOUS
10
129.35
20
-56.36
11
130.25
21
-56.36
0
LINE
8
BLACK
6
CONTINUOUS
10
129.8
20
-58.45
11
129.8
21
-59.35
0
LINE
8
BLACK
6
CONTINUOUS
10
129.35
20
-58.9
11
130.25
21
-58.9
0
LINE
8
BLACK
6
CONTINUOUS
10
129.8
20
-60.99
11
129.8
21
-61.89
0
LINE
8
BLACK
6
CONTINUOUS
10
129.35
20
-61.44
11
130.25
21
-61.44
0
LINE
8
BLACK
6
CONTINUOUS
10
129.8
20
-63.53
11
129.8
21
-64.43
0
LINE
8
BLACK
6
CONTINUOUS
10
129.35
20
-63.98
11
130.25
21
-63.98
0
LINE
8
BLACK
6
CONTINUOUS
10
148.771
20
-53.5869
11
148.771
21
-50.8291
0
LINE
8
BLACK
6
CONTINUOUS
10
148.771
20
-50.8291
11
146.013
21
-50.8291
0
LINE
8
BLACK
6
CONTINUOUS
10
146.013
20
-50.8291
11
146.013
21
-53.5869
0
LINE
8
BLACK
6
CONTINUOUS
10
146.013
20
-53.5869
11
148.771
21
-53.5869
0
LINE
8
BLACK
6
CONTINUOUS
10
148.771
20
-64.4869
11
148.771
21
-61.7291
0
LINE
8
BLACK
6
CONTINUOUS
10
148.771
20
-61.7291
11
146.013
21
-61.7291
0
LINE
8
BLACK
6
CONTINUOUS
10
146.013
20
-61.7291
11
146.013
21
-64.4869
0
LINE
8
BLACK
6
CONTINUOUS
10
146.013
20
-64.4869
11
148.771
21
-64.4869
0
LINE
8
BLACK
6
CONTINUOUS
10
129.984
20
-72.1658
11
129.984
21
-70.1658
0
LINE
8
BLACK
6
CONTINUOUS
10
129.984
20
-70.1658
11
130.46
21
-70.1658
0
LINE
8
BLACK
6
CONTINUOUS
10
130.46
20
-70.1658
11
130.746
21
-70.261
0
LINE
8
BLACK
6
CONTINUOUS
10
130.746
20
-70.261
11
130.937
21
-70.4515
0
LINE
8
BLACK
6
CONTINUOUS
10
130.937
20
-70.4515
11
131.032
21
-70.642
0
LINE
8
BLACK
6
CONTINUOUS
10
131.032
20
-70.642
11
131.127
21
-71.0229
0
LINE
8
BLACK
6
CONTINUOUS
10
131.127
20
-71.0229
11
131.127
21
-71.3086
0
LINE
8
BLACK
6
CONTINUOUS
10
131.127
20
-71.3086
11
131.032
21
-71.6896
0
LINE
8
BLACK
6
CONTINUOUS
10
131.032
20
-71.6896
11
130.937
21
-71.88
0
LINE
8
BLACK
6
CONTINUOUS
10
130.937
20
-71.88
11
130.746
21
-72.0705
0
LINE
8
BLACK
6
CONTINUOUS
10
130.746
20
-72.0705
11
130.46
21
-72.1658
0
LINE
8
BLACK
6
CONTINUOUS
10
130.46
20
-72.1658
11
129.984
21
-72.1658
0
LINE
8
BLACK
6
CONTINUOUS
10
131.984
20
-72.1658
11
131.984
21
-70.8324
0
LINE
8
BLACK
6
CONTINUOUS
10
131.984
20
-71.2134
11
132.079
21
-71.0229
0
LINE
8
BLACK
6
CONTINUOUS
10
132.079
20
-71.0229
11
132.175
21
-70.9277
0
LINE
8
BLACK
6
CONTINUOUS
10
132.175
20
-70.9277
11
132.365
21
-70.8324
0
LINE
8
BLACK
6
CONTINUOUS
10
132.365
20
-70.8324
11
132.556
21
-70.8324
0
LINE
8
BLACK
6
CONTINUOUS
10
133.222
20
-72.1658
11
133.222
21
-70.8324
0
LINE
8
BLACK
6
CONTINUOUS
10
133.222
20
-70.1658
11
133.127
21
-70.261
0
LINE
8
BLACK
6
CONTINUOUS
10
133.127
20
-70.261
11
133.222
21
-70.3562
0
LINE
8
BLACK
6
CONTINUOUS
10
133.222
20
-70.3562
11
133.318
21
-70.261
0
LINE
8
BLACK
6
CONTINUOUS
10
133.318
20
-70.261
11
133.222
21
-70.1658
0
LINE
8
BLACK
6
CONTINUOUS
10
133.222
20
-70.1658
11
133.222
21
-70.3562
0
LINE
8
BLACK
6
CONTINUOUS
10
134.46
20
-72.1658
11
134.27
21
-72.0705
0
LINE
8
BLACK
6
CONTINUOUS
10
134.27
20
-72.0705
11
134.175
21
-71.88
0
LINE
8
BLACK
6
CONTINUOUS
10
134.175
20
-71.88
11
134.175
21
-70.1658
0
LINE
8
BLACK
6
CONTINUOUS
10
135.508
20
-72.1658
11
135.318
21
-72.0705
0
LINE
8
BLACK
6
CONTINUOUS
10
135.318
20
-72.0705
11
135.222
21
-71.88
0
LINE
8
BLACK
6
CONTINUOUS
10
135.222
20
-71.88
11
135.222
21
-70.1658
0
LINE
8
BLACK
6
CONTINUOUS
10
137.794
20
-72.1658
11
137.794
21
-70.1658
0
LINE
8
BLACK
6
CONTINUOUS
10
137.794
20
-70.1658
11
138.46
21
-71.5943
0
LINE
8
BLACK
6
CONTINUOUS
10
138.46
20
-71.5943
11
139.127
21
-70.1658
0
LINE
8
BLACK
6
CONTINUOUS
10
139.127
20
-70.1658
11
139.127
21
-72.1658
0
LINE
8
BLACK
6
CONTINUOUS
10
140.937
20
-72.1658
11
140.937
21
-71.1181
0
LINE
8
BLACK
6
CONTINUOUS
10
140.937
20
-71.1181
11
140.841
21
-70.9277
0
LINE
8
BLACK
6
CONTINUOUS
10
140.841
20
-70.9277
11
140.651
21
-70.8324
0
LINE
8
BLACK
6
CONTINUOUS
10
140.651
20
-70.8324
11
140.27
21
-70.8324
0
LINE
8
BLACK
6
CONTINUOUS
10
140.27
20
-70.8324
11
140.079
21
-70.9277
0
LINE
8
BLACK
6
CONTINUOUS
10
140.937
20
-72.0705
11
140.746
21
-72.1658
0
LINE
8
BLACK
6
CONTINUOUS
10
140.746
20
-72.1658
11
140.27
21
-72.1658
0
LINE
8
BLACK
6
CONTINUOUS
10
140.27
20
-72.1658
11
140.079
21
-72.0705
0
LINE
8
BLACK
6
CONTINUOUS
10
140.079
20
-72.0705
11
139.984
21
-71.88
0
LINE
8
BLACK
6
CONTINUOUS
10
139.984
20
-71.88
11
139.984
21
-71.6896
0
LINE
8
BLACK
6
CONTINUOUS
10
139.984
20
-71.6896
11
140.079
21
-71.4991
0
LINE
8
BLACK
6
CONTINUOUS
10
140.079
20
-71.4991
11
140.27
21
-71.4039
0
LINE
8
BLACK
6
CONTINUOUS
10
140.27
20
-71.4039
11
140.746
21
-71.4039
0
LINE
8
BLACK
6
CONTINUOUS
10
140.746
20
-71.4039
11
140.937
21
-71.3086
0
LINE
8
BLACK
6
CONTINUOUS
10
141.889
20
-70.8324
11
141.889
21
-72.8324
0
LINE
8
BLACK
6
CONTINUOUS
10
141.889
20
-70.9277
11
142.079
21
-70.8324
0
LINE
8
BLACK
6
CONTINUOUS
10
142.079
20
-70.8324
11
142.46
21
-70.8324
0
LINE
8
BLACK
6
CONTINUOUS
10
142.46
20
-70.8324
11
142.651
21
-70.9277
0
LINE
8
BLACK
6
CONTINUOUS
10
142.651
20
-70.9277
11
142.746
21
-71.0229
0
LINE
8
BLACK
6
CONTINUOUS
10
142.746
20
-71.0229
11
142.841
21
-71.2134
0
LINE
8
BLACK
6
CONTINUOUS
10
142.841
20
-71.2134
11
142.841
21
-71.7848
0
LINE
8
BLACK
6
CONTINUOUS
10
142.841
20
-71.7848
11
142.746
21
-71.9753
0
LINE
8
BLACK
6
CONTINUOUS
10
142.746
20
-71.9753
11
142.651
21
-72.0705
0
LINE
8
BLACK
6
CONTINUOUS
10
142.651
20
-72.0705
11
142.46
21
-72.1658
0
LINE
8
BLACK
6
CONTINUOUS
10
142.46
20
-72.1658
11
142.079
21
-72.1658
0
LINE
8
BLACK
6
CONTINUOUS
10
142.079
20
-72.1658
11
141.889
21
-72.0705
0
LINE
8
BLACK
6
CONTINUOUS
10
143.698
20
-71.9753
11
143.794
21
-72.0705
0
LINE
8
BLACK
6
CONTINUOUS
10
143.794
20
-72.0705
11
143.698
21
-72.1658
0
LINE
8
BLACK
6
CONTINUOUS
10
143.698
20
-72.1658
11
143.603
21
-72.0705
0
LINE
8
BLACK
6
CONTINUOUS
10
143.603
20
-72.0705
11
143.698
21
-71.9753
0
LINE
8
BLACK
6
CONTINUOUS
10
143.698
20
-71.9753
11
143.698
21
-72.1658
0
LINE
8
BLACK
6
CONTINUOUS
10
143.698
20
-70.9277
11
143.794
21
-71.0229
0
LINE
8
BLACK
6
CONTINUOUS
10
143.794
20
-71.0229
11
143.698
21
-71.1181
0
LINE
8
BLACK
6
CONTINUOUS
10
143.698
20
-71.1181
11
143.603
21
-71.0229
0
LINE
8
BLACK
6
CONTINUOUS
10
143.603
20
-71.0229
11
143.698
21
-70.9277
0
LINE
8
BLACK
6
CONTINUOUS
10
143.698
20
-70.9277
11
143.698
21
-71.1181
0
LINE
8
BLACK
6
CONTINUOUS
10
127.108
20
-75.311
11
127.408
21
-75.611
0
LINE
8
BLACK
6
CONTINUOUS
10
127.408
20
-75.311
11
127.108
21
-75.611
0
LINE
8
BLACK
6
CONTINUOUS
10
130.365
20
-74.3658
11
130.556
21
-74.3658
0
LINE
8
BLACK
6
CONTINUOUS
10
130.556
20
-74.3658
11
130.746
21
-74.461
0
LINE
8
BLACK
6
CONTINUOUS
10
130.746
20
-74.461
11
130.841
21
-74.5562
0
LINE
8
BLACK
6
CONTINUOUS
10
130.841
20
-74.5562
11
130.937
21
-74.7467
0
LINE
8
BLACK
6
CONTINUOUS
10
130.937
20
-74.7467
11
131.032
21
-75.1277
0
LINE
8
BLACK
6
CONTINUOUS
10
131.032
20
-75.1277
11
131.032
21
-75.6039
0
LINE
8
BLACK
6
CONTINUOUS
10
131.032
20
-75.6039
11
130.937
21
-75.9848
0
LINE
8
BLACK
6
CONTINUOUS
10
130.937
20
-75.9848
11
130.841
21
-76.1753
0
LINE
8
BLACK
6
CONTINUOUS
10
130.841
20
-76.1753
11
130.746
21
-76.2705
0
LINE
8
BLACK
6
CONTINUOUS
10
130.746
20
-76.2705
11
130.556
21
-76.3658
0
LINE
8
BLACK
6
CONTINUOUS
10
130.556
20
-76.3658
11
130.365
21
-76.3658
0
LINE
8
BLACK
6
CONTINUOUS
10
130.365
20
-76.3658
11
130.175
21
-76.2705
0
LINE
8
BLACK
6
CONTINUOUS
10
130.175
20
-76.2705
11
130.079
21
-76.1753
0
LINE
8
BLACK
6
CONTINUOUS
10
130.079
20
-76.1753
11
129.984
21
-75.9848
0
LINE
8
BLACK
6
CONTINUOUS
10
129.984
20
-75.9848
11
129.889
21
-75.6039
0
LINE
8
BLACK
6
CONTINUOUS
10
129.889
20
-75.6039
11
129.889
21
-75.1277
0
LINE
8
BLACK
6
CONTINUOUS
10
129.889
20
-75.1277
11
129.984
21
-74.7467
0
LINE
8
BLACK
6
CONTINUOUS
10
129.984
20
-74.7467
11
130.079
21
-74.5562
0
LINE
8
BLACK
6
CONTINUOUS
10
130.079
20
-74.5562
11
130.175
21
-74.461
0
LINE
8
BLACK
6
CONTINUOUS
10
130.175
20
-74.461
11
130.365
21
-74.3658
0
LINE
8
BLACK
6
CONTINUOUS
10
131.889
20
-76.1753
11
131.984
21
-76.2705
0
LINE
8
BLACK
6
CONTINUOUS
10
131.984
20
-76.2705
11
131.889
21
-76.3658
0
LINE
8
BLACK
6
CONTINUOUS
10
131.889
20
-76.3658
11
131.794
21
-76.2705
0
LINE
8
BLACK
6
CONTINUOUS
10
131.794
20
-76.2705
11
131.889
21
-76.1753
0
LINE
8
BLACK
6
CONTINUOUS
10
131.889
20
-76.1753
11
131.889
21
-76.3658
0
LINE
8
BLACK
6
CONTINUOUS
10
132.651
20
-74.3658
11
133.889
21
-74.3658
0
LINE
8
BLACK
6
CONTINUOUS
10
133.889
20
-74.3658
11
133.222
21
-75.1277
0
LINE
8
BLACK
6
CONTINUOUS
10
133.222
20
-75.1277
11
133.508
21
-75.1277
0
LINE
8
BLACK
6
CONTINUOUS
10
133.508
20
-75.1277
11
133.698
21
-75.2229
0
LINE
8
BLACK
6
CONTINUOUS
10
133.698
20
-75.2229
11
133.794
21
-75.3181
0
LINE
8
BLACK
6
CONTINUOUS
10
133.794
20
-75.3181
11
133.889
21
-75.5086
0
LINE
8
BLACK
6
CONTINUOUS
10
133.889
20
-75.5086
11
133.889
21
-75.9848
0
LINE
8
BLACK
6
CONTINUOUS
10
133.889
20
-75.9848
11
133.794
21
-76.1753
0
LINE
8
BLACK
6
CONTINUOUS
10
133.794
20
-76.1753
11
133.698
21
-76.2705
0
LINE
8
BLACK
6
CONTINUOUS
10
133.698
20
-76.2705
11
133.508
21
-76.3658
0
LINE
8
BLACK
6
CONTINUOUS
10
133.508
20
-76.3658
11
132.937
21
-76.3658
0
LINE
8
BLACK
6
CONTINUOUS
10
132.937
20
-76.3658
11
132.746
21
-76.2705
0
LINE
8
BLACK
6
CONTINUOUS
10
132.746
20
-76.2705
11
132.651
21
-76.1753
0
LINE
8
BLACK
6
CONTINUOUS
10
135.127
20
-74.3658
11
135.318
21
-74.3658
0
LINE
8
BLACK
6
CONTINUOUS
10
135.318
20
-74.3658
11
135.508
21
-74.461
0
LINE
8
BLACK
6
CONTINUOUS
10
135.508
20
-74.461
11
135.603
21
-74.5562
0
LINE
8
BLACK
6
CONTINUOUS
10
135.603
20
-74.5562
11
135.698
21
-74.7467
0
LINE
8
BLACK
6
CONTINUOUS
10
135.698
20
-74.7467
11
135.794
21
-75.1277
0
LINE
8
BLACK
6
CONTINUOUS
10
135.794
20
-75.1277
11
135.794
21
-75.6039
0
LINE
8
BLACK
6
CONTINUOUS
10
135.794
20
-75.6039
11
135.698
21
-75.9848
0
LINE
8
BLACK
6
CONTINUOUS
10
135.698
20
-75.9848
11
135.603
21
-76.1753
0
LINE
8
BLACK
6
CONTINUOUS
10
135.603
20
-76.1753
11
135.508
21
-76.2705
0
LINE
8
BLACK
6
CONTINUOUS
10
135.508
20
-76.2705
11
135.318
21
-76.3658
0
LINE
8
BLACK
6
CONTINUOUS
10
135.318
20
-76.3658
11
135.127
21
-76.3658
0
LINE
8
BLACK
6
CONTINUOUS
10
135.127
20
-76.3658
11
134.937
21
-76.2705
0
LINE
8
BLACK
6
CONTINUOUS
10
134.937
20
-76.2705
11
134.841
21
-76.1753
0
LINE
8
BLACK
6
CONTINUOUS
10
134.841
20
-76.1753
11
134.746
21
-75.9848
0
LINE
8
BLACK
6
CONTINUOUS
10
134.746
20
-75.9848
11
134.651
21
-75.6039
0
LINE
8
BLACK
6
CONTINUOUS
10
134.651
20
-75.6039
11
134.651
21
-75.1277
0
LINE
8
BLACK
6
CONTINUOUS
10
134.651
20
-75.1277
11
134.746
21
-74.7467
0
LINE
8
BLACK
6
CONTINUOUS
10
134.746
20
-74.7467
11
134.841
21
-74.5562
0
LINE
8
BLACK
6
CONTINUOUS
10
134.841
20
-74.5562
11
134.937
21
-74.461
0
LINE
8
BLACK
6
CONTINUOUS
10
134.937
20
-74.461
11
135.127
21
-74.3658
0
LINE
8
BLACK
6
CONTINUOUS
10
137.032
20
-74.3658
11
137.222
21
-74.3658
0
LINE
8
BLACK
6
CONTINUOUS
10
137.222
20
-74.3658
11
137.413
21
-74.461
0
LINE
8
BLACK
6
CONTINUOUS
10
137.413
20
-74.461
11
137.508
21
-74.5562
0
LINE
8
BLACK
6
CONTINUOUS
10
137.508
20
-74.5562
11
137.603
21
-74.7467
0
LINE
8
BLACK
6
CONTINUOUS
10
137.603
20
-74.7467
11
137.698
21
-75.1277
0
LINE
8
BLACK
6
CONTINUOUS
10
137.698
20
-75.1277
11
137.698
21
-75.6039
0
LINE
8
BLACK
6
CONTINUOUS
10
137.698
20
-75.6039
11
137.603
21
-75.9848
0
LINE
8
BLACK
6
CONTINUOUS
10
137.603
20
-75.9848
11
137.508
21
-76.1753
0
LINE
8
BLACK
6
CONTINUOUS
10
137.508
20
-76.1753
11
137.413
21
-76.2705
0
LINE
8
BLACK
6
CONTINUOUS
10
137.413
20
-76.2705
11
137.222
21
-76.3658
0
LINE
8
BLACK
6
CONTINUOUS
10
137.222
20
-76.3658
11
137.032
21
-76.3658
0
LINE
8
BLACK
6
CONTINUOUS
10
137.032
20
-76.3658
11
136.841
21
-76.2705
0
LINE
8
BLACK
6
CONTINUOUS
10
136.841
20
-76.2705
11
136.746
21
-76.1753
0
LINE
8
BLACK
6
CONTINUOUS
10
136.746
20
-76.1753
11
136.651
21
-75.9848
0
LINE
8
BLACK
6
CONTINUOUS
10
136.651
20
-75.9848
11
136.556
21
-75.6039
0
LINE
8
BLACK
6
CONTINUOUS
10
136.556
20
-75.6039
11
136.556
21
-75.1277
0
LINE
8
BLACK
6
CONTINUOUS
10
136.556
20
-75.1277
11
136.651
21
-74.7467
0
LINE
8
BLACK
6
CONTINUOUS
10
136.651
20
-74.7467
11
136.746
21
-74.5562
0
LINE
8
BLACK
6
CONTINUOUS
10
136.746
20
-74.5562
11
136.841
21
-74.461
0
LINE
8
BLACK
6
CONTINUOUS
10
136.841
20
-74.461
11
137.032
21
-74.3658
0
LINE
8
BLACK
6
CONTINUOUS
10
138.556
20
-76.3658
11
138.556
21
-75.0324
0
LINE
8
BLACK
6
CONTINUOUS
10
138.556
20
-75.2229
11
138.651
21
-75.1277
0
LINE
8
BLACK
6
CONTINUOUS
10
138.651
20
-75.1277
11
138.841
21
-75.0324
0
LINE
8
BLACK
6
CONTINUOUS
10
138.841
20
-75.0324
11
139.127
21
-75.0324
0
LINE
8
BLACK
6
CONTINUOUS
10
139.127
20
-75.0324
11
139.318
21
-75.1277
0
LINE
8
BLACK
6
CONTINUOUS
10
139.318
20
-75.1277
11
139.413
21
-75.3181
0
LINE
8
BLACK
6
CONTINUOUS
10
139.413
20
-75.3181
11
139.413
21
-76.3658
0
LINE
8
BLACK
6
CONTINUOUS
10
139.413
20
-75.3181
11
139.508
21
-75.1277
0
LINE
8
BLACK
6
CONTINUOUS
10
139.508
20
-75.1277
11
139.698
21
-75.0324
0
LINE
8
BLACK
6
CONTINUOUS
10
139.698
20
-75.0324
11
139.984
21
-75.0324
0
LINE
8
BLACK
6
CONTINUOUS
10
139.984
20
-75.0324
11
140.175
21
-75.1277
0
LINE
8
BLACK
6
CONTINUOUS
10
140.175
20
-75.1277
11
140.27
21
-75.3181
0
LINE
8
BLACK
6
CONTINUOUS
10
140.27
20
-75.3181
11
140.27
21
-76.3658
0
LINE
8
BLACK
6
CONTINUOUS
10
141.222
20
-76.3658
11
141.222
21
-75.0324
0
LINE
8
BLACK
6
CONTINUOUS
10
141.222
20
-75.2229
11
141.318
21
-75.1277
0
LINE
8
BLACK
6
CONTINUOUS
10
141.318
20
-75.1277
11
141.508
21
-75.0324
0
LINE
8
BLACK
6
CONTINUOUS
10
141.508
20
-75.0324
11
141.794
21
-75.0324
0
LINE
8
BLACK
6
CONTINUOUS
10
141.794
20
-75.0324
11
141.984
21
-75.1277
0
LINE
8
BLACK
6
CONTINUOUS
10
141.984
20
-75.1277
11
142.079
21
-75.3181
0
LINE
8
BLACK
6
CONTINUOUS
10
142.079
20
-75.3181
11
142.079
21
-76.3658
0
LINE
8
BLACK
6
CONTINUOUS
10
142.079
20
-75.3181
11
142.175
21
-75.1277
0
LINE
8
BLACK
6
CONTINUOUS
10
142.175
20
-75.1277
11
142.365
21
-75.0324
0
LINE
8
BLACK
6
CONTINUOUS
10
142.365
20
-75.0324
11
142.651
21
-75.0324
0
LINE
8
BLACK
6
CONTINUOUS
10
142.651
20
-75.0324
11
142.841
21
-75.1277
0
LINE
8
BLACK
6
CONTINUOUS
10
142.841
20
-75.1277
11
142.937
21
-75.3181
0
LINE
8
BLACK
6
CONTINUOUS
10
142.937
20
-75.3181
11
142.937
21
-76.3658
0
LINE
8
BLACK
6
CONTINUOUS
10
146.841
20
-74.2705
11
145.127
21
-76.842
0
LINE
8
BLACK
6
CONTINUOUS
10
149.413
20
-74.3658
11
149.603
21
-74.3658
0
LINE
8
BLACK
6
CONTINUOUS
10
149.603
20
-74.3658
11
149.794
21
-74.461
0
LINE
8
BLACK
6
CONTINUOUS
10
149.794
20
-74.461
11
149.889
21
-74.5562
0
LINE
8
BLACK
6
CONTINUOUS
10
149.889
20
-74.5562
11
149.984
21
-74.7467
0
LINE
8
BLACK
6
CONTINUOUS
10
149.984
20
-74.7467
11
150.079
21
-75.1277
0
LINE
8
BLACK
6
CONTINUOUS
10
150.079
20
-75.1277
11
150.079
21
-75.6039
0
LINE
8
BLACK
6
CONTINUOUS
10
150.079
20
-75.6039
11
149.984
21
-75.9848
0
LINE
8
BLACK
6
CONTINUOUS
10
149.984
20
-75.9848
11
149.889
21
-76.1753
0
LINE
8
BLACK
6
CONTINUOUS
10
149.889
20
-76.1753
11
149.794
21
-76.2705
0
LINE
8
BLACK
6
CONTINUOUS
10
149.794
20
-76.2705
11
149.603
21
-76.3658
0
LINE
8
BLACK
6
CONTINUOUS
10
149.603
20
-76.3658
11
149.413
21
-76.3658
0
LINE
8
BLACK
6
CONTINUOUS
10
149.413
20
-76.3658
11
149.222
21
-76.2705
0
LINE
8
BLACK
6
CONTINUOUS
10
149.222
20
-76.2705
11
149.127
21
-76.1753
0
LINE
8
BLACK
6
CONTINUOUS
10
149.127
20
-76.1753
11
149.032
21
-75.9848
0
LINE
8
BLACK
6
CONTINUOUS
10
149.032
20
-75.9848
11
148.937
21
-75.6039
0
LINE
8
BLACK
6
CONTINUOUS
10
148.937
20
-75.6039
11
148.937
21
-75.1277
0
LINE
8
BLACK
6
CONTINUOUS
10
148.937
20
-75.1277
11
149.032
21
-74.7467
0
LINE
8
BLACK
6
CONTINUOUS
10
149.032
20
-74.7467
11
149.127
21
-74.5562
0
LINE
8
BLACK
6
CONTINUOUS
10
149.127
20
-74.5562
11
149.222
21
-74.461
0
LINE
8
BLACK
6
CONTINUOUS
10
149.222
20
-74.461
11
149.413
21
-74.3658
0
LINE
8
BLACK
6
CONTINUOUS
10
150.937
20
-76.1753
11
151.032
21
-76.2705
0
LINE
8
BLACK
6
CONTINUOUS
10
151.032
20
-76.2705
11
150.937
21
-76.3658
0
LINE
8
BLACK
6
CONTINUOUS
10
150.937
20
-76.3658
11
150.841
21
-76.2705
0
LINE
8
BLACK
6
CONTINUOUS
10
150.841
20
-76.2705
11
150.937
21
-76.1753
0
LINE
8
BLACK
6
CONTINUOUS
10
150.937
20
-76.1753
11
150.937
21
-76.3658
0
LINE
8
BLACK
6
CONTINUOUS
10
152.27
20
-74.3658
11
152.46
21
-74.3658
0
LINE
8
BLACK
6
CONTINUOUS
10
152.46
20
-74.3658
11
152.651
21
-74.461
0
LINE
8
BLACK
6
CONTINUOUS
10
152.651
20
-74.461
11
152.746
21
-74.5562
0
LINE
8
BLACK
6
CONTINUOUS
10
152.746
20
-74.5562
11
152.841
21
-74.7467
0
LINE
8
BLACK
6
CONTINUOUS
10
152.841
20
-74.7467
11
152.937
21
-75.1277
0
LINE
8
BLACK
6
CONTINUOUS
10
152.937
20
-75.1277
11
152.937
21
-75.6039
0
LINE
8
BLACK
6
CONTINUOUS
10
152.937
20
-75.6039
11
152.841
21
-75.9848
0
LINE
8
BLACK
6
CONTINUOUS
10
152.841
20
-75.9848
11
152.746
21
-76.1753
0
LINE
8
BLACK
6
CONTINUOUS
10
152.746
20
-76.1753
11
152.651
21
-76.2705
0
LINE
8
BLACK
6
CONTINUOUS
10
152.651
20
-76.2705
11
152.46
21
-76.3658
0
LINE
8
BLACK
6
CONTINUOUS
10
152.46
20
-76.3658
11
152.27
21
-76.3658
0
LINE
8
BLACK
6
CONTINUOUS
10
152.27
20
-76.3658
11
152.079
21
-76.2705
0
LINE
8
BLACK
6
CONTINUOUS
10
152.079
20
-76.2705
11
151.984
21
-76.1753
0
LINE
8
BLACK
6
CONTINUOUS
10
151.984
20
-76.1753
11
151.889
21
-75.9848
0
LINE
8
BLACK
6
CONTINUOUS
10
151.889
20
-75.9848
11
151.794
21
-75.6039
0
LINE
8
BLACK
6
CONTINUOUS
10
151.794
20
-75.6039
11
151.794
21
-75.1277
0
LINE
8
BLACK
6
CONTINUOUS
10
151.794
20
-75.1277
11
151.889
21
-74.7467
0
LINE
8
BLACK
6
CONTINUOUS
10
151.889
20
-74.7467
11
151.984
21
-74.5562
0
LINE
8
BLACK
6
CONTINUOUS
10
151.984
20
-74.5562
11
152.079
21
-74.461
0
LINE
8
BLACK
6
CONTINUOUS
10
152.079
20
-74.461
11
152.27
21
-74.3658
0
LINE
8
BLACK
6
CONTINUOUS
10
154.841
20
-76.3658
11
153.698
21
-76.3658
0
LINE
8
BLACK
6
CONTINUOUS
10
154.27
20
-76.3658
11
154.27
21
-74.3658
0
LINE
8
BLACK
6
CONTINUOUS
10
154.27
20
-74.3658
11
154.079
21
-74.6515
0
LINE
8
BLACK
6
CONTINUOUS
10
154.079
20
-74.6515
11
153.889
21
-74.842
0
LINE
8
BLACK
6
CONTINUOUS
10
153.889
20
-74.842
11
153.698
21
-74.9372
0
LINE
8
BLACK
6
CONTINUOUS
10
156.746
20
-76.3658
11
155.603
21
-76.3658
0
LINE
8
BLACK
6
CONTINUOUS
10
156.175
20
-76.3658
11
156.175
21
-74.3658
0
LINE
8
BLACK
6
CONTINUOUS
10
156.175
20
-74.3658
11
155.984
21
-74.6515
0
LINE
8
BLACK
6
CONTINUOUS
10
155.984
20
-74.6515
11
155.794
21
-74.842
0
LINE
8
BLACK
6
CONTINUOUS
10
155.794
20
-74.842
11
155.603
21
-74.9372
0
LINE
8
BLACK
6
CONTINUOUS
10
157.889
20
-75.2229
11
157.698
21
-75.1277
0
LINE
8
BLACK
6
CONTINUOUS
10
157.698
20
-75.1277
11
157.603
21
-75.0324
0
LINE
8
BLACK
6
CONTINUOUS
10
157.603
20
-75.0324
11
157.508
21
-74.842
0
LINE
8
BLACK
6
CONTINUOUS
10
157.508
20
-74.842
11
157.508
21
-74.7467
0
LINE
8
BLACK
6
CONTINUOUS
10
157.508
20
-74.7467
11
157.603
21
-74.5562
0
LINE
8
BLACK
6
CONTINUOUS
10
157.603
20
-74.5562
11
157.698
21
-74.461
0
LINE
8
BLACK
6
CONTINUOUS
10
157.698
20
-74.461
11
157.889
21
-74.3658
0
LINE
8
BLACK
6
CONTINUOUS
10
157.889
20
-74.3658
11
158.27
21
-74.3658
0
LINE
8
BLACK
6
CONTINUOUS
10
158.27
20
-74.3658
11
158.46
21
-74.461
0
LINE
8
BLACK
6
CONTINUOUS
10
158.46
20
-74.461
11
158.556
21
-74.5562
0
LINE
8
BLACK
6
CONTINUOUS
10
158.556
20
-74.5562
11
158.651
21
-74.7467
0
LINE
8
BLACK
6
CONTINUOUS
10
158.651
20
-74.7467
11
158.651
21
-74.842
0
LINE
8
BLACK
6
CONTINUOUS
10
158.651
20
-74.842
11
158.556
21
-75.0324
0
LINE
8
BLACK
6
CONTINUOUS
10
158.556
20
-75.0324
11
158.46
21
-75.1277
0
LINE
8
BLACK
6
CONTINUOUS
10
158.46
20
-75.1277
11
158.27
21
-75.2229
0
LINE
8
BLACK
6
CONTINUOUS
10
158.27
20
-75.2229
11
157.889
21
-75.2229
0
LINE
8
BLACK
6
CONTINUOUS
10
157.889
20
-75.2229
11
157.698
21
-75.3181
0
LINE
8
BLACK
6
CONTINUOUS
10
157.698
20
-75.3181
11
157.603
21
-75.4134
0
LINE
8
BLACK
6
CONTINUOUS
10
157.603
20
-75.4134
11
157.508
21
-75.6039
0
LINE
8
BLACK
6
CONTINUOUS
10
157.508
20
-75.6039
11
157.508
21
-75.9848
0
LINE
8
BLACK
6
CONTINUOUS
10
157.508
20
-75.9848
11
157.603
21
-76.1753
0
LINE
8
BLACK
6
CONTINUOUS
10
157.603
20
-76.1753
11
157.698
21
-76.2705
0
LINE
8
BLACK
6
CONTINUOUS
10
157.698
20
-76.2705
11
157.889
21
-76.3658
0
LINE
8
BLACK
6
CONTINUOUS
10
157.889
20
-76.3658
11
158.27
21
-76.3658
0
LINE
8
BLACK
6
CONTINUOUS
10
158.27
20
-76.3658
11
158.46
21
-76.2705
0
LINE
8
BLACK
6
CONTINUOUS
10
158.46
20
-76.2705
11
158.556
21
-76.1753
0
LINE
8
BLACK
6
CONTINUOUS
10
158.556
20
-76.1753
11
158.651
21
-75.9848
0
LINE
8
BLACK
6
CONTINUOUS
10
158.651
20
-75.9848
11
158.651
21
-75.6039
0
LINE
8
BLACK
6
CONTINUOUS
10
158.651
20
-75.6039
11
158.556
21
-75.4134
0
LINE
8
BLACK
6
CONTINUOUS
10
158.556
20
-75.4134
11
158.46
21
-75.3181
0
LINE
8
BLACK
6
CONTINUOUS
10
158.46
20
-75.3181
11
158.27
21
-75.2229
0
LINE
8
BLACK
6
CONTINUOUS
10
159.413
20
-74.3658
11
159.413
21
-74.7467
0
LINE
8
BLACK
6
CONTINUOUS
10
160.175
20
-74.3658
11
160.175
21
-74.7467
0
LINE
8
BLACK
6
CONTINUOUS
10
163.127
20
-77.1277
11
163.032
21
-77.0324
0
LINE
8
BLACK
6
CONTINUOUS
10
163.032
20
-77.0324
11
162.841
21
-76.7467
0
LINE
8
BLACK
6
CONTINUOUS
10
162.841
20
-76.7467
11
162.746
21
-76.5562
0
LINE
8
BLACK
6
CONTINUOUS
10
162.746
20
-76.5562
11
162.651
21
-76.2705
0
LINE
8
BLACK
6
CONTINUOUS
10
162.651
20
-76.2705
11
162.556
21
-75.7943
0
LINE
8
BLACK
6
CONTINUOUS
10
162.556
20
-75.7943
11
162.556
21
-75.4134
0
LINE
8
BLACK
6
CONTINUOUS
10
162.556
20
-75.4134
11
162.651
21
-74.9372
0
LINE
8
BLACK
6
CONTINUOUS
10
162.651
20
-74.9372
11
162.746
21
-74.6515
0
LINE
8
BLACK
6
CONTINUOUS
10
162.746
20
-74.6515
11
162.841
21
-74.461
0
LINE
8
BLACK
6
CONTINUOUS
10
162.841
20
-74.461
11
163.032
21
-74.1753
0
LINE
8
BLACK
6
CONTINUOUS
10
163.032
20
-74.1753
11
163.127
21
-74.08
0
LINE
8
BLACK
6
CONTINUOUS
10
163.794
20
-74.5562
11
163.889
21
-74.461
0
LINE
8
BLACK
6
CONTINUOUS
10
163.889
20
-74.461
11
164.079
21
-74.3658
0
LINE
8
BLACK
6
CONTINUOUS
10
164.079
20
-74.3658
11
164.556
21
-74.3658
0
LINE
8
BLACK
6
CONTINUOUS
10
164.556
20
-74.3658
11
164.746
21
-74.461
0
LINE
8
BLACK
6
CONTINUOUS
10
164.746
20
-74.461
11
164.841
21
-74.5562
0
LINE
8
BLACK
6
CONTINUOUS
10
164.841
20
-74.5562
11
164.937
21
-74.7467
0
LINE
8
BLACK
6
CONTINUOUS
10
164.937
20
-74.7467
11
164.937
21
-74.9372
0
LINE
8
BLACK
6
CONTINUOUS
10
164.937
20
-74.9372
11
164.841
21
-75.2229
0
LINE
8
BLACK
6
CONTINUOUS
10
164.841
20
-75.2229
11
163.698
21
-76.3658
0
LINE
8
BLACK
6
CONTINUOUS
10
163.698
20
-76.3658
11
164.937
21
-76.3658
0
LINE
8
BLACK
6
CONTINUOUS
10
165.603
20
-74.3658
11
166.841
21
-74.3658
0
LINE
8
BLACK
6
CONTINUOUS
10
166.841
20
-74.3658
11
166.175
21
-75.1277
0
LINE
8
BLACK
6
CONTINUOUS
10
166.175
20
-75.1277
11
166.46
21
-75.1277
0
LINE
8
BLACK
6
CONTINUOUS
10
166.46
20
-75.1277
11
166.651
21
-75.2229
0
LINE
8
BLACK
6
CONTINUOUS
10
166.651
20
-75.2229
11
166.746
21
-75.3181
0
LINE
8
BLACK
6
CONTINUOUS
10
166.746
20
-75.3181
11
166.841
21
-75.5086
0
LINE
8
BLACK
6
CONTINUOUS
10
166.841
20
-75.5086
11
166.841
21
-75.9848
0
LINE
8
BLACK
6
CONTINUOUS
10
166.841
20
-75.9848
11
166.746
21
-76.1753
0
LINE
8
BLACK
6
CONTINUOUS
10
166.746
20
-76.1753
11
166.651
21
-76.2705
0
LINE
8
BLACK
6
CONTINUOUS
10
166.651
20
-76.2705
11
166.46
21
-76.3658
0
LINE
8
BLACK
6
CONTINUOUS
10
166.46
20
-76.3658
11
165.889
21
-76.3658
0
LINE
8
BLACK
6
CONTINUOUS
10
165.889
20
-76.3658
11
165.698
21
-76.2705
0
LINE
8
BLACK
6
CONTINUOUS
10
165.698
20
-76.2705
11
165.603
21
-76.1753
0
LINE
8
BLACK
6
CONTINUOUS
10
169.222
20
-76.3658
11
169.222
21
-74.3658
0
LINE
8
BLACK
6
CONTINUOUS
10
170.079
20
-76.3658
11
170.079
21
-75.3181
0
LINE
8
BLACK
6
CONTINUOUS
10
170.079
20
-75.3181
11
169.984
21
-75.1277
0
LINE
8
BLACK
6
CONTINUOUS
10
169.984
20
-75.1277
11
169.794
21
-75.0324
0
LINE
8
BLACK
6
CONTINUOUS
10
169.794
20
-75.0324
11
169.508
21
-75.0324
0
LINE
8
BLACK
6
CONTINUOUS
10
169.508
20
-75.0324
11
169.318
21
-75.1277
0
LINE
8
BLACK
6
CONTINUOUS
10
169.318
20
-75.1277
11
169.222
21
-75.2229
0
LINE
8
BLACK
6
CONTINUOUS
10
171.318
20
-76.3658
11
171.127
21
-76.2705
0
LINE
8
BLACK
6
CONTINUOUS
10
171.127
20
-76.2705
11
171.032
21
-76.1753
0
LINE
8
BLACK
6
CONTINUOUS
10
171.032
20
-76.1753
11
170.937
21
-75.9848
0
LINE
8
BLACK
6
CONTINUOUS
10
170.937
20
-75.9848
11
170.937
21
-75.4134
0
LINE
8
BLACK
6
CONTINUOUS
10
170.937
20
-75.4134
11
171.032
21
-75.2229
0
LINE
8
BLACK
6
CONTINUOUS
10
171.032
20
-75.2229
11
171.127
21
-75.1277
0
LINE
8
BLACK
6
CONTINUOUS
10
171.127
20
-75.1277
11
171.318
21
-75.0324
0
LINE
8
BLACK
6
CONTINUOUS
10
171.318
20
-75.0324
11
171.603
21
-75.0324
0
LINE
8
BLACK
6
CONTINUOUS
10
171.603
20
-75.0324
11
171.794
21
-75.1277
0
LINE
8
BLACK
6
CONTINUOUS
10
171.794
20
-75.1277
11
171.889
21
-75.2229
0
LINE
8
BLACK
6
CONTINUOUS
10
171.889
20
-75.2229
11
171.984
21
-75.4134
0
LINE
8
BLACK
6
CONTINUOUS
10
171.984
20
-75.4134
11
171.984
21
-75.9848
0
LINE
8
BLACK
6
CONTINUOUS
10
171.984
20
-75.9848
11
171.889
21
-76.1753
0
LINE
8
BLACK
6
CONTINUOUS
10
171.889
20
-76.1753
11
171.794
21
-76.2705
0
LINE
8
BLACK
6
CONTINUOUS
10
171.794
20
-76.2705
11
171.603
21
-76.3658
0
LINE
8
BLACK
6
CONTINUOUS
10
171.603
20
-76.3658
11
171.318
21
-76.3658
0
LINE
8
BLACK
6
CONTINUOUS
10
173.127
20
-76.3658
11
172.937
21
-76.2705
0
LINE
8
BLACK
6
CONTINUOUS
10
172.937
20
-76.2705
11
172.841
21
-76.08
0
LINE
8
BLACK
6
CONTINUOUS
10
172.841
20
-76.08
11
172.841
21
-74.3658
0
LINE
8
BLACK
6
CONTINUOUS
10
174.651
20
-76.2705
11
174.46
21
-76.3658
0
LINE
8
BLACK
6
CONTINUOUS
10
174.46
20
-76.3658
11
174.079
21
-76.3658
0
LINE
8
BLACK
6
CONTINUOUS
10
174.079
20
-76.3658
11
173.889
21
-76.2705
0
LINE
8
BLACK
6
CONTINUOUS
10
173.889
20
-76.2705
11
173.794
21
-76.08
0
LINE
8
BLACK
6
CONTINUOUS
10
173.794
20
-76.08
11
173.794
21
-75.3181
0
LINE
8
BLACK
6
CONTINUOUS
10
173.794
20
-75.3181
11
173.889
21
-75.1277
0
LINE
8
BLACK
6
CONTINUOUS
10
173.889
20
-75.1277
11
174.079
21
-75.0324
0
LINE
8
BLACK
6
CONTINUOUS
10
174.079
20
-75.0324
11
174.46
21
-75.0324
0
LINE
8
BLACK
6
CONTINUOUS
10
174.46
20
-75.0324
11
174.651
21
-75.1277
0
LINE
8
BLACK
6
CONTINUOUS
10
174.651
20
-75.1277
11
174.746
21
-75.3181
0
LINE
8
BLACK
6
CONTINUOUS
10
174.746
20
-75.3181
11
174.746
21
-75.5086
0
LINE
8
BLACK
6
CONTINUOUS
10
174.746
20
-75.5086
11
173.794
21
-75.6991
0
LINE
8
BLACK
6
CONTINUOUS
10
175.508
20
-76.2705
11
175.698
21
-76.3658
0
LINE
8
BLACK
6
CONTINUOUS
10
175.698
20
-76.3658
11
176.079
21
-76.3658
0
LINE
8
BLACK
6
CONTINUOUS
10
176.079
20
-76.3658
11
176.27
21
-76.2705
0
LINE
8
BLACK
6
CONTINUOUS
10
176.27
20
-76.2705
11
176.365
21
-76.08
0
LINE
8
BLACK
6
CONTINUOUS
10
176.365
20
-76.08
11
176.365
21
-75.9848
0
LINE
8
BLACK
6
CONTINUOUS
10
176.365
20
-75.9848
11
176.27
21
-75.7943
0
LINE
8
BLACK
6
CONTINUOUS
10
176.27
20
-75.7943
11
176.079
21
-75.6991
0
LINE
8
BLACK
6
CONTINUOUS
10
176.079
20
-75.6991
11
175.794
21
-75.6991
0
LINE
8
BLACK
6
CONTINUOUS
10
175.794
20
-75.6991
11
175.603
21
-75.6039
0
LINE
8
BLACK
6
CONTINUOUS
10
175.603
20
-75.6039
11
175.508
21
-75.4134
0
LINE
8
BLACK
6
CONTINUOUS
10
175.508
20
-75.4134
11
175.508
21
-75.3181
0
LINE
8
BLACK
6
CONTINUOUS
10
175.508
20
-75.3181
11
175.603
21
-75.1277
0
LINE
8
BLACK
6
CONTINUOUS
10
175.603
20
-75.1277
11
175.794
21
-75.0324
0
LINE
8
BLACK
6
CONTINUOUS
10
175.794
20
-75.0324
11
176.079
21
-75.0324
0
LINE
8
BLACK
6
CONTINUOUS
10
176.079
20
-75.0324
11
176.27
21
-75.1277
0
LINE
8
BLACK
6
CONTINUOUS
10
177.032
20
-77.1277
11
177.127
21
-77.0324
0
LINE
8
BLACK
6
CONTINUOUS
10
177.127
20
-77.0324
11
177.318
21
-76.7467
0
LINE
8
BLACK
6
CONTINUOUS
10
177.318
20
-76.7467
11
177.413
21
-76.5562
0
LINE
8
BLACK
6
CONTINUOUS
10
177.413
20
-76.5562
11
177.508
21
-76.2705
0
LINE
8
BLACK
6
CONTINUOUS
10
177.508
20
-76.2705
11
177.603
21
-75.7943
0
LINE
8
BLACK
6
CONTINUOUS
10
177.603
20
-75.7943
11
177.603
21
-75.4134
0
LINE
8
BLACK
6
CONTINUOUS
10
177.603
20
-75.4134
11
177.508
21
-74.9372
0
LINE
8
BLACK
6
CONTINUOUS
10
177.508
20
-74.9372
11
177.413
21
-74.6515
0
LINE
8
BLACK
6
CONTINUOUS
10
177.413
20
-74.6515
11
177.318
21
-74.461
0
LINE
8
BLACK
6
CONTINUOUS
10
177.318
20
-74.461
11
177.127
21
-74.1753
0
LINE
8
BLACK
6
CONTINUOUS
10
177.127
20
-74.1753
11
177.032
21
-74.08
0
CIRCLE
8
BLACK
10
127.108
20
-78.101
40
0.3
0
LINE
8
BLACK
6
CONTINUOUS
10
130.365
20
-77.0058
11
130.556
21
-77.0058
0
LINE
8
BLACK
6
CONTINUOUS
10
130.556
20
-77.0058
11
130.746
21
-77.101
0
LINE
8
BLACK
6
CONTINUOUS
10
130.746
20
-77.101
11
130.841
21
-77.1962
0
LINE
8
BLACK
6
CONTINUOUS
10
130.841
20
-77.1962
11
130.937
21
-77.3867
0
LINE
8
BLACK
6
CONTINUOUS
10
130.937
20
-77.3867
11
131.032
21
-77.7677
0
LINE
8
BLACK
6
CONTINUOUS
10
131.032
20
-77.7677
11
131.032
21
-78.2439
0
LINE
8
BLACK
6
CONTINUOUS
10
131.032
20
-78.2439
11
130.937
21
-78.6248
0
LINE
8
BLACK
6
CONTINUOUS
10
130.937
20
-78.6248
11
130.841
21
-78.8153
0
LINE
8
BLACK
6
CONTINUOUS
10
130.841
20
-78.8153
11
130.746
21
-78.9105
0
LINE
8
BLACK
6
CONTINUOUS
10
130.746
20
-78.9105
11
130.556
21
-79.0058
0
LINE
8
BLACK
6
CONTINUOUS
10
130.556
20
-79.0058
11
130.365
21
-79.0058
0
LINE
8
BLACK
6
CONTINUOUS
10
130.365
20
-79.0058
11
130.175
21
-78.9105
0
LINE
8
BLACK
6
CONTINUOUS
10
130.175
20
-78.9105
11
130.079
21
-78.8153
0
LINE
8
BLACK
6
CONTINUOUS
10
130.079
20
-78.8153
11
129.984
21
-78.6248
0
LINE
8
BLACK
6
CONTINUOUS
10
129.984
20
-78.6248
11
129.889
21
-78.2439
0
LINE
8
BLACK
6
CONTINUOUS
10
129.889
20
-78.2439
11
129.889
21
-77.7677
0
LINE
8
BLACK
6
CONTINUOUS
10
129.889
20
-77.7677
11
129.984
21
-77.3867
0
LINE
8
BLACK
6
CONTINUOUS
10
129.984
20
-77.3867
11
130.079
21
-77.1962
0
LINE
8
BLACK
6
CONTINUOUS
10
130.079
20
-77.1962
11
130.175
21
-77.101
0
LINE
8
BLACK
6
CONTINUOUS
10
130.175
20
-77.101
11
130.365
21
-77.0058
0
LINE
8
BLACK
6
CONTINUOUS
10
131.889
20
-78.8153
11
131.984
21
-78.9105
0
LINE
8
BLACK
6
CONTINUOUS
10
131.984
20
-78.9105
11
131.889
21
-79.0058
0
LINE
8
BLACK
6
CONTINUOUS
10
131.889
20
-79.0058
11
131.794
21
-78.9105
0
LINE
8
BLACK
6
CONTINUOUS
10
131.794
20
-78.9105
11
131.889
21
-78.8153
0
LINE
8
BLACK
6
CONTINUOUS
10
131.889
20
-78.8153
11
131.889
21
-79.0058
0
LINE
8
BLACK
6
CONTINUOUS
10
133.698
20
-77.0058
11
133.318
21
-77.0058
0
LINE
8
BLACK
6
CONTINUOUS
10
133.318
20
-77.0058
11
133.127
21
-77.101
0
LINE
8
BLACK
6
CONTINUOUS
10
133.127
20
-77.101
11
133.032
21
-77.1962
0
LINE
8
BLACK
6
CONTINUOUS
10
133.032
20
-77.1962
11
132.841
21
-77.482
0
LINE
8
BLACK
6
CONTINUOUS
10
132.841
20
-77.482
11
132.746
21
-77.8629
0
LINE
8
BLACK
6
CONTINUOUS
10
132.746
20
-77.8629
11
132.746
21
-78.6248
0
LINE
8
BLACK
6
CONTINUOUS
10
132.746
20
-78.6248
11
132.841
21
-78.8153
0
LINE
8
BLACK
6
CONTINUOUS
10
132.841
20
-78.8153
11
132.937
21
-78.9105
0
LINE
8
BLACK
6
CONTINUOUS
10
132.937
20
-78.9105
11
133.127
21
-79.0058
0
LINE
8
BLACK
6
CONTINUOUS
10
133.127
20
-79.0058
11
133.508
21
-79.0058
0
LINE
8
BLACK
6
CONTINUOUS
10
133.508
20
-79.0058
11
133.698
21
-78.9105
0
LINE
8
BLACK
6
CONTINUOUS
10
133.698
20
-78.9105
11
133.794
21
-78.8153
0
LINE
8
BLACK
6
CONTINUOUS
10
133.794
20
-78.8153
11
133.889
21
-78.6248
0
LINE
8
BLACK
6
CONTINUOUS
10
133.889
20
-78.6248
11
133.889
21
-78.1486
0
LINE
8
BLACK
6
CONTINUOUS
10
133.889
20
-78.1486
11
133.794
21
-77.9581
0
LINE
8
BLACK
6
CONTINUOUS
10
133.794
20
-77.9581
11
133.698
21
-77.8629
0
LINE
8
BLACK
6
CONTINUOUS
10
133.698
20
-77.8629
11
133.508
21
-77.7677
0
LINE
8
BLACK
6
CONTINUOUS
10
133.508
20
-77.7677
11
133.127
21
-77.7677
0
LINE
8
BLACK
6
CONTINUOUS
10
133.127
20
-77.7677
11
132.937
21
-77.8629
0
LINE
8
BLACK
6
CONTINUOUS
10
132.937
20
-77.8629
11
132.841
21
-77.9581
0
LINE
8
BLACK
6
CONTINUOUS
10
132.841
20
-77.9581
11
132.746
21
-78.1486
0
LINE
8
BLACK
6
CONTINUOUS
10
135.127
20
-77.0058
11
135.318
21
-77.0058
0
LINE
8
BLACK
6
CONTINUOUS
10
135.318
20
-77.0058
11
135.508
21
-77.101
0
LINE
8
BLACK
6
CONTINUOUS
10
135.508
20
-77.101
11
135.603
21
-77.1962
0
LINE
8
BLACK
6
CONTINUOUS
10
135.603
20
-77.1962
11
135.698
21
-77.3867
0
LINE
8
BLACK
6
CONTINUOUS
10
135.698
20
-77.3867
11
135.794
21
-77.7677
0
LINE
8
BLACK
6
CONTINUOUS
10
135.794
20
-77.7677
11
135.794
21
-78.2439
0
LINE
8
BLACK
6
CONTINUOUS
10
135.794
20
-78.2439
11
135.698
21
-78.6248
0
LINE
8
BLACK
6
CONTINUOUS
10
135.698
20
-78.6248
11
135.603
21
-78.8153
0
LINE
8
BLACK
6
CONTINUOUS
10
135.603
20
-78.8153
11
135.508
21
-78.9105
0
LINE
8
BLACK
6
CONTINUOUS
10
135.508
20
-78.9105
11
135.318
21
-79.0058
0
LINE
8
BLACK
6
CONTINUOUS
10
135.318
20
-79.0058
11
135.127
21
-79.0058
0
LINE
8
BLACK
6
CONTINUOUS
10
135.127
20
-79.0058
11
134.937
21
-78.9105
0
LINE
8
BLACK
6
CONTINUOUS
10
134.937
20
-78.9105
11
134.841
21
-78.8153
0
LINE
8
BLACK
6
CONTINUOUS
10
134.841
20
-78.8153
11
134.746
21
-78.6248
0
LINE
8
BLACK
6
CONTINUOUS
10
134.746
20
-78.6248
11
134.651
21
-78.2439
0
LINE
8
BLACK
6
CONTINUOUS
10
134.651
20
-78.2439
11
134.651
21
-77.7677
0
LINE
8
BLACK
6
CONTINUOUS
10
134.651
20
-77.7677
11
134.746
21
-77.3867
0
LINE
8
BLACK
6
CONTINUOUS
10
134.746
20
-77.3867
11
134.841
21
-77.1962
0
LINE
8
BLACK
6
CONTINUOUS
10
134.841
20
-77.1962
11
134.937
21
-77.101
0
LINE
8
BLACK
6
CONTINUOUS
10
134.937
20
-77.101
11
135.127
21
-77.0058
0
LINE
8
BLACK
6
CONTINUOUS
10
137.032
20
-77.0058
11
137.222
21
-77.0058
0
LINE
8
BLACK
6
CONTINUOUS
10
137.222
20
-77.0058
11
137.413
21
-77.101
0
LINE
8
BLACK
6
CONTINUOUS
10
137.413
20
-77.101
11
137.508
21
-77.1962
0
LINE
8
BLACK
6
CONTINUOUS
10
137.508
20
-77.1962
11
137.603
21
-77.3867
0
LINE
8
BLACK
6
CONTINUOUS
10
137.603
20
-77.3867
11
137.698
21
-77.7677
0
LINE
8
BLACK
6
CONTINUOUS
10
137.698
20
-77.7677
11
137.698
21
-78.2439
0
LINE
8
BLACK
6
CONTINUOUS
10
137.698
20
-78.2439
11
137.603
21
-78.6248
0
LINE
8
BLACK
6
CONTINUOUS
10
137.603
20
-78.6248
11
137.508
21
-78.8153
0
LINE
8
BLACK
6
CONTINUOUS
10
137.508
20
-78.8153
11
137.413
21
-78.9105
0
LINE
8
BLACK
6
CONTINUOUS
10
137.413
20
-78.9105
11
137.222
21
-79.0058
0
LINE
8
BLACK
6
CONTINUOUS
10
137.222
20
-79.0058
11
137.032
21
-79.0058
0
LINE
8
BLACK
6
CONTINUOUS
10
137.032
20
-79.0058
11
136.841
21
-78.9105
0
LINE
8
BLACK
6
CONTINUOUS
10
136.841
20
-78.9105
11
136.746
21
-78.8153
0
LINE
8
BLACK
6
CONTINUOUS
10
136.746
20
-78.8153
11
136.651
21
-78.6248
0
LINE
8
BLACK
6
CONTINUOUS
10
136.651
20
-78.6248
11
136.556
21
-78.2439
0
LINE
8
BLACK
6
CONTINUOUS
10
136.556
20
-78.2439
11
136.556
21
-77.7677
0
LINE
8
BLACK
6
CONTINUOUS
10
136.556
20
-77.7677
11
136.651
21
-77.3867
0
LINE
8
BLACK
6
CONTINUOUS
10
136.651
20
-77.3867
11
136.746
21
-77.1962
0
LINE
8
BLACK
6
CONTINUOUS
10
136.746
20
-77.1962
11
136.841
21
-77.101
0
LINE
8
BLACK
6
CONTINUOUS
10
136.841
20
-77.101
11
137.032
21
-77.0058
0
LINE
8
BLACK
6
CONTINUOUS
10
138.556
20
-79.0058
11
138.556
21
-77.6724
0
LINE
8
BLACK
6
CONTINUOUS
10
138.556
20
-77.8629
11
138.651
21
-77.7677
0
LINE
8
BLACK
6
CONTINUOUS
10
138.651
20
-77.7677
11
138.841
21
-77.6724
0
LINE
8
BLACK
6
CONTINUOUS
10
138.841
20
-77.6724
11
139.127
21
-77.6724
0
LINE
8
BLACK
6
CONTINUOUS
10
139.127
20
-77.6724
11
139.318
21
-77.7677
0
LINE
8
BLACK
6
CONTINUOUS
10
139.318
20
-77.7677
11
139.413
21
-77.9581
0
LINE
8
BLACK
6
CONTINUOUS
10
139.413
20
-77.9581
11
139.413
21
-79.0058
0
LINE
8
BLACK
6
CONTINUOUS
10
139.413
20
-77.9581
11
139.508
21
-77.7677
0
LINE
8
BLACK
6
CONTINUOUS
10
139.508
20
-77.7677
11
139.698
21
-77.6724
0
LINE
8
BLACK
6
CONTINUOUS
10
139.698
20
-77.6724
11
139.984
21
-77.6724
0
LINE
8
BLACK
6
CONTINUOUS
10
139.984
20
-77.6724
11
140.175
21
-77.7677
0
LINE
8
BLACK
6
CONTINUOUS
10
140.175
20
-77.7677
11
140.27
21
-77.9581
0
LINE
8
BLACK
6
CONTINUOUS
10
140.27
20
-77.9581
11
140.27
21
-79.0058
0
LINE
8
BLACK
6
CONTINUOUS
10
141.222
20
-79.0058
11
141.222
21
-77.6724
0
LINE
8
BLACK
6
CONTINUOUS
10
141.222
20
-77.8629
11
141.318
21
-77.7677
0
LINE
8
BLACK
6
CONTINUOUS
10
141.318
20
-77.7677
11
141.508
21
-77.6724
0
LINE
8
BLACK
6
CONTINUOUS
10
141.508
20
-77.6724
11
141.794
21
-77.6724
0
LINE
8
BLACK
6
CONTINUOUS
10
141.794
20
-77.6724
11
141.984
21
-77.7677
0
LINE
8
BLACK
6
CONTINUOUS
10
141.984
20
-77.7677
11
142.079
21
-77.9581
0
LINE
8
BLACK
6
CONTINUOUS
10
142.079
20
-77.9581
11
142.079
21
-79.0058
0
LINE
8
BLACK
6
CONTINUOUS
10
142.079
20
-77.9581
11
142.175
21
-77.7677
0
LINE
8
BLACK
6
CONTINUOUS
10
142.175
20
-77.7677
11
142.365
21
-77.6724
0
LINE
8
BLACK
6
CONTINUOUS
10
142.365
20
-77.6724
11
142.651
21
-77.6724
0
LINE
8
BLACK
6
CONTINUOUS
10
142.651
20
-77.6724
11
142.841
21
-77.7677
0
LINE
8
BLACK
6
CONTINUOUS
10
142.841
20
-77.7677
11
142.937
21
-77.9581
0
LINE
8
BLACK
6
CONTINUOUS
10
142.937
20
-77.9581
11
142.937
21
-79.0058
0
LINE
8
BLACK
6
CONTINUOUS
10
146.841
20
-76.9105
11
145.127
21
-79.482
0
LINE
8
BLACK
6
CONTINUOUS
10
149.413
20
-77.0058
11
149.603
21
-77.0058
0
LINE
8
BLACK
6
CONTINUOUS
10
149.603
20
-77.0058
11
149.794
21
-77.101
0
LINE
8
BLACK
6
CONTINUOUS
10
149.794
20
-77.101
11
149.889
21
-77.1962
0
LINE
8
BLACK
6
CONTINUOUS
10
149.889
20
-77.1962
11
149.984
21
-77.3867
0
LINE
8
BLACK
6
CONTINUOUS
10
149.984
20
-77.3867
11
150.079
21
-77.7677
0
LINE
8
BLACK
6
CONTINUOUS
10
150.079
20
-77.7677
11
150.079
21
-78.2439
0
LINE
8
BLACK
6
CONTINUOUS
10
150.079
20
-78.2439
11
149.984
21
-78.6248
0
LINE
8
BLACK
6
CONTINUOUS
10
149.984
20
-78.6248
11
149.889
21
-78.8153
0
LINE
8
BLACK
6
CONTINUOUS
10
149.889
20
-78.8153
11
149.794
21
-78.9105
0
LINE
8
BLACK
6
CONTINUOUS
10
149.794
20
-78.9105
11
149.603
21
-79.0058
0
LINE
8
BLACK
6
CONTINUOUS
10
149.603
20
-79.0058
11
149.413
21
-79.0058
0
LINE
8
BLACK
6
CONTINUOUS
10
149.413
20
-79.0058
11
149.222
21
-78.9105
0
LINE
8
BLACK
6
CONTINUOUS
10
149.222
20
-78.9105
11
149.127
21
-78.8153
0
LINE
8
BLACK
6
CONTINUOUS
10
149.127
20
-78.8153
11
149.032
21
-78.6248
0
LINE
8
BLACK
6
CONTINUOUS
10
149.032
20
-78.6248
11
148.937
21
-78.2439
0
LINE
8
BLACK
6
CONTINUOUS
10
148.937
20
-78.2439
11
148.937
21
-77.7677
0
LINE
8
BLACK
6
CONTINUOUS
10
148.937
20
-77.7677
11
149.032
21
-77.3867
0
LINE
8
BLACK
6
CONTINUOUS
10
149.032
20
-77.3867
11
149.127
21
-77.1962
0
LINE
8
BLACK
6
CONTINUOUS
10
149.127
20
-77.1962
11
149.222
21
-77.101
0
LINE
8
BLACK
6
CONTINUOUS
10
149.222
20
-77.101
11
149.413
21
-77.0058
0
LINE
8
BLACK
6
CONTINUOUS
10
150.937
20
-78.8153
11
151.032
21
-78.9105
0
LINE
8
BLACK
6
CONTINUOUS
10
151.032
20
-78.9105
11
150.937
21
-79.0058
0
LINE
8
BLACK
6
CONTINUOUS
10
150.937
20
-79.0058
11
150.841
21
-78.9105
0
LINE
8
BLACK
6
CONTINUOUS
10
150.841
20
-78.9105
11
150.937
21
-78.8153
0
LINE
8
BLACK
6
CONTINUOUS
10
150.937
20
-78.8153
11
150.937
21
-79.0058
0
LINE
8
BLACK
6
CONTINUOUS
10
152.27
20
-77.0058
11
152.46
21
-77.0058
0
LINE
8
BLACK
6
CONTINUOUS
10
152.46
20
-77.0058
11
152.651
21
-77.101
0
LINE
8
BLACK
6
CONTINUOUS
10
152.651
20
-77.101
11
152.746
21
-77.1962
0
LINE
8
BLACK
6
CONTINUOUS
10
152.746
20
-77.1962
11
152.841
21
-77.3867
0
LINE
8
BLACK
6
CONTINUOUS
10
152.841
20
-77.3867
11
152.937
21
-77.7677
0
LINE
8
BLACK
6
CONTINUOUS
10
152.937
20
-77.7677
11
152.937
21
-78.2439
0
LINE
8
BLACK
6
CONTINUOUS
10
152.937
20
-78.2439
11
152.841
21
-78.6248
0
LINE
8
BLACK
6
CONTINUOUS
10
152.841
20
-78.6248
11
152.746
21
-78.8153
0
LINE
8
BLACK
6
CONTINUOUS
10
152.746
20
-78.8153
11
152.651
21
-78.9105
0
LINE
8
BLACK
6
CONTINUOUS
10
152.651
20
-78.9105
11
152.46
21
-79.0058
0
LINE
8
BLACK
6
CONTINUOUS
10
152.46
20
-79.0058
11
152.27
21
-79.0058
0
LINE
8
BLACK
6
CONTINUOUS
10
152.27
20
-79.0058
11
152.079
21
-78.9105
0
LINE
8
BLACK
6
CONTINUOUS
10
152.079
20
-78.9105
11
151.984
21
-78.8153
0
LINE
8
BLACK
6
CONTINUOUS
10
151.984
20
-78.8153
11
151.889
21
-78.6248
0
LINE
8
BLACK
6
CONTINUOUS
10
151.889
20
-78.6248
11
151.794
21
-78.2439
0
LINE
8
BLACK
6
CONTINUOUS
10
151.794
20
-78.2439
11
151.794
21
-77.7677
0
LINE
8
BLACK
6
CONTINUOUS
10
151.794
20
-77.7677
11
151.889
21
-77.3867
0
LINE
8
BLACK
6
CONTINUOUS
10
151.889
20
-77.3867
11
151.984
21
-77.1962
0
LINE
8
BLACK
6
CONTINUOUS
10
151.984
20
-77.1962
11
152.079
21
-77.101
0
LINE
8
BLACK
6
CONTINUOUS
10
152.079
20
-77.101
11
152.27
21
-77.0058
0
LINE
8
BLACK
6
CONTINUOUS
10
153.698
20
-77.1962
11
153.794
21
-77.101
0
LINE
8
BLACK
6
CONTINUOUS
10
153.794
20
-77.101
11
153.984
21
-77.0058
0
LINE
8
BLACK
6
CONTINUOUS
10
153.984
20
-77.0058
11
154.46
21
-77.0058
0
LINE
8
BLACK
6
CONTINUOUS
10
154.46
20
-77.0058
11
154.651
21
-77.101
0
LINE
8
BLACK
6
CONTINUOUS
10
154.651
20
-77.101
11
154.746
21
-77.1962
0
LINE
8
BLACK
6
CONTINUOUS
10
154.746
20
-77.1962
11
154.841
21
-77.3867
0
LINE
8
BLACK
6
CONTINUOUS
10
154.841
20
-77.3867
11
154.841
21
-77.5772
0
LINE
8
BLACK
6
CONTINUOUS
10
154.841
20
-77.5772
11
154.746
21
-77.8629
0
LINE
8
BLACK
6
CONTINUOUS
10
154.746
20
-77.8629
11
153.603
21
-79.0058
0
LINE
8
BLACK
6
CONTINUOUS
10
153.603
20
-79.0058
11
154.841
21
-79.0058
0
LINE
8
BLACK
6
CONTINUOUS
10
155.508
20
-77.0058
11
156.746
21
-77.0058
0
LINE
8
BLACK
6
CONTINUOUS
10
156.746
20
-77.0058
11
156.079
21
-77.7677
0
LINE
8
BLACK
6
CONTINUOUS
10
156.079
20
-77.7677
11
156.365
21
-77.7677
0
LINE
8
BLACK
6
CONTINUOUS
10
156.365
20
-77.7677
11
156.556
21
-77.8629
0
LINE
8
BLACK
6
CONTINUOUS
10
156.556
20
-77.8629
11
156.651
21
-77.9581
0
LINE
8
BLACK
6
CONTINUOUS
10
156.651
20
-77.9581
11
156.746
21
-78.1486
0
LINE
8
BLACK
6
CONTINUOUS
10
156.746
20
-78.1486
11
156.746
21
-78.6248
0
LINE
8
BLACK
6
CONTINUOUS
10
156.746
20
-78.6248
11
156.651
21
-78.8153
0
LINE
8
BLACK
6
CONTINUOUS
10
156.651
20
-78.8153
11
156.556
21
-78.9105
0
LINE
8
BLACK
6
CONTINUOUS
10
156.556
20
-78.9105
11
156.365
21
-79.0058
0
LINE
8
BLACK
6
CONTINUOUS
10
156.365
20
-79.0058
11
155.794
21
-79.0058
0
LINE
8
BLACK
6
CONTINUOUS
10
155.794
20
-79.0058
11
155.603
21
-78.9105
0
LINE
8
BLACK
6
CONTINUOUS
10
155.603
20
-78.9105
11
155.508
21
-78.8153
0
LINE
8
BLACK
6
CONTINUOUS
10
158.46
20
-77.0058
11
158.079
21
-77.0058
0
LINE
8
BLACK
6
CONTINUOUS
10
158.079
20
-77.0058
11
157.889
21
-77.101
0
LINE
8
BLACK
6
CONTINUOUS
10
157.889
20
-77.101
11
157.794
21
-77.1962
0
LINE
8
BLACK
6
CONTINUOUS
10
157.794
20
-77.1962
11
157.603
21
-77.482
0
LINE
8
BLACK
6
CONTINUOUS
10
157.603
20
-77.482
11
157.508
21
-77.8629
0
LINE
8
BLACK
6
CONTINUOUS
10
157.508
20
-77.8629
11
157.508
21
-78.6248
0
LINE
8
BLACK
6
CONTINUOUS
10
157.508
20
-78.6248
11
157.603
21
-78.8153
0
LINE
8
BLACK
6
CONTINUOUS
10
157.603
20
-78.8153
11
157.698
21
-78.9105
0
LINE
8
BLACK
6
CONTINUOUS
10
157.698
20
-78.9105
11
157.889
21
-79.0058
0
LINE
8
BLACK
6
CONTINUOUS
10
157.889
20
-79.0058
11
158.27
21
-79.0058
0
LINE
8
BLACK
6
CONTINUOUS
10
158.27
20
-79.0058
11
158.46
21
-78.9105
0
LINE
8
BLACK
6
CONTINUOUS
10
158.46
20
-78.9105
11
158.556
21
-78.8153
0
LINE
8
BLACK
6
CONTINUOUS
10
158.556
20
-78.8153
11
158.651
21
-78.6248
0
LINE
8
BLACK
6
CONTINUOUS
10
158.651
20
-78.6248
11
158.651
21
-78.1486
0
LINE
8
BLACK
6
CONTINUOUS
10
158.651
20
-78.1486
11
158.556
21
-77.9581
0
LINE
8
BLACK
6
CONTINUOUS
10
158.556
20
-77.9581
11
158.46
21
-77.8629
0
LINE
8
BLACK
6
CONTINUOUS
10
158.46
20
-77.8629
11
158.27
21
-77.7677
0
LINE
8
BLACK
6
CONTINUOUS
10
158.27
20
-77.7677
11
157.889
21
-77.7677
0
LINE
8
BLACK
6
CONTINUOUS
10
157.889
20
-77.7677
11
157.698
21
-77.8629
0
LINE
8
BLACK
6
CONTINUOUS
10
157.698
20
-77.8629
11
157.603
21
-77.9581
0
LINE
8
BLACK
6
CONTINUOUS
10
157.603
20
-77.9581
11
157.508
21
-78.1486
0
LINE
8
BLACK
6
CONTINUOUS
10
159.413
20
-77.0058
11
159.413
21
-77.3867
0
LINE
8
BLACK
6
CONTINUOUS
10
160.175
20
-77.0058
11
160.175
21
-77.3867
0
LINE
8
BLACK
6
CONTINUOUS
10
163.127
20
-79.7677
11
163.032
21
-79.6724
0
LINE
8
BLACK
6
CONTINUOUS
10
163.032
20
-79.6724
11
162.841
21
-79.3867
0
LINE
8
BLACK
6
CONTINUOUS
10
162.841
20
-79.3867
11
162.746
21
-79.1962
0
LINE
8
BLACK
6
CONTINUOUS
10
162.746
20
-79.1962
11
162.651
21
-78.9105
0
LINE
8
BLACK
6
CONTINUOUS
10
162.651
20
-78.9105
11
162.556
21
-78.4343
0
LINE
8
BLACK
6
CONTINUOUS
10
162.556
20
-78.4343
11
162.556
21
-78.0534
0
LINE
8
BLACK
6
CONTINUOUS
10
162.556
20
-78.0534
11
162.651
21
-77.5772
0
LINE
8
BLACK
6
CONTINUOUS
10
162.651
20
-77.5772
11
162.746
21
-77.2915
0
LINE
8
BLACK
6
CONTINUOUS
10
162.746
20
-77.2915
11
162.841
21
-77.101
0
LINE
8
BLACK
6
CONTINUOUS
10
162.841
20
-77.101
11
163.032
21
-76.8153
0
LINE
8
BLACK
6
CONTINUOUS
10
163.032
20
-76.8153
11
163.127
21
-76.72
0
LINE
8
BLACK
6
CONTINUOUS
10
164.27
20
-77.0058
11
164.46
21
-77.0058
0
LINE
8
BLACK
6
CONTINUOUS
10
164.46
20
-77.0058
11
164.651
21
-77.101
0
LINE
8
BLACK
6
CONTINUOUS
10
164.651
20
-77.101
11
164.746
21
-77.1962
0
LINE
8
BLACK
6
CONTINUOUS
10
164.746
20
-77.1962
11
164.841
21
-77.3867
0
LINE
8
BLACK
6
CONTINUOUS
10
164.841
20
-77.3867
11
164.937
21
-77.7677
0
LINE
8
BLACK
6
CONTINUOUS
10
164.937
20
-77.7677
11
164.937
21
-78.2439
0
LINE
8
BLACK
6
CONTINUOUS
10
164.937
20
-78.2439
11
164.841
21
-78.6248
0
LINE
8
BLACK
6
CONTINUOUS
10
164.841
20
-78.6248
11
164.746
21
-78.8153
0
LINE
8
BLACK
6
CONTINUOUS
10
164.746
20
-78.8153
11
164.651
21
-78.9105
0
LINE
8
BLACK
6
CONTINUOUS
10
164.651
20
-78.9105
11
164.46
21
-79.0058
0
LINE
8
BLACK
6
CONTINUOUS
10
164.46
20
-79.0058
11
164.27
21
-79.0058
0
LINE
8
BLACK
6
CONTINUOUS
10
164.27
20
-79.0058
11
164.079
21
-78.9105
0
LINE
8
BLACK
6
CONTINUOUS
10
164.079
20
-78.9105
11
163.984
21
-78.8153
0
LINE
8
BLACK
6
CONTINUOUS
10
163.984
20
-78.8153
11
163.889
21
-78.6248
0
LINE
8
BLACK
6
CONTINUOUS
10
163.889
20
-78.6248
11
163.794
21
-78.2439
0
LINE
8
BLACK
6
CONTINUOUS
10
163.794
20
-78.2439
11
163.794
21
-77.7677
0
LINE
8
BLACK
6
CONTINUOUS
10
163.794
20
-77.7677
11
163.889
21
-77.3867
0
LINE
8
BLACK
6
CONTINUOUS
10
163.889
20
-77.3867
11
163.984
21
-77.1962
0
LINE
8
BLACK
6
CONTINUOUS
10
163.984
20
-77.1962
11
164.079
21
-77.101
0
LINE
8
BLACK
6
CONTINUOUS
10
164.079
20
-77.101
11
164.27
21
-77.0058
0
LINE
8
BLACK
6
CONTINUOUS
10
167.318
20
-79.0058
11
167.318
21
-77.0058
0
LINE
8
BLACK
6
CONTINUOUS
10
168.175
20
-79.0058
11
168.175
21
-77.9581
0
LINE
8
BLACK
6
CONTINUOUS
10
168.175
20
-77.9581
11
168.079
21
-77.7677
0
LINE
8
BLACK
6
CONTINUOUS
10
168.079
20
-77.7677
11
167.889
21
-77.6724
0
LINE
8
BLACK
6
CONTINUOUS
10
167.889
20
-77.6724
11
167.603
21
-77.6724
0
LINE
8
BLACK
6
CONTINUOUS
10
167.603
20
-77.6724
11
167.413
21
-77.7677
0
LINE
8
BLACK
6
CONTINUOUS
10
167.413
20
-77.7677
11
167.318
21
-77.8629
0
LINE
8
BLACK
6
CONTINUOUS
10
169.413
20
-79.0058
11
169.222
21
-78.9105
0
LINE
8
BLACK
6
CONTINUOUS
10
169.222
20
-78.9105
11
169.127
21
-78.8153
0
LINE
8
BLACK
6
CONTINUOUS
10
169.127
20
-78.8153
11
169.032
21
-78.6248
0
LINE
8
BLACK
6
CONTINUOUS
10
169.032
20
-78.6248
11
169.032
21
-78.0534
0
LINE
8
BLACK
6
CONTINUOUS
10
169.032
20
-78.0534
11
169.127
21
-77.8629
0
LINE
8
BLACK
6
CONTINUOUS
10
169.127
20
-77.8629
11
169.222
21
-77.7677
0
LINE
8
BLACK
6
CONTINUOUS
10
169.222
20
-77.7677
11
169.413
21
-77.6724
0
LINE
8
BLACK
6
CONTINUOUS
10
169.413
20
-77.6724
11
169.698
21
-77.6724
0
LINE
8
BLACK
6
CONTINUOUS
10
169.698
20
-77.6724
11
169.889
21
-77.7677
0
LINE
8
BLACK
6
CONTINUOUS
10
169.889
20
-77.7677
11
169.984
21
-77.8629
0
LINE
8
BLACK
6
CONTINUOUS
10
169.984
20
-77.8629
11
170.079
21
-78.0534
0
LINE
8
BLACK
6
CONTINUOUS
10
170.079
20
-78.0534
11
170.079
21
-78.6248
0
LINE
8
BLACK
6
CONTINUOUS
10
170.079
20
-78.6248
11
169.984
21
-78.8153
0
LINE
8
BLACK
6
CONTINUOUS
10
169.984
20
-78.8153
11
169.889
21
-78.9105
0
LINE
8
BLACK
6
CONTINUOUS
10
169.889
20
-78.9105
11
169.698
21
-79.0058
0
LINE
8
BLACK
6
CONTINUOUS
10
169.698
20
-79.0058
11
169.413
21
-79.0058
0
LINE
8
BLACK
6
CONTINUOUS
10
171.222
20
-79.0058
11
171.032
21
-78.9105
0
LINE
8
BLACK
6
CONTINUOUS
10
171.032
20
-78.9105
11
170.937
21
-78.72
0
LINE
8
BLACK
6
CONTINUOUS
10
170.937
20
-78.72
11
170.937
21
-77.0058
0
LINE
8
BLACK
6
CONTINUOUS
10
172.746
20
-78.9105
11
172.556
21
-79.0058
0
LINE
8
BLACK
6
CONTINUOUS
10
172.556
20
-79.0058
11
172.175
21
-79.0058
0
LINE
8
BLACK
6
CONTINUOUS
10
172.175
20
-79.0058
11
171.984
21
-78.9105
0
LINE
8
BLACK
6
CONTINUOUS
10
171.984
20
-78.9105
11
171.889
21
-78.72
0
LINE
8
BLACK
6
CONTINUOUS
10
171.889
20
-78.72
11
171.889
21
-77.9581
0
LINE
8
BLACK
6
CONTINUOUS
10
171.889
20
-77.9581
11
171.984
21
-77.7677
0
LINE
8
BLACK
6
CONTINUOUS
10
171.984
20
-77.7677
11
172.175
21
-77.6724
0
LINE
8
BLACK
6
CONTINUOUS
10
172.175
20
-77.6724
11
172.556
21
-77.6724
0
LINE
8
BLACK
6
CONTINUOUS
10
172.556
20
-77.6724
11
172.746
21
-77.7677
0
LINE
8
BLACK
6
CONTINUOUS
10
172.746
20
-77.7677
11
172.841
21
-77.9581
0
LINE
8
BLACK
6
CONTINUOUS
10
172.841
20
-77.9581
11
172.841
21
-78.1486
0
LINE
8
BLACK
6
CONTINUOUS
10
172.841
20
-78.1486
11
171.889
21
-78.3391
0
LINE
8
BLACK
6
CONTINUOUS
10
173.603
20
-78.9105
11
173.794
21
-79.0058
0
LINE
8
BLACK
6
CONTINUOUS
10
173.794
20
-79.0058
11
174.175
21
-79.0058
0
LINE
8
BLACK
6
CONTINUOUS
10
174.175
20
-79.0058
11
174.365
21
-78.9105
0
LINE
8
BLACK
6
CONTINUOUS
10
174.365
20
-78.9105
11
174.46
21
-78.72
0
LINE
8
BLACK
6
CONTINUOUS
10
174.46
20
-78.72
11
174.46
21
-78.6248
0
LINE
8
BLACK
6
CONTINUOUS
10
174.46
20
-78.6248
11
174.365
21
-78.4343
0
LINE
8
BLACK
6
CONTINUOUS
10
174.365
20
-78.4343
11
174.175
21
-78.3391
0
LINE
8
BLACK
6
CONTINUOUS
10
174.175
20
-78.3391
11
173.889
21
-78.3391
0
LINE
8
BLACK
6
CONTINUOUS
10
173.889
20
-78.3391
11
173.698
21
-78.2439
0
LINE
8
BLACK
6
CONTINUOUS
10
173.698
20
-78.2439
11
173.603
21
-78.0534
0
LINE
8
BLACK
6
CONTINUOUS
10
173.603
20
-78.0534
11
173.603
21
-77.9581
0
LINE
8
BLACK
6
CONTINUOUS
10
173.603
20
-77.9581
11
173.698
21
-77.7677
0
LINE
8
BLACK
6
CONTINUOUS
10
173.698
20
-77.7677
11
173.889
21
-77.6724
0
LINE
8
BLACK
6
CONTINUOUS
10
173.889
20
-77.6724
11
174.175
21
-77.6724
0
LINE
8
BLACK
6
CONTINUOUS
10
174.175
20
-77.6724
11
174.365
21
-77.7677
0
LINE
8
BLACK
6
CONTINUOUS
10
176.841
20
-78.2439
11
178.365
21
-78.2439
0
LINE
8
BLACK
6
CONTINUOUS
10
177.603
20
-79.0058
11
177.603
21
-77.482
0
LINE
8
BLACK
6
CONTINUOUS
10
180.746
20
-77.1962
11
180.841
21
-77.101
0
LINE
8
BLACK
6
CONTINUOUS
10
180.841
20
-77.101
11
181.032
21
-77.0058
0
LINE
8
BLACK
6
CONTINUOUS
10
181.032
20
-77.0058
11
181.508
21
-77.0058
0
LINE
8
BLACK
6
CONTINUOUS
10
181.508
20
-77.0058
11
181.698
21
-77.101
0
LINE
8
BLACK
6
CONTINUOUS
10
181.698
20
-77.101
11
181.794
21
-77.1962
0
LINE
8
BLACK
6
CONTINUOUS
10
181.794
20
-77.1962
11
181.889
21
-77.3867
0
LINE
8
BLACK
6
CONTINUOUS
10
181.889
20
-77.3867
11
181.889
21
-77.5772
0
LINE
8
BLACK
6
CONTINUOUS
10
181.889
20
-77.5772
11
181.794
21
-77.8629
0
LINE
8
BLACK
6
CONTINUOUS
10
181.794
20
-77.8629
11
180.651
21
-79.0058
0
LINE
8
BLACK
6
CONTINUOUS
10
180.651
20
-79.0058
11
181.889
21
-79.0058
0
LINE
8
BLACK
6
CONTINUOUS
10
184.175
20
-78.9105
11
184.365
21
-79.0058
0
LINE
8
BLACK
6
CONTINUOUS
10
184.365
20
-79.0058
11
184.746
21
-79.0058
0
LINE
8
BLACK
6
CONTINUOUS
10
184.746
20
-79.0058
11
184.937
21
-78.9105
0
LINE
8
BLACK
6
CONTINUOUS
10
184.937
20
-78.9105
11
185.032
21
-78.72
0
LINE
8
BLACK
6
CONTINUOUS
10
185.032
20
-78.72
11
185.032
21
-78.6248
0
LINE
8
BLACK
6
CONTINUOUS
10
185.032
20
-78.6248
11
184.937
21
-78.4343
0
LINE
8
BLACK
6
CONTINUOUS
10
184.937
20
-78.4343
11
184.746
21
-78.3391
0
LINE
8
BLACK
6
CONTINUOUS
10
184.746
20
-78.3391
11
184.46
21
-78.3391
0
LINE
8
BLACK
6
CONTINUOUS
10
184.46
20
-78.3391
11
184.27
21
-78.2439
0
LINE
8
BLACK
6
CONTINUOUS
10
184.27
20
-78.2439
11
184.175
21
-78.0534
0
LINE
8
BLACK
6
CONTINUOUS
10
184.175
20
-78.0534
11
184.175
21
-77.9581
0
LINE
8
BLACK
6
CONTINUOUS
10
184.175
20
-77.9581
11
184.27
21
-77.7677
0
LINE
8
BLACK
6
CONTINUOUS
10
184.27
20
-77.7677
11
184.46
21
-77.6724
0
LINE
8
BLACK
6
CONTINUOUS
10
184.46
20
-77.6724
11
184.746
21
-77.6724
0
LINE
8
BLACK
6
CONTINUOUS
10
184.746
20
-77.6724
11
184.937
21
-77.7677
0
LINE
8
BLACK
6
CONTINUOUS
10
186.175
20
-79.0058
11
185.984
21
-78.9105
0
LINE
8
BLACK
6
CONTINUOUS
10
185.984
20
-78.9105
11
185.889
21
-78.72
0
LINE
8
BLACK
6
CONTINUOUS
10
185.889
20
-78.72
11
185.889
21
-77.0058
0
LINE
8
BLACK
6
CONTINUOUS
10
187.222
20
-79.0058
11
187.032
21
-78.9105
0
LINE
8
BLACK
6
CONTINUOUS
10
187.032
20
-78.9105
11
186.937
21
-78.8153
0
LINE
8
BLACK
6
CONTINUOUS
10
186.937
20
-78.8153
11
186.841
21
-78.6248
0
LINE
8
BLACK
6
CONTINUOUS
10
186.841
20
-78.6248
11
186.841
21
-78.0534
0
LINE
8
BLACK
6
CONTINUOUS
10
186.841
20
-78.0534
11
186.937
21
-77.8629
0
LINE
8
BLACK
6
CONTINUOUS
10
186.937
20
-77.8629
11
187.032
21
-77.7677
0
LINE
8
BLACK
6
CONTINUOUS
10
187.032
20
-77.7677
11
187.222
21
-77.6724
0
LINE
8
BLACK
6
CONTINUOUS
10
187.222
20
-77.6724
11
187.508
21
-77.6724
0
LINE
8
BLACK
6
CONTINUOUS
10
187.508
20
-77.6724
11
187.698
21
-77.7677
0
LINE
8
BLACK
6
CONTINUOUS
10
187.698
20
-77.7677
11
187.794
21
-77.8629
0
LINE
8
BLACK
6
CONTINUOUS
10
187.794
20
-77.8629
11
187.889
21
-78.0534
0
LINE
8
BLACK
6
CONTINUOUS
10
187.889
20
-78.0534
11
187.889
21
-78.6248
0
LINE
8
BLACK
6
CONTINUOUS
10
187.889
20
-78.6248
11
187.794
21
-78.8153
0
LINE
8
BLACK
6
CONTINUOUS
10
187.794
20
-78.8153
11
187.698
21
-78.9105
0
LINE
8
BLACK
6
CONTINUOUS
10
187.698
20
-78.9105
11
187.508
21
-79.0058
0
LINE
8
BLACK
6
CONTINUOUS
10
187.508
20
-79.0058
11
187.222
21
-79.0058
0
LINE
8
BLACK
6
CONTINUOUS
10
188.46
20
-77.6724
11
189.222
21
-77.6724
0
LINE
8
BLACK
6
CONTINUOUS
10
188.746
20
-77.0058
11
188.746
21
-78.72
0
LINE
8
BLACK
6
CONTINUOUS
10
188.746
20
-78.72
11
188.841
21
-78.9105
0
LINE
8
BLACK
6
CONTINUOUS
10
188.841
20
-78.9105
11
189.032
21
-79.0058
0
LINE
8
BLACK
6
CONTINUOUS
10
189.032
20
-79.0058
11
189.222
21
-79.0058
0
LINE
8
BLACK
6
CONTINUOUS
10
189.794
20
-78.9105
11
189.984
21
-79.0058
0
LINE
8
BLACK
6
CONTINUOUS
10
189.984
20
-79.0058
11
190.365
21
-79.0058
0
LINE
8
BLACK
6
CONTINUOUS
10
190.365
20
-79.0058
11
190.556
21
-78.9105
0
LINE
8
BLACK
6
CONTINUOUS
10
190.556
20
-78.9105
11
190.651
21
-78.72
0
LINE
8
BLACK
6
CONTINUOUS
10
190.651
20
-78.72
11
190.651
21
-78.6248
0
LINE
8
BLACK
6
CONTINUOUS
10
190.651
20
-78.6248
11
190.556
21
-78.4343
0
LINE
8
BLACK
6
CONTINUOUS
10
190.556
20
-78.4343
11
190.365
21
-78.3391
0
LINE
8
BLACK
6
CONTINUOUS
10
190.365
20
-78.3391
11
190.079
21
-78.3391
0
LINE
8
BLACK
6
CONTINUOUS
10
190.079
20
-78.3391
11
189.889
21
-78.2439
0
LINE
8
BLACK
6
CONTINUOUS
10
189.889
20
-78.2439
11
189.794
21
-78.0534
0
LINE
8
BLACK
6
CONTINUOUS
10
189.794
20
-78.0534
11
189.794
21
-77.9581
0
LINE
8
BLACK
6
CONTINUOUS
10
189.794
20
-77.9581
11
189.889
21
-77.7677
0
LINE
8
BLACK
6
CONTINUOUS
10
189.889
20
-77.7677
11
190.079
21
-77.6724
0
LINE
8
BLACK
6
CONTINUOUS
10
190.079
20
-77.6724
11
190.365
21
-77.6724
0
LINE
8
BLACK
6
CONTINUOUS
10
190.365
20
-77.6724
11
190.556
21
-77.7677
0
LINE
8
BLACK
6
CONTINUOUS
10
191.318
20
-79.7677
11
191.413
21
-79.6724
0
LINE
8
BLACK
6
CONTINUOUS
10
191.413
20
-79.6724
11
191.603
21
-79.3867
0
LINE
8
BLACK
6
CONTINUOUS
10
191.603
20
-79.3867
11
191.698
21
-79.1962
0
LINE
8
BLACK
6
CONTINUOUS
10
191.698
20
-79.1962
11
191.794
21
-78.9105
0
LINE
8
BLACK
6
CONTINUOUS
10
191.794
20
-78.9105
11
191.889
21
-78.4343
0
LINE
8
BLACK
6
CONTINUOUS
10
191.889
20
-78.4343
11
191.889
21
-78.0534
0
LINE
8
BLACK
6
CONTINUOUS
10
191.889
20
-78.0534
11
191.794
21
-77.5772
0
LINE
8
BLACK
6
CONTINUOUS
10
191.794
20
-77.5772
11
191.698
21
-77.2915
0
LINE
8
BLACK
6
CONTINUOUS
10
191.698
20
-77.2915
11
191.603
21
-77.101
0
LINE
8
BLACK
6
CONTINUOUS
10
191.603
20
-77.101
11
191.413
21
-76.8153
0
LINE
8
BLACK
6
CONTINUOUS
10
191.413
20
-76.8153
11
191.318
21
-76.72
0
LINE
8
BLACK
6
CONTINUOUS
10
126.958
20
-80.291
11
126.958
21
-81.191
0
LINE
8
BLACK
6
CONTINUOUS
10
126.508
20
-80.741
11
127.408
21
-80.741
0
LINE
8
BLACK
6
CONTINUOUS
10
130.365
20
-79.6458
11
130.556
21
-79.6458
0
LINE
8
BLACK
6
CONTINUOUS
10
130.556
20
-79.6458
11
130.746
21
-79.741
0
LINE
8
BLACK
6
CONTINUOUS
10
130.746
20
-79.741
11
130.841
21
-79.8362
0
LINE
8
BLACK
6
CONTINUOUS
10
130.841
20
-79.8362
11
130.937
21
-80.0267
0
LINE
8
BLACK
6
CONTINUOUS
10
130.937
20
-80.0267
11
131.032
21
-80.4077
0
LINE
8
BLACK
6
CONTINUOUS
10
131.032
20
-80.4077
11
131.032
21
-80.8839
0
LINE
8
BLACK
6
CONTINUOUS
10
131.032
20
-80.8839
11
130.937
21
-81.2648
0
LINE
8
BLACK
6
CONTINUOUS
10
130.937
20
-81.2648
11
130.841
21
-81.4553
0
LINE
8
BLACK
6
CONTINUOUS
10
130.841
20
-81.4553
11
130.746
21
-81.5505
0
LINE
8
BLACK
6
CONTINUOUS
10
130.746
20
-81.5505
11
130.556
21
-81.6458
0
LINE
8
BLACK
6
CONTINUOUS
10
130.556
20
-81.6458
11
130.365
21
-81.6458
0
LINE
8
BLACK
6
CONTINUOUS
10
130.365
20
-81.6458
11
130.175
21
-81.5505
0
LINE
8
BLACK
6
CONTINUOUS
10
130.175
20
-81.5505
11
130.079
21
-81.4553
0
LINE
8
BLACK
6
CONTINUOUS
10
130.079
20
-81.4553
11
129.984
21
-81.2648
0
LINE
8
BLACK
6
CONTINUOUS
10
129.984
20
-81.2648
11
129.889
21
-80.8839
0
LINE
8
BLACK
6
CONTINUOUS
10
129.889
20
-80.8839
11
129.889
21
-80.4077
0
LINE
8
BLACK
6
CONTINUOUS
10
129.889
20
-80.4077
11
129.984
21
-80.0267
0
LINE
8
BLACK
6
CONTINUOUS
10
129.984
20
-80.0267
11
130.079
21
-79.8362
0
LINE
8
BLACK
6
CONTINUOUS
10
130.079
20
-79.8362
11
130.175
21
-79.741
0
LINE
8
BLACK
6
CONTINUOUS
10
130.175
20
-79.741
11
130.365
21
-79.6458
0
LINE
8
BLACK
6
CONTINUOUS
10
131.889
20
-81.4553
11
131.984
21
-81.5505
0
LINE
8
BLACK
6
CONTINUOUS
10
131.984
20
-81.5505
11
131.889
21
-81.6458
0
LINE
8
BLACK
6
CONTINUOUS
10
131.889
20
-81.6458
11
131.794
21
-81.5505
0
LINE
8
BLACK
6
CONTINUOUS
10
131.794
20
-81.5505
11
131.889
21
-81.4553
0
LINE
8
BLACK
6
CONTINUOUS
10
131.889
20
-81.4553
11
131.889
21
-81.6458
0
LINE
8
BLACK
6
CONTINUOUS
10
132.937
20
-81.6458
11
133.318
21
-81.6458
0
LINE
8
BLACK
6
CONTINUOUS
10
133.318
20
-81.6458
11
133.508
21
-81.5505
0
LINE
8
BLACK
6
CONTINUOUS
10
133.508
20
-81.5505
11
133.603
21
-81.4553
0
LINE
8
BLACK
6
CONTINUOUS
10
133.603
20
-81.4553
11
133.794
21
-81.1696
0
LINE
8
BLACK
6
CONTINUOUS
10
133.794
20
-81.1696
11
133.889
21
-80.7886
0
LINE
8
BLACK
6
CONTINUOUS
10
133.889
20
-80.7886
11
133.889
21
-80.0267
0
LINE
8
BLACK
6
CONTINUOUS
10
133.889
20
-80.0267
11
133.794
21
-79.8362
0
LINE
8
BLACK
6
CONTINUOUS
10
133.794
20
-79.8362
11
133.698
21
-79.741
0
LINE
8
BLACK
6
CONTINUOUS
10
133.698
20
-79.741
11
133.508
21
-79.6458
0
LINE
8
BLACK
6
CONTINUOUS
10
133.508
20
-79.6458
11
133.127
21
-79.6458
0
LINE
8
BLACK
6
CONTINUOUS
10
133.127
20
-79.6458
11
132.937
21
-79.741
0
LINE
8
BLACK
6
CONTINUOUS
10
132.937
20
-79.741
11
132.841
21
-79.8362
0
LINE
8
BLACK
6
CONTINUOUS
10
132.841
20
-79.8362
11
132.746
21
-80.0267
0
LINE
8
BLACK
6
CONTINUOUS
10
132.746
20
-80.0267
11
132.746
21
-80.5029
0
LINE
8
BLACK
6
CONTINUOUS
10
132.746
20
-80.5029
11
132.841
21
-80.6934
0
LINE
8
BLACK
6
CONTINUOUS
10
132.841
20
-80.6934
11
132.937
21
-80.7886
0
LINE
8
BLACK
6
CONTINUOUS
10
132.937
20
-80.7886
11
133.127
21
-80.8839
0
LINE
8
BLACK
6
CONTINUOUS
10
133.127
20
-80.8839
11
133.508
21
-80.8839
0
LINE
8
BLACK
6
CONTINUOUS
10
133.508
20
-80.8839
11
133.698
21
-80.7886
0
LINE
8
BLACK
6
CONTINUOUS
10
133.698
20
-80.7886
11
133.794
21
-80.6934
0
LINE
8
BLACK
6
CONTINUOUS
10
133.794
20
-80.6934
11
133.889
21
-80.5029
0
LINE
8
BLACK
6
CONTINUOUS
10
135.127
20
-79.6458
11
135.318
21
-79.6458
0
LINE
8
BLACK
6
CONTINUOUS
10
135.318
20
-79.6458
11
135.508
21
-79.741
0
LINE
8
BLACK
6
CONTINUOUS
10
135.508
20
-79.741
11
135.603
21
-79.8362
0
LINE
8
BLACK
6
CONTINUOUS
10
135.603
20
-79.8362
11
135.698
21
-80.0267
0
LINE
8
BLACK
6
CONTINUOUS
10
135.698
20
-80.0267
11
135.794
21
-80.4077
0
LINE
8
BLACK
6
CONTINUOUS
10
135.794
20
-80.4077
11
135.794
21
-80.8839
0
LINE
8
BLACK
6
CONTINUOUS
10
135.794
20
-80.8839
11
135.698
21
-81.2648
0
LINE
8
BLACK
6
CONTINUOUS
10
135.698
20
-81.2648
11
135.603
21
-81.4553
0
LINE
8
BLACK
6
CONTINUOUS
10
135.603
20
-81.4553
11
135.508
21
-81.5505
0
LINE
8
BLACK
6
CONTINUOUS
10
135.508
20
-81.5505
11
135.318
21
-81.6458
0
LINE
8
BLACK
6
CONTINUOUS
10
135.318
20
-81.6458
11
135.127
21
-81.6458
0
LINE
8
BLACK
6
CONTINUOUS
10
135.127
20
-81.6458
11
134.937
21
-81.5505
0
LINE
8
BLACK
6
CONTINUOUS
10
134.937
20
-81.5505
11
134.841
21
-81.4553
0
LINE
8
BLACK
6
CONTINUOUS
10
134.841
20
-81.4553
11
134.746
21
-81.2648
0
LINE
8
BLACK
6
CONTINUOUS
10
134.746
20
-81.2648
11
134.651
21
-80.8839
0
LINE
8
BLACK
6
CONTINUOUS
10
134.651
20
-80.8839
11
134.651
21
-80.4077
0
LINE
8
BLACK
6
CONTINUOUS
10
134.651
20
-80.4077
11
134.746
21
-80.0267
0
LINE
8
BLACK
6
CONTINUOUS
10
134.746
20
-80.0267
11
134.841
21
-79.8362
0
LINE
8
BLACK
6
CONTINUOUS
10
134.841
20
-79.8362
11
134.937
21
-79.741
0
LINE
8
BLACK
6
CONTINUOUS
10
134.937
20
-79.741
11
135.127
21
-79.6458
0
LINE
8
BLACK
6
CONTINUOUS
10
137.032
20
-79.6458
11
137.222
21
-79.6458
0
LINE
8
BLACK
6
CONTINUOUS
10
137.222
20
-79.6458
11
137.413
21
-79.741
0
LINE
8
BLACK
6
CONTINUOUS
10
137.413
20
-79.741
11
137.508
21
-79.8362
0
LINE
8
BLACK
6
CONTINUOUS
10
137.508
20
-79.8362
11
137.603
21
-80.0267
0
LINE
8
BLACK
6
CONTINUOUS
10
137.603
20
-80.0267
11
137.698
21
-80.4077
0
LINE
8
BLACK
6
CONTINUOUS
10
137.698
20
-80.4077
11
137.698
21
-80.8839
0
LINE
8
BLACK
6
CONTINUOUS
10
137.698
20
-80.8839
11
137.603
21
-81.2648
0
LINE
8
BLACK
6
CONTINUOUS
10
137.603
20
-81.2648
11
137.508
21
-81.4553
0
LINE
8
BLACK
6
CONTINUOUS
10
137.508
20
-81.4553
11
137.413
21
-81.5505
0
LINE
8
BLACK
6
CONTINUOUS
10
137.413
20
-81.5505
11
137.222
21
-81.6458
0
LINE
8
BLACK
6
CONTINUOUS
10
137.222
20
-81.6458
11
137.032
21
-81.6458
0
LINE
8
BLACK
6
CONTINUOUS
10
137.032
20
-81.6458
11
136.841
21
-81.5505
0
LINE
8
BLACK
6
CONTINUOUS
10
136.841
20
-81.5505
11
136.746
21
-81.4553
0
LINE
8
BLACK
6
CONTINUOUS
10
136.746
20
-81.4553
11
136.651
21
-81.2648
0
LINE
8
BLACK
6
CONTINUOUS
10
136.651
20
-81.2648
11
136.556
21
-80.8839
0
LINE
8
BLACK
6
CONTINUOUS
10
136.556
20
-80.8839
11
136.556
21
-80.4077
0
LINE
8
BLACK
6
CONTINUOUS
10
136.556
20
-80.4077
11
136.651
21
-80.0267
0
LINE
8
BLACK
6
CONTINUOUS
10
136.651
20
-80.0267
11
136.746
21
-79.8362
0
LINE
8
BLACK
6
CONTINUOUS
10
136.746
20
-79.8362
11
136.841
21
-79.741
0
LINE
8
BLACK
6
CONTINUOUS
10
136.841
20
-79.741
11
137.032
21
-79.6458
0
LINE
8
BLACK
6
CONTINUOUS
10
138.556
20
-81.6458
11
138.556
21
-80.3124
0
LINE
8
BLACK
6
CONTINUOUS
10
138.556
20
-80.5029
11
138.651
21
-80.4077
0
LINE
8
BLACK
6
CONTINUOUS
10
138.651
20
-80.4077
11
138.841
21
-80.3124
0
LINE
8
BLACK
6
CONTINUOUS
10
138.841
20
-80.3124
11
139.127
21
-80.3124
0
LINE
8
BLACK
6
CONTINUOUS
10
139.127
20
-80.3124
11
139.318
21
-80.4077
0
LINE
8
BLACK
6
CONTINUOUS
10
139.318
20
-80.4077
11
139.413
21
-80.5981
0
LINE
8
BLACK
6
CONTINUOUS
10
139.413
20
-80.5981
11
139.413
21
-81.6458
0
LINE
8
BLACK
6
CONTINUOUS
10
139.413
20
-80.5981
11
139.508
21
-80.4077
0
LINE
8
BLACK
6
CONTINUOUS
10
139.508
20
-80.4077
11
139.698
21
-80.3124
0
LINE
8
BLACK
6
CONTINUOUS
10
139.698
20
-80.3124
11
139.984
21
-80.3124
0
LINE
8
BLACK
6
CONTINUOUS
10
139.984
20
-80.3124
11
140.175
21
-80.4077
0
LINE
8
BLACK
6
CONTINUOUS
10
140.175
20
-80.4077
11
140.27
21
-80.5981
0
LINE
8
BLACK
6
CONTINUOUS
10
140.27
20
-80.5981
11
140.27
21
-81.6458
0
LINE
8
BLACK
6
CONTINUOUS
10
141.222
20
-81.6458
11
141.222
21
-80.3124
0
LINE
8
BLACK
6
CONTINUOUS
10
141.222
20
-80.5029
11
141.318
21
-80.4077
0
LINE
8
BLACK
6
CONTINUOUS
10
141.318
20
-80.4077
11
141.508
21
-80.3124
0
LINE
8
BLACK
6
CONTINUOUS
10
141.508
20
-80.3124
11
141.794
21
-80.3124
0
LINE
8
BLACK
6
CONTINUOUS
10
141.794
20
-80.3124
11
141.984
21
-80.4077
0
LINE
8
BLACK
6
CONTINUOUS
10
141.984
20
-80.4077
11
142.079
21
-80.5981
0
LINE
8
BLACK
6
CONTINUOUS
10
142.079
20
-80.5981
11
142.079
21
-81.6458
0
LINE
8
BLACK
6
CONTINUOUS
10
142.079
20
-80.5981
11
142.175
21
-80.4077
0
LINE
8
BLACK
6
CONTINUOUS
10
142.175
20
-80.4077
11
142.365
21
-80.3124
0
LINE
8
BLACK
6
CONTINUOUS
10
142.365
20
-80.3124
11
142.651
21
-80.3124
0
LINE
8
BLACK
6
CONTINUOUS
10
142.651
20
-80.3124
11
142.841
21
-80.4077
0
LINE
8
BLACK
6
CONTINUOUS
10
142.841
20
-80.4077
11
142.937
21
-80.5981
0
LINE
8
BLACK
6
CONTINUOUS
10
142.937
20
-80.5981
11
142.937
21
-81.6458
0
LINE
8
BLACK
6
CONTINUOUS
10
146.841
20
-79.5505
11
145.127
21
-82.122
0
LINE
8
BLACK
6
CONTINUOUS
10
149.413
20
-79.6458
11
149.603
21
-79.6458
0
LINE
8
BLACK
6
CONTINUOUS
10
149.603
20
-79.6458
11
149.794
21
-79.741
0
LINE
8
BLACK
6
CONTINUOUS
10
149.794
20
-79.741
11
149.889
21
-79.8362
0
LINE
8
BLACK
6
CONTINUOUS
10
149.889
20
-79.8362
11
149.984
21
-80.0267
0
LINE
8
BLACK
6
CONTINUOUS
10
149.984
20
-80.0267
11
150.079
21
-80.4077
0
LINE
8
BLACK
6
CONTINUOUS
10
150.079
20
-80.4077
11
150.079
21
-80.8839
0
LINE
8
BLACK
6
CONTINUOUS
10
150.079
20
-80.8839
11
149.984
21
-81.2648
0
LINE
8
BLACK
6
CONTINUOUS
10
149.984
20
-81.2648
11
149.889
21
-81.4553
0
LINE
8
BLACK
6
CONTINUOUS
10
149.889
20
-81.4553
11
149.794
21
-81.5505
0
LINE
8
BLACK
6
CONTINUOUS
10
149.794
20
-81.5505
11
149.603
21
-81.6458
0
LINE
8
BLACK
6
CONTINUOUS
10
149.603
20
-81.6458
11
149.413
21
-81.6458
0
LINE
8
BLACK
6
CONTINUOUS
10
149.413
20
-81.6458
11
149.222
21
-81.5505
0
LINE
8
BLACK
6
CONTINUOUS
10
149.222
20
-81.5505
11
149.127
21
-81.4553
0
LINE
8
BLACK
6
CONTINUOUS
10
149.127
20
-81.4553
11
149.032
21
-81.2648
0
LINE
8
BLACK
6
CONTINUOUS
10
149.032
20
-81.2648
11
148.937
21
-80.8839
0
LINE
8
BLACK
6
CONTINUOUS
10
148.937
20
-80.8839
11
148.937
21
-80.4077
0
LINE
8
BLACK
6
CONTINUOUS
10
148.937
20
-80.4077
11
149.032
21
-80.0267
0
LINE
8
BLACK
6
CONTINUOUS
10
149.032
20
-80.0267
11
149.127
21
-79.8362
0
LINE
8
BLACK
6
CONTINUOUS
10
149.127
20
-79.8362
11
149.222
21
-79.741
0
LINE
8
BLACK
6
CONTINUOUS
10
149.222
20
-79.741
11
149.413
21
-79.6458
0
LINE
8
BLACK
6
CONTINUOUS
10
150.937
20
-81.4553
11
151.032
21
-81.5505
0
LINE
8
BLACK
6
CONTINUOUS
10
151.032
20
-81.5505
11
150.937
21
-81.6458
0
LINE
8
BLACK
6
CONTINUOUS
10
150.937
20
-81.6458
11
150.841
21
-81.5505
0
LINE
8
BLACK
6
CONTINUOUS
10
150.841
20
-81.5505
11
150.937
21
-81.4553
0
LINE
8
BLACK
6
CONTINUOUS
10
150.937
20
-81.4553
11
150.937
21
-81.6458
0
LINE
8
BLACK
6
CONTINUOUS
10
152.27
20
-79.6458
11
152.46
21
-79.6458
0
LINE
8
BLACK
6
CONTINUOUS
10
152.46
20
-79.6458
11
152.651
21
-79.741
0
LINE
8
BLACK
6
CONTINUOUS
10
152.651
20
-79.741
11
152.746
21
-79.8362
0
LINE
8
BLACK
6
CONTINUOUS
10
152.746
20
-79.8362
11
152.841
21
-80.0267
0
LINE
8
BLACK
6
CONTINUOUS
10
152.841
20
-80.0267
11
152.937
21
-80.4077
0
LINE
8
BLACK
6
CONTINUOUS
10
152.937
20
-80.4077
11
152.937
21
-80.8839
0
LINE
8
BLACK
6
CONTINUOUS
10
152.937
20
-80.8839
11
152.841
21
-81.2648
0
LINE
8
BLACK
6
CONTINUOUS
10
152.841
20
-81.2648
11
152.746
21
-81.4553
0
LINE
8
BLACK
6
CONTINUOUS
10
152.746
20
-81.4553
11
152.651
21
-81.5505
0
LINE
8
BLACK
6
CONTINUOUS
10
152.651
20
-81.5505
11
152.46
21
-81.6458
0
LINE
8
BLACK
6
CONTINUOUS
10
152.46
20
-81.6458
11
152.27
21
-81.6458
0
LINE
8
BLACK
6
CONTINUOUS
10
152.27
20
-81.6458
11
152.079
21
-81.5505
0
LINE
8
BLACK
6
CONTINUOUS
10
152.079
20
-81.5505
11
151.984
21
-81.4553
0
LINE
8
BLACK
6
CONTINUOUS
10
151.984
20
-81.4553
11
151.889
21
-81.2648
0
LINE
8
BLACK
6
CONTINUOUS
10
151.889
20
-81.2648
11
151.794
21
-80.8839
0
LINE
8
BLACK
6
CONTINUOUS
10
151.794
20
-80.8839
11
151.794
21
-80.4077
0
LINE
8
BLACK
6
CONTINUOUS
10
151.794
20
-80.4077
11
151.889
21
-80.0267
0
LINE
8
BLACK
6
CONTINUOUS
10
151.889
20
-80.0267
11
151.984
21
-79.8362
0
LINE
8
BLACK
6
CONTINUOUS
10
151.984
20
-79.8362
11
152.079
21
-79.741
0
LINE
8
BLACK
6
CONTINUOUS
10
152.079
20
-79.741
11
152.27
21
-79.6458
0
LINE
8
BLACK
6
CONTINUOUS
10
153.603
20
-79.6458
11
154.841
21
-79.6458
0
LINE
8
BLACK
6
CONTINUOUS
10
154.841
20
-79.6458
11
154.175
21
-80.4077
0
LINE
8
BLACK
6
CONTINUOUS
10
154.175
20
-80.4077
11
154.46
21
-80.4077
0
LINE
8
BLACK
6
CONTINUOUS
10
154.46
20
-80.4077
11
154.651
21
-80.5029
0
LINE
8
BLACK
6
CONTINUOUS
10
154.651
20
-80.5029
11
154.746
21
-80.5981
0
LINE
8
BLACK
6
CONTINUOUS
10
154.746
20
-80.5981
11
154.841
21
-80.7886
0
LINE
8
BLACK
6
CONTINUOUS
10
154.841
20
-80.7886
11
154.841
21
-81.2648
0
LINE
8
BLACK
6
CONTINUOUS
10
154.841
20
-81.2648
11
154.746
21
-81.4553
0
LINE
8
BLACK
6
CONTINUOUS
10
154.746
20
-81.4553
11
154.651
21
-81.5505
0
LINE
8
BLACK
6
CONTINUOUS
10
154.651
20
-81.5505
11
154.46
21
-81.6458
0
LINE
8
BLACK
6
CONTINUOUS
10
154.46
20
-81.6458
11
153.889
21
-81.6458
0
LINE
8
BLACK
6
CONTINUOUS
10
153.889
20
-81.6458
11
153.698
21
-81.5505
0
LINE
8
BLACK
6
CONTINUOUS
10
153.698
20
-81.5505
11
153.603
21
-81.4553
0
LINE
8
BLACK
6
CONTINUOUS
10
156.651
20
-79.6458
11
155.698
21
-79.6458
0
LINE
8
BLACK
6
CONTINUOUS
10
155.698
20
-79.6458
11
155.603
21
-80.5981
0
LINE
8
BLACK
6
CONTINUOUS
10
155.603
20
-80.5981
11
155.698
21
-80.5029
0
LINE
8
BLACK
6
CONTINUOUS
10
155.698
20
-80.5029
11
155.889
21
-80.4077
0
LINE
8
BLACK
6
CONTINUOUS
10
155.889
20
-80.4077
11
156.365
21
-80.4077
0
LINE
8
BLACK
6
CONTINUOUS
10
156.365
20
-80.4077
11
156.556
21
-80.5029
0
LINE
8
BLACK
6
CONTINUOUS
10
156.556
20
-80.5029
11
156.651
21
-80.5981
0
LINE
8
BLACK
6
CONTINUOUS
10
156.651
20
-80.5981
11
156.746
21
-80.7886
0
LINE
8
BLACK
6
CONTINUOUS
10
156.746
20
-80.7886
11
156.746
21
-81.2648
0
LINE
8
BLACK
6
CONTINUOUS
10
156.746
20
-81.2648
11
156.651
21
-81.4553
0
LINE
8
BLACK
6
CONTINUOUS
10
156.651
20
-81.4553
11
156.556
21
-81.5505
0
LINE
8
BLACK
6
CONTINUOUS
10
156.556
20
-81.5505
11
156.365
21
-81.6458
0
LINE
8
BLACK
6
CONTINUOUS
10
156.365
20
-81.6458
11
155.889
21
-81.6458
0
LINE
8
BLACK
6
CONTINUOUS
10
155.889
20
-81.6458
11
155.698
21
-81.5505
0
LINE
8
BLACK
6
CONTINUOUS
10
155.698
20
-81.5505
11
155.603
21
-81.4553
0
LINE
8
BLACK
6
CONTINUOUS
10
158.46
20
-80.3124
11
158.46
21
-81.6458
0
LINE
8
BLACK
6
CONTINUOUS
10
157.984
20
-79.5505
11
157.508
21
-80.9791
0
LINE
8
BLACK
6
CONTINUOUS
10
157.508
20
-80.9791
11
158.746
21
-80.9791
0
LINE
8
BLACK
6
CONTINUOUS
10
159.413
20
-79.6458
11
159.413
21
-80.0267
0
LINE
8
BLACK
6
CONTINUOUS
10
160.175
20
-79.6458
11
160.175
21
-80.0267
0
LINE
8
BLACK
6
CONTINUOUS
10
163.127
20
-82.4077
11
163.032
21
-82.3124
0
LINE
8
BLACK
6
CONTINUOUS
10
163.032
20
-82.3124
11
162.841
21
-82.0267
0
LINE
8
BLACK
6
CONTINUOUS
10
162.841
20
-82.0267
11
162.746
21
-81.8362
0
LINE
8
BLACK
6
CONTINUOUS
10
162.746
20
-81.8362
11
162.651
21
-81.5505
0
LINE
8
BLACK
6
CONTINUOUS
10
162.651
20
-81.5505
11
162.556
21
-81.0743
0
LINE
8
BLACK
6
CONTINUOUS
10
162.556
20
-81.0743
11
162.556
21
-80.6934
0
LINE
8
BLACK
6
CONTINUOUS
10
162.556
20
-80.6934
11
162.651
21
-80.2172
0
LINE
8
BLACK
6
CONTINUOUS
10
162.651
20
-80.2172
11
162.746
21
-79.9315
0
LINE
8
BLACK
6
CONTINUOUS
10
162.746
20
-79.9315
11
162.841
21
-79.741
0
LINE
8
BLACK
6
CONTINUOUS
10
162.841
20
-79.741
11
163.032
21
-79.4553
0
LINE
8
BLACK
6
CONTINUOUS
10
163.032
20
-79.4553
11
163.127
21
-79.36
0
LINE
8
BLACK
6
CONTINUOUS
10
164.746
20
-79.6458
11
164.365
21
-79.6458
0
LINE
8
BLACK
6
CONTINUOUS
10
164.365
20
-79.6458
11
164.175
21
-79.741
0
LINE
8
BLACK
6
CONTINUOUS
10
164.175
20
-79.741
11
164.079
21
-79.8362
0
LINE
8
BLACK
6
CONTINUOUS
10
164.079
20
-79.8362
11
163.889
21
-80.122
0
LINE
8
BLACK
6
CONTINUOUS
10
163.889
20
-80.122
11
163.794
21
-80.5029
0
LINE
8
BLACK
6
CONTINUOUS
10
163.794
20
-80.5029
11
163.794
21
-81.2648
0
LINE
8
BLACK
6
CONTINUOUS
10
163.794
20
-81.2648
11
163.889
21
-81.4553
0
LINE
8
BLACK
6
CONTINUOUS
10
163.889
20
-81.4553
11
163.984
21
-81.5505
0
LINE
8
BLACK
6
CONTINUOUS
10
163.984
20
-81.5505
11
164.175
21
-81.6458
0
LINE
8
BLACK
6
CONTINUOUS
10
164.175
20
-81.6458
11
164.556
21
-81.6458
0
LINE
8
BLACK
6
CONTINUOUS
10
164.556
20
-81.6458
11
164.746
21
-81.5505
0
LINE
8
BLACK
6
CONTINUOUS
10
164.746
20
-81.5505
11
164.841
21
-81.4553
0
LINE
8
BLACK
6
CONTINUOUS
10
164.841
20
-81.4553
11
164.937
21
-81.2648
0
LINE
8
BLACK
6
CONTINUOUS
10
164.937
20
-81.2648
11
164.937
21
-80.7886
0
LINE
8
BLACK
6
CONTINUOUS
10
164.937
20
-80.7886
11
164.841
21
-80.5981
0
LINE
8
BLACK
6
CONTINUOUS
10
164.841
20
-80.5981
11
164.746
21
-80.5029
0
LINE
8
BLACK
6
CONTINUOUS
10
164.746
20
-80.5029
11
164.556
21
-80.4077
0
LINE
8
BLACK
6
CONTINUOUS
10
164.556
20
-80.4077
11
164.175
21
-80.4077
0
LINE
8
BLACK
6
CONTINUOUS
10
164.175
20
-80.4077
11
163.984
21
-80.5029
0
LINE
8
BLACK
6
CONTINUOUS
10
163.984
20
-80.5029
11
163.889
21
-80.5981
0
LINE
8
BLACK
6
CONTINUOUS
10
163.889
20
-80.5981
11
163.794
21
-80.7886
0
LINE
8
BLACK
6
CONTINUOUS
10
167.318
20
-81.6458
11
167.318
21
-79.6458
0
LINE
8
BLACK
6
CONTINUOUS
10
168.175
20
-81.6458
11
168.175
21
-80.5981
0
LINE
8
BLACK
6
CONTINUOUS
10
168.175
20
-80.5981
11
168.079
21
-80.4077
0
LINE
8
BLACK
6
CONTINUOUS
10
168.079
20
-80.4077
11
167.889
21
-80.3124
0
LINE
8
BLACK
6
CONTINUOUS
10
167.889
20
-80.3124
11
167.603
21
-80.3124
0
LINE
8
BLACK
6
CONTINUOUS
10
167.603
20
-80.3124
11
167.413
21
-80.4077
0
LINE
8
BLACK
6
CONTINUOUS
10
167.413
20
-80.4077
11
167.318
21
-80.5029
0
LINE
8
BLACK
6
CONTINUOUS
10
169.413
20
-81.6458
11
169.222
21
-81.5505
0
LINE
8
BLACK
6
CONTINUOUS
10
169.222
20
-81.5505
11
169.127
21
-81.4553
0
LINE
8
BLACK
6
CONTINUOUS
10
169.127
20
-81.4553
11
169.032
21
-81.2648
0
LINE
8
BLACK
6
CONTINUOUS
10
169.032
20
-81.2648
11
169.032
21
-80.6934
0
LINE
8
BLACK
6
CONTINUOUS
10
169.032
20
-80.6934
11
169.127
21
-80.5029
0
LINE
8
BLACK
6
CONTINUOUS
10
169.127
20
-80.5029
11
169.222
21
-80.4077
0
LINE
8
BLACK
6
CONTINUOUS
10
169.222
20
-80.4077
11
169.413
21
-80.3124
0
LINE
8
BLACK
6
CONTINUOUS
10
169.413
20
-80.3124
11
169.698
21
-80.3124
0
LINE
8
BLACK
6
CONTINUOUS
10
169.698
20
-80.3124
11
169.889
21
-80.4077
0
LINE
8
BLACK
6
CONTINUOUS
10
169.889
20
-80.4077
11
169.984
21
-80.5029
0
LINE
8
BLACK
6
CONTINUOUS
10
169.984
20
-80.5029
11
170.079
21
-80.6934
0
LINE
8
BLACK
6
CONTINUOUS
10
170.079
20
-80.6934
11
170.079
21
-81.2648
0
LINE
8
BLACK
6
CONTINUOUS
10
170.079
20
-81.2648
11
169.984
21
-81.4553
0
LINE
8
BLACK
6
CONTINUOUS
10
169.984
20
-81.4553
11
169.889
21
-81.5505
0
LINE
8
BLACK
6
CONTINUOUS
10
169.889
20
-81.5505
11
169.698
21
-81.6458
0
LINE
8
BLACK
6
CONTINUOUS
10
169.698
20
-81.6458
11
169.413
21
-81.6458
0
LINE
8
BLACK
6
CONTINUOUS
10
171.222
20
-81.6458
11
171.032
21
-81.5505
0
LINE
8
BLACK
6
CONTINUOUS
10
171.032
20
-81.5505
11
170.937
21
-81.36
0
LINE
8
BLACK
6
CONTINUOUS
10
170.937
20
-81.36
11
170.937
21
-79.6458
0
LINE
8
BLACK
6
CONTINUOUS
10
172.746
20
-81.5505
11
172.556
21
-81.6458
0
LINE
8
BLACK
6
CONTINUOUS
10
172.556
20
-81.6458
11
172.175
21
-81.6458
0
LINE
8
BLACK
6
CONTINUOUS
10
172.175
20
-81.6458
11
171.984
21
-81.5505
0
LINE
8
BLACK
6
CONTINUOUS
10
171.984
20
-81.5505
11
171.889
21
-81.36
0
LINE
8
BLACK
6
CONTINUOUS
10
171.889
20
-81.36
11
171.889
21
-80.5981
0
LINE
8
BLACK
6
CONTINUOUS
10
171.889
20
-80.5981
11
171.984
21
-80.4077
0
LINE
8
BLACK
6
CONTINUOUS
10
171.984
20
-80.4077
11
172.175
21
-80.3124
0
LINE
8
BLACK
6
CONTINUOUS
10
172.175
20
-80.3124
11
172.556
21
-80.3124
0
LINE
8
BLACK
6
CONTINUOUS
10
172.556
20
-80.3124
11
172.746
21
-80.4077
0
LINE
8
BLACK
6
CONTINUOUS
10
172.746
20
-80.4077
11
172.841
21
-80.5981
0
LINE
8
BLACK
6
CONTINUOUS
10
172.841
20
-80.5981
11
172.841
21
-80.7886
0
LINE
8
BLACK
6
CONTINUOUS
10
172.841
20
-80.7886
11
171.889
21
-80.9791
0
LINE
8
BLACK
6
CONTINUOUS
10
173.603
20
-81.5505
11
173.794
21
-81.6458
0
LINE
8
BLACK
6
CONTINUOUS
10
173.794
20
-81.6458
11
174.175
21
-81.6458
0
LINE
8
BLACK
6
CONTINUOUS
10
174.175
20
-81.6458
11
174.365
21
-81.5505
0
LINE
8
BLACK
6
CONTINUOUS
10
174.365
20
-81.5505
11
174.46
21
-81.36
0
LINE
8
BLACK
6
CONTINUOUS
10
174.46
20
-81.36
11
174.46
21
-81.2648
0
LINE
8
BLACK
6
CONTINUOUS
10
174.46
20
-81.2648
11
174.365
21
-81.0743
0
LINE
8
BLACK
6
CONTINUOUS
10
174.365
20
-81.0743
11
174.175
21
-80.9791
0
LINE
8
BLACK
6
CONTINUOUS
10
174.175
20
-80.9791
11
173.889
21
-80.9791
0
LINE
8
BLACK
6
CONTINUOUS
10
173.889
20
-80.9791
11
173.698
21
-80.8839
0
LINE
8
BLACK
6
CONTINUOUS
10
173.698
20
-80.8839
11
173.603
21
-80.6934
0
LINE
8
BLACK
6
CONTINUOUS
10
173.603
20
-80.6934
11
173.603
21
-80.5981
0
LINE
8
BLACK
6
CONTINUOUS
10
173.603
20
-80.5981
11
173.698
21
-80.4077
0
LINE
8
BLACK
6
CONTINUOUS
10
173.698
20
-80.4077
11
173.889
21
-80.3124
0
LINE
8
BLACK
6
CONTINUOUS
10
173.889
20
-80.3124
11
174.175
21
-80.3124
0
LINE
8
BLACK
6
CONTINUOUS
10
174.175
20
-80.3124
11
174.365
21
-80.4077
0
LINE
8
BLACK
6
CONTINUOUS
10
175.127
20
-82.4077
11
175.222
21
-82.3124
0
LINE
8
BLACK
6
CONTINUOUS
10
175.222
20
-82.3124
11
175.413
21
-82.0267
0
LINE
8
BLACK
6
CONTINUOUS
10
175.413
20
-82.0267
11
175.508
21
-81.8362
0
LINE
8
BLACK
6
CONTINUOUS
10
175.508
20
-81.8362
11
175.603
21
-81.5505
0
LINE
8
BLACK
6
CONTINUOUS
10
175.603
20
-81.5505
11
175.698
21
-81.0743
0
LINE
8
BLACK
6
CONTINUOUS
10
175.698
20
-81.0743
11
175.698
21
-80.6934
0
LINE
8
BLACK
6
CONTINUOUS
10
175.698
20
-80.6934
11
175.603
21
-80.2172
0
LINE
8
BLACK
6
CONTINUOUS
10
175.603
20
-80.2172
11
175.508
21
-79.9315
0
LINE
8
BLACK
6
CONTINUOUS
10
175.508
20
-79.9315
11
175.413
21
-79.741
0
LINE
8
BLACK
6
CONTINUOUS
10
175.413
20
-79.741
11
175.222
21
-79.4553
0
LINE
8
BLACK
6
CONTINUOUS
10
175.222
20
-79.4553
11
175.127
21
-79.36
0
LINE
8
BLACK
6
CONTINUOUS
10
127.115
20
-84.0881
11
127.115
21
-82.6739
0
LINE
8
BLACK
6
CONTINUOUS
10
127.115
20
-82.6739
11
125.701
21
-82.6739
0
LINE
8
BLACK
6
CONTINUOUS
10
125.701
20
-82.6739
11
125.701
21
-84.0881
0
LINE
8
BLACK
6
CONTINUOUS
10
125.701
20
-84.0881
11
127.115
21
-84.0881
0
LINE
8
BLACK
6
CONTINUOUS
10
129.794
20
-82.2858
11
131.032
21
-82.2858
0
LINE
8
BLACK
6
CONTINUOUS
10
131.032
20
-82.2858
11
130.365
21
-83.0477
0
LINE
8
BLACK
6
CONTINUOUS
10
130.365
20
-83.0477
11
130.651
21
-83.0477
0
LINE
8
BLACK
6
CONTINUOUS
10
130.651
20
-83.0477
11
130.841
21
-83.1429
0
LINE
8
BLACK
6
CONTINUOUS
10
130.841
20
-83.1429
11
130.937
21
-83.2381
0
LINE
8
BLACK
6
CONTINUOUS
10
130.937
20
-83.2381
11
131.032
21
-83.4286
0
LINE
8
BLACK
6
CONTINUOUS
10
131.032
20
-83.4286
11
131.032
21
-83.9048
0
LINE
8
BLACK
6
CONTINUOUS
10
131.032
20
-83.9048
11
130.937
21
-84.0953
0
LINE
8
BLACK
6
CONTINUOUS
10
130.937
20
-84.0953
11
130.841
21
-84.1905
0
LINE
8
BLACK
6
CONTINUOUS
10
130.841
20
-84.1905
11
130.651
21
-84.2858
0
LINE
8
BLACK
6
CONTINUOUS
10
130.651
20
-84.2858
11
130.079
21
-84.2858
0
LINE
8
BLACK
6
CONTINUOUS
10
130.079
20
-84.2858
11
129.889
21
-84.1905
0
LINE
8
BLACK
6
CONTINUOUS
10
129.889
20
-84.1905
11
129.794
21
-84.0953
0
LINE
8
BLACK
6
CONTINUOUS
10
131.889
20
-84.0953
11
131.984
21
-84.1905
0
LINE
8
BLACK
6
CONTINUOUS
10
131.984
20
-84.1905
11
131.889
21
-84.2858
0
LINE
8
BLACK
6
CONTINUOUS
10
131.889
20
-84.2858
11
131.794
21
-84.1905
0
LINE
8
BLACK
6
CONTINUOUS
10
131.794
20
-84.1905
11
131.889
21
-84.0953
0
LINE
8
BLACK
6
CONTINUOUS
10
131.889
20
-84.0953
11
131.889
21
-84.2858
0
LINE
8
BLACK
6
CONTINUOUS
10
132.937
20
-84.2858
11
133.318
21
-84.2858
0
LINE
8
BLACK
6
CONTINUOUS
10
133.318
20
-84.2858
11
133.508
21
-84.1905
0
LINE
8
BLACK
6
CONTINUOUS
10
133.508
20
-84.1905
11
133.603
21
-84.0953
0
LINE
8
BLACK
6
CONTINUOUS
10
133.603
20
-84.0953
11
133.794
21
-83.8096
0
LINE
8
BLACK
6
CONTINUOUS
10
133.794
20
-83.8096
11
133.889
21
-83.4286
0
LINE
8
BLACK
6
CONTINUOUS
10
133.889
20
-83.4286
11
133.889
21
-82.6667
0
LINE
8
BLACK
6
CONTINUOUS
10
133.889
20
-82.6667
11
133.794
21
-82.4762
0
LINE
8
BLACK
6
CONTINUOUS
10
133.794
20
-82.4762
11
133.698
21
-82.381
0
LINE
8
BLACK
6
CONTINUOUS
10
133.698
20
-82.381
11
133.508
21
-82.2858
0
LINE
8
BLACK
6
CONTINUOUS
10
133.508
20
-82.2858
11
133.127
21
-82.2858
0
LINE
8
BLACK
6
CONTINUOUS
10
133.127
20
-82.2858
11
132.937
21
-82.381
0
LINE
8
BLACK
6
CONTINUOUS
10
132.937
20
-82.381
11
132.841
21
-82.4762
0
LINE
8
BLACK
6
CONTINUOUS
10
132.841
20
-82.4762
11
132.746
21
-82.6667
0
LINE
8
BLACK
6
CONTINUOUS
10
132.746
20
-82.6667
11
132.746
21
-83.1429
0
LINE
8
BLACK
6
CONTINUOUS
10
132.746
20
-83.1429
11
132.841
21
-83.3334
0
LINE
8
BLACK
6
CONTINUOUS
10
132.841
20
-83.3334
11
132.937
21
-83.4286
0
LINE
8
BLACK
6
CONTINUOUS
10
132.937
20
-83.4286
11
133.127
21
-83.5239
0
LINE
8
BLACK
6
CONTINUOUS
10
133.127
20
-83.5239
11
133.508
21
-83.5239
0
LINE
8
BLACK
6
CONTINUOUS
10
133.508
20
-83.5239
11
133.698
21
-83.4286
0
LINE
8
BLACK
6
CONTINUOUS
10
133.698
20
-83.4286
11
133.794
21
-83.3334
0
LINE
8
BLACK
6
CONTINUOUS
10
133.794
20
-83.3334
11
133.889
21
-83.1429
0
LINE
8
BLACK
6
CONTINUOUS
10
135.127
20
-82.2858
11
135.318
21
-82.2858
0
LINE
8
BLACK
6
CONTINUOUS
10
135.318
20
-82.2858
11
135.508
21
-82.381
0
LINE
8
BLACK
6
CONTINUOUS
10
135.508
20
-82.381
11
135.603
21
-82.4762
0
LINE
8
BLACK
6
CONTINUOUS
10
135.603
20
-82.4762
11
135.698
21
-82.6667
0
LINE
8
BLACK
6
CONTINUOUS
10
135.698
20
-82.6667
11
135.794
21
-83.0477
0
LINE
8
BLACK
6
CONTINUOUS
10
135.794
20
-83.0477
11
135.794
21
-83.5239
0
LINE
8
BLACK
6
CONTINUOUS
10
135.794
20
-83.5239
11
135.698
21
-83.9048
0
LINE
8
BLACK
6
CONTINUOUS
10
135.698
20
-83.9048
11
135.603
21
-84.0953
0
LINE
8
BLACK
6
CONTINUOUS
10
135.603
20
-84.0953
11
135.508
21
-84.1905
0
LINE
8
BLACK
6
CONTINUOUS
10
135.508
20
-84.1905
11
135.318
21
-84.2858
0
LINE
8
BLACK
6
CONTINUOUS
10
135.318
20
-84.2858
11
135.127
21
-84.2858
0
LINE
8
BLACK
6
CONTINUOUS
10
135.127
20
-84.2858
11
134.937
21
-84.1905
0
LINE
8
BLACK
6
CONTINUOUS
10
134.937
20
-84.1905
11
134.841
21
-84.0953
0
LINE
8
BLACK
6
CONTINUOUS
10
134.841
20
-84.0953
11
134.746
21
-83.9048
0
LINE
8
BLACK
6
CONTINUOUS
10
134.746
20
-83.9048
11
134.651
21
-83.5239
0
LINE
8
BLACK
6
CONTINUOUS
10
134.651
20
-83.5239
11
134.651
21
-83.0477
0
LINE
8
BLACK
6
CONTINUOUS
10
134.651
20
-83.0477
11
134.746
21
-82.6667
0
LINE
8
BLACK
6
CONTINUOUS
10
134.746
20
-82.6667
11
134.841
21
-82.4762
0
LINE
8
BLACK
6
CONTINUOUS
10
134.841
20
-82.4762
11
134.937
21
-82.381
0
LINE
8
BLACK
6
CONTINUOUS
10
134.937
20
-82.381
11
135.127
21
-82.2858
0
LINE
8
BLACK
6
CONTINUOUS
10
137.032
20
-82.2858
11
137.222
21
-82.2858
0
LINE
8
BLACK
6
CONTINUOUS
10
137.222
20
-82.2858
11
137.413
21
-82.381
0
LINE
8
BLACK
6
CONTINUOUS
10
137.413
20
-82.381
11
137.508
21
-82.4762
0
LINE
8
BLACK
6
CONTINUOUS
10
137.508
20
-82.4762
11
137.603
21
-82.6667
0
LINE
8
BLACK
6
CONTINUOUS
10
137.603
20
-82.6667
11
137.698
21
-83.0477
0
LINE
8
BLACK
6
CONTINUOUS
10
137.698
20
-83.0477
11
137.698
21
-83.5239
0
LINE
8
BLACK
6
CONTINUOUS
10
137.698
20
-83.5239
11
137.603
21
-83.9048
0
LINE
8
BLACK
6
CONTINUOUS
10
137.603
20
-83.9048
11
137.508
21
-84.0953
0
LINE
8
BLACK
6
CONTINUOUS
10
137.508
20
-84.0953
11
137.413
21
-84.1905
0
LINE
8
BLACK
6
CONTINUOUS
10
137.413
20
-84.1905
11
137.222
21
-84.2858
0
LINE
8
BLACK
6
CONTINUOUS
10
137.222
20
-84.2858
11
137.032
21
-84.2858
0
LINE
8
BLACK
6
CONTINUOUS
10
137.032
20
-84.2858
11
136.841
21
-84.1905
0
LINE
8
BLACK
6
CONTINUOUS
10
136.841
20
-84.1905
11
136.746
21
-84.0953
0
LINE
8
BLACK
6
CONTINUOUS
10
136.746
20
-84.0953
11
136.651
21
-83.9048
0
LINE
8
BLACK
6
CONTINUOUS
10
136.651
20
-83.9048
11
136.556
21
-83.5239
0
LINE
8
BLACK
6
CONTINUOUS
10
136.556
20
-83.5239
11
136.556
21
-83.0477
0
LINE
8
BLACK
6
CONTINUOUS
10
136.556
20
-83.0477
11
136.651
21
-82.6667
0
LINE
8
BLACK
6
CONTINUOUS
10
136.651
20
-82.6667
11
136.746
21
-82.4762
0
LINE
8
BLACK
6
CONTINUOUS
10
136.746
20
-82.4762
11
136.841
21
-82.381
0
LINE
8
BLACK
6
CONTINUOUS
10
136.841
20
-82.381
11
137.032
21
-82.2858
0
LINE
8
BLACK
6
CONTINUOUS
10
138.556
20
-84.2858
11
138.556
21
-82.9524
0
LINE
8
BLACK
6
CONTINUOUS
10
138.556
20
-83.1429
11
138.651
21
-83.0477
0
LINE
8
BLACK
6
CONTINUOUS
10
138.651
20
-83.0477
11
138.841
21
-82.9524
0
LINE
8
BLACK
6
CONTINUOUS
10
138.841
20
-82.9524
11
139.127
21
-82.9524
0
LINE
8
BLACK
6
CONTINUOUS
10
139.127
20
-82.9524
11
139.318
21
-83.0477
0
LINE
8
BLACK
6
CONTINUOUS
10
139.318
20
-83.0477
11
139.413
21
-83.2381
0
LINE
8
BLACK
6
CONTINUOUS
10
139.413
20
-83.2381
11
139.413
21
-84.2858
0
LINE
8
BLACK
6
CONTINUOUS
10
139.413
20
-83.2381
11
139.508
21
-83.0477
0
LINE
8
BLACK
6
CONTINUOUS
10
139.508
20
-83.0477
11
139.698
21
-82.9524
0
LINE
8
BLACK
6
CONTINUOUS
10
139.698
20
-82.9524
11
139.984
21
-82.9524
0
LINE
8
BLACK
6
CONTINUOUS
10
139.984
20
-82.9524
11
140.175
21
-83.0477
0
LINE
8
BLACK
6
CONTINUOUS
10
140.175
20
-83.0477
11
140.27
21
-83.2381
0
LINE
8
BLACK
6
CONTINUOUS
10
140.27
20
-83.2381
11
140.27
21
-84.2858
0
LINE
8
BLACK
6
CONTINUOUS
10
141.222
20
-84.2858
11
141.222
21
-82.9524
0
LINE
8
BLACK
6
CONTINUOUS
10
141.222
20
-83.1429
11
141.318
21
-83.0477
0
LINE
8
BLACK
6
CONTINUOUS
10
141.318
20
-83.0477
11
141.508
21
-82.9524
0
LINE
8
BLACK
6
CONTINUOUS
10
141.508
20
-82.9524
11
141.794
21
-82.9524
0
LINE
8
BLACK
6
CONTINUOUS
10
141.794
20
-82.9524
11
141.984
21
-83.0477
0
LINE
8
BLACK
6
CONTINUOUS
10
141.984
20
-83.0477
11
142.079
21
-83.2381
0
LINE
8
BLACK
6
CONTINUOUS
10
142.079
20
-83.2381
11
142.079
21
-84.2858
0
LINE
8
BLACK
6
CONTINUOUS
10
142.079
20
-83.2381
11
142.175
21
-83.0477
0
LINE
8
BLACK
6
CONTINUOUS
10
142.175
20
-83.0477
11
142.365
21
-82.9524
0
LINE
8
BLACK
6
CONTINUOUS
10
142.365
20
-82.9524
11
142.651
21
-82.9524
0
LINE
8
BLACK
6
CONTINUOUS
10
142.651
20
-82.9524
11
142.841
21
-83.0477
0
LINE
8
BLACK
6
CONTINUOUS
10
142.841
20
-83.0477
11
142.937
21
-83.2381
0
LINE
8
BLACK
6
CONTINUOUS
10
142.937
20
-83.2381
11
142.937
21
-84.2858
0
LINE
8
BLACK
6
CONTINUOUS
10
146.841
20
-82.1905
11
145.127
21
-84.762
0
LINE
8
BLACK
6
CONTINUOUS
10
149.413
20
-82.2858
11
149.603
21
-82.2858
0
LINE
8
BLACK
6
CONTINUOUS
10
149.603
20
-82.2858
11
149.794
21
-82.381
0
LINE
8
BLACK
6
CONTINUOUS
10
149.794
20
-82.381
11
149.889
21
-82.4762
0
LINE
8
BLACK
6
CONTINUOUS
10
149.889
20
-82.4762
11
149.984
21
-82.6667
0
LINE
8
BLACK
6
CONTINUOUS
10
149.984
20
-82.6667
11
150.079
21
-83.0477
0
LINE
8
BLACK
6
CONTINUOUS
10
150.079
20
-83.0477
11
150.079
21
-83.5239
0
LINE
8
BLACK
6
CONTINUOUS
10
150.079
20
-83.5239
11
149.984
21
-83.9048
0
LINE
8
BLACK
6
CONTINUOUS
10
149.984
20
-83.9048
11
149.889
21
-84.0953
0
LINE
8
BLACK
6
CONTINUOUS
10
149.889
20
-84.0953
11
149.794
21
-84.1905
0
LINE
8
BLACK
6
CONTINUOUS
10
149.794
20
-84.1905
11
149.603
21
-84.2858
0
LINE
8
BLACK
6
CONTINUOUS
10
149.603
20
-84.2858
11
149.413
21
-84.2858
0
LINE
8
BLACK
6
CONTINUOUS
10
149.413
20
-84.2858
11
149.222
21
-84.1905
0
LINE
8
BLACK
6
CONTINUOUS
10
149.222
20
-84.1905
11
149.127
21
-84.0953
0
LINE
8
BLACK
6
CONTINUOUS
10
149.127
20
-84.0953
11
149.032
21
-83.9048
0
LINE
8
BLACK
6
CONTINUOUS
10
149.032
20
-83.9048
11
148.937
21
-83.5239
0
LINE
8
BLACK
6
CONTINUOUS
10
148.937
20
-83.5239
11
148.937
21
-83.0477
0
LINE
8
BLACK
6
CONTINUOUS
10
148.937
20
-83.0477
11
149.032
21
-82.6667
0
LINE
8
BLACK
6
CONTINUOUS
10
149.032
20
-82.6667
11
149.127
21
-82.4762
0
LINE
8
BLACK
6
CONTINUOUS
10
149.127
20
-82.4762
11
149.222
21
-82.381
0
LINE
8
BLACK
6
CONTINUOUS
10
149.222
20
-82.381
11
149.413
21
-82.2858
0
LINE
8
BLACK
6
CONTINUOUS
10
150.937
20
-84.0953
11
151.032
21
-84.1905
0
LINE
8
BLACK
6
CONTINUOUS
10
151.032
20
-84.1905
11
150.937
21
-84.2858
0
LINE
8
BLACK
6
CONTINUOUS
10
150.937
20
-84.2858
11
150.841
21
-84.1905
0
LINE
8
BLACK
6
CONTINUOUS
10
150.841
20
-84.1905
11
150.937
21
-84.0953
0
LINE
8
BLACK
6
CONTINUOUS
10
150.937
20
-84.0953
11
150.937
21
-84.2858
0
LINE
8
BLACK
6
CONTINUOUS
10
152.937
20
-84.2858
11
151.794
21
-84.2858
0
LINE
8
BLACK
6
CONTINUOUS
10
152.365
20
-84.2858
11
152.365
21
-82.2858
0
LINE
8
BLACK
6
CONTINUOUS
10
152.365
20
-82.2858
11
152.175
21
-82.5715
0
LINE
8
BLACK
6
CONTINUOUS
10
152.175
20
-82.5715
11
151.984
21
-82.762
0
LINE
8
BLACK
6
CONTINUOUS
10
151.984
20
-82.762
11
151.794
21
-82.8572
0
LINE
8
BLACK
6
CONTINUOUS
10
154.746
20
-82.2858
11
153.794
21
-82.2858
0
LINE
8
BLACK
6
CONTINUOUS
10
153.794
20
-82.2858
11
153.698
21
-83.2381
0
LINE
8
BLACK
6
CONTINUOUS
10
153.698
20
-83.2381
11
153.794
21
-83.1429
0
LINE
8
BLACK
6
CONTINUOUS
10
153.794
20
-83.1429
11
153.984
21
-83.0477
0
LINE
8
BLACK
6
CONTINUOUS
10
153.984
20
-83.0477
11
154.46
21
-83.0477
0
LINE
8
BLACK
6
CONTINUOUS
10
154.46
20
-83.0477
11
154.651
21
-83.1429
0
LINE
8
BLACK
6
CONTINUOUS
10
154.651
20
-83.1429
11
154.746
21
-83.2381
0
LINE
8
BLACK
6
CONTINUOUS
10
154.746
20
-83.2381
11
154.841
21
-83.4286
0
LINE
8
BLACK
6
CONTINUOUS
10
154.841
20
-83.4286
11
154.841
21
-83.9048
0
LINE
8
BLACK
6
CONTINUOUS
10
154.841
20
-83.9048
11
154.746
21
-84.0953
0
LINE
8
BLACK
6
CONTINUOUS
10
154.746
20
-84.0953
11
154.651
21
-84.1905
0
LINE
8
BLACK
6
CONTINUOUS
10
154.651
20
-84.1905
11
154.46
21
-84.2858
0
LINE
8
BLACK
6
CONTINUOUS
10
154.46
20
-84.2858
11
153.984
21
-84.2858
0
LINE
8
BLACK
6
CONTINUOUS
10
153.984
20
-84.2858
11
153.794
21
-84.1905
0
LINE
8
BLACK
6
CONTINUOUS
10
153.794
20
-84.1905
11
153.698
21
-84.0953
0
LINE
8
BLACK
6
CONTINUOUS
10
155.508
20
-82.2858
11
156.746
21
-82.2858
0
LINE
8
BLACK
6
CONTINUOUS
10
156.746
20
-82.2858
11
156.079
21
-83.0477
0
LINE
8
BLACK
6
CONTINUOUS
10
156.079
20
-83.0477
11
156.365
21
-83.0477
0
LINE
8
BLACK
6
CONTINUOUS
10
156.365
20
-83.0477
11
156.556
21
-83.1429
0
LINE
8
BLACK
6
CONTINUOUS
10
156.556
20
-83.1429
11
156.651
21
-83.2381
0
LINE
8
BLACK
6
CONTINUOUS
10
156.651
20
-83.2381
11
156.746
21
-83.4286
0
LINE
8
BLACK
6
CONTINUOUS
10
156.746
20
-83.4286
11
156.746
21
-83.9048
0
LINE
8
BLACK
6
CONTINUOUS
10
156.746
20
-83.9048
11
156.651
21
-84.0953
0
LINE
8
BLACK
6
CONTINUOUS
10
156.651
20
-84.0953
11
156.556
21
-84.1905
0
LINE
8
BLACK
6
CONTINUOUS
10
156.556
20
-84.1905
11
156.365
21
-84.2858
0
LINE
8
BLACK
6
CONTINUOUS
10
156.365
20
-84.2858
11
155.794
21
-84.2858
0
LINE
8
BLACK
6
CONTINUOUS
10
155.794
20
-84.2858
11
155.603
21
-84.1905
0
LINE
8
BLACK
6
CONTINUOUS
10
155.603
20
-84.1905
11
155.508
21
-84.0953
0
LINE
8
BLACK
6
CONTINUOUS
10
158.556
20
-82.2858
11
157.603
21
-82.2858
0
LINE
8
BLACK
6
CONTINUOUS
10
157.603
20
-82.2858
11
157.508
21
-83.2381
0
LINE
8
BLACK
6
CONTINUOUS
10
157.508
20
-83.2381
11
157.603
21
-83.1429
0
LINE
8
BLACK
6
CONTINUOUS
10
157.603
20
-83.1429
11
157.794
21
-83.0477
0
LINE
8
BLACK
6
CONTINUOUS
10
157.794
20
-83.0477
11
158.27
21
-83.0477
0
LINE
8
BLACK
6
CONTINUOUS
10
158.27
20
-83.0477
11
158.46
21
-83.1429
0
LINE
8
BLACK
6
CONTINUOUS
10
158.46
20
-83.1429
11
158.556
21
-83.2381
0
LINE
8
BLACK
6
CONTINUOUS
10
158.556
20
-83.2381
11
158.651
21
-83.4286
0
LINE
8
BLACK
6
CONTINUOUS
10
158.651
20
-83.4286
11
158.651
21
-83.9048
0
LINE
8
BLACK
6
CONTINUOUS
10
158.651
20
-83.9048
11
158.556
21
-84.0953
0
LINE
8
BLACK
6
CONTINUOUS
10
158.556
20
-84.0953
11
158.46
21
-84.1905
0
LINE
8
BLACK
6
CONTINUOUS
10
158.46
20
-84.1905
11
158.27
21
-84.2858
0
LINE
8
BLACK
6
CONTINUOUS
10
158.27
20
-84.2858
11
157.794
21
-84.2858
0
LINE
8
BLACK
6
CONTINUOUS
10
157.794
20
-84.2858
11
157.603
21
-84.1905
0
LINE
8
BLACK
6
CONTINUOUS
10
157.603
20
-84.1905
11
157.508
21
-84.0953
0
LINE
8
BLACK
6
CONTINUOUS
10
159.413
20
-82.2858
11
159.413
21
-82.6667
0
LINE
8
BLACK
6
CONTINUOUS
10
160.175
20
-82.2858
11
160.175
21
-82.6667
0
LINE
8
BLACK
6
CONTINUOUS
10
163.127
20
-85.0477
11
163.032
21
-84.9524
0
LINE
8
BLACK
6
CONTINUOUS
10
163.032
20
-84.9524
11
162.841
21
-84.6667
0
LINE
8
BLACK
6
CONTINUOUS
10
162.841
20
-84.6667
11
162.746
21
-84.4762
0
LINE
8
BLACK
6
CONTINUOUS
10
162.746
20
-84.4762
11
162.651
21
-84.1905
0
LINE
8
BLACK
6
CONTINUOUS
10
162.651
20
-84.1905
11
162.556
21
-83.7143
0
LINE
8
BLACK
6
CONTINUOUS
10
162.556
20
-83.7143
11
162.556
21
-83.3334
0
LINE
8
BLACK
6
CONTINUOUS
10
162.556
20
-83.3334
11
162.651
21
-82.8572
0
LINE
8
BLACK
6
CONTINUOUS
10
162.651
20
-82.8572
11
162.746
21
-82.5715
0
LINE
8
BLACK
6
CONTINUOUS
10
162.746
20
-82.5715
11
162.841
21
-82.381
0
LINE
8
BLACK
6
CONTINUOUS
10
162.841
20
-82.381
11
163.032
21
-82.0953
0
LINE
8
BLACK
6
CONTINUOUS
10
163.032
20
-82.0953
11
163.127
21
-82
0
LINE
8
BLACK
6
CONTINUOUS
10
163.794
20
-82.4762
11
163.889
21
-82.381
0
LINE
8
BLACK
6
CONTINUOUS
10
163.889
20
-82.381
11
164.079
21
-82.2858
0
LINE
8
BLACK
6
CONTINUOUS
10
164.079
20
-82.2858
11
164.556
21
-82.2858
0
LINE
8
BLACK
6
CONTINUOUS
10
164.556
20
-82.2858
11
164.746
21
-82.381
0
LINE
8
BLACK
6
CONTINUOUS
10
164.746
20
-82.381
11
164.841
21
-82.4762
0
LINE
8
BLACK
6
CONTINUOUS
10
164.841
20
-82.4762
11
164.937
21
-82.6667
0
LINE
8
BLACK
6
CONTINUOUS
10
164.937
20
-82.6667
11
164.937
21
-82.8572
0
LINE
8
BLACK
6
CONTINUOUS
10
164.937
20
-82.8572
11
164.841
21
-83.1429
0
LINE
8
BLACK
6
CONTINUOUS
10
164.841
20
-83.1429
11
163.698
21
-84.2858
0
LINE
8
BLACK
6
CONTINUOUS
10
163.698
20
-84.2858
11
164.937
21
-84.2858
0
LINE
8
BLACK
6
CONTINUOUS
10
167.318
20
-84.2858
11
167.318
21
-82.2858
0
LINE
8
BLACK
6
CONTINUOUS
10
168.175
20
-84.2858
11
168.175
21
-83.2381
0
LINE
8
BLACK
6
CONTINUOUS
10
168.175
20
-83.2381
11
168.079
21
-83.0477
0
LINE
8
BLACK
6
CONTINUOUS
10
168.079
20
-83.0477
11
167.889
21
-82.9524
0
LINE
8
BLACK
6
CONTINUOUS
10
167.889
20
-82.9524
11
167.603
21
-82.9524
0
LINE
8
BLACK
6
CONTINUOUS
10
167.603
20
-82.9524
11
167.413
21
-83.0477
0
LINE
8
BLACK
6
CONTINUOUS
10
167.413
20
-83.0477
11
167.318
21
-83.1429
0
LINE
8
BLACK
6
CONTINUOUS
10
169.413
20
-84.2858
11
169.222
21
-84.1905
0
LINE
8
BLACK
6
CONTINUOUS
10
169.222
20
-84.1905
11
169.127
21
-84.0953
0
LINE
8
BLACK
6
CONTINUOUS
10
169.127
20
-84.0953
11
169.032
21
-83.9048
0
LINE
8
BLACK
6
CONTINUOUS
10
169.032
20
-83.9048
11
169.032
21
-83.3334
0
LINE
8
BLACK
6
CONTINUOUS
10
169.032
20
-83.3334
11
169.127
21
-83.1429
0
LINE
8
BLACK
6
CONTINUOUS
10
169.127
20
-83.1429
11
169.222
21
-83.0477
0
LINE
8
BLACK
6
CONTINUOUS
10
169.222
20
-83.0477
11
169.413
21
-82.9524
0
LINE
8
BLACK
6
CONTINUOUS
10
169.413
20
-82.9524
11
169.698
21
-82.9524
0
LINE
8
BLACK
6
CONTINUOUS
10
169.698
20
-82.9524
11
169.889
21
-83.0477
0
LINE
8
BLACK
6
CONTINUOUS
10
169.889
20
-83.0477
11
169.984
21
-83.1429
0
LINE
8
BLACK
6
CONTINUOUS
10
169.984
20
-83.1429
11
170.079
21
-83.3334
0
LINE
8
BLACK
6
CONTINUOUS
10
170.079
20
-83.3334
11
170.079
21
-83.9048
0
LINE
8
BLACK
6
CONTINUOUS
10
170.079
20
-83.9048
11
169.984
21
-84.0953
0
LINE
8
BLACK
6
CONTINUOUS
10
169.984
20
-84.0953
11
169.889
21
-84.1905
0
LINE
8
BLACK
6
CONTINUOUS
10
169.889
20
-84.1905
11
169.698
21
-84.2858
0
LINE
8
BLACK
6
CONTINUOUS
10
169.698
20
-84.2858
11
169.413
21
-84.2858
0
LINE
8
BLACK
6
CONTINUOUS
10
171.222
20
-84.2858
11
171.032
21
-84.1905
0
LINE
8
BLACK
6
CONTINUOUS
10
171.032
20
-84.1905
11
170.937
21
-84
0
LINE
8
BLACK
6
CONTINUOUS
10
170.937
20
-84
11
170.937
21
-82.2858
0
LINE
8
BLACK
6
CONTINUOUS
10
172.746
20
-84.1905
11
172.556
21
-84.2858
0
LINE
8
BLACK
6
CONTINUOUS
10
172.556
20
-84.2858
11
172.175
21
-84.2858
0
LINE
8
BLACK
6
CONTINUOUS
10
172.175
20
-84.2858
11
171.984
21
-84.1905
0
LINE
8
BLACK
6
CONTINUOUS
10
171.984
20
-84.1905
11
171.889
21
-84
0
LINE
8
BLACK
6
CONTINUOUS
10
171.889
20
-84
11
171.889
21
-83.2381
0
LINE
8
BLACK
6
CONTINUOUS
10
171.889
20
-83.2381
11
171.984
21
-83.0477
0
LINE
8
BLACK
6
CONTINUOUS
10
171.984
20
-83.0477
11
172.175
21
-82.9524
0
LINE
8
BLACK
6
CONTINUOUS
10
172.175
20
-82.9524
11
172.556
21
-82.9524
0
LINE
8
BLACK
6
CONTINUOUS
10
172.556
20
-82.9524
11
172.746
21
-83.0477
0
LINE
8
BLACK
6
CONTINUOUS
10
172.746
20
-83.0477
11
172.841
21
-83.2381
0
LINE
8
BLACK
6
CONTINUOUS
10
172.841
20
-83.2381
11
172.841
21
-83.4286
0
LINE
8
BLACK
6
CONTINUOUS
10
172.841
20
-83.4286
11
171.889
21
-83.6191
0
LINE
8
BLACK
6
CONTINUOUS
10
173.603
20
-84.1905
11
173.794
21
-84.2858
0
LINE
8
BLACK
6
CONTINUOUS
10
173.794
20
-84.2858
11
174.175
21
-84.2858
0
LINE
8
BLACK
6
CONTINUOUS
10
174.175
20
-84.2858
11
174.365
21
-84.1905
0
LINE
8
BLACK
6
CONTINUOUS
10
174.365
20
-84.1905
11
174.46
21
-84
0
LINE
8
BLACK
6
CONTINUOUS
10
174.46
20
-84
11
174.46
21
-83.9048
0
LINE
8
BLACK
6
CONTINUOUS
10
174.46
20
-83.9048
11
174.365
21
-83.7143
0
LINE
8
BLACK
6
CONTINUOUS
10
174.365
20
-83.7143
11
174.175
21
-83.6191
0
LINE
8
BLACK
6
CONTINUOUS
10
174.175
20
-83.6191
11
173.889
21
-83.6191
0
LINE
8
BLACK
6
CONTINUOUS
10
173.889
20
-83.6191
11
173.698
21
-83.5239
0
LINE
8
BLACK
6
CONTINUOUS
10
173.698
20
-83.5239
11
173.603
21
-83.3334
0
LINE
8
BLACK
6
CONTINUOUS
10
173.603
20
-83.3334
11
173.603
21
-83.2381
0
LINE
8
BLACK
6
CONTINUOUS
10
173.603
20
-83.2381
11
173.698
21
-83.0477
0
LINE
8
BLACK
6
CONTINUOUS
10
173.698
20
-83.0477
11
173.889
21
-82.9524
0
LINE
8
BLACK
6
CONTINUOUS
10
173.889
20
-82.9524
11
174.175
21
-82.9524
0
LINE
8
BLACK
6
CONTINUOUS
10
174.175
20
-82.9524
11
174.365
21
-83.0477
0
LINE
8
BLACK
6
CONTINUOUS
10
175.127
20
-85.0477
11
175.222
21
-84.9524
0
LINE
8
BLACK
6
CONTINUOUS
10
175.222
20
-84.9524
11
175.413
21
-84.6667
0
LINE
8
BLACK
6
CONTINUOUS
10
175.413
20
-84.6667
11
175.508
21
-84.4762
0
LINE
8
BLACK
6
CONTINUOUS
10
175.508
20
-84.4762
11
175.603
21
-84.1905
0
LINE
8
BLACK
6
CONTINUOUS
10
175.603
20
-84.1905
11
175.698
21
-83.7143
0
LINE
8
BLACK
6
CONTINUOUS
10
175.698
20
-83.7143
11
175.698
21
-83.3334
0
LINE
8
BLACK
6
CONTINUOUS
10
175.698
20
-83.3334
11
175.603
21
-82.8572
0
LINE
8
BLACK
6
CONTINUOUS
10
175.603
20
-82.8572
11
175.508
21
-82.5715
0
LINE
8
BLACK
6
CONTINUOUS
10
175.508
20
-82.5715
11
175.413
21
-82.381
0
LINE
8
BLACK
6
CONTINUOUS
10
175.413
20
-82.381
11
175.222
21
-82.0953
0
LINE
8
BLACK
6
CONTINUOUS
10
175.222
20
-82.0953
11
175.127
21
-82
  0
ENDSEC
  0
EOF
