%TF.GenerationSoftware,KiCad,Pcbnew,(6.0.10-0)*%
%TF.CreationDate,2023-02-01T10:43:54-08:00*%
%TF.ProjectId,mosfet_breakout_1.0,6d6f7366-6574-45f6-9272-65616b6f7574,rev?*%
%TF.SameCoordinates,Original*%
%TF.FileFunction,Legend,Top*%
%TF.FilePolarity,Positive*%
%FSLAX46Y46*%
G04 Gerber Fmt 4.6, Leading zero omitted, Abs format (unit mm)*
G04 Created by KiCad (PCBNEW (6.0.10-0)) date 2023-02-01 10:43:54*
%MOMM*%
%LPD*%
G01*
G04 APERTURE LIST*
%ADD10C,0.300000*%
%ADD11C,0.100000*%
%ADD12C,0.150000*%
%ADD13C,0.127000*%
%ADD14C,0.200000*%
%ADD15C,0.120000*%
G04 APERTURE END LIST*
D10*
X131710228Y-48657771D02*
X131995942Y-48657771D01*
X132138800Y-48729200D01*
X132281657Y-48872057D01*
X132353085Y-49157771D01*
X132353085Y-49657771D01*
X132281657Y-49943485D01*
X132138800Y-50086342D01*
X131995942Y-50157771D01*
X131710228Y-50157771D01*
X131567371Y-50086342D01*
X131424514Y-49943485D01*
X131353085Y-49657771D01*
X131353085Y-49157771D01*
X131424514Y-48872057D01*
X131567371Y-48729200D01*
X131710228Y-48657771D01*
X132995942Y-50157771D02*
X132995942Y-48657771D01*
X133853085Y-50157771D01*
X133853085Y-48657771D01*
X143731371Y-65906400D02*
X142231371Y-65906400D01*
X142231371Y-65334971D01*
X142302800Y-65192114D01*
X142374228Y-65120685D01*
X142517085Y-65049257D01*
X142731371Y-65049257D01*
X142874228Y-65120685D01*
X142945657Y-65192114D01*
X143017085Y-65334971D01*
X143017085Y-65906400D01*
X142231371Y-64549257D02*
X143731371Y-64192114D01*
X142659942Y-63906400D01*
X143731371Y-63620685D01*
X142231371Y-63263542D01*
X143731371Y-61834971D02*
X143017085Y-62334971D01*
X143731371Y-62692114D02*
X142231371Y-62692114D01*
X142231371Y-62120685D01*
X142302800Y-61977828D01*
X142374228Y-61906400D01*
X142517085Y-61834971D01*
X142731371Y-61834971D01*
X142874228Y-61906400D01*
X142945657Y-61977828D01*
X143017085Y-62120685D01*
X143017085Y-62692114D01*
X163740400Y-53517657D02*
X163668971Y-53660514D01*
X163668971Y-53874800D01*
X163740400Y-54089085D01*
X163883257Y-54231942D01*
X164026114Y-54303371D01*
X164311828Y-54374800D01*
X164526114Y-54374800D01*
X164811828Y-54303371D01*
X164954685Y-54231942D01*
X165097542Y-54089085D01*
X165168971Y-53874800D01*
X165168971Y-53731942D01*
X165097542Y-53517657D01*
X165026114Y-53446228D01*
X164526114Y-53446228D01*
X164526114Y-53731942D01*
X165168971Y-52803371D02*
X163668971Y-52803371D01*
X165168971Y-51946228D01*
X163668971Y-51946228D01*
X165168971Y-51231942D02*
X163668971Y-51231942D01*
X163668971Y-50874800D01*
X163740400Y-50660514D01*
X163883257Y-50517657D01*
X164026114Y-50446228D01*
X164311828Y-50374800D01*
X164526114Y-50374800D01*
X164811828Y-50446228D01*
X164954685Y-50517657D01*
X165097542Y-50660514D01*
X165168971Y-50874800D01*
X165168971Y-51231942D01*
X165219771Y-64585600D02*
X163719771Y-64585600D01*
X163719771Y-64014171D01*
X163791200Y-63871314D01*
X163862628Y-63799885D01*
X164005485Y-63728457D01*
X164219771Y-63728457D01*
X164362628Y-63799885D01*
X164434057Y-63871314D01*
X164505485Y-64014171D01*
X164505485Y-64585600D01*
X163719771Y-63228457D02*
X165219771Y-62871314D01*
X164148342Y-62585600D01*
X165219771Y-62299885D01*
X163719771Y-61942742D01*
X165219771Y-60514171D02*
X164505485Y-61014171D01*
X165219771Y-61371314D02*
X163719771Y-61371314D01*
X163719771Y-60799885D01*
X163791200Y-60657028D01*
X163862628Y-60585600D01*
X164005485Y-60514171D01*
X164219771Y-60514171D01*
X164362628Y-60585600D01*
X164434057Y-60657028D01*
X164505485Y-60799885D01*
X164505485Y-61371314D01*
D11*
%TO.C,J1*%
X129352380Y-66433333D02*
X130066666Y-66433333D01*
X130209523Y-66480952D01*
X130304761Y-66576190D01*
X130352380Y-66719047D01*
X130352380Y-66814285D01*
X130352380Y-65433333D02*
X130352380Y-66004761D01*
X130352380Y-65719047D02*
X129352380Y-65719047D01*
X129495238Y-65814285D01*
X129590476Y-65909523D01*
X129638095Y-66004761D01*
D12*
%TO.C,U1*%
X156244380Y-58419904D02*
X157053904Y-58419904D01*
X157149142Y-58372285D01*
X157196761Y-58324666D01*
X157244380Y-58229428D01*
X157244380Y-58038952D01*
X157196761Y-57943714D01*
X157149142Y-57896095D01*
X157053904Y-57848476D01*
X156244380Y-57848476D01*
X157244380Y-56848476D02*
X157244380Y-57419904D01*
X157244380Y-57134190D02*
X156244380Y-57134190D01*
X156387238Y-57229428D01*
X156482476Y-57324666D01*
X156530095Y-57419904D01*
D13*
%TO.C,Q2*%
X136788500Y-62737000D02*
X140088500Y-62737000D01*
X136788500Y-59437000D02*
X140088500Y-59437000D01*
D14*
X136188500Y-59687000D02*
G75*
G03*
X136188500Y-59687000I-100000J0D01*
G01*
D15*
%TO.C,Q1*%
X133040000Y-64133000D02*
X133970000Y-64133000D01*
X133040000Y-64133000D02*
X133040000Y-62673000D01*
X136200000Y-64133000D02*
X135270000Y-64133000D01*
X136200000Y-64133000D02*
X136200000Y-61973000D01*
D13*
%TO.C,U1*%
X155392000Y-47258000D02*
X144692000Y-47258000D01*
X171792000Y-68058000D02*
X171792000Y-47258000D01*
X151272000Y-63008000D02*
X150272000Y-63008000D01*
X150772000Y-62508000D02*
X150772000Y-63508000D01*
X171792000Y-47258000D02*
X158142000Y-47258000D01*
X150832000Y-52708000D02*
X150832000Y-51708000D01*
X144692000Y-47258000D02*
X144692000Y-49408000D01*
X158142000Y-68058000D02*
X171792000Y-68058000D01*
X144692000Y-65908000D02*
X144692000Y-68058000D01*
X144692000Y-68058000D02*
X155392000Y-68058000D01*
X144692000Y-60258000D02*
X144692000Y-55058000D01*
D11*
%TO.C,R6*%
X139691200Y-65998000D02*
X139691200Y-67098000D01*
X138591200Y-67098000D02*
X138591200Y-65998000D01*
%TO.C,R5*%
X134608000Y-57770000D02*
X134608000Y-59070000D01*
X133108000Y-59070000D02*
X133108000Y-57770000D01*
%TO.C,R7*%
X138268800Y-65998000D02*
X138268800Y-67098000D01*
X137168800Y-67098000D02*
X137168800Y-65998000D01*
%TO.C,R10*%
X136821000Y-65998000D02*
X136821000Y-67098000D01*
X135721000Y-67098000D02*
X135721000Y-65998000D01*
%TO.C,R3*%
X132757000Y-58632000D02*
X132757000Y-59732000D01*
X131657000Y-59732000D02*
X131657000Y-58632000D01*
%TO.C,C2*%
X137075000Y-49699000D02*
X135975000Y-49699000D01*
X135975000Y-48599000D02*
X137075000Y-48599000D01*
%TO.C,D1*%
X142147200Y-66760000D02*
X143247200Y-66760000D01*
X143247200Y-67860000D02*
X142147200Y-67860000D01*
%TO.C,R4*%
X133054000Y-50758000D02*
X134154000Y-50758000D01*
X134154000Y-51858000D02*
X133054000Y-51858000D01*
%TO.C,D2*%
X133054000Y-52917000D02*
X134154000Y-52917000D01*
X134154000Y-54017000D02*
X133054000Y-54017000D01*
%TO.C,R11*%
X135424000Y-65998000D02*
X135424000Y-67098000D01*
X134324000Y-67098000D02*
X134324000Y-65998000D01*
%TO.C,R1*%
X141113600Y-65998000D02*
X141113600Y-67098000D01*
X140013600Y-67098000D02*
X140013600Y-65998000D01*
%TO.C,R8*%
X134070000Y-60283000D02*
X135170000Y-60283000D01*
X135170000Y-61383000D02*
X134070000Y-61383000D01*
%TO.C,R9*%
X139334000Y-64885000D02*
X138034000Y-64885000D01*
X138034000Y-63385000D02*
X139334000Y-63385000D01*
%TO.C,U2*%
X141046000Y-50783000D02*
X141046000Y-50783000D01*
D14*
X142646000Y-53883000D02*
X142646000Y-52133000D01*
D11*
X141046000Y-50883000D02*
X141046000Y-50883000D01*
D14*
X142646000Y-52133000D02*
X141646000Y-52133000D01*
X136246000Y-56933000D02*
X136246000Y-55083000D01*
X136246000Y-53883000D02*
X136246000Y-52133000D01*
X136646000Y-56933000D02*
X136246000Y-56933000D01*
X142646000Y-56933000D02*
X142246000Y-56933000D01*
X136246000Y-52133000D02*
X137246000Y-52133000D01*
X142646000Y-55083000D02*
X142646000Y-56933000D01*
D11*
X141046000Y-50783000D02*
G75*
G03*
X141046000Y-50883000I0J-50000D01*
G01*
X141046000Y-50883000D02*
G75*
G03*
X141046000Y-50783000I0J50000D01*
G01*
%TO.C,R2*%
X133054000Y-54314000D02*
X134154000Y-54314000D01*
X134154000Y-55414000D02*
X133054000Y-55414000D01*
%TO.C,C1*%
X140758000Y-49699000D02*
X139658000Y-49699000D01*
X139658000Y-48599000D02*
X140758000Y-48599000D01*
%TD*%
M02*
