%TF.GenerationSoftware,KiCad,Pcbnew,(6.0.10-0)*%
%TF.CreationDate,2023-02-01T10:43:54-08:00*%
%TF.ProjectId,mosfet_breakout_1.0,6d6f7366-6574-45f6-9272-65616b6f7574,rev?*%
%TF.SameCoordinates,Original*%
%TF.FileFunction,Legend,Bot*%
%TF.FilePolarity,Positive*%
%FSLAX46Y46*%
G04 Gerber Fmt 4.6, Leading zero omitted, Abs format (unit mm)*
G04 Created by KiCad (PCBNEW (6.0.10-0)) date 2023-02-01 10:43:54*
%MOMM*%
%LPD*%
G01*
G04 APERTURE LIST*
%ADD10C,0.250000*%
%ADD11C,0.300000*%
%ADD12C,0.150000*%
%ADD13C,0.100000*%
%ADD14C,0.254000*%
G04 APERTURE END LIST*
D10*
X134176190Y-53352380D02*
X133557142Y-53352380D01*
X133890476Y-53733333D01*
X133747619Y-53733333D01*
X133652380Y-53780952D01*
X133604761Y-53828571D01*
X133557142Y-53923809D01*
X133557142Y-54161904D01*
X133604761Y-54257142D01*
X133652380Y-54304761D01*
X133747619Y-54352380D01*
X134033333Y-54352380D01*
X134128571Y-54304761D01*
X134176190Y-54257142D01*
X133128571Y-54257142D02*
X133080952Y-54304761D01*
X133128571Y-54352380D01*
X133176190Y-54304761D01*
X133128571Y-54257142D01*
X133128571Y-54352380D01*
X132747619Y-53352380D02*
X132128571Y-53352380D01*
X132461904Y-53733333D01*
X132319047Y-53733333D01*
X132223809Y-53780952D01*
X132176190Y-53828571D01*
X132128571Y-53923809D01*
X132128571Y-54161904D01*
X132176190Y-54257142D01*
X132223809Y-54304761D01*
X132319047Y-54352380D01*
X132604761Y-54352380D01*
X132700000Y-54304761D01*
X132747619Y-54257142D01*
X131842857Y-53352380D02*
X131509523Y-54352380D01*
X131176190Y-53352380D01*
X133349904Y-61000000D02*
X133445142Y-60952380D01*
X133588000Y-60952380D01*
X133730857Y-61000000D01*
X133826095Y-61095238D01*
X133873714Y-61190476D01*
X133921333Y-61380952D01*
X133921333Y-61523809D01*
X133873714Y-61714285D01*
X133826095Y-61809523D01*
X133730857Y-61904761D01*
X133588000Y-61952380D01*
X133492761Y-61952380D01*
X133349904Y-61904761D01*
X133302285Y-61857142D01*
X133302285Y-61523809D01*
X133492761Y-61523809D01*
X132873714Y-61952380D02*
X132873714Y-60952380D01*
X132302285Y-61952380D01*
X132302285Y-60952380D01*
X131826095Y-61952380D02*
X131826095Y-60952380D01*
X131588000Y-60952380D01*
X131445142Y-61000000D01*
X131349904Y-61095238D01*
X131302285Y-61190476D01*
X131254666Y-61380952D01*
X131254666Y-61523809D01*
X131302285Y-61714285D01*
X131349904Y-61809523D01*
X131445142Y-61904761D01*
X131588000Y-61952380D01*
X131826095Y-61952380D01*
D11*
X165088000Y-53517657D02*
X165159428Y-53660514D01*
X165159428Y-53874800D01*
X165088000Y-54089085D01*
X164945142Y-54231942D01*
X164802285Y-54303371D01*
X164516571Y-54374800D01*
X164302285Y-54374800D01*
X164016571Y-54303371D01*
X163873714Y-54231942D01*
X163730857Y-54089085D01*
X163659428Y-53874800D01*
X163659428Y-53731942D01*
X163730857Y-53517657D01*
X163802285Y-53446228D01*
X164302285Y-53446228D01*
X164302285Y-53731942D01*
X163659428Y-52803371D02*
X165159428Y-52803371D01*
X163659428Y-51946228D01*
X165159428Y-51946228D01*
X163659428Y-51231942D02*
X165159428Y-51231942D01*
X165159428Y-50874800D01*
X165088000Y-50660514D01*
X164945142Y-50517657D01*
X164802285Y-50446228D01*
X164516571Y-50374800D01*
X164302285Y-50374800D01*
X164016571Y-50446228D01*
X163873714Y-50517657D01*
X163730857Y-50660514D01*
X163659428Y-50874800D01*
X163659428Y-51231942D01*
X163710228Y-64534800D02*
X165210228Y-64534800D01*
X165210228Y-63963371D01*
X165138800Y-63820514D01*
X165067371Y-63749085D01*
X164924514Y-63677657D01*
X164710228Y-63677657D01*
X164567371Y-63749085D01*
X164495942Y-63820514D01*
X164424514Y-63963371D01*
X164424514Y-64534800D01*
X165210228Y-63177657D02*
X163710228Y-62820514D01*
X164781657Y-62534800D01*
X163710228Y-62249085D01*
X165210228Y-61891942D01*
X163710228Y-60463371D02*
X164424514Y-60963371D01*
X163710228Y-61320514D02*
X165210228Y-61320514D01*
X165210228Y-60749085D01*
X165138800Y-60606228D01*
X165067371Y-60534800D01*
X164924514Y-60463371D01*
X164710228Y-60463371D01*
X164567371Y-60534800D01*
X164495942Y-60606228D01*
X164424514Y-60749085D01*
X164424514Y-61320514D01*
D10*
X133752380Y-56428571D02*
X133609523Y-56476190D01*
X133561904Y-56523809D01*
X133514285Y-56619047D01*
X133514285Y-56761904D01*
X133561904Y-56857142D01*
X133609523Y-56904761D01*
X133704761Y-56952380D01*
X134085714Y-56952380D01*
X134085714Y-55952380D01*
X133752380Y-55952380D01*
X133657142Y-56000000D01*
X133609523Y-56047619D01*
X133561904Y-56142857D01*
X133561904Y-56238095D01*
X133609523Y-56333333D01*
X133657142Y-56380952D01*
X133752380Y-56428571D01*
X134085714Y-56428571D01*
X132657142Y-56952380D02*
X132657142Y-56428571D01*
X132704761Y-56333333D01*
X132800000Y-56285714D01*
X132990476Y-56285714D01*
X133085714Y-56333333D01*
X132657142Y-56904761D02*
X132752380Y-56952380D01*
X132990476Y-56952380D01*
X133085714Y-56904761D01*
X133133333Y-56809523D01*
X133133333Y-56714285D01*
X133085714Y-56619047D01*
X132990476Y-56571428D01*
X132752380Y-56571428D01*
X132657142Y-56523809D01*
X132323809Y-56285714D02*
X131942857Y-56285714D01*
X132180952Y-55952380D02*
X132180952Y-56809523D01*
X132133333Y-56904761D01*
X132038095Y-56952380D01*
X131942857Y-56952380D01*
X131752380Y-56285714D02*
X131371428Y-56285714D01*
X131609523Y-55952380D02*
X131609523Y-56809523D01*
X131561904Y-56904761D01*
X131466666Y-56952380D01*
X131371428Y-56952380D01*
X136223809Y-63452380D02*
X135890476Y-64452380D01*
X135557142Y-63452380D01*
X135271428Y-64404761D02*
X135128571Y-64452380D01*
X134890476Y-64452380D01*
X134795238Y-64404761D01*
X134747619Y-64357142D01*
X134700000Y-64261904D01*
X134700000Y-64166666D01*
X134747619Y-64071428D01*
X134795238Y-64023809D01*
X134890476Y-63976190D01*
X135080952Y-63928571D01*
X135176190Y-63880952D01*
X135223809Y-63833333D01*
X135271428Y-63738095D01*
X135271428Y-63642857D01*
X135223809Y-63547619D01*
X135176190Y-63500000D01*
X135080952Y-63452380D01*
X134842857Y-63452380D01*
X134700000Y-63500000D01*
X133890476Y-64404761D02*
X133985714Y-64452380D01*
X134176190Y-64452380D01*
X134271428Y-64404761D01*
X134319047Y-64309523D01*
X134319047Y-63928571D01*
X134271428Y-63833333D01*
X134176190Y-63785714D01*
X133985714Y-63785714D01*
X133890476Y-63833333D01*
X133842857Y-63928571D01*
X133842857Y-64023809D01*
X134319047Y-64119047D01*
X133414285Y-63785714D02*
X133414285Y-64452380D01*
X133414285Y-63880952D02*
X133366666Y-63833333D01*
X133271428Y-63785714D01*
X133128571Y-63785714D01*
X133033333Y-63833333D01*
X132985714Y-63928571D01*
X132985714Y-64452380D01*
X132557142Y-64404761D02*
X132461904Y-64452380D01*
X132271428Y-64452380D01*
X132176190Y-64404761D01*
X132128571Y-64309523D01*
X132128571Y-64261904D01*
X132176190Y-64166666D01*
X132271428Y-64119047D01*
X132414285Y-64119047D01*
X132509523Y-64071428D01*
X132557142Y-63976190D01*
X132557142Y-63928571D01*
X132509523Y-63833333D01*
X132414285Y-63785714D01*
X132271428Y-63785714D01*
X132176190Y-63833333D01*
X131319047Y-64404761D02*
X131414285Y-64452380D01*
X131604761Y-64452380D01*
X131700000Y-64404761D01*
X131747619Y-64309523D01*
X131747619Y-63928571D01*
X131700000Y-63833333D01*
X131604761Y-63785714D01*
X131414285Y-63785714D01*
X131319047Y-63833333D01*
X131271428Y-63928571D01*
X131271428Y-64023809D01*
X131747619Y-64119047D01*
X137285714Y-58528571D02*
X137142857Y-58576190D01*
X137095238Y-58623809D01*
X137047619Y-58719047D01*
X137047619Y-58861904D01*
X137095238Y-58957142D01*
X137142857Y-59004761D01*
X137238095Y-59052380D01*
X137619047Y-59052380D01*
X137619047Y-58052380D01*
X137285714Y-58052380D01*
X137190476Y-58100000D01*
X137142857Y-58147619D01*
X137095238Y-58242857D01*
X137095238Y-58338095D01*
X137142857Y-58433333D01*
X137190476Y-58480952D01*
X137285714Y-58528571D01*
X137619047Y-58528571D01*
X136666666Y-58766666D02*
X136190476Y-58766666D01*
X136761904Y-59052380D02*
X136428571Y-58052380D01*
X136095238Y-59052380D01*
X135904761Y-58052380D02*
X135333333Y-58052380D01*
X135619047Y-59052380D02*
X135619047Y-58052380D01*
X135142857Y-58052380D02*
X134571428Y-58052380D01*
X134857142Y-59052380D02*
X134857142Y-58052380D01*
X134476190Y-59147619D02*
X133714285Y-59147619D01*
X132904761Y-58957142D02*
X132952380Y-59004761D01*
X133095238Y-59052380D01*
X133190476Y-59052380D01*
X133333333Y-59004761D01*
X133428571Y-58909523D01*
X133476190Y-58814285D01*
X133523809Y-58623809D01*
X133523809Y-58480952D01*
X133476190Y-58290476D01*
X133428571Y-58195238D01*
X133333333Y-58100000D01*
X133190476Y-58052380D01*
X133095238Y-58052380D01*
X132952380Y-58100000D01*
X132904761Y-58147619D01*
X132619047Y-58052380D02*
X132047619Y-58052380D01*
X132333333Y-59052380D02*
X132333333Y-58052380D01*
X131238095Y-59052380D02*
X131714285Y-59052380D01*
X131714285Y-58052380D01*
X135580952Y-51557142D02*
X135628571Y-51604761D01*
X135771428Y-51652380D01*
X135866666Y-51652380D01*
X136009523Y-51604761D01*
X136104761Y-51509523D01*
X136152380Y-51414285D01*
X136200000Y-51223809D01*
X136200000Y-51080952D01*
X136152380Y-50890476D01*
X136104761Y-50795238D01*
X136009523Y-50700000D01*
X135866666Y-50652380D01*
X135771428Y-50652380D01*
X135628571Y-50700000D01*
X135580952Y-50747619D01*
X135200000Y-51604761D02*
X135057142Y-51652380D01*
X134819047Y-51652380D01*
X134723809Y-51604761D01*
X134676190Y-51557142D01*
X134628571Y-51461904D01*
X134628571Y-51366666D01*
X134676190Y-51271428D01*
X134723809Y-51223809D01*
X134819047Y-51176190D01*
X135009523Y-51128571D01*
X135104761Y-51080952D01*
X135152380Y-51033333D01*
X135200000Y-50938095D01*
X135200000Y-50842857D01*
X135152380Y-50747619D01*
X135104761Y-50700000D01*
X135009523Y-50652380D01*
X134771428Y-50652380D01*
X134628571Y-50700000D01*
X133819047Y-51604761D02*
X133914285Y-51652380D01*
X134104761Y-51652380D01*
X134200000Y-51604761D01*
X134247619Y-51509523D01*
X134247619Y-51128571D01*
X134200000Y-51033333D01*
X134104761Y-50985714D01*
X133914285Y-50985714D01*
X133819047Y-51033333D01*
X133771428Y-51128571D01*
X133771428Y-51223809D01*
X134247619Y-51319047D01*
X133342857Y-50985714D02*
X133342857Y-51652380D01*
X133342857Y-51080952D02*
X133295238Y-51033333D01*
X133200000Y-50985714D01*
X133057142Y-50985714D01*
X132961904Y-51033333D01*
X132914285Y-51128571D01*
X132914285Y-51652380D01*
X132485714Y-51604761D02*
X132390476Y-51652380D01*
X132200000Y-51652380D01*
X132104761Y-51604761D01*
X132057142Y-51509523D01*
X132057142Y-51461904D01*
X132104761Y-51366666D01*
X132200000Y-51319047D01*
X132342857Y-51319047D01*
X132438095Y-51271428D01*
X132485714Y-51176190D01*
X132485714Y-51128571D01*
X132438095Y-51033333D01*
X132342857Y-50985714D01*
X132200000Y-50985714D01*
X132104761Y-51033333D01*
X131247619Y-51604761D02*
X131342857Y-51652380D01*
X131533333Y-51652380D01*
X131628571Y-51604761D01*
X131676190Y-51509523D01*
X131676190Y-51128571D01*
X131628571Y-51033333D01*
X131533333Y-50985714D01*
X131342857Y-50985714D01*
X131247619Y-51033333D01*
X131200000Y-51128571D01*
X131200000Y-51223809D01*
X131676190Y-51319047D01*
D12*
%TO.C,Q2*%
X138876595Y-61010809D02*
X138838500Y-60934619D01*
X138762309Y-60858428D01*
X138648023Y-60744142D01*
X138609928Y-60667952D01*
X138609928Y-60591761D01*
X138800404Y-60629857D02*
X138762309Y-60553666D01*
X138686119Y-60477476D01*
X138533738Y-60439380D01*
X138267071Y-60439380D01*
X138114690Y-60477476D01*
X138038500Y-60553666D01*
X138000404Y-60629857D01*
X138000404Y-60782238D01*
X138038500Y-60858428D01*
X138114690Y-60934619D01*
X138267071Y-60972714D01*
X138533738Y-60972714D01*
X138686119Y-60934619D01*
X138762309Y-60858428D01*
X138800404Y-60782238D01*
X138800404Y-60629857D01*
X138076595Y-61277476D02*
X138038500Y-61315571D01*
X138000404Y-61391761D01*
X138000404Y-61582238D01*
X138038500Y-61658428D01*
X138076595Y-61696523D01*
X138152785Y-61734619D01*
X138228976Y-61734619D01*
X138343261Y-61696523D01*
X138800404Y-61239380D01*
X138800404Y-61734619D01*
%TO.C,Q1*%
X135395238Y-62947619D02*
X135490476Y-62900000D01*
X135585714Y-62804761D01*
X135728571Y-62661904D01*
X135823809Y-62614285D01*
X135919047Y-62614285D01*
X135871428Y-62852380D02*
X135966666Y-62804761D01*
X136061904Y-62709523D01*
X136109523Y-62519047D01*
X136109523Y-62185714D01*
X136061904Y-61995238D01*
X135966666Y-61900000D01*
X135871428Y-61852380D01*
X135680952Y-61852380D01*
X135585714Y-61900000D01*
X135490476Y-61995238D01*
X135442857Y-62185714D01*
X135442857Y-62519047D01*
X135490476Y-62709523D01*
X135585714Y-62804761D01*
X135680952Y-62852380D01*
X135871428Y-62852380D01*
X134490476Y-62852380D02*
X135061904Y-62852380D01*
X134776190Y-62852380D02*
X134776190Y-61852380D01*
X134871428Y-61995238D01*
X134966666Y-62090476D01*
X135061904Y-62138095D01*
D13*
%TO.C,R6*%
X139412628Y-66448000D02*
X139126914Y-66248000D01*
X139412628Y-66105142D02*
X138812628Y-66105142D01*
X138812628Y-66333714D01*
X138841200Y-66390857D01*
X138869771Y-66419428D01*
X138926914Y-66448000D01*
X139012628Y-66448000D01*
X139069771Y-66419428D01*
X139098342Y-66390857D01*
X139126914Y-66333714D01*
X139126914Y-66105142D01*
X138812628Y-66962285D02*
X138812628Y-66848000D01*
X138841200Y-66790857D01*
X138869771Y-66762285D01*
X138955485Y-66705142D01*
X139069771Y-66676571D01*
X139298342Y-66676571D01*
X139355485Y-66705142D01*
X139384057Y-66733714D01*
X139412628Y-66790857D01*
X139412628Y-66905142D01*
X139384057Y-66962285D01*
X139355485Y-66990857D01*
X139298342Y-67019428D01*
X139155485Y-67019428D01*
X139098342Y-66990857D01*
X139069771Y-66962285D01*
X139041200Y-66905142D01*
X139041200Y-66790857D01*
X139069771Y-66733714D01*
X139098342Y-66705142D01*
X139155485Y-66676571D01*
D12*
%TO.C,R5*%
X135866666Y-57252380D02*
X136200000Y-56776190D01*
X136438095Y-57252380D02*
X136438095Y-56252380D01*
X136057142Y-56252380D01*
X135961904Y-56300000D01*
X135914285Y-56347619D01*
X135866666Y-56442857D01*
X135866666Y-56585714D01*
X135914285Y-56680952D01*
X135961904Y-56728571D01*
X136057142Y-56776190D01*
X136438095Y-56776190D01*
X134961904Y-56252380D02*
X135438095Y-56252380D01*
X135485714Y-56728571D01*
X135438095Y-56680952D01*
X135342857Y-56633333D01*
X135104761Y-56633333D01*
X135009523Y-56680952D01*
X134961904Y-56728571D01*
X134914285Y-56823809D01*
X134914285Y-57061904D01*
X134961904Y-57157142D01*
X135009523Y-57204761D01*
X135104761Y-57252380D01*
X135342857Y-57252380D01*
X135438095Y-57204761D01*
X135485714Y-57157142D01*
D13*
%TO.C,R7*%
X137990228Y-66448000D02*
X137704514Y-66248000D01*
X137990228Y-66105142D02*
X137390228Y-66105142D01*
X137390228Y-66333714D01*
X137418800Y-66390857D01*
X137447371Y-66419428D01*
X137504514Y-66448000D01*
X137590228Y-66448000D01*
X137647371Y-66419428D01*
X137675942Y-66390857D01*
X137704514Y-66333714D01*
X137704514Y-66105142D01*
X137390228Y-66648000D02*
X137390228Y-67048000D01*
X137990228Y-66790857D01*
%TO.C,R10*%
X136542428Y-66162285D02*
X136256714Y-65962285D01*
X136542428Y-65819428D02*
X135942428Y-65819428D01*
X135942428Y-66048000D01*
X135971000Y-66105142D01*
X135999571Y-66133714D01*
X136056714Y-66162285D01*
X136142428Y-66162285D01*
X136199571Y-66133714D01*
X136228142Y-66105142D01*
X136256714Y-66048000D01*
X136256714Y-65819428D01*
X136542428Y-66733714D02*
X136542428Y-66390857D01*
X136542428Y-66562285D02*
X135942428Y-66562285D01*
X136028142Y-66505142D01*
X136085285Y-66448000D01*
X136113857Y-66390857D01*
X135942428Y-67105142D02*
X135942428Y-67162285D01*
X135971000Y-67219428D01*
X135999571Y-67248000D01*
X136056714Y-67276571D01*
X136171000Y-67305142D01*
X136313857Y-67305142D01*
X136428142Y-67276571D01*
X136485285Y-67248000D01*
X136513857Y-67219428D01*
X136542428Y-67162285D01*
X136542428Y-67105142D01*
X136513857Y-67048000D01*
X136485285Y-67019428D01*
X136428142Y-66990857D01*
X136313857Y-66962285D01*
X136171000Y-66962285D01*
X136056714Y-66990857D01*
X135999571Y-67019428D01*
X135971000Y-67048000D01*
X135942428Y-67105142D01*
%TO.C,R3*%
X131500000Y-60371428D02*
X131700000Y-60085714D01*
X131842857Y-60371428D02*
X131842857Y-59771428D01*
X131614285Y-59771428D01*
X131557142Y-59800000D01*
X131528571Y-59828571D01*
X131500000Y-59885714D01*
X131500000Y-59971428D01*
X131528571Y-60028571D01*
X131557142Y-60057142D01*
X131614285Y-60085714D01*
X131842857Y-60085714D01*
X131300000Y-59771428D02*
X130928571Y-59771428D01*
X131128571Y-60000000D01*
X131042857Y-60000000D01*
X130985714Y-60028571D01*
X130957142Y-60057142D01*
X130928571Y-60114285D01*
X130928571Y-60257142D01*
X130957142Y-60314285D01*
X130985714Y-60342857D01*
X131042857Y-60371428D01*
X131214285Y-60371428D01*
X131271428Y-60342857D01*
X131300000Y-60314285D01*
D12*
%TO.C,C2*%
X136691666Y-49506142D02*
X136739285Y-49553761D01*
X136882142Y-49601380D01*
X136977380Y-49601380D01*
X137120238Y-49553761D01*
X137215476Y-49458523D01*
X137263095Y-49363285D01*
X137310714Y-49172809D01*
X137310714Y-49029952D01*
X137263095Y-48839476D01*
X137215476Y-48744238D01*
X137120238Y-48649000D01*
X136977380Y-48601380D01*
X136882142Y-48601380D01*
X136739285Y-48649000D01*
X136691666Y-48696619D01*
X136310714Y-48696619D02*
X136263095Y-48649000D01*
X136167857Y-48601380D01*
X135929761Y-48601380D01*
X135834523Y-48649000D01*
X135786904Y-48696619D01*
X135739285Y-48791857D01*
X135739285Y-48887095D01*
X135786904Y-49029952D01*
X136358333Y-49601380D01*
X135739285Y-49601380D01*
D13*
%TO.C,D1*%
X143140057Y-67581428D02*
X143140057Y-66981428D01*
X142997200Y-66981428D01*
X142911485Y-67010000D01*
X142854342Y-67067142D01*
X142825771Y-67124285D01*
X142797200Y-67238571D01*
X142797200Y-67324285D01*
X142825771Y-67438571D01*
X142854342Y-67495714D01*
X142911485Y-67552857D01*
X142997200Y-67581428D01*
X143140057Y-67581428D01*
X142225771Y-67581428D02*
X142568628Y-67581428D01*
X142397200Y-67581428D02*
X142397200Y-66981428D01*
X142454342Y-67067142D01*
X142511485Y-67124285D01*
X142568628Y-67152857D01*
%TO.C,R4*%
X133700000Y-50371428D02*
X133900000Y-50085714D01*
X134042857Y-50371428D02*
X134042857Y-49771428D01*
X133814285Y-49771428D01*
X133757142Y-49800000D01*
X133728571Y-49828571D01*
X133700000Y-49885714D01*
X133700000Y-49971428D01*
X133728571Y-50028571D01*
X133757142Y-50057142D01*
X133814285Y-50085714D01*
X134042857Y-50085714D01*
X133185714Y-49971428D02*
X133185714Y-50371428D01*
X133328571Y-49742857D02*
X133471428Y-50171428D01*
X133100000Y-50171428D01*
%TO.C,D2*%
X134046857Y-52771428D02*
X134046857Y-52171428D01*
X133904000Y-52171428D01*
X133818285Y-52200000D01*
X133761142Y-52257142D01*
X133732571Y-52314285D01*
X133704000Y-52428571D01*
X133704000Y-52514285D01*
X133732571Y-52628571D01*
X133761142Y-52685714D01*
X133818285Y-52742857D01*
X133904000Y-52771428D01*
X134046857Y-52771428D01*
X133475428Y-52228571D02*
X133446857Y-52200000D01*
X133389714Y-52171428D01*
X133246857Y-52171428D01*
X133189714Y-52200000D01*
X133161142Y-52228571D01*
X133132571Y-52285714D01*
X133132571Y-52342857D01*
X133161142Y-52428571D01*
X133504000Y-52771428D01*
X133132571Y-52771428D01*
%TO.C,R11*%
X135145428Y-66213085D02*
X134859714Y-66013085D01*
X135145428Y-65870228D02*
X134545428Y-65870228D01*
X134545428Y-66098800D01*
X134574000Y-66155942D01*
X134602571Y-66184514D01*
X134659714Y-66213085D01*
X134745428Y-66213085D01*
X134802571Y-66184514D01*
X134831142Y-66155942D01*
X134859714Y-66098800D01*
X134859714Y-65870228D01*
X135145428Y-66784514D02*
X135145428Y-66441657D01*
X135145428Y-66613085D02*
X134545428Y-66613085D01*
X134631142Y-66555942D01*
X134688285Y-66498800D01*
X134716857Y-66441657D01*
X135145428Y-67355942D02*
X135145428Y-67013085D01*
X135145428Y-67184514D02*
X134545428Y-67184514D01*
X134631142Y-67127371D01*
X134688285Y-67070228D01*
X134716857Y-67013085D01*
%TO.C,R1*%
X140835028Y-66448000D02*
X140549314Y-66248000D01*
X140835028Y-66105142D02*
X140235028Y-66105142D01*
X140235028Y-66333714D01*
X140263600Y-66390857D01*
X140292171Y-66419428D01*
X140349314Y-66448000D01*
X140435028Y-66448000D01*
X140492171Y-66419428D01*
X140520742Y-66390857D01*
X140549314Y-66333714D01*
X140549314Y-66105142D01*
X140835028Y-67019428D02*
X140835028Y-66676571D01*
X140835028Y-66848000D02*
X140235028Y-66848000D01*
X140320742Y-66790857D01*
X140377885Y-66733714D01*
X140406457Y-66676571D01*
%TO.C,R8*%
X134720000Y-61104428D02*
X134920000Y-60818714D01*
X135062857Y-61104428D02*
X135062857Y-60504428D01*
X134834285Y-60504428D01*
X134777142Y-60533000D01*
X134748571Y-60561571D01*
X134720000Y-60618714D01*
X134720000Y-60704428D01*
X134748571Y-60761571D01*
X134777142Y-60790142D01*
X134834285Y-60818714D01*
X135062857Y-60818714D01*
X134377142Y-60761571D02*
X134434285Y-60733000D01*
X134462857Y-60704428D01*
X134491428Y-60647285D01*
X134491428Y-60618714D01*
X134462857Y-60561571D01*
X134434285Y-60533000D01*
X134377142Y-60504428D01*
X134262857Y-60504428D01*
X134205714Y-60533000D01*
X134177142Y-60561571D01*
X134148571Y-60618714D01*
X134148571Y-60647285D01*
X134177142Y-60704428D01*
X134205714Y-60733000D01*
X134262857Y-60761571D01*
X134377142Y-60761571D01*
X134434285Y-60790142D01*
X134462857Y-60818714D01*
X134491428Y-60875857D01*
X134491428Y-60990142D01*
X134462857Y-61047285D01*
X134434285Y-61075857D01*
X134377142Y-61104428D01*
X134262857Y-61104428D01*
X134205714Y-61075857D01*
X134177142Y-61047285D01*
X134148571Y-60990142D01*
X134148571Y-60875857D01*
X134177142Y-60818714D01*
X134205714Y-60790142D01*
X134262857Y-60761571D01*
D12*
%TO.C,R9*%
X138850666Y-64587380D02*
X139184000Y-64111190D01*
X139422095Y-64587380D02*
X139422095Y-63587380D01*
X139041142Y-63587380D01*
X138945904Y-63635000D01*
X138898285Y-63682619D01*
X138850666Y-63777857D01*
X138850666Y-63920714D01*
X138898285Y-64015952D01*
X138945904Y-64063571D01*
X139041142Y-64111190D01*
X139422095Y-64111190D01*
X138374476Y-64587380D02*
X138184000Y-64587380D01*
X138088761Y-64539761D01*
X138041142Y-64492142D01*
X137945904Y-64349285D01*
X137898285Y-64158809D01*
X137898285Y-63777857D01*
X137945904Y-63682619D01*
X137993523Y-63635000D01*
X138088761Y-63587380D01*
X138279238Y-63587380D01*
X138374476Y-63635000D01*
X138422095Y-63682619D01*
X138469714Y-63777857D01*
X138469714Y-64015952D01*
X138422095Y-64111190D01*
X138374476Y-64158809D01*
X138279238Y-64206428D01*
X138088761Y-64206428D01*
X137993523Y-64158809D01*
X137945904Y-64111190D01*
X137898285Y-64015952D01*
D14*
%TO.C,U2*%
X140413619Y-53787523D02*
X140413619Y-54815619D01*
X140353142Y-54936571D01*
X140292666Y-54997047D01*
X140171714Y-55057523D01*
X139929809Y-55057523D01*
X139808857Y-54997047D01*
X139748380Y-54936571D01*
X139687904Y-54815619D01*
X139687904Y-53787523D01*
X139143619Y-53908476D02*
X139083142Y-53848000D01*
X138962190Y-53787523D01*
X138659809Y-53787523D01*
X138538857Y-53848000D01*
X138478380Y-53908476D01*
X138417904Y-54029428D01*
X138417904Y-54150380D01*
X138478380Y-54331809D01*
X139204095Y-55057523D01*
X138417904Y-55057523D01*
D13*
%TO.C,R2*%
X133704000Y-55271428D02*
X133904000Y-54985714D01*
X134046857Y-55271428D02*
X134046857Y-54671428D01*
X133818285Y-54671428D01*
X133761142Y-54700000D01*
X133732571Y-54728571D01*
X133704000Y-54785714D01*
X133704000Y-54871428D01*
X133732571Y-54928571D01*
X133761142Y-54957142D01*
X133818285Y-54985714D01*
X134046857Y-54985714D01*
X133475428Y-54728571D02*
X133446857Y-54700000D01*
X133389714Y-54671428D01*
X133246857Y-54671428D01*
X133189714Y-54700000D01*
X133161142Y-54728571D01*
X133132571Y-54785714D01*
X133132571Y-54842857D01*
X133161142Y-54928571D01*
X133504000Y-55271428D01*
X133132571Y-55271428D01*
D12*
%TO.C,C1*%
X140374666Y-49506142D02*
X140422285Y-49553761D01*
X140565142Y-49601380D01*
X140660380Y-49601380D01*
X140803238Y-49553761D01*
X140898476Y-49458523D01*
X140946095Y-49363285D01*
X140993714Y-49172809D01*
X140993714Y-49029952D01*
X140946095Y-48839476D01*
X140898476Y-48744238D01*
X140803238Y-48649000D01*
X140660380Y-48601380D01*
X140565142Y-48601380D01*
X140422285Y-48649000D01*
X140374666Y-48696619D01*
X139422285Y-49601380D02*
X139993714Y-49601380D01*
X139708000Y-49601380D02*
X139708000Y-48601380D01*
X139803238Y-48744238D01*
X139898476Y-48839476D01*
X139993714Y-48887095D01*
%TD*%
M02*
