%TF.GenerationSoftware,KiCad,Pcbnew,(6.0.10-0)*%
%TF.CreationDate,2023-02-01T10:43:54-08:00*%
%TF.ProjectId,mosfet_breakout_1.0,6d6f7366-6574-45f6-9272-65616b6f7574,rev?*%
%TF.SameCoordinates,Original*%
%TF.FileFunction,Paste,Top*%
%TF.FilePolarity,Positive*%
%FSLAX46Y46*%
G04 Gerber Fmt 4.6, Leading zero omitted, Abs format (unit mm)*
G04 Created by KiCad (PCBNEW (6.0.10-0)) date 2023-02-01 10:43:54*
%MOMM*%
%LPD*%
G01*
G04 APERTURE LIST*
G04 Aperture macros list*
%AMRoundRect*
0 Rectangle with rounded corners*
0 $1 Rounding radius*
0 $2 $3 $4 $5 $6 $7 $8 $9 X,Y pos of 4 corners*
0 Add a 4 corners polygon primitive as box body*
4,1,4,$2,$3,$4,$5,$6,$7,$8,$9,$2,$3,0*
0 Add four circle primitives for the rounded corners*
1,1,$1+$1,$2,$3*
1,1,$1+$1,$4,$5*
1,1,$1+$1,$6,$7*
1,1,$1+$1,$8,$9*
0 Add four rect primitives between the rounded corners*
20,1,$1+$1,$2,$3,$4,$5,0*
20,1,$1+$1,$4,$5,$6,$7,0*
20,1,$1+$1,$6,$7,$8,$9,0*
20,1,$1+$1,$8,$9,$2,$3,0*%
G04 Aperture macros list end*
%ADD10C,0.010000*%
%ADD11R,0.800000X0.900000*%
%ADD12RoundRect,0.150000X-0.250000X0.150000X-0.250000X-0.150000X0.250000X-0.150000X0.250000X0.150000X0*%
%ADD13R,1.200000X0.700000*%
%ADD14RoundRect,0.150000X0.250000X-0.150000X0.250000X0.150000X-0.250000X0.150000X-0.250000X-0.150000X0*%
%ADD15R,5.000000X5.000000*%
%ADD16R,0.600000X0.800000*%
%ADD17RoundRect,0.150000X0.150000X0.250000X-0.150000X0.250000X-0.150000X-0.250000X0.150000X-0.250000X0*%
%ADD18RoundRect,0.150000X-0.150000X-0.250000X0.150000X-0.250000X0.150000X0.250000X-0.150000X0.250000X0*%
%ADD19R,0.700000X1.200000*%
%ADD20R,0.500000X1.600000*%
%ADD21R,0.900000X0.600000*%
%ADD22R,1.800000X1.700000*%
G04 APERTURE END LIST*
%TO.C,Q2*%
G36*
X140098500Y-61582000D02*
G01*
X139648500Y-61582000D01*
X139648500Y-61242000D01*
X140098500Y-61242000D01*
X140098500Y-61582000D01*
G37*
D10*
X140098500Y-61582000D02*
X139648500Y-61582000D01*
X139648500Y-61242000D01*
X140098500Y-61242000D01*
X140098500Y-61582000D01*
G36*
X140098500Y-60282000D02*
G01*
X139648500Y-60282000D01*
X139648500Y-59942000D01*
X140098500Y-59942000D01*
X140098500Y-60282000D01*
G37*
X140098500Y-60282000D02*
X139648500Y-60282000D01*
X139648500Y-59942000D01*
X140098500Y-59942000D01*
X140098500Y-60282000D01*
G36*
X139423500Y-62232000D02*
G01*
X137978500Y-62232000D01*
X137978500Y-61212000D01*
X139423500Y-61212000D01*
X139423500Y-62232000D01*
G37*
X139423500Y-62232000D02*
X137978500Y-62232000D01*
X137978500Y-61212000D01*
X139423500Y-61212000D01*
X139423500Y-62232000D01*
G36*
X140098500Y-62232000D02*
G01*
X139648500Y-62232000D01*
X139648500Y-61892000D01*
X140098500Y-61892000D01*
X140098500Y-62232000D01*
G37*
X140098500Y-62232000D02*
X139648500Y-62232000D01*
X139648500Y-61892000D01*
X140098500Y-61892000D01*
X140098500Y-62232000D01*
G36*
X139423500Y-60962000D02*
G01*
X137978500Y-60962000D01*
X137978500Y-59942000D01*
X139423500Y-59942000D01*
X139423500Y-60962000D01*
G37*
X139423500Y-60962000D02*
X137978500Y-60962000D01*
X137978500Y-59942000D01*
X139423500Y-59942000D01*
X139423500Y-60962000D01*
G36*
X137228500Y-62232000D02*
G01*
X136778500Y-62232000D01*
X136778500Y-61892000D01*
X137228500Y-61892000D01*
X137228500Y-62232000D01*
G37*
X137228500Y-62232000D02*
X136778500Y-62232000D01*
X136778500Y-61892000D01*
X137228500Y-61892000D01*
X137228500Y-62232000D01*
G36*
X140098500Y-60932000D02*
G01*
X139648500Y-60932000D01*
X139648500Y-60592000D01*
X140098500Y-60592000D01*
X140098500Y-60932000D01*
G37*
X140098500Y-60932000D02*
X139648500Y-60932000D01*
X139648500Y-60592000D01*
X140098500Y-60592000D01*
X140098500Y-60932000D01*
G36*
X137228500Y-60932000D02*
G01*
X136778500Y-60932000D01*
X136778500Y-60592000D01*
X137228500Y-60592000D01*
X137228500Y-60932000D01*
G37*
X137228500Y-60932000D02*
X136778500Y-60932000D01*
X136778500Y-60592000D01*
X137228500Y-60592000D01*
X137228500Y-60932000D01*
G36*
X137228500Y-60282000D02*
G01*
X136778500Y-60282000D01*
X136778500Y-59942000D01*
X137228500Y-59942000D01*
X137228500Y-60282000D01*
G37*
X137228500Y-60282000D02*
X136778500Y-60282000D01*
X136778500Y-59942000D01*
X137228500Y-59942000D01*
X137228500Y-60282000D01*
G36*
X137228500Y-61582000D02*
G01*
X136778500Y-61582000D01*
X136778500Y-61242000D01*
X137228500Y-61242000D01*
X137228500Y-61582000D01*
G37*
X137228500Y-61582000D02*
X136778500Y-61582000D01*
X136778500Y-61242000D01*
X137228500Y-61242000D01*
X137228500Y-61582000D01*
%TD*%
D11*
%TO.C,Q1*%
X135570000Y-62373000D03*
X133670000Y-62373000D03*
X134620000Y-64373000D03*
%TD*%
D12*
%TO.C,R6*%
X139141200Y-65698000D03*
X139141200Y-67398000D03*
%TD*%
D13*
%TO.C,R5*%
X133858000Y-57420000D03*
X133858000Y-59420000D03*
%TD*%
D14*
%TO.C,R7*%
X137718800Y-67398000D03*
X137718800Y-65698000D03*
%TD*%
%TO.C,R10*%
X136271000Y-67398000D03*
X136271000Y-65698000D03*
%TD*%
%TO.C,R3*%
X132207000Y-60032000D03*
X132207000Y-58332000D03*
%TD*%
D15*
%TO.C,TP1*%
X169093200Y-62626400D03*
%TD*%
D16*
%TO.C,C2*%
X135675000Y-49149000D03*
X137375000Y-49149000D03*
%TD*%
D17*
%TO.C,D1*%
X143547200Y-67310000D03*
X141847200Y-67310000D03*
%TD*%
D18*
%TO.C,R4*%
X132754000Y-51308000D03*
X134454000Y-51308000D03*
%TD*%
D17*
%TO.C,D2*%
X134454000Y-53467000D03*
X132754000Y-53467000D03*
%TD*%
D12*
%TO.C,R11*%
X134874000Y-65698000D03*
X134874000Y-67398000D03*
%TD*%
%TO.C,R1*%
X140563600Y-65698000D03*
X140563600Y-67398000D03*
%TD*%
D17*
%TO.C,R8*%
X135470000Y-60833000D03*
X133770000Y-60833000D03*
%TD*%
D19*
%TO.C,R9*%
X137684000Y-64135000D03*
X139684000Y-64135000D03*
%TD*%
D20*
%TO.C,U2*%
X141046000Y-52033000D03*
X139446000Y-52033000D03*
X137846000Y-52033000D03*
D21*
X136646000Y-54533000D03*
D22*
X137946000Y-56883000D03*
X140946000Y-56883000D03*
D21*
X142246000Y-54533000D03*
%TD*%
D15*
%TO.C,TP4*%
X169042400Y-52568000D03*
%TD*%
D17*
%TO.C,R2*%
X134454000Y-54864000D03*
X132754000Y-54864000D03*
%TD*%
D16*
%TO.C,C1*%
X139358000Y-49149000D03*
X141058000Y-49149000D03*
%TD*%
M02*
