M48
; DRILL file {KiCad (6.0.10-0)} date Wednesday, February 01, 2023 at 10:43:51 AM
; FORMAT={-:-/ absolute / metric / decimal}
; #@! TF.CreationDate,2023-02-01T10:43:51-08:00
; #@! TF.GenerationSoftware,Kicad,Pcbnew,(6.0.10-0)
; #@! TF.FileFunction,MixedPlating,1,2
FMAT,2
METRIC
; #@! TA.AperFunction,Plated,PTH,ViaDrill
T1C0.300
; #@! TA.AperFunction,Plated,PTH,ComponentDrill
T2C0.600
; #@! TA.AperFunction,Plated,PTH,ComponentDrill
T3C0.900
; #@! TA.AperFunction,Plated,PTH,ComponentDrill
T4C3.900
%
G90
G05
T1
X132.283Y-62.281
X135.514Y-53.682
X137.008Y-66.396
X138.176Y-48.006
X143.561Y-66.294
X167.132Y-50.698
X167.132Y-52.527
X167.132Y-54.407
X167.234Y-60.757
X167.234Y-62.586
X167.234Y-64.465
X169.113Y-50.698
X169.113Y-52.476
X169.113Y-54.407
X169.215Y-60.757
X169.215Y-62.535
X169.215Y-64.465
X170.84Y-52.527
X170.891Y-50.698
X170.891Y-54.407
X170.942Y-62.586
X170.993Y-60.757
X170.993Y-64.465
T3
X129.8Y-51.28
X129.8Y-53.82
X129.8Y-56.36
X129.8Y-58.9
X129.8Y-61.44
X129.8Y-63.98
T4
X147.392Y-52.208
X147.392Y-63.108
T2
G00X156.292Y-48.208
M15
G01X157.292Y-48.208
M16
G05
G00X156.292Y-67.108
M15
G01X157.292Y-67.108
M16
G05
T0
M30
