%TF.GenerationSoftware,KiCad,Pcbnew,(6.0.10-0)*%
%TF.CreationDate,2023-03-03T19:39:16-08:00*%
%TF.ProjectId,1.0,312e302e-6b69-4636-9164-5f7063625858,rev?*%
%TF.SameCoordinates,Original*%
%TF.FileFunction,Legend,Bot*%
%TF.FilePolarity,Positive*%
%FSLAX46Y46*%
G04 Gerber Fmt 4.6, Leading zero omitted, Abs format (unit mm)*
G04 Created by KiCad (PCBNEW (6.0.10-0)) date 2023-03-03 19:39:16*
%MOMM*%
%LPD*%
G01*
G04 APERTURE LIST*
%ADD10C,0.200000*%
%ADD11C,0.150000*%
%ADD12C,0.100000*%
%ADD13C,0.254000*%
%ADD14C,0.069417*%
%ADD15C,0.120000*%
%ADD16C,0.127000*%
G04 APERTURE END LIST*
D10*
X161581904Y-154882380D02*
X160962857Y-154882380D01*
X161296190Y-155263333D01*
X161153333Y-155263333D01*
X161058095Y-155310952D01*
X161010476Y-155358571D01*
X160962857Y-155453809D01*
X160962857Y-155691904D01*
X161010476Y-155787142D01*
X161058095Y-155834761D01*
X161153333Y-155882380D01*
X161439047Y-155882380D01*
X161534285Y-155834761D01*
X161581904Y-155787142D01*
X160677142Y-154882380D02*
X160343809Y-155882380D01*
X160010476Y-154882380D01*
X161781904Y-146292380D02*
X161162857Y-146292380D01*
X161496190Y-146673333D01*
X161353333Y-146673333D01*
X161258095Y-146720952D01*
X161210476Y-146768571D01*
X161162857Y-146863809D01*
X161162857Y-147101904D01*
X161210476Y-147197142D01*
X161258095Y-147244761D01*
X161353333Y-147292380D01*
X161639047Y-147292380D01*
X161734285Y-147244761D01*
X161781904Y-147197142D01*
X160877142Y-146292380D02*
X160543809Y-147292380D01*
X160210476Y-146292380D01*
X160970476Y-152242380D02*
X161446666Y-152242380D01*
X161494285Y-152718571D01*
X161446666Y-152670952D01*
X161351428Y-152623333D01*
X161113333Y-152623333D01*
X161018095Y-152670952D01*
X160970476Y-152718571D01*
X160922857Y-152813809D01*
X160922857Y-153051904D01*
X160970476Y-153147142D01*
X161018095Y-153194761D01*
X161113333Y-153242380D01*
X161351428Y-153242380D01*
X161446666Y-153194761D01*
X161494285Y-153147142D01*
X160637142Y-152242380D02*
X160303809Y-153242380D01*
X159970476Y-152242380D01*
X161170476Y-143912380D02*
X161646666Y-143912380D01*
X161694285Y-144388571D01*
X161646666Y-144340952D01*
X161551428Y-144293333D01*
X161313333Y-144293333D01*
X161218095Y-144340952D01*
X161170476Y-144388571D01*
X161122857Y-144483809D01*
X161122857Y-144721904D01*
X161170476Y-144817142D01*
X161218095Y-144864761D01*
X161313333Y-144912380D01*
X161551428Y-144912380D01*
X161646666Y-144864761D01*
X161694285Y-144817142D01*
X160837142Y-143912380D02*
X160503809Y-144912380D01*
X160170476Y-143912380D01*
D11*
%TO.C,C22*%
X198067857Y-140464642D02*
X198115476Y-140512261D01*
X198258333Y-140559880D01*
X198353571Y-140559880D01*
X198496428Y-140512261D01*
X198591666Y-140417023D01*
X198639285Y-140321785D01*
X198686904Y-140131309D01*
X198686904Y-139988452D01*
X198639285Y-139797976D01*
X198591666Y-139702738D01*
X198496428Y-139607500D01*
X198353571Y-139559880D01*
X198258333Y-139559880D01*
X198115476Y-139607500D01*
X198067857Y-139655119D01*
X197686904Y-139655119D02*
X197639285Y-139607500D01*
X197544047Y-139559880D01*
X197305952Y-139559880D01*
X197210714Y-139607500D01*
X197163095Y-139655119D01*
X197115476Y-139750357D01*
X197115476Y-139845595D01*
X197163095Y-139988452D01*
X197734523Y-140559880D01*
X197115476Y-140559880D01*
X196734523Y-139655119D02*
X196686904Y-139607500D01*
X196591666Y-139559880D01*
X196353571Y-139559880D01*
X196258333Y-139607500D01*
X196210714Y-139655119D01*
X196163095Y-139750357D01*
X196163095Y-139845595D01*
X196210714Y-139988452D01*
X196782142Y-140559880D01*
X196163095Y-140559880D01*
D12*
%TO.C,R18*%
X171631428Y-147364285D02*
X171345714Y-147164285D01*
X171631428Y-147021428D02*
X171031428Y-147021428D01*
X171031428Y-147250000D01*
X171060000Y-147307142D01*
X171088571Y-147335714D01*
X171145714Y-147364285D01*
X171231428Y-147364285D01*
X171288571Y-147335714D01*
X171317142Y-147307142D01*
X171345714Y-147250000D01*
X171345714Y-147021428D01*
X171631428Y-147935714D02*
X171631428Y-147592857D01*
X171631428Y-147764285D02*
X171031428Y-147764285D01*
X171117142Y-147707142D01*
X171174285Y-147650000D01*
X171202857Y-147592857D01*
X171288571Y-148278571D02*
X171260000Y-148221428D01*
X171231428Y-148192857D01*
X171174285Y-148164285D01*
X171145714Y-148164285D01*
X171088571Y-148192857D01*
X171060000Y-148221428D01*
X171031428Y-148278571D01*
X171031428Y-148392857D01*
X171060000Y-148450000D01*
X171088571Y-148478571D01*
X171145714Y-148507142D01*
X171174285Y-148507142D01*
X171231428Y-148478571D01*
X171260000Y-148450000D01*
X171288571Y-148392857D01*
X171288571Y-148278571D01*
X171317142Y-148221428D01*
X171345714Y-148192857D01*
X171402857Y-148164285D01*
X171517142Y-148164285D01*
X171574285Y-148192857D01*
X171602857Y-148221428D01*
X171631428Y-148278571D01*
X171631428Y-148392857D01*
X171602857Y-148450000D01*
X171574285Y-148478571D01*
X171517142Y-148507142D01*
X171402857Y-148507142D01*
X171345714Y-148478571D01*
X171317142Y-148450000D01*
X171288571Y-148392857D01*
D11*
%TO.C,C29*%
X224132142Y-144632142D02*
X224179761Y-144584523D01*
X224227380Y-144441666D01*
X224227380Y-144346428D01*
X224179761Y-144203571D01*
X224084523Y-144108333D01*
X223989285Y-144060714D01*
X223798809Y-144013095D01*
X223655952Y-144013095D01*
X223465476Y-144060714D01*
X223370238Y-144108333D01*
X223275000Y-144203571D01*
X223227380Y-144346428D01*
X223227380Y-144441666D01*
X223275000Y-144584523D01*
X223322619Y-144632142D01*
X223322619Y-145013095D02*
X223275000Y-145060714D01*
X223227380Y-145155952D01*
X223227380Y-145394047D01*
X223275000Y-145489285D01*
X223322619Y-145536904D01*
X223417857Y-145584523D01*
X223513095Y-145584523D01*
X223655952Y-145536904D01*
X224227380Y-144965476D01*
X224227380Y-145584523D01*
X224227380Y-146060714D02*
X224227380Y-146251190D01*
X224179761Y-146346428D01*
X224132142Y-146394047D01*
X223989285Y-146489285D01*
X223798809Y-146536904D01*
X223417857Y-146536904D01*
X223322619Y-146489285D01*
X223275000Y-146441666D01*
X223227380Y-146346428D01*
X223227380Y-146155952D01*
X223275000Y-146060714D01*
X223322619Y-146013095D01*
X223417857Y-145965476D01*
X223655952Y-145965476D01*
X223751190Y-146013095D01*
X223798809Y-146060714D01*
X223846428Y-146155952D01*
X223846428Y-146346428D01*
X223798809Y-146441666D01*
X223751190Y-146489285D01*
X223655952Y-146536904D01*
%TO.C,D16*%
X234639285Y-164877380D02*
X234639285Y-163877380D01*
X234401190Y-163877380D01*
X234258333Y-163925000D01*
X234163095Y-164020238D01*
X234115476Y-164115476D01*
X234067857Y-164305952D01*
X234067857Y-164448809D01*
X234115476Y-164639285D01*
X234163095Y-164734523D01*
X234258333Y-164829761D01*
X234401190Y-164877380D01*
X234639285Y-164877380D01*
X233115476Y-164877380D02*
X233686904Y-164877380D01*
X233401190Y-164877380D02*
X233401190Y-163877380D01*
X233496428Y-164020238D01*
X233591666Y-164115476D01*
X233686904Y-164163095D01*
X232258333Y-163877380D02*
X232448809Y-163877380D01*
X232544047Y-163925000D01*
X232591666Y-163972619D01*
X232686904Y-164115476D01*
X232734523Y-164305952D01*
X232734523Y-164686904D01*
X232686904Y-164782142D01*
X232639285Y-164829761D01*
X232544047Y-164877380D01*
X232353571Y-164877380D01*
X232258333Y-164829761D01*
X232210714Y-164782142D01*
X232163095Y-164686904D01*
X232163095Y-164448809D01*
X232210714Y-164353571D01*
X232258333Y-164305952D01*
X232353571Y-164258333D01*
X232544047Y-164258333D01*
X232639285Y-164305952D01*
X232686904Y-164353571D01*
X232734523Y-164448809D01*
%TO.C,D15*%
X242664285Y-116577380D02*
X242664285Y-115577380D01*
X242426190Y-115577380D01*
X242283333Y-115625000D01*
X242188095Y-115720238D01*
X242140476Y-115815476D01*
X242092857Y-116005952D01*
X242092857Y-116148809D01*
X242140476Y-116339285D01*
X242188095Y-116434523D01*
X242283333Y-116529761D01*
X242426190Y-116577380D01*
X242664285Y-116577380D01*
X241140476Y-116577380D02*
X241711904Y-116577380D01*
X241426190Y-116577380D02*
X241426190Y-115577380D01*
X241521428Y-115720238D01*
X241616666Y-115815476D01*
X241711904Y-115863095D01*
X240235714Y-115577380D02*
X240711904Y-115577380D01*
X240759523Y-116053571D01*
X240711904Y-116005952D01*
X240616666Y-115958333D01*
X240378571Y-115958333D01*
X240283333Y-116005952D01*
X240235714Y-116053571D01*
X240188095Y-116148809D01*
X240188095Y-116386904D01*
X240235714Y-116482142D01*
X240283333Y-116529761D01*
X240378571Y-116577380D01*
X240616666Y-116577380D01*
X240711904Y-116529761D01*
X240759523Y-116482142D01*
%TO.C,R51*%
X178067857Y-124902380D02*
X178401190Y-124426190D01*
X178639285Y-124902380D02*
X178639285Y-123902380D01*
X178258333Y-123902380D01*
X178163095Y-123950000D01*
X178115476Y-123997619D01*
X178067857Y-124092857D01*
X178067857Y-124235714D01*
X178115476Y-124330952D01*
X178163095Y-124378571D01*
X178258333Y-124426190D01*
X178639285Y-124426190D01*
X177163095Y-123902380D02*
X177639285Y-123902380D01*
X177686904Y-124378571D01*
X177639285Y-124330952D01*
X177544047Y-124283333D01*
X177305952Y-124283333D01*
X177210714Y-124330952D01*
X177163095Y-124378571D01*
X177115476Y-124473809D01*
X177115476Y-124711904D01*
X177163095Y-124807142D01*
X177210714Y-124854761D01*
X177305952Y-124902380D01*
X177544047Y-124902380D01*
X177639285Y-124854761D01*
X177686904Y-124807142D01*
X176163095Y-124902380D02*
X176734523Y-124902380D01*
X176448809Y-124902380D02*
X176448809Y-123902380D01*
X176544047Y-124045238D01*
X176639285Y-124140476D01*
X176734523Y-124188095D01*
%TO.C,D2*%
X175838095Y-153002380D02*
X175838095Y-152002380D01*
X175600000Y-152002380D01*
X175457142Y-152050000D01*
X175361904Y-152145238D01*
X175314285Y-152240476D01*
X175266666Y-152430952D01*
X175266666Y-152573809D01*
X175314285Y-152764285D01*
X175361904Y-152859523D01*
X175457142Y-152954761D01*
X175600000Y-153002380D01*
X175838095Y-153002380D01*
X174885714Y-152097619D02*
X174838095Y-152050000D01*
X174742857Y-152002380D01*
X174504761Y-152002380D01*
X174409523Y-152050000D01*
X174361904Y-152097619D01*
X174314285Y-152192857D01*
X174314285Y-152288095D01*
X174361904Y-152430952D01*
X174933333Y-153002380D01*
X174314285Y-153002380D01*
D12*
%TO.C,R1*%
X165850000Y-156871428D02*
X166050000Y-156585714D01*
X166192857Y-156871428D02*
X166192857Y-156271428D01*
X165964285Y-156271428D01*
X165907142Y-156300000D01*
X165878571Y-156328571D01*
X165850000Y-156385714D01*
X165850000Y-156471428D01*
X165878571Y-156528571D01*
X165907142Y-156557142D01*
X165964285Y-156585714D01*
X166192857Y-156585714D01*
X165278571Y-156871428D02*
X165621428Y-156871428D01*
X165450000Y-156871428D02*
X165450000Y-156271428D01*
X165507142Y-156357142D01*
X165564285Y-156414285D01*
X165621428Y-156442857D01*
%TO.C,R45*%
X209785714Y-116245178D02*
X209985714Y-115959464D01*
X210128571Y-116245178D02*
X210128571Y-115645178D01*
X209900000Y-115645178D01*
X209842857Y-115673750D01*
X209814285Y-115702321D01*
X209785714Y-115759464D01*
X209785714Y-115845178D01*
X209814285Y-115902321D01*
X209842857Y-115930892D01*
X209900000Y-115959464D01*
X210128571Y-115959464D01*
X209271428Y-115845178D02*
X209271428Y-116245178D01*
X209414285Y-115616607D02*
X209557142Y-116045178D01*
X209185714Y-116045178D01*
X208671428Y-115645178D02*
X208957142Y-115645178D01*
X208985714Y-115930892D01*
X208957142Y-115902321D01*
X208900000Y-115873750D01*
X208757142Y-115873750D01*
X208700000Y-115902321D01*
X208671428Y-115930892D01*
X208642857Y-115988035D01*
X208642857Y-116130892D01*
X208671428Y-116188035D01*
X208700000Y-116216607D01*
X208757142Y-116245178D01*
X208900000Y-116245178D01*
X208957142Y-116216607D01*
X208985714Y-116188035D01*
D11*
%TO.C,C20*%
X214742857Y-119162142D02*
X214790476Y-119209761D01*
X214933333Y-119257380D01*
X215028571Y-119257380D01*
X215171428Y-119209761D01*
X215266666Y-119114523D01*
X215314285Y-119019285D01*
X215361904Y-118828809D01*
X215361904Y-118685952D01*
X215314285Y-118495476D01*
X215266666Y-118400238D01*
X215171428Y-118305000D01*
X215028571Y-118257380D01*
X214933333Y-118257380D01*
X214790476Y-118305000D01*
X214742857Y-118352619D01*
X214361904Y-118352619D02*
X214314285Y-118305000D01*
X214219047Y-118257380D01*
X213980952Y-118257380D01*
X213885714Y-118305000D01*
X213838095Y-118352619D01*
X213790476Y-118447857D01*
X213790476Y-118543095D01*
X213838095Y-118685952D01*
X214409523Y-119257380D01*
X213790476Y-119257380D01*
X213171428Y-118257380D02*
X213076190Y-118257380D01*
X212980952Y-118305000D01*
X212933333Y-118352619D01*
X212885714Y-118447857D01*
X212838095Y-118638333D01*
X212838095Y-118876428D01*
X212885714Y-119066904D01*
X212933333Y-119162142D01*
X212980952Y-119209761D01*
X213076190Y-119257380D01*
X213171428Y-119257380D01*
X213266666Y-119209761D01*
X213314285Y-119162142D01*
X213361904Y-119066904D01*
X213409523Y-118876428D01*
X213409523Y-118638333D01*
X213361904Y-118447857D01*
X213314285Y-118352619D01*
X213266666Y-118305000D01*
X213171428Y-118257380D01*
%TO.C,R25*%
X191142857Y-121177380D02*
X191476190Y-120701190D01*
X191714285Y-121177380D02*
X191714285Y-120177380D01*
X191333333Y-120177380D01*
X191238095Y-120225000D01*
X191190476Y-120272619D01*
X191142857Y-120367857D01*
X191142857Y-120510714D01*
X191190476Y-120605952D01*
X191238095Y-120653571D01*
X191333333Y-120701190D01*
X191714285Y-120701190D01*
X190761904Y-120272619D02*
X190714285Y-120225000D01*
X190619047Y-120177380D01*
X190380952Y-120177380D01*
X190285714Y-120225000D01*
X190238095Y-120272619D01*
X190190476Y-120367857D01*
X190190476Y-120463095D01*
X190238095Y-120605952D01*
X190809523Y-121177380D01*
X190190476Y-121177380D01*
X189285714Y-120177380D02*
X189761904Y-120177380D01*
X189809523Y-120653571D01*
X189761904Y-120605952D01*
X189666666Y-120558333D01*
X189428571Y-120558333D01*
X189333333Y-120605952D01*
X189285714Y-120653571D01*
X189238095Y-120748809D01*
X189238095Y-120986904D01*
X189285714Y-121082142D01*
X189333333Y-121129761D01*
X189428571Y-121177380D01*
X189666666Y-121177380D01*
X189761904Y-121129761D01*
X189809523Y-121082142D01*
%TO.C,C14*%
X224092857Y-161742142D02*
X224140476Y-161789761D01*
X224283333Y-161837380D01*
X224378571Y-161837380D01*
X224521428Y-161789761D01*
X224616666Y-161694523D01*
X224664285Y-161599285D01*
X224711904Y-161408809D01*
X224711904Y-161265952D01*
X224664285Y-161075476D01*
X224616666Y-160980238D01*
X224521428Y-160885000D01*
X224378571Y-160837380D01*
X224283333Y-160837380D01*
X224140476Y-160885000D01*
X224092857Y-160932619D01*
X223140476Y-161837380D02*
X223711904Y-161837380D01*
X223426190Y-161837380D02*
X223426190Y-160837380D01*
X223521428Y-160980238D01*
X223616666Y-161075476D01*
X223711904Y-161123095D01*
X222283333Y-161170714D02*
X222283333Y-161837380D01*
X222521428Y-160789761D02*
X222759523Y-161504047D01*
X222140476Y-161504047D01*
D12*
%TO.C,R66*%
X235875714Y-117681428D02*
X236075714Y-117395714D01*
X236218571Y-117681428D02*
X236218571Y-117081428D01*
X235990000Y-117081428D01*
X235932857Y-117110000D01*
X235904285Y-117138571D01*
X235875714Y-117195714D01*
X235875714Y-117281428D01*
X235904285Y-117338571D01*
X235932857Y-117367142D01*
X235990000Y-117395714D01*
X236218571Y-117395714D01*
X235361428Y-117081428D02*
X235475714Y-117081428D01*
X235532857Y-117110000D01*
X235561428Y-117138571D01*
X235618571Y-117224285D01*
X235647142Y-117338571D01*
X235647142Y-117567142D01*
X235618571Y-117624285D01*
X235590000Y-117652857D01*
X235532857Y-117681428D01*
X235418571Y-117681428D01*
X235361428Y-117652857D01*
X235332857Y-117624285D01*
X235304285Y-117567142D01*
X235304285Y-117424285D01*
X235332857Y-117367142D01*
X235361428Y-117338571D01*
X235418571Y-117310000D01*
X235532857Y-117310000D01*
X235590000Y-117338571D01*
X235618571Y-117367142D01*
X235647142Y-117424285D01*
X234790000Y-117081428D02*
X234904285Y-117081428D01*
X234961428Y-117110000D01*
X234990000Y-117138571D01*
X235047142Y-117224285D01*
X235075714Y-117338571D01*
X235075714Y-117567142D01*
X235047142Y-117624285D01*
X235018571Y-117652857D01*
X234961428Y-117681428D01*
X234847142Y-117681428D01*
X234790000Y-117652857D01*
X234761428Y-117624285D01*
X234732857Y-117567142D01*
X234732857Y-117424285D01*
X234761428Y-117367142D01*
X234790000Y-117338571D01*
X234847142Y-117310000D01*
X234961428Y-117310000D01*
X235018571Y-117338571D01*
X235047142Y-117367142D01*
X235075714Y-117424285D01*
D11*
%TO.C,C32*%
X157787142Y-148177142D02*
X157834761Y-148129523D01*
X157882380Y-147986666D01*
X157882380Y-147891428D01*
X157834761Y-147748571D01*
X157739523Y-147653333D01*
X157644285Y-147605714D01*
X157453809Y-147558095D01*
X157310952Y-147558095D01*
X157120476Y-147605714D01*
X157025238Y-147653333D01*
X156930000Y-147748571D01*
X156882380Y-147891428D01*
X156882380Y-147986666D01*
X156930000Y-148129523D01*
X156977619Y-148177142D01*
X156882380Y-148510476D02*
X156882380Y-149129523D01*
X157263333Y-148796190D01*
X157263333Y-148939047D01*
X157310952Y-149034285D01*
X157358571Y-149081904D01*
X157453809Y-149129523D01*
X157691904Y-149129523D01*
X157787142Y-149081904D01*
X157834761Y-149034285D01*
X157882380Y-148939047D01*
X157882380Y-148653333D01*
X157834761Y-148558095D01*
X157787142Y-148510476D01*
X156977619Y-149510476D02*
X156930000Y-149558095D01*
X156882380Y-149653333D01*
X156882380Y-149891428D01*
X156930000Y-149986666D01*
X156977619Y-150034285D01*
X157072857Y-150081904D01*
X157168095Y-150081904D01*
X157310952Y-150034285D01*
X157882380Y-149462857D01*
X157882380Y-150081904D01*
D12*
%TO.C,C37*%
X203714285Y-147574285D02*
X203742857Y-147545714D01*
X203771428Y-147460000D01*
X203771428Y-147402857D01*
X203742857Y-147317142D01*
X203685714Y-147260000D01*
X203628571Y-147231428D01*
X203514285Y-147202857D01*
X203428571Y-147202857D01*
X203314285Y-147231428D01*
X203257142Y-147260000D01*
X203200000Y-147317142D01*
X203171428Y-147402857D01*
X203171428Y-147460000D01*
X203200000Y-147545714D01*
X203228571Y-147574285D01*
X203171428Y-147774285D02*
X203171428Y-148145714D01*
X203400000Y-147945714D01*
X203400000Y-148031428D01*
X203428571Y-148088571D01*
X203457142Y-148117142D01*
X203514285Y-148145714D01*
X203657142Y-148145714D01*
X203714285Y-148117142D01*
X203742857Y-148088571D01*
X203771428Y-148031428D01*
X203771428Y-147860000D01*
X203742857Y-147802857D01*
X203714285Y-147774285D01*
X203171428Y-148345714D02*
X203171428Y-148745714D01*
X203771428Y-148488571D01*
D11*
%TO.C,R69*%
X246192857Y-116602380D02*
X246526190Y-116126190D01*
X246764285Y-116602380D02*
X246764285Y-115602380D01*
X246383333Y-115602380D01*
X246288095Y-115650000D01*
X246240476Y-115697619D01*
X246192857Y-115792857D01*
X246192857Y-115935714D01*
X246240476Y-116030952D01*
X246288095Y-116078571D01*
X246383333Y-116126190D01*
X246764285Y-116126190D01*
X245335714Y-115602380D02*
X245526190Y-115602380D01*
X245621428Y-115650000D01*
X245669047Y-115697619D01*
X245764285Y-115840476D01*
X245811904Y-116030952D01*
X245811904Y-116411904D01*
X245764285Y-116507142D01*
X245716666Y-116554761D01*
X245621428Y-116602380D01*
X245430952Y-116602380D01*
X245335714Y-116554761D01*
X245288095Y-116507142D01*
X245240476Y-116411904D01*
X245240476Y-116173809D01*
X245288095Y-116078571D01*
X245335714Y-116030952D01*
X245430952Y-115983333D01*
X245621428Y-115983333D01*
X245716666Y-116030952D01*
X245764285Y-116078571D01*
X245811904Y-116173809D01*
X244764285Y-116602380D02*
X244573809Y-116602380D01*
X244478571Y-116554761D01*
X244430952Y-116507142D01*
X244335714Y-116364285D01*
X244288095Y-116173809D01*
X244288095Y-115792857D01*
X244335714Y-115697619D01*
X244383333Y-115650000D01*
X244478571Y-115602380D01*
X244669047Y-115602380D01*
X244764285Y-115650000D01*
X244811904Y-115697619D01*
X244859523Y-115792857D01*
X244859523Y-116030952D01*
X244811904Y-116126190D01*
X244764285Y-116173809D01*
X244669047Y-116221428D01*
X244478571Y-116221428D01*
X244383333Y-116173809D01*
X244335714Y-116126190D01*
X244288095Y-116030952D01*
D12*
%TO.C,R59*%
X209261428Y-162999285D02*
X208975714Y-162799285D01*
X209261428Y-162656428D02*
X208661428Y-162656428D01*
X208661428Y-162885000D01*
X208690000Y-162942142D01*
X208718571Y-162970714D01*
X208775714Y-162999285D01*
X208861428Y-162999285D01*
X208918571Y-162970714D01*
X208947142Y-162942142D01*
X208975714Y-162885000D01*
X208975714Y-162656428D01*
X208661428Y-163542142D02*
X208661428Y-163256428D01*
X208947142Y-163227857D01*
X208918571Y-163256428D01*
X208890000Y-163313571D01*
X208890000Y-163456428D01*
X208918571Y-163513571D01*
X208947142Y-163542142D01*
X209004285Y-163570714D01*
X209147142Y-163570714D01*
X209204285Y-163542142D01*
X209232857Y-163513571D01*
X209261428Y-163456428D01*
X209261428Y-163313571D01*
X209232857Y-163256428D01*
X209204285Y-163227857D01*
X209261428Y-163856428D02*
X209261428Y-163970714D01*
X209232857Y-164027857D01*
X209204285Y-164056428D01*
X209118571Y-164113571D01*
X209004285Y-164142142D01*
X208775714Y-164142142D01*
X208718571Y-164113571D01*
X208690000Y-164085000D01*
X208661428Y-164027857D01*
X208661428Y-163913571D01*
X208690000Y-163856428D01*
X208718571Y-163827857D01*
X208775714Y-163799285D01*
X208918571Y-163799285D01*
X208975714Y-163827857D01*
X209004285Y-163856428D01*
X209032857Y-163913571D01*
X209032857Y-164027857D01*
X209004285Y-164085000D01*
X208975714Y-164113571D01*
X208918571Y-164142142D01*
D11*
%TO.C,J1*%
X167402380Y-127266666D02*
X168116666Y-127266666D01*
X168259523Y-127219047D01*
X168354761Y-127123809D01*
X168402380Y-126980952D01*
X168402380Y-126885714D01*
X168402380Y-128266666D02*
X168402380Y-127695238D01*
X168402380Y-127980952D02*
X167402380Y-127980952D01*
X167545238Y-127885714D01*
X167640476Y-127790476D01*
X167688095Y-127695238D01*
D12*
%TO.C,C25*%
X233204285Y-120754285D02*
X233232857Y-120725714D01*
X233261428Y-120640000D01*
X233261428Y-120582857D01*
X233232857Y-120497142D01*
X233175714Y-120440000D01*
X233118571Y-120411428D01*
X233004285Y-120382857D01*
X232918571Y-120382857D01*
X232804285Y-120411428D01*
X232747142Y-120440000D01*
X232690000Y-120497142D01*
X232661428Y-120582857D01*
X232661428Y-120640000D01*
X232690000Y-120725714D01*
X232718571Y-120754285D01*
X232718571Y-120982857D02*
X232690000Y-121011428D01*
X232661428Y-121068571D01*
X232661428Y-121211428D01*
X232690000Y-121268571D01*
X232718571Y-121297142D01*
X232775714Y-121325714D01*
X232832857Y-121325714D01*
X232918571Y-121297142D01*
X233261428Y-120954285D01*
X233261428Y-121325714D01*
X232661428Y-121868571D02*
X232661428Y-121582857D01*
X232947142Y-121554285D01*
X232918571Y-121582857D01*
X232890000Y-121640000D01*
X232890000Y-121782857D01*
X232918571Y-121840000D01*
X232947142Y-121868571D01*
X233004285Y-121897142D01*
X233147142Y-121897142D01*
X233204285Y-121868571D01*
X233232857Y-121840000D01*
X233261428Y-121782857D01*
X233261428Y-121640000D01*
X233232857Y-121582857D01*
X233204285Y-121554285D01*
D11*
%TO.C,Q1*%
X171222619Y-152879761D02*
X171175000Y-152784523D01*
X171079761Y-152689285D01*
X170936904Y-152546428D01*
X170889285Y-152451190D01*
X170889285Y-152355952D01*
X171127380Y-152403571D02*
X171079761Y-152308333D01*
X170984523Y-152213095D01*
X170794047Y-152165476D01*
X170460714Y-152165476D01*
X170270238Y-152213095D01*
X170175000Y-152308333D01*
X170127380Y-152403571D01*
X170127380Y-152594047D01*
X170175000Y-152689285D01*
X170270238Y-152784523D01*
X170460714Y-152832142D01*
X170794047Y-152832142D01*
X170984523Y-152784523D01*
X171079761Y-152689285D01*
X171127380Y-152594047D01*
X171127380Y-152403571D01*
X171127380Y-153784523D02*
X171127380Y-153213095D01*
X171127380Y-153498809D02*
X170127380Y-153498809D01*
X170270238Y-153403571D01*
X170365476Y-153308333D01*
X170413095Y-153213095D01*
%TO.C,U12*%
X227488095Y-127107380D02*
X227488095Y-127916904D01*
X227440476Y-128012142D01*
X227392857Y-128059761D01*
X227297619Y-128107380D01*
X227107142Y-128107380D01*
X227011904Y-128059761D01*
X226964285Y-128012142D01*
X226916666Y-127916904D01*
X226916666Y-127107380D01*
X225916666Y-128107380D02*
X226488095Y-128107380D01*
X226202380Y-128107380D02*
X226202380Y-127107380D01*
X226297619Y-127250238D01*
X226392857Y-127345476D01*
X226488095Y-127393095D01*
X225535714Y-127202619D02*
X225488095Y-127155000D01*
X225392857Y-127107380D01*
X225154761Y-127107380D01*
X225059523Y-127155000D01*
X225011904Y-127202619D01*
X224964285Y-127297857D01*
X224964285Y-127393095D01*
X225011904Y-127535952D01*
X225583333Y-128107380D01*
X224964285Y-128107380D01*
%TO.C,Q10*%
X190178095Y-108842857D02*
X190140000Y-108766666D01*
X190063809Y-108690476D01*
X189949523Y-108576190D01*
X189911428Y-108500000D01*
X189911428Y-108423809D01*
X190101904Y-108461904D02*
X190063809Y-108385714D01*
X189987619Y-108309523D01*
X189835238Y-108271428D01*
X189568571Y-108271428D01*
X189416190Y-108309523D01*
X189340000Y-108385714D01*
X189301904Y-108461904D01*
X189301904Y-108614285D01*
X189340000Y-108690476D01*
X189416190Y-108766666D01*
X189568571Y-108804761D01*
X189835238Y-108804761D01*
X189987619Y-108766666D01*
X190063809Y-108690476D01*
X190101904Y-108614285D01*
X190101904Y-108461904D01*
X190101904Y-109566666D02*
X190101904Y-109109523D01*
X190101904Y-109338095D02*
X189301904Y-109338095D01*
X189416190Y-109261904D01*
X189492380Y-109185714D01*
X189530476Y-109109523D01*
X189301904Y-110061904D02*
X189301904Y-110138095D01*
X189340000Y-110214285D01*
X189378095Y-110252380D01*
X189454285Y-110290476D01*
X189606666Y-110328571D01*
X189797142Y-110328571D01*
X189949523Y-110290476D01*
X190025714Y-110252380D01*
X190063809Y-110214285D01*
X190101904Y-110138095D01*
X190101904Y-110061904D01*
X190063809Y-109985714D01*
X190025714Y-109947619D01*
X189949523Y-109909523D01*
X189797142Y-109871428D01*
X189606666Y-109871428D01*
X189454285Y-109909523D01*
X189378095Y-109947619D01*
X189340000Y-109985714D01*
X189301904Y-110061904D01*
D12*
%TO.C,R28*%
X194265714Y-116671428D02*
X194465714Y-116385714D01*
X194608571Y-116671428D02*
X194608571Y-116071428D01*
X194380000Y-116071428D01*
X194322857Y-116100000D01*
X194294285Y-116128571D01*
X194265714Y-116185714D01*
X194265714Y-116271428D01*
X194294285Y-116328571D01*
X194322857Y-116357142D01*
X194380000Y-116385714D01*
X194608571Y-116385714D01*
X194037142Y-116128571D02*
X194008571Y-116100000D01*
X193951428Y-116071428D01*
X193808571Y-116071428D01*
X193751428Y-116100000D01*
X193722857Y-116128571D01*
X193694285Y-116185714D01*
X193694285Y-116242857D01*
X193722857Y-116328571D01*
X194065714Y-116671428D01*
X193694285Y-116671428D01*
X193351428Y-116328571D02*
X193408571Y-116300000D01*
X193437142Y-116271428D01*
X193465714Y-116214285D01*
X193465714Y-116185714D01*
X193437142Y-116128571D01*
X193408571Y-116100000D01*
X193351428Y-116071428D01*
X193237142Y-116071428D01*
X193180000Y-116100000D01*
X193151428Y-116128571D01*
X193122857Y-116185714D01*
X193122857Y-116214285D01*
X193151428Y-116271428D01*
X193180000Y-116300000D01*
X193237142Y-116328571D01*
X193351428Y-116328571D01*
X193408571Y-116357142D01*
X193437142Y-116385714D01*
X193465714Y-116442857D01*
X193465714Y-116557142D01*
X193437142Y-116614285D01*
X193408571Y-116642857D01*
X193351428Y-116671428D01*
X193237142Y-116671428D01*
X193180000Y-116642857D01*
X193151428Y-116614285D01*
X193122857Y-116557142D01*
X193122857Y-116442857D01*
X193151428Y-116385714D01*
X193180000Y-116357142D01*
X193237142Y-116328571D01*
D11*
%TO.C,Q13*%
X199188095Y-161732857D02*
X199150000Y-161656666D01*
X199073809Y-161580476D01*
X198959523Y-161466190D01*
X198921428Y-161390000D01*
X198921428Y-161313809D01*
X199111904Y-161351904D02*
X199073809Y-161275714D01*
X198997619Y-161199523D01*
X198845238Y-161161428D01*
X198578571Y-161161428D01*
X198426190Y-161199523D01*
X198350000Y-161275714D01*
X198311904Y-161351904D01*
X198311904Y-161504285D01*
X198350000Y-161580476D01*
X198426190Y-161656666D01*
X198578571Y-161694761D01*
X198845238Y-161694761D01*
X198997619Y-161656666D01*
X199073809Y-161580476D01*
X199111904Y-161504285D01*
X199111904Y-161351904D01*
X199111904Y-162456666D02*
X199111904Y-161999523D01*
X199111904Y-162228095D02*
X198311904Y-162228095D01*
X198426190Y-162151904D01*
X198502380Y-162075714D01*
X198540476Y-161999523D01*
X198311904Y-162723333D02*
X198311904Y-163218571D01*
X198616666Y-162951904D01*
X198616666Y-163066190D01*
X198654761Y-163142380D01*
X198692857Y-163180476D01*
X198769047Y-163218571D01*
X198959523Y-163218571D01*
X199035714Y-163180476D01*
X199073809Y-163142380D01*
X199111904Y-163066190D01*
X199111904Y-162837619D01*
X199073809Y-162761428D01*
X199035714Y-162723333D01*
D12*
%TO.C,R44*%
X209785714Y-117645178D02*
X209985714Y-117359464D01*
X210128571Y-117645178D02*
X210128571Y-117045178D01*
X209900000Y-117045178D01*
X209842857Y-117073750D01*
X209814285Y-117102321D01*
X209785714Y-117159464D01*
X209785714Y-117245178D01*
X209814285Y-117302321D01*
X209842857Y-117330892D01*
X209900000Y-117359464D01*
X210128571Y-117359464D01*
X209271428Y-117245178D02*
X209271428Y-117645178D01*
X209414285Y-117016607D02*
X209557142Y-117445178D01*
X209185714Y-117445178D01*
X208700000Y-117245178D02*
X208700000Y-117645178D01*
X208842857Y-117016607D02*
X208985714Y-117445178D01*
X208614285Y-117445178D01*
%TO.C,R10*%
X190715714Y-175271428D02*
X190915714Y-174985714D01*
X191058571Y-175271428D02*
X191058571Y-174671428D01*
X190830000Y-174671428D01*
X190772857Y-174700000D01*
X190744285Y-174728571D01*
X190715714Y-174785714D01*
X190715714Y-174871428D01*
X190744285Y-174928571D01*
X190772857Y-174957142D01*
X190830000Y-174985714D01*
X191058571Y-174985714D01*
X190144285Y-175271428D02*
X190487142Y-175271428D01*
X190315714Y-175271428D02*
X190315714Y-174671428D01*
X190372857Y-174757142D01*
X190430000Y-174814285D01*
X190487142Y-174842857D01*
X189772857Y-174671428D02*
X189715714Y-174671428D01*
X189658571Y-174700000D01*
X189630000Y-174728571D01*
X189601428Y-174785714D01*
X189572857Y-174900000D01*
X189572857Y-175042857D01*
X189601428Y-175157142D01*
X189630000Y-175214285D01*
X189658571Y-175242857D01*
X189715714Y-175271428D01*
X189772857Y-175271428D01*
X189830000Y-175242857D01*
X189858571Y-175214285D01*
X189887142Y-175157142D01*
X189915714Y-175042857D01*
X189915714Y-174900000D01*
X189887142Y-174785714D01*
X189858571Y-174728571D01*
X189830000Y-174700000D01*
X189772857Y-174671428D01*
%TO.C,R55*%
X191046428Y-112989285D02*
X190760714Y-112789285D01*
X191046428Y-112646428D02*
X190446428Y-112646428D01*
X190446428Y-112875000D01*
X190475000Y-112932142D01*
X190503571Y-112960714D01*
X190560714Y-112989285D01*
X190646428Y-112989285D01*
X190703571Y-112960714D01*
X190732142Y-112932142D01*
X190760714Y-112875000D01*
X190760714Y-112646428D01*
X190446428Y-113532142D02*
X190446428Y-113246428D01*
X190732142Y-113217857D01*
X190703571Y-113246428D01*
X190675000Y-113303571D01*
X190675000Y-113446428D01*
X190703571Y-113503571D01*
X190732142Y-113532142D01*
X190789285Y-113560714D01*
X190932142Y-113560714D01*
X190989285Y-113532142D01*
X191017857Y-113503571D01*
X191046428Y-113446428D01*
X191046428Y-113303571D01*
X191017857Y-113246428D01*
X190989285Y-113217857D01*
X190446428Y-114103571D02*
X190446428Y-113817857D01*
X190732142Y-113789285D01*
X190703571Y-113817857D01*
X190675000Y-113875000D01*
X190675000Y-114017857D01*
X190703571Y-114075000D01*
X190732142Y-114103571D01*
X190789285Y-114132142D01*
X190932142Y-114132142D01*
X190989285Y-114103571D01*
X191017857Y-114075000D01*
X191046428Y-114017857D01*
X191046428Y-113875000D01*
X191017857Y-113817857D01*
X190989285Y-113789285D01*
D13*
%TO.C,U2*%
X185217619Y-172004523D02*
X185217619Y-173032619D01*
X185157142Y-173153571D01*
X185096666Y-173214047D01*
X184975714Y-173274523D01*
X184733809Y-173274523D01*
X184612857Y-173214047D01*
X184552380Y-173153571D01*
X184491904Y-173032619D01*
X184491904Y-172004523D01*
X183947619Y-172125476D02*
X183887142Y-172065000D01*
X183766190Y-172004523D01*
X183463809Y-172004523D01*
X183342857Y-172065000D01*
X183282380Y-172125476D01*
X183221904Y-172246428D01*
X183221904Y-172367380D01*
X183282380Y-172548809D01*
X184008095Y-173274523D01*
X183221904Y-173274523D01*
D12*
%TO.C,R7*%
X181450000Y-178031428D02*
X181650000Y-177745714D01*
X181792857Y-178031428D02*
X181792857Y-177431428D01*
X181564285Y-177431428D01*
X181507142Y-177460000D01*
X181478571Y-177488571D01*
X181450000Y-177545714D01*
X181450000Y-177631428D01*
X181478571Y-177688571D01*
X181507142Y-177717142D01*
X181564285Y-177745714D01*
X181792857Y-177745714D01*
X181250000Y-177431428D02*
X180850000Y-177431428D01*
X181107142Y-178031428D01*
D11*
%TO.C,D9*%
X207018095Y-116406130D02*
X207018095Y-115406130D01*
X206780000Y-115406130D01*
X206637142Y-115453750D01*
X206541904Y-115548988D01*
X206494285Y-115644226D01*
X206446666Y-115834702D01*
X206446666Y-115977559D01*
X206494285Y-116168035D01*
X206541904Y-116263273D01*
X206637142Y-116358511D01*
X206780000Y-116406130D01*
X207018095Y-116406130D01*
X205970476Y-116406130D02*
X205780000Y-116406130D01*
X205684761Y-116358511D01*
X205637142Y-116310892D01*
X205541904Y-116168035D01*
X205494285Y-115977559D01*
X205494285Y-115596607D01*
X205541904Y-115501369D01*
X205589523Y-115453750D01*
X205684761Y-115406130D01*
X205875238Y-115406130D01*
X205970476Y-115453750D01*
X206018095Y-115501369D01*
X206065714Y-115596607D01*
X206065714Y-115834702D01*
X206018095Y-115929940D01*
X205970476Y-115977559D01*
X205875238Y-116025178D01*
X205684761Y-116025178D01*
X205589523Y-115977559D01*
X205541904Y-115929940D01*
X205494285Y-115834702D01*
D12*
%TO.C,R12*%
X194325714Y-172461428D02*
X194525714Y-172175714D01*
X194668571Y-172461428D02*
X194668571Y-171861428D01*
X194440000Y-171861428D01*
X194382857Y-171890000D01*
X194354285Y-171918571D01*
X194325714Y-171975714D01*
X194325714Y-172061428D01*
X194354285Y-172118571D01*
X194382857Y-172147142D01*
X194440000Y-172175714D01*
X194668571Y-172175714D01*
X193754285Y-172461428D02*
X194097142Y-172461428D01*
X193925714Y-172461428D02*
X193925714Y-171861428D01*
X193982857Y-171947142D01*
X194040000Y-172004285D01*
X194097142Y-172032857D01*
X193525714Y-171918571D02*
X193497142Y-171890000D01*
X193440000Y-171861428D01*
X193297142Y-171861428D01*
X193240000Y-171890000D01*
X193211428Y-171918571D01*
X193182857Y-171975714D01*
X193182857Y-172032857D01*
X193211428Y-172118571D01*
X193554285Y-172461428D01*
X193182857Y-172461428D01*
D11*
%TO.C,C28*%
X249112142Y-120167142D02*
X249159761Y-120119523D01*
X249207380Y-119976666D01*
X249207380Y-119881428D01*
X249159761Y-119738571D01*
X249064523Y-119643333D01*
X248969285Y-119595714D01*
X248778809Y-119548095D01*
X248635952Y-119548095D01*
X248445476Y-119595714D01*
X248350238Y-119643333D01*
X248255000Y-119738571D01*
X248207380Y-119881428D01*
X248207380Y-119976666D01*
X248255000Y-120119523D01*
X248302619Y-120167142D01*
X248302619Y-120548095D02*
X248255000Y-120595714D01*
X248207380Y-120690952D01*
X248207380Y-120929047D01*
X248255000Y-121024285D01*
X248302619Y-121071904D01*
X248397857Y-121119523D01*
X248493095Y-121119523D01*
X248635952Y-121071904D01*
X249207380Y-120500476D01*
X249207380Y-121119523D01*
X248635952Y-121690952D02*
X248588333Y-121595714D01*
X248540714Y-121548095D01*
X248445476Y-121500476D01*
X248397857Y-121500476D01*
X248302619Y-121548095D01*
X248255000Y-121595714D01*
X248207380Y-121690952D01*
X248207380Y-121881428D01*
X248255000Y-121976666D01*
X248302619Y-122024285D01*
X248397857Y-122071904D01*
X248445476Y-122071904D01*
X248540714Y-122024285D01*
X248588333Y-121976666D01*
X248635952Y-121881428D01*
X248635952Y-121690952D01*
X248683571Y-121595714D01*
X248731190Y-121548095D01*
X248826428Y-121500476D01*
X249016904Y-121500476D01*
X249112142Y-121548095D01*
X249159761Y-121595714D01*
X249207380Y-121690952D01*
X249207380Y-121881428D01*
X249159761Y-121976666D01*
X249112142Y-122024285D01*
X249016904Y-122071904D01*
X248826428Y-122071904D01*
X248731190Y-122024285D01*
X248683571Y-121976666D01*
X248635952Y-121881428D01*
%TO.C,U7*%
X214646904Y-127407380D02*
X214646904Y-128216904D01*
X214599285Y-128312142D01*
X214551666Y-128359761D01*
X214456428Y-128407380D01*
X214265952Y-128407380D01*
X214170714Y-128359761D01*
X214123095Y-128312142D01*
X214075476Y-128216904D01*
X214075476Y-127407380D01*
X213694523Y-127407380D02*
X213027857Y-127407380D01*
X213456428Y-128407380D01*
D12*
%TO.C,R19*%
X173021428Y-144414285D02*
X172735714Y-144214285D01*
X173021428Y-144071428D02*
X172421428Y-144071428D01*
X172421428Y-144300000D01*
X172450000Y-144357142D01*
X172478571Y-144385714D01*
X172535714Y-144414285D01*
X172621428Y-144414285D01*
X172678571Y-144385714D01*
X172707142Y-144357142D01*
X172735714Y-144300000D01*
X172735714Y-144071428D01*
X173021428Y-144985714D02*
X173021428Y-144642857D01*
X173021428Y-144814285D02*
X172421428Y-144814285D01*
X172507142Y-144757142D01*
X172564285Y-144700000D01*
X172592857Y-144642857D01*
X173021428Y-145271428D02*
X173021428Y-145385714D01*
X172992857Y-145442857D01*
X172964285Y-145471428D01*
X172878571Y-145528571D01*
X172764285Y-145557142D01*
X172535714Y-145557142D01*
X172478571Y-145528571D01*
X172450000Y-145500000D01*
X172421428Y-145442857D01*
X172421428Y-145328571D01*
X172450000Y-145271428D01*
X172478571Y-145242857D01*
X172535714Y-145214285D01*
X172678571Y-145214285D01*
X172735714Y-145242857D01*
X172764285Y-145271428D01*
X172792857Y-145328571D01*
X172792857Y-145442857D01*
X172764285Y-145500000D01*
X172735714Y-145528571D01*
X172678571Y-145557142D01*
D11*
%TO.C,C2*%
X165132142Y-153308333D02*
X165179761Y-153260714D01*
X165227380Y-153117857D01*
X165227380Y-153022619D01*
X165179761Y-152879761D01*
X165084523Y-152784523D01*
X164989285Y-152736904D01*
X164798809Y-152689285D01*
X164655952Y-152689285D01*
X164465476Y-152736904D01*
X164370238Y-152784523D01*
X164275000Y-152879761D01*
X164227380Y-153022619D01*
X164227380Y-153117857D01*
X164275000Y-153260714D01*
X164322619Y-153308333D01*
X164322619Y-153689285D02*
X164275000Y-153736904D01*
X164227380Y-153832142D01*
X164227380Y-154070238D01*
X164275000Y-154165476D01*
X164322619Y-154213095D01*
X164417857Y-154260714D01*
X164513095Y-154260714D01*
X164655952Y-154213095D01*
X165227380Y-153641666D01*
X165227380Y-154260714D01*
%TO.C,C33*%
X182117857Y-157382142D02*
X182165476Y-157429761D01*
X182308333Y-157477380D01*
X182403571Y-157477380D01*
X182546428Y-157429761D01*
X182641666Y-157334523D01*
X182689285Y-157239285D01*
X182736904Y-157048809D01*
X182736904Y-156905952D01*
X182689285Y-156715476D01*
X182641666Y-156620238D01*
X182546428Y-156525000D01*
X182403571Y-156477380D01*
X182308333Y-156477380D01*
X182165476Y-156525000D01*
X182117857Y-156572619D01*
X181784523Y-156477380D02*
X181165476Y-156477380D01*
X181498809Y-156858333D01*
X181355952Y-156858333D01*
X181260714Y-156905952D01*
X181213095Y-156953571D01*
X181165476Y-157048809D01*
X181165476Y-157286904D01*
X181213095Y-157382142D01*
X181260714Y-157429761D01*
X181355952Y-157477380D01*
X181641666Y-157477380D01*
X181736904Y-157429761D01*
X181784523Y-157382142D01*
X180832142Y-156477380D02*
X180213095Y-156477380D01*
X180546428Y-156858333D01*
X180403571Y-156858333D01*
X180308333Y-156905952D01*
X180260714Y-156953571D01*
X180213095Y-157048809D01*
X180213095Y-157286904D01*
X180260714Y-157382142D01*
X180308333Y-157429761D01*
X180403571Y-157477380D01*
X180689285Y-157477380D01*
X180784523Y-157429761D01*
X180832142Y-157382142D01*
%TO.C,C34*%
X176542857Y-150457142D02*
X176590476Y-150504761D01*
X176733333Y-150552380D01*
X176828571Y-150552380D01*
X176971428Y-150504761D01*
X177066666Y-150409523D01*
X177114285Y-150314285D01*
X177161904Y-150123809D01*
X177161904Y-149980952D01*
X177114285Y-149790476D01*
X177066666Y-149695238D01*
X176971428Y-149600000D01*
X176828571Y-149552380D01*
X176733333Y-149552380D01*
X176590476Y-149600000D01*
X176542857Y-149647619D01*
X176209523Y-149552380D02*
X175590476Y-149552380D01*
X175923809Y-149933333D01*
X175780952Y-149933333D01*
X175685714Y-149980952D01*
X175638095Y-150028571D01*
X175590476Y-150123809D01*
X175590476Y-150361904D01*
X175638095Y-150457142D01*
X175685714Y-150504761D01*
X175780952Y-150552380D01*
X176066666Y-150552380D01*
X176161904Y-150504761D01*
X176209523Y-150457142D01*
X174733333Y-149885714D02*
X174733333Y-150552380D01*
X174971428Y-149504761D02*
X175209523Y-150219047D01*
X174590476Y-150219047D01*
%TO.C,R68*%
X246927857Y-164772380D02*
X247261190Y-164296190D01*
X247499285Y-164772380D02*
X247499285Y-163772380D01*
X247118333Y-163772380D01*
X247023095Y-163820000D01*
X246975476Y-163867619D01*
X246927857Y-163962857D01*
X246927857Y-164105714D01*
X246975476Y-164200952D01*
X247023095Y-164248571D01*
X247118333Y-164296190D01*
X247499285Y-164296190D01*
X246070714Y-163772380D02*
X246261190Y-163772380D01*
X246356428Y-163820000D01*
X246404047Y-163867619D01*
X246499285Y-164010476D01*
X246546904Y-164200952D01*
X246546904Y-164581904D01*
X246499285Y-164677142D01*
X246451666Y-164724761D01*
X246356428Y-164772380D01*
X246165952Y-164772380D01*
X246070714Y-164724761D01*
X246023095Y-164677142D01*
X245975476Y-164581904D01*
X245975476Y-164343809D01*
X246023095Y-164248571D01*
X246070714Y-164200952D01*
X246165952Y-164153333D01*
X246356428Y-164153333D01*
X246451666Y-164200952D01*
X246499285Y-164248571D01*
X246546904Y-164343809D01*
X245404047Y-164200952D02*
X245499285Y-164153333D01*
X245546904Y-164105714D01*
X245594523Y-164010476D01*
X245594523Y-163962857D01*
X245546904Y-163867619D01*
X245499285Y-163820000D01*
X245404047Y-163772380D01*
X245213571Y-163772380D01*
X245118333Y-163820000D01*
X245070714Y-163867619D01*
X245023095Y-163962857D01*
X245023095Y-164010476D01*
X245070714Y-164105714D01*
X245118333Y-164153333D01*
X245213571Y-164200952D01*
X245404047Y-164200952D01*
X245499285Y-164248571D01*
X245546904Y-164296190D01*
X245594523Y-164391428D01*
X245594523Y-164581904D01*
X245546904Y-164677142D01*
X245499285Y-164724761D01*
X245404047Y-164772380D01*
X245213571Y-164772380D01*
X245118333Y-164724761D01*
X245070714Y-164677142D01*
X245023095Y-164581904D01*
X245023095Y-164391428D01*
X245070714Y-164296190D01*
X245118333Y-164248571D01*
X245213571Y-164200952D01*
%TO.C,Q14*%
X199138095Y-164712857D02*
X199100000Y-164636666D01*
X199023809Y-164560476D01*
X198909523Y-164446190D01*
X198871428Y-164370000D01*
X198871428Y-164293809D01*
X199061904Y-164331904D02*
X199023809Y-164255714D01*
X198947619Y-164179523D01*
X198795238Y-164141428D01*
X198528571Y-164141428D01*
X198376190Y-164179523D01*
X198300000Y-164255714D01*
X198261904Y-164331904D01*
X198261904Y-164484285D01*
X198300000Y-164560476D01*
X198376190Y-164636666D01*
X198528571Y-164674761D01*
X198795238Y-164674761D01*
X198947619Y-164636666D01*
X199023809Y-164560476D01*
X199061904Y-164484285D01*
X199061904Y-164331904D01*
X199061904Y-165436666D02*
X199061904Y-164979523D01*
X199061904Y-165208095D02*
X198261904Y-165208095D01*
X198376190Y-165131904D01*
X198452380Y-165055714D01*
X198490476Y-164979523D01*
X198528571Y-166122380D02*
X199061904Y-166122380D01*
X198223809Y-165931904D02*
X198795238Y-165741428D01*
X198795238Y-166236666D01*
%TO.C,D14*%
X244330285Y-164750380D02*
X244330285Y-163750380D01*
X244092190Y-163750380D01*
X243949333Y-163798000D01*
X243854095Y-163893238D01*
X243806476Y-163988476D01*
X243758857Y-164178952D01*
X243758857Y-164321809D01*
X243806476Y-164512285D01*
X243854095Y-164607523D01*
X243949333Y-164702761D01*
X244092190Y-164750380D01*
X244330285Y-164750380D01*
X242806476Y-164750380D02*
X243377904Y-164750380D01*
X243092190Y-164750380D02*
X243092190Y-163750380D01*
X243187428Y-163893238D01*
X243282666Y-163988476D01*
X243377904Y-164036095D01*
X241949333Y-164083714D02*
X241949333Y-164750380D01*
X242187428Y-163702761D02*
X242425523Y-164417047D01*
X241806476Y-164417047D01*
D12*
%TO.C,R63*%
X199961428Y-168854285D02*
X199675714Y-168654285D01*
X199961428Y-168511428D02*
X199361428Y-168511428D01*
X199361428Y-168740000D01*
X199390000Y-168797142D01*
X199418571Y-168825714D01*
X199475714Y-168854285D01*
X199561428Y-168854285D01*
X199618571Y-168825714D01*
X199647142Y-168797142D01*
X199675714Y-168740000D01*
X199675714Y-168511428D01*
X199361428Y-169368571D02*
X199361428Y-169254285D01*
X199390000Y-169197142D01*
X199418571Y-169168571D01*
X199504285Y-169111428D01*
X199618571Y-169082857D01*
X199847142Y-169082857D01*
X199904285Y-169111428D01*
X199932857Y-169140000D01*
X199961428Y-169197142D01*
X199961428Y-169311428D01*
X199932857Y-169368571D01*
X199904285Y-169397142D01*
X199847142Y-169425714D01*
X199704285Y-169425714D01*
X199647142Y-169397142D01*
X199618571Y-169368571D01*
X199590000Y-169311428D01*
X199590000Y-169197142D01*
X199618571Y-169140000D01*
X199647142Y-169111428D01*
X199704285Y-169082857D01*
X199361428Y-169625714D02*
X199361428Y-169997142D01*
X199590000Y-169797142D01*
X199590000Y-169882857D01*
X199618571Y-169940000D01*
X199647142Y-169968571D01*
X199704285Y-169997142D01*
X199847142Y-169997142D01*
X199904285Y-169968571D01*
X199932857Y-169940000D01*
X199961428Y-169882857D01*
X199961428Y-169711428D01*
X199932857Y-169654285D01*
X199904285Y-169625714D01*
D11*
%TO.C,Q7*%
X194547619Y-118779761D02*
X194500000Y-118684523D01*
X194404761Y-118589285D01*
X194261904Y-118446428D01*
X194214285Y-118351190D01*
X194214285Y-118255952D01*
X194452380Y-118303571D02*
X194404761Y-118208333D01*
X194309523Y-118113095D01*
X194119047Y-118065476D01*
X193785714Y-118065476D01*
X193595238Y-118113095D01*
X193500000Y-118208333D01*
X193452380Y-118303571D01*
X193452380Y-118494047D01*
X193500000Y-118589285D01*
X193595238Y-118684523D01*
X193785714Y-118732142D01*
X194119047Y-118732142D01*
X194309523Y-118684523D01*
X194404761Y-118589285D01*
X194452380Y-118494047D01*
X194452380Y-118303571D01*
X193452380Y-119065476D02*
X193452380Y-119732142D01*
X194452380Y-119303571D01*
D12*
%TO.C,R57*%
X193011428Y-101854285D02*
X192725714Y-101654285D01*
X193011428Y-101511428D02*
X192411428Y-101511428D01*
X192411428Y-101740000D01*
X192440000Y-101797142D01*
X192468571Y-101825714D01*
X192525714Y-101854285D01*
X192611428Y-101854285D01*
X192668571Y-101825714D01*
X192697142Y-101797142D01*
X192725714Y-101740000D01*
X192725714Y-101511428D01*
X192411428Y-102397142D02*
X192411428Y-102111428D01*
X192697142Y-102082857D01*
X192668571Y-102111428D01*
X192640000Y-102168571D01*
X192640000Y-102311428D01*
X192668571Y-102368571D01*
X192697142Y-102397142D01*
X192754285Y-102425714D01*
X192897142Y-102425714D01*
X192954285Y-102397142D01*
X192982857Y-102368571D01*
X193011428Y-102311428D01*
X193011428Y-102168571D01*
X192982857Y-102111428D01*
X192954285Y-102082857D01*
X192411428Y-102625714D02*
X192411428Y-103025714D01*
X193011428Y-102768571D01*
%TO.C,R60*%
X226425714Y-117621428D02*
X226625714Y-117335714D01*
X226768571Y-117621428D02*
X226768571Y-117021428D01*
X226540000Y-117021428D01*
X226482857Y-117050000D01*
X226454285Y-117078571D01*
X226425714Y-117135714D01*
X226425714Y-117221428D01*
X226454285Y-117278571D01*
X226482857Y-117307142D01*
X226540000Y-117335714D01*
X226768571Y-117335714D01*
X225911428Y-117021428D02*
X226025714Y-117021428D01*
X226082857Y-117050000D01*
X226111428Y-117078571D01*
X226168571Y-117164285D01*
X226197142Y-117278571D01*
X226197142Y-117507142D01*
X226168571Y-117564285D01*
X226140000Y-117592857D01*
X226082857Y-117621428D01*
X225968571Y-117621428D01*
X225911428Y-117592857D01*
X225882857Y-117564285D01*
X225854285Y-117507142D01*
X225854285Y-117364285D01*
X225882857Y-117307142D01*
X225911428Y-117278571D01*
X225968571Y-117250000D01*
X226082857Y-117250000D01*
X226140000Y-117278571D01*
X226168571Y-117307142D01*
X226197142Y-117364285D01*
X225482857Y-117021428D02*
X225425714Y-117021428D01*
X225368571Y-117050000D01*
X225340000Y-117078571D01*
X225311428Y-117135714D01*
X225282857Y-117250000D01*
X225282857Y-117392857D01*
X225311428Y-117507142D01*
X225340000Y-117564285D01*
X225368571Y-117592857D01*
X225425714Y-117621428D01*
X225482857Y-117621428D01*
X225540000Y-117592857D01*
X225568571Y-117564285D01*
X225597142Y-117507142D01*
X225625714Y-117392857D01*
X225625714Y-117250000D01*
X225597142Y-117135714D01*
X225568571Y-117078571D01*
X225540000Y-117050000D01*
X225482857Y-117021428D01*
%TO.C,C18*%
X203935714Y-137539285D02*
X203964285Y-137567857D01*
X204050000Y-137596428D01*
X204107142Y-137596428D01*
X204192857Y-137567857D01*
X204250000Y-137510714D01*
X204278571Y-137453571D01*
X204307142Y-137339285D01*
X204307142Y-137253571D01*
X204278571Y-137139285D01*
X204250000Y-137082142D01*
X204192857Y-137025000D01*
X204107142Y-136996428D01*
X204050000Y-136996428D01*
X203964285Y-137025000D01*
X203935714Y-137053571D01*
X203364285Y-137596428D02*
X203707142Y-137596428D01*
X203535714Y-137596428D02*
X203535714Y-136996428D01*
X203592857Y-137082142D01*
X203650000Y-137139285D01*
X203707142Y-137167857D01*
X203021428Y-137253571D02*
X203078571Y-137225000D01*
X203107142Y-137196428D01*
X203135714Y-137139285D01*
X203135714Y-137110714D01*
X203107142Y-137053571D01*
X203078571Y-137025000D01*
X203021428Y-136996428D01*
X202907142Y-136996428D01*
X202850000Y-137025000D01*
X202821428Y-137053571D01*
X202792857Y-137110714D01*
X202792857Y-137139285D01*
X202821428Y-137196428D01*
X202850000Y-137225000D01*
X202907142Y-137253571D01*
X203021428Y-137253571D01*
X203078571Y-137282142D01*
X203107142Y-137310714D01*
X203135714Y-137367857D01*
X203135714Y-137482142D01*
X203107142Y-137539285D01*
X203078571Y-137567857D01*
X203021428Y-137596428D01*
X202907142Y-137596428D01*
X202850000Y-137567857D01*
X202821428Y-137539285D01*
X202792857Y-137482142D01*
X202792857Y-137367857D01*
X202821428Y-137310714D01*
X202850000Y-137282142D01*
X202907142Y-137253571D01*
D11*
%TO.C,C38*%
X213942857Y-140457142D02*
X213990476Y-140504761D01*
X214133333Y-140552380D01*
X214228571Y-140552380D01*
X214371428Y-140504761D01*
X214466666Y-140409523D01*
X214514285Y-140314285D01*
X214561904Y-140123809D01*
X214561904Y-139980952D01*
X214514285Y-139790476D01*
X214466666Y-139695238D01*
X214371428Y-139600000D01*
X214228571Y-139552380D01*
X214133333Y-139552380D01*
X213990476Y-139600000D01*
X213942857Y-139647619D01*
X213609523Y-139552380D02*
X212990476Y-139552380D01*
X213323809Y-139933333D01*
X213180952Y-139933333D01*
X213085714Y-139980952D01*
X213038095Y-140028571D01*
X212990476Y-140123809D01*
X212990476Y-140361904D01*
X213038095Y-140457142D01*
X213085714Y-140504761D01*
X213180952Y-140552380D01*
X213466666Y-140552380D01*
X213561904Y-140504761D01*
X213609523Y-140457142D01*
X212419047Y-139980952D02*
X212514285Y-139933333D01*
X212561904Y-139885714D01*
X212609523Y-139790476D01*
X212609523Y-139742857D01*
X212561904Y-139647619D01*
X212514285Y-139600000D01*
X212419047Y-139552380D01*
X212228571Y-139552380D01*
X212133333Y-139600000D01*
X212085714Y-139647619D01*
X212038095Y-139742857D01*
X212038095Y-139790476D01*
X212085714Y-139885714D01*
X212133333Y-139933333D01*
X212228571Y-139980952D01*
X212419047Y-139980952D01*
X212514285Y-140028571D01*
X212561904Y-140076190D01*
X212609523Y-140171428D01*
X212609523Y-140361904D01*
X212561904Y-140457142D01*
X212514285Y-140504761D01*
X212419047Y-140552380D01*
X212228571Y-140552380D01*
X212133333Y-140504761D01*
X212085714Y-140457142D01*
X212038095Y-140361904D01*
X212038095Y-140171428D01*
X212085714Y-140076190D01*
X212133333Y-140028571D01*
X212228571Y-139980952D01*
D12*
%TO.C,R4*%
X172821428Y-150350000D02*
X172535714Y-150150000D01*
X172821428Y-150007142D02*
X172221428Y-150007142D01*
X172221428Y-150235714D01*
X172250000Y-150292857D01*
X172278571Y-150321428D01*
X172335714Y-150350000D01*
X172421428Y-150350000D01*
X172478571Y-150321428D01*
X172507142Y-150292857D01*
X172535714Y-150235714D01*
X172535714Y-150007142D01*
X172421428Y-150864285D02*
X172821428Y-150864285D01*
X172192857Y-150721428D02*
X172621428Y-150578571D01*
X172621428Y-150950000D01*
%TO.C,R20*%
X171641428Y-144374285D02*
X171355714Y-144174285D01*
X171641428Y-144031428D02*
X171041428Y-144031428D01*
X171041428Y-144260000D01*
X171070000Y-144317142D01*
X171098571Y-144345714D01*
X171155714Y-144374285D01*
X171241428Y-144374285D01*
X171298571Y-144345714D01*
X171327142Y-144317142D01*
X171355714Y-144260000D01*
X171355714Y-144031428D01*
X171098571Y-144602857D02*
X171070000Y-144631428D01*
X171041428Y-144688571D01*
X171041428Y-144831428D01*
X171070000Y-144888571D01*
X171098571Y-144917142D01*
X171155714Y-144945714D01*
X171212857Y-144945714D01*
X171298571Y-144917142D01*
X171641428Y-144574285D01*
X171641428Y-144945714D01*
X171041428Y-145317142D02*
X171041428Y-145374285D01*
X171070000Y-145431428D01*
X171098571Y-145460000D01*
X171155714Y-145488571D01*
X171270000Y-145517142D01*
X171412857Y-145517142D01*
X171527142Y-145488571D01*
X171584285Y-145460000D01*
X171612857Y-145431428D01*
X171641428Y-145374285D01*
X171641428Y-145317142D01*
X171612857Y-145260000D01*
X171584285Y-145231428D01*
X171527142Y-145202857D01*
X171412857Y-145174285D01*
X171270000Y-145174285D01*
X171155714Y-145202857D01*
X171098571Y-145231428D01*
X171070000Y-145260000D01*
X171041428Y-145317142D01*
%TO.C,R32*%
X227175714Y-153776428D02*
X227375714Y-153490714D01*
X227518571Y-153776428D02*
X227518571Y-153176428D01*
X227290000Y-153176428D01*
X227232857Y-153205000D01*
X227204285Y-153233571D01*
X227175714Y-153290714D01*
X227175714Y-153376428D01*
X227204285Y-153433571D01*
X227232857Y-153462142D01*
X227290000Y-153490714D01*
X227518571Y-153490714D01*
X226975714Y-153176428D02*
X226604285Y-153176428D01*
X226804285Y-153405000D01*
X226718571Y-153405000D01*
X226661428Y-153433571D01*
X226632857Y-153462142D01*
X226604285Y-153519285D01*
X226604285Y-153662142D01*
X226632857Y-153719285D01*
X226661428Y-153747857D01*
X226718571Y-153776428D01*
X226890000Y-153776428D01*
X226947142Y-153747857D01*
X226975714Y-153719285D01*
X226375714Y-153233571D02*
X226347142Y-153205000D01*
X226290000Y-153176428D01*
X226147142Y-153176428D01*
X226090000Y-153205000D01*
X226061428Y-153233571D01*
X226032857Y-153290714D01*
X226032857Y-153347857D01*
X226061428Y-153433571D01*
X226404285Y-153776428D01*
X226032857Y-153776428D01*
%TO.C,R54*%
X194981428Y-113014285D02*
X194695714Y-112814285D01*
X194981428Y-112671428D02*
X194381428Y-112671428D01*
X194381428Y-112900000D01*
X194410000Y-112957142D01*
X194438571Y-112985714D01*
X194495714Y-113014285D01*
X194581428Y-113014285D01*
X194638571Y-112985714D01*
X194667142Y-112957142D01*
X194695714Y-112900000D01*
X194695714Y-112671428D01*
X194381428Y-113557142D02*
X194381428Y-113271428D01*
X194667142Y-113242857D01*
X194638571Y-113271428D01*
X194610000Y-113328571D01*
X194610000Y-113471428D01*
X194638571Y-113528571D01*
X194667142Y-113557142D01*
X194724285Y-113585714D01*
X194867142Y-113585714D01*
X194924285Y-113557142D01*
X194952857Y-113528571D01*
X194981428Y-113471428D01*
X194981428Y-113328571D01*
X194952857Y-113271428D01*
X194924285Y-113242857D01*
X194581428Y-114100000D02*
X194981428Y-114100000D01*
X194352857Y-113957142D02*
X194781428Y-113814285D01*
X194781428Y-114185714D01*
D11*
%TO.C,R27*%
X191067857Y-116972380D02*
X191401190Y-116496190D01*
X191639285Y-116972380D02*
X191639285Y-115972380D01*
X191258333Y-115972380D01*
X191163095Y-116020000D01*
X191115476Y-116067619D01*
X191067857Y-116162857D01*
X191067857Y-116305714D01*
X191115476Y-116400952D01*
X191163095Y-116448571D01*
X191258333Y-116496190D01*
X191639285Y-116496190D01*
X190686904Y-116067619D02*
X190639285Y-116020000D01*
X190544047Y-115972380D01*
X190305952Y-115972380D01*
X190210714Y-116020000D01*
X190163095Y-116067619D01*
X190115476Y-116162857D01*
X190115476Y-116258095D01*
X190163095Y-116400952D01*
X190734523Y-116972380D01*
X190115476Y-116972380D01*
X189782142Y-115972380D02*
X189115476Y-115972380D01*
X189544047Y-116972380D01*
D12*
%TO.C,R15*%
X185360714Y-157271428D02*
X185560714Y-156985714D01*
X185703571Y-157271428D02*
X185703571Y-156671428D01*
X185475000Y-156671428D01*
X185417857Y-156700000D01*
X185389285Y-156728571D01*
X185360714Y-156785714D01*
X185360714Y-156871428D01*
X185389285Y-156928571D01*
X185417857Y-156957142D01*
X185475000Y-156985714D01*
X185703571Y-156985714D01*
X184789285Y-157271428D02*
X185132142Y-157271428D01*
X184960714Y-157271428D02*
X184960714Y-156671428D01*
X185017857Y-156757142D01*
X185075000Y-156814285D01*
X185132142Y-156842857D01*
X184246428Y-156671428D02*
X184532142Y-156671428D01*
X184560714Y-156957142D01*
X184532142Y-156928571D01*
X184475000Y-156900000D01*
X184332142Y-156900000D01*
X184275000Y-156928571D01*
X184246428Y-156957142D01*
X184217857Y-157014285D01*
X184217857Y-157157142D01*
X184246428Y-157214285D01*
X184275000Y-157242857D01*
X184332142Y-157271428D01*
X184475000Y-157271428D01*
X184532142Y-157242857D01*
X184560714Y-157214285D01*
%TO.C,R26*%
X190685714Y-119396428D02*
X190885714Y-119110714D01*
X191028571Y-119396428D02*
X191028571Y-118796428D01*
X190800000Y-118796428D01*
X190742857Y-118825000D01*
X190714285Y-118853571D01*
X190685714Y-118910714D01*
X190685714Y-118996428D01*
X190714285Y-119053571D01*
X190742857Y-119082142D01*
X190800000Y-119110714D01*
X191028571Y-119110714D01*
X190457142Y-118853571D02*
X190428571Y-118825000D01*
X190371428Y-118796428D01*
X190228571Y-118796428D01*
X190171428Y-118825000D01*
X190142857Y-118853571D01*
X190114285Y-118910714D01*
X190114285Y-118967857D01*
X190142857Y-119053571D01*
X190485714Y-119396428D01*
X190114285Y-119396428D01*
X189600000Y-118796428D02*
X189714285Y-118796428D01*
X189771428Y-118825000D01*
X189800000Y-118853571D01*
X189857142Y-118939285D01*
X189885714Y-119053571D01*
X189885714Y-119282142D01*
X189857142Y-119339285D01*
X189828571Y-119367857D01*
X189771428Y-119396428D01*
X189657142Y-119396428D01*
X189600000Y-119367857D01*
X189571428Y-119339285D01*
X189542857Y-119282142D01*
X189542857Y-119139285D01*
X189571428Y-119082142D01*
X189600000Y-119053571D01*
X189657142Y-119025000D01*
X189771428Y-119025000D01*
X189828571Y-119053571D01*
X189857142Y-119082142D01*
X189885714Y-119139285D01*
%TO.C,R61*%
X226435714Y-116231428D02*
X226635714Y-115945714D01*
X226778571Y-116231428D02*
X226778571Y-115631428D01*
X226550000Y-115631428D01*
X226492857Y-115660000D01*
X226464285Y-115688571D01*
X226435714Y-115745714D01*
X226435714Y-115831428D01*
X226464285Y-115888571D01*
X226492857Y-115917142D01*
X226550000Y-115945714D01*
X226778571Y-115945714D01*
X225921428Y-115631428D02*
X226035714Y-115631428D01*
X226092857Y-115660000D01*
X226121428Y-115688571D01*
X226178571Y-115774285D01*
X226207142Y-115888571D01*
X226207142Y-116117142D01*
X226178571Y-116174285D01*
X226150000Y-116202857D01*
X226092857Y-116231428D01*
X225978571Y-116231428D01*
X225921428Y-116202857D01*
X225892857Y-116174285D01*
X225864285Y-116117142D01*
X225864285Y-115974285D01*
X225892857Y-115917142D01*
X225921428Y-115888571D01*
X225978571Y-115860000D01*
X226092857Y-115860000D01*
X226150000Y-115888571D01*
X226178571Y-115917142D01*
X226207142Y-115974285D01*
X225292857Y-116231428D02*
X225635714Y-116231428D01*
X225464285Y-116231428D02*
X225464285Y-115631428D01*
X225521428Y-115717142D01*
X225578571Y-115774285D01*
X225635714Y-115802857D01*
D11*
%TO.C,U10*%
X243588095Y-127102380D02*
X243588095Y-127911904D01*
X243540476Y-128007142D01*
X243492857Y-128054761D01*
X243397619Y-128102380D01*
X243207142Y-128102380D01*
X243111904Y-128054761D01*
X243064285Y-128007142D01*
X243016666Y-127911904D01*
X243016666Y-127102380D01*
X242016666Y-128102380D02*
X242588095Y-128102380D01*
X242302380Y-128102380D02*
X242302380Y-127102380D01*
X242397619Y-127245238D01*
X242492857Y-127340476D01*
X242588095Y-127388095D01*
X241397619Y-127102380D02*
X241302380Y-127102380D01*
X241207142Y-127150000D01*
X241159523Y-127197619D01*
X241111904Y-127292857D01*
X241064285Y-127483333D01*
X241064285Y-127721428D01*
X241111904Y-127911904D01*
X241159523Y-128007142D01*
X241207142Y-128054761D01*
X241302380Y-128102380D01*
X241397619Y-128102380D01*
X241492857Y-128054761D01*
X241540476Y-128007142D01*
X241588095Y-127911904D01*
X241635714Y-127721428D01*
X241635714Y-127483333D01*
X241588095Y-127292857D01*
X241540476Y-127197619D01*
X241492857Y-127150000D01*
X241397619Y-127102380D01*
%TO.C,C27*%
X247442857Y-139257142D02*
X247490476Y-139304761D01*
X247633333Y-139352380D01*
X247728571Y-139352380D01*
X247871428Y-139304761D01*
X247966666Y-139209523D01*
X248014285Y-139114285D01*
X248061904Y-138923809D01*
X248061904Y-138780952D01*
X248014285Y-138590476D01*
X247966666Y-138495238D01*
X247871428Y-138400000D01*
X247728571Y-138352380D01*
X247633333Y-138352380D01*
X247490476Y-138400000D01*
X247442857Y-138447619D01*
X247061904Y-138447619D02*
X247014285Y-138400000D01*
X246919047Y-138352380D01*
X246680952Y-138352380D01*
X246585714Y-138400000D01*
X246538095Y-138447619D01*
X246490476Y-138542857D01*
X246490476Y-138638095D01*
X246538095Y-138780952D01*
X247109523Y-139352380D01*
X246490476Y-139352380D01*
X246157142Y-138352380D02*
X245490476Y-138352380D01*
X245919047Y-139352380D01*
%TO.C,C4*%
X187326666Y-178127142D02*
X187374285Y-178174761D01*
X187517142Y-178222380D01*
X187612380Y-178222380D01*
X187755238Y-178174761D01*
X187850476Y-178079523D01*
X187898095Y-177984285D01*
X187945714Y-177793809D01*
X187945714Y-177650952D01*
X187898095Y-177460476D01*
X187850476Y-177365238D01*
X187755238Y-177270000D01*
X187612380Y-177222380D01*
X187517142Y-177222380D01*
X187374285Y-177270000D01*
X187326666Y-177317619D01*
X186469523Y-177555714D02*
X186469523Y-178222380D01*
X186707619Y-177174761D02*
X186945714Y-177889047D01*
X186326666Y-177889047D01*
D12*
%TO.C,R67*%
X235885714Y-116261428D02*
X236085714Y-115975714D01*
X236228571Y-116261428D02*
X236228571Y-115661428D01*
X236000000Y-115661428D01*
X235942857Y-115690000D01*
X235914285Y-115718571D01*
X235885714Y-115775714D01*
X235885714Y-115861428D01*
X235914285Y-115918571D01*
X235942857Y-115947142D01*
X236000000Y-115975714D01*
X236228571Y-115975714D01*
X235371428Y-115661428D02*
X235485714Y-115661428D01*
X235542857Y-115690000D01*
X235571428Y-115718571D01*
X235628571Y-115804285D01*
X235657142Y-115918571D01*
X235657142Y-116147142D01*
X235628571Y-116204285D01*
X235600000Y-116232857D01*
X235542857Y-116261428D01*
X235428571Y-116261428D01*
X235371428Y-116232857D01*
X235342857Y-116204285D01*
X235314285Y-116147142D01*
X235314285Y-116004285D01*
X235342857Y-115947142D01*
X235371428Y-115918571D01*
X235428571Y-115890000D01*
X235542857Y-115890000D01*
X235600000Y-115918571D01*
X235628571Y-115947142D01*
X235657142Y-116004285D01*
X235114285Y-115661428D02*
X234714285Y-115661428D01*
X234971428Y-116261428D01*
D13*
%TO.C,U3*%
X185217619Y-116429523D02*
X185217619Y-117457619D01*
X185157142Y-117578571D01*
X185096666Y-117639047D01*
X184975714Y-117699523D01*
X184733809Y-117699523D01*
X184612857Y-117639047D01*
X184552380Y-117578571D01*
X184491904Y-117457619D01*
X184491904Y-116429523D01*
X184008095Y-116429523D02*
X183221904Y-116429523D01*
X183645238Y-116913333D01*
X183463809Y-116913333D01*
X183342857Y-116973809D01*
X183282380Y-117034285D01*
X183221904Y-117155238D01*
X183221904Y-117457619D01*
X183282380Y-117578571D01*
X183342857Y-117639047D01*
X183463809Y-117699523D01*
X183826666Y-117699523D01*
X183947619Y-117639047D01*
X184008095Y-117578571D01*
D12*
%TO.C,R3*%
X168311428Y-152875000D02*
X168025714Y-152675000D01*
X168311428Y-152532142D02*
X167711428Y-152532142D01*
X167711428Y-152760714D01*
X167740000Y-152817857D01*
X167768571Y-152846428D01*
X167825714Y-152875000D01*
X167911428Y-152875000D01*
X167968571Y-152846428D01*
X167997142Y-152817857D01*
X168025714Y-152760714D01*
X168025714Y-152532142D01*
X167711428Y-153075000D02*
X167711428Y-153446428D01*
X167940000Y-153246428D01*
X167940000Y-153332142D01*
X167968571Y-153389285D01*
X167997142Y-153417857D01*
X168054285Y-153446428D01*
X168197142Y-153446428D01*
X168254285Y-153417857D01*
X168282857Y-153389285D01*
X168311428Y-153332142D01*
X168311428Y-153160714D01*
X168282857Y-153103571D01*
X168254285Y-153075000D01*
%TO.C,R35*%
X215105714Y-154831428D02*
X215305714Y-154545714D01*
X215448571Y-154831428D02*
X215448571Y-154231428D01*
X215220000Y-154231428D01*
X215162857Y-154260000D01*
X215134285Y-154288571D01*
X215105714Y-154345714D01*
X215105714Y-154431428D01*
X215134285Y-154488571D01*
X215162857Y-154517142D01*
X215220000Y-154545714D01*
X215448571Y-154545714D01*
X214905714Y-154231428D02*
X214534285Y-154231428D01*
X214734285Y-154460000D01*
X214648571Y-154460000D01*
X214591428Y-154488571D01*
X214562857Y-154517142D01*
X214534285Y-154574285D01*
X214534285Y-154717142D01*
X214562857Y-154774285D01*
X214591428Y-154802857D01*
X214648571Y-154831428D01*
X214820000Y-154831428D01*
X214877142Y-154802857D01*
X214905714Y-154774285D01*
X213991428Y-154231428D02*
X214277142Y-154231428D01*
X214305714Y-154517142D01*
X214277142Y-154488571D01*
X214220000Y-154460000D01*
X214077142Y-154460000D01*
X214020000Y-154488571D01*
X213991428Y-154517142D01*
X213962857Y-154574285D01*
X213962857Y-154717142D01*
X213991428Y-154774285D01*
X214020000Y-154802857D01*
X214077142Y-154831428D01*
X214220000Y-154831428D01*
X214277142Y-154802857D01*
X214305714Y-154774285D01*
%TO.C,R31*%
X210710714Y-156711428D02*
X210910714Y-156425714D01*
X211053571Y-156711428D02*
X211053571Y-156111428D01*
X210825000Y-156111428D01*
X210767857Y-156140000D01*
X210739285Y-156168571D01*
X210710714Y-156225714D01*
X210710714Y-156311428D01*
X210739285Y-156368571D01*
X210767857Y-156397142D01*
X210825000Y-156425714D01*
X211053571Y-156425714D01*
X210510714Y-156111428D02*
X210139285Y-156111428D01*
X210339285Y-156340000D01*
X210253571Y-156340000D01*
X210196428Y-156368571D01*
X210167857Y-156397142D01*
X210139285Y-156454285D01*
X210139285Y-156597142D01*
X210167857Y-156654285D01*
X210196428Y-156682857D01*
X210253571Y-156711428D01*
X210425000Y-156711428D01*
X210482142Y-156682857D01*
X210510714Y-156654285D01*
X209567857Y-156711428D02*
X209910714Y-156711428D01*
X209739285Y-156711428D02*
X209739285Y-156111428D01*
X209796428Y-156197142D01*
X209853571Y-156254285D01*
X209910714Y-156282857D01*
D11*
%TO.C,SW1*%
X174914761Y-145126666D02*
X174962380Y-145269523D01*
X174962380Y-145507619D01*
X174914761Y-145602857D01*
X174867142Y-145650476D01*
X174771904Y-145698095D01*
X174676666Y-145698095D01*
X174581428Y-145650476D01*
X174533809Y-145602857D01*
X174486190Y-145507619D01*
X174438571Y-145317142D01*
X174390952Y-145221904D01*
X174343333Y-145174285D01*
X174248095Y-145126666D01*
X174152857Y-145126666D01*
X174057619Y-145174285D01*
X174010000Y-145221904D01*
X173962380Y-145317142D01*
X173962380Y-145555238D01*
X174010000Y-145698095D01*
X173962380Y-146031428D02*
X174962380Y-146269523D01*
X174248095Y-146460000D01*
X174962380Y-146650476D01*
X173962380Y-146888571D01*
X174962380Y-147793333D02*
X174962380Y-147221904D01*
X174962380Y-147507619D02*
X173962380Y-147507619D01*
X174105238Y-147412380D01*
X174200476Y-147317142D01*
X174248095Y-147221904D01*
%TO.C,U16*%
X163702380Y-110701904D02*
X164511904Y-110701904D01*
X164607142Y-110749523D01*
X164654761Y-110797142D01*
X164702380Y-110892380D01*
X164702380Y-111082857D01*
X164654761Y-111178095D01*
X164607142Y-111225714D01*
X164511904Y-111273333D01*
X163702380Y-111273333D01*
X164702380Y-112273333D02*
X164702380Y-111701904D01*
X164702380Y-111987619D02*
X163702380Y-111987619D01*
X163845238Y-111892380D01*
X163940476Y-111797142D01*
X163988095Y-111701904D01*
X163702380Y-113130476D02*
X163702380Y-112940000D01*
X163750000Y-112844761D01*
X163797619Y-112797142D01*
X163940476Y-112701904D01*
X164130952Y-112654285D01*
X164511904Y-112654285D01*
X164607142Y-112701904D01*
X164654761Y-112749523D01*
X164702380Y-112844761D01*
X164702380Y-113035238D01*
X164654761Y-113130476D01*
X164607142Y-113178095D01*
X164511904Y-113225714D01*
X164273809Y-113225714D01*
X164178571Y-113178095D01*
X164130952Y-113130476D01*
X164083333Y-113035238D01*
X164083333Y-112844761D01*
X164130952Y-112749523D01*
X164178571Y-112701904D01*
X164273809Y-112654285D01*
D12*
%TO.C,R46*%
X217735714Y-117681428D02*
X217935714Y-117395714D01*
X218078571Y-117681428D02*
X218078571Y-117081428D01*
X217850000Y-117081428D01*
X217792857Y-117110000D01*
X217764285Y-117138571D01*
X217735714Y-117195714D01*
X217735714Y-117281428D01*
X217764285Y-117338571D01*
X217792857Y-117367142D01*
X217850000Y-117395714D01*
X218078571Y-117395714D01*
X217221428Y-117281428D02*
X217221428Y-117681428D01*
X217364285Y-117052857D02*
X217507142Y-117481428D01*
X217135714Y-117481428D01*
X216650000Y-117081428D02*
X216764285Y-117081428D01*
X216821428Y-117110000D01*
X216850000Y-117138571D01*
X216907142Y-117224285D01*
X216935714Y-117338571D01*
X216935714Y-117567142D01*
X216907142Y-117624285D01*
X216878571Y-117652857D01*
X216821428Y-117681428D01*
X216707142Y-117681428D01*
X216650000Y-117652857D01*
X216621428Y-117624285D01*
X216592857Y-117567142D01*
X216592857Y-117424285D01*
X216621428Y-117367142D01*
X216650000Y-117338571D01*
X216707142Y-117310000D01*
X216821428Y-117310000D01*
X216878571Y-117338571D01*
X216907142Y-117367142D01*
X216935714Y-117424285D01*
%TO.C,R48*%
X227590714Y-143538928D02*
X227790714Y-143253214D01*
X227933571Y-143538928D02*
X227933571Y-142938928D01*
X227705000Y-142938928D01*
X227647857Y-142967500D01*
X227619285Y-142996071D01*
X227590714Y-143053214D01*
X227590714Y-143138928D01*
X227619285Y-143196071D01*
X227647857Y-143224642D01*
X227705000Y-143253214D01*
X227933571Y-143253214D01*
X227076428Y-143138928D02*
X227076428Y-143538928D01*
X227219285Y-142910357D02*
X227362142Y-143338928D01*
X226990714Y-143338928D01*
X226676428Y-143196071D02*
X226733571Y-143167500D01*
X226762142Y-143138928D01*
X226790714Y-143081785D01*
X226790714Y-143053214D01*
X226762142Y-142996071D01*
X226733571Y-142967500D01*
X226676428Y-142938928D01*
X226562142Y-142938928D01*
X226505000Y-142967500D01*
X226476428Y-142996071D01*
X226447857Y-143053214D01*
X226447857Y-143081785D01*
X226476428Y-143138928D01*
X226505000Y-143167500D01*
X226562142Y-143196071D01*
X226676428Y-143196071D01*
X226733571Y-143224642D01*
X226762142Y-143253214D01*
X226790714Y-143310357D01*
X226790714Y-143424642D01*
X226762142Y-143481785D01*
X226733571Y-143510357D01*
X226676428Y-143538928D01*
X226562142Y-143538928D01*
X226505000Y-143510357D01*
X226476428Y-143481785D01*
X226447857Y-143424642D01*
X226447857Y-143310357D01*
X226476428Y-143253214D01*
X226505000Y-143224642D01*
X226562142Y-143196071D01*
D11*
%TO.C,C7*%
X184416666Y-122497142D02*
X184464285Y-122544761D01*
X184607142Y-122592380D01*
X184702380Y-122592380D01*
X184845238Y-122544761D01*
X184940476Y-122449523D01*
X184988095Y-122354285D01*
X185035714Y-122163809D01*
X185035714Y-122020952D01*
X184988095Y-121830476D01*
X184940476Y-121735238D01*
X184845238Y-121640000D01*
X184702380Y-121592380D01*
X184607142Y-121592380D01*
X184464285Y-121640000D01*
X184416666Y-121687619D01*
X184083333Y-121592380D02*
X183416666Y-121592380D01*
X183845238Y-122592380D01*
D12*
%TO.C,R50*%
X174525714Y-126446428D02*
X174725714Y-126160714D01*
X174868571Y-126446428D02*
X174868571Y-125846428D01*
X174640000Y-125846428D01*
X174582857Y-125875000D01*
X174554285Y-125903571D01*
X174525714Y-125960714D01*
X174525714Y-126046428D01*
X174554285Y-126103571D01*
X174582857Y-126132142D01*
X174640000Y-126160714D01*
X174868571Y-126160714D01*
X173982857Y-125846428D02*
X174268571Y-125846428D01*
X174297142Y-126132142D01*
X174268571Y-126103571D01*
X174211428Y-126075000D01*
X174068571Y-126075000D01*
X174011428Y-126103571D01*
X173982857Y-126132142D01*
X173954285Y-126189285D01*
X173954285Y-126332142D01*
X173982857Y-126389285D01*
X174011428Y-126417857D01*
X174068571Y-126446428D01*
X174211428Y-126446428D01*
X174268571Y-126417857D01*
X174297142Y-126389285D01*
X173582857Y-125846428D02*
X173525714Y-125846428D01*
X173468571Y-125875000D01*
X173440000Y-125903571D01*
X173411428Y-125960714D01*
X173382857Y-126075000D01*
X173382857Y-126217857D01*
X173411428Y-126332142D01*
X173440000Y-126389285D01*
X173468571Y-126417857D01*
X173525714Y-126446428D01*
X173582857Y-126446428D01*
X173640000Y-126417857D01*
X173668571Y-126389285D01*
X173697142Y-126332142D01*
X173725714Y-126217857D01*
X173725714Y-126075000D01*
X173697142Y-125960714D01*
X173668571Y-125903571D01*
X173640000Y-125875000D01*
X173582857Y-125846428D01*
%TO.C,R37*%
X205765714Y-154841428D02*
X205965714Y-154555714D01*
X206108571Y-154841428D02*
X206108571Y-154241428D01*
X205880000Y-154241428D01*
X205822857Y-154270000D01*
X205794285Y-154298571D01*
X205765714Y-154355714D01*
X205765714Y-154441428D01*
X205794285Y-154498571D01*
X205822857Y-154527142D01*
X205880000Y-154555714D01*
X206108571Y-154555714D01*
X205565714Y-154241428D02*
X205194285Y-154241428D01*
X205394285Y-154470000D01*
X205308571Y-154470000D01*
X205251428Y-154498571D01*
X205222857Y-154527142D01*
X205194285Y-154584285D01*
X205194285Y-154727142D01*
X205222857Y-154784285D01*
X205251428Y-154812857D01*
X205308571Y-154841428D01*
X205480000Y-154841428D01*
X205537142Y-154812857D01*
X205565714Y-154784285D01*
X204994285Y-154241428D02*
X204594285Y-154241428D01*
X204851428Y-154841428D01*
D11*
%TO.C,C26*%
X232997142Y-127322142D02*
X233044761Y-127274523D01*
X233092380Y-127131666D01*
X233092380Y-127036428D01*
X233044761Y-126893571D01*
X232949523Y-126798333D01*
X232854285Y-126750714D01*
X232663809Y-126703095D01*
X232520952Y-126703095D01*
X232330476Y-126750714D01*
X232235238Y-126798333D01*
X232140000Y-126893571D01*
X232092380Y-127036428D01*
X232092380Y-127131666D01*
X232140000Y-127274523D01*
X232187619Y-127322142D01*
X232187619Y-127703095D02*
X232140000Y-127750714D01*
X232092380Y-127845952D01*
X232092380Y-128084047D01*
X232140000Y-128179285D01*
X232187619Y-128226904D01*
X232282857Y-128274523D01*
X232378095Y-128274523D01*
X232520952Y-128226904D01*
X233092380Y-127655476D01*
X233092380Y-128274523D01*
X232092380Y-129131666D02*
X232092380Y-128941190D01*
X232140000Y-128845952D01*
X232187619Y-128798333D01*
X232330476Y-128703095D01*
X232520952Y-128655476D01*
X232901904Y-128655476D01*
X232997142Y-128703095D01*
X233044761Y-128750714D01*
X233092380Y-128845952D01*
X233092380Y-129036428D01*
X233044761Y-129131666D01*
X232997142Y-129179285D01*
X232901904Y-129226904D01*
X232663809Y-129226904D01*
X232568571Y-129179285D01*
X232520952Y-129131666D01*
X232473333Y-129036428D01*
X232473333Y-128845952D01*
X232520952Y-128750714D01*
X232568571Y-128703095D01*
X232663809Y-128655476D01*
D12*
%TO.C,R64*%
X198971428Y-112989285D02*
X198685714Y-112789285D01*
X198971428Y-112646428D02*
X198371428Y-112646428D01*
X198371428Y-112875000D01*
X198400000Y-112932142D01*
X198428571Y-112960714D01*
X198485714Y-112989285D01*
X198571428Y-112989285D01*
X198628571Y-112960714D01*
X198657142Y-112932142D01*
X198685714Y-112875000D01*
X198685714Y-112646428D01*
X198371428Y-113503571D02*
X198371428Y-113389285D01*
X198400000Y-113332142D01*
X198428571Y-113303571D01*
X198514285Y-113246428D01*
X198628571Y-113217857D01*
X198857142Y-113217857D01*
X198914285Y-113246428D01*
X198942857Y-113275000D01*
X198971428Y-113332142D01*
X198971428Y-113446428D01*
X198942857Y-113503571D01*
X198914285Y-113532142D01*
X198857142Y-113560714D01*
X198714285Y-113560714D01*
X198657142Y-113532142D01*
X198628571Y-113503571D01*
X198600000Y-113446428D01*
X198600000Y-113332142D01*
X198628571Y-113275000D01*
X198657142Y-113246428D01*
X198714285Y-113217857D01*
X198571428Y-114075000D02*
X198971428Y-114075000D01*
X198342857Y-113932142D02*
X198771428Y-113789285D01*
X198771428Y-114160714D01*
%TO.C,C24*%
X230589285Y-146434285D02*
X230617857Y-146405714D01*
X230646428Y-146320000D01*
X230646428Y-146262857D01*
X230617857Y-146177142D01*
X230560714Y-146120000D01*
X230503571Y-146091428D01*
X230389285Y-146062857D01*
X230303571Y-146062857D01*
X230189285Y-146091428D01*
X230132142Y-146120000D01*
X230075000Y-146177142D01*
X230046428Y-146262857D01*
X230046428Y-146320000D01*
X230075000Y-146405714D01*
X230103571Y-146434285D01*
X230103571Y-146662857D02*
X230075000Y-146691428D01*
X230046428Y-146748571D01*
X230046428Y-146891428D01*
X230075000Y-146948571D01*
X230103571Y-146977142D01*
X230160714Y-147005714D01*
X230217857Y-147005714D01*
X230303571Y-146977142D01*
X230646428Y-146634285D01*
X230646428Y-147005714D01*
X230246428Y-147520000D02*
X230646428Y-147520000D01*
X230017857Y-147377142D02*
X230446428Y-147234285D01*
X230446428Y-147605714D01*
%TO.C,R65*%
X196971428Y-101814285D02*
X196685714Y-101614285D01*
X196971428Y-101471428D02*
X196371428Y-101471428D01*
X196371428Y-101700000D01*
X196400000Y-101757142D01*
X196428571Y-101785714D01*
X196485714Y-101814285D01*
X196571428Y-101814285D01*
X196628571Y-101785714D01*
X196657142Y-101757142D01*
X196685714Y-101700000D01*
X196685714Y-101471428D01*
X196371428Y-102328571D02*
X196371428Y-102214285D01*
X196400000Y-102157142D01*
X196428571Y-102128571D01*
X196514285Y-102071428D01*
X196628571Y-102042857D01*
X196857142Y-102042857D01*
X196914285Y-102071428D01*
X196942857Y-102100000D01*
X196971428Y-102157142D01*
X196971428Y-102271428D01*
X196942857Y-102328571D01*
X196914285Y-102357142D01*
X196857142Y-102385714D01*
X196714285Y-102385714D01*
X196657142Y-102357142D01*
X196628571Y-102328571D01*
X196600000Y-102271428D01*
X196600000Y-102157142D01*
X196628571Y-102100000D01*
X196657142Y-102071428D01*
X196714285Y-102042857D01*
X196371428Y-102928571D02*
X196371428Y-102642857D01*
X196657142Y-102614285D01*
X196628571Y-102642857D01*
X196600000Y-102700000D01*
X196600000Y-102842857D01*
X196628571Y-102900000D01*
X196657142Y-102928571D01*
X196714285Y-102957142D01*
X196857142Y-102957142D01*
X196914285Y-102928571D01*
X196942857Y-102900000D01*
X196971428Y-102842857D01*
X196971428Y-102700000D01*
X196942857Y-102642857D01*
X196914285Y-102614285D01*
%TO.C,R56*%
X189071428Y-101874285D02*
X188785714Y-101674285D01*
X189071428Y-101531428D02*
X188471428Y-101531428D01*
X188471428Y-101760000D01*
X188500000Y-101817142D01*
X188528571Y-101845714D01*
X188585714Y-101874285D01*
X188671428Y-101874285D01*
X188728571Y-101845714D01*
X188757142Y-101817142D01*
X188785714Y-101760000D01*
X188785714Y-101531428D01*
X188471428Y-102417142D02*
X188471428Y-102131428D01*
X188757142Y-102102857D01*
X188728571Y-102131428D01*
X188700000Y-102188571D01*
X188700000Y-102331428D01*
X188728571Y-102388571D01*
X188757142Y-102417142D01*
X188814285Y-102445714D01*
X188957142Y-102445714D01*
X189014285Y-102417142D01*
X189042857Y-102388571D01*
X189071428Y-102331428D01*
X189071428Y-102188571D01*
X189042857Y-102131428D01*
X189014285Y-102102857D01*
X188471428Y-102960000D02*
X188471428Y-102845714D01*
X188500000Y-102788571D01*
X188528571Y-102760000D01*
X188614285Y-102702857D01*
X188728571Y-102674285D01*
X188957142Y-102674285D01*
X189014285Y-102702857D01*
X189042857Y-102731428D01*
X189071428Y-102788571D01*
X189071428Y-102902857D01*
X189042857Y-102960000D01*
X189014285Y-102988571D01*
X188957142Y-103017142D01*
X188814285Y-103017142D01*
X188757142Y-102988571D01*
X188728571Y-102960000D01*
X188700000Y-102902857D01*
X188700000Y-102788571D01*
X188728571Y-102731428D01*
X188757142Y-102702857D01*
X188814285Y-102674285D01*
D11*
%TO.C,Q15*%
X198148095Y-108792857D02*
X198110000Y-108716666D01*
X198033809Y-108640476D01*
X197919523Y-108526190D01*
X197881428Y-108450000D01*
X197881428Y-108373809D01*
X198071904Y-108411904D02*
X198033809Y-108335714D01*
X197957619Y-108259523D01*
X197805238Y-108221428D01*
X197538571Y-108221428D01*
X197386190Y-108259523D01*
X197310000Y-108335714D01*
X197271904Y-108411904D01*
X197271904Y-108564285D01*
X197310000Y-108640476D01*
X197386190Y-108716666D01*
X197538571Y-108754761D01*
X197805238Y-108754761D01*
X197957619Y-108716666D01*
X198033809Y-108640476D01*
X198071904Y-108564285D01*
X198071904Y-108411904D01*
X198071904Y-109516666D02*
X198071904Y-109059523D01*
X198071904Y-109288095D02*
X197271904Y-109288095D01*
X197386190Y-109211904D01*
X197462380Y-109135714D01*
X197500476Y-109059523D01*
X197271904Y-110240476D02*
X197271904Y-109859523D01*
X197652857Y-109821428D01*
X197614761Y-109859523D01*
X197576666Y-109935714D01*
X197576666Y-110126190D01*
X197614761Y-110202380D01*
X197652857Y-110240476D01*
X197729047Y-110278571D01*
X197919523Y-110278571D01*
X197995714Y-110240476D01*
X198033809Y-110202380D01*
X198071904Y-110126190D01*
X198071904Y-109935714D01*
X198033809Y-109859523D01*
X197995714Y-109821428D01*
%TO.C,R8*%
X190516666Y-177052380D02*
X190850000Y-176576190D01*
X191088095Y-177052380D02*
X191088095Y-176052380D01*
X190707142Y-176052380D01*
X190611904Y-176100000D01*
X190564285Y-176147619D01*
X190516666Y-176242857D01*
X190516666Y-176385714D01*
X190564285Y-176480952D01*
X190611904Y-176528571D01*
X190707142Y-176576190D01*
X191088095Y-176576190D01*
X189945238Y-176480952D02*
X190040476Y-176433333D01*
X190088095Y-176385714D01*
X190135714Y-176290476D01*
X190135714Y-176242857D01*
X190088095Y-176147619D01*
X190040476Y-176100000D01*
X189945238Y-176052380D01*
X189754761Y-176052380D01*
X189659523Y-176100000D01*
X189611904Y-176147619D01*
X189564285Y-176242857D01*
X189564285Y-176290476D01*
X189611904Y-176385714D01*
X189659523Y-176433333D01*
X189754761Y-176480952D01*
X189945238Y-176480952D01*
X190040476Y-176528571D01*
X190088095Y-176576190D01*
X190135714Y-176671428D01*
X190135714Y-176861904D01*
X190088095Y-176957142D01*
X190040476Y-177004761D01*
X189945238Y-177052380D01*
X189754761Y-177052380D01*
X189659523Y-177004761D01*
X189611904Y-176957142D01*
X189564285Y-176861904D01*
X189564285Y-176671428D01*
X189611904Y-176576190D01*
X189659523Y-176528571D01*
X189754761Y-176480952D01*
D12*
%TO.C,R21*%
X192231428Y-168864285D02*
X191945714Y-168664285D01*
X192231428Y-168521428D02*
X191631428Y-168521428D01*
X191631428Y-168750000D01*
X191660000Y-168807142D01*
X191688571Y-168835714D01*
X191745714Y-168864285D01*
X191831428Y-168864285D01*
X191888571Y-168835714D01*
X191917142Y-168807142D01*
X191945714Y-168750000D01*
X191945714Y-168521428D01*
X191688571Y-169092857D02*
X191660000Y-169121428D01*
X191631428Y-169178571D01*
X191631428Y-169321428D01*
X191660000Y-169378571D01*
X191688571Y-169407142D01*
X191745714Y-169435714D01*
X191802857Y-169435714D01*
X191888571Y-169407142D01*
X192231428Y-169064285D01*
X192231428Y-169435714D01*
X192231428Y-170007142D02*
X192231428Y-169664285D01*
X192231428Y-169835714D02*
X191631428Y-169835714D01*
X191717142Y-169778571D01*
X191774285Y-169721428D01*
X191802857Y-169664285D01*
%TO.C,R29*%
X229285714Y-156421428D02*
X229485714Y-156135714D01*
X229628571Y-156421428D02*
X229628571Y-155821428D01*
X229400000Y-155821428D01*
X229342857Y-155850000D01*
X229314285Y-155878571D01*
X229285714Y-155935714D01*
X229285714Y-156021428D01*
X229314285Y-156078571D01*
X229342857Y-156107142D01*
X229400000Y-156135714D01*
X229628571Y-156135714D01*
X229057142Y-155878571D02*
X229028571Y-155850000D01*
X228971428Y-155821428D01*
X228828571Y-155821428D01*
X228771428Y-155850000D01*
X228742857Y-155878571D01*
X228714285Y-155935714D01*
X228714285Y-155992857D01*
X228742857Y-156078571D01*
X229085714Y-156421428D01*
X228714285Y-156421428D01*
X228428571Y-156421428D02*
X228314285Y-156421428D01*
X228257142Y-156392857D01*
X228228571Y-156364285D01*
X228171428Y-156278571D01*
X228142857Y-156164285D01*
X228142857Y-155935714D01*
X228171428Y-155878571D01*
X228200000Y-155850000D01*
X228257142Y-155821428D01*
X228371428Y-155821428D01*
X228428571Y-155850000D01*
X228457142Y-155878571D01*
X228485714Y-155935714D01*
X228485714Y-156078571D01*
X228457142Y-156135714D01*
X228428571Y-156164285D01*
X228371428Y-156192857D01*
X228257142Y-156192857D01*
X228200000Y-156164285D01*
X228171428Y-156135714D01*
X228142857Y-156078571D01*
D13*
%TO.C,IC2*%
X165684523Y-145140238D02*
X164414523Y-145140238D01*
X165563571Y-146470714D02*
X165624047Y-146410238D01*
X165684523Y-146228809D01*
X165684523Y-146107857D01*
X165624047Y-145926428D01*
X165503095Y-145805476D01*
X165382142Y-145745000D01*
X165140238Y-145684523D01*
X164958809Y-145684523D01*
X164716904Y-145745000D01*
X164595952Y-145805476D01*
X164475000Y-145926428D01*
X164414523Y-146107857D01*
X164414523Y-146228809D01*
X164475000Y-146410238D01*
X164535476Y-146470714D01*
X164535476Y-146954523D02*
X164475000Y-147015000D01*
X164414523Y-147135952D01*
X164414523Y-147438333D01*
X164475000Y-147559285D01*
X164535476Y-147619761D01*
X164656428Y-147680238D01*
X164777380Y-147680238D01*
X164958809Y-147619761D01*
X165684523Y-146894047D01*
X165684523Y-147680238D01*
D12*
%TO.C,R14*%
X189996428Y-157689285D02*
X189710714Y-157489285D01*
X189996428Y-157346428D02*
X189396428Y-157346428D01*
X189396428Y-157575000D01*
X189425000Y-157632142D01*
X189453571Y-157660714D01*
X189510714Y-157689285D01*
X189596428Y-157689285D01*
X189653571Y-157660714D01*
X189682142Y-157632142D01*
X189710714Y-157575000D01*
X189710714Y-157346428D01*
X189996428Y-158260714D02*
X189996428Y-157917857D01*
X189996428Y-158089285D02*
X189396428Y-158089285D01*
X189482142Y-158032142D01*
X189539285Y-157975000D01*
X189567857Y-157917857D01*
X189596428Y-158775000D02*
X189996428Y-158775000D01*
X189367857Y-158632142D02*
X189796428Y-158489285D01*
X189796428Y-158860714D01*
D11*
%TO.C,U11*%
X239397380Y-144091904D02*
X240206904Y-144091904D01*
X240302142Y-144139523D01*
X240349761Y-144187142D01*
X240397380Y-144282380D01*
X240397380Y-144472857D01*
X240349761Y-144568095D01*
X240302142Y-144615714D01*
X240206904Y-144663333D01*
X239397380Y-144663333D01*
X240397380Y-145663333D02*
X240397380Y-145091904D01*
X240397380Y-145377619D02*
X239397380Y-145377619D01*
X239540238Y-145282380D01*
X239635476Y-145187142D01*
X239683095Y-145091904D01*
X240397380Y-146615714D02*
X240397380Y-146044285D01*
X240397380Y-146330000D02*
X239397380Y-146330000D01*
X239540238Y-146234761D01*
X239635476Y-146139523D01*
X239683095Y-146044285D01*
%TO.C,Q2*%
X194437619Y-174554761D02*
X194390000Y-174459523D01*
X194294761Y-174364285D01*
X194151904Y-174221428D01*
X194104285Y-174126190D01*
X194104285Y-174030952D01*
X194342380Y-174078571D02*
X194294761Y-173983333D01*
X194199523Y-173888095D01*
X194009047Y-173840476D01*
X193675714Y-173840476D01*
X193485238Y-173888095D01*
X193390000Y-173983333D01*
X193342380Y-174078571D01*
X193342380Y-174269047D01*
X193390000Y-174364285D01*
X193485238Y-174459523D01*
X193675714Y-174507142D01*
X194009047Y-174507142D01*
X194199523Y-174459523D01*
X194294761Y-174364285D01*
X194342380Y-174269047D01*
X194342380Y-174078571D01*
X193437619Y-174888095D02*
X193390000Y-174935714D01*
X193342380Y-175030952D01*
X193342380Y-175269047D01*
X193390000Y-175364285D01*
X193437619Y-175411904D01*
X193532857Y-175459523D01*
X193628095Y-175459523D01*
X193770952Y-175411904D01*
X194342380Y-174840476D01*
X194342380Y-175459523D01*
%TO.C,Q12*%
X194178095Y-105822857D02*
X194140000Y-105746666D01*
X194063809Y-105670476D01*
X193949523Y-105556190D01*
X193911428Y-105480000D01*
X193911428Y-105403809D01*
X194101904Y-105441904D02*
X194063809Y-105365714D01*
X193987619Y-105289523D01*
X193835238Y-105251428D01*
X193568571Y-105251428D01*
X193416190Y-105289523D01*
X193340000Y-105365714D01*
X193301904Y-105441904D01*
X193301904Y-105594285D01*
X193340000Y-105670476D01*
X193416190Y-105746666D01*
X193568571Y-105784761D01*
X193835238Y-105784761D01*
X193987619Y-105746666D01*
X194063809Y-105670476D01*
X194101904Y-105594285D01*
X194101904Y-105441904D01*
X194101904Y-106546666D02*
X194101904Y-106089523D01*
X194101904Y-106318095D02*
X193301904Y-106318095D01*
X193416190Y-106241904D01*
X193492380Y-106165714D01*
X193530476Y-106089523D01*
X193378095Y-106851428D02*
X193340000Y-106889523D01*
X193301904Y-106965714D01*
X193301904Y-107156190D01*
X193340000Y-107232380D01*
X193378095Y-107270476D01*
X193454285Y-107308571D01*
X193530476Y-107308571D01*
X193644761Y-107270476D01*
X194101904Y-106813333D01*
X194101904Y-107308571D01*
%TO.C,U13*%
X226978095Y-144815952D02*
X226978095Y-145625476D01*
X226930476Y-145720714D01*
X226882857Y-145768333D01*
X226787619Y-145815952D01*
X226597142Y-145815952D01*
X226501904Y-145768333D01*
X226454285Y-145720714D01*
X226406666Y-145625476D01*
X226406666Y-144815952D01*
X225406666Y-145815952D02*
X225978095Y-145815952D01*
X225692380Y-145815952D02*
X225692380Y-144815952D01*
X225787619Y-144958810D01*
X225882857Y-145054048D01*
X225978095Y-145101667D01*
X225073333Y-144815952D02*
X224454285Y-144815952D01*
X224787619Y-145196905D01*
X224644761Y-145196905D01*
X224549523Y-145244524D01*
X224501904Y-145292143D01*
X224454285Y-145387381D01*
X224454285Y-145625476D01*
X224501904Y-145720714D01*
X224549523Y-145768333D01*
X224644761Y-145815952D01*
X224930476Y-145815952D01*
X225025714Y-145768333D01*
X225073333Y-145720714D01*
%TO.C,C1*%
X166782142Y-153308333D02*
X166829761Y-153260714D01*
X166877380Y-153117857D01*
X166877380Y-153022619D01*
X166829761Y-152879761D01*
X166734523Y-152784523D01*
X166639285Y-152736904D01*
X166448809Y-152689285D01*
X166305952Y-152689285D01*
X166115476Y-152736904D01*
X166020238Y-152784523D01*
X165925000Y-152879761D01*
X165877380Y-153022619D01*
X165877380Y-153117857D01*
X165925000Y-153260714D01*
X165972619Y-153308333D01*
X166877380Y-154260714D02*
X166877380Y-153689285D01*
X166877380Y-153975000D02*
X165877380Y-153975000D01*
X166020238Y-153879761D01*
X166115476Y-153784523D01*
X166163095Y-153689285D01*
%TO.C,IC1*%
X161606190Y-151812380D02*
X161606190Y-150812380D01*
X160558571Y-151717142D02*
X160606190Y-151764761D01*
X160749047Y-151812380D01*
X160844285Y-151812380D01*
X160987142Y-151764761D01*
X161082380Y-151669523D01*
X161130000Y-151574285D01*
X161177619Y-151383809D01*
X161177619Y-151240952D01*
X161130000Y-151050476D01*
X161082380Y-150955238D01*
X160987142Y-150860000D01*
X160844285Y-150812380D01*
X160749047Y-150812380D01*
X160606190Y-150860000D01*
X160558571Y-150907619D01*
X159606190Y-151812380D02*
X160177619Y-151812380D01*
X159891904Y-151812380D02*
X159891904Y-150812380D01*
X159987142Y-150955238D01*
X160082380Y-151050476D01*
X160177619Y-151098095D01*
D12*
%TO.C,R43*%
X219651428Y-162849285D02*
X219365714Y-162649285D01*
X219651428Y-162506428D02*
X219051428Y-162506428D01*
X219051428Y-162735000D01*
X219080000Y-162792142D01*
X219108571Y-162820714D01*
X219165714Y-162849285D01*
X219251428Y-162849285D01*
X219308571Y-162820714D01*
X219337142Y-162792142D01*
X219365714Y-162735000D01*
X219365714Y-162506428D01*
X219251428Y-163363571D02*
X219651428Y-163363571D01*
X219022857Y-163220714D02*
X219451428Y-163077857D01*
X219451428Y-163449285D01*
X219051428Y-163620714D02*
X219051428Y-163992142D01*
X219280000Y-163792142D01*
X219280000Y-163877857D01*
X219308571Y-163935000D01*
X219337142Y-163963571D01*
X219394285Y-163992142D01*
X219537142Y-163992142D01*
X219594285Y-163963571D01*
X219622857Y-163935000D01*
X219651428Y-163877857D01*
X219651428Y-163706428D01*
X219622857Y-163649285D01*
X219594285Y-163620714D01*
D11*
%TO.C,C15*%
X215002857Y-161577142D02*
X215050476Y-161624761D01*
X215193333Y-161672380D01*
X215288571Y-161672380D01*
X215431428Y-161624761D01*
X215526666Y-161529523D01*
X215574285Y-161434285D01*
X215621904Y-161243809D01*
X215621904Y-161100952D01*
X215574285Y-160910476D01*
X215526666Y-160815238D01*
X215431428Y-160720000D01*
X215288571Y-160672380D01*
X215193333Y-160672380D01*
X215050476Y-160720000D01*
X215002857Y-160767619D01*
X214050476Y-161672380D02*
X214621904Y-161672380D01*
X214336190Y-161672380D02*
X214336190Y-160672380D01*
X214431428Y-160815238D01*
X214526666Y-160910476D01*
X214621904Y-160958095D01*
X213145714Y-160672380D02*
X213621904Y-160672380D01*
X213669523Y-161148571D01*
X213621904Y-161100952D01*
X213526666Y-161053333D01*
X213288571Y-161053333D01*
X213193333Y-161100952D01*
X213145714Y-161148571D01*
X213098095Y-161243809D01*
X213098095Y-161481904D01*
X213145714Y-161577142D01*
X213193333Y-161624761D01*
X213288571Y-161672380D01*
X213526666Y-161672380D01*
X213621904Y-161624761D01*
X213669523Y-161577142D01*
D12*
%TO.C,C13*%
X209989285Y-158414285D02*
X210017857Y-158385714D01*
X210046428Y-158300000D01*
X210046428Y-158242857D01*
X210017857Y-158157142D01*
X209960714Y-158100000D01*
X209903571Y-158071428D01*
X209789285Y-158042857D01*
X209703571Y-158042857D01*
X209589285Y-158071428D01*
X209532142Y-158100000D01*
X209475000Y-158157142D01*
X209446428Y-158242857D01*
X209446428Y-158300000D01*
X209475000Y-158385714D01*
X209503571Y-158414285D01*
X210046428Y-158985714D02*
X210046428Y-158642857D01*
X210046428Y-158814285D02*
X209446428Y-158814285D01*
X209532142Y-158757142D01*
X209589285Y-158700000D01*
X209617857Y-158642857D01*
X209446428Y-159185714D02*
X209446428Y-159557142D01*
X209675000Y-159357142D01*
X209675000Y-159442857D01*
X209703571Y-159500000D01*
X209732142Y-159528571D01*
X209789285Y-159557142D01*
X209932142Y-159557142D01*
X209989285Y-159528571D01*
X210017857Y-159500000D01*
X210046428Y-159442857D01*
X210046428Y-159271428D01*
X210017857Y-159214285D01*
X209989285Y-159185714D01*
D11*
%TO.C,D13*%
X233844285Y-116452380D02*
X233844285Y-115452380D01*
X233606190Y-115452380D01*
X233463333Y-115500000D01*
X233368095Y-115595238D01*
X233320476Y-115690476D01*
X233272857Y-115880952D01*
X233272857Y-116023809D01*
X233320476Y-116214285D01*
X233368095Y-116309523D01*
X233463333Y-116404761D01*
X233606190Y-116452380D01*
X233844285Y-116452380D01*
X232320476Y-116452380D02*
X232891904Y-116452380D01*
X232606190Y-116452380D02*
X232606190Y-115452380D01*
X232701428Y-115595238D01*
X232796666Y-115690476D01*
X232891904Y-115738095D01*
X231987142Y-115452380D02*
X231368095Y-115452380D01*
X231701428Y-115833333D01*
X231558571Y-115833333D01*
X231463333Y-115880952D01*
X231415714Y-115928571D01*
X231368095Y-116023809D01*
X231368095Y-116261904D01*
X231415714Y-116357142D01*
X231463333Y-116404761D01*
X231558571Y-116452380D01*
X231844285Y-116452380D01*
X231939523Y-116404761D01*
X231987142Y-116357142D01*
D12*
%TO.C,R42*%
X218251428Y-162849285D02*
X217965714Y-162649285D01*
X218251428Y-162506428D02*
X217651428Y-162506428D01*
X217651428Y-162735000D01*
X217680000Y-162792142D01*
X217708571Y-162820714D01*
X217765714Y-162849285D01*
X217851428Y-162849285D01*
X217908571Y-162820714D01*
X217937142Y-162792142D01*
X217965714Y-162735000D01*
X217965714Y-162506428D01*
X217851428Y-163363571D02*
X218251428Y-163363571D01*
X217622857Y-163220714D02*
X218051428Y-163077857D01*
X218051428Y-163449285D01*
X217708571Y-163649285D02*
X217680000Y-163677857D01*
X217651428Y-163735000D01*
X217651428Y-163877857D01*
X217680000Y-163935000D01*
X217708571Y-163963571D01*
X217765714Y-163992142D01*
X217822857Y-163992142D01*
X217908571Y-163963571D01*
X218251428Y-163620714D01*
X218251428Y-163992142D01*
%TO.C,R23*%
X194225714Y-121941428D02*
X194425714Y-121655714D01*
X194568571Y-121941428D02*
X194568571Y-121341428D01*
X194340000Y-121341428D01*
X194282857Y-121370000D01*
X194254285Y-121398571D01*
X194225714Y-121455714D01*
X194225714Y-121541428D01*
X194254285Y-121598571D01*
X194282857Y-121627142D01*
X194340000Y-121655714D01*
X194568571Y-121655714D01*
X193997142Y-121398571D02*
X193968571Y-121370000D01*
X193911428Y-121341428D01*
X193768571Y-121341428D01*
X193711428Y-121370000D01*
X193682857Y-121398571D01*
X193654285Y-121455714D01*
X193654285Y-121512857D01*
X193682857Y-121598571D01*
X194025714Y-121941428D01*
X193654285Y-121941428D01*
X193454285Y-121341428D02*
X193082857Y-121341428D01*
X193282857Y-121570000D01*
X193197142Y-121570000D01*
X193140000Y-121598571D01*
X193111428Y-121627142D01*
X193082857Y-121684285D01*
X193082857Y-121827142D01*
X193111428Y-121884285D01*
X193140000Y-121912857D01*
X193197142Y-121941428D01*
X193368571Y-121941428D01*
X193425714Y-121912857D01*
X193454285Y-121884285D01*
%TO.C,R13*%
X193971428Y-157714285D02*
X193685714Y-157514285D01*
X193971428Y-157371428D02*
X193371428Y-157371428D01*
X193371428Y-157600000D01*
X193400000Y-157657142D01*
X193428571Y-157685714D01*
X193485714Y-157714285D01*
X193571428Y-157714285D01*
X193628571Y-157685714D01*
X193657142Y-157657142D01*
X193685714Y-157600000D01*
X193685714Y-157371428D01*
X193971428Y-158285714D02*
X193971428Y-157942857D01*
X193971428Y-158114285D02*
X193371428Y-158114285D01*
X193457142Y-158057142D01*
X193514285Y-158000000D01*
X193542857Y-157942857D01*
X193371428Y-158485714D02*
X193371428Y-158857142D01*
X193600000Y-158657142D01*
X193600000Y-158742857D01*
X193628571Y-158800000D01*
X193657142Y-158828571D01*
X193714285Y-158857142D01*
X193857142Y-158857142D01*
X193914285Y-158828571D01*
X193942857Y-158800000D01*
X193971428Y-158742857D01*
X193971428Y-158571428D01*
X193942857Y-158514285D01*
X193914285Y-158485714D01*
D11*
%TO.C,C35*%
X177832142Y-146507142D02*
X177879761Y-146459523D01*
X177927380Y-146316666D01*
X177927380Y-146221428D01*
X177879761Y-146078571D01*
X177784523Y-145983333D01*
X177689285Y-145935714D01*
X177498809Y-145888095D01*
X177355952Y-145888095D01*
X177165476Y-145935714D01*
X177070238Y-145983333D01*
X176975000Y-146078571D01*
X176927380Y-146221428D01*
X176927380Y-146316666D01*
X176975000Y-146459523D01*
X177022619Y-146507142D01*
X176927380Y-146840476D02*
X176927380Y-147459523D01*
X177308333Y-147126190D01*
X177308333Y-147269047D01*
X177355952Y-147364285D01*
X177403571Y-147411904D01*
X177498809Y-147459523D01*
X177736904Y-147459523D01*
X177832142Y-147411904D01*
X177879761Y-147364285D01*
X177927380Y-147269047D01*
X177927380Y-146983333D01*
X177879761Y-146888095D01*
X177832142Y-146840476D01*
X176927380Y-148364285D02*
X176927380Y-147888095D01*
X177403571Y-147840476D01*
X177355952Y-147888095D01*
X177308333Y-147983333D01*
X177308333Y-148221428D01*
X177355952Y-148316666D01*
X177403571Y-148364285D01*
X177498809Y-148411904D01*
X177736904Y-148411904D01*
X177832142Y-148364285D01*
X177879761Y-148316666D01*
X177927380Y-148221428D01*
X177927380Y-147983333D01*
X177879761Y-147888095D01*
X177832142Y-147840476D01*
D12*
%TO.C,R47*%
X217735714Y-116281428D02*
X217935714Y-115995714D01*
X218078571Y-116281428D02*
X218078571Y-115681428D01*
X217850000Y-115681428D01*
X217792857Y-115710000D01*
X217764285Y-115738571D01*
X217735714Y-115795714D01*
X217735714Y-115881428D01*
X217764285Y-115938571D01*
X217792857Y-115967142D01*
X217850000Y-115995714D01*
X218078571Y-115995714D01*
X217221428Y-115881428D02*
X217221428Y-116281428D01*
X217364285Y-115652857D02*
X217507142Y-116081428D01*
X217135714Y-116081428D01*
X216964285Y-115681428D02*
X216564285Y-115681428D01*
X216821428Y-116281428D01*
D11*
%TO.C,Q3*%
X195148095Y-162073809D02*
X195110000Y-161997619D01*
X195033809Y-161921428D01*
X194919523Y-161807142D01*
X194881428Y-161730952D01*
X194881428Y-161654761D01*
X195071904Y-161692857D02*
X195033809Y-161616666D01*
X194957619Y-161540476D01*
X194805238Y-161502380D01*
X194538571Y-161502380D01*
X194386190Y-161540476D01*
X194310000Y-161616666D01*
X194271904Y-161692857D01*
X194271904Y-161845238D01*
X194310000Y-161921428D01*
X194386190Y-161997619D01*
X194538571Y-162035714D01*
X194805238Y-162035714D01*
X194957619Y-161997619D01*
X195033809Y-161921428D01*
X195071904Y-161845238D01*
X195071904Y-161692857D01*
X194271904Y-162302380D02*
X194271904Y-162797619D01*
X194576666Y-162530952D01*
X194576666Y-162645238D01*
X194614761Y-162721428D01*
X194652857Y-162759523D01*
X194729047Y-162797619D01*
X194919523Y-162797619D01*
X194995714Y-162759523D01*
X195033809Y-162721428D01*
X195071904Y-162645238D01*
X195071904Y-162416666D01*
X195033809Y-162340476D01*
X194995714Y-162302380D01*
D14*
%TO.C,U4*%
X224197943Y-157088442D02*
X224422722Y-157088442D01*
X224449167Y-157101665D01*
X224462389Y-157114887D01*
X224475612Y-157141332D01*
X224475612Y-157194221D01*
X224462389Y-157220666D01*
X224449167Y-157233888D01*
X224422722Y-157247110D01*
X224197943Y-157247110D01*
X224290499Y-157498335D02*
X224475612Y-157498335D01*
X224184720Y-157432223D02*
X224383055Y-157366111D01*
X224383055Y-157538002D01*
D11*
%TO.C,C21*%
X195917142Y-124782142D02*
X195964761Y-124734523D01*
X196012380Y-124591666D01*
X196012380Y-124496428D01*
X195964761Y-124353571D01*
X195869523Y-124258333D01*
X195774285Y-124210714D01*
X195583809Y-124163095D01*
X195440952Y-124163095D01*
X195250476Y-124210714D01*
X195155238Y-124258333D01*
X195060000Y-124353571D01*
X195012380Y-124496428D01*
X195012380Y-124591666D01*
X195060000Y-124734523D01*
X195107619Y-124782142D01*
X195107619Y-125163095D02*
X195060000Y-125210714D01*
X195012380Y-125305952D01*
X195012380Y-125544047D01*
X195060000Y-125639285D01*
X195107619Y-125686904D01*
X195202857Y-125734523D01*
X195298095Y-125734523D01*
X195440952Y-125686904D01*
X196012380Y-125115476D01*
X196012380Y-125734523D01*
X196012380Y-126686904D02*
X196012380Y-126115476D01*
X196012380Y-126401190D02*
X195012380Y-126401190D01*
X195155238Y-126305952D01*
X195250476Y-126210714D01*
X195298095Y-126115476D01*
%TO.C,D10*%
X215364285Y-116402380D02*
X215364285Y-115402380D01*
X215126190Y-115402380D01*
X214983333Y-115450000D01*
X214888095Y-115545238D01*
X214840476Y-115640476D01*
X214792857Y-115830952D01*
X214792857Y-115973809D01*
X214840476Y-116164285D01*
X214888095Y-116259523D01*
X214983333Y-116354761D01*
X215126190Y-116402380D01*
X215364285Y-116402380D01*
X213840476Y-116402380D02*
X214411904Y-116402380D01*
X214126190Y-116402380D02*
X214126190Y-115402380D01*
X214221428Y-115545238D01*
X214316666Y-115640476D01*
X214411904Y-115688095D01*
X213221428Y-115402380D02*
X213126190Y-115402380D01*
X213030952Y-115450000D01*
X212983333Y-115497619D01*
X212935714Y-115592857D01*
X212888095Y-115783333D01*
X212888095Y-116021428D01*
X212935714Y-116211904D01*
X212983333Y-116307142D01*
X213030952Y-116354761D01*
X213126190Y-116402380D01*
X213221428Y-116402380D01*
X213316666Y-116354761D01*
X213364285Y-116307142D01*
X213411904Y-116211904D01*
X213459523Y-116021428D01*
X213459523Y-115783333D01*
X213411904Y-115592857D01*
X213364285Y-115497619D01*
X213316666Y-115450000D01*
X213221428Y-115402380D01*
%TO.C,Q8*%
X177897619Y-127124761D02*
X177850000Y-127029523D01*
X177754761Y-126934285D01*
X177611904Y-126791428D01*
X177564285Y-126696190D01*
X177564285Y-126600952D01*
X177802380Y-126648571D02*
X177754761Y-126553333D01*
X177659523Y-126458095D01*
X177469047Y-126410476D01*
X177135714Y-126410476D01*
X176945238Y-126458095D01*
X176850000Y-126553333D01*
X176802380Y-126648571D01*
X176802380Y-126839047D01*
X176850000Y-126934285D01*
X176945238Y-127029523D01*
X177135714Y-127077142D01*
X177469047Y-127077142D01*
X177659523Y-127029523D01*
X177754761Y-126934285D01*
X177802380Y-126839047D01*
X177802380Y-126648571D01*
X177230952Y-127648571D02*
X177183333Y-127553333D01*
X177135714Y-127505714D01*
X177040476Y-127458095D01*
X176992857Y-127458095D01*
X176897619Y-127505714D01*
X176850000Y-127553333D01*
X176802380Y-127648571D01*
X176802380Y-127839047D01*
X176850000Y-127934285D01*
X176897619Y-127981904D01*
X176992857Y-128029523D01*
X177040476Y-128029523D01*
X177135714Y-127981904D01*
X177183333Y-127934285D01*
X177230952Y-127839047D01*
X177230952Y-127648571D01*
X177278571Y-127553333D01*
X177326190Y-127505714D01*
X177421428Y-127458095D01*
X177611904Y-127458095D01*
X177707142Y-127505714D01*
X177754761Y-127553333D01*
X177802380Y-127648571D01*
X177802380Y-127839047D01*
X177754761Y-127934285D01*
X177707142Y-127981904D01*
X177611904Y-128029523D01*
X177421428Y-128029523D01*
X177326190Y-127981904D01*
X177278571Y-127934285D01*
X177230952Y-127839047D01*
D12*
%TO.C,R36*%
X208695714Y-153831428D02*
X208895714Y-153545714D01*
X209038571Y-153831428D02*
X209038571Y-153231428D01*
X208810000Y-153231428D01*
X208752857Y-153260000D01*
X208724285Y-153288571D01*
X208695714Y-153345714D01*
X208695714Y-153431428D01*
X208724285Y-153488571D01*
X208752857Y-153517142D01*
X208810000Y-153545714D01*
X209038571Y-153545714D01*
X208495714Y-153231428D02*
X208124285Y-153231428D01*
X208324285Y-153460000D01*
X208238571Y-153460000D01*
X208181428Y-153488571D01*
X208152857Y-153517142D01*
X208124285Y-153574285D01*
X208124285Y-153717142D01*
X208152857Y-153774285D01*
X208181428Y-153802857D01*
X208238571Y-153831428D01*
X208410000Y-153831428D01*
X208467142Y-153802857D01*
X208495714Y-153774285D01*
X207610000Y-153231428D02*
X207724285Y-153231428D01*
X207781428Y-153260000D01*
X207810000Y-153288571D01*
X207867142Y-153374285D01*
X207895714Y-153488571D01*
X207895714Y-153717142D01*
X207867142Y-153774285D01*
X207838571Y-153802857D01*
X207781428Y-153831428D01*
X207667142Y-153831428D01*
X207610000Y-153802857D01*
X207581428Y-153774285D01*
X207552857Y-153717142D01*
X207552857Y-153574285D01*
X207581428Y-153517142D01*
X207610000Y-153488571D01*
X207667142Y-153460000D01*
X207781428Y-153460000D01*
X207838571Y-153488571D01*
X207867142Y-153517142D01*
X207895714Y-153574285D01*
%TO.C,R62*%
X197971428Y-157739285D02*
X197685714Y-157539285D01*
X197971428Y-157396428D02*
X197371428Y-157396428D01*
X197371428Y-157625000D01*
X197400000Y-157682142D01*
X197428571Y-157710714D01*
X197485714Y-157739285D01*
X197571428Y-157739285D01*
X197628571Y-157710714D01*
X197657142Y-157682142D01*
X197685714Y-157625000D01*
X197685714Y-157396428D01*
X197371428Y-158253571D02*
X197371428Y-158139285D01*
X197400000Y-158082142D01*
X197428571Y-158053571D01*
X197514285Y-157996428D01*
X197628571Y-157967857D01*
X197857142Y-157967857D01*
X197914285Y-157996428D01*
X197942857Y-158025000D01*
X197971428Y-158082142D01*
X197971428Y-158196428D01*
X197942857Y-158253571D01*
X197914285Y-158282142D01*
X197857142Y-158310714D01*
X197714285Y-158310714D01*
X197657142Y-158282142D01*
X197628571Y-158253571D01*
X197600000Y-158196428D01*
X197600000Y-158082142D01*
X197628571Y-158025000D01*
X197657142Y-157996428D01*
X197714285Y-157967857D01*
X197428571Y-158539285D02*
X197400000Y-158567857D01*
X197371428Y-158625000D01*
X197371428Y-158767857D01*
X197400000Y-158825000D01*
X197428571Y-158853571D01*
X197485714Y-158882142D01*
X197542857Y-158882142D01*
X197628571Y-158853571D01*
X197971428Y-158510714D01*
X197971428Y-158882142D01*
D11*
%TO.C,D6*%
X206573095Y-164677380D02*
X206573095Y-163677380D01*
X206335000Y-163677380D01*
X206192142Y-163725000D01*
X206096904Y-163820238D01*
X206049285Y-163915476D01*
X206001666Y-164105952D01*
X206001666Y-164248809D01*
X206049285Y-164439285D01*
X206096904Y-164534523D01*
X206192142Y-164629761D01*
X206335000Y-164677380D01*
X206573095Y-164677380D01*
X205144523Y-163677380D02*
X205335000Y-163677380D01*
X205430238Y-163725000D01*
X205477857Y-163772619D01*
X205573095Y-163915476D01*
X205620714Y-164105952D01*
X205620714Y-164486904D01*
X205573095Y-164582142D01*
X205525476Y-164629761D01*
X205430238Y-164677380D01*
X205239761Y-164677380D01*
X205144523Y-164629761D01*
X205096904Y-164582142D01*
X205049285Y-164486904D01*
X205049285Y-164248809D01*
X205096904Y-164153571D01*
X205144523Y-164105952D01*
X205239761Y-164058333D01*
X205430238Y-164058333D01*
X205525476Y-164105952D01*
X205573095Y-164153571D01*
X205620714Y-164248809D01*
%TO.C,D1*%
X175838095Y-155452380D02*
X175838095Y-154452380D01*
X175600000Y-154452380D01*
X175457142Y-154500000D01*
X175361904Y-154595238D01*
X175314285Y-154690476D01*
X175266666Y-154880952D01*
X175266666Y-155023809D01*
X175314285Y-155214285D01*
X175361904Y-155309523D01*
X175457142Y-155404761D01*
X175600000Y-155452380D01*
X175838095Y-155452380D01*
X174314285Y-155452380D02*
X174885714Y-155452380D01*
X174600000Y-155452380D02*
X174600000Y-154452380D01*
X174695238Y-154595238D01*
X174790476Y-154690476D01*
X174885714Y-154738095D01*
%TO.C,R11*%
X191152857Y-172452380D02*
X191486190Y-171976190D01*
X191724285Y-172452380D02*
X191724285Y-171452380D01*
X191343333Y-171452380D01*
X191248095Y-171500000D01*
X191200476Y-171547619D01*
X191152857Y-171642857D01*
X191152857Y-171785714D01*
X191200476Y-171880952D01*
X191248095Y-171928571D01*
X191343333Y-171976190D01*
X191724285Y-171976190D01*
X190200476Y-172452380D02*
X190771904Y-172452380D01*
X190486190Y-172452380D02*
X190486190Y-171452380D01*
X190581428Y-171595238D01*
X190676666Y-171690476D01*
X190771904Y-171738095D01*
X189248095Y-172452380D02*
X189819523Y-172452380D01*
X189533809Y-172452380D02*
X189533809Y-171452380D01*
X189629047Y-171595238D01*
X189724285Y-171690476D01*
X189819523Y-171738095D01*
%TO.C,D3*%
X185038095Y-161227380D02*
X185038095Y-160227380D01*
X184800000Y-160227380D01*
X184657142Y-160275000D01*
X184561904Y-160370238D01*
X184514285Y-160465476D01*
X184466666Y-160655952D01*
X184466666Y-160798809D01*
X184514285Y-160989285D01*
X184561904Y-161084523D01*
X184657142Y-161179761D01*
X184800000Y-161227380D01*
X185038095Y-161227380D01*
X184133333Y-160227380D02*
X183514285Y-160227380D01*
X183847619Y-160608333D01*
X183704761Y-160608333D01*
X183609523Y-160655952D01*
X183561904Y-160703571D01*
X183514285Y-160798809D01*
X183514285Y-161036904D01*
X183561904Y-161132142D01*
X183609523Y-161179761D01*
X183704761Y-161227380D01*
X183990476Y-161227380D01*
X184085714Y-161179761D01*
X184133333Y-161132142D01*
%TO.C,C16*%
X206492857Y-161557142D02*
X206540476Y-161604761D01*
X206683333Y-161652380D01*
X206778571Y-161652380D01*
X206921428Y-161604761D01*
X207016666Y-161509523D01*
X207064285Y-161414285D01*
X207111904Y-161223809D01*
X207111904Y-161080952D01*
X207064285Y-160890476D01*
X207016666Y-160795238D01*
X206921428Y-160700000D01*
X206778571Y-160652380D01*
X206683333Y-160652380D01*
X206540476Y-160700000D01*
X206492857Y-160747619D01*
X205540476Y-161652380D02*
X206111904Y-161652380D01*
X205826190Y-161652380D02*
X205826190Y-160652380D01*
X205921428Y-160795238D01*
X206016666Y-160890476D01*
X206111904Y-160938095D01*
X204683333Y-160652380D02*
X204873809Y-160652380D01*
X204969047Y-160700000D01*
X205016666Y-160747619D01*
X205111904Y-160890476D01*
X205159523Y-161080952D01*
X205159523Y-161461904D01*
X205111904Y-161557142D01*
X205064285Y-161604761D01*
X204969047Y-161652380D01*
X204778571Y-161652380D01*
X204683333Y-161604761D01*
X204635714Y-161557142D01*
X204588095Y-161461904D01*
X204588095Y-161223809D01*
X204635714Y-161128571D01*
X204683333Y-161080952D01*
X204778571Y-161033333D01*
X204969047Y-161033333D01*
X205064285Y-161080952D01*
X205111904Y-161128571D01*
X205159523Y-161223809D01*
D12*
%TO.C,R2*%
X168825000Y-156146428D02*
X169025000Y-155860714D01*
X169167857Y-156146428D02*
X169167857Y-155546428D01*
X168939285Y-155546428D01*
X168882142Y-155575000D01*
X168853571Y-155603571D01*
X168825000Y-155660714D01*
X168825000Y-155746428D01*
X168853571Y-155803571D01*
X168882142Y-155832142D01*
X168939285Y-155860714D01*
X169167857Y-155860714D01*
X168596428Y-155603571D02*
X168567857Y-155575000D01*
X168510714Y-155546428D01*
X168367857Y-155546428D01*
X168310714Y-155575000D01*
X168282142Y-155603571D01*
X168253571Y-155660714D01*
X168253571Y-155717857D01*
X168282142Y-155803571D01*
X168625000Y-156146428D01*
X168253571Y-156146428D01*
%TO.C,R40*%
X227021428Y-163009285D02*
X226735714Y-162809285D01*
X227021428Y-162666428D02*
X226421428Y-162666428D01*
X226421428Y-162895000D01*
X226450000Y-162952142D01*
X226478571Y-162980714D01*
X226535714Y-163009285D01*
X226621428Y-163009285D01*
X226678571Y-162980714D01*
X226707142Y-162952142D01*
X226735714Y-162895000D01*
X226735714Y-162666428D01*
X226621428Y-163523571D02*
X227021428Y-163523571D01*
X226392857Y-163380714D02*
X226821428Y-163237857D01*
X226821428Y-163609285D01*
X226421428Y-163952142D02*
X226421428Y-164009285D01*
X226450000Y-164066428D01*
X226478571Y-164095000D01*
X226535714Y-164123571D01*
X226650000Y-164152142D01*
X226792857Y-164152142D01*
X226907142Y-164123571D01*
X226964285Y-164095000D01*
X226992857Y-164066428D01*
X227021428Y-164009285D01*
X227021428Y-163952142D01*
X226992857Y-163895000D01*
X226964285Y-163866428D01*
X226907142Y-163837857D01*
X226792857Y-163809285D01*
X226650000Y-163809285D01*
X226535714Y-163837857D01*
X226478571Y-163866428D01*
X226450000Y-163895000D01*
X226421428Y-163952142D01*
D14*
%TO.C,U6*%
X205647943Y-157238442D02*
X205872722Y-157238442D01*
X205899167Y-157251665D01*
X205912389Y-157264887D01*
X205925612Y-157291332D01*
X205925612Y-157344221D01*
X205912389Y-157370666D01*
X205899167Y-157383888D01*
X205872722Y-157397110D01*
X205647943Y-157397110D01*
X205647943Y-157648335D02*
X205647943Y-157595445D01*
X205661165Y-157569001D01*
X205674387Y-157555778D01*
X205714054Y-157529334D01*
X205766944Y-157516111D01*
X205872722Y-157516111D01*
X205899167Y-157529334D01*
X205912389Y-157542556D01*
X205925612Y-157569001D01*
X205925612Y-157621890D01*
X205912389Y-157648335D01*
X205899167Y-157661557D01*
X205872722Y-157674779D01*
X205806611Y-157674779D01*
X205780166Y-157661557D01*
X205766944Y-157648335D01*
X205753721Y-157621890D01*
X205753721Y-157569001D01*
X205766944Y-157542556D01*
X205780166Y-157529334D01*
X205806611Y-157516111D01*
D11*
%TO.C,C36*%
X179332142Y-146507142D02*
X179379761Y-146459523D01*
X179427380Y-146316666D01*
X179427380Y-146221428D01*
X179379761Y-146078571D01*
X179284523Y-145983333D01*
X179189285Y-145935714D01*
X178998809Y-145888095D01*
X178855952Y-145888095D01*
X178665476Y-145935714D01*
X178570238Y-145983333D01*
X178475000Y-146078571D01*
X178427380Y-146221428D01*
X178427380Y-146316666D01*
X178475000Y-146459523D01*
X178522619Y-146507142D01*
X178427380Y-146840476D02*
X178427380Y-147459523D01*
X178808333Y-147126190D01*
X178808333Y-147269047D01*
X178855952Y-147364285D01*
X178903571Y-147411904D01*
X178998809Y-147459523D01*
X179236904Y-147459523D01*
X179332142Y-147411904D01*
X179379761Y-147364285D01*
X179427380Y-147269047D01*
X179427380Y-146983333D01*
X179379761Y-146888095D01*
X179332142Y-146840476D01*
X178427380Y-148316666D02*
X178427380Y-148126190D01*
X178475000Y-148030952D01*
X178522619Y-147983333D01*
X178665476Y-147888095D01*
X178855952Y-147840476D01*
X179236904Y-147840476D01*
X179332142Y-147888095D01*
X179379761Y-147935714D01*
X179427380Y-148030952D01*
X179427380Y-148221428D01*
X179379761Y-148316666D01*
X179332142Y-148364285D01*
X179236904Y-148411904D01*
X178998809Y-148411904D01*
X178903571Y-148364285D01*
X178855952Y-148316666D01*
X178808333Y-148221428D01*
X178808333Y-148030952D01*
X178855952Y-147935714D01*
X178903571Y-147888095D01*
X178998809Y-147840476D01*
D12*
%TO.C,R17*%
X172546428Y-147364285D02*
X172260714Y-147164285D01*
X172546428Y-147021428D02*
X171946428Y-147021428D01*
X171946428Y-147250000D01*
X171975000Y-147307142D01*
X172003571Y-147335714D01*
X172060714Y-147364285D01*
X172146428Y-147364285D01*
X172203571Y-147335714D01*
X172232142Y-147307142D01*
X172260714Y-147250000D01*
X172260714Y-147021428D01*
X172546428Y-147935714D02*
X172546428Y-147592857D01*
X172546428Y-147764285D02*
X171946428Y-147764285D01*
X172032142Y-147707142D01*
X172089285Y-147650000D01*
X172117857Y-147592857D01*
X171946428Y-148135714D02*
X171946428Y-148535714D01*
X172546428Y-148278571D01*
D11*
%TO.C,R52*%
X180452380Y-124732142D02*
X179976190Y-124398809D01*
X180452380Y-124160714D02*
X179452380Y-124160714D01*
X179452380Y-124541666D01*
X179500000Y-124636904D01*
X179547619Y-124684523D01*
X179642857Y-124732142D01*
X179785714Y-124732142D01*
X179880952Y-124684523D01*
X179928571Y-124636904D01*
X179976190Y-124541666D01*
X179976190Y-124160714D01*
X179452380Y-125636904D02*
X179452380Y-125160714D01*
X179928571Y-125113095D01*
X179880952Y-125160714D01*
X179833333Y-125255952D01*
X179833333Y-125494047D01*
X179880952Y-125589285D01*
X179928571Y-125636904D01*
X180023809Y-125684523D01*
X180261904Y-125684523D01*
X180357142Y-125636904D01*
X180404761Y-125589285D01*
X180452380Y-125494047D01*
X180452380Y-125255952D01*
X180404761Y-125160714D01*
X180357142Y-125113095D01*
X179547619Y-126065476D02*
X179500000Y-126113095D01*
X179452380Y-126208333D01*
X179452380Y-126446428D01*
X179500000Y-126541666D01*
X179547619Y-126589285D01*
X179642857Y-126636904D01*
X179738095Y-126636904D01*
X179880952Y-126589285D01*
X180452380Y-126017857D01*
X180452380Y-126636904D01*
%TO.C,R70*%
X237242857Y-164877380D02*
X237576190Y-164401190D01*
X237814285Y-164877380D02*
X237814285Y-163877380D01*
X237433333Y-163877380D01*
X237338095Y-163925000D01*
X237290476Y-163972619D01*
X237242857Y-164067857D01*
X237242857Y-164210714D01*
X237290476Y-164305952D01*
X237338095Y-164353571D01*
X237433333Y-164401190D01*
X237814285Y-164401190D01*
X236909523Y-163877380D02*
X236242857Y-163877380D01*
X236671428Y-164877380D01*
X235671428Y-163877380D02*
X235576190Y-163877380D01*
X235480952Y-163925000D01*
X235433333Y-163972619D01*
X235385714Y-164067857D01*
X235338095Y-164258333D01*
X235338095Y-164496428D01*
X235385714Y-164686904D01*
X235433333Y-164782142D01*
X235480952Y-164829761D01*
X235576190Y-164877380D01*
X235671428Y-164877380D01*
X235766666Y-164829761D01*
X235814285Y-164782142D01*
X235861904Y-164686904D01*
X235909523Y-164496428D01*
X235909523Y-164258333D01*
X235861904Y-164067857D01*
X235814285Y-163972619D01*
X235766666Y-163925000D01*
X235671428Y-163877380D01*
%TO.C,D7*%
X224373095Y-164687380D02*
X224373095Y-163687380D01*
X224135000Y-163687380D01*
X223992142Y-163735000D01*
X223896904Y-163830238D01*
X223849285Y-163925476D01*
X223801666Y-164115952D01*
X223801666Y-164258809D01*
X223849285Y-164449285D01*
X223896904Y-164544523D01*
X223992142Y-164639761D01*
X224135000Y-164687380D01*
X224373095Y-164687380D01*
X223468333Y-163687380D02*
X222801666Y-163687380D01*
X223230238Y-164687380D01*
%TO.C,U14*%
X159218095Y-140212380D02*
X159218095Y-141021904D01*
X159170476Y-141117142D01*
X159122857Y-141164761D01*
X159027619Y-141212380D01*
X158837142Y-141212380D01*
X158741904Y-141164761D01*
X158694285Y-141117142D01*
X158646666Y-141021904D01*
X158646666Y-140212380D01*
X157646666Y-141212380D02*
X158218095Y-141212380D01*
X157932380Y-141212380D02*
X157932380Y-140212380D01*
X158027619Y-140355238D01*
X158122857Y-140450476D01*
X158218095Y-140498095D01*
X156789523Y-140545714D02*
X156789523Y-141212380D01*
X157027619Y-140164761D02*
X157265714Y-140879047D01*
X156646666Y-140879047D01*
%TO.C,Q4*%
X191128095Y-162053809D02*
X191090000Y-161977619D01*
X191013809Y-161901428D01*
X190899523Y-161787142D01*
X190861428Y-161710952D01*
X190861428Y-161634761D01*
X191051904Y-161672857D02*
X191013809Y-161596666D01*
X190937619Y-161520476D01*
X190785238Y-161482380D01*
X190518571Y-161482380D01*
X190366190Y-161520476D01*
X190290000Y-161596666D01*
X190251904Y-161672857D01*
X190251904Y-161825238D01*
X190290000Y-161901428D01*
X190366190Y-161977619D01*
X190518571Y-162015714D01*
X190785238Y-162015714D01*
X190937619Y-161977619D01*
X191013809Y-161901428D01*
X191051904Y-161825238D01*
X191051904Y-161672857D01*
X190518571Y-162701428D02*
X191051904Y-162701428D01*
X190213809Y-162510952D02*
X190785238Y-162320476D01*
X190785238Y-162815714D01*
%TO.C,D11*%
X224404285Y-116412380D02*
X224404285Y-115412380D01*
X224166190Y-115412380D01*
X224023333Y-115460000D01*
X223928095Y-115555238D01*
X223880476Y-115650476D01*
X223832857Y-115840952D01*
X223832857Y-115983809D01*
X223880476Y-116174285D01*
X223928095Y-116269523D01*
X224023333Y-116364761D01*
X224166190Y-116412380D01*
X224404285Y-116412380D01*
X222880476Y-116412380D02*
X223451904Y-116412380D01*
X223166190Y-116412380D02*
X223166190Y-115412380D01*
X223261428Y-115555238D01*
X223356666Y-115650476D01*
X223451904Y-115698095D01*
X221928095Y-116412380D02*
X222499523Y-116412380D01*
X222213809Y-116412380D02*
X222213809Y-115412380D01*
X222309047Y-115555238D01*
X222404285Y-115650476D01*
X222499523Y-115698095D01*
%TO.C,Q6*%
X195138095Y-165093809D02*
X195100000Y-165017619D01*
X195023809Y-164941428D01*
X194909523Y-164827142D01*
X194871428Y-164750952D01*
X194871428Y-164674761D01*
X195061904Y-164712857D02*
X195023809Y-164636666D01*
X194947619Y-164560476D01*
X194795238Y-164522380D01*
X194528571Y-164522380D01*
X194376190Y-164560476D01*
X194300000Y-164636666D01*
X194261904Y-164712857D01*
X194261904Y-164865238D01*
X194300000Y-164941428D01*
X194376190Y-165017619D01*
X194528571Y-165055714D01*
X194795238Y-165055714D01*
X194947619Y-165017619D01*
X195023809Y-164941428D01*
X195061904Y-164865238D01*
X195061904Y-164712857D01*
X194261904Y-165741428D02*
X194261904Y-165589047D01*
X194300000Y-165512857D01*
X194338095Y-165474761D01*
X194452380Y-165398571D01*
X194604761Y-165360476D01*
X194909523Y-165360476D01*
X194985714Y-165398571D01*
X195023809Y-165436666D01*
X195061904Y-165512857D01*
X195061904Y-165665238D01*
X195023809Y-165741428D01*
X194985714Y-165779523D01*
X194909523Y-165817619D01*
X194719047Y-165817619D01*
X194642857Y-165779523D01*
X194604761Y-165741428D01*
X194566666Y-165665238D01*
X194566666Y-165512857D01*
X194604761Y-165436666D01*
X194642857Y-165398571D01*
X194719047Y-165360476D01*
%TO.C,C30*%
X161237142Y-140087142D02*
X161284761Y-140039523D01*
X161332380Y-139896666D01*
X161332380Y-139801428D01*
X161284761Y-139658571D01*
X161189523Y-139563333D01*
X161094285Y-139515714D01*
X160903809Y-139468095D01*
X160760952Y-139468095D01*
X160570476Y-139515714D01*
X160475238Y-139563333D01*
X160380000Y-139658571D01*
X160332380Y-139801428D01*
X160332380Y-139896666D01*
X160380000Y-140039523D01*
X160427619Y-140087142D01*
X160332380Y-140420476D02*
X160332380Y-141039523D01*
X160713333Y-140706190D01*
X160713333Y-140849047D01*
X160760952Y-140944285D01*
X160808571Y-140991904D01*
X160903809Y-141039523D01*
X161141904Y-141039523D01*
X161237142Y-140991904D01*
X161284761Y-140944285D01*
X161332380Y-140849047D01*
X161332380Y-140563333D01*
X161284761Y-140468095D01*
X161237142Y-140420476D01*
X160332380Y-141658571D02*
X160332380Y-141753809D01*
X160380000Y-141849047D01*
X160427619Y-141896666D01*
X160522857Y-141944285D01*
X160713333Y-141991904D01*
X160951428Y-141991904D01*
X161141904Y-141944285D01*
X161237142Y-141896666D01*
X161284761Y-141849047D01*
X161332380Y-141753809D01*
X161332380Y-141658571D01*
X161284761Y-141563333D01*
X161237142Y-141515714D01*
X161141904Y-141468095D01*
X160951428Y-141420476D01*
X160713333Y-141420476D01*
X160522857Y-141468095D01*
X160427619Y-141515714D01*
X160380000Y-141563333D01*
X160332380Y-141658571D01*
D12*
%TO.C,R22*%
X196221428Y-168889285D02*
X195935714Y-168689285D01*
X196221428Y-168546428D02*
X195621428Y-168546428D01*
X195621428Y-168775000D01*
X195650000Y-168832142D01*
X195678571Y-168860714D01*
X195735714Y-168889285D01*
X195821428Y-168889285D01*
X195878571Y-168860714D01*
X195907142Y-168832142D01*
X195935714Y-168775000D01*
X195935714Y-168546428D01*
X195678571Y-169117857D02*
X195650000Y-169146428D01*
X195621428Y-169203571D01*
X195621428Y-169346428D01*
X195650000Y-169403571D01*
X195678571Y-169432142D01*
X195735714Y-169460714D01*
X195792857Y-169460714D01*
X195878571Y-169432142D01*
X196221428Y-169089285D01*
X196221428Y-169460714D01*
X195678571Y-169689285D02*
X195650000Y-169717857D01*
X195621428Y-169775000D01*
X195621428Y-169917857D01*
X195650000Y-169975000D01*
X195678571Y-170003571D01*
X195735714Y-170032142D01*
X195792857Y-170032142D01*
X195878571Y-170003571D01*
X196221428Y-169660714D01*
X196221428Y-170032142D01*
%TO.C,R24*%
X181735714Y-122433928D02*
X181935714Y-122148214D01*
X182078571Y-122433928D02*
X182078571Y-121833928D01*
X181850000Y-121833928D01*
X181792857Y-121862500D01*
X181764285Y-121891071D01*
X181735714Y-121948214D01*
X181735714Y-122033928D01*
X181764285Y-122091071D01*
X181792857Y-122119642D01*
X181850000Y-122148214D01*
X182078571Y-122148214D01*
X181507142Y-121891071D02*
X181478571Y-121862500D01*
X181421428Y-121833928D01*
X181278571Y-121833928D01*
X181221428Y-121862500D01*
X181192857Y-121891071D01*
X181164285Y-121948214D01*
X181164285Y-122005357D01*
X181192857Y-122091071D01*
X181535714Y-122433928D01*
X181164285Y-122433928D01*
X180650000Y-122033928D02*
X180650000Y-122433928D01*
X180792857Y-121805357D02*
X180935714Y-122233928D01*
X180564285Y-122233928D01*
%TO.C,R53*%
X154961428Y-139854285D02*
X154675714Y-139654285D01*
X154961428Y-139511428D02*
X154361428Y-139511428D01*
X154361428Y-139740000D01*
X154390000Y-139797142D01*
X154418571Y-139825714D01*
X154475714Y-139854285D01*
X154561428Y-139854285D01*
X154618571Y-139825714D01*
X154647142Y-139797142D01*
X154675714Y-139740000D01*
X154675714Y-139511428D01*
X154361428Y-140397142D02*
X154361428Y-140111428D01*
X154647142Y-140082857D01*
X154618571Y-140111428D01*
X154590000Y-140168571D01*
X154590000Y-140311428D01*
X154618571Y-140368571D01*
X154647142Y-140397142D01*
X154704285Y-140425714D01*
X154847142Y-140425714D01*
X154904285Y-140397142D01*
X154932857Y-140368571D01*
X154961428Y-140311428D01*
X154961428Y-140168571D01*
X154932857Y-140111428D01*
X154904285Y-140082857D01*
X154361428Y-140625714D02*
X154361428Y-140997142D01*
X154590000Y-140797142D01*
X154590000Y-140882857D01*
X154618571Y-140940000D01*
X154647142Y-140968571D01*
X154704285Y-140997142D01*
X154847142Y-140997142D01*
X154904285Y-140968571D01*
X154932857Y-140940000D01*
X154961428Y-140882857D01*
X154961428Y-140711428D01*
X154932857Y-140654285D01*
X154904285Y-140625714D01*
D11*
%TO.C,D5*%
X185688095Y-156002380D02*
X185688095Y-155002380D01*
X185450000Y-155002380D01*
X185307142Y-155050000D01*
X185211904Y-155145238D01*
X185164285Y-155240476D01*
X185116666Y-155430952D01*
X185116666Y-155573809D01*
X185164285Y-155764285D01*
X185211904Y-155859523D01*
X185307142Y-155954761D01*
X185450000Y-156002380D01*
X185688095Y-156002380D01*
X184211904Y-155002380D02*
X184688095Y-155002380D01*
X184735714Y-155478571D01*
X184688095Y-155430952D01*
X184592857Y-155383333D01*
X184354761Y-155383333D01*
X184259523Y-155430952D01*
X184211904Y-155478571D01*
X184164285Y-155573809D01*
X184164285Y-155811904D01*
X184211904Y-155907142D01*
X184259523Y-155954761D01*
X184354761Y-156002380D01*
X184592857Y-156002380D01*
X184688095Y-155954761D01*
X184735714Y-155907142D01*
D12*
%TO.C,R30*%
X220105714Y-156661428D02*
X220305714Y-156375714D01*
X220448571Y-156661428D02*
X220448571Y-156061428D01*
X220220000Y-156061428D01*
X220162857Y-156090000D01*
X220134285Y-156118571D01*
X220105714Y-156175714D01*
X220105714Y-156261428D01*
X220134285Y-156318571D01*
X220162857Y-156347142D01*
X220220000Y-156375714D01*
X220448571Y-156375714D01*
X219905714Y-156061428D02*
X219534285Y-156061428D01*
X219734285Y-156290000D01*
X219648571Y-156290000D01*
X219591428Y-156318571D01*
X219562857Y-156347142D01*
X219534285Y-156404285D01*
X219534285Y-156547142D01*
X219562857Y-156604285D01*
X219591428Y-156632857D01*
X219648571Y-156661428D01*
X219820000Y-156661428D01*
X219877142Y-156632857D01*
X219905714Y-156604285D01*
X219162857Y-156061428D02*
X219105714Y-156061428D01*
X219048571Y-156090000D01*
X219020000Y-156118571D01*
X218991428Y-156175714D01*
X218962857Y-156290000D01*
X218962857Y-156432857D01*
X218991428Y-156547142D01*
X219020000Y-156604285D01*
X219048571Y-156632857D01*
X219105714Y-156661428D01*
X219162857Y-156661428D01*
X219220000Y-156632857D01*
X219248571Y-156604285D01*
X219277142Y-156547142D01*
X219305714Y-156432857D01*
X219305714Y-156290000D01*
X219277142Y-156175714D01*
X219248571Y-156118571D01*
X219220000Y-156090000D01*
X219162857Y-156061428D01*
D11*
%TO.C,U15*%
X163732380Y-166721904D02*
X164541904Y-166721904D01*
X164637142Y-166769523D01*
X164684761Y-166817142D01*
X164732380Y-166912380D01*
X164732380Y-167102857D01*
X164684761Y-167198095D01*
X164637142Y-167245714D01*
X164541904Y-167293333D01*
X163732380Y-167293333D01*
X164732380Y-168293333D02*
X164732380Y-167721904D01*
X164732380Y-168007619D02*
X163732380Y-168007619D01*
X163875238Y-167912380D01*
X163970476Y-167817142D01*
X164018095Y-167721904D01*
X163732380Y-169198095D02*
X163732380Y-168721904D01*
X164208571Y-168674285D01*
X164160952Y-168721904D01*
X164113333Y-168817142D01*
X164113333Y-169055238D01*
X164160952Y-169150476D01*
X164208571Y-169198095D01*
X164303809Y-169245714D01*
X164541904Y-169245714D01*
X164637142Y-169198095D01*
X164684761Y-169150476D01*
X164732380Y-169055238D01*
X164732380Y-168817142D01*
X164684761Y-168721904D01*
X164637142Y-168674285D01*
D12*
%TO.C,R49*%
X174545714Y-128771428D02*
X174745714Y-128485714D01*
X174888571Y-128771428D02*
X174888571Y-128171428D01*
X174660000Y-128171428D01*
X174602857Y-128200000D01*
X174574285Y-128228571D01*
X174545714Y-128285714D01*
X174545714Y-128371428D01*
X174574285Y-128428571D01*
X174602857Y-128457142D01*
X174660000Y-128485714D01*
X174888571Y-128485714D01*
X174031428Y-128371428D02*
X174031428Y-128771428D01*
X174174285Y-128142857D02*
X174317142Y-128571428D01*
X173945714Y-128571428D01*
X173688571Y-128771428D02*
X173574285Y-128771428D01*
X173517142Y-128742857D01*
X173488571Y-128714285D01*
X173431428Y-128628571D01*
X173402857Y-128514285D01*
X173402857Y-128285714D01*
X173431428Y-128228571D01*
X173460000Y-128200000D01*
X173517142Y-128171428D01*
X173631428Y-128171428D01*
X173688571Y-128200000D01*
X173717142Y-128228571D01*
X173745714Y-128285714D01*
X173745714Y-128428571D01*
X173717142Y-128485714D01*
X173688571Y-128514285D01*
X173631428Y-128542857D01*
X173517142Y-128542857D01*
X173460000Y-128514285D01*
X173431428Y-128485714D01*
X173402857Y-128428571D01*
D11*
%TO.C,C8*%
X187316666Y-122507142D02*
X187364285Y-122554761D01*
X187507142Y-122602380D01*
X187602380Y-122602380D01*
X187745238Y-122554761D01*
X187840476Y-122459523D01*
X187888095Y-122364285D01*
X187935714Y-122173809D01*
X187935714Y-122030952D01*
X187888095Y-121840476D01*
X187840476Y-121745238D01*
X187745238Y-121650000D01*
X187602380Y-121602380D01*
X187507142Y-121602380D01*
X187364285Y-121650000D01*
X187316666Y-121697619D01*
X186745238Y-122030952D02*
X186840476Y-121983333D01*
X186888095Y-121935714D01*
X186935714Y-121840476D01*
X186935714Y-121792857D01*
X186888095Y-121697619D01*
X186840476Y-121650000D01*
X186745238Y-121602380D01*
X186554761Y-121602380D01*
X186459523Y-121650000D01*
X186411904Y-121697619D01*
X186364285Y-121792857D01*
X186364285Y-121840476D01*
X186411904Y-121935714D01*
X186459523Y-121983333D01*
X186554761Y-122030952D01*
X186745238Y-122030952D01*
X186840476Y-122078571D01*
X186888095Y-122126190D01*
X186935714Y-122221428D01*
X186935714Y-122411904D01*
X186888095Y-122507142D01*
X186840476Y-122554761D01*
X186745238Y-122602380D01*
X186554761Y-122602380D01*
X186459523Y-122554761D01*
X186411904Y-122507142D01*
X186364285Y-122411904D01*
X186364285Y-122221428D01*
X186411904Y-122126190D01*
X186459523Y-122078571D01*
X186554761Y-122030952D01*
%TO.C,C3*%
X184416666Y-178107142D02*
X184464285Y-178154761D01*
X184607142Y-178202380D01*
X184702380Y-178202380D01*
X184845238Y-178154761D01*
X184940476Y-178059523D01*
X184988095Y-177964285D01*
X185035714Y-177773809D01*
X185035714Y-177630952D01*
X184988095Y-177440476D01*
X184940476Y-177345238D01*
X184845238Y-177250000D01*
X184702380Y-177202380D01*
X184607142Y-177202380D01*
X184464285Y-177250000D01*
X184416666Y-177297619D01*
X184083333Y-177202380D02*
X183464285Y-177202380D01*
X183797619Y-177583333D01*
X183654761Y-177583333D01*
X183559523Y-177630952D01*
X183511904Y-177678571D01*
X183464285Y-177773809D01*
X183464285Y-178011904D01*
X183511904Y-178107142D01*
X183559523Y-178154761D01*
X183654761Y-178202380D01*
X183940476Y-178202380D01*
X184035714Y-178154761D01*
X184083333Y-178107142D01*
D12*
%TO.C,C12*%
X219389285Y-158364285D02*
X219417857Y-158335714D01*
X219446428Y-158250000D01*
X219446428Y-158192857D01*
X219417857Y-158107142D01*
X219360714Y-158050000D01*
X219303571Y-158021428D01*
X219189285Y-157992857D01*
X219103571Y-157992857D01*
X218989285Y-158021428D01*
X218932142Y-158050000D01*
X218875000Y-158107142D01*
X218846428Y-158192857D01*
X218846428Y-158250000D01*
X218875000Y-158335714D01*
X218903571Y-158364285D01*
X219446428Y-158935714D02*
X219446428Y-158592857D01*
X219446428Y-158764285D02*
X218846428Y-158764285D01*
X218932142Y-158707142D01*
X218989285Y-158650000D01*
X219017857Y-158592857D01*
X218903571Y-159164285D02*
X218875000Y-159192857D01*
X218846428Y-159250000D01*
X218846428Y-159392857D01*
X218875000Y-159450000D01*
X218903571Y-159478571D01*
X218960714Y-159507142D01*
X219017857Y-159507142D01*
X219103571Y-159478571D01*
X219446428Y-159135714D01*
X219446428Y-159507142D01*
%TO.C,R34*%
X218015714Y-153871428D02*
X218215714Y-153585714D01*
X218358571Y-153871428D02*
X218358571Y-153271428D01*
X218130000Y-153271428D01*
X218072857Y-153300000D01*
X218044285Y-153328571D01*
X218015714Y-153385714D01*
X218015714Y-153471428D01*
X218044285Y-153528571D01*
X218072857Y-153557142D01*
X218130000Y-153585714D01*
X218358571Y-153585714D01*
X217815714Y-153271428D02*
X217444285Y-153271428D01*
X217644285Y-153500000D01*
X217558571Y-153500000D01*
X217501428Y-153528571D01*
X217472857Y-153557142D01*
X217444285Y-153614285D01*
X217444285Y-153757142D01*
X217472857Y-153814285D01*
X217501428Y-153842857D01*
X217558571Y-153871428D01*
X217730000Y-153871428D01*
X217787142Y-153842857D01*
X217815714Y-153814285D01*
X216930000Y-153471428D02*
X216930000Y-153871428D01*
X217072857Y-153242857D02*
X217215714Y-153671428D01*
X216844285Y-153671428D01*
D11*
%TO.C,D4*%
X184963095Y-105327380D02*
X184963095Y-104327380D01*
X184725000Y-104327380D01*
X184582142Y-104375000D01*
X184486904Y-104470238D01*
X184439285Y-104565476D01*
X184391666Y-104755952D01*
X184391666Y-104898809D01*
X184439285Y-105089285D01*
X184486904Y-105184523D01*
X184582142Y-105279761D01*
X184725000Y-105327380D01*
X184963095Y-105327380D01*
X183534523Y-104660714D02*
X183534523Y-105327380D01*
X183772619Y-104279761D02*
X184010714Y-104994047D01*
X183391666Y-104994047D01*
%TO.C,U36*%
X212472380Y-145291904D02*
X213281904Y-145291904D01*
X213377142Y-145339523D01*
X213424761Y-145387142D01*
X213472380Y-145482380D01*
X213472380Y-145672857D01*
X213424761Y-145768095D01*
X213377142Y-145815714D01*
X213281904Y-145863333D01*
X212472380Y-145863333D01*
X212472380Y-146244285D02*
X212472380Y-146863333D01*
X212853333Y-146530000D01*
X212853333Y-146672857D01*
X212900952Y-146768095D01*
X212948571Y-146815714D01*
X213043809Y-146863333D01*
X213281904Y-146863333D01*
X213377142Y-146815714D01*
X213424761Y-146768095D01*
X213472380Y-146672857D01*
X213472380Y-146387142D01*
X213424761Y-146291904D01*
X213377142Y-146244285D01*
X212472380Y-147720476D02*
X212472380Y-147530000D01*
X212520000Y-147434761D01*
X212567619Y-147387142D01*
X212710476Y-147291904D01*
X212900952Y-147244285D01*
X213281904Y-147244285D01*
X213377142Y-147291904D01*
X213424761Y-147339523D01*
X213472380Y-147434761D01*
X213472380Y-147625238D01*
X213424761Y-147720476D01*
X213377142Y-147768095D01*
X213281904Y-147815714D01*
X213043809Y-147815714D01*
X212948571Y-147768095D01*
X212900952Y-147720476D01*
X212853333Y-147625238D01*
X212853333Y-147434761D01*
X212900952Y-147339523D01*
X212948571Y-147291904D01*
X213043809Y-147244285D01*
D12*
%TO.C,R33*%
X224265714Y-154756428D02*
X224465714Y-154470714D01*
X224608571Y-154756428D02*
X224608571Y-154156428D01*
X224380000Y-154156428D01*
X224322857Y-154185000D01*
X224294285Y-154213571D01*
X224265714Y-154270714D01*
X224265714Y-154356428D01*
X224294285Y-154413571D01*
X224322857Y-154442142D01*
X224380000Y-154470714D01*
X224608571Y-154470714D01*
X224065714Y-154156428D02*
X223694285Y-154156428D01*
X223894285Y-154385000D01*
X223808571Y-154385000D01*
X223751428Y-154413571D01*
X223722857Y-154442142D01*
X223694285Y-154499285D01*
X223694285Y-154642142D01*
X223722857Y-154699285D01*
X223751428Y-154727857D01*
X223808571Y-154756428D01*
X223980000Y-154756428D01*
X224037142Y-154727857D01*
X224065714Y-154699285D01*
X223494285Y-154156428D02*
X223122857Y-154156428D01*
X223322857Y-154385000D01*
X223237142Y-154385000D01*
X223180000Y-154413571D01*
X223151428Y-154442142D01*
X223122857Y-154499285D01*
X223122857Y-154642142D01*
X223151428Y-154699285D01*
X223180000Y-154727857D01*
X223237142Y-154756428D01*
X223408571Y-154756428D01*
X223465714Y-154727857D01*
X223494285Y-154699285D01*
%TO.C,R38*%
X224985714Y-162906428D02*
X225185714Y-162620714D01*
X225328571Y-162906428D02*
X225328571Y-162306428D01*
X225100000Y-162306428D01*
X225042857Y-162335000D01*
X225014285Y-162363571D01*
X224985714Y-162420714D01*
X224985714Y-162506428D01*
X225014285Y-162563571D01*
X225042857Y-162592142D01*
X225100000Y-162620714D01*
X225328571Y-162620714D01*
X224785714Y-162306428D02*
X224414285Y-162306428D01*
X224614285Y-162535000D01*
X224528571Y-162535000D01*
X224471428Y-162563571D01*
X224442857Y-162592142D01*
X224414285Y-162649285D01*
X224414285Y-162792142D01*
X224442857Y-162849285D01*
X224471428Y-162877857D01*
X224528571Y-162906428D01*
X224700000Y-162906428D01*
X224757142Y-162877857D01*
X224785714Y-162849285D01*
X224071428Y-162563571D02*
X224128571Y-162535000D01*
X224157142Y-162506428D01*
X224185714Y-162449285D01*
X224185714Y-162420714D01*
X224157142Y-162363571D01*
X224128571Y-162335000D01*
X224071428Y-162306428D01*
X223957142Y-162306428D01*
X223900000Y-162335000D01*
X223871428Y-162363571D01*
X223842857Y-162420714D01*
X223842857Y-162449285D01*
X223871428Y-162506428D01*
X223900000Y-162535000D01*
X223957142Y-162563571D01*
X224071428Y-162563571D01*
X224128571Y-162592142D01*
X224157142Y-162620714D01*
X224185714Y-162677857D01*
X224185714Y-162792142D01*
X224157142Y-162849285D01*
X224128571Y-162877857D01*
X224071428Y-162906428D01*
X223957142Y-162906428D01*
X223900000Y-162877857D01*
X223871428Y-162849285D01*
X223842857Y-162792142D01*
X223842857Y-162677857D01*
X223871428Y-162620714D01*
X223900000Y-162592142D01*
X223957142Y-162563571D01*
%TO.C,J2*%
X153172380Y-147766666D02*
X153886666Y-147766666D01*
X154029523Y-147719047D01*
X154124761Y-147623809D01*
X154172380Y-147480952D01*
X154172380Y-147385714D01*
X153267619Y-148195238D02*
X153220000Y-148242857D01*
X153172380Y-148338095D01*
X153172380Y-148576190D01*
X153220000Y-148671428D01*
X153267619Y-148719047D01*
X153362857Y-148766666D01*
X153458095Y-148766666D01*
X153600952Y-148719047D01*
X154172380Y-148147619D01*
X154172380Y-148766666D01*
D11*
%TO.C,U34*%
X179652380Y-151211904D02*
X180461904Y-151211904D01*
X180557142Y-151259523D01*
X180604761Y-151307142D01*
X180652380Y-151402380D01*
X180652380Y-151592857D01*
X180604761Y-151688095D01*
X180557142Y-151735714D01*
X180461904Y-151783333D01*
X179652380Y-151783333D01*
X179652380Y-152164285D02*
X179652380Y-152783333D01*
X180033333Y-152450000D01*
X180033333Y-152592857D01*
X180080952Y-152688095D01*
X180128571Y-152735714D01*
X180223809Y-152783333D01*
X180461904Y-152783333D01*
X180557142Y-152735714D01*
X180604761Y-152688095D01*
X180652380Y-152592857D01*
X180652380Y-152307142D01*
X180604761Y-152211904D01*
X180557142Y-152164285D01*
X179985714Y-153640476D02*
X180652380Y-153640476D01*
X179604761Y-153402380D02*
X180319047Y-153164285D01*
X180319047Y-153783333D01*
D12*
%TO.C,R41*%
X216240714Y-162756428D02*
X216440714Y-162470714D01*
X216583571Y-162756428D02*
X216583571Y-162156428D01*
X216355000Y-162156428D01*
X216297857Y-162185000D01*
X216269285Y-162213571D01*
X216240714Y-162270714D01*
X216240714Y-162356428D01*
X216269285Y-162413571D01*
X216297857Y-162442142D01*
X216355000Y-162470714D01*
X216583571Y-162470714D01*
X215726428Y-162356428D02*
X215726428Y-162756428D01*
X215869285Y-162127857D02*
X216012142Y-162556428D01*
X215640714Y-162556428D01*
X215097857Y-162756428D02*
X215440714Y-162756428D01*
X215269285Y-162756428D02*
X215269285Y-162156428D01*
X215326428Y-162242142D01*
X215383571Y-162299285D01*
X215440714Y-162327857D01*
D14*
%TO.C,U5*%
X215022943Y-157186692D02*
X215247722Y-157186692D01*
X215274167Y-157199915D01*
X215287389Y-157213137D01*
X215300612Y-157239582D01*
X215300612Y-157292471D01*
X215287389Y-157318916D01*
X215274167Y-157332138D01*
X215247722Y-157345360D01*
X215022943Y-157345360D01*
X215022943Y-157609807D02*
X215022943Y-157477584D01*
X215155166Y-157464361D01*
X215141944Y-157477584D01*
X215128721Y-157504028D01*
X215128721Y-157570140D01*
X215141944Y-157596585D01*
X215155166Y-157609807D01*
X215181611Y-157623029D01*
X215247722Y-157623029D01*
X215274167Y-157609807D01*
X215287389Y-157596585D01*
X215300612Y-157570140D01*
X215300612Y-157504028D01*
X215287389Y-157477584D01*
X215274167Y-157464361D01*
D11*
%TO.C,D8*%
X215423095Y-164687380D02*
X215423095Y-163687380D01*
X215185000Y-163687380D01*
X215042142Y-163735000D01*
X214946904Y-163830238D01*
X214899285Y-163925476D01*
X214851666Y-164115952D01*
X214851666Y-164258809D01*
X214899285Y-164449285D01*
X214946904Y-164544523D01*
X215042142Y-164639761D01*
X215185000Y-164687380D01*
X215423095Y-164687380D01*
X214280238Y-164115952D02*
X214375476Y-164068333D01*
X214423095Y-164020714D01*
X214470714Y-163925476D01*
X214470714Y-163877857D01*
X214423095Y-163782619D01*
X214375476Y-163735000D01*
X214280238Y-163687380D01*
X214089761Y-163687380D01*
X213994523Y-163735000D01*
X213946904Y-163782619D01*
X213899285Y-163877857D01*
X213899285Y-163925476D01*
X213946904Y-164020714D01*
X213994523Y-164068333D01*
X214089761Y-164115952D01*
X214280238Y-164115952D01*
X214375476Y-164163571D01*
X214423095Y-164211190D01*
X214470714Y-164306428D01*
X214470714Y-164496904D01*
X214423095Y-164592142D01*
X214375476Y-164639761D01*
X214280238Y-164687380D01*
X214089761Y-164687380D01*
X213994523Y-164639761D01*
X213946904Y-164592142D01*
X213899285Y-164496904D01*
X213899285Y-164306428D01*
X213946904Y-164211190D01*
X213994523Y-164163571D01*
X214089761Y-164115952D01*
D12*
%TO.C,R6*%
X194030000Y-177371428D02*
X194230000Y-177085714D01*
X194372857Y-177371428D02*
X194372857Y-176771428D01*
X194144285Y-176771428D01*
X194087142Y-176800000D01*
X194058571Y-176828571D01*
X194030000Y-176885714D01*
X194030000Y-176971428D01*
X194058571Y-177028571D01*
X194087142Y-177057142D01*
X194144285Y-177085714D01*
X194372857Y-177085714D01*
X193515714Y-176771428D02*
X193630000Y-176771428D01*
X193687142Y-176800000D01*
X193715714Y-176828571D01*
X193772857Y-176914285D01*
X193801428Y-177028571D01*
X193801428Y-177257142D01*
X193772857Y-177314285D01*
X193744285Y-177342857D01*
X193687142Y-177371428D01*
X193572857Y-177371428D01*
X193515714Y-177342857D01*
X193487142Y-177314285D01*
X193458571Y-177257142D01*
X193458571Y-177114285D01*
X193487142Y-177057142D01*
X193515714Y-177028571D01*
X193572857Y-177000000D01*
X193687142Y-177000000D01*
X193744285Y-177028571D01*
X193772857Y-177057142D01*
X193801428Y-177114285D01*
D11*
%TO.C,Q16*%
X198208095Y-105832857D02*
X198170000Y-105756666D01*
X198093809Y-105680476D01*
X197979523Y-105566190D01*
X197941428Y-105490000D01*
X197941428Y-105413809D01*
X198131904Y-105451904D02*
X198093809Y-105375714D01*
X198017619Y-105299523D01*
X197865238Y-105261428D01*
X197598571Y-105261428D01*
X197446190Y-105299523D01*
X197370000Y-105375714D01*
X197331904Y-105451904D01*
X197331904Y-105604285D01*
X197370000Y-105680476D01*
X197446190Y-105756666D01*
X197598571Y-105794761D01*
X197865238Y-105794761D01*
X198017619Y-105756666D01*
X198093809Y-105680476D01*
X198131904Y-105604285D01*
X198131904Y-105451904D01*
X198131904Y-106556666D02*
X198131904Y-106099523D01*
X198131904Y-106328095D02*
X197331904Y-106328095D01*
X197446190Y-106251904D01*
X197522380Y-106175714D01*
X197560476Y-106099523D01*
X197331904Y-107242380D02*
X197331904Y-107090000D01*
X197370000Y-107013809D01*
X197408095Y-106975714D01*
X197522380Y-106899523D01*
X197674761Y-106861428D01*
X197979523Y-106861428D01*
X198055714Y-106899523D01*
X198093809Y-106937619D01*
X198131904Y-107013809D01*
X198131904Y-107166190D01*
X198093809Y-107242380D01*
X198055714Y-107280476D01*
X197979523Y-107318571D01*
X197789047Y-107318571D01*
X197712857Y-107280476D01*
X197674761Y-107242380D01*
X197636666Y-107166190D01*
X197636666Y-107013809D01*
X197674761Y-106937619D01*
X197712857Y-106899523D01*
X197789047Y-106861428D01*
%TO.C,Q9*%
X194118095Y-109153809D02*
X194080000Y-109077619D01*
X194003809Y-109001428D01*
X193889523Y-108887142D01*
X193851428Y-108810952D01*
X193851428Y-108734761D01*
X194041904Y-108772857D02*
X194003809Y-108696666D01*
X193927619Y-108620476D01*
X193775238Y-108582380D01*
X193508571Y-108582380D01*
X193356190Y-108620476D01*
X193280000Y-108696666D01*
X193241904Y-108772857D01*
X193241904Y-108925238D01*
X193280000Y-109001428D01*
X193356190Y-109077619D01*
X193508571Y-109115714D01*
X193775238Y-109115714D01*
X193927619Y-109077619D01*
X194003809Y-109001428D01*
X194041904Y-108925238D01*
X194041904Y-108772857D01*
X194041904Y-109496666D02*
X194041904Y-109649047D01*
X194003809Y-109725238D01*
X193965714Y-109763333D01*
X193851428Y-109839523D01*
X193699047Y-109877619D01*
X193394285Y-109877619D01*
X193318095Y-109839523D01*
X193280000Y-109801428D01*
X193241904Y-109725238D01*
X193241904Y-109572857D01*
X193280000Y-109496666D01*
X193318095Y-109458571D01*
X193394285Y-109420476D01*
X193584761Y-109420476D01*
X193660952Y-109458571D01*
X193699047Y-109496666D01*
X193737142Y-109572857D01*
X193737142Y-109725238D01*
X193699047Y-109801428D01*
X193660952Y-109839523D01*
X193584761Y-109877619D01*
D12*
%TO.C,R9*%
X181621428Y-105675000D02*
X181335714Y-105475000D01*
X181621428Y-105332142D02*
X181021428Y-105332142D01*
X181021428Y-105560714D01*
X181050000Y-105617857D01*
X181078571Y-105646428D01*
X181135714Y-105675000D01*
X181221428Y-105675000D01*
X181278571Y-105646428D01*
X181307142Y-105617857D01*
X181335714Y-105560714D01*
X181335714Y-105332142D01*
X181621428Y-105960714D02*
X181621428Y-106075000D01*
X181592857Y-106132142D01*
X181564285Y-106160714D01*
X181478571Y-106217857D01*
X181364285Y-106246428D01*
X181135714Y-106246428D01*
X181078571Y-106217857D01*
X181050000Y-106189285D01*
X181021428Y-106132142D01*
X181021428Y-106017857D01*
X181050000Y-105960714D01*
X181078571Y-105932142D01*
X181135714Y-105903571D01*
X181278571Y-105903571D01*
X181335714Y-105932142D01*
X181364285Y-105960714D01*
X181392857Y-106017857D01*
X181392857Y-106132142D01*
X181364285Y-106189285D01*
X181335714Y-106217857D01*
X181278571Y-106246428D01*
D11*
%TO.C,U8*%
X202871904Y-127307380D02*
X202871904Y-128116904D01*
X202824285Y-128212142D01*
X202776666Y-128259761D01*
X202681428Y-128307380D01*
X202490952Y-128307380D01*
X202395714Y-128259761D01*
X202348095Y-128212142D01*
X202300476Y-128116904D01*
X202300476Y-127307380D01*
X201681428Y-127735952D02*
X201776666Y-127688333D01*
X201824285Y-127640714D01*
X201871904Y-127545476D01*
X201871904Y-127497857D01*
X201824285Y-127402619D01*
X201776666Y-127355000D01*
X201681428Y-127307380D01*
X201490952Y-127307380D01*
X201395714Y-127355000D01*
X201348095Y-127402619D01*
X201300476Y-127497857D01*
X201300476Y-127545476D01*
X201348095Y-127640714D01*
X201395714Y-127688333D01*
X201490952Y-127735952D01*
X201681428Y-127735952D01*
X201776666Y-127783571D01*
X201824285Y-127831190D01*
X201871904Y-127926428D01*
X201871904Y-128116904D01*
X201824285Y-128212142D01*
X201776666Y-128259761D01*
X201681428Y-128307380D01*
X201490952Y-128307380D01*
X201395714Y-128259761D01*
X201348095Y-128212142D01*
X201300476Y-128116904D01*
X201300476Y-127926428D01*
X201348095Y-127831190D01*
X201395714Y-127783571D01*
X201490952Y-127735952D01*
D12*
%TO.C,R58*%
X210651428Y-162979285D02*
X210365714Y-162779285D01*
X210651428Y-162636428D02*
X210051428Y-162636428D01*
X210051428Y-162865000D01*
X210080000Y-162922142D01*
X210108571Y-162950714D01*
X210165714Y-162979285D01*
X210251428Y-162979285D01*
X210308571Y-162950714D01*
X210337142Y-162922142D01*
X210365714Y-162865000D01*
X210365714Y-162636428D01*
X210051428Y-163522142D02*
X210051428Y-163236428D01*
X210337142Y-163207857D01*
X210308571Y-163236428D01*
X210280000Y-163293571D01*
X210280000Y-163436428D01*
X210308571Y-163493571D01*
X210337142Y-163522142D01*
X210394285Y-163550714D01*
X210537142Y-163550714D01*
X210594285Y-163522142D01*
X210622857Y-163493571D01*
X210651428Y-163436428D01*
X210651428Y-163293571D01*
X210622857Y-163236428D01*
X210594285Y-163207857D01*
X210308571Y-163893571D02*
X210280000Y-163836428D01*
X210251428Y-163807857D01*
X210194285Y-163779285D01*
X210165714Y-163779285D01*
X210108571Y-163807857D01*
X210080000Y-163836428D01*
X210051428Y-163893571D01*
X210051428Y-164007857D01*
X210080000Y-164065000D01*
X210108571Y-164093571D01*
X210165714Y-164122142D01*
X210194285Y-164122142D01*
X210251428Y-164093571D01*
X210280000Y-164065000D01*
X210308571Y-164007857D01*
X210308571Y-163893571D01*
X210337142Y-163836428D01*
X210365714Y-163807857D01*
X210422857Y-163779285D01*
X210537142Y-163779285D01*
X210594285Y-163807857D01*
X210622857Y-163836428D01*
X210651428Y-163893571D01*
X210651428Y-164007857D01*
X210622857Y-164065000D01*
X210594285Y-164093571D01*
X210537142Y-164122142D01*
X210422857Y-164122142D01*
X210365714Y-164093571D01*
X210337142Y-164065000D01*
X210308571Y-164007857D01*
D11*
%TO.C,C31*%
X168447142Y-148337142D02*
X168494761Y-148289523D01*
X168542380Y-148146666D01*
X168542380Y-148051428D01*
X168494761Y-147908571D01*
X168399523Y-147813333D01*
X168304285Y-147765714D01*
X168113809Y-147718095D01*
X167970952Y-147718095D01*
X167780476Y-147765714D01*
X167685238Y-147813333D01*
X167590000Y-147908571D01*
X167542380Y-148051428D01*
X167542380Y-148146666D01*
X167590000Y-148289523D01*
X167637619Y-148337142D01*
X167542380Y-148670476D02*
X167542380Y-149289523D01*
X167923333Y-148956190D01*
X167923333Y-149099047D01*
X167970952Y-149194285D01*
X168018571Y-149241904D01*
X168113809Y-149289523D01*
X168351904Y-149289523D01*
X168447142Y-149241904D01*
X168494761Y-149194285D01*
X168542380Y-149099047D01*
X168542380Y-148813333D01*
X168494761Y-148718095D01*
X168447142Y-148670476D01*
X168542380Y-150241904D02*
X168542380Y-149670476D01*
X168542380Y-149956190D02*
X167542380Y-149956190D01*
X167685238Y-149860952D01*
X167780476Y-149765714D01*
X167828095Y-149670476D01*
%TO.C,Q11*%
X190158095Y-105832857D02*
X190120000Y-105756666D01*
X190043809Y-105680476D01*
X189929523Y-105566190D01*
X189891428Y-105490000D01*
X189891428Y-105413809D01*
X190081904Y-105451904D02*
X190043809Y-105375714D01*
X189967619Y-105299523D01*
X189815238Y-105261428D01*
X189548571Y-105261428D01*
X189396190Y-105299523D01*
X189320000Y-105375714D01*
X189281904Y-105451904D01*
X189281904Y-105604285D01*
X189320000Y-105680476D01*
X189396190Y-105756666D01*
X189548571Y-105794761D01*
X189815238Y-105794761D01*
X189967619Y-105756666D01*
X190043809Y-105680476D01*
X190081904Y-105604285D01*
X190081904Y-105451904D01*
X190081904Y-106556666D02*
X190081904Y-106099523D01*
X190081904Y-106328095D02*
X189281904Y-106328095D01*
X189396190Y-106251904D01*
X189472380Y-106175714D01*
X189510476Y-106099523D01*
X190081904Y-107318571D02*
X190081904Y-106861428D01*
X190081904Y-107090000D02*
X189281904Y-107090000D01*
X189396190Y-107013809D01*
X189472380Y-106937619D01*
X189510476Y-106861428D01*
D12*
%TO.C,R16*%
X207230714Y-162796428D02*
X207430714Y-162510714D01*
X207573571Y-162796428D02*
X207573571Y-162196428D01*
X207345000Y-162196428D01*
X207287857Y-162225000D01*
X207259285Y-162253571D01*
X207230714Y-162310714D01*
X207230714Y-162396428D01*
X207259285Y-162453571D01*
X207287857Y-162482142D01*
X207345000Y-162510714D01*
X207573571Y-162510714D01*
X206659285Y-162796428D02*
X207002142Y-162796428D01*
X206830714Y-162796428D02*
X206830714Y-162196428D01*
X206887857Y-162282142D01*
X206945000Y-162339285D01*
X207002142Y-162367857D01*
X206145000Y-162196428D02*
X206259285Y-162196428D01*
X206316428Y-162225000D01*
X206345000Y-162253571D01*
X206402142Y-162339285D01*
X206430714Y-162453571D01*
X206430714Y-162682142D01*
X206402142Y-162739285D01*
X206373571Y-162767857D01*
X206316428Y-162796428D01*
X206202142Y-162796428D01*
X206145000Y-162767857D01*
X206116428Y-162739285D01*
X206087857Y-162682142D01*
X206087857Y-162539285D01*
X206116428Y-162482142D01*
X206145000Y-162453571D01*
X206202142Y-162425000D01*
X206316428Y-162425000D01*
X206373571Y-162453571D01*
X206402142Y-162482142D01*
X206430714Y-162539285D01*
D11*
%TO.C,Q5*%
X191158095Y-165153809D02*
X191120000Y-165077619D01*
X191043809Y-165001428D01*
X190929523Y-164887142D01*
X190891428Y-164810952D01*
X190891428Y-164734761D01*
X191081904Y-164772857D02*
X191043809Y-164696666D01*
X190967619Y-164620476D01*
X190815238Y-164582380D01*
X190548571Y-164582380D01*
X190396190Y-164620476D01*
X190320000Y-164696666D01*
X190281904Y-164772857D01*
X190281904Y-164925238D01*
X190320000Y-165001428D01*
X190396190Y-165077619D01*
X190548571Y-165115714D01*
X190815238Y-165115714D01*
X190967619Y-165077619D01*
X191043809Y-165001428D01*
X191081904Y-164925238D01*
X191081904Y-164772857D01*
X190281904Y-165839523D02*
X190281904Y-165458571D01*
X190662857Y-165420476D01*
X190624761Y-165458571D01*
X190586666Y-165534761D01*
X190586666Y-165725238D01*
X190624761Y-165801428D01*
X190662857Y-165839523D01*
X190739047Y-165877619D01*
X190929523Y-165877619D01*
X191005714Y-165839523D01*
X191043809Y-165801428D01*
X191081904Y-165725238D01*
X191081904Y-165534761D01*
X191043809Y-165458571D01*
X191005714Y-165420476D01*
D12*
%TO.C,R39*%
X228421428Y-162999285D02*
X228135714Y-162799285D01*
X228421428Y-162656428D02*
X227821428Y-162656428D01*
X227821428Y-162885000D01*
X227850000Y-162942142D01*
X227878571Y-162970714D01*
X227935714Y-162999285D01*
X228021428Y-162999285D01*
X228078571Y-162970714D01*
X228107142Y-162942142D01*
X228135714Y-162885000D01*
X228135714Y-162656428D01*
X227821428Y-163199285D02*
X227821428Y-163570714D01*
X228050000Y-163370714D01*
X228050000Y-163456428D01*
X228078571Y-163513571D01*
X228107142Y-163542142D01*
X228164285Y-163570714D01*
X228307142Y-163570714D01*
X228364285Y-163542142D01*
X228392857Y-163513571D01*
X228421428Y-163456428D01*
X228421428Y-163285000D01*
X228392857Y-163227857D01*
X228364285Y-163199285D01*
X228421428Y-163856428D02*
X228421428Y-163970714D01*
X228392857Y-164027857D01*
X228364285Y-164056428D01*
X228278571Y-164113571D01*
X228164285Y-164142142D01*
X227935714Y-164142142D01*
X227878571Y-164113571D01*
X227850000Y-164085000D01*
X227821428Y-164027857D01*
X227821428Y-163913571D01*
X227850000Y-163856428D01*
X227878571Y-163827857D01*
X227935714Y-163799285D01*
X228078571Y-163799285D01*
X228135714Y-163827857D01*
X228164285Y-163856428D01*
X228192857Y-163913571D01*
X228192857Y-164027857D01*
X228164285Y-164085000D01*
X228135714Y-164113571D01*
X228078571Y-164142142D01*
%TO.C,R5*%
X181671428Y-161600000D02*
X181385714Y-161400000D01*
X181671428Y-161257142D02*
X181071428Y-161257142D01*
X181071428Y-161485714D01*
X181100000Y-161542857D01*
X181128571Y-161571428D01*
X181185714Y-161600000D01*
X181271428Y-161600000D01*
X181328571Y-161571428D01*
X181357142Y-161542857D01*
X181385714Y-161485714D01*
X181385714Y-161257142D01*
X181071428Y-162142857D02*
X181071428Y-161857142D01*
X181357142Y-161828571D01*
X181328571Y-161857142D01*
X181300000Y-161914285D01*
X181300000Y-162057142D01*
X181328571Y-162114285D01*
X181357142Y-162142857D01*
X181414285Y-162171428D01*
X181557142Y-162171428D01*
X181614285Y-162142857D01*
X181642857Y-162114285D01*
X181671428Y-162057142D01*
X181671428Y-161914285D01*
X181642857Y-161857142D01*
X181614285Y-161828571D01*
D11*
%TO.C,U9*%
X193392380Y-145743095D02*
X194201904Y-145743095D01*
X194297142Y-145790714D01*
X194344761Y-145838333D01*
X194392380Y-145933571D01*
X194392380Y-146124047D01*
X194344761Y-146219285D01*
X194297142Y-146266904D01*
X194201904Y-146314523D01*
X193392380Y-146314523D01*
X194392380Y-146838333D02*
X194392380Y-147028809D01*
X194344761Y-147124047D01*
X194297142Y-147171666D01*
X194154285Y-147266904D01*
X193963809Y-147314523D01*
X193582857Y-147314523D01*
X193487619Y-147266904D01*
X193440000Y-147219285D01*
X193392380Y-147124047D01*
X193392380Y-146933571D01*
X193440000Y-146838333D01*
X193487619Y-146790714D01*
X193582857Y-146743095D01*
X193820952Y-146743095D01*
X193916190Y-146790714D01*
X193963809Y-146838333D01*
X194011428Y-146933571D01*
X194011428Y-147124047D01*
X193963809Y-147219285D01*
X193916190Y-147266904D01*
X193820952Y-147314523D01*
D12*
%TO.C,C11*%
X228564285Y-158114285D02*
X228592857Y-158085714D01*
X228621428Y-158000000D01*
X228621428Y-157942857D01*
X228592857Y-157857142D01*
X228535714Y-157800000D01*
X228478571Y-157771428D01*
X228364285Y-157742857D01*
X228278571Y-157742857D01*
X228164285Y-157771428D01*
X228107142Y-157800000D01*
X228050000Y-157857142D01*
X228021428Y-157942857D01*
X228021428Y-158000000D01*
X228050000Y-158085714D01*
X228078571Y-158114285D01*
X228621428Y-158685714D02*
X228621428Y-158342857D01*
X228621428Y-158514285D02*
X228021428Y-158514285D01*
X228107142Y-158457142D01*
X228164285Y-158400000D01*
X228192857Y-158342857D01*
X228621428Y-159257142D02*
X228621428Y-158914285D01*
X228621428Y-159085714D02*
X228021428Y-159085714D01*
X228107142Y-159028571D01*
X228164285Y-158971428D01*
X228192857Y-158914285D01*
D11*
%TO.C,D12*%
X181377380Y-145185714D02*
X180377380Y-145185714D01*
X180377380Y-145423809D01*
X180425000Y-145566666D01*
X180520238Y-145661904D01*
X180615476Y-145709523D01*
X180805952Y-145757142D01*
X180948809Y-145757142D01*
X181139285Y-145709523D01*
X181234523Y-145661904D01*
X181329761Y-145566666D01*
X181377380Y-145423809D01*
X181377380Y-145185714D01*
X181377380Y-146709523D02*
X181377380Y-146138095D01*
X181377380Y-146423809D02*
X180377380Y-146423809D01*
X180520238Y-146328571D01*
X180615476Y-146233333D01*
X180663095Y-146138095D01*
X180472619Y-147090476D02*
X180425000Y-147138095D01*
X180377380Y-147233333D01*
X180377380Y-147471428D01*
X180425000Y-147566666D01*
X180472619Y-147614285D01*
X180567857Y-147661904D01*
X180663095Y-147661904D01*
X180805952Y-147614285D01*
X181377380Y-147042857D01*
X181377380Y-147661904D01*
%TO.C,J4*%
X153502380Y-151966666D02*
X154216666Y-151966666D01*
X154359523Y-151919047D01*
X154454761Y-151823809D01*
X154502380Y-151680952D01*
X154502380Y-151585714D01*
X153835714Y-152871428D02*
X154502380Y-152871428D01*
X153454761Y-152633333D02*
X154169047Y-152395238D01*
X154169047Y-153014285D01*
%TO.C,U26*%
X236517380Y-143526904D02*
X237326904Y-143526904D01*
X237422142Y-143574523D01*
X237469761Y-143622142D01*
X237517380Y-143717380D01*
X237517380Y-143907857D01*
X237469761Y-144003095D01*
X237422142Y-144050714D01*
X237326904Y-144098333D01*
X236517380Y-144098333D01*
X236612619Y-144526904D02*
X236565000Y-144574523D01*
X236517380Y-144669761D01*
X236517380Y-144907857D01*
X236565000Y-145003095D01*
X236612619Y-145050714D01*
X236707857Y-145098333D01*
X236803095Y-145098333D01*
X236945952Y-145050714D01*
X237517380Y-144479285D01*
X237517380Y-145098333D01*
X236517380Y-145955476D02*
X236517380Y-145765000D01*
X236565000Y-145669761D01*
X236612619Y-145622142D01*
X236755476Y-145526904D01*
X236945952Y-145479285D01*
X237326904Y-145479285D01*
X237422142Y-145526904D01*
X237469761Y-145574523D01*
X237517380Y-145669761D01*
X237517380Y-145860238D01*
X237469761Y-145955476D01*
X237422142Y-146003095D01*
X237326904Y-146050714D01*
X237088809Y-146050714D01*
X236993571Y-146003095D01*
X236945952Y-145955476D01*
X236898333Y-145860238D01*
X236898333Y-145669761D01*
X236945952Y-145574523D01*
X236993571Y-145526904D01*
X237088809Y-145479285D01*
%TO.C,JP2*%
X158252380Y-151066666D02*
X158252380Y-151685714D01*
X158633333Y-151352380D01*
X158633333Y-151495238D01*
X158680952Y-151590476D01*
X158728571Y-151638095D01*
X158823809Y-151685714D01*
X159061904Y-151685714D01*
X159157142Y-151638095D01*
X159204761Y-151590476D01*
X159252380Y-151495238D01*
X159252380Y-151209523D01*
X159204761Y-151114285D01*
X159157142Y-151066666D01*
X159212380Y-156975714D02*
X159212380Y-156404285D01*
X159212380Y-156690000D02*
X158212380Y-156690000D01*
X158355238Y-156594761D01*
X158450476Y-156499523D01*
X158498095Y-156404285D01*
%TO.C,J3*%
X153662380Y-143856666D02*
X154376666Y-143856666D01*
X154519523Y-143809047D01*
X154614761Y-143713809D01*
X154662380Y-143570952D01*
X154662380Y-143475714D01*
X153662380Y-144237619D02*
X153662380Y-144856666D01*
X154043333Y-144523333D01*
X154043333Y-144666190D01*
X154090952Y-144761428D01*
X154138571Y-144809047D01*
X154233809Y-144856666D01*
X154471904Y-144856666D01*
X154567142Y-144809047D01*
X154614761Y-144761428D01*
X154662380Y-144666190D01*
X154662380Y-144380476D01*
X154614761Y-144285238D01*
X154567142Y-144237619D01*
%TO.C,J6*%
X157652380Y-137166666D02*
X158366666Y-137166666D01*
X158509523Y-137119047D01*
X158604761Y-137023809D01*
X158652380Y-136880952D01*
X158652380Y-136785714D01*
X157652380Y-138071428D02*
X157652380Y-137880952D01*
X157700000Y-137785714D01*
X157747619Y-137738095D01*
X157890476Y-137642857D01*
X158080952Y-137595238D01*
X158461904Y-137595238D01*
X158557142Y-137642857D01*
X158604761Y-137690476D01*
X158652380Y-137785714D01*
X158652380Y-137976190D01*
X158604761Y-138071428D01*
X158557142Y-138119047D01*
X158461904Y-138166666D01*
X158223809Y-138166666D01*
X158128571Y-138119047D01*
X158080952Y-138071428D01*
X158033333Y-137976190D01*
X158033333Y-137785714D01*
X158080952Y-137690476D01*
X158128571Y-137642857D01*
X158223809Y-137595238D01*
%TO.C,JP1*%
X158252380Y-142691666D02*
X158252380Y-143310714D01*
X158633333Y-142977380D01*
X158633333Y-143120238D01*
X158680952Y-143215476D01*
X158728571Y-143263095D01*
X158823809Y-143310714D01*
X159061904Y-143310714D01*
X159157142Y-143263095D01*
X159204761Y-143215476D01*
X159252380Y-143120238D01*
X159252380Y-142834523D01*
X159204761Y-142739285D01*
X159157142Y-142691666D01*
X159252380Y-148510714D02*
X159252380Y-147939285D01*
X159252380Y-148225000D02*
X158252380Y-148225000D01*
X158395238Y-148129761D01*
X158490476Y-148034523D01*
X158538095Y-147939285D01*
%TO.C,J5*%
X158277380Y-129116666D02*
X158991666Y-129116666D01*
X159134523Y-129069047D01*
X159229761Y-128973809D01*
X159277380Y-128830952D01*
X159277380Y-128735714D01*
X158277380Y-130069047D02*
X158277380Y-129592857D01*
X158753571Y-129545238D01*
X158705952Y-129592857D01*
X158658333Y-129688095D01*
X158658333Y-129926190D01*
X158705952Y-130021428D01*
X158753571Y-130069047D01*
X158848809Y-130116666D01*
X159086904Y-130116666D01*
X159182142Y-130069047D01*
X159229761Y-130021428D01*
X159277380Y-129926190D01*
X159277380Y-129688095D01*
X159229761Y-129592857D01*
X159182142Y-129545238D01*
D15*
%TO.C,J4*%
X154512500Y-154800000D02*
X154512500Y-154800000D01*
X155212500Y-154800000D02*
X155212500Y-155300000D01*
X155712500Y-149300000D02*
X155712500Y-150200000D01*
X155212500Y-149800000D02*
X155212500Y-149300000D01*
X155212500Y-155300000D02*
X155212500Y-154800000D01*
X155712500Y-149800000D02*
X154512500Y-149800000D01*
X154512500Y-154800000D02*
X154512500Y-154800000D01*
X154512500Y-149300000D02*
X154512500Y-149800000D01*
X155712500Y-149800000D02*
X155712500Y-149800000D01*
X154512500Y-149800000D02*
X155712500Y-149800000D01*
X155212500Y-149800000D02*
X155212500Y-149800000D01*
X151462500Y-154200000D02*
X151462500Y-150400000D01*
X154512500Y-149300000D02*
X154512500Y-149300000D01*
X155712500Y-154800000D02*
X155712500Y-154800000D01*
X154512500Y-154800000D02*
X155712500Y-154800000D01*
X153362500Y-149300000D02*
X155712500Y-149300000D01*
X154512500Y-155300000D02*
X154512500Y-154800000D01*
X155212500Y-155300000D02*
X155212500Y-155300000D01*
X154512500Y-149800000D02*
X154512500Y-149300000D01*
X155212500Y-149300000D02*
X155212500Y-149300000D01*
X154512500Y-149800000D02*
X154512500Y-149800000D01*
X155212500Y-154800000D02*
X155212500Y-154800000D01*
X154512500Y-149800000D02*
X154512500Y-149800000D01*
X155712500Y-154800000D02*
X154512500Y-154800000D01*
X155212500Y-149300000D02*
X155212500Y-149800000D01*
X154512500Y-154800000D02*
X154512500Y-155300000D01*
X153362500Y-155300000D02*
X155712500Y-155300000D01*
X155712500Y-155300000D02*
X155712500Y-154400000D01*
X154512500Y-155300000D02*
X154512500Y-155300000D01*
X156537500Y-154800000D02*
G75*
G03*
X156537500Y-154800000I-250000J0D01*
G01*
D16*
%TO.C,U26*%
X249425000Y-134375000D02*
X249425000Y-155175000D01*
X228405000Y-139925000D02*
X228405000Y-138925000D01*
X233025000Y-155175000D02*
X222325000Y-155175000D01*
X228465000Y-149725000D02*
X228465000Y-150725000D01*
X235775000Y-134375000D02*
X249425000Y-134375000D01*
X222325000Y-134375000D02*
X233025000Y-134375000D01*
X249425000Y-155175000D02*
X235775000Y-155175000D01*
X222325000Y-142175000D02*
X222325000Y-147375000D01*
X228905000Y-139425000D02*
X227905000Y-139425000D01*
X222325000Y-155175000D02*
X222325000Y-153025000D01*
X222325000Y-136525000D02*
X222325000Y-134375000D01*
D15*
%TO.C,JP2*%
X159800000Y-155400000D02*
X159800000Y-152600000D01*
X158500000Y-156050000D02*
X159100000Y-156050000D01*
X159100000Y-151950000D02*
X158500000Y-151950000D01*
X157800000Y-152600000D02*
X157800000Y-155400000D01*
X159100000Y-156050000D02*
G75*
G03*
X159800000Y-155350000I1J699999D01*
G01*
X157800000Y-155350000D02*
G75*
G03*
X158500000Y-156050000I699999J-1D01*
G01*
X159800000Y-152650000D02*
G75*
G03*
X159100000Y-151950000I-700000J0D01*
G01*
X158500000Y-151950000D02*
G75*
G03*
X157800000Y-152650000I0J-700000D01*
G01*
%TO.C,J3*%
X154612500Y-146700000D02*
X155812500Y-146700000D01*
X155312500Y-146700000D02*
X155312500Y-147200000D01*
X154612500Y-147200000D02*
X154612500Y-146700000D01*
X155812500Y-146700000D02*
X155812500Y-146700000D01*
X155312500Y-146700000D02*
X155312500Y-146700000D01*
X155812500Y-141700000D02*
X155812500Y-141700000D01*
X153462500Y-147200000D02*
X155812500Y-147200000D01*
X153462500Y-141200000D02*
X155812500Y-141200000D01*
X154612500Y-141700000D02*
X154612500Y-141700000D01*
X155312500Y-147200000D02*
X155312500Y-146700000D01*
X154612500Y-146700000D02*
X154612500Y-147200000D01*
X154612500Y-146700000D02*
X154612500Y-146700000D01*
X155812500Y-147200000D02*
X155812500Y-146300000D01*
X155812500Y-146700000D02*
X154612500Y-146700000D01*
X155312500Y-141200000D02*
X155312500Y-141700000D01*
X154612500Y-141200000D02*
X154612500Y-141200000D01*
X155312500Y-141200000D02*
X155312500Y-141200000D01*
X151562500Y-146100000D02*
X151562500Y-142300000D01*
X154612500Y-141700000D02*
X154612500Y-141700000D01*
X154612500Y-141700000D02*
X155812500Y-141700000D01*
X155812500Y-141200000D02*
X155812500Y-142100000D01*
X154612500Y-141700000D02*
X154612500Y-141200000D01*
X155312500Y-141700000D02*
X155312500Y-141200000D01*
X154612500Y-147200000D02*
X154612500Y-147200000D01*
X155812500Y-141700000D02*
X154612500Y-141700000D01*
X155312500Y-141700000D02*
X155312500Y-141700000D01*
X154612500Y-141200000D02*
X154612500Y-141700000D01*
X155312500Y-147200000D02*
X155312500Y-147200000D01*
X154612500Y-146700000D02*
X154612500Y-146700000D01*
X156637500Y-146700000D02*
G75*
G03*
X156637500Y-146700000I-250000J0D01*
G01*
%TO.C,J6*%
X155812500Y-138500000D02*
X154612500Y-138500000D01*
X155312500Y-138500000D02*
X155312500Y-138500000D01*
X154612500Y-139000000D02*
X154612500Y-139000000D01*
X151562500Y-137900000D02*
X151562500Y-134100000D01*
X155312500Y-133000000D02*
X155312500Y-133000000D01*
X155312500Y-138500000D02*
X155312500Y-139000000D01*
X154612500Y-133500000D02*
X154612500Y-133000000D01*
X155812500Y-133000000D02*
X155812500Y-133900000D01*
X153462500Y-133000000D02*
X155812500Y-133000000D01*
X155812500Y-133500000D02*
X154612500Y-133500000D01*
X154612500Y-138500000D02*
X154612500Y-138500000D01*
X155812500Y-139000000D02*
X155812500Y-138100000D01*
X154612500Y-133000000D02*
X154612500Y-133000000D01*
X154612500Y-138500000D02*
X154612500Y-138500000D01*
X154612500Y-133500000D02*
X155812500Y-133500000D01*
X154612500Y-133500000D02*
X154612500Y-133500000D01*
X154612500Y-133500000D02*
X154612500Y-133500000D01*
X154612500Y-133000000D02*
X154612500Y-133500000D01*
X155312500Y-139000000D02*
X155312500Y-138500000D01*
X155312500Y-133500000D02*
X155312500Y-133000000D01*
X154612500Y-138500000D02*
X155812500Y-138500000D01*
X155812500Y-138500000D02*
X155812500Y-138500000D01*
X155312500Y-133000000D02*
X155312500Y-133500000D01*
X155812500Y-133500000D02*
X155812500Y-133500000D01*
X155312500Y-139000000D02*
X155312500Y-139000000D01*
X154612500Y-138500000D02*
X154612500Y-139000000D01*
X155312500Y-133500000D02*
X155312500Y-133500000D01*
X154612500Y-139000000D02*
X154612500Y-138500000D01*
X153462500Y-139000000D02*
X155812500Y-139000000D01*
X156637500Y-138500000D02*
G75*
G03*
X156637500Y-138500000I-250000J0D01*
G01*
%TO.C,JP1*%
X158500000Y-147675000D02*
X159100000Y-147675000D01*
X159100000Y-143575000D02*
X158500000Y-143575000D01*
X157800000Y-144225000D02*
X157800000Y-147025000D01*
X159800000Y-147025000D02*
X159800000Y-144225000D01*
X157800000Y-146975000D02*
G75*
G03*
X158500000Y-147675000I699999J-1D01*
G01*
X159100000Y-147675000D02*
G75*
G03*
X159800000Y-146975000I1J699999D01*
G01*
X159800000Y-144275000D02*
G75*
G03*
X159100000Y-143575000I-700000J0D01*
G01*
X158500000Y-143575000D02*
G75*
G03*
X157800000Y-144275000I0J-700000D01*
G01*
%TO.C,J5*%
X154612500Y-124900000D02*
X154612500Y-124900000D01*
X155812500Y-130400000D02*
X155812500Y-130400000D01*
X155312500Y-124900000D02*
X155312500Y-125400000D01*
X153462500Y-130900000D02*
X155812500Y-130900000D01*
X155812500Y-130400000D02*
X154612500Y-130400000D01*
X155312500Y-125400000D02*
X155312500Y-124900000D01*
X154612500Y-130400000D02*
X154612500Y-130400000D01*
X154612500Y-130400000D02*
X155812500Y-130400000D01*
X154612500Y-125400000D02*
X154612500Y-124900000D01*
X155312500Y-125400000D02*
X155312500Y-125400000D01*
X155812500Y-124900000D02*
X155812500Y-125800000D01*
X155312500Y-130400000D02*
X155312500Y-130400000D01*
X154612500Y-130900000D02*
X154612500Y-130400000D01*
X155312500Y-130400000D02*
X155312500Y-130900000D01*
X155812500Y-125400000D02*
X154612500Y-125400000D01*
X153462500Y-124900000D02*
X155812500Y-124900000D01*
X154612500Y-130400000D02*
X154612500Y-130900000D01*
X154612500Y-124900000D02*
X154612500Y-125400000D01*
X154612500Y-125400000D02*
X154612500Y-125400000D01*
X154612500Y-130400000D02*
X154612500Y-130400000D01*
X155812500Y-130900000D02*
X155812500Y-130000000D01*
X155312500Y-130900000D02*
X155312500Y-130400000D01*
X155312500Y-130900000D02*
X155312500Y-130900000D01*
X151562500Y-129800000D02*
X151562500Y-126000000D01*
X155312500Y-124900000D02*
X155312500Y-124900000D01*
X155812500Y-125400000D02*
X155812500Y-125400000D01*
X154612500Y-125400000D02*
X155812500Y-125400000D01*
X154612500Y-130900000D02*
X154612500Y-130900000D01*
X154612500Y-125400000D02*
X154612500Y-125400000D01*
X156637500Y-130400000D02*
G75*
G03*
X156637500Y-130400000I-250000J0D01*
G01*
%TD*%
M02*
