%TF.GenerationSoftware,KiCad,Pcbnew,(6.0.10-0)*%
%TF.CreationDate,2023-02-23T20:38:24-08:00*%
%TF.ProjectId,1.0,312e302e-6b69-4636-9164-5f7063625858,rev?*%
%TF.SameCoordinates,Original*%
%TF.FileFunction,Paste,Bot*%
%TF.FilePolarity,Positive*%
%FSLAX46Y46*%
G04 Gerber Fmt 4.6, Leading zero omitted, Abs format (unit mm)*
G04 Created by KiCad (PCBNEW (6.0.10-0)) date 2023-02-23 20:38:24*
%MOMM*%
%LPD*%
G01*
G04 APERTURE LIST*
%ADD10R,2.000000X2.000000*%
%ADD11R,1.800000X1.200000*%
%ADD12R,1.550000X0.600000*%
%ADD13R,5.000000X4.000000*%
G04 APERTURE END LIST*
D10*
%TO.C,TP11*%
X163200000Y-146400000D03*
%TD*%
D11*
%TO.C,J4*%
X152162500Y-155100000D03*
X152162500Y-149500000D03*
D12*
X156037500Y-153800000D03*
X156037500Y-152800000D03*
X156037500Y-151800000D03*
X156037500Y-150800000D03*
%TD*%
D13*
%TO.C,U27*%
X282510831Y-136805000D03*
X294110831Y-136805000D03*
X282510831Y-103405000D03*
X288310831Y-103405000D03*
X294110831Y-103405000D03*
%TD*%
%TO.C,U32*%
X294219169Y-143505000D03*
X282619169Y-143505000D03*
X294219169Y-176905000D03*
X288419169Y-176905000D03*
X282619169Y-176905000D03*
%TD*%
%TO.C,U33*%
X317819169Y-143355000D03*
X306219169Y-143355000D03*
X317819169Y-176755000D03*
X312019169Y-176755000D03*
X306219169Y-176755000D03*
%TD*%
%TO.C,U31*%
X270420831Y-143555000D03*
X258820831Y-143555000D03*
X270420831Y-176955000D03*
X264620831Y-176955000D03*
X258820831Y-176955000D03*
%TD*%
D10*
%TO.C,TP13*%
X163200000Y-138850000D03*
%TD*%
D13*
%TO.C,U29*%
X329526662Y-136745000D03*
X341126662Y-136745000D03*
X329526662Y-103345000D03*
X335326662Y-103345000D03*
X341126662Y-103345000D03*
%TD*%
%TO.C,U26*%
X258805831Y-136845000D03*
X270405831Y-136845000D03*
X258805831Y-103445000D03*
X264605831Y-103445000D03*
X270405831Y-103445000D03*
%TD*%
D10*
%TO.C,TP5*%
X153560000Y-116570000D03*
%TD*%
%TO.C,TP6*%
X153560000Y-118770000D03*
%TD*%
%TO.C,TP4*%
X169875000Y-146400000D03*
%TD*%
D11*
%TO.C,J3*%
X152262500Y-147000000D03*
X152262500Y-141400000D03*
D12*
X156137500Y-145700000D03*
X156137500Y-144700000D03*
X156137500Y-143700000D03*
X156137500Y-142700000D03*
%TD*%
D13*
%TO.C,U30*%
X341150000Y-143400000D03*
X329550000Y-143400000D03*
X341150000Y-176800000D03*
X335350000Y-176800000D03*
X329550000Y-176800000D03*
%TD*%
D10*
%TO.C,TP7*%
X169875000Y-148800000D03*
%TD*%
%TO.C,TP9*%
X153570000Y-121060000D03*
%TD*%
%TO.C,TP12*%
X167050000Y-144000000D03*
%TD*%
%TO.C,TP3*%
X167050000Y-146400000D03*
%TD*%
%TO.C,TP14*%
X163200000Y-144000000D03*
%TD*%
%TO.C,TP10*%
X153560000Y-114370000D03*
%TD*%
D13*
%TO.C,U28*%
X306188338Y-136885000D03*
X317788338Y-136885000D03*
X306188338Y-103485000D03*
X311988338Y-103485000D03*
X317788338Y-103485000D03*
%TD*%
D10*
%TO.C,TP15*%
X163225000Y-148800000D03*
%TD*%
%TO.C,TP16*%
X187500000Y-140000000D03*
%TD*%
D11*
%TO.C,J6*%
X152262500Y-138800000D03*
X152262500Y-133200000D03*
D12*
X156137500Y-137500000D03*
X156137500Y-136500000D03*
X156137500Y-135500000D03*
X156137500Y-134500000D03*
%TD*%
D10*
%TO.C,TP8*%
X169900000Y-144025000D03*
%TD*%
D11*
%TO.C,J5*%
X152262500Y-130700000D03*
X152262500Y-125100000D03*
D12*
X156137500Y-129400000D03*
X156137500Y-128400000D03*
X156137500Y-127400000D03*
X156137500Y-126400000D03*
%TD*%
M02*
