%TF.GenerationSoftware,KiCad,Pcbnew,(6.0.10-0)*%
%TF.CreationDate,2023-02-23T20:38:24-08:00*%
%TF.ProjectId,1.0,312e302e-6b69-4636-9164-5f7063625858,rev?*%
%TF.SameCoordinates,Original*%
%TF.FileFunction,Legend,Top*%
%TF.FilePolarity,Positive*%
%FSLAX46Y46*%
G04 Gerber Fmt 4.6, Leading zero omitted, Abs format (unit mm)*
G04 Created by KiCad (PCBNEW (6.0.10-0)) date 2023-02-23 20:38:24*
%MOMM*%
%LPD*%
G01*
G04 APERTURE LIST*
%ADD10C,0.150000*%
%ADD11C,0.100000*%
%ADD12C,0.254000*%
%ADD13C,0.050000*%
%ADD14C,0.069417*%
%ADD15C,0.120000*%
%ADD16C,0.127000*%
%ADD17C,0.200000*%
%ADD18C,0.250000*%
G04 APERTURE END LIST*
D10*
%TO.C,U22*%
X226652380Y-109888095D02*
X227461904Y-109888095D01*
X227557142Y-109840476D01*
X227604761Y-109792857D01*
X227652380Y-109697619D01*
X227652380Y-109507142D01*
X227604761Y-109411904D01*
X227557142Y-109364285D01*
X227461904Y-109316666D01*
X226652380Y-109316666D01*
X226747619Y-108888095D02*
X226700000Y-108840476D01*
X226652380Y-108745238D01*
X226652380Y-108507142D01*
X226700000Y-108411904D01*
X226747619Y-108364285D01*
X226842857Y-108316666D01*
X226938095Y-108316666D01*
X227080952Y-108364285D01*
X227652380Y-108935714D01*
X227652380Y-108316666D01*
X226747619Y-107935714D02*
X226700000Y-107888095D01*
X226652380Y-107792857D01*
X226652380Y-107554761D01*
X226700000Y-107459523D01*
X226747619Y-107411904D01*
X226842857Y-107364285D01*
X226938095Y-107364285D01*
X227080952Y-107411904D01*
X227652380Y-107983333D01*
X227652380Y-107364285D01*
X227207142Y-106771428D02*
X227207142Y-105628571D01*
X227207142Y-111671428D02*
X227207142Y-110528571D01*
X227778571Y-111100000D02*
X226635714Y-111100000D01*
%TO.C,C22*%
X214007142Y-120692857D02*
X214054761Y-120740476D01*
X214102380Y-120883333D01*
X214102380Y-120978571D01*
X214054761Y-121121428D01*
X213959523Y-121216666D01*
X213864285Y-121264285D01*
X213673809Y-121311904D01*
X213530952Y-121311904D01*
X213340476Y-121264285D01*
X213245238Y-121216666D01*
X213150000Y-121121428D01*
X213102380Y-120978571D01*
X213102380Y-120883333D01*
X213150000Y-120740476D01*
X213197619Y-120692857D01*
X213197619Y-120311904D02*
X213150000Y-120264285D01*
X213102380Y-120169047D01*
X213102380Y-119930952D01*
X213150000Y-119835714D01*
X213197619Y-119788095D01*
X213292857Y-119740476D01*
X213388095Y-119740476D01*
X213530952Y-119788095D01*
X214102380Y-120359523D01*
X214102380Y-119740476D01*
X213197619Y-119359523D02*
X213150000Y-119311904D01*
X213102380Y-119216666D01*
X213102380Y-118978571D01*
X213150000Y-118883333D01*
X213197619Y-118835714D01*
X213292857Y-118788095D01*
X213388095Y-118788095D01*
X213530952Y-118835714D01*
X214102380Y-119407142D01*
X214102380Y-118788095D01*
D11*
%TO.C,R18*%
X171096428Y-145610714D02*
X170810714Y-145810714D01*
X171096428Y-145953571D02*
X170496428Y-145953571D01*
X170496428Y-145725000D01*
X170525000Y-145667857D01*
X170553571Y-145639285D01*
X170610714Y-145610714D01*
X170696428Y-145610714D01*
X170753571Y-145639285D01*
X170782142Y-145667857D01*
X170810714Y-145725000D01*
X170810714Y-145953571D01*
X171096428Y-145039285D02*
X171096428Y-145382142D01*
X171096428Y-145210714D02*
X170496428Y-145210714D01*
X170582142Y-145267857D01*
X170639285Y-145325000D01*
X170667857Y-145382142D01*
X170753571Y-144696428D02*
X170725000Y-144753571D01*
X170696428Y-144782142D01*
X170639285Y-144810714D01*
X170610714Y-144810714D01*
X170553571Y-144782142D01*
X170525000Y-144753571D01*
X170496428Y-144696428D01*
X170496428Y-144582142D01*
X170525000Y-144525000D01*
X170553571Y-144496428D01*
X170610714Y-144467857D01*
X170639285Y-144467857D01*
X170696428Y-144496428D01*
X170725000Y-144525000D01*
X170753571Y-144582142D01*
X170753571Y-144696428D01*
X170782142Y-144753571D01*
X170810714Y-144782142D01*
X170867857Y-144810714D01*
X170982142Y-144810714D01*
X171039285Y-144782142D01*
X171067857Y-144753571D01*
X171096428Y-144696428D01*
X171096428Y-144582142D01*
X171067857Y-144525000D01*
X171039285Y-144496428D01*
X170982142Y-144467857D01*
X170867857Y-144467857D01*
X170810714Y-144496428D01*
X170782142Y-144525000D01*
X170753571Y-144582142D01*
D10*
%TO.C,C29*%
X227547142Y-149587142D02*
X227499523Y-149634761D01*
X227356666Y-149682380D01*
X227261428Y-149682380D01*
X227118571Y-149634761D01*
X227023333Y-149539523D01*
X226975714Y-149444285D01*
X226928095Y-149253809D01*
X226928095Y-149110952D01*
X226975714Y-148920476D01*
X227023333Y-148825238D01*
X227118571Y-148730000D01*
X227261428Y-148682380D01*
X227356666Y-148682380D01*
X227499523Y-148730000D01*
X227547142Y-148777619D01*
X227928095Y-148777619D02*
X227975714Y-148730000D01*
X228070952Y-148682380D01*
X228309047Y-148682380D01*
X228404285Y-148730000D01*
X228451904Y-148777619D01*
X228499523Y-148872857D01*
X228499523Y-148968095D01*
X228451904Y-149110952D01*
X227880476Y-149682380D01*
X228499523Y-149682380D01*
X228975714Y-149682380D02*
X229166190Y-149682380D01*
X229261428Y-149634761D01*
X229309047Y-149587142D01*
X229404285Y-149444285D01*
X229451904Y-149253809D01*
X229451904Y-148872857D01*
X229404285Y-148777619D01*
X229356666Y-148730000D01*
X229261428Y-148682380D01*
X229070952Y-148682380D01*
X228975714Y-148730000D01*
X228928095Y-148777619D01*
X228880476Y-148872857D01*
X228880476Y-149110952D01*
X228928095Y-149206190D01*
X228975714Y-149253809D01*
X229070952Y-149301428D01*
X229261428Y-149301428D01*
X229356666Y-149253809D01*
X229404285Y-149206190D01*
X229451904Y-149110952D01*
%TO.C,R51*%
X179002380Y-128042857D02*
X178526190Y-128376190D01*
X179002380Y-128614285D02*
X178002380Y-128614285D01*
X178002380Y-128233333D01*
X178050000Y-128138095D01*
X178097619Y-128090476D01*
X178192857Y-128042857D01*
X178335714Y-128042857D01*
X178430952Y-128090476D01*
X178478571Y-128138095D01*
X178526190Y-128233333D01*
X178526190Y-128614285D01*
X178002380Y-127138095D02*
X178002380Y-127614285D01*
X178478571Y-127661904D01*
X178430952Y-127614285D01*
X178383333Y-127519047D01*
X178383333Y-127280952D01*
X178430952Y-127185714D01*
X178478571Y-127138095D01*
X178573809Y-127090476D01*
X178811904Y-127090476D01*
X178907142Y-127138095D01*
X178954761Y-127185714D01*
X179002380Y-127280952D01*
X179002380Y-127519047D01*
X178954761Y-127614285D01*
X178907142Y-127661904D01*
X179002380Y-126138095D02*
X179002380Y-126709523D01*
X179002380Y-126423809D02*
X178002380Y-126423809D01*
X178145238Y-126519047D01*
X178240476Y-126614285D01*
X178288095Y-126709523D01*
%TO.C,D2*%
X174488904Y-157357380D02*
X174488904Y-156357380D01*
X174727000Y-156357380D01*
X174869857Y-156405000D01*
X174965095Y-156500238D01*
X175012714Y-156595476D01*
X175060333Y-156785952D01*
X175060333Y-156928809D01*
X175012714Y-157119285D01*
X174965095Y-157214523D01*
X174869857Y-157309761D01*
X174727000Y-157357380D01*
X174488904Y-157357380D01*
X175441285Y-156452619D02*
X175488904Y-156405000D01*
X175584142Y-156357380D01*
X175822238Y-156357380D01*
X175917476Y-156405000D01*
X175965095Y-156452619D01*
X176012714Y-156547857D01*
X176012714Y-156643095D01*
X175965095Y-156785952D01*
X175393666Y-157357380D01*
X176012714Y-157357380D01*
D11*
%TO.C,R1*%
X168225000Y-156096428D02*
X168025000Y-155810714D01*
X167882142Y-156096428D02*
X167882142Y-155496428D01*
X168110714Y-155496428D01*
X168167857Y-155525000D01*
X168196428Y-155553571D01*
X168225000Y-155610714D01*
X168225000Y-155696428D01*
X168196428Y-155753571D01*
X168167857Y-155782142D01*
X168110714Y-155810714D01*
X167882142Y-155810714D01*
X168796428Y-156096428D02*
X168453571Y-156096428D01*
X168625000Y-156096428D02*
X168625000Y-155496428D01*
X168567857Y-155582142D01*
X168510714Y-155639285D01*
X168453571Y-155667857D01*
%TO.C,R45*%
X210589285Y-115996428D02*
X210389285Y-115710714D01*
X210246428Y-115996428D02*
X210246428Y-115396428D01*
X210475000Y-115396428D01*
X210532142Y-115425000D01*
X210560714Y-115453571D01*
X210589285Y-115510714D01*
X210589285Y-115596428D01*
X210560714Y-115653571D01*
X210532142Y-115682142D01*
X210475000Y-115710714D01*
X210246428Y-115710714D01*
X211103571Y-115596428D02*
X211103571Y-115996428D01*
X210960714Y-115367857D02*
X210817857Y-115796428D01*
X211189285Y-115796428D01*
X211703571Y-115396428D02*
X211417857Y-115396428D01*
X211389285Y-115682142D01*
X211417857Y-115653571D01*
X211475000Y-115625000D01*
X211617857Y-115625000D01*
X211675000Y-115653571D01*
X211703571Y-115682142D01*
X211732142Y-115739285D01*
X211732142Y-115882142D01*
X211703571Y-115939285D01*
X211675000Y-115967857D01*
X211617857Y-115996428D01*
X211475000Y-115996428D01*
X211417857Y-115967857D01*
X211389285Y-115939285D01*
D10*
%TO.C,C20*%
X221182142Y-138632142D02*
X221134523Y-138679761D01*
X220991666Y-138727380D01*
X220896428Y-138727380D01*
X220753571Y-138679761D01*
X220658333Y-138584523D01*
X220610714Y-138489285D01*
X220563095Y-138298809D01*
X220563095Y-138155952D01*
X220610714Y-137965476D01*
X220658333Y-137870238D01*
X220753571Y-137775000D01*
X220896428Y-137727380D01*
X220991666Y-137727380D01*
X221134523Y-137775000D01*
X221182142Y-137822619D01*
X221563095Y-137822619D02*
X221610714Y-137775000D01*
X221705952Y-137727380D01*
X221944047Y-137727380D01*
X222039285Y-137775000D01*
X222086904Y-137822619D01*
X222134523Y-137917857D01*
X222134523Y-138013095D01*
X222086904Y-138155952D01*
X221515476Y-138727380D01*
X222134523Y-138727380D01*
X222753571Y-137727380D02*
X222848809Y-137727380D01*
X222944047Y-137775000D01*
X222991666Y-137822619D01*
X223039285Y-137917857D01*
X223086904Y-138108333D01*
X223086904Y-138346428D01*
X223039285Y-138536904D01*
X222991666Y-138632142D01*
X222944047Y-138679761D01*
X222848809Y-138727380D01*
X222753571Y-138727380D01*
X222658333Y-138679761D01*
X222610714Y-138632142D01*
X222563095Y-138536904D01*
X222515476Y-138346428D01*
X222515476Y-138108333D01*
X222563095Y-137917857D01*
X222610714Y-137822619D01*
X222658333Y-137775000D01*
X222753571Y-137727380D01*
%TO.C,R25*%
X189857142Y-122777380D02*
X189523809Y-122301190D01*
X189285714Y-122777380D02*
X189285714Y-121777380D01*
X189666666Y-121777380D01*
X189761904Y-121825000D01*
X189809523Y-121872619D01*
X189857142Y-121967857D01*
X189857142Y-122110714D01*
X189809523Y-122205952D01*
X189761904Y-122253571D01*
X189666666Y-122301190D01*
X189285714Y-122301190D01*
X190238095Y-121872619D02*
X190285714Y-121825000D01*
X190380952Y-121777380D01*
X190619047Y-121777380D01*
X190714285Y-121825000D01*
X190761904Y-121872619D01*
X190809523Y-121967857D01*
X190809523Y-122063095D01*
X190761904Y-122205952D01*
X190190476Y-122777380D01*
X190809523Y-122777380D01*
X191714285Y-121777380D02*
X191238095Y-121777380D01*
X191190476Y-122253571D01*
X191238095Y-122205952D01*
X191333333Y-122158333D01*
X191571428Y-122158333D01*
X191666666Y-122205952D01*
X191714285Y-122253571D01*
X191761904Y-122348809D01*
X191761904Y-122586904D01*
X191714285Y-122682142D01*
X191666666Y-122729761D01*
X191571428Y-122777380D01*
X191333333Y-122777380D01*
X191238095Y-122729761D01*
X191190476Y-122682142D01*
%TO.C,C14*%
X223957142Y-159897142D02*
X223909523Y-159944761D01*
X223766666Y-159992380D01*
X223671428Y-159992380D01*
X223528571Y-159944761D01*
X223433333Y-159849523D01*
X223385714Y-159754285D01*
X223338095Y-159563809D01*
X223338095Y-159420952D01*
X223385714Y-159230476D01*
X223433333Y-159135238D01*
X223528571Y-159040000D01*
X223671428Y-158992380D01*
X223766666Y-158992380D01*
X223909523Y-159040000D01*
X223957142Y-159087619D01*
X224909523Y-159992380D02*
X224338095Y-159992380D01*
X224623809Y-159992380D02*
X224623809Y-158992380D01*
X224528571Y-159135238D01*
X224433333Y-159230476D01*
X224338095Y-159278095D01*
X225766666Y-159325714D02*
X225766666Y-159992380D01*
X225528571Y-158944761D02*
X225290476Y-159659047D01*
X225909523Y-159659047D01*
%TO.C,C32*%
X157157142Y-148542857D02*
X157204761Y-148590476D01*
X157252380Y-148733333D01*
X157252380Y-148828571D01*
X157204761Y-148971428D01*
X157109523Y-149066666D01*
X157014285Y-149114285D01*
X156823809Y-149161904D01*
X156680952Y-149161904D01*
X156490476Y-149114285D01*
X156395238Y-149066666D01*
X156300000Y-148971428D01*
X156252380Y-148828571D01*
X156252380Y-148733333D01*
X156300000Y-148590476D01*
X156347619Y-148542857D01*
X156252380Y-148209523D02*
X156252380Y-147590476D01*
X156633333Y-147923809D01*
X156633333Y-147780952D01*
X156680952Y-147685714D01*
X156728571Y-147638095D01*
X156823809Y-147590476D01*
X157061904Y-147590476D01*
X157157142Y-147638095D01*
X157204761Y-147685714D01*
X157252380Y-147780952D01*
X157252380Y-148066666D01*
X157204761Y-148161904D01*
X157157142Y-148209523D01*
X156347619Y-147209523D02*
X156300000Y-147161904D01*
X156252380Y-147066666D01*
X156252380Y-146828571D01*
X156300000Y-146733333D01*
X156347619Y-146685714D01*
X156442857Y-146638095D01*
X156538095Y-146638095D01*
X156680952Y-146685714D01*
X157252380Y-147257142D01*
X157252380Y-146638095D01*
D11*
%TO.C,P2*%
X172402380Y-127938095D02*
X171402380Y-127938095D01*
X171402380Y-127557142D01*
X171450000Y-127461904D01*
X171497619Y-127414285D01*
X171592857Y-127366666D01*
X171735714Y-127366666D01*
X171830952Y-127414285D01*
X171878571Y-127461904D01*
X171926190Y-127557142D01*
X171926190Y-127938095D01*
X171497619Y-126985714D02*
X171450000Y-126938095D01*
X171402380Y-126842857D01*
X171402380Y-126604761D01*
X171450000Y-126509523D01*
X171497619Y-126461904D01*
X171592857Y-126414285D01*
X171688095Y-126414285D01*
X171830952Y-126461904D01*
X172402380Y-127033333D01*
X172402380Y-126414285D01*
D10*
%TO.C,U17*%
X218652380Y-172888095D02*
X219461904Y-172888095D01*
X219557142Y-172840476D01*
X219604761Y-172792857D01*
X219652380Y-172697619D01*
X219652380Y-172507142D01*
X219604761Y-172411904D01*
X219557142Y-172364285D01*
X219461904Y-172316666D01*
X218652380Y-172316666D01*
X219652380Y-171316666D02*
X219652380Y-171888095D01*
X219652380Y-171602380D02*
X218652380Y-171602380D01*
X218795238Y-171697619D01*
X218890476Y-171792857D01*
X218938095Y-171888095D01*
X218652380Y-170983333D02*
X218652380Y-170316666D01*
X219652380Y-170745238D01*
X227507142Y-169821428D02*
X227507142Y-168678571D01*
X228078571Y-169250000D02*
X226935714Y-169250000D01*
X223307142Y-178721428D02*
X223307142Y-177578571D01*
D11*
%TO.C,C19*%
X225544285Y-136785714D02*
X225572857Y-136814285D01*
X225601428Y-136900000D01*
X225601428Y-136957142D01*
X225572857Y-137042857D01*
X225515714Y-137100000D01*
X225458571Y-137128571D01*
X225344285Y-137157142D01*
X225258571Y-137157142D01*
X225144285Y-137128571D01*
X225087142Y-137100000D01*
X225030000Y-137042857D01*
X225001428Y-136957142D01*
X225001428Y-136900000D01*
X225030000Y-136814285D01*
X225058571Y-136785714D01*
X225601428Y-136214285D02*
X225601428Y-136557142D01*
X225601428Y-136385714D02*
X225001428Y-136385714D01*
X225087142Y-136442857D01*
X225144285Y-136500000D01*
X225172857Y-136557142D01*
X225601428Y-135928571D02*
X225601428Y-135814285D01*
X225572857Y-135757142D01*
X225544285Y-135728571D01*
X225458571Y-135671428D01*
X225344285Y-135642857D01*
X225115714Y-135642857D01*
X225058571Y-135671428D01*
X225030000Y-135700000D01*
X225001428Y-135757142D01*
X225001428Y-135871428D01*
X225030000Y-135928571D01*
X225058571Y-135957142D01*
X225115714Y-135985714D01*
X225258571Y-135985714D01*
X225315714Y-135957142D01*
X225344285Y-135928571D01*
X225372857Y-135871428D01*
X225372857Y-135757142D01*
X225344285Y-135700000D01*
X225315714Y-135671428D01*
X225258571Y-135642857D01*
%TO.C,R59*%
X212316428Y-161190714D02*
X212030714Y-161390714D01*
X212316428Y-161533571D02*
X211716428Y-161533571D01*
X211716428Y-161305000D01*
X211745000Y-161247857D01*
X211773571Y-161219285D01*
X211830714Y-161190714D01*
X211916428Y-161190714D01*
X211973571Y-161219285D01*
X212002142Y-161247857D01*
X212030714Y-161305000D01*
X212030714Y-161533571D01*
X211716428Y-160647857D02*
X211716428Y-160933571D01*
X212002142Y-160962142D01*
X211973571Y-160933571D01*
X211945000Y-160876428D01*
X211945000Y-160733571D01*
X211973571Y-160676428D01*
X212002142Y-160647857D01*
X212059285Y-160619285D01*
X212202142Y-160619285D01*
X212259285Y-160647857D01*
X212287857Y-160676428D01*
X212316428Y-160733571D01*
X212316428Y-160876428D01*
X212287857Y-160933571D01*
X212259285Y-160962142D01*
X212316428Y-160333571D02*
X212316428Y-160219285D01*
X212287857Y-160162142D01*
X212259285Y-160133571D01*
X212173571Y-160076428D01*
X212059285Y-160047857D01*
X211830714Y-160047857D01*
X211773571Y-160076428D01*
X211745000Y-160105000D01*
X211716428Y-160162142D01*
X211716428Y-160276428D01*
X211745000Y-160333571D01*
X211773571Y-160362142D01*
X211830714Y-160390714D01*
X211973571Y-160390714D01*
X212030714Y-160362142D01*
X212059285Y-160333571D01*
X212087857Y-160276428D01*
X212087857Y-160162142D01*
X212059285Y-160105000D01*
X212030714Y-160076428D01*
X211973571Y-160047857D01*
D10*
%TO.C,J1*%
X165342380Y-127933333D02*
X166056666Y-127933333D01*
X166199523Y-127980952D01*
X166294761Y-128076190D01*
X166342380Y-128219047D01*
X166342380Y-128314285D01*
X166342380Y-126933333D02*
X166342380Y-127504761D01*
X166342380Y-127219047D02*
X165342380Y-127219047D01*
X165485238Y-127314285D01*
X165580476Y-127409523D01*
X165628095Y-127504761D01*
D11*
%TO.C,C25*%
X234039285Y-146469285D02*
X234010714Y-146497857D01*
X233925000Y-146526428D01*
X233867857Y-146526428D01*
X233782142Y-146497857D01*
X233725000Y-146440714D01*
X233696428Y-146383571D01*
X233667857Y-146269285D01*
X233667857Y-146183571D01*
X233696428Y-146069285D01*
X233725000Y-146012142D01*
X233782142Y-145955000D01*
X233867857Y-145926428D01*
X233925000Y-145926428D01*
X234010714Y-145955000D01*
X234039285Y-145983571D01*
X234267857Y-145983571D02*
X234296428Y-145955000D01*
X234353571Y-145926428D01*
X234496428Y-145926428D01*
X234553571Y-145955000D01*
X234582142Y-145983571D01*
X234610714Y-146040714D01*
X234610714Y-146097857D01*
X234582142Y-146183571D01*
X234239285Y-146526428D01*
X234610714Y-146526428D01*
X235153571Y-145926428D02*
X234867857Y-145926428D01*
X234839285Y-146212142D01*
X234867857Y-146183571D01*
X234925000Y-146155000D01*
X235067857Y-146155000D01*
X235125000Y-146183571D01*
X235153571Y-146212142D01*
X235182142Y-146269285D01*
X235182142Y-146412142D01*
X235153571Y-146469285D01*
X235125000Y-146497857D01*
X235067857Y-146526428D01*
X234925000Y-146526428D01*
X234867857Y-146497857D01*
X234839285Y-146469285D01*
D10*
%TO.C,Q1*%
X170579761Y-151022619D02*
X170484523Y-150975000D01*
X170389285Y-150879761D01*
X170246428Y-150736904D01*
X170151190Y-150689285D01*
X170055952Y-150689285D01*
X170103571Y-150927380D02*
X170008333Y-150879761D01*
X169913095Y-150784523D01*
X169865476Y-150594047D01*
X169865476Y-150260714D01*
X169913095Y-150070238D01*
X170008333Y-149975000D01*
X170103571Y-149927380D01*
X170294047Y-149927380D01*
X170389285Y-149975000D01*
X170484523Y-150070238D01*
X170532142Y-150260714D01*
X170532142Y-150594047D01*
X170484523Y-150784523D01*
X170389285Y-150879761D01*
X170294047Y-150927380D01*
X170103571Y-150927380D01*
X171484523Y-150927380D02*
X170913095Y-150927380D01*
X171198809Y-150927380D02*
X171198809Y-149927380D01*
X171103571Y-150070238D01*
X171008333Y-150165476D01*
X170913095Y-150213095D01*
%TO.C,U12*%
X252886904Y-142927380D02*
X252886904Y-143736904D01*
X252934523Y-143832142D01*
X252982142Y-143879761D01*
X253077380Y-143927380D01*
X253267857Y-143927380D01*
X253363095Y-143879761D01*
X253410714Y-143832142D01*
X253458333Y-143736904D01*
X253458333Y-142927380D01*
X254458333Y-143927380D02*
X253886904Y-143927380D01*
X254172619Y-143927380D02*
X254172619Y-142927380D01*
X254077380Y-143070238D01*
X253982142Y-143165476D01*
X253886904Y-143213095D01*
X254839285Y-143022619D02*
X254886904Y-142975000D01*
X254982142Y-142927380D01*
X255220238Y-142927380D01*
X255315476Y-142975000D01*
X255363095Y-143022619D01*
X255410714Y-143117857D01*
X255410714Y-143213095D01*
X255363095Y-143355952D01*
X254791666Y-143927380D01*
X255410714Y-143927380D01*
%TO.C,U20*%
X208652380Y-109888095D02*
X209461904Y-109888095D01*
X209557142Y-109840476D01*
X209604761Y-109792857D01*
X209652380Y-109697619D01*
X209652380Y-109507142D01*
X209604761Y-109411904D01*
X209557142Y-109364285D01*
X209461904Y-109316666D01*
X208652380Y-109316666D01*
X208747619Y-108888095D02*
X208700000Y-108840476D01*
X208652380Y-108745238D01*
X208652380Y-108507142D01*
X208700000Y-108411904D01*
X208747619Y-108364285D01*
X208842857Y-108316666D01*
X208938095Y-108316666D01*
X209080952Y-108364285D01*
X209652380Y-108935714D01*
X209652380Y-108316666D01*
X208652380Y-107697619D02*
X208652380Y-107602380D01*
X208700000Y-107507142D01*
X208747619Y-107459523D01*
X208842857Y-107411904D01*
X209033333Y-107364285D01*
X209271428Y-107364285D01*
X209461904Y-107411904D01*
X209557142Y-107459523D01*
X209604761Y-107507142D01*
X209652380Y-107602380D01*
X209652380Y-107697619D01*
X209604761Y-107792857D01*
X209557142Y-107840476D01*
X209461904Y-107888095D01*
X209271428Y-107935714D01*
X209033333Y-107935714D01*
X208842857Y-107888095D01*
X208747619Y-107840476D01*
X208700000Y-107792857D01*
X208652380Y-107697619D01*
X209257142Y-106671428D02*
X209257142Y-105528571D01*
X209257142Y-111721428D02*
X209257142Y-110578571D01*
X209828571Y-111150000D02*
X208685714Y-111150000D01*
%TO.C,Q10*%
X187380095Y-110204642D02*
X187342000Y-110280833D01*
X187265809Y-110357023D01*
X187151523Y-110471309D01*
X187113428Y-110547500D01*
X187113428Y-110623690D01*
X187303904Y-110585595D02*
X187265809Y-110661785D01*
X187189619Y-110737976D01*
X187037238Y-110776071D01*
X186770571Y-110776071D01*
X186618190Y-110737976D01*
X186542000Y-110661785D01*
X186503904Y-110585595D01*
X186503904Y-110433214D01*
X186542000Y-110357023D01*
X186618190Y-110280833D01*
X186770571Y-110242738D01*
X187037238Y-110242738D01*
X187189619Y-110280833D01*
X187265809Y-110357023D01*
X187303904Y-110433214D01*
X187303904Y-110585595D01*
X187303904Y-109480833D02*
X187303904Y-109937976D01*
X187303904Y-109709404D02*
X186503904Y-109709404D01*
X186618190Y-109785595D01*
X186694380Y-109861785D01*
X186732476Y-109937976D01*
X186503904Y-108985595D02*
X186503904Y-108909404D01*
X186542000Y-108833214D01*
X186580095Y-108795119D01*
X186656285Y-108757023D01*
X186808666Y-108718928D01*
X186999142Y-108718928D01*
X187151523Y-108757023D01*
X187227714Y-108795119D01*
X187265809Y-108833214D01*
X187303904Y-108909404D01*
X187303904Y-108985595D01*
X187265809Y-109061785D01*
X187227714Y-109099880D01*
X187151523Y-109137976D01*
X186999142Y-109176071D01*
X186808666Y-109176071D01*
X186656285Y-109137976D01*
X186580095Y-109099880D01*
X186542000Y-109061785D01*
X186503904Y-108985595D01*
D11*
%TO.C,R28*%
X196014285Y-116671428D02*
X195814285Y-116385714D01*
X195671428Y-116671428D02*
X195671428Y-116071428D01*
X195900000Y-116071428D01*
X195957142Y-116100000D01*
X195985714Y-116128571D01*
X196014285Y-116185714D01*
X196014285Y-116271428D01*
X195985714Y-116328571D01*
X195957142Y-116357142D01*
X195900000Y-116385714D01*
X195671428Y-116385714D01*
X196242857Y-116128571D02*
X196271428Y-116100000D01*
X196328571Y-116071428D01*
X196471428Y-116071428D01*
X196528571Y-116100000D01*
X196557142Y-116128571D01*
X196585714Y-116185714D01*
X196585714Y-116242857D01*
X196557142Y-116328571D01*
X196214285Y-116671428D01*
X196585714Y-116671428D01*
X196928571Y-116328571D02*
X196871428Y-116300000D01*
X196842857Y-116271428D01*
X196814285Y-116214285D01*
X196814285Y-116185714D01*
X196842857Y-116128571D01*
X196871428Y-116100000D01*
X196928571Y-116071428D01*
X197042857Y-116071428D01*
X197100000Y-116100000D01*
X197128571Y-116128571D01*
X197157142Y-116185714D01*
X197157142Y-116214285D01*
X197128571Y-116271428D01*
X197100000Y-116300000D01*
X197042857Y-116328571D01*
X196928571Y-116328571D01*
X196871428Y-116357142D01*
X196842857Y-116385714D01*
X196814285Y-116442857D01*
X196814285Y-116557142D01*
X196842857Y-116614285D01*
X196871428Y-116642857D01*
X196928571Y-116671428D01*
X197042857Y-116671428D01*
X197100000Y-116642857D01*
X197128571Y-116614285D01*
X197157142Y-116557142D01*
X197157142Y-116442857D01*
X197128571Y-116385714D01*
X197100000Y-116357142D01*
X197042857Y-116328571D01*
D10*
%TO.C,Q13*%
X201921095Y-162197142D02*
X201883000Y-162273333D01*
X201806809Y-162349523D01*
X201692523Y-162463809D01*
X201654428Y-162540000D01*
X201654428Y-162616190D01*
X201844904Y-162578095D02*
X201806809Y-162654285D01*
X201730619Y-162730476D01*
X201578238Y-162768571D01*
X201311571Y-162768571D01*
X201159190Y-162730476D01*
X201083000Y-162654285D01*
X201044904Y-162578095D01*
X201044904Y-162425714D01*
X201083000Y-162349523D01*
X201159190Y-162273333D01*
X201311571Y-162235238D01*
X201578238Y-162235238D01*
X201730619Y-162273333D01*
X201806809Y-162349523D01*
X201844904Y-162425714D01*
X201844904Y-162578095D01*
X201844904Y-161473333D02*
X201844904Y-161930476D01*
X201844904Y-161701904D02*
X201044904Y-161701904D01*
X201159190Y-161778095D01*
X201235380Y-161854285D01*
X201273476Y-161930476D01*
X201044904Y-161206666D02*
X201044904Y-160711428D01*
X201349666Y-160978095D01*
X201349666Y-160863809D01*
X201387761Y-160787619D01*
X201425857Y-160749523D01*
X201502047Y-160711428D01*
X201692523Y-160711428D01*
X201768714Y-160749523D01*
X201806809Y-160787619D01*
X201844904Y-160863809D01*
X201844904Y-161092380D01*
X201806809Y-161168571D01*
X201768714Y-161206666D01*
D11*
%TO.C,R44*%
X210589285Y-117396428D02*
X210389285Y-117110714D01*
X210246428Y-117396428D02*
X210246428Y-116796428D01*
X210475000Y-116796428D01*
X210532142Y-116825000D01*
X210560714Y-116853571D01*
X210589285Y-116910714D01*
X210589285Y-116996428D01*
X210560714Y-117053571D01*
X210532142Y-117082142D01*
X210475000Y-117110714D01*
X210246428Y-117110714D01*
X211103571Y-116996428D02*
X211103571Y-117396428D01*
X210960714Y-116767857D02*
X210817857Y-117196428D01*
X211189285Y-117196428D01*
X211675000Y-116996428D02*
X211675000Y-117396428D01*
X211532142Y-116767857D02*
X211389285Y-117196428D01*
X211760714Y-117196428D01*
%TO.C,R10*%
X192489285Y-175246428D02*
X192289285Y-174960714D01*
X192146428Y-175246428D02*
X192146428Y-174646428D01*
X192375000Y-174646428D01*
X192432142Y-174675000D01*
X192460714Y-174703571D01*
X192489285Y-174760714D01*
X192489285Y-174846428D01*
X192460714Y-174903571D01*
X192432142Y-174932142D01*
X192375000Y-174960714D01*
X192146428Y-174960714D01*
X193060714Y-175246428D02*
X192717857Y-175246428D01*
X192889285Y-175246428D02*
X192889285Y-174646428D01*
X192832142Y-174732142D01*
X192775000Y-174789285D01*
X192717857Y-174817857D01*
X193432142Y-174646428D02*
X193489285Y-174646428D01*
X193546428Y-174675000D01*
X193575000Y-174703571D01*
X193603571Y-174760714D01*
X193632142Y-174875000D01*
X193632142Y-175017857D01*
X193603571Y-175132142D01*
X193575000Y-175189285D01*
X193546428Y-175217857D01*
X193489285Y-175246428D01*
X193432142Y-175246428D01*
X193375000Y-175217857D01*
X193346428Y-175189285D01*
X193317857Y-175132142D01*
X193289285Y-175017857D01*
X193289285Y-174875000D01*
X193317857Y-174760714D01*
X193346428Y-174703571D01*
X193375000Y-174675000D01*
X193432142Y-174646428D01*
D10*
%TO.C,J10*%
X312924523Y-125157619D02*
X312924523Y-124443333D01*
X312972142Y-124300476D01*
X313067380Y-124205238D01*
X313210238Y-124157619D01*
X313305476Y-124157619D01*
X311924523Y-124157619D02*
X312495952Y-124157619D01*
X312210238Y-124157619D02*
X312210238Y-125157619D01*
X312305476Y-125014761D01*
X312400714Y-124919523D01*
X312495952Y-124871904D01*
X311305476Y-125157619D02*
X311210238Y-125157619D01*
X311115000Y-125110000D01*
X311067380Y-125062380D01*
X311019761Y-124967142D01*
X310972142Y-124776666D01*
X310972142Y-124538571D01*
X311019761Y-124348095D01*
X311067380Y-124252857D01*
X311115000Y-124205238D01*
X311210238Y-124157619D01*
X311305476Y-124157619D01*
X311400714Y-124205238D01*
X311448333Y-124252857D01*
X311495952Y-124348095D01*
X311543571Y-124538571D01*
X311543571Y-124776666D01*
X311495952Y-124967142D01*
X311448333Y-125062380D01*
X311400714Y-125110000D01*
X311305476Y-125157619D01*
D11*
%TO.C,R55*%
X191021428Y-111235714D02*
X190735714Y-111435714D01*
X191021428Y-111578571D02*
X190421428Y-111578571D01*
X190421428Y-111350000D01*
X190450000Y-111292857D01*
X190478571Y-111264285D01*
X190535714Y-111235714D01*
X190621428Y-111235714D01*
X190678571Y-111264285D01*
X190707142Y-111292857D01*
X190735714Y-111350000D01*
X190735714Y-111578571D01*
X190421428Y-110692857D02*
X190421428Y-110978571D01*
X190707142Y-111007142D01*
X190678571Y-110978571D01*
X190650000Y-110921428D01*
X190650000Y-110778571D01*
X190678571Y-110721428D01*
X190707142Y-110692857D01*
X190764285Y-110664285D01*
X190907142Y-110664285D01*
X190964285Y-110692857D01*
X190992857Y-110721428D01*
X191021428Y-110778571D01*
X191021428Y-110921428D01*
X190992857Y-110978571D01*
X190964285Y-111007142D01*
X190421428Y-110121428D02*
X190421428Y-110407142D01*
X190707142Y-110435714D01*
X190678571Y-110407142D01*
X190650000Y-110350000D01*
X190650000Y-110207142D01*
X190678571Y-110150000D01*
X190707142Y-110121428D01*
X190764285Y-110092857D01*
X190907142Y-110092857D01*
X190964285Y-110121428D01*
X190992857Y-110150000D01*
X191021428Y-110207142D01*
X191021428Y-110350000D01*
X190992857Y-110407142D01*
X190964285Y-110435714D01*
D12*
%TO.C,U2*%
X183282380Y-172004523D02*
X183282380Y-173032619D01*
X183342857Y-173153571D01*
X183403333Y-173214047D01*
X183524285Y-173274523D01*
X183766190Y-173274523D01*
X183887142Y-173214047D01*
X183947619Y-173153571D01*
X184008095Y-173032619D01*
X184008095Y-172004523D01*
X184552380Y-172125476D02*
X184612857Y-172065000D01*
X184733809Y-172004523D01*
X185036190Y-172004523D01*
X185157142Y-172065000D01*
X185217619Y-172125476D01*
X185278095Y-172246428D01*
X185278095Y-172367380D01*
X185217619Y-172548809D01*
X184491904Y-173274523D01*
X185278095Y-173274523D01*
D11*
%TO.C,R7*%
X178725000Y-178046428D02*
X178525000Y-177760714D01*
X178382142Y-178046428D02*
X178382142Y-177446428D01*
X178610714Y-177446428D01*
X178667857Y-177475000D01*
X178696428Y-177503571D01*
X178725000Y-177560714D01*
X178725000Y-177646428D01*
X178696428Y-177703571D01*
X178667857Y-177732142D01*
X178610714Y-177760714D01*
X178382142Y-177760714D01*
X178925000Y-177446428D02*
X179325000Y-177446428D01*
X179067857Y-178046428D01*
%TO.C,D9*%
X202382142Y-116046428D02*
X202382142Y-115446428D01*
X202525000Y-115446428D01*
X202610714Y-115475000D01*
X202667857Y-115532142D01*
X202696428Y-115589285D01*
X202725000Y-115703571D01*
X202725000Y-115789285D01*
X202696428Y-115903571D01*
X202667857Y-115960714D01*
X202610714Y-116017857D01*
X202525000Y-116046428D01*
X202382142Y-116046428D01*
X203010714Y-116046428D02*
X203125000Y-116046428D01*
X203182142Y-116017857D01*
X203210714Y-115989285D01*
X203267857Y-115903571D01*
X203296428Y-115789285D01*
X203296428Y-115560714D01*
X203267857Y-115503571D01*
X203239285Y-115475000D01*
X203182142Y-115446428D01*
X203067857Y-115446428D01*
X203010714Y-115475000D01*
X202982142Y-115503571D01*
X202953571Y-115560714D01*
X202953571Y-115703571D01*
X202982142Y-115760714D01*
X203010714Y-115789285D01*
X203067857Y-115817857D01*
X203182142Y-115817857D01*
X203239285Y-115789285D01*
X203267857Y-115760714D01*
X203296428Y-115703571D01*
%TO.C,R12*%
X196114285Y-172446428D02*
X195914285Y-172160714D01*
X195771428Y-172446428D02*
X195771428Y-171846428D01*
X196000000Y-171846428D01*
X196057142Y-171875000D01*
X196085714Y-171903571D01*
X196114285Y-171960714D01*
X196114285Y-172046428D01*
X196085714Y-172103571D01*
X196057142Y-172132142D01*
X196000000Y-172160714D01*
X195771428Y-172160714D01*
X196685714Y-172446428D02*
X196342857Y-172446428D01*
X196514285Y-172446428D02*
X196514285Y-171846428D01*
X196457142Y-171932142D01*
X196400000Y-171989285D01*
X196342857Y-172017857D01*
X196914285Y-171903571D02*
X196942857Y-171875000D01*
X197000000Y-171846428D01*
X197142857Y-171846428D01*
X197200000Y-171875000D01*
X197228571Y-171903571D01*
X197257142Y-171960714D01*
X197257142Y-172017857D01*
X197228571Y-172103571D01*
X196885714Y-172446428D01*
X197257142Y-172446428D01*
D10*
%TO.C,C28*%
X250082142Y-152337142D02*
X250034523Y-152384761D01*
X249891666Y-152432380D01*
X249796428Y-152432380D01*
X249653571Y-152384761D01*
X249558333Y-152289523D01*
X249510714Y-152194285D01*
X249463095Y-152003809D01*
X249463095Y-151860952D01*
X249510714Y-151670476D01*
X249558333Y-151575238D01*
X249653571Y-151480000D01*
X249796428Y-151432380D01*
X249891666Y-151432380D01*
X250034523Y-151480000D01*
X250082142Y-151527619D01*
X250463095Y-151527619D02*
X250510714Y-151480000D01*
X250605952Y-151432380D01*
X250844047Y-151432380D01*
X250939285Y-151480000D01*
X250986904Y-151527619D01*
X251034523Y-151622857D01*
X251034523Y-151718095D01*
X250986904Y-151860952D01*
X250415476Y-152432380D01*
X251034523Y-152432380D01*
X251605952Y-151860952D02*
X251510714Y-151813333D01*
X251463095Y-151765714D01*
X251415476Y-151670476D01*
X251415476Y-151622857D01*
X251463095Y-151527619D01*
X251510714Y-151480000D01*
X251605952Y-151432380D01*
X251796428Y-151432380D01*
X251891666Y-151480000D01*
X251939285Y-151527619D01*
X251986904Y-151622857D01*
X251986904Y-151670476D01*
X251939285Y-151765714D01*
X251891666Y-151813333D01*
X251796428Y-151860952D01*
X251605952Y-151860952D01*
X251510714Y-151908571D01*
X251463095Y-151956190D01*
X251415476Y-152051428D01*
X251415476Y-152241904D01*
X251463095Y-152337142D01*
X251510714Y-152384761D01*
X251605952Y-152432380D01*
X251796428Y-152432380D01*
X251891666Y-152384761D01*
X251939285Y-152337142D01*
X251986904Y-152241904D01*
X251986904Y-152051428D01*
X251939285Y-151956190D01*
X251891666Y-151908571D01*
X251796428Y-151860952D01*
%TO.C,U7*%
X214138095Y-138877380D02*
X214138095Y-139686904D01*
X214185714Y-139782142D01*
X214233333Y-139829761D01*
X214328571Y-139877380D01*
X214519047Y-139877380D01*
X214614285Y-139829761D01*
X214661904Y-139782142D01*
X214709523Y-139686904D01*
X214709523Y-138877380D01*
X215090476Y-138877380D02*
X215757142Y-138877380D01*
X215328571Y-139877380D01*
D11*
%TO.C,R19*%
X172246428Y-142660714D02*
X171960714Y-142860714D01*
X172246428Y-143003571D02*
X171646428Y-143003571D01*
X171646428Y-142775000D01*
X171675000Y-142717857D01*
X171703571Y-142689285D01*
X171760714Y-142660714D01*
X171846428Y-142660714D01*
X171903571Y-142689285D01*
X171932142Y-142717857D01*
X171960714Y-142775000D01*
X171960714Y-143003571D01*
X172246428Y-142089285D02*
X172246428Y-142432142D01*
X172246428Y-142260714D02*
X171646428Y-142260714D01*
X171732142Y-142317857D01*
X171789285Y-142375000D01*
X171817857Y-142432142D01*
X172246428Y-141803571D02*
X172246428Y-141689285D01*
X172217857Y-141632142D01*
X172189285Y-141603571D01*
X172103571Y-141546428D01*
X171989285Y-141517857D01*
X171760714Y-141517857D01*
X171703571Y-141546428D01*
X171675000Y-141575000D01*
X171646428Y-141632142D01*
X171646428Y-141746428D01*
X171675000Y-141803571D01*
X171703571Y-141832142D01*
X171760714Y-141860714D01*
X171903571Y-141860714D01*
X171960714Y-141832142D01*
X171989285Y-141803571D01*
X172017857Y-141746428D01*
X172017857Y-141632142D01*
X171989285Y-141575000D01*
X171960714Y-141546428D01*
X171903571Y-141517857D01*
D10*
%TO.C,C2*%
X163732142Y-154041666D02*
X163779761Y-154089285D01*
X163827380Y-154232142D01*
X163827380Y-154327380D01*
X163779761Y-154470238D01*
X163684523Y-154565476D01*
X163589285Y-154613095D01*
X163398809Y-154660714D01*
X163255952Y-154660714D01*
X163065476Y-154613095D01*
X162970238Y-154565476D01*
X162875000Y-154470238D01*
X162827380Y-154327380D01*
X162827380Y-154232142D01*
X162875000Y-154089285D01*
X162922619Y-154041666D01*
X162922619Y-153660714D02*
X162875000Y-153613095D01*
X162827380Y-153517857D01*
X162827380Y-153279761D01*
X162875000Y-153184523D01*
X162922619Y-153136904D01*
X163017857Y-153089285D01*
X163113095Y-153089285D01*
X163255952Y-153136904D01*
X163827380Y-153708333D01*
X163827380Y-153089285D01*
D11*
%TO.C,P1*%
X175377380Y-127938095D02*
X174377380Y-127938095D01*
X174377380Y-127557142D01*
X174425000Y-127461904D01*
X174472619Y-127414285D01*
X174567857Y-127366666D01*
X174710714Y-127366666D01*
X174805952Y-127414285D01*
X174853571Y-127461904D01*
X174901190Y-127557142D01*
X174901190Y-127938095D01*
X175377380Y-126414285D02*
X175377380Y-126985714D01*
X175377380Y-126700000D02*
X174377380Y-126700000D01*
X174520238Y-126795238D01*
X174615476Y-126890476D01*
X174663095Y-126985714D01*
D10*
%TO.C,C33*%
X182682142Y-153167857D02*
X182729761Y-153215476D01*
X182777380Y-153358333D01*
X182777380Y-153453571D01*
X182729761Y-153596428D01*
X182634523Y-153691666D01*
X182539285Y-153739285D01*
X182348809Y-153786904D01*
X182205952Y-153786904D01*
X182015476Y-153739285D01*
X181920238Y-153691666D01*
X181825000Y-153596428D01*
X181777380Y-153453571D01*
X181777380Y-153358333D01*
X181825000Y-153215476D01*
X181872619Y-153167857D01*
X181777380Y-152834523D02*
X181777380Y-152215476D01*
X182158333Y-152548809D01*
X182158333Y-152405952D01*
X182205952Y-152310714D01*
X182253571Y-152263095D01*
X182348809Y-152215476D01*
X182586904Y-152215476D01*
X182682142Y-152263095D01*
X182729761Y-152310714D01*
X182777380Y-152405952D01*
X182777380Y-152691666D01*
X182729761Y-152786904D01*
X182682142Y-152834523D01*
X181777380Y-151882142D02*
X181777380Y-151263095D01*
X182158333Y-151596428D01*
X182158333Y-151453571D01*
X182205952Y-151358333D01*
X182253571Y-151310714D01*
X182348809Y-151263095D01*
X182586904Y-151263095D01*
X182682142Y-151310714D01*
X182729761Y-151358333D01*
X182777380Y-151453571D01*
X182777380Y-151739285D01*
X182729761Y-151834523D01*
X182682142Y-151882142D01*
%TO.C,C34*%
X175257142Y-151857142D02*
X175209523Y-151904761D01*
X175066666Y-151952380D01*
X174971428Y-151952380D01*
X174828571Y-151904761D01*
X174733333Y-151809523D01*
X174685714Y-151714285D01*
X174638095Y-151523809D01*
X174638095Y-151380952D01*
X174685714Y-151190476D01*
X174733333Y-151095238D01*
X174828571Y-151000000D01*
X174971428Y-150952380D01*
X175066666Y-150952380D01*
X175209523Y-151000000D01*
X175257142Y-151047619D01*
X175590476Y-150952380D02*
X176209523Y-150952380D01*
X175876190Y-151333333D01*
X176019047Y-151333333D01*
X176114285Y-151380952D01*
X176161904Y-151428571D01*
X176209523Y-151523809D01*
X176209523Y-151761904D01*
X176161904Y-151857142D01*
X176114285Y-151904761D01*
X176019047Y-151952380D01*
X175733333Y-151952380D01*
X175638095Y-151904761D01*
X175590476Y-151857142D01*
X177066666Y-151285714D02*
X177066666Y-151952380D01*
X176828571Y-150904761D02*
X176590476Y-151619047D01*
X177209523Y-151619047D01*
%TO.C,Q14*%
X196280095Y-166082142D02*
X196242000Y-166158333D01*
X196165809Y-166234523D01*
X196051523Y-166348809D01*
X196013428Y-166425000D01*
X196013428Y-166501190D01*
X196203904Y-166463095D02*
X196165809Y-166539285D01*
X196089619Y-166615476D01*
X195937238Y-166653571D01*
X195670571Y-166653571D01*
X195518190Y-166615476D01*
X195442000Y-166539285D01*
X195403904Y-166463095D01*
X195403904Y-166310714D01*
X195442000Y-166234523D01*
X195518190Y-166158333D01*
X195670571Y-166120238D01*
X195937238Y-166120238D01*
X196089619Y-166158333D01*
X196165809Y-166234523D01*
X196203904Y-166310714D01*
X196203904Y-166463095D01*
X196203904Y-165358333D02*
X196203904Y-165815476D01*
X196203904Y-165586904D02*
X195403904Y-165586904D01*
X195518190Y-165663095D01*
X195594380Y-165739285D01*
X195632476Y-165815476D01*
X195670571Y-164672619D02*
X196203904Y-164672619D01*
X195365809Y-164863095D02*
X195937238Y-165053571D01*
X195937238Y-164558333D01*
D11*
%TO.C,R63*%
X199946428Y-167110714D02*
X199660714Y-167310714D01*
X199946428Y-167453571D02*
X199346428Y-167453571D01*
X199346428Y-167225000D01*
X199375000Y-167167857D01*
X199403571Y-167139285D01*
X199460714Y-167110714D01*
X199546428Y-167110714D01*
X199603571Y-167139285D01*
X199632142Y-167167857D01*
X199660714Y-167225000D01*
X199660714Y-167453571D01*
X199346428Y-166596428D02*
X199346428Y-166710714D01*
X199375000Y-166767857D01*
X199403571Y-166796428D01*
X199489285Y-166853571D01*
X199603571Y-166882142D01*
X199832142Y-166882142D01*
X199889285Y-166853571D01*
X199917857Y-166825000D01*
X199946428Y-166767857D01*
X199946428Y-166653571D01*
X199917857Y-166596428D01*
X199889285Y-166567857D01*
X199832142Y-166539285D01*
X199689285Y-166539285D01*
X199632142Y-166567857D01*
X199603571Y-166596428D01*
X199575000Y-166653571D01*
X199575000Y-166767857D01*
X199603571Y-166825000D01*
X199632142Y-166853571D01*
X199689285Y-166882142D01*
X199346428Y-166339285D02*
X199346428Y-165967857D01*
X199575000Y-166167857D01*
X199575000Y-166082142D01*
X199603571Y-166025000D01*
X199632142Y-165996428D01*
X199689285Y-165967857D01*
X199832142Y-165967857D01*
X199889285Y-165996428D01*
X199917857Y-166025000D01*
X199946428Y-166082142D01*
X199946428Y-166253571D01*
X199917857Y-166310714D01*
X199889285Y-166339285D01*
D10*
%TO.C,Q7*%
X192047619Y-118970238D02*
X192000000Y-119065476D01*
X191904761Y-119160714D01*
X191761904Y-119303571D01*
X191714285Y-119398809D01*
X191714285Y-119494047D01*
X191952380Y-119446428D02*
X191904761Y-119541666D01*
X191809523Y-119636904D01*
X191619047Y-119684523D01*
X191285714Y-119684523D01*
X191095238Y-119636904D01*
X191000000Y-119541666D01*
X190952380Y-119446428D01*
X190952380Y-119255952D01*
X191000000Y-119160714D01*
X191095238Y-119065476D01*
X191285714Y-119017857D01*
X191619047Y-119017857D01*
X191809523Y-119065476D01*
X191904761Y-119160714D01*
X191952380Y-119255952D01*
X191952380Y-119446428D01*
X190952380Y-118684523D02*
X190952380Y-118017857D01*
X191952380Y-118446428D01*
%TO.C,U23*%
X230852380Y-172938095D02*
X231661904Y-172938095D01*
X231757142Y-172890476D01*
X231804761Y-172842857D01*
X231852380Y-172747619D01*
X231852380Y-172557142D01*
X231804761Y-172461904D01*
X231757142Y-172414285D01*
X231661904Y-172366666D01*
X230852380Y-172366666D01*
X230947619Y-171938095D02*
X230900000Y-171890476D01*
X230852380Y-171795238D01*
X230852380Y-171557142D01*
X230900000Y-171461904D01*
X230947619Y-171414285D01*
X231042857Y-171366666D01*
X231138095Y-171366666D01*
X231280952Y-171414285D01*
X231852380Y-171985714D01*
X231852380Y-171366666D01*
X230852380Y-171033333D02*
X230852380Y-170414285D01*
X231233333Y-170747619D01*
X231233333Y-170604761D01*
X231280952Y-170509523D01*
X231328571Y-170461904D01*
X231423809Y-170414285D01*
X231661904Y-170414285D01*
X231757142Y-170461904D01*
X231804761Y-170509523D01*
X231852380Y-170604761D01*
X231852380Y-170890476D01*
X231804761Y-170985714D01*
X231757142Y-171033333D01*
X235507142Y-178771428D02*
X235507142Y-177628571D01*
X239507142Y-169671428D02*
X239507142Y-168528571D01*
X240078571Y-169100000D02*
X238935714Y-169100000D01*
D11*
%TO.C,R57*%
X193046428Y-105135714D02*
X192760714Y-105335714D01*
X193046428Y-105478571D02*
X192446428Y-105478571D01*
X192446428Y-105250000D01*
X192475000Y-105192857D01*
X192503571Y-105164285D01*
X192560714Y-105135714D01*
X192646428Y-105135714D01*
X192703571Y-105164285D01*
X192732142Y-105192857D01*
X192760714Y-105250000D01*
X192760714Y-105478571D01*
X192446428Y-104592857D02*
X192446428Y-104878571D01*
X192732142Y-104907142D01*
X192703571Y-104878571D01*
X192675000Y-104821428D01*
X192675000Y-104678571D01*
X192703571Y-104621428D01*
X192732142Y-104592857D01*
X192789285Y-104564285D01*
X192932142Y-104564285D01*
X192989285Y-104592857D01*
X193017857Y-104621428D01*
X193046428Y-104678571D01*
X193046428Y-104821428D01*
X193017857Y-104878571D01*
X192989285Y-104907142D01*
X192446428Y-104364285D02*
X192446428Y-103964285D01*
X193046428Y-104221428D01*
%TO.C,R60*%
X228189285Y-117346428D02*
X227989285Y-117060714D01*
X227846428Y-117346428D02*
X227846428Y-116746428D01*
X228075000Y-116746428D01*
X228132142Y-116775000D01*
X228160714Y-116803571D01*
X228189285Y-116860714D01*
X228189285Y-116946428D01*
X228160714Y-117003571D01*
X228132142Y-117032142D01*
X228075000Y-117060714D01*
X227846428Y-117060714D01*
X228703571Y-116746428D02*
X228589285Y-116746428D01*
X228532142Y-116775000D01*
X228503571Y-116803571D01*
X228446428Y-116889285D01*
X228417857Y-117003571D01*
X228417857Y-117232142D01*
X228446428Y-117289285D01*
X228475000Y-117317857D01*
X228532142Y-117346428D01*
X228646428Y-117346428D01*
X228703571Y-117317857D01*
X228732142Y-117289285D01*
X228760714Y-117232142D01*
X228760714Y-117089285D01*
X228732142Y-117032142D01*
X228703571Y-117003571D01*
X228646428Y-116975000D01*
X228532142Y-116975000D01*
X228475000Y-117003571D01*
X228446428Y-117032142D01*
X228417857Y-117089285D01*
X229132142Y-116746428D02*
X229189285Y-116746428D01*
X229246428Y-116775000D01*
X229275000Y-116803571D01*
X229303571Y-116860714D01*
X229332142Y-116975000D01*
X229332142Y-117117857D01*
X229303571Y-117232142D01*
X229275000Y-117289285D01*
X229246428Y-117317857D01*
X229189285Y-117346428D01*
X229132142Y-117346428D01*
X229075000Y-117317857D01*
X229046428Y-117289285D01*
X229017857Y-117232142D01*
X228989285Y-117117857D01*
X228989285Y-116975000D01*
X229017857Y-116860714D01*
X229046428Y-116803571D01*
X229075000Y-116775000D01*
X229132142Y-116746428D01*
D10*
%TO.C,C5*%
X194317142Y-150196666D02*
X194364761Y-150244285D01*
X194412380Y-150387142D01*
X194412380Y-150482380D01*
X194364761Y-150625238D01*
X194269523Y-150720476D01*
X194174285Y-150768095D01*
X193983809Y-150815714D01*
X193840952Y-150815714D01*
X193650476Y-150768095D01*
X193555238Y-150720476D01*
X193460000Y-150625238D01*
X193412380Y-150482380D01*
X193412380Y-150387142D01*
X193460000Y-150244285D01*
X193507619Y-150196666D01*
X193412380Y-149291904D02*
X193412380Y-149768095D01*
X193888571Y-149815714D01*
X193840952Y-149768095D01*
X193793333Y-149672857D01*
X193793333Y-149434761D01*
X193840952Y-149339523D01*
X193888571Y-149291904D01*
X193983809Y-149244285D01*
X194221904Y-149244285D01*
X194317142Y-149291904D01*
X194364761Y-149339523D01*
X194412380Y-149434761D01*
X194412380Y-149672857D01*
X194364761Y-149768095D01*
X194317142Y-149815714D01*
D11*
%TO.C,C18*%
X211619285Y-136735714D02*
X211647857Y-136764285D01*
X211676428Y-136850000D01*
X211676428Y-136907142D01*
X211647857Y-136992857D01*
X211590714Y-137050000D01*
X211533571Y-137078571D01*
X211419285Y-137107142D01*
X211333571Y-137107142D01*
X211219285Y-137078571D01*
X211162142Y-137050000D01*
X211105000Y-136992857D01*
X211076428Y-136907142D01*
X211076428Y-136850000D01*
X211105000Y-136764285D01*
X211133571Y-136735714D01*
X211676428Y-136164285D02*
X211676428Y-136507142D01*
X211676428Y-136335714D02*
X211076428Y-136335714D01*
X211162142Y-136392857D01*
X211219285Y-136450000D01*
X211247857Y-136507142D01*
X211333571Y-135821428D02*
X211305000Y-135878571D01*
X211276428Y-135907142D01*
X211219285Y-135935714D01*
X211190714Y-135935714D01*
X211133571Y-135907142D01*
X211105000Y-135878571D01*
X211076428Y-135821428D01*
X211076428Y-135707142D01*
X211105000Y-135650000D01*
X211133571Y-135621428D01*
X211190714Y-135592857D01*
X211219285Y-135592857D01*
X211276428Y-135621428D01*
X211305000Y-135650000D01*
X211333571Y-135707142D01*
X211333571Y-135821428D01*
X211362142Y-135878571D01*
X211390714Y-135907142D01*
X211447857Y-135935714D01*
X211562142Y-135935714D01*
X211619285Y-135907142D01*
X211647857Y-135878571D01*
X211676428Y-135821428D01*
X211676428Y-135707142D01*
X211647857Y-135650000D01*
X211619285Y-135621428D01*
X211562142Y-135592857D01*
X211447857Y-135592857D01*
X211390714Y-135621428D01*
X211362142Y-135650000D01*
X211333571Y-135707142D01*
D10*
%TO.C,U18*%
X209652380Y-172888095D02*
X210461904Y-172888095D01*
X210557142Y-172840476D01*
X210604761Y-172792857D01*
X210652380Y-172697619D01*
X210652380Y-172507142D01*
X210604761Y-172411904D01*
X210557142Y-172364285D01*
X210461904Y-172316666D01*
X209652380Y-172316666D01*
X210652380Y-171316666D02*
X210652380Y-171888095D01*
X210652380Y-171602380D02*
X209652380Y-171602380D01*
X209795238Y-171697619D01*
X209890476Y-171792857D01*
X209938095Y-171888095D01*
X210080952Y-170745238D02*
X210033333Y-170840476D01*
X209985714Y-170888095D01*
X209890476Y-170935714D01*
X209842857Y-170935714D01*
X209747619Y-170888095D01*
X209700000Y-170840476D01*
X209652380Y-170745238D01*
X209652380Y-170554761D01*
X209700000Y-170459523D01*
X209747619Y-170411904D01*
X209842857Y-170364285D01*
X209890476Y-170364285D01*
X209985714Y-170411904D01*
X210033333Y-170459523D01*
X210080952Y-170554761D01*
X210080952Y-170745238D01*
X210128571Y-170840476D01*
X210176190Y-170888095D01*
X210271428Y-170935714D01*
X210461904Y-170935714D01*
X210557142Y-170888095D01*
X210604761Y-170840476D01*
X210652380Y-170745238D01*
X210652380Y-170554761D01*
X210604761Y-170459523D01*
X210557142Y-170411904D01*
X210461904Y-170364285D01*
X210271428Y-170364285D01*
X210176190Y-170411904D01*
X210128571Y-170459523D01*
X210080952Y-170554761D01*
X218457142Y-169821428D02*
X218457142Y-168678571D01*
X219028571Y-169250000D02*
X217885714Y-169250000D01*
X214307142Y-178721428D02*
X214307142Y-177578571D01*
D11*
%TO.C,R4*%
X172450000Y-150721428D02*
X172250000Y-150435714D01*
X172107142Y-150721428D02*
X172107142Y-150121428D01*
X172335714Y-150121428D01*
X172392857Y-150150000D01*
X172421428Y-150178571D01*
X172450000Y-150235714D01*
X172450000Y-150321428D01*
X172421428Y-150378571D01*
X172392857Y-150407142D01*
X172335714Y-150435714D01*
X172107142Y-150435714D01*
X172964285Y-150321428D02*
X172964285Y-150721428D01*
X172821428Y-150092857D02*
X172678571Y-150521428D01*
X173050000Y-150521428D01*
%TO.C,R20*%
X170896428Y-147710714D02*
X170610714Y-147910714D01*
X170896428Y-148053571D02*
X170296428Y-148053571D01*
X170296428Y-147825000D01*
X170325000Y-147767857D01*
X170353571Y-147739285D01*
X170410714Y-147710714D01*
X170496428Y-147710714D01*
X170553571Y-147739285D01*
X170582142Y-147767857D01*
X170610714Y-147825000D01*
X170610714Y-148053571D01*
X170353571Y-147482142D02*
X170325000Y-147453571D01*
X170296428Y-147396428D01*
X170296428Y-147253571D01*
X170325000Y-147196428D01*
X170353571Y-147167857D01*
X170410714Y-147139285D01*
X170467857Y-147139285D01*
X170553571Y-147167857D01*
X170896428Y-147510714D01*
X170896428Y-147139285D01*
X170296428Y-146767857D02*
X170296428Y-146710714D01*
X170325000Y-146653571D01*
X170353571Y-146625000D01*
X170410714Y-146596428D01*
X170525000Y-146567857D01*
X170667857Y-146567857D01*
X170782142Y-146596428D01*
X170839285Y-146625000D01*
X170867857Y-146653571D01*
X170896428Y-146710714D01*
X170896428Y-146767857D01*
X170867857Y-146825000D01*
X170839285Y-146853571D01*
X170782142Y-146882142D01*
X170667857Y-146910714D01*
X170525000Y-146910714D01*
X170410714Y-146882142D01*
X170353571Y-146853571D01*
X170325000Y-146825000D01*
X170296428Y-146767857D01*
D10*
%TO.C,J12*%
X334565476Y-155167380D02*
X334565476Y-155881666D01*
X334517857Y-156024523D01*
X334422619Y-156119761D01*
X334279761Y-156167380D01*
X334184523Y-156167380D01*
X335565476Y-156167380D02*
X334994047Y-156167380D01*
X335279761Y-156167380D02*
X335279761Y-155167380D01*
X335184523Y-155310238D01*
X335089285Y-155405476D01*
X334994047Y-155453095D01*
X335946428Y-155262619D02*
X335994047Y-155215000D01*
X336089285Y-155167380D01*
X336327380Y-155167380D01*
X336422619Y-155215000D01*
X336470238Y-155262619D01*
X336517857Y-155357857D01*
X336517857Y-155453095D01*
X336470238Y-155595952D01*
X335898809Y-156167380D01*
X336517857Y-156167380D01*
D11*
%TO.C,R32*%
X230059285Y-155531428D02*
X229859285Y-155245714D01*
X229716428Y-155531428D02*
X229716428Y-154931428D01*
X229945000Y-154931428D01*
X230002142Y-154960000D01*
X230030714Y-154988571D01*
X230059285Y-155045714D01*
X230059285Y-155131428D01*
X230030714Y-155188571D01*
X230002142Y-155217142D01*
X229945000Y-155245714D01*
X229716428Y-155245714D01*
X230259285Y-154931428D02*
X230630714Y-154931428D01*
X230430714Y-155160000D01*
X230516428Y-155160000D01*
X230573571Y-155188571D01*
X230602142Y-155217142D01*
X230630714Y-155274285D01*
X230630714Y-155417142D01*
X230602142Y-155474285D01*
X230573571Y-155502857D01*
X230516428Y-155531428D01*
X230345000Y-155531428D01*
X230287857Y-155502857D01*
X230259285Y-155474285D01*
X230859285Y-154988571D02*
X230887857Y-154960000D01*
X230945000Y-154931428D01*
X231087857Y-154931428D01*
X231145000Y-154960000D01*
X231173571Y-154988571D01*
X231202142Y-155045714D01*
X231202142Y-155102857D01*
X231173571Y-155188571D01*
X230830714Y-155531428D01*
X231202142Y-155531428D01*
%TO.C,R54*%
X194971428Y-111260714D02*
X194685714Y-111460714D01*
X194971428Y-111603571D02*
X194371428Y-111603571D01*
X194371428Y-111375000D01*
X194400000Y-111317857D01*
X194428571Y-111289285D01*
X194485714Y-111260714D01*
X194571428Y-111260714D01*
X194628571Y-111289285D01*
X194657142Y-111317857D01*
X194685714Y-111375000D01*
X194685714Y-111603571D01*
X194371428Y-110717857D02*
X194371428Y-111003571D01*
X194657142Y-111032142D01*
X194628571Y-111003571D01*
X194600000Y-110946428D01*
X194600000Y-110803571D01*
X194628571Y-110746428D01*
X194657142Y-110717857D01*
X194714285Y-110689285D01*
X194857142Y-110689285D01*
X194914285Y-110717857D01*
X194942857Y-110746428D01*
X194971428Y-110803571D01*
X194971428Y-110946428D01*
X194942857Y-111003571D01*
X194914285Y-111032142D01*
X194571428Y-110175000D02*
X194971428Y-110175000D01*
X194342857Y-110317857D02*
X194771428Y-110460714D01*
X194771428Y-110089285D01*
D10*
%TO.C,R27*%
X189782142Y-118527380D02*
X189448809Y-118051190D01*
X189210714Y-118527380D02*
X189210714Y-117527380D01*
X189591666Y-117527380D01*
X189686904Y-117575000D01*
X189734523Y-117622619D01*
X189782142Y-117717857D01*
X189782142Y-117860714D01*
X189734523Y-117955952D01*
X189686904Y-118003571D01*
X189591666Y-118051190D01*
X189210714Y-118051190D01*
X190163095Y-117622619D02*
X190210714Y-117575000D01*
X190305952Y-117527380D01*
X190544047Y-117527380D01*
X190639285Y-117575000D01*
X190686904Y-117622619D01*
X190734523Y-117717857D01*
X190734523Y-117813095D01*
X190686904Y-117955952D01*
X190115476Y-118527380D01*
X190734523Y-118527380D01*
X191067857Y-117527380D02*
X191734523Y-117527380D01*
X191305952Y-118527380D01*
D11*
%TO.C,R15*%
X206039285Y-139771428D02*
X205839285Y-139485714D01*
X205696428Y-139771428D02*
X205696428Y-139171428D01*
X205925000Y-139171428D01*
X205982142Y-139200000D01*
X206010714Y-139228571D01*
X206039285Y-139285714D01*
X206039285Y-139371428D01*
X206010714Y-139428571D01*
X205982142Y-139457142D01*
X205925000Y-139485714D01*
X205696428Y-139485714D01*
X206610714Y-139771428D02*
X206267857Y-139771428D01*
X206439285Y-139771428D02*
X206439285Y-139171428D01*
X206382142Y-139257142D01*
X206325000Y-139314285D01*
X206267857Y-139342857D01*
X207153571Y-139171428D02*
X206867857Y-139171428D01*
X206839285Y-139457142D01*
X206867857Y-139428571D01*
X206925000Y-139400000D01*
X207067857Y-139400000D01*
X207125000Y-139428571D01*
X207153571Y-139457142D01*
X207182142Y-139514285D01*
X207182142Y-139657142D01*
X207153571Y-139714285D01*
X207125000Y-139742857D01*
X207067857Y-139771428D01*
X206925000Y-139771428D01*
X206867857Y-139742857D01*
X206839285Y-139714285D01*
%TO.C,R26*%
X192439285Y-119371428D02*
X192239285Y-119085714D01*
X192096428Y-119371428D02*
X192096428Y-118771428D01*
X192325000Y-118771428D01*
X192382142Y-118800000D01*
X192410714Y-118828571D01*
X192439285Y-118885714D01*
X192439285Y-118971428D01*
X192410714Y-119028571D01*
X192382142Y-119057142D01*
X192325000Y-119085714D01*
X192096428Y-119085714D01*
X192667857Y-118828571D02*
X192696428Y-118800000D01*
X192753571Y-118771428D01*
X192896428Y-118771428D01*
X192953571Y-118800000D01*
X192982142Y-118828571D01*
X193010714Y-118885714D01*
X193010714Y-118942857D01*
X192982142Y-119028571D01*
X192639285Y-119371428D01*
X193010714Y-119371428D01*
X193525000Y-118771428D02*
X193410714Y-118771428D01*
X193353571Y-118800000D01*
X193325000Y-118828571D01*
X193267857Y-118914285D01*
X193239285Y-119028571D01*
X193239285Y-119257142D01*
X193267857Y-119314285D01*
X193296428Y-119342857D01*
X193353571Y-119371428D01*
X193467857Y-119371428D01*
X193525000Y-119342857D01*
X193553571Y-119314285D01*
X193582142Y-119257142D01*
X193582142Y-119114285D01*
X193553571Y-119057142D01*
X193525000Y-119028571D01*
X193467857Y-119000000D01*
X193353571Y-119000000D01*
X193296428Y-119028571D01*
X193267857Y-119057142D01*
X193239285Y-119114285D01*
%TO.C,R61*%
X228189285Y-115946428D02*
X227989285Y-115660714D01*
X227846428Y-115946428D02*
X227846428Y-115346428D01*
X228075000Y-115346428D01*
X228132142Y-115375000D01*
X228160714Y-115403571D01*
X228189285Y-115460714D01*
X228189285Y-115546428D01*
X228160714Y-115603571D01*
X228132142Y-115632142D01*
X228075000Y-115660714D01*
X227846428Y-115660714D01*
X228703571Y-115346428D02*
X228589285Y-115346428D01*
X228532142Y-115375000D01*
X228503571Y-115403571D01*
X228446428Y-115489285D01*
X228417857Y-115603571D01*
X228417857Y-115832142D01*
X228446428Y-115889285D01*
X228475000Y-115917857D01*
X228532142Y-115946428D01*
X228646428Y-115946428D01*
X228703571Y-115917857D01*
X228732142Y-115889285D01*
X228760714Y-115832142D01*
X228760714Y-115689285D01*
X228732142Y-115632142D01*
X228703571Y-115603571D01*
X228646428Y-115575000D01*
X228532142Y-115575000D01*
X228475000Y-115603571D01*
X228446428Y-115632142D01*
X228417857Y-115689285D01*
X229332142Y-115946428D02*
X228989285Y-115946428D01*
X229160714Y-115946428D02*
X229160714Y-115346428D01*
X229103571Y-115432142D01*
X229046428Y-115489285D01*
X228989285Y-115517857D01*
D10*
%TO.C,U10*%
X240736904Y-150132380D02*
X240736904Y-150941904D01*
X240784523Y-151037142D01*
X240832142Y-151084761D01*
X240927380Y-151132380D01*
X241117857Y-151132380D01*
X241213095Y-151084761D01*
X241260714Y-151037142D01*
X241308333Y-150941904D01*
X241308333Y-150132380D01*
X242308333Y-151132380D02*
X241736904Y-151132380D01*
X242022619Y-151132380D02*
X242022619Y-150132380D01*
X241927380Y-150275238D01*
X241832142Y-150370476D01*
X241736904Y-150418095D01*
X242927380Y-150132380D02*
X243022619Y-150132380D01*
X243117857Y-150180000D01*
X243165476Y-150227619D01*
X243213095Y-150322857D01*
X243260714Y-150513333D01*
X243260714Y-150751428D01*
X243213095Y-150941904D01*
X243165476Y-151037142D01*
X243117857Y-151084761D01*
X243022619Y-151132380D01*
X242927380Y-151132380D01*
X242832142Y-151084761D01*
X242784523Y-151037142D01*
X242736904Y-150941904D01*
X242689285Y-150751428D01*
X242689285Y-150513333D01*
X242736904Y-150322857D01*
X242784523Y-150227619D01*
X242832142Y-150180000D01*
X242927380Y-150132380D01*
%TO.C,C27*%
X234682142Y-117107142D02*
X234634523Y-117154761D01*
X234491666Y-117202380D01*
X234396428Y-117202380D01*
X234253571Y-117154761D01*
X234158333Y-117059523D01*
X234110714Y-116964285D01*
X234063095Y-116773809D01*
X234063095Y-116630952D01*
X234110714Y-116440476D01*
X234158333Y-116345238D01*
X234253571Y-116250000D01*
X234396428Y-116202380D01*
X234491666Y-116202380D01*
X234634523Y-116250000D01*
X234682142Y-116297619D01*
X235063095Y-116297619D02*
X235110714Y-116250000D01*
X235205952Y-116202380D01*
X235444047Y-116202380D01*
X235539285Y-116250000D01*
X235586904Y-116297619D01*
X235634523Y-116392857D01*
X235634523Y-116488095D01*
X235586904Y-116630952D01*
X235015476Y-117202380D01*
X235634523Y-117202380D01*
X235967857Y-116202380D02*
X236634523Y-116202380D01*
X236205952Y-117202380D01*
%TO.C,C4*%
X187233333Y-179557142D02*
X187185714Y-179604761D01*
X187042857Y-179652380D01*
X186947619Y-179652380D01*
X186804761Y-179604761D01*
X186709523Y-179509523D01*
X186661904Y-179414285D01*
X186614285Y-179223809D01*
X186614285Y-179080952D01*
X186661904Y-178890476D01*
X186709523Y-178795238D01*
X186804761Y-178700000D01*
X186947619Y-178652380D01*
X187042857Y-178652380D01*
X187185714Y-178700000D01*
X187233333Y-178747619D01*
X188090476Y-178985714D02*
X188090476Y-179652380D01*
X187852380Y-178604761D02*
X187614285Y-179319047D01*
X188233333Y-179319047D01*
D12*
%TO.C,U3*%
X183282380Y-116429523D02*
X183282380Y-117457619D01*
X183342857Y-117578571D01*
X183403333Y-117639047D01*
X183524285Y-117699523D01*
X183766190Y-117699523D01*
X183887142Y-117639047D01*
X183947619Y-117578571D01*
X184008095Y-117457619D01*
X184008095Y-116429523D01*
X184491904Y-116429523D02*
X185278095Y-116429523D01*
X184854761Y-116913333D01*
X185036190Y-116913333D01*
X185157142Y-116973809D01*
X185217619Y-117034285D01*
X185278095Y-117155238D01*
X185278095Y-117457619D01*
X185217619Y-117578571D01*
X185157142Y-117639047D01*
X185036190Y-117699523D01*
X184673333Y-117699523D01*
X184552380Y-117639047D01*
X184491904Y-117578571D01*
D11*
%TO.C,R3*%
X168296428Y-150550000D02*
X168010714Y-150750000D01*
X168296428Y-150892857D02*
X167696428Y-150892857D01*
X167696428Y-150664285D01*
X167725000Y-150607142D01*
X167753571Y-150578571D01*
X167810714Y-150550000D01*
X167896428Y-150550000D01*
X167953571Y-150578571D01*
X167982142Y-150607142D01*
X168010714Y-150664285D01*
X168010714Y-150892857D01*
X167696428Y-150350000D02*
X167696428Y-149978571D01*
X167925000Y-150178571D01*
X167925000Y-150092857D01*
X167953571Y-150035714D01*
X167982142Y-150007142D01*
X168039285Y-149978571D01*
X168182142Y-149978571D01*
X168239285Y-150007142D01*
X168267857Y-150035714D01*
X168296428Y-150092857D01*
X168296428Y-150264285D01*
X168267857Y-150321428D01*
X168239285Y-150350000D01*
%TO.C,R35*%
X217914285Y-155546428D02*
X217714285Y-155260714D01*
X217571428Y-155546428D02*
X217571428Y-154946428D01*
X217800000Y-154946428D01*
X217857142Y-154975000D01*
X217885714Y-155003571D01*
X217914285Y-155060714D01*
X217914285Y-155146428D01*
X217885714Y-155203571D01*
X217857142Y-155232142D01*
X217800000Y-155260714D01*
X217571428Y-155260714D01*
X218114285Y-154946428D02*
X218485714Y-154946428D01*
X218285714Y-155175000D01*
X218371428Y-155175000D01*
X218428571Y-155203571D01*
X218457142Y-155232142D01*
X218485714Y-155289285D01*
X218485714Y-155432142D01*
X218457142Y-155489285D01*
X218428571Y-155517857D01*
X218371428Y-155546428D01*
X218200000Y-155546428D01*
X218142857Y-155517857D01*
X218114285Y-155489285D01*
X219028571Y-154946428D02*
X218742857Y-154946428D01*
X218714285Y-155232142D01*
X218742857Y-155203571D01*
X218800000Y-155175000D01*
X218942857Y-155175000D01*
X219000000Y-155203571D01*
X219028571Y-155232142D01*
X219057142Y-155289285D01*
X219057142Y-155432142D01*
X219028571Y-155489285D01*
X219000000Y-155517857D01*
X218942857Y-155546428D01*
X218800000Y-155546428D01*
X218742857Y-155517857D01*
X218714285Y-155489285D01*
%TO.C,R31*%
X212564285Y-157346428D02*
X212364285Y-157060714D01*
X212221428Y-157346428D02*
X212221428Y-156746428D01*
X212450000Y-156746428D01*
X212507142Y-156775000D01*
X212535714Y-156803571D01*
X212564285Y-156860714D01*
X212564285Y-156946428D01*
X212535714Y-157003571D01*
X212507142Y-157032142D01*
X212450000Y-157060714D01*
X212221428Y-157060714D01*
X212764285Y-156746428D02*
X213135714Y-156746428D01*
X212935714Y-156975000D01*
X213021428Y-156975000D01*
X213078571Y-157003571D01*
X213107142Y-157032142D01*
X213135714Y-157089285D01*
X213135714Y-157232142D01*
X213107142Y-157289285D01*
X213078571Y-157317857D01*
X213021428Y-157346428D01*
X212850000Y-157346428D01*
X212792857Y-157317857D01*
X212764285Y-157289285D01*
X213707142Y-157346428D02*
X213364285Y-157346428D01*
X213535714Y-157346428D02*
X213535714Y-156746428D01*
X213478571Y-156832142D01*
X213421428Y-156889285D01*
X213364285Y-156917857D01*
D10*
%TO.C,C10*%
X198272857Y-127697142D02*
X198225238Y-127649523D01*
X198177619Y-127506666D01*
X198177619Y-127411428D01*
X198225238Y-127268571D01*
X198320476Y-127173333D01*
X198415714Y-127125714D01*
X198606190Y-127078095D01*
X198749047Y-127078095D01*
X198939523Y-127125714D01*
X199034761Y-127173333D01*
X199130000Y-127268571D01*
X199177619Y-127411428D01*
X199177619Y-127506666D01*
X199130000Y-127649523D01*
X199082380Y-127697142D01*
X198177619Y-128649523D02*
X198177619Y-128078095D01*
X198177619Y-128363809D02*
X199177619Y-128363809D01*
X199034761Y-128268571D01*
X198939523Y-128173333D01*
X198891904Y-128078095D01*
X199177619Y-129268571D02*
X199177619Y-129363809D01*
X199130000Y-129459047D01*
X199082380Y-129506666D01*
X198987142Y-129554285D01*
X198796666Y-129601904D01*
X198558571Y-129601904D01*
X198368095Y-129554285D01*
X198272857Y-129506666D01*
X198225238Y-129459047D01*
X198177619Y-129363809D01*
X198177619Y-129268571D01*
X198225238Y-129173333D01*
X198272857Y-129125714D01*
X198368095Y-129078095D01*
X198558571Y-129030476D01*
X198796666Y-129030476D01*
X198987142Y-129078095D01*
X199082380Y-129125714D01*
X199130000Y-129173333D01*
X199177619Y-129268571D01*
%TO.C,SW1*%
X171404761Y-146988333D02*
X171452380Y-146845476D01*
X171452380Y-146607380D01*
X171404761Y-146512142D01*
X171357142Y-146464523D01*
X171261904Y-146416904D01*
X171166666Y-146416904D01*
X171071428Y-146464523D01*
X171023809Y-146512142D01*
X170976190Y-146607380D01*
X170928571Y-146797857D01*
X170880952Y-146893095D01*
X170833333Y-146940714D01*
X170738095Y-146988333D01*
X170642857Y-146988333D01*
X170547619Y-146940714D01*
X170500000Y-146893095D01*
X170452380Y-146797857D01*
X170452380Y-146559761D01*
X170500000Y-146416904D01*
X170452380Y-146083571D02*
X171452380Y-145845476D01*
X170738095Y-145655000D01*
X171452380Y-145464523D01*
X170452380Y-145226428D01*
X171452380Y-144321666D02*
X171452380Y-144893095D01*
X171452380Y-144607380D02*
X170452380Y-144607380D01*
X170595238Y-144702619D01*
X170690476Y-144797857D01*
X170738095Y-144893095D01*
%TO.C,U16*%
X148697380Y-120713095D02*
X149506904Y-120713095D01*
X149602142Y-120665476D01*
X149649761Y-120617857D01*
X149697380Y-120522619D01*
X149697380Y-120332142D01*
X149649761Y-120236904D01*
X149602142Y-120189285D01*
X149506904Y-120141666D01*
X148697380Y-120141666D01*
X149697380Y-119141666D02*
X149697380Y-119713095D01*
X149697380Y-119427380D02*
X148697380Y-119427380D01*
X148840238Y-119522619D01*
X148935476Y-119617857D01*
X148983095Y-119713095D01*
X148697380Y-118284523D02*
X148697380Y-118475000D01*
X148745000Y-118570238D01*
X148792619Y-118617857D01*
X148935476Y-118713095D01*
X149125952Y-118760714D01*
X149506904Y-118760714D01*
X149602142Y-118713095D01*
X149649761Y-118665476D01*
X149697380Y-118570238D01*
X149697380Y-118379761D01*
X149649761Y-118284523D01*
X149602142Y-118236904D01*
X149506904Y-118189285D01*
X149268809Y-118189285D01*
X149173571Y-118236904D01*
X149125952Y-118284523D01*
X149078333Y-118379761D01*
X149078333Y-118570238D01*
X149125952Y-118665476D01*
X149173571Y-118713095D01*
X149268809Y-118760714D01*
D11*
%TO.C,R46*%
X219489285Y-117396428D02*
X219289285Y-117110714D01*
X219146428Y-117396428D02*
X219146428Y-116796428D01*
X219375000Y-116796428D01*
X219432142Y-116825000D01*
X219460714Y-116853571D01*
X219489285Y-116910714D01*
X219489285Y-116996428D01*
X219460714Y-117053571D01*
X219432142Y-117082142D01*
X219375000Y-117110714D01*
X219146428Y-117110714D01*
X220003571Y-116996428D02*
X220003571Y-117396428D01*
X219860714Y-116767857D02*
X219717857Y-117196428D01*
X220089285Y-117196428D01*
X220575000Y-116796428D02*
X220460714Y-116796428D01*
X220403571Y-116825000D01*
X220375000Y-116853571D01*
X220317857Y-116939285D01*
X220289285Y-117053571D01*
X220289285Y-117282142D01*
X220317857Y-117339285D01*
X220346428Y-117367857D01*
X220403571Y-117396428D01*
X220517857Y-117396428D01*
X220575000Y-117367857D01*
X220603571Y-117339285D01*
X220632142Y-117282142D01*
X220632142Y-117139285D01*
X220603571Y-117082142D01*
X220575000Y-117053571D01*
X220517857Y-117025000D01*
X220403571Y-117025000D01*
X220346428Y-117053571D01*
X220317857Y-117082142D01*
X220289285Y-117139285D01*
%TO.C,R48*%
X226466428Y-144070714D02*
X226180714Y-144270714D01*
X226466428Y-144413571D02*
X225866428Y-144413571D01*
X225866428Y-144185000D01*
X225895000Y-144127857D01*
X225923571Y-144099285D01*
X225980714Y-144070714D01*
X226066428Y-144070714D01*
X226123571Y-144099285D01*
X226152142Y-144127857D01*
X226180714Y-144185000D01*
X226180714Y-144413571D01*
X226066428Y-143556428D02*
X226466428Y-143556428D01*
X225837857Y-143699285D02*
X226266428Y-143842142D01*
X226266428Y-143470714D01*
X226123571Y-143156428D02*
X226095000Y-143213571D01*
X226066428Y-143242142D01*
X226009285Y-143270714D01*
X225980714Y-143270714D01*
X225923571Y-143242142D01*
X225895000Y-143213571D01*
X225866428Y-143156428D01*
X225866428Y-143042142D01*
X225895000Y-142985000D01*
X225923571Y-142956428D01*
X225980714Y-142927857D01*
X226009285Y-142927857D01*
X226066428Y-142956428D01*
X226095000Y-142985000D01*
X226123571Y-143042142D01*
X226123571Y-143156428D01*
X226152142Y-143213571D01*
X226180714Y-143242142D01*
X226237857Y-143270714D01*
X226352142Y-143270714D01*
X226409285Y-143242142D01*
X226437857Y-143213571D01*
X226466428Y-143156428D01*
X226466428Y-143042142D01*
X226437857Y-142985000D01*
X226409285Y-142956428D01*
X226352142Y-142927857D01*
X226237857Y-142927857D01*
X226180714Y-142956428D01*
X226152142Y-142985000D01*
X226123571Y-143042142D01*
D10*
%TO.C,C7*%
X184083333Y-123907142D02*
X184035714Y-123954761D01*
X183892857Y-124002380D01*
X183797619Y-124002380D01*
X183654761Y-123954761D01*
X183559523Y-123859523D01*
X183511904Y-123764285D01*
X183464285Y-123573809D01*
X183464285Y-123430952D01*
X183511904Y-123240476D01*
X183559523Y-123145238D01*
X183654761Y-123050000D01*
X183797619Y-123002380D01*
X183892857Y-123002380D01*
X184035714Y-123050000D01*
X184083333Y-123097619D01*
X184416666Y-123002380D02*
X185083333Y-123002380D01*
X184654761Y-124002380D01*
D11*
%TO.C,R50*%
X176289285Y-126446428D02*
X176089285Y-126160714D01*
X175946428Y-126446428D02*
X175946428Y-125846428D01*
X176175000Y-125846428D01*
X176232142Y-125875000D01*
X176260714Y-125903571D01*
X176289285Y-125960714D01*
X176289285Y-126046428D01*
X176260714Y-126103571D01*
X176232142Y-126132142D01*
X176175000Y-126160714D01*
X175946428Y-126160714D01*
X176832142Y-125846428D02*
X176546428Y-125846428D01*
X176517857Y-126132142D01*
X176546428Y-126103571D01*
X176603571Y-126075000D01*
X176746428Y-126075000D01*
X176803571Y-126103571D01*
X176832142Y-126132142D01*
X176860714Y-126189285D01*
X176860714Y-126332142D01*
X176832142Y-126389285D01*
X176803571Y-126417857D01*
X176746428Y-126446428D01*
X176603571Y-126446428D01*
X176546428Y-126417857D01*
X176517857Y-126389285D01*
X177232142Y-125846428D02*
X177289285Y-125846428D01*
X177346428Y-125875000D01*
X177375000Y-125903571D01*
X177403571Y-125960714D01*
X177432142Y-126075000D01*
X177432142Y-126217857D01*
X177403571Y-126332142D01*
X177375000Y-126389285D01*
X177346428Y-126417857D01*
X177289285Y-126446428D01*
X177232142Y-126446428D01*
X177175000Y-126417857D01*
X177146428Y-126389285D01*
X177117857Y-126332142D01*
X177089285Y-126217857D01*
X177089285Y-126075000D01*
X177117857Y-125960714D01*
X177146428Y-125903571D01*
X177175000Y-125875000D01*
X177232142Y-125846428D01*
%TO.C,R37*%
X207664285Y-155444678D02*
X207464285Y-155158964D01*
X207321428Y-155444678D02*
X207321428Y-154844678D01*
X207550000Y-154844678D01*
X207607142Y-154873250D01*
X207635714Y-154901821D01*
X207664285Y-154958964D01*
X207664285Y-155044678D01*
X207635714Y-155101821D01*
X207607142Y-155130392D01*
X207550000Y-155158964D01*
X207321428Y-155158964D01*
X207864285Y-154844678D02*
X208235714Y-154844678D01*
X208035714Y-155073250D01*
X208121428Y-155073250D01*
X208178571Y-155101821D01*
X208207142Y-155130392D01*
X208235714Y-155187535D01*
X208235714Y-155330392D01*
X208207142Y-155387535D01*
X208178571Y-155416107D01*
X208121428Y-155444678D01*
X207950000Y-155444678D01*
X207892857Y-155416107D01*
X207864285Y-155387535D01*
X208435714Y-154844678D02*
X208835714Y-154844678D01*
X208578571Y-155444678D01*
D10*
%TO.C,C26*%
X243682142Y-117207142D02*
X243634523Y-117254761D01*
X243491666Y-117302380D01*
X243396428Y-117302380D01*
X243253571Y-117254761D01*
X243158333Y-117159523D01*
X243110714Y-117064285D01*
X243063095Y-116873809D01*
X243063095Y-116730952D01*
X243110714Y-116540476D01*
X243158333Y-116445238D01*
X243253571Y-116350000D01*
X243396428Y-116302380D01*
X243491666Y-116302380D01*
X243634523Y-116350000D01*
X243682142Y-116397619D01*
X244063095Y-116397619D02*
X244110714Y-116350000D01*
X244205952Y-116302380D01*
X244444047Y-116302380D01*
X244539285Y-116350000D01*
X244586904Y-116397619D01*
X244634523Y-116492857D01*
X244634523Y-116588095D01*
X244586904Y-116730952D01*
X244015476Y-117302380D01*
X244634523Y-117302380D01*
X245491666Y-116302380D02*
X245301190Y-116302380D01*
X245205952Y-116350000D01*
X245158333Y-116397619D01*
X245063095Y-116540476D01*
X245015476Y-116730952D01*
X245015476Y-117111904D01*
X245063095Y-117207142D01*
X245110714Y-117254761D01*
X245205952Y-117302380D01*
X245396428Y-117302380D01*
X245491666Y-117254761D01*
X245539285Y-117207142D01*
X245586904Y-117111904D01*
X245586904Y-116873809D01*
X245539285Y-116778571D01*
X245491666Y-116730952D01*
X245396428Y-116683333D01*
X245205952Y-116683333D01*
X245110714Y-116730952D01*
X245063095Y-116778571D01*
X245015476Y-116873809D01*
D11*
%TO.C,R64*%
X198946428Y-111235714D02*
X198660714Y-111435714D01*
X198946428Y-111578571D02*
X198346428Y-111578571D01*
X198346428Y-111350000D01*
X198375000Y-111292857D01*
X198403571Y-111264285D01*
X198460714Y-111235714D01*
X198546428Y-111235714D01*
X198603571Y-111264285D01*
X198632142Y-111292857D01*
X198660714Y-111350000D01*
X198660714Y-111578571D01*
X198346428Y-110721428D02*
X198346428Y-110835714D01*
X198375000Y-110892857D01*
X198403571Y-110921428D01*
X198489285Y-110978571D01*
X198603571Y-111007142D01*
X198832142Y-111007142D01*
X198889285Y-110978571D01*
X198917857Y-110950000D01*
X198946428Y-110892857D01*
X198946428Y-110778571D01*
X198917857Y-110721428D01*
X198889285Y-110692857D01*
X198832142Y-110664285D01*
X198689285Y-110664285D01*
X198632142Y-110692857D01*
X198603571Y-110721428D01*
X198575000Y-110778571D01*
X198575000Y-110892857D01*
X198603571Y-110950000D01*
X198632142Y-110978571D01*
X198689285Y-111007142D01*
X198546428Y-110150000D02*
X198946428Y-110150000D01*
X198317857Y-110292857D02*
X198746428Y-110435714D01*
X198746428Y-110064285D01*
%TO.C,C24*%
X246739285Y-136619285D02*
X246710714Y-136647857D01*
X246625000Y-136676428D01*
X246567857Y-136676428D01*
X246482142Y-136647857D01*
X246425000Y-136590714D01*
X246396428Y-136533571D01*
X246367857Y-136419285D01*
X246367857Y-136333571D01*
X246396428Y-136219285D01*
X246425000Y-136162142D01*
X246482142Y-136105000D01*
X246567857Y-136076428D01*
X246625000Y-136076428D01*
X246710714Y-136105000D01*
X246739285Y-136133571D01*
X246967857Y-136133571D02*
X246996428Y-136105000D01*
X247053571Y-136076428D01*
X247196428Y-136076428D01*
X247253571Y-136105000D01*
X247282142Y-136133571D01*
X247310714Y-136190714D01*
X247310714Y-136247857D01*
X247282142Y-136333571D01*
X246939285Y-136676428D01*
X247310714Y-136676428D01*
X247825000Y-136276428D02*
X247825000Y-136676428D01*
X247682142Y-136047857D02*
X247539285Y-136476428D01*
X247910714Y-136476428D01*
%TO.C,R65*%
X196996428Y-105110714D02*
X196710714Y-105310714D01*
X196996428Y-105453571D02*
X196396428Y-105453571D01*
X196396428Y-105225000D01*
X196425000Y-105167857D01*
X196453571Y-105139285D01*
X196510714Y-105110714D01*
X196596428Y-105110714D01*
X196653571Y-105139285D01*
X196682142Y-105167857D01*
X196710714Y-105225000D01*
X196710714Y-105453571D01*
X196396428Y-104596428D02*
X196396428Y-104710714D01*
X196425000Y-104767857D01*
X196453571Y-104796428D01*
X196539285Y-104853571D01*
X196653571Y-104882142D01*
X196882142Y-104882142D01*
X196939285Y-104853571D01*
X196967857Y-104825000D01*
X196996428Y-104767857D01*
X196996428Y-104653571D01*
X196967857Y-104596428D01*
X196939285Y-104567857D01*
X196882142Y-104539285D01*
X196739285Y-104539285D01*
X196682142Y-104567857D01*
X196653571Y-104596428D01*
X196625000Y-104653571D01*
X196625000Y-104767857D01*
X196653571Y-104825000D01*
X196682142Y-104853571D01*
X196739285Y-104882142D01*
X196396428Y-103996428D02*
X196396428Y-104282142D01*
X196682142Y-104310714D01*
X196653571Y-104282142D01*
X196625000Y-104225000D01*
X196625000Y-104082142D01*
X196653571Y-104025000D01*
X196682142Y-103996428D01*
X196739285Y-103967857D01*
X196882142Y-103967857D01*
X196939285Y-103996428D01*
X196967857Y-104025000D01*
X196996428Y-104082142D01*
X196996428Y-104225000D01*
X196967857Y-104282142D01*
X196939285Y-104310714D01*
%TO.C,R56*%
X189096428Y-105160714D02*
X188810714Y-105360714D01*
X189096428Y-105503571D02*
X188496428Y-105503571D01*
X188496428Y-105275000D01*
X188525000Y-105217857D01*
X188553571Y-105189285D01*
X188610714Y-105160714D01*
X188696428Y-105160714D01*
X188753571Y-105189285D01*
X188782142Y-105217857D01*
X188810714Y-105275000D01*
X188810714Y-105503571D01*
X188496428Y-104617857D02*
X188496428Y-104903571D01*
X188782142Y-104932142D01*
X188753571Y-104903571D01*
X188725000Y-104846428D01*
X188725000Y-104703571D01*
X188753571Y-104646428D01*
X188782142Y-104617857D01*
X188839285Y-104589285D01*
X188982142Y-104589285D01*
X189039285Y-104617857D01*
X189067857Y-104646428D01*
X189096428Y-104703571D01*
X189096428Y-104846428D01*
X189067857Y-104903571D01*
X189039285Y-104932142D01*
X188496428Y-104075000D02*
X188496428Y-104189285D01*
X188525000Y-104246428D01*
X188553571Y-104275000D01*
X188639285Y-104332142D01*
X188753571Y-104360714D01*
X188982142Y-104360714D01*
X189039285Y-104332142D01*
X189067857Y-104303571D01*
X189096428Y-104246428D01*
X189096428Y-104132142D01*
X189067857Y-104075000D01*
X189039285Y-104046428D01*
X188982142Y-104017857D01*
X188839285Y-104017857D01*
X188782142Y-104046428D01*
X188753571Y-104075000D01*
X188725000Y-104132142D01*
X188725000Y-104246428D01*
X188753571Y-104303571D01*
X188782142Y-104332142D01*
X188839285Y-104360714D01*
D10*
%TO.C,J13*%
X263765476Y-155267380D02*
X263765476Y-155981666D01*
X263717857Y-156124523D01*
X263622619Y-156219761D01*
X263479761Y-156267380D01*
X263384523Y-156267380D01*
X264765476Y-156267380D02*
X264194047Y-156267380D01*
X264479761Y-156267380D02*
X264479761Y-155267380D01*
X264384523Y-155410238D01*
X264289285Y-155505476D01*
X264194047Y-155553095D01*
X265098809Y-155267380D02*
X265717857Y-155267380D01*
X265384523Y-155648333D01*
X265527380Y-155648333D01*
X265622619Y-155695952D01*
X265670238Y-155743571D01*
X265717857Y-155838809D01*
X265717857Y-156076904D01*
X265670238Y-156172142D01*
X265622619Y-156219761D01*
X265527380Y-156267380D01*
X265241666Y-156267380D01*
X265146428Y-156219761D01*
X265098809Y-156172142D01*
D13*
%TO.C,TP1*%
X177846428Y-144710714D02*
X178017857Y-144710714D01*
X177932142Y-145010714D02*
X177932142Y-144710714D01*
X178117857Y-145010714D02*
X178117857Y-144710714D01*
X178232142Y-144710714D01*
X178260714Y-144725000D01*
X178275000Y-144739285D01*
X178289285Y-144767857D01*
X178289285Y-144810714D01*
X178275000Y-144839285D01*
X178260714Y-144853571D01*
X178232142Y-144867857D01*
X178117857Y-144867857D01*
X178575000Y-145010714D02*
X178403571Y-145010714D01*
X178489285Y-145010714D02*
X178489285Y-144710714D01*
X178460714Y-144753571D01*
X178432142Y-144782142D01*
X178403571Y-144796428D01*
D10*
%TO.C,Q15*%
X195305095Y-110217142D02*
X195267000Y-110293333D01*
X195190809Y-110369523D01*
X195076523Y-110483809D01*
X195038428Y-110560000D01*
X195038428Y-110636190D01*
X195228904Y-110598095D02*
X195190809Y-110674285D01*
X195114619Y-110750476D01*
X194962238Y-110788571D01*
X194695571Y-110788571D01*
X194543190Y-110750476D01*
X194467000Y-110674285D01*
X194428904Y-110598095D01*
X194428904Y-110445714D01*
X194467000Y-110369523D01*
X194543190Y-110293333D01*
X194695571Y-110255238D01*
X194962238Y-110255238D01*
X195114619Y-110293333D01*
X195190809Y-110369523D01*
X195228904Y-110445714D01*
X195228904Y-110598095D01*
X195228904Y-109493333D02*
X195228904Y-109950476D01*
X195228904Y-109721904D02*
X194428904Y-109721904D01*
X194543190Y-109798095D01*
X194619380Y-109874285D01*
X194657476Y-109950476D01*
X194428904Y-108769523D02*
X194428904Y-109150476D01*
X194809857Y-109188571D01*
X194771761Y-109150476D01*
X194733666Y-109074285D01*
X194733666Y-108883809D01*
X194771761Y-108807619D01*
X194809857Y-108769523D01*
X194886047Y-108731428D01*
X195076523Y-108731428D01*
X195152714Y-108769523D01*
X195190809Y-108807619D01*
X195228904Y-108883809D01*
X195228904Y-109074285D01*
X195190809Y-109150476D01*
X195152714Y-109188571D01*
%TO.C,R8*%
X190183333Y-178652380D02*
X189850000Y-178176190D01*
X189611904Y-178652380D02*
X189611904Y-177652380D01*
X189992857Y-177652380D01*
X190088095Y-177700000D01*
X190135714Y-177747619D01*
X190183333Y-177842857D01*
X190183333Y-177985714D01*
X190135714Y-178080952D01*
X190088095Y-178128571D01*
X189992857Y-178176190D01*
X189611904Y-178176190D01*
X190754761Y-178080952D02*
X190659523Y-178033333D01*
X190611904Y-177985714D01*
X190564285Y-177890476D01*
X190564285Y-177842857D01*
X190611904Y-177747619D01*
X190659523Y-177700000D01*
X190754761Y-177652380D01*
X190945238Y-177652380D01*
X191040476Y-177700000D01*
X191088095Y-177747619D01*
X191135714Y-177842857D01*
X191135714Y-177890476D01*
X191088095Y-177985714D01*
X191040476Y-178033333D01*
X190945238Y-178080952D01*
X190754761Y-178080952D01*
X190659523Y-178128571D01*
X190611904Y-178176190D01*
X190564285Y-178271428D01*
X190564285Y-178461904D01*
X190611904Y-178557142D01*
X190659523Y-178604761D01*
X190754761Y-178652380D01*
X190945238Y-178652380D01*
X191040476Y-178604761D01*
X191088095Y-178557142D01*
X191135714Y-178461904D01*
X191135714Y-178271428D01*
X191088095Y-178176190D01*
X191040476Y-178128571D01*
X190945238Y-178080952D01*
D11*
%TO.C,R21*%
X192221428Y-167135714D02*
X191935714Y-167335714D01*
X192221428Y-167478571D02*
X191621428Y-167478571D01*
X191621428Y-167250000D01*
X191650000Y-167192857D01*
X191678571Y-167164285D01*
X191735714Y-167135714D01*
X191821428Y-167135714D01*
X191878571Y-167164285D01*
X191907142Y-167192857D01*
X191935714Y-167250000D01*
X191935714Y-167478571D01*
X191678571Y-166907142D02*
X191650000Y-166878571D01*
X191621428Y-166821428D01*
X191621428Y-166678571D01*
X191650000Y-166621428D01*
X191678571Y-166592857D01*
X191735714Y-166564285D01*
X191792857Y-166564285D01*
X191878571Y-166592857D01*
X192221428Y-166935714D01*
X192221428Y-166564285D01*
X192221428Y-165992857D02*
X192221428Y-166335714D01*
X192221428Y-166164285D02*
X191621428Y-166164285D01*
X191707142Y-166221428D01*
X191764285Y-166278571D01*
X191792857Y-166335714D01*
%TO.C,R29*%
X233509285Y-157136428D02*
X233309285Y-156850714D01*
X233166428Y-157136428D02*
X233166428Y-156536428D01*
X233395000Y-156536428D01*
X233452142Y-156565000D01*
X233480714Y-156593571D01*
X233509285Y-156650714D01*
X233509285Y-156736428D01*
X233480714Y-156793571D01*
X233452142Y-156822142D01*
X233395000Y-156850714D01*
X233166428Y-156850714D01*
X233737857Y-156593571D02*
X233766428Y-156565000D01*
X233823571Y-156536428D01*
X233966428Y-156536428D01*
X234023571Y-156565000D01*
X234052142Y-156593571D01*
X234080714Y-156650714D01*
X234080714Y-156707857D01*
X234052142Y-156793571D01*
X233709285Y-157136428D01*
X234080714Y-157136428D01*
X234366428Y-157136428D02*
X234480714Y-157136428D01*
X234537857Y-157107857D01*
X234566428Y-157079285D01*
X234623571Y-156993571D01*
X234652142Y-156879285D01*
X234652142Y-156650714D01*
X234623571Y-156593571D01*
X234595000Y-156565000D01*
X234537857Y-156536428D01*
X234423571Y-156536428D01*
X234366428Y-156565000D01*
X234337857Y-156593571D01*
X234309285Y-156650714D01*
X234309285Y-156793571D01*
X234337857Y-156850714D01*
X234366428Y-156879285D01*
X234423571Y-156907857D01*
X234537857Y-156907857D01*
X234595000Y-156879285D01*
X234623571Y-156850714D01*
X234652142Y-156793571D01*
D12*
%TO.C,IC2*%
X162810238Y-152024523D02*
X162810238Y-150754523D01*
X164140714Y-151903571D02*
X164080238Y-151964047D01*
X163898809Y-152024523D01*
X163777857Y-152024523D01*
X163596428Y-151964047D01*
X163475476Y-151843095D01*
X163415000Y-151722142D01*
X163354523Y-151480238D01*
X163354523Y-151298809D01*
X163415000Y-151056904D01*
X163475476Y-150935952D01*
X163596428Y-150815000D01*
X163777857Y-150754523D01*
X163898809Y-150754523D01*
X164080238Y-150815000D01*
X164140714Y-150875476D01*
X164624523Y-150875476D02*
X164685000Y-150815000D01*
X164805952Y-150754523D01*
X165108333Y-150754523D01*
X165229285Y-150815000D01*
X165289761Y-150875476D01*
X165350238Y-150996428D01*
X165350238Y-151117380D01*
X165289761Y-151298809D01*
X164564047Y-152024523D01*
X165350238Y-152024523D01*
D10*
%TO.C,C9*%
X281562857Y-128642133D02*
X281515238Y-128594514D01*
X281467619Y-128451657D01*
X281467619Y-128356419D01*
X281515238Y-128213561D01*
X281610476Y-128118323D01*
X281705714Y-128070704D01*
X281896190Y-128023085D01*
X282039047Y-128023085D01*
X282229523Y-128070704D01*
X282324761Y-128118323D01*
X282420000Y-128213561D01*
X282467619Y-128356419D01*
X282467619Y-128451657D01*
X282420000Y-128594514D01*
X282372380Y-128642133D01*
X281467619Y-129118323D02*
X281467619Y-129308800D01*
X281515238Y-129404038D01*
X281562857Y-129451657D01*
X281705714Y-129546895D01*
X281896190Y-129594514D01*
X282277142Y-129594514D01*
X282372380Y-129546895D01*
X282420000Y-129499276D01*
X282467619Y-129404038D01*
X282467619Y-129213561D01*
X282420000Y-129118323D01*
X282372380Y-129070704D01*
X282277142Y-129023085D01*
X282039047Y-129023085D01*
X281943809Y-129070704D01*
X281896190Y-129118323D01*
X281848571Y-129213561D01*
X281848571Y-129404038D01*
X281896190Y-129499276D01*
X281943809Y-129546895D01*
X282039047Y-129594514D01*
D11*
%TO.C,R14*%
X190021428Y-160985714D02*
X189735714Y-161185714D01*
X190021428Y-161328571D02*
X189421428Y-161328571D01*
X189421428Y-161100000D01*
X189450000Y-161042857D01*
X189478571Y-161014285D01*
X189535714Y-160985714D01*
X189621428Y-160985714D01*
X189678571Y-161014285D01*
X189707142Y-161042857D01*
X189735714Y-161100000D01*
X189735714Y-161328571D01*
X190021428Y-160414285D02*
X190021428Y-160757142D01*
X190021428Y-160585714D02*
X189421428Y-160585714D01*
X189507142Y-160642857D01*
X189564285Y-160700000D01*
X189592857Y-160757142D01*
X189621428Y-159900000D02*
X190021428Y-159900000D01*
X189392857Y-160042857D02*
X189821428Y-160185714D01*
X189821428Y-159814285D01*
D10*
%TO.C,U11*%
X228302380Y-128088095D02*
X229111904Y-128088095D01*
X229207142Y-128040476D01*
X229254761Y-127992857D01*
X229302380Y-127897619D01*
X229302380Y-127707142D01*
X229254761Y-127611904D01*
X229207142Y-127564285D01*
X229111904Y-127516666D01*
X228302380Y-127516666D01*
X229302380Y-126516666D02*
X229302380Y-127088095D01*
X229302380Y-126802380D02*
X228302380Y-126802380D01*
X228445238Y-126897619D01*
X228540476Y-126992857D01*
X228588095Y-127088095D01*
X229302380Y-125564285D02*
X229302380Y-126135714D01*
X229302380Y-125850000D02*
X228302380Y-125850000D01*
X228445238Y-125945238D01*
X228540476Y-126040476D01*
X228588095Y-126135714D01*
%TO.C,J15*%
X311105476Y-155222380D02*
X311105476Y-155936666D01*
X311057857Y-156079523D01*
X310962619Y-156174761D01*
X310819761Y-156222380D01*
X310724523Y-156222380D01*
X312105476Y-156222380D02*
X311534047Y-156222380D01*
X311819761Y-156222380D02*
X311819761Y-155222380D01*
X311724523Y-155365238D01*
X311629285Y-155460476D01*
X311534047Y-155508095D01*
X313010238Y-155222380D02*
X312534047Y-155222380D01*
X312486428Y-155698571D01*
X312534047Y-155650952D01*
X312629285Y-155603333D01*
X312867380Y-155603333D01*
X312962619Y-155650952D01*
X313010238Y-155698571D01*
X313057857Y-155793809D01*
X313057857Y-156031904D01*
X313010238Y-156127142D01*
X312962619Y-156174761D01*
X312867380Y-156222380D01*
X312629285Y-156222380D01*
X312534047Y-156174761D01*
X312486428Y-156127142D01*
%TO.C,Q2*%
X191947619Y-174745238D02*
X191900000Y-174840476D01*
X191804761Y-174935714D01*
X191661904Y-175078571D01*
X191614285Y-175173809D01*
X191614285Y-175269047D01*
X191852380Y-175221428D02*
X191804761Y-175316666D01*
X191709523Y-175411904D01*
X191519047Y-175459523D01*
X191185714Y-175459523D01*
X190995238Y-175411904D01*
X190900000Y-175316666D01*
X190852380Y-175221428D01*
X190852380Y-175030952D01*
X190900000Y-174935714D01*
X190995238Y-174840476D01*
X191185714Y-174792857D01*
X191519047Y-174792857D01*
X191709523Y-174840476D01*
X191804761Y-174935714D01*
X191852380Y-175030952D01*
X191852380Y-175221428D01*
X190947619Y-174411904D02*
X190900000Y-174364285D01*
X190852380Y-174269047D01*
X190852380Y-174030952D01*
X190900000Y-173935714D01*
X190947619Y-173888095D01*
X191042857Y-173840476D01*
X191138095Y-173840476D01*
X191280952Y-173888095D01*
X191852380Y-174459523D01*
X191852380Y-173840476D01*
%TO.C,Q12*%
X196946095Y-106309642D02*
X196908000Y-106385833D01*
X196831809Y-106462023D01*
X196717523Y-106576309D01*
X196679428Y-106652500D01*
X196679428Y-106728690D01*
X196869904Y-106690595D02*
X196831809Y-106766785D01*
X196755619Y-106842976D01*
X196603238Y-106881071D01*
X196336571Y-106881071D01*
X196184190Y-106842976D01*
X196108000Y-106766785D01*
X196069904Y-106690595D01*
X196069904Y-106538214D01*
X196108000Y-106462023D01*
X196184190Y-106385833D01*
X196336571Y-106347738D01*
X196603238Y-106347738D01*
X196755619Y-106385833D01*
X196831809Y-106462023D01*
X196869904Y-106538214D01*
X196869904Y-106690595D01*
X196869904Y-105585833D02*
X196869904Y-106042976D01*
X196869904Y-105814404D02*
X196069904Y-105814404D01*
X196184190Y-105890595D01*
X196260380Y-105966785D01*
X196298476Y-106042976D01*
X196146095Y-105281071D02*
X196108000Y-105242976D01*
X196069904Y-105166785D01*
X196069904Y-104976309D01*
X196108000Y-104900119D01*
X196146095Y-104862023D01*
X196222285Y-104823928D01*
X196298476Y-104823928D01*
X196412761Y-104862023D01*
X196869904Y-105319166D01*
X196869904Y-104823928D01*
%TO.C,U13*%
X230221308Y-146338095D02*
X231030832Y-146338095D01*
X231126070Y-146290476D01*
X231173689Y-146242857D01*
X231221308Y-146147619D01*
X231221308Y-145957142D01*
X231173689Y-145861904D01*
X231126070Y-145814285D01*
X231030832Y-145766666D01*
X230221308Y-145766666D01*
X231221308Y-144766666D02*
X231221308Y-145338095D01*
X231221308Y-145052380D02*
X230221308Y-145052380D01*
X230364166Y-145147619D01*
X230459404Y-145242857D01*
X230507023Y-145338095D01*
X230221308Y-144433333D02*
X230221308Y-143814285D01*
X230602261Y-144147619D01*
X230602261Y-144004761D01*
X230649880Y-143909523D01*
X230697499Y-143861904D01*
X230792737Y-143814285D01*
X231030832Y-143814285D01*
X231126070Y-143861904D01*
X231173689Y-143909523D01*
X231221308Y-144004761D01*
X231221308Y-144290476D01*
X231173689Y-144385714D01*
X231126070Y-144433333D01*
X236571308Y-151247619D02*
X235571308Y-151247619D01*
X235571308Y-150866666D01*
X235618928Y-150771428D01*
X235666547Y-150723809D01*
X235761785Y-150676190D01*
X235904642Y-150676190D01*
X235999880Y-150723809D01*
X236047499Y-150771428D01*
X236095118Y-150866666D01*
X236095118Y-151247619D01*
X236476070Y-149676190D02*
X236523689Y-149723809D01*
X236571308Y-149866666D01*
X236571308Y-149961904D01*
X236523689Y-150104761D01*
X236428451Y-150200000D01*
X236333213Y-150247619D01*
X236142737Y-150295238D01*
X235999880Y-150295238D01*
X235809404Y-150247619D01*
X235714166Y-150200000D01*
X235618928Y-150104761D01*
X235571308Y-149961904D01*
X235571308Y-149866666D01*
X235618928Y-149723809D01*
X235666547Y-149676190D01*
X235571308Y-149390476D02*
X235571308Y-148819047D01*
X236571308Y-149104761D02*
X235571308Y-149104761D01*
X235666547Y-148533333D02*
X235618928Y-148485714D01*
X235571308Y-148390476D01*
X235571308Y-148152380D01*
X235618928Y-148057142D01*
X235666547Y-148009523D01*
X235761785Y-147961904D01*
X235857023Y-147961904D01*
X235999880Y-148009523D01*
X236571308Y-148580952D01*
X236571308Y-147961904D01*
X235571308Y-147342857D02*
X235571308Y-147247619D01*
X235618928Y-147152380D01*
X235666547Y-147104761D01*
X235761785Y-147057142D01*
X235952261Y-147009523D01*
X236190356Y-147009523D01*
X236380832Y-147057142D01*
X236476070Y-147104761D01*
X236523689Y-147152380D01*
X236571308Y-147247619D01*
X236571308Y-147342857D01*
X236523689Y-147438095D01*
X236476070Y-147485714D01*
X236380832Y-147533333D01*
X236190356Y-147580952D01*
X235952261Y-147580952D01*
X235761785Y-147533333D01*
X235666547Y-147485714D01*
X235618928Y-147438095D01*
X235571308Y-147342857D01*
X235571308Y-146676190D02*
X235571308Y-146009523D01*
X236571308Y-146438095D01*
X235571308Y-145152380D02*
X235571308Y-145628571D01*
X236047499Y-145676190D01*
X235999880Y-145628571D01*
X235952261Y-145533333D01*
X235952261Y-145295238D01*
X235999880Y-145200000D01*
X236047499Y-145152380D01*
X236142737Y-145104761D01*
X236380832Y-145104761D01*
X236476070Y-145152380D01*
X236523689Y-145200000D01*
X236571308Y-145295238D01*
X236571308Y-145533333D01*
X236523689Y-145628571D01*
X236476070Y-145676190D01*
D11*
%TO.C,C17*%
X205114285Y-150019285D02*
X205085714Y-150047857D01*
X205000000Y-150076428D01*
X204942857Y-150076428D01*
X204857142Y-150047857D01*
X204800000Y-149990714D01*
X204771428Y-149933571D01*
X204742857Y-149819285D01*
X204742857Y-149733571D01*
X204771428Y-149619285D01*
X204800000Y-149562142D01*
X204857142Y-149505000D01*
X204942857Y-149476428D01*
X205000000Y-149476428D01*
X205085714Y-149505000D01*
X205114285Y-149533571D01*
X205685714Y-150076428D02*
X205342857Y-150076428D01*
X205514285Y-150076428D02*
X205514285Y-149476428D01*
X205457142Y-149562142D01*
X205400000Y-149619285D01*
X205342857Y-149647857D01*
X205885714Y-149476428D02*
X206285714Y-149476428D01*
X206028571Y-150076428D01*
D10*
%TO.C,C1*%
X168182142Y-153641666D02*
X168229761Y-153689285D01*
X168277380Y-153832142D01*
X168277380Y-153927380D01*
X168229761Y-154070238D01*
X168134523Y-154165476D01*
X168039285Y-154213095D01*
X167848809Y-154260714D01*
X167705952Y-154260714D01*
X167515476Y-154213095D01*
X167420238Y-154165476D01*
X167325000Y-154070238D01*
X167277380Y-153927380D01*
X167277380Y-153832142D01*
X167325000Y-153689285D01*
X167372619Y-153641666D01*
X168277380Y-152689285D02*
X168277380Y-153260714D01*
X168277380Y-152975000D02*
X167277380Y-152975000D01*
X167420238Y-153070238D01*
X167515476Y-153165476D01*
X167563095Y-153260714D01*
%TO.C,IC1*%
X159348809Y-157827380D02*
X159348809Y-156827380D01*
X160396428Y-157732142D02*
X160348809Y-157779761D01*
X160205952Y-157827380D01*
X160110714Y-157827380D01*
X159967857Y-157779761D01*
X159872619Y-157684523D01*
X159825000Y-157589285D01*
X159777380Y-157398809D01*
X159777380Y-157255952D01*
X159825000Y-157065476D01*
X159872619Y-156970238D01*
X159967857Y-156875000D01*
X160110714Y-156827380D01*
X160205952Y-156827380D01*
X160348809Y-156875000D01*
X160396428Y-156922619D01*
X161348809Y-157827380D02*
X160777380Y-157827380D01*
X161063095Y-157827380D02*
X161063095Y-156827380D01*
X160967857Y-156970238D01*
X160872619Y-157065476D01*
X160777380Y-157113095D01*
D11*
%TO.C,R43*%
X223376428Y-160775714D02*
X223090714Y-160975714D01*
X223376428Y-161118571D02*
X222776428Y-161118571D01*
X222776428Y-160890000D01*
X222805000Y-160832857D01*
X222833571Y-160804285D01*
X222890714Y-160775714D01*
X222976428Y-160775714D01*
X223033571Y-160804285D01*
X223062142Y-160832857D01*
X223090714Y-160890000D01*
X223090714Y-161118571D01*
X222976428Y-160261428D02*
X223376428Y-160261428D01*
X222747857Y-160404285D02*
X223176428Y-160547142D01*
X223176428Y-160175714D01*
X222776428Y-160004285D02*
X222776428Y-159632857D01*
X223005000Y-159832857D01*
X223005000Y-159747142D01*
X223033571Y-159690000D01*
X223062142Y-159661428D01*
X223119285Y-159632857D01*
X223262142Y-159632857D01*
X223319285Y-159661428D01*
X223347857Y-159690000D01*
X223376428Y-159747142D01*
X223376428Y-159918571D01*
X223347857Y-159975714D01*
X223319285Y-160004285D01*
D10*
%TO.C,C15*%
X214782142Y-159857142D02*
X214734523Y-159904761D01*
X214591666Y-159952380D01*
X214496428Y-159952380D01*
X214353571Y-159904761D01*
X214258333Y-159809523D01*
X214210714Y-159714285D01*
X214163095Y-159523809D01*
X214163095Y-159380952D01*
X214210714Y-159190476D01*
X214258333Y-159095238D01*
X214353571Y-159000000D01*
X214496428Y-158952380D01*
X214591666Y-158952380D01*
X214734523Y-159000000D01*
X214782142Y-159047619D01*
X215734523Y-159952380D02*
X215163095Y-159952380D01*
X215448809Y-159952380D02*
X215448809Y-158952380D01*
X215353571Y-159095238D01*
X215258333Y-159190476D01*
X215163095Y-159238095D01*
X216639285Y-158952380D02*
X216163095Y-158952380D01*
X216115476Y-159428571D01*
X216163095Y-159380952D01*
X216258333Y-159333333D01*
X216496428Y-159333333D01*
X216591666Y-159380952D01*
X216639285Y-159428571D01*
X216686904Y-159523809D01*
X216686904Y-159761904D01*
X216639285Y-159857142D01*
X216591666Y-159904761D01*
X216496428Y-159952380D01*
X216258333Y-159952380D01*
X216163095Y-159904761D01*
X216115476Y-159857142D01*
D11*
%TO.C,C13*%
X209539285Y-157434285D02*
X209510714Y-157462857D01*
X209425000Y-157491428D01*
X209367857Y-157491428D01*
X209282142Y-157462857D01*
X209225000Y-157405714D01*
X209196428Y-157348571D01*
X209167857Y-157234285D01*
X209167857Y-157148571D01*
X209196428Y-157034285D01*
X209225000Y-156977142D01*
X209282142Y-156920000D01*
X209367857Y-156891428D01*
X209425000Y-156891428D01*
X209510714Y-156920000D01*
X209539285Y-156948571D01*
X210110714Y-157491428D02*
X209767857Y-157491428D01*
X209939285Y-157491428D02*
X209939285Y-156891428D01*
X209882142Y-156977142D01*
X209825000Y-157034285D01*
X209767857Y-157062857D01*
X210310714Y-156891428D02*
X210682142Y-156891428D01*
X210482142Y-157120000D01*
X210567857Y-157120000D01*
X210625000Y-157148571D01*
X210653571Y-157177142D01*
X210682142Y-157234285D01*
X210682142Y-157377142D01*
X210653571Y-157434285D01*
X210625000Y-157462857D01*
X210567857Y-157491428D01*
X210396428Y-157491428D01*
X210339285Y-157462857D01*
X210310714Y-157434285D01*
%TO.C,R42*%
X221976428Y-160775714D02*
X221690714Y-160975714D01*
X221976428Y-161118571D02*
X221376428Y-161118571D01*
X221376428Y-160890000D01*
X221405000Y-160832857D01*
X221433571Y-160804285D01*
X221490714Y-160775714D01*
X221576428Y-160775714D01*
X221633571Y-160804285D01*
X221662142Y-160832857D01*
X221690714Y-160890000D01*
X221690714Y-161118571D01*
X221576428Y-160261428D02*
X221976428Y-160261428D01*
X221347857Y-160404285D02*
X221776428Y-160547142D01*
X221776428Y-160175714D01*
X221433571Y-159975714D02*
X221405000Y-159947142D01*
X221376428Y-159890000D01*
X221376428Y-159747142D01*
X221405000Y-159690000D01*
X221433571Y-159661428D01*
X221490714Y-159632857D01*
X221547857Y-159632857D01*
X221633571Y-159661428D01*
X221976428Y-160004285D01*
X221976428Y-159632857D01*
%TO.C,R23*%
X195989285Y-121921428D02*
X195789285Y-121635714D01*
X195646428Y-121921428D02*
X195646428Y-121321428D01*
X195875000Y-121321428D01*
X195932142Y-121350000D01*
X195960714Y-121378571D01*
X195989285Y-121435714D01*
X195989285Y-121521428D01*
X195960714Y-121578571D01*
X195932142Y-121607142D01*
X195875000Y-121635714D01*
X195646428Y-121635714D01*
X196217857Y-121378571D02*
X196246428Y-121350000D01*
X196303571Y-121321428D01*
X196446428Y-121321428D01*
X196503571Y-121350000D01*
X196532142Y-121378571D01*
X196560714Y-121435714D01*
X196560714Y-121492857D01*
X196532142Y-121578571D01*
X196189285Y-121921428D01*
X196560714Y-121921428D01*
X196760714Y-121321428D02*
X197132142Y-121321428D01*
X196932142Y-121550000D01*
X197017857Y-121550000D01*
X197075000Y-121578571D01*
X197103571Y-121607142D01*
X197132142Y-121664285D01*
X197132142Y-121807142D01*
X197103571Y-121864285D01*
X197075000Y-121892857D01*
X197017857Y-121921428D01*
X196846428Y-121921428D01*
X196789285Y-121892857D01*
X196760714Y-121864285D01*
%TO.C,R13*%
X193996428Y-161010714D02*
X193710714Y-161210714D01*
X193996428Y-161353571D02*
X193396428Y-161353571D01*
X193396428Y-161125000D01*
X193425000Y-161067857D01*
X193453571Y-161039285D01*
X193510714Y-161010714D01*
X193596428Y-161010714D01*
X193653571Y-161039285D01*
X193682142Y-161067857D01*
X193710714Y-161125000D01*
X193710714Y-161353571D01*
X193996428Y-160439285D02*
X193996428Y-160782142D01*
X193996428Y-160610714D02*
X193396428Y-160610714D01*
X193482142Y-160667857D01*
X193539285Y-160725000D01*
X193567857Y-160782142D01*
X193396428Y-160239285D02*
X193396428Y-159867857D01*
X193625000Y-160067857D01*
X193625000Y-159982142D01*
X193653571Y-159925000D01*
X193682142Y-159896428D01*
X193739285Y-159867857D01*
X193882142Y-159867857D01*
X193939285Y-159896428D01*
X193967857Y-159925000D01*
X193996428Y-159982142D01*
X193996428Y-160153571D01*
X193967857Y-160210714D01*
X193939285Y-160239285D01*
D10*
%TO.C,C35*%
X176432142Y-147792857D02*
X176479761Y-147840476D01*
X176527380Y-147983333D01*
X176527380Y-148078571D01*
X176479761Y-148221428D01*
X176384523Y-148316666D01*
X176289285Y-148364285D01*
X176098809Y-148411904D01*
X175955952Y-148411904D01*
X175765476Y-148364285D01*
X175670238Y-148316666D01*
X175575000Y-148221428D01*
X175527380Y-148078571D01*
X175527380Y-147983333D01*
X175575000Y-147840476D01*
X175622619Y-147792857D01*
X175527380Y-147459523D02*
X175527380Y-146840476D01*
X175908333Y-147173809D01*
X175908333Y-147030952D01*
X175955952Y-146935714D01*
X176003571Y-146888095D01*
X176098809Y-146840476D01*
X176336904Y-146840476D01*
X176432142Y-146888095D01*
X176479761Y-146935714D01*
X176527380Y-147030952D01*
X176527380Y-147316666D01*
X176479761Y-147411904D01*
X176432142Y-147459523D01*
X175527380Y-145935714D02*
X175527380Y-146411904D01*
X176003571Y-146459523D01*
X175955952Y-146411904D01*
X175908333Y-146316666D01*
X175908333Y-146078571D01*
X175955952Y-145983333D01*
X176003571Y-145935714D01*
X176098809Y-145888095D01*
X176336904Y-145888095D01*
X176432142Y-145935714D01*
X176479761Y-145983333D01*
X176527380Y-146078571D01*
X176527380Y-146316666D01*
X176479761Y-146411904D01*
X176432142Y-146459523D01*
D11*
%TO.C,R47*%
X219489285Y-115996428D02*
X219289285Y-115710714D01*
X219146428Y-115996428D02*
X219146428Y-115396428D01*
X219375000Y-115396428D01*
X219432142Y-115425000D01*
X219460714Y-115453571D01*
X219489285Y-115510714D01*
X219489285Y-115596428D01*
X219460714Y-115653571D01*
X219432142Y-115682142D01*
X219375000Y-115710714D01*
X219146428Y-115710714D01*
X220003571Y-115596428D02*
X220003571Y-115996428D01*
X219860714Y-115367857D02*
X219717857Y-115796428D01*
X220089285Y-115796428D01*
X220260714Y-115396428D02*
X220660714Y-115396428D01*
X220403571Y-115996428D01*
D10*
%TO.C,C6*%
X285009457Y-155095333D02*
X284961838Y-155047714D01*
X284914219Y-154904857D01*
X284914219Y-154809619D01*
X284961838Y-154666761D01*
X285057076Y-154571523D01*
X285152314Y-154523904D01*
X285342790Y-154476285D01*
X285485647Y-154476285D01*
X285676123Y-154523904D01*
X285771361Y-154571523D01*
X285866600Y-154666761D01*
X285914219Y-154809619D01*
X285914219Y-154904857D01*
X285866600Y-155047714D01*
X285818980Y-155095333D01*
X285914219Y-155952476D02*
X285914219Y-155762000D01*
X285866600Y-155666761D01*
X285818980Y-155619142D01*
X285676123Y-155523904D01*
X285485647Y-155476285D01*
X285104695Y-155476285D01*
X285009457Y-155523904D01*
X284961838Y-155571523D01*
X284914219Y-155666761D01*
X284914219Y-155857238D01*
X284961838Y-155952476D01*
X285009457Y-156000095D01*
X285104695Y-156047714D01*
X285342790Y-156047714D01*
X285438028Y-156000095D01*
X285485647Y-155952476D01*
X285533266Y-155857238D01*
X285533266Y-155666761D01*
X285485647Y-155571523D01*
X285438028Y-155523904D01*
X285342790Y-155476285D01*
%TO.C,Q3*%
X234971095Y-66003690D02*
X234933000Y-66079880D01*
X234856809Y-66156071D01*
X234742523Y-66270357D01*
X234704428Y-66346547D01*
X234704428Y-66422738D01*
X234894904Y-66384642D02*
X234856809Y-66460833D01*
X234780619Y-66537023D01*
X234628238Y-66575119D01*
X234361571Y-66575119D01*
X234209190Y-66537023D01*
X234133000Y-66460833D01*
X234094904Y-66384642D01*
X234094904Y-66232261D01*
X234133000Y-66156071D01*
X234209190Y-66079880D01*
X234361571Y-66041785D01*
X234628238Y-66041785D01*
X234780619Y-66079880D01*
X234856809Y-66156071D01*
X234894904Y-66232261D01*
X234894904Y-66384642D01*
X234094904Y-65775119D02*
X234094904Y-65279880D01*
X234399666Y-65546547D01*
X234399666Y-65432261D01*
X234437761Y-65356071D01*
X234475857Y-65317976D01*
X234552047Y-65279880D01*
X234742523Y-65279880D01*
X234818714Y-65317976D01*
X234856809Y-65356071D01*
X234894904Y-65432261D01*
X234894904Y-65660833D01*
X234856809Y-65737023D01*
X234818714Y-65775119D01*
D14*
%TO.C,U4*%
X228963163Y-157653557D02*
X229187942Y-157653557D01*
X229214387Y-157640335D01*
X229227609Y-157627112D01*
X229240832Y-157600668D01*
X229240832Y-157547778D01*
X229227609Y-157521334D01*
X229214387Y-157508111D01*
X229187942Y-157494889D01*
X228963163Y-157494889D01*
X229055719Y-157243665D02*
X229240832Y-157243665D01*
X228949940Y-157309776D02*
X229148275Y-157375888D01*
X229148275Y-157203998D01*
D10*
%TO.C,C21*%
X202782142Y-116782142D02*
X202734523Y-116829761D01*
X202591666Y-116877380D01*
X202496428Y-116877380D01*
X202353571Y-116829761D01*
X202258333Y-116734523D01*
X202210714Y-116639285D01*
X202163095Y-116448809D01*
X202163095Y-116305952D01*
X202210714Y-116115476D01*
X202258333Y-116020238D01*
X202353571Y-115925000D01*
X202496428Y-115877380D01*
X202591666Y-115877380D01*
X202734523Y-115925000D01*
X202782142Y-115972619D01*
X203163095Y-115972619D02*
X203210714Y-115925000D01*
X203305952Y-115877380D01*
X203544047Y-115877380D01*
X203639285Y-115925000D01*
X203686904Y-115972619D01*
X203734523Y-116067857D01*
X203734523Y-116163095D01*
X203686904Y-116305952D01*
X203115476Y-116877380D01*
X203734523Y-116877380D01*
X204686904Y-116877380D02*
X204115476Y-116877380D01*
X204401190Y-116877380D02*
X204401190Y-115877380D01*
X204305952Y-116020238D01*
X204210714Y-116115476D01*
X204115476Y-116163095D01*
%TO.C,U24*%
X238852380Y-109888095D02*
X239661904Y-109888095D01*
X239757142Y-109840476D01*
X239804761Y-109792857D01*
X239852380Y-109697619D01*
X239852380Y-109507142D01*
X239804761Y-109411904D01*
X239757142Y-109364285D01*
X239661904Y-109316666D01*
X238852380Y-109316666D01*
X238947619Y-108888095D02*
X238900000Y-108840476D01*
X238852380Y-108745238D01*
X238852380Y-108507142D01*
X238900000Y-108411904D01*
X238947619Y-108364285D01*
X239042857Y-108316666D01*
X239138095Y-108316666D01*
X239280952Y-108364285D01*
X239852380Y-108935714D01*
X239852380Y-108316666D01*
X239185714Y-107459523D02*
X239852380Y-107459523D01*
X238804761Y-107697619D02*
X239519047Y-107935714D01*
X239519047Y-107316666D01*
X231207142Y-106721428D02*
X231207142Y-105578571D01*
X231157142Y-111771428D02*
X231157142Y-110628571D01*
X231728571Y-111200000D02*
X230585714Y-111200000D01*
D11*
%TO.C,D10*%
X210846428Y-116046428D02*
X210846428Y-115446428D01*
X210989285Y-115446428D01*
X211075000Y-115475000D01*
X211132142Y-115532142D01*
X211160714Y-115589285D01*
X211189285Y-115703571D01*
X211189285Y-115789285D01*
X211160714Y-115903571D01*
X211132142Y-115960714D01*
X211075000Y-116017857D01*
X210989285Y-116046428D01*
X210846428Y-116046428D01*
X211760714Y-116046428D02*
X211417857Y-116046428D01*
X211589285Y-116046428D02*
X211589285Y-115446428D01*
X211532142Y-115532142D01*
X211475000Y-115589285D01*
X211417857Y-115617857D01*
X212132142Y-115446428D02*
X212189285Y-115446428D01*
X212246428Y-115475000D01*
X212275000Y-115503571D01*
X212303571Y-115560714D01*
X212332142Y-115675000D01*
X212332142Y-115817857D01*
X212303571Y-115932142D01*
X212275000Y-115989285D01*
X212246428Y-116017857D01*
X212189285Y-116046428D01*
X212132142Y-116046428D01*
X212075000Y-116017857D01*
X212046428Y-115989285D01*
X212017857Y-115932142D01*
X211989285Y-115817857D01*
X211989285Y-115675000D01*
X212017857Y-115560714D01*
X212046428Y-115503571D01*
X212075000Y-115475000D01*
X212132142Y-115446428D01*
D10*
%TO.C,Q8*%
X177254761Y-125247619D02*
X177159523Y-125200000D01*
X177064285Y-125104761D01*
X176921428Y-124961904D01*
X176826190Y-124914285D01*
X176730952Y-124914285D01*
X176778571Y-125152380D02*
X176683333Y-125104761D01*
X176588095Y-125009523D01*
X176540476Y-124819047D01*
X176540476Y-124485714D01*
X176588095Y-124295238D01*
X176683333Y-124200000D01*
X176778571Y-124152380D01*
X176969047Y-124152380D01*
X177064285Y-124200000D01*
X177159523Y-124295238D01*
X177207142Y-124485714D01*
X177207142Y-124819047D01*
X177159523Y-125009523D01*
X177064285Y-125104761D01*
X176969047Y-125152380D01*
X176778571Y-125152380D01*
X177778571Y-124580952D02*
X177683333Y-124533333D01*
X177635714Y-124485714D01*
X177588095Y-124390476D01*
X177588095Y-124342857D01*
X177635714Y-124247619D01*
X177683333Y-124200000D01*
X177778571Y-124152380D01*
X177969047Y-124152380D01*
X178064285Y-124200000D01*
X178111904Y-124247619D01*
X178159523Y-124342857D01*
X178159523Y-124390476D01*
X178111904Y-124485714D01*
X178064285Y-124533333D01*
X177969047Y-124580952D01*
X177778571Y-124580952D01*
X177683333Y-124628571D01*
X177635714Y-124676190D01*
X177588095Y-124771428D01*
X177588095Y-124961904D01*
X177635714Y-125057142D01*
X177683333Y-125104761D01*
X177778571Y-125152380D01*
X177969047Y-125152380D01*
X178064285Y-125104761D01*
X178111904Y-125057142D01*
X178159523Y-124961904D01*
X178159523Y-124771428D01*
X178111904Y-124676190D01*
X178064285Y-124628571D01*
X177969047Y-124580952D01*
D11*
%TO.C,R36*%
X210564285Y-155444678D02*
X210364285Y-155158964D01*
X210221428Y-155444678D02*
X210221428Y-154844678D01*
X210450000Y-154844678D01*
X210507142Y-154873250D01*
X210535714Y-154901821D01*
X210564285Y-154958964D01*
X210564285Y-155044678D01*
X210535714Y-155101821D01*
X210507142Y-155130392D01*
X210450000Y-155158964D01*
X210221428Y-155158964D01*
X210764285Y-154844678D02*
X211135714Y-154844678D01*
X210935714Y-155073250D01*
X211021428Y-155073250D01*
X211078571Y-155101821D01*
X211107142Y-155130392D01*
X211135714Y-155187535D01*
X211135714Y-155330392D01*
X211107142Y-155387535D01*
X211078571Y-155416107D01*
X211021428Y-155444678D01*
X210850000Y-155444678D01*
X210792857Y-155416107D01*
X210764285Y-155387535D01*
X211650000Y-154844678D02*
X211535714Y-154844678D01*
X211478571Y-154873250D01*
X211450000Y-154901821D01*
X211392857Y-154987535D01*
X211364285Y-155101821D01*
X211364285Y-155330392D01*
X211392857Y-155387535D01*
X211421428Y-155416107D01*
X211478571Y-155444678D01*
X211592857Y-155444678D01*
X211650000Y-155416107D01*
X211678571Y-155387535D01*
X211707142Y-155330392D01*
X211707142Y-155187535D01*
X211678571Y-155130392D01*
X211650000Y-155101821D01*
X211592857Y-155073250D01*
X211478571Y-155073250D01*
X211421428Y-155101821D01*
X211392857Y-155130392D01*
X211364285Y-155187535D01*
%TO.C,R62*%
X197996428Y-161035714D02*
X197710714Y-161235714D01*
X197996428Y-161378571D02*
X197396428Y-161378571D01*
X197396428Y-161150000D01*
X197425000Y-161092857D01*
X197453571Y-161064285D01*
X197510714Y-161035714D01*
X197596428Y-161035714D01*
X197653571Y-161064285D01*
X197682142Y-161092857D01*
X197710714Y-161150000D01*
X197710714Y-161378571D01*
X197396428Y-160521428D02*
X197396428Y-160635714D01*
X197425000Y-160692857D01*
X197453571Y-160721428D01*
X197539285Y-160778571D01*
X197653571Y-160807142D01*
X197882142Y-160807142D01*
X197939285Y-160778571D01*
X197967857Y-160750000D01*
X197996428Y-160692857D01*
X197996428Y-160578571D01*
X197967857Y-160521428D01*
X197939285Y-160492857D01*
X197882142Y-160464285D01*
X197739285Y-160464285D01*
X197682142Y-160492857D01*
X197653571Y-160521428D01*
X197625000Y-160578571D01*
X197625000Y-160692857D01*
X197653571Y-160750000D01*
X197682142Y-160778571D01*
X197739285Y-160807142D01*
X197453571Y-160235714D02*
X197425000Y-160207142D01*
X197396428Y-160150000D01*
X197396428Y-160007142D01*
X197425000Y-159950000D01*
X197453571Y-159921428D01*
X197510714Y-159892857D01*
X197567857Y-159892857D01*
X197653571Y-159921428D01*
X197996428Y-160264285D01*
X197996428Y-159892857D01*
%TO.C,D6*%
X177841428Y-169597857D02*
X177241428Y-169597857D01*
X177241428Y-169455000D01*
X177270000Y-169369285D01*
X177327142Y-169312142D01*
X177384285Y-169283571D01*
X177498571Y-169255000D01*
X177584285Y-169255000D01*
X177698571Y-169283571D01*
X177755714Y-169312142D01*
X177812857Y-169369285D01*
X177841428Y-169455000D01*
X177841428Y-169597857D01*
X177241428Y-168740714D02*
X177241428Y-168855000D01*
X177270000Y-168912142D01*
X177298571Y-168940714D01*
X177384285Y-168997857D01*
X177498571Y-169026428D01*
X177727142Y-169026428D01*
X177784285Y-168997857D01*
X177812857Y-168969285D01*
X177841428Y-168912142D01*
X177841428Y-168797857D01*
X177812857Y-168740714D01*
X177784285Y-168712142D01*
X177727142Y-168683571D01*
X177584285Y-168683571D01*
X177527142Y-168712142D01*
X177498571Y-168740714D01*
X177470000Y-168797857D01*
X177470000Y-168912142D01*
X177498571Y-168969285D01*
X177527142Y-168997857D01*
X177584285Y-169026428D01*
D10*
%TO.C,U25*%
X247852380Y-109888095D02*
X248661904Y-109888095D01*
X248757142Y-109840476D01*
X248804761Y-109792857D01*
X248852380Y-109697619D01*
X248852380Y-109507142D01*
X248804761Y-109411904D01*
X248757142Y-109364285D01*
X248661904Y-109316666D01*
X247852380Y-109316666D01*
X247947619Y-108888095D02*
X247900000Y-108840476D01*
X247852380Y-108745238D01*
X247852380Y-108507142D01*
X247900000Y-108411904D01*
X247947619Y-108364285D01*
X248042857Y-108316666D01*
X248138095Y-108316666D01*
X248280952Y-108364285D01*
X248852380Y-108935714D01*
X248852380Y-108316666D01*
X247852380Y-107411904D02*
X247852380Y-107888095D01*
X248328571Y-107935714D01*
X248280952Y-107888095D01*
X248233333Y-107792857D01*
X248233333Y-107554761D01*
X248280952Y-107459523D01*
X248328571Y-107411904D01*
X248423809Y-107364285D01*
X248661904Y-107364285D01*
X248757142Y-107411904D01*
X248804761Y-107459523D01*
X248852380Y-107554761D01*
X248852380Y-107792857D01*
X248804761Y-107888095D01*
X248757142Y-107935714D01*
X248957142Y-111821428D02*
X248957142Y-110678571D01*
X249528571Y-111250000D02*
X248385714Y-111250000D01*
X248957142Y-106671428D02*
X248957142Y-105528571D01*
%TO.C,D1*%
X174488904Y-154907380D02*
X174488904Y-153907380D01*
X174727000Y-153907380D01*
X174869857Y-153955000D01*
X174965095Y-154050238D01*
X175012714Y-154145476D01*
X175060333Y-154335952D01*
X175060333Y-154478809D01*
X175012714Y-154669285D01*
X174965095Y-154764523D01*
X174869857Y-154859761D01*
X174727000Y-154907380D01*
X174488904Y-154907380D01*
X176012714Y-154907380D02*
X175441285Y-154907380D01*
X175727000Y-154907380D02*
X175727000Y-153907380D01*
X175631761Y-154050238D01*
X175536523Y-154145476D01*
X175441285Y-154193095D01*
%TO.C,R11*%
X189882142Y-174052380D02*
X189548809Y-173576190D01*
X189310714Y-174052380D02*
X189310714Y-173052380D01*
X189691666Y-173052380D01*
X189786904Y-173100000D01*
X189834523Y-173147619D01*
X189882142Y-173242857D01*
X189882142Y-173385714D01*
X189834523Y-173480952D01*
X189786904Y-173528571D01*
X189691666Y-173576190D01*
X189310714Y-173576190D01*
X190834523Y-174052380D02*
X190263095Y-174052380D01*
X190548809Y-174052380D02*
X190548809Y-173052380D01*
X190453571Y-173195238D01*
X190358333Y-173290476D01*
X190263095Y-173338095D01*
X191786904Y-174052380D02*
X191215476Y-174052380D01*
X191501190Y-174052380D02*
X191501190Y-173052380D01*
X191405952Y-173195238D01*
X191310714Y-173290476D01*
X191215476Y-173338095D01*
D11*
%TO.C,D3*%
X186382142Y-161046428D02*
X186382142Y-160446428D01*
X186525000Y-160446428D01*
X186610714Y-160475000D01*
X186667857Y-160532142D01*
X186696428Y-160589285D01*
X186725000Y-160703571D01*
X186725000Y-160789285D01*
X186696428Y-160903571D01*
X186667857Y-160960714D01*
X186610714Y-161017857D01*
X186525000Y-161046428D01*
X186382142Y-161046428D01*
X186925000Y-160446428D02*
X187296428Y-160446428D01*
X187096428Y-160675000D01*
X187182142Y-160675000D01*
X187239285Y-160703571D01*
X187267857Y-160732142D01*
X187296428Y-160789285D01*
X187296428Y-160932142D01*
X187267857Y-160989285D01*
X187239285Y-161017857D01*
X187182142Y-161046428D01*
X187010714Y-161046428D01*
X186953571Y-161017857D01*
X186925000Y-160989285D01*
D10*
%TO.C,C16*%
X205337142Y-159837142D02*
X205289523Y-159884761D01*
X205146666Y-159932380D01*
X205051428Y-159932380D01*
X204908571Y-159884761D01*
X204813333Y-159789523D01*
X204765714Y-159694285D01*
X204718095Y-159503809D01*
X204718095Y-159360952D01*
X204765714Y-159170476D01*
X204813333Y-159075238D01*
X204908571Y-158980000D01*
X205051428Y-158932380D01*
X205146666Y-158932380D01*
X205289523Y-158980000D01*
X205337142Y-159027619D01*
X206289523Y-159932380D02*
X205718095Y-159932380D01*
X206003809Y-159932380D02*
X206003809Y-158932380D01*
X205908571Y-159075238D01*
X205813333Y-159170476D01*
X205718095Y-159218095D01*
X207146666Y-158932380D02*
X206956190Y-158932380D01*
X206860952Y-158980000D01*
X206813333Y-159027619D01*
X206718095Y-159170476D01*
X206670476Y-159360952D01*
X206670476Y-159741904D01*
X206718095Y-159837142D01*
X206765714Y-159884761D01*
X206860952Y-159932380D01*
X207051428Y-159932380D01*
X207146666Y-159884761D01*
X207194285Y-159837142D01*
X207241904Y-159741904D01*
X207241904Y-159503809D01*
X207194285Y-159408571D01*
X207146666Y-159360952D01*
X207051428Y-159313333D01*
X206860952Y-159313333D01*
X206765714Y-159360952D01*
X206718095Y-159408571D01*
X206670476Y-159503809D01*
D11*
%TO.C,R2*%
X171150000Y-156121428D02*
X170950000Y-155835714D01*
X170807142Y-156121428D02*
X170807142Y-155521428D01*
X171035714Y-155521428D01*
X171092857Y-155550000D01*
X171121428Y-155578571D01*
X171150000Y-155635714D01*
X171150000Y-155721428D01*
X171121428Y-155778571D01*
X171092857Y-155807142D01*
X171035714Y-155835714D01*
X170807142Y-155835714D01*
X171378571Y-155578571D02*
X171407142Y-155550000D01*
X171464285Y-155521428D01*
X171607142Y-155521428D01*
X171664285Y-155550000D01*
X171692857Y-155578571D01*
X171721428Y-155635714D01*
X171721428Y-155692857D01*
X171692857Y-155778571D01*
X171350000Y-156121428D01*
X171721428Y-156121428D01*
%TO.C,R40*%
X227416428Y-162010714D02*
X227130714Y-162210714D01*
X227416428Y-162353571D02*
X226816428Y-162353571D01*
X226816428Y-162125000D01*
X226845000Y-162067857D01*
X226873571Y-162039285D01*
X226930714Y-162010714D01*
X227016428Y-162010714D01*
X227073571Y-162039285D01*
X227102142Y-162067857D01*
X227130714Y-162125000D01*
X227130714Y-162353571D01*
X227016428Y-161496428D02*
X227416428Y-161496428D01*
X226787857Y-161639285D02*
X227216428Y-161782142D01*
X227216428Y-161410714D01*
X226816428Y-161067857D02*
X226816428Y-161010714D01*
X226845000Y-160953571D01*
X226873571Y-160925000D01*
X226930714Y-160896428D01*
X227045000Y-160867857D01*
X227187857Y-160867857D01*
X227302142Y-160896428D01*
X227359285Y-160925000D01*
X227387857Y-160953571D01*
X227416428Y-161010714D01*
X227416428Y-161067857D01*
X227387857Y-161125000D01*
X227359285Y-161153571D01*
X227302142Y-161182142D01*
X227187857Y-161210714D01*
X227045000Y-161210714D01*
X226930714Y-161182142D01*
X226873571Y-161153571D01*
X226845000Y-161125000D01*
X226816428Y-161067857D01*
D14*
%TO.C,U6*%
X209368163Y-157668557D02*
X209592942Y-157668557D01*
X209619387Y-157655335D01*
X209632609Y-157642112D01*
X209645832Y-157615668D01*
X209645832Y-157562778D01*
X209632609Y-157536334D01*
X209619387Y-157523111D01*
X209592942Y-157509889D01*
X209368163Y-157509889D01*
X209368163Y-157258665D02*
X209368163Y-157311554D01*
X209381385Y-157337999D01*
X209394607Y-157351221D01*
X209434274Y-157377666D01*
X209487164Y-157390888D01*
X209592942Y-157390888D01*
X209619387Y-157377666D01*
X209632609Y-157364443D01*
X209645832Y-157337999D01*
X209645832Y-157285109D01*
X209632609Y-157258665D01*
X209619387Y-157245442D01*
X209592942Y-157232220D01*
X209526831Y-157232220D01*
X209500386Y-157245442D01*
X209487164Y-157258665D01*
X209473941Y-157285109D01*
X209473941Y-157337999D01*
X209487164Y-157364443D01*
X209500386Y-157377666D01*
X209526831Y-157390888D01*
D10*
%TO.C,C36*%
X177932142Y-147792857D02*
X177979761Y-147840476D01*
X178027380Y-147983333D01*
X178027380Y-148078571D01*
X177979761Y-148221428D01*
X177884523Y-148316666D01*
X177789285Y-148364285D01*
X177598809Y-148411904D01*
X177455952Y-148411904D01*
X177265476Y-148364285D01*
X177170238Y-148316666D01*
X177075000Y-148221428D01*
X177027380Y-148078571D01*
X177027380Y-147983333D01*
X177075000Y-147840476D01*
X177122619Y-147792857D01*
X177027380Y-147459523D02*
X177027380Y-146840476D01*
X177408333Y-147173809D01*
X177408333Y-147030952D01*
X177455952Y-146935714D01*
X177503571Y-146888095D01*
X177598809Y-146840476D01*
X177836904Y-146840476D01*
X177932142Y-146888095D01*
X177979761Y-146935714D01*
X178027380Y-147030952D01*
X178027380Y-147316666D01*
X177979761Y-147411904D01*
X177932142Y-147459523D01*
X177027380Y-145983333D02*
X177027380Y-146173809D01*
X177075000Y-146269047D01*
X177122619Y-146316666D01*
X177265476Y-146411904D01*
X177455952Y-146459523D01*
X177836904Y-146459523D01*
X177932142Y-146411904D01*
X177979761Y-146364285D01*
X178027380Y-146269047D01*
X178027380Y-146078571D01*
X177979761Y-145983333D01*
X177932142Y-145935714D01*
X177836904Y-145888095D01*
X177598809Y-145888095D01*
X177503571Y-145935714D01*
X177455952Y-145983333D01*
X177408333Y-146078571D01*
X177408333Y-146269047D01*
X177455952Y-146364285D01*
X177503571Y-146411904D01*
X177598809Y-146459523D01*
D11*
%TO.C,R17*%
X172571428Y-150660714D02*
X172285714Y-150860714D01*
X172571428Y-151003571D02*
X171971428Y-151003571D01*
X171971428Y-150775000D01*
X172000000Y-150717857D01*
X172028571Y-150689285D01*
X172085714Y-150660714D01*
X172171428Y-150660714D01*
X172228571Y-150689285D01*
X172257142Y-150717857D01*
X172285714Y-150775000D01*
X172285714Y-151003571D01*
X172571428Y-150089285D02*
X172571428Y-150432142D01*
X172571428Y-150260714D02*
X171971428Y-150260714D01*
X172057142Y-150317857D01*
X172114285Y-150375000D01*
X172142857Y-150432142D01*
X171971428Y-149889285D02*
X171971428Y-149489285D01*
X172571428Y-149746428D01*
D10*
%TO.C,R52*%
X180802380Y-128042857D02*
X180326190Y-128376190D01*
X180802380Y-128614285D02*
X179802380Y-128614285D01*
X179802380Y-128233333D01*
X179850000Y-128138095D01*
X179897619Y-128090476D01*
X179992857Y-128042857D01*
X180135714Y-128042857D01*
X180230952Y-128090476D01*
X180278571Y-128138095D01*
X180326190Y-128233333D01*
X180326190Y-128614285D01*
X179802380Y-127138095D02*
X179802380Y-127614285D01*
X180278571Y-127661904D01*
X180230952Y-127614285D01*
X180183333Y-127519047D01*
X180183333Y-127280952D01*
X180230952Y-127185714D01*
X180278571Y-127138095D01*
X180373809Y-127090476D01*
X180611904Y-127090476D01*
X180707142Y-127138095D01*
X180754761Y-127185714D01*
X180802380Y-127280952D01*
X180802380Y-127519047D01*
X180754761Y-127614285D01*
X180707142Y-127661904D01*
X179897619Y-126709523D02*
X179850000Y-126661904D01*
X179802380Y-126566666D01*
X179802380Y-126328571D01*
X179850000Y-126233333D01*
X179897619Y-126185714D01*
X179992857Y-126138095D01*
X180088095Y-126138095D01*
X180230952Y-126185714D01*
X180802380Y-126757142D01*
X180802380Y-126138095D01*
D11*
%TO.C,J7*%
X151171428Y-140600000D02*
X151600000Y-140600000D01*
X151685714Y-140628571D01*
X151742857Y-140685714D01*
X151771428Y-140771428D01*
X151771428Y-140828571D01*
X151171428Y-140371428D02*
X151171428Y-139971428D01*
X151771428Y-140228571D01*
%TO.C,D7*%
X222707142Y-164111428D02*
X222707142Y-163511428D01*
X222850000Y-163511428D01*
X222935714Y-163540000D01*
X222992857Y-163597142D01*
X223021428Y-163654285D01*
X223050000Y-163768571D01*
X223050000Y-163854285D01*
X223021428Y-163968571D01*
X222992857Y-164025714D01*
X222935714Y-164082857D01*
X222850000Y-164111428D01*
X222707142Y-164111428D01*
X223250000Y-163511428D02*
X223650000Y-163511428D01*
X223392857Y-164111428D01*
D10*
%TO.C,U14*%
X154161904Y-137702380D02*
X154161904Y-138511904D01*
X154209523Y-138607142D01*
X154257142Y-138654761D01*
X154352380Y-138702380D01*
X154542857Y-138702380D01*
X154638095Y-138654761D01*
X154685714Y-138607142D01*
X154733333Y-138511904D01*
X154733333Y-137702380D01*
X155733333Y-138702380D02*
X155161904Y-138702380D01*
X155447619Y-138702380D02*
X155447619Y-137702380D01*
X155352380Y-137845238D01*
X155257142Y-137940476D01*
X155161904Y-137988095D01*
X156590476Y-138035714D02*
X156590476Y-138702380D01*
X156352380Y-137654761D02*
X156114285Y-138369047D01*
X156733333Y-138369047D01*
X155452380Y-133352380D02*
X155452380Y-132352380D01*
X155833333Y-132352380D01*
X155928571Y-132400000D01*
X155976190Y-132447619D01*
X156023809Y-132542857D01*
X156023809Y-132685714D01*
X155976190Y-132780952D01*
X155928571Y-132828571D01*
X155833333Y-132876190D01*
X155452380Y-132876190D01*
X157023809Y-133257142D02*
X156976190Y-133304761D01*
X156833333Y-133352380D01*
X156738095Y-133352380D01*
X156595238Y-133304761D01*
X156500000Y-133209523D01*
X156452380Y-133114285D01*
X156404761Y-132923809D01*
X156404761Y-132780952D01*
X156452380Y-132590476D01*
X156500000Y-132495238D01*
X156595238Y-132400000D01*
X156738095Y-132352380D01*
X156833333Y-132352380D01*
X156976190Y-132400000D01*
X157023809Y-132447619D01*
X157309523Y-132352380D02*
X157880952Y-132352380D01*
X157595238Y-133352380D02*
X157595238Y-132352380D01*
X158166666Y-132447619D02*
X158214285Y-132400000D01*
X158309523Y-132352380D01*
X158547619Y-132352380D01*
X158642857Y-132400000D01*
X158690476Y-132447619D01*
X158738095Y-132542857D01*
X158738095Y-132638095D01*
X158690476Y-132780952D01*
X158119047Y-133352380D01*
X158738095Y-133352380D01*
X159357142Y-132352380D02*
X159452380Y-132352380D01*
X159547619Y-132400000D01*
X159595238Y-132447619D01*
X159642857Y-132542857D01*
X159690476Y-132733333D01*
X159690476Y-132971428D01*
X159642857Y-133161904D01*
X159595238Y-133257142D01*
X159547619Y-133304761D01*
X159452380Y-133352380D01*
X159357142Y-133352380D01*
X159261904Y-133304761D01*
X159214285Y-133257142D01*
X159166666Y-133161904D01*
X159119047Y-132971428D01*
X159119047Y-132733333D01*
X159166666Y-132542857D01*
X159214285Y-132447619D01*
X159261904Y-132400000D01*
X159357142Y-132352380D01*
X160023809Y-132352380D02*
X160690476Y-132352380D01*
X160261904Y-133352380D01*
X161547619Y-132352380D02*
X161071428Y-132352380D01*
X161023809Y-132828571D01*
X161071428Y-132780952D01*
X161166666Y-132733333D01*
X161404761Y-132733333D01*
X161500000Y-132780952D01*
X161547619Y-132828571D01*
X161595238Y-132923809D01*
X161595238Y-133161904D01*
X161547619Y-133257142D01*
X161500000Y-133304761D01*
X161404761Y-133352380D01*
X161166666Y-133352380D01*
X161071428Y-133304761D01*
X161023809Y-133257142D01*
%TO.C,Q4*%
X231021095Y-66003690D02*
X230983000Y-66079880D01*
X230906809Y-66156071D01*
X230792523Y-66270357D01*
X230754428Y-66346547D01*
X230754428Y-66422738D01*
X230944904Y-66384642D02*
X230906809Y-66460833D01*
X230830619Y-66537023D01*
X230678238Y-66575119D01*
X230411571Y-66575119D01*
X230259190Y-66537023D01*
X230183000Y-66460833D01*
X230144904Y-66384642D01*
X230144904Y-66232261D01*
X230183000Y-66156071D01*
X230259190Y-66079880D01*
X230411571Y-66041785D01*
X230678238Y-66041785D01*
X230830619Y-66079880D01*
X230906809Y-66156071D01*
X230944904Y-66232261D01*
X230944904Y-66384642D01*
X230411571Y-65356071D02*
X230944904Y-65356071D01*
X230106809Y-65546547D02*
X230678238Y-65737023D01*
X230678238Y-65241785D01*
D11*
%TO.C,D11*%
X219846428Y-115996428D02*
X219846428Y-115396428D01*
X219989285Y-115396428D01*
X220075000Y-115425000D01*
X220132142Y-115482142D01*
X220160714Y-115539285D01*
X220189285Y-115653571D01*
X220189285Y-115739285D01*
X220160714Y-115853571D01*
X220132142Y-115910714D01*
X220075000Y-115967857D01*
X219989285Y-115996428D01*
X219846428Y-115996428D01*
X220760714Y-115996428D02*
X220417857Y-115996428D01*
X220589285Y-115996428D02*
X220589285Y-115396428D01*
X220532142Y-115482142D01*
X220475000Y-115539285D01*
X220417857Y-115567857D01*
X221332142Y-115996428D02*
X220989285Y-115996428D01*
X221160714Y-115996428D02*
X221160714Y-115396428D01*
X221103571Y-115482142D01*
X221046428Y-115539285D01*
X220989285Y-115567857D01*
D10*
%TO.C,Q6*%
X194448809Y-171565595D02*
X194372619Y-171527500D01*
X194296428Y-171451309D01*
X194182142Y-171337023D01*
X194105952Y-171298928D01*
X194029761Y-171298928D01*
X194067857Y-171489404D02*
X193991666Y-171451309D01*
X193915476Y-171375119D01*
X193877380Y-171222738D01*
X193877380Y-170956071D01*
X193915476Y-170803690D01*
X193991666Y-170727500D01*
X194067857Y-170689404D01*
X194220238Y-170689404D01*
X194296428Y-170727500D01*
X194372619Y-170803690D01*
X194410714Y-170956071D01*
X194410714Y-171222738D01*
X194372619Y-171375119D01*
X194296428Y-171451309D01*
X194220238Y-171489404D01*
X194067857Y-171489404D01*
X195096428Y-170689404D02*
X194944047Y-170689404D01*
X194867857Y-170727500D01*
X194829761Y-170765595D01*
X194753571Y-170879880D01*
X194715476Y-171032261D01*
X194715476Y-171337023D01*
X194753571Y-171413214D01*
X194791666Y-171451309D01*
X194867857Y-171489404D01*
X195020238Y-171489404D01*
X195096428Y-171451309D01*
X195134523Y-171413214D01*
X195172619Y-171337023D01*
X195172619Y-171146547D01*
X195134523Y-171070357D01*
X195096428Y-171032261D01*
X195020238Y-170994166D01*
X194867857Y-170994166D01*
X194791666Y-171032261D01*
X194753571Y-171070357D01*
X194715476Y-171146547D01*
%TO.C,J9*%
X288833333Y-125382619D02*
X288833333Y-124668333D01*
X288880952Y-124525476D01*
X288976190Y-124430238D01*
X289119047Y-124382619D01*
X289214285Y-124382619D01*
X288309523Y-124382619D02*
X288119047Y-124382619D01*
X288023809Y-124430238D01*
X287976190Y-124477857D01*
X287880952Y-124620714D01*
X287833333Y-124811190D01*
X287833333Y-125192142D01*
X287880952Y-125287380D01*
X287928571Y-125335000D01*
X288023809Y-125382619D01*
X288214285Y-125382619D01*
X288309523Y-125335000D01*
X288357142Y-125287380D01*
X288404761Y-125192142D01*
X288404761Y-124954047D01*
X288357142Y-124858809D01*
X288309523Y-124811190D01*
X288214285Y-124763571D01*
X288023809Y-124763571D01*
X287928571Y-124811190D01*
X287880952Y-124858809D01*
X287833333Y-124954047D01*
%TO.C,C30*%
X159857142Y-141392857D02*
X159904761Y-141440476D01*
X159952380Y-141583333D01*
X159952380Y-141678571D01*
X159904761Y-141821428D01*
X159809523Y-141916666D01*
X159714285Y-141964285D01*
X159523809Y-142011904D01*
X159380952Y-142011904D01*
X159190476Y-141964285D01*
X159095238Y-141916666D01*
X159000000Y-141821428D01*
X158952380Y-141678571D01*
X158952380Y-141583333D01*
X159000000Y-141440476D01*
X159047619Y-141392857D01*
X158952380Y-141059523D02*
X158952380Y-140440476D01*
X159333333Y-140773809D01*
X159333333Y-140630952D01*
X159380952Y-140535714D01*
X159428571Y-140488095D01*
X159523809Y-140440476D01*
X159761904Y-140440476D01*
X159857142Y-140488095D01*
X159904761Y-140535714D01*
X159952380Y-140630952D01*
X159952380Y-140916666D01*
X159904761Y-141011904D01*
X159857142Y-141059523D01*
X158952380Y-139821428D02*
X158952380Y-139726190D01*
X159000000Y-139630952D01*
X159047619Y-139583333D01*
X159142857Y-139535714D01*
X159333333Y-139488095D01*
X159571428Y-139488095D01*
X159761904Y-139535714D01*
X159857142Y-139583333D01*
X159904761Y-139630952D01*
X159952380Y-139726190D01*
X159952380Y-139821428D01*
X159904761Y-139916666D01*
X159857142Y-139964285D01*
X159761904Y-140011904D01*
X159571428Y-140059523D01*
X159333333Y-140059523D01*
X159142857Y-140011904D01*
X159047619Y-139964285D01*
X159000000Y-139916666D01*
X158952380Y-139821428D01*
D11*
%TO.C,R22*%
X196196428Y-167135714D02*
X195910714Y-167335714D01*
X196196428Y-167478571D02*
X195596428Y-167478571D01*
X195596428Y-167250000D01*
X195625000Y-167192857D01*
X195653571Y-167164285D01*
X195710714Y-167135714D01*
X195796428Y-167135714D01*
X195853571Y-167164285D01*
X195882142Y-167192857D01*
X195910714Y-167250000D01*
X195910714Y-167478571D01*
X195653571Y-166907142D02*
X195625000Y-166878571D01*
X195596428Y-166821428D01*
X195596428Y-166678571D01*
X195625000Y-166621428D01*
X195653571Y-166592857D01*
X195710714Y-166564285D01*
X195767857Y-166564285D01*
X195853571Y-166592857D01*
X196196428Y-166935714D01*
X196196428Y-166564285D01*
X195653571Y-166335714D02*
X195625000Y-166307142D01*
X195596428Y-166250000D01*
X195596428Y-166107142D01*
X195625000Y-166050000D01*
X195653571Y-166021428D01*
X195710714Y-165992857D01*
X195767857Y-165992857D01*
X195853571Y-166021428D01*
X196196428Y-166364285D01*
X196196428Y-165992857D01*
%TO.C,C23*%
X234139285Y-160924285D02*
X234110714Y-160952857D01*
X234025000Y-160981428D01*
X233967857Y-160981428D01*
X233882142Y-160952857D01*
X233825000Y-160895714D01*
X233796428Y-160838571D01*
X233767857Y-160724285D01*
X233767857Y-160638571D01*
X233796428Y-160524285D01*
X233825000Y-160467142D01*
X233882142Y-160410000D01*
X233967857Y-160381428D01*
X234025000Y-160381428D01*
X234110714Y-160410000D01*
X234139285Y-160438571D01*
X234367857Y-160438571D02*
X234396428Y-160410000D01*
X234453571Y-160381428D01*
X234596428Y-160381428D01*
X234653571Y-160410000D01*
X234682142Y-160438571D01*
X234710714Y-160495714D01*
X234710714Y-160552857D01*
X234682142Y-160638571D01*
X234339285Y-160981428D01*
X234710714Y-160981428D01*
X234910714Y-160381428D02*
X235282142Y-160381428D01*
X235082142Y-160610000D01*
X235167857Y-160610000D01*
X235225000Y-160638571D01*
X235253571Y-160667142D01*
X235282142Y-160724285D01*
X235282142Y-160867142D01*
X235253571Y-160924285D01*
X235225000Y-160952857D01*
X235167857Y-160981428D01*
X234996428Y-160981428D01*
X234939285Y-160952857D01*
X234910714Y-160924285D01*
%TO.C,R24*%
X178439285Y-122458928D02*
X178239285Y-122173214D01*
X178096428Y-122458928D02*
X178096428Y-121858928D01*
X178325000Y-121858928D01*
X178382142Y-121887500D01*
X178410714Y-121916071D01*
X178439285Y-121973214D01*
X178439285Y-122058928D01*
X178410714Y-122116071D01*
X178382142Y-122144642D01*
X178325000Y-122173214D01*
X178096428Y-122173214D01*
X178667857Y-121916071D02*
X178696428Y-121887500D01*
X178753571Y-121858928D01*
X178896428Y-121858928D01*
X178953571Y-121887500D01*
X178982142Y-121916071D01*
X179010714Y-121973214D01*
X179010714Y-122030357D01*
X178982142Y-122116071D01*
X178639285Y-122458928D01*
X179010714Y-122458928D01*
X179525000Y-122058928D02*
X179525000Y-122458928D01*
X179382142Y-121830357D02*
X179239285Y-122258928D01*
X179610714Y-122258928D01*
%TO.C,R53*%
X154996428Y-143760714D02*
X154710714Y-143960714D01*
X154996428Y-144103571D02*
X154396428Y-144103571D01*
X154396428Y-143875000D01*
X154425000Y-143817857D01*
X154453571Y-143789285D01*
X154510714Y-143760714D01*
X154596428Y-143760714D01*
X154653571Y-143789285D01*
X154682142Y-143817857D01*
X154710714Y-143875000D01*
X154710714Y-144103571D01*
X154396428Y-143217857D02*
X154396428Y-143503571D01*
X154682142Y-143532142D01*
X154653571Y-143503571D01*
X154625000Y-143446428D01*
X154625000Y-143303571D01*
X154653571Y-143246428D01*
X154682142Y-143217857D01*
X154739285Y-143189285D01*
X154882142Y-143189285D01*
X154939285Y-143217857D01*
X154967857Y-143246428D01*
X154996428Y-143303571D01*
X154996428Y-143446428D01*
X154967857Y-143503571D01*
X154939285Y-143532142D01*
X154396428Y-142989285D02*
X154396428Y-142617857D01*
X154625000Y-142817857D01*
X154625000Y-142732142D01*
X154653571Y-142675000D01*
X154682142Y-142646428D01*
X154739285Y-142617857D01*
X154882142Y-142617857D01*
X154939285Y-142646428D01*
X154967857Y-142675000D01*
X154996428Y-142732142D01*
X154996428Y-142903571D01*
X154967857Y-142960714D01*
X154939285Y-142989285D01*
%TO.C,D5*%
X203032142Y-139446428D02*
X203032142Y-138846428D01*
X203175000Y-138846428D01*
X203260714Y-138875000D01*
X203317857Y-138932142D01*
X203346428Y-138989285D01*
X203375000Y-139103571D01*
X203375000Y-139189285D01*
X203346428Y-139303571D01*
X203317857Y-139360714D01*
X203260714Y-139417857D01*
X203175000Y-139446428D01*
X203032142Y-139446428D01*
X203917857Y-138846428D02*
X203632142Y-138846428D01*
X203603571Y-139132142D01*
X203632142Y-139103571D01*
X203689285Y-139075000D01*
X203832142Y-139075000D01*
X203889285Y-139103571D01*
X203917857Y-139132142D01*
X203946428Y-139189285D01*
X203946428Y-139332142D01*
X203917857Y-139389285D01*
X203889285Y-139417857D01*
X203832142Y-139446428D01*
X203689285Y-139446428D01*
X203632142Y-139417857D01*
X203603571Y-139389285D01*
D10*
%TO.C,J8*%
X264958333Y-125432619D02*
X264958333Y-124718333D01*
X265005952Y-124575476D01*
X265101190Y-124480238D01*
X265244047Y-124432619D01*
X265339285Y-124432619D01*
X264339285Y-125004047D02*
X264434523Y-125051666D01*
X264482142Y-125099285D01*
X264529761Y-125194523D01*
X264529761Y-125242142D01*
X264482142Y-125337380D01*
X264434523Y-125385000D01*
X264339285Y-125432619D01*
X264148809Y-125432619D01*
X264053571Y-125385000D01*
X264005952Y-125337380D01*
X263958333Y-125242142D01*
X263958333Y-125194523D01*
X264005952Y-125099285D01*
X264053571Y-125051666D01*
X264148809Y-125004047D01*
X264339285Y-125004047D01*
X264434523Y-124956428D01*
X264482142Y-124908809D01*
X264529761Y-124813571D01*
X264529761Y-124623095D01*
X264482142Y-124527857D01*
X264434523Y-124480238D01*
X264339285Y-124432619D01*
X264148809Y-124432619D01*
X264053571Y-124480238D01*
X264005952Y-124527857D01*
X263958333Y-124623095D01*
X263958333Y-124813571D01*
X264005952Y-124908809D01*
X264053571Y-124956428D01*
X264148809Y-125004047D01*
D11*
%TO.C,R30*%
X222914285Y-157346428D02*
X222714285Y-157060714D01*
X222571428Y-157346428D02*
X222571428Y-156746428D01*
X222800000Y-156746428D01*
X222857142Y-156775000D01*
X222885714Y-156803571D01*
X222914285Y-156860714D01*
X222914285Y-156946428D01*
X222885714Y-157003571D01*
X222857142Y-157032142D01*
X222800000Y-157060714D01*
X222571428Y-157060714D01*
X223114285Y-156746428D02*
X223485714Y-156746428D01*
X223285714Y-156975000D01*
X223371428Y-156975000D01*
X223428571Y-157003571D01*
X223457142Y-157032142D01*
X223485714Y-157089285D01*
X223485714Y-157232142D01*
X223457142Y-157289285D01*
X223428571Y-157317857D01*
X223371428Y-157346428D01*
X223200000Y-157346428D01*
X223142857Y-157317857D01*
X223114285Y-157289285D01*
X223857142Y-156746428D02*
X223914285Y-156746428D01*
X223971428Y-156775000D01*
X224000000Y-156803571D01*
X224028571Y-156860714D01*
X224057142Y-156975000D01*
X224057142Y-157117857D01*
X224028571Y-157232142D01*
X224000000Y-157289285D01*
X223971428Y-157317857D01*
X223914285Y-157346428D01*
X223857142Y-157346428D01*
X223800000Y-157317857D01*
X223771428Y-157289285D01*
X223742857Y-157232142D01*
X223714285Y-157117857D01*
X223714285Y-156975000D01*
X223742857Y-156860714D01*
X223771428Y-156803571D01*
X223800000Y-156775000D01*
X223857142Y-156746428D01*
D10*
%TO.C,U15*%
X163612380Y-169178095D02*
X164421904Y-169178095D01*
X164517142Y-169130476D01*
X164564761Y-169082857D01*
X164612380Y-168987619D01*
X164612380Y-168797142D01*
X164564761Y-168701904D01*
X164517142Y-168654285D01*
X164421904Y-168606666D01*
X163612380Y-168606666D01*
X164612380Y-167606666D02*
X164612380Y-168178095D01*
X164612380Y-167892380D02*
X163612380Y-167892380D01*
X163755238Y-167987619D01*
X163850476Y-168082857D01*
X163898095Y-168178095D01*
X163612380Y-166701904D02*
X163612380Y-167178095D01*
X164088571Y-167225714D01*
X164040952Y-167178095D01*
X163993333Y-167082857D01*
X163993333Y-166844761D01*
X164040952Y-166749523D01*
X164088571Y-166701904D01*
X164183809Y-166654285D01*
X164421904Y-166654285D01*
X164517142Y-166701904D01*
X164564761Y-166749523D01*
X164612380Y-166844761D01*
X164612380Y-167082857D01*
X164564761Y-167178095D01*
X164517142Y-167225714D01*
D11*
%TO.C,R49*%
X176289285Y-128446428D02*
X176089285Y-128160714D01*
X175946428Y-128446428D02*
X175946428Y-127846428D01*
X176175000Y-127846428D01*
X176232142Y-127875000D01*
X176260714Y-127903571D01*
X176289285Y-127960714D01*
X176289285Y-128046428D01*
X176260714Y-128103571D01*
X176232142Y-128132142D01*
X176175000Y-128160714D01*
X175946428Y-128160714D01*
X176803571Y-128046428D02*
X176803571Y-128446428D01*
X176660714Y-127817857D02*
X176517857Y-128246428D01*
X176889285Y-128246428D01*
X177146428Y-128446428D02*
X177260714Y-128446428D01*
X177317857Y-128417857D01*
X177346428Y-128389285D01*
X177403571Y-128303571D01*
X177432142Y-128189285D01*
X177432142Y-127960714D01*
X177403571Y-127903571D01*
X177375000Y-127875000D01*
X177317857Y-127846428D01*
X177203571Y-127846428D01*
X177146428Y-127875000D01*
X177117857Y-127903571D01*
X177089285Y-127960714D01*
X177089285Y-128103571D01*
X177117857Y-128160714D01*
X177146428Y-128189285D01*
X177203571Y-128217857D01*
X177317857Y-128217857D01*
X177375000Y-128189285D01*
X177403571Y-128160714D01*
X177432142Y-128103571D01*
D10*
%TO.C,C8*%
X186983333Y-121107142D02*
X186935714Y-121154761D01*
X186792857Y-121202380D01*
X186697619Y-121202380D01*
X186554761Y-121154761D01*
X186459523Y-121059523D01*
X186411904Y-120964285D01*
X186364285Y-120773809D01*
X186364285Y-120630952D01*
X186411904Y-120440476D01*
X186459523Y-120345238D01*
X186554761Y-120250000D01*
X186697619Y-120202380D01*
X186792857Y-120202380D01*
X186935714Y-120250000D01*
X186983333Y-120297619D01*
X187554761Y-120630952D02*
X187459523Y-120583333D01*
X187411904Y-120535714D01*
X187364285Y-120440476D01*
X187364285Y-120392857D01*
X187411904Y-120297619D01*
X187459523Y-120250000D01*
X187554761Y-120202380D01*
X187745238Y-120202380D01*
X187840476Y-120250000D01*
X187888095Y-120297619D01*
X187935714Y-120392857D01*
X187935714Y-120440476D01*
X187888095Y-120535714D01*
X187840476Y-120583333D01*
X187745238Y-120630952D01*
X187554761Y-120630952D01*
X187459523Y-120678571D01*
X187411904Y-120726190D01*
X187364285Y-120821428D01*
X187364285Y-121011904D01*
X187411904Y-121107142D01*
X187459523Y-121154761D01*
X187554761Y-121202380D01*
X187745238Y-121202380D01*
X187840476Y-121154761D01*
X187888095Y-121107142D01*
X187935714Y-121011904D01*
X187935714Y-120821428D01*
X187888095Y-120726190D01*
X187840476Y-120678571D01*
X187745238Y-120630952D01*
%TO.C,C3*%
X184083333Y-179507142D02*
X184035714Y-179554761D01*
X183892857Y-179602380D01*
X183797619Y-179602380D01*
X183654761Y-179554761D01*
X183559523Y-179459523D01*
X183511904Y-179364285D01*
X183464285Y-179173809D01*
X183464285Y-179030952D01*
X183511904Y-178840476D01*
X183559523Y-178745238D01*
X183654761Y-178650000D01*
X183797619Y-178602380D01*
X183892857Y-178602380D01*
X184035714Y-178650000D01*
X184083333Y-178697619D01*
X184416666Y-178602380D02*
X185035714Y-178602380D01*
X184702380Y-178983333D01*
X184845238Y-178983333D01*
X184940476Y-179030952D01*
X184988095Y-179078571D01*
X185035714Y-179173809D01*
X185035714Y-179411904D01*
X184988095Y-179507142D01*
X184940476Y-179554761D01*
X184845238Y-179602380D01*
X184559523Y-179602380D01*
X184464285Y-179554761D01*
X184416666Y-179507142D01*
D11*
%TO.C,C12*%
X219889285Y-157434285D02*
X219860714Y-157462857D01*
X219775000Y-157491428D01*
X219717857Y-157491428D01*
X219632142Y-157462857D01*
X219575000Y-157405714D01*
X219546428Y-157348571D01*
X219517857Y-157234285D01*
X219517857Y-157148571D01*
X219546428Y-157034285D01*
X219575000Y-156977142D01*
X219632142Y-156920000D01*
X219717857Y-156891428D01*
X219775000Y-156891428D01*
X219860714Y-156920000D01*
X219889285Y-156948571D01*
X220460714Y-157491428D02*
X220117857Y-157491428D01*
X220289285Y-157491428D02*
X220289285Y-156891428D01*
X220232142Y-156977142D01*
X220175000Y-157034285D01*
X220117857Y-157062857D01*
X220689285Y-156948571D02*
X220717857Y-156920000D01*
X220775000Y-156891428D01*
X220917857Y-156891428D01*
X220975000Y-156920000D01*
X221003571Y-156948571D01*
X221032142Y-157005714D01*
X221032142Y-157062857D01*
X221003571Y-157148571D01*
X220660714Y-157491428D01*
X221032142Y-157491428D01*
%TO.C,R34*%
X220814285Y-155544678D02*
X220614285Y-155258964D01*
X220471428Y-155544678D02*
X220471428Y-154944678D01*
X220700000Y-154944678D01*
X220757142Y-154973250D01*
X220785714Y-155001821D01*
X220814285Y-155058964D01*
X220814285Y-155144678D01*
X220785714Y-155201821D01*
X220757142Y-155230392D01*
X220700000Y-155258964D01*
X220471428Y-155258964D01*
X221014285Y-154944678D02*
X221385714Y-154944678D01*
X221185714Y-155173250D01*
X221271428Y-155173250D01*
X221328571Y-155201821D01*
X221357142Y-155230392D01*
X221385714Y-155287535D01*
X221385714Y-155430392D01*
X221357142Y-155487535D01*
X221328571Y-155516107D01*
X221271428Y-155544678D01*
X221100000Y-155544678D01*
X221042857Y-155516107D01*
X221014285Y-155487535D01*
X221900000Y-155144678D02*
X221900000Y-155544678D01*
X221757142Y-154916107D02*
X221614285Y-155344678D01*
X221985714Y-155344678D01*
%TO.C,D4*%
X186432142Y-105096428D02*
X186432142Y-104496428D01*
X186575000Y-104496428D01*
X186660714Y-104525000D01*
X186717857Y-104582142D01*
X186746428Y-104639285D01*
X186775000Y-104753571D01*
X186775000Y-104839285D01*
X186746428Y-104953571D01*
X186717857Y-105010714D01*
X186660714Y-105067857D01*
X186575000Y-105096428D01*
X186432142Y-105096428D01*
X187289285Y-104696428D02*
X187289285Y-105096428D01*
X187146428Y-104467857D02*
X187003571Y-104896428D01*
X187375000Y-104896428D01*
D10*
%TO.C,U19*%
X200652380Y-172888095D02*
X201461904Y-172888095D01*
X201557142Y-172840476D01*
X201604761Y-172792857D01*
X201652380Y-172697619D01*
X201652380Y-172507142D01*
X201604761Y-172411904D01*
X201557142Y-172364285D01*
X201461904Y-172316666D01*
X200652380Y-172316666D01*
X201652380Y-171316666D02*
X201652380Y-171888095D01*
X201652380Y-171602380D02*
X200652380Y-171602380D01*
X200795238Y-171697619D01*
X200890476Y-171792857D01*
X200938095Y-171888095D01*
X201652380Y-170840476D02*
X201652380Y-170650000D01*
X201604761Y-170554761D01*
X201557142Y-170507142D01*
X201414285Y-170411904D01*
X201223809Y-170364285D01*
X200842857Y-170364285D01*
X200747619Y-170411904D01*
X200700000Y-170459523D01*
X200652380Y-170554761D01*
X200652380Y-170745238D01*
X200700000Y-170840476D01*
X200747619Y-170888095D01*
X200842857Y-170935714D01*
X201080952Y-170935714D01*
X201176190Y-170888095D01*
X201223809Y-170840476D01*
X201271428Y-170745238D01*
X201271428Y-170554761D01*
X201223809Y-170459523D01*
X201176190Y-170411904D01*
X201080952Y-170364285D01*
X209557142Y-169821428D02*
X209557142Y-168678571D01*
X210128571Y-169250000D02*
X208985714Y-169250000D01*
X205307142Y-178721428D02*
X205307142Y-177578571D01*
%TO.C,U21*%
X217652380Y-109888095D02*
X218461904Y-109888095D01*
X218557142Y-109840476D01*
X218604761Y-109792857D01*
X218652380Y-109697619D01*
X218652380Y-109507142D01*
X218604761Y-109411904D01*
X218557142Y-109364285D01*
X218461904Y-109316666D01*
X217652380Y-109316666D01*
X217747619Y-108888095D02*
X217700000Y-108840476D01*
X217652380Y-108745238D01*
X217652380Y-108507142D01*
X217700000Y-108411904D01*
X217747619Y-108364285D01*
X217842857Y-108316666D01*
X217938095Y-108316666D01*
X218080952Y-108364285D01*
X218652380Y-108935714D01*
X218652380Y-108316666D01*
X218652380Y-107364285D02*
X218652380Y-107935714D01*
X218652380Y-107650000D02*
X217652380Y-107650000D01*
X217795238Y-107745238D01*
X217890476Y-107840476D01*
X217938095Y-107935714D01*
X218307142Y-106671428D02*
X218307142Y-105528571D01*
X218307142Y-111671428D02*
X218307142Y-110528571D01*
X218878571Y-111100000D02*
X217735714Y-111100000D01*
%TO.C,SP1*%
X199143638Y-146420095D02*
X199096019Y-146562952D01*
X199096019Y-146801047D01*
X199143638Y-146896285D01*
X199191257Y-146943904D01*
X199286495Y-146991523D01*
X199381733Y-146991523D01*
X199476971Y-146943904D01*
X199524590Y-146896285D01*
X199572209Y-146801047D01*
X199619828Y-146610571D01*
X199667447Y-146515333D01*
X199715066Y-146467714D01*
X199810304Y-146420095D01*
X199905542Y-146420095D01*
X200000780Y-146467714D01*
X200048400Y-146515333D01*
X200096019Y-146610571D01*
X200096019Y-146848666D01*
X200048400Y-146991523D01*
X199096019Y-147420095D02*
X200096019Y-147420095D01*
X200096019Y-147801047D01*
X200048400Y-147896285D01*
X200000780Y-147943904D01*
X199905542Y-147991523D01*
X199762685Y-147991523D01*
X199667447Y-147943904D01*
X199619828Y-147896285D01*
X199572209Y-147801047D01*
X199572209Y-147420095D01*
X199096019Y-148943904D02*
X199096019Y-148372476D01*
X199096019Y-148658190D02*
X200096019Y-148658190D01*
X199953161Y-148562952D01*
X199857923Y-148467714D01*
X199810304Y-148372476D01*
D11*
%TO.C,R33*%
X227109285Y-155531428D02*
X226909285Y-155245714D01*
X226766428Y-155531428D02*
X226766428Y-154931428D01*
X226995000Y-154931428D01*
X227052142Y-154960000D01*
X227080714Y-154988571D01*
X227109285Y-155045714D01*
X227109285Y-155131428D01*
X227080714Y-155188571D01*
X227052142Y-155217142D01*
X226995000Y-155245714D01*
X226766428Y-155245714D01*
X227309285Y-154931428D02*
X227680714Y-154931428D01*
X227480714Y-155160000D01*
X227566428Y-155160000D01*
X227623571Y-155188571D01*
X227652142Y-155217142D01*
X227680714Y-155274285D01*
X227680714Y-155417142D01*
X227652142Y-155474285D01*
X227623571Y-155502857D01*
X227566428Y-155531428D01*
X227395000Y-155531428D01*
X227337857Y-155502857D01*
X227309285Y-155474285D01*
X227880714Y-154931428D02*
X228252142Y-154931428D01*
X228052142Y-155160000D01*
X228137857Y-155160000D01*
X228195000Y-155188571D01*
X228223571Y-155217142D01*
X228252142Y-155274285D01*
X228252142Y-155417142D01*
X228223571Y-155474285D01*
X228195000Y-155502857D01*
X228137857Y-155531428D01*
X227966428Y-155531428D01*
X227909285Y-155502857D01*
X227880714Y-155474285D01*
%TO.C,R38*%
X226639285Y-165536428D02*
X226439285Y-165250714D01*
X226296428Y-165536428D02*
X226296428Y-164936428D01*
X226525000Y-164936428D01*
X226582142Y-164965000D01*
X226610714Y-164993571D01*
X226639285Y-165050714D01*
X226639285Y-165136428D01*
X226610714Y-165193571D01*
X226582142Y-165222142D01*
X226525000Y-165250714D01*
X226296428Y-165250714D01*
X226839285Y-164936428D02*
X227210714Y-164936428D01*
X227010714Y-165165000D01*
X227096428Y-165165000D01*
X227153571Y-165193571D01*
X227182142Y-165222142D01*
X227210714Y-165279285D01*
X227210714Y-165422142D01*
X227182142Y-165479285D01*
X227153571Y-165507857D01*
X227096428Y-165536428D01*
X226925000Y-165536428D01*
X226867857Y-165507857D01*
X226839285Y-165479285D01*
X227553571Y-165193571D02*
X227496428Y-165165000D01*
X227467857Y-165136428D01*
X227439285Y-165079285D01*
X227439285Y-165050714D01*
X227467857Y-164993571D01*
X227496428Y-164965000D01*
X227553571Y-164936428D01*
X227667857Y-164936428D01*
X227725000Y-164965000D01*
X227753571Y-164993571D01*
X227782142Y-165050714D01*
X227782142Y-165079285D01*
X227753571Y-165136428D01*
X227725000Y-165165000D01*
X227667857Y-165193571D01*
X227553571Y-165193571D01*
X227496428Y-165222142D01*
X227467857Y-165250714D01*
X227439285Y-165307857D01*
X227439285Y-165422142D01*
X227467857Y-165479285D01*
X227496428Y-165507857D01*
X227553571Y-165536428D01*
X227667857Y-165536428D01*
X227725000Y-165507857D01*
X227753571Y-165479285D01*
X227782142Y-165422142D01*
X227782142Y-165307857D01*
X227753571Y-165250714D01*
X227725000Y-165222142D01*
X227667857Y-165193571D01*
%TO.C,J2*%
X148452380Y-148783333D02*
X149166666Y-148783333D01*
X149309523Y-148830952D01*
X149404761Y-148926190D01*
X149452380Y-149069047D01*
X149452380Y-149164285D01*
X148547619Y-148354761D02*
X148500000Y-148307142D01*
X148452380Y-148211904D01*
X148452380Y-147973809D01*
X148500000Y-147878571D01*
X148547619Y-147830952D01*
X148642857Y-147783333D01*
X148738095Y-147783333D01*
X148880952Y-147830952D01*
X149452380Y-148402380D01*
X149452380Y-147783333D01*
D10*
%TO.C,U34*%
X183052380Y-153688095D02*
X183861904Y-153688095D01*
X183957142Y-153640476D01*
X184004761Y-153592857D01*
X184052380Y-153497619D01*
X184052380Y-153307142D01*
X184004761Y-153211904D01*
X183957142Y-153164285D01*
X183861904Y-153116666D01*
X183052380Y-153116666D01*
X183052380Y-152735714D02*
X183052380Y-152116666D01*
X183433333Y-152450000D01*
X183433333Y-152307142D01*
X183480952Y-152211904D01*
X183528571Y-152164285D01*
X183623809Y-152116666D01*
X183861904Y-152116666D01*
X183957142Y-152164285D01*
X184004761Y-152211904D01*
X184052380Y-152307142D01*
X184052380Y-152592857D01*
X184004761Y-152688095D01*
X183957142Y-152735714D01*
X183385714Y-151259523D02*
X184052380Y-151259523D01*
X183004761Y-151497619D02*
X183719047Y-151735714D01*
X183719047Y-151116666D01*
D11*
%TO.C,R41*%
X218244285Y-165586428D02*
X218044285Y-165300714D01*
X217901428Y-165586428D02*
X217901428Y-164986428D01*
X218130000Y-164986428D01*
X218187142Y-165015000D01*
X218215714Y-165043571D01*
X218244285Y-165100714D01*
X218244285Y-165186428D01*
X218215714Y-165243571D01*
X218187142Y-165272142D01*
X218130000Y-165300714D01*
X217901428Y-165300714D01*
X218758571Y-165186428D02*
X218758571Y-165586428D01*
X218615714Y-164957857D02*
X218472857Y-165386428D01*
X218844285Y-165386428D01*
X219387142Y-165586428D02*
X219044285Y-165586428D01*
X219215714Y-165586428D02*
X219215714Y-164986428D01*
X219158571Y-165072142D01*
X219101428Y-165129285D01*
X219044285Y-165157857D01*
D14*
%TO.C,U5*%
X219718163Y-157666807D02*
X219942942Y-157666807D01*
X219969387Y-157653585D01*
X219982609Y-157640362D01*
X219995832Y-157613918D01*
X219995832Y-157561028D01*
X219982609Y-157534584D01*
X219969387Y-157521361D01*
X219942942Y-157508139D01*
X219718163Y-157508139D01*
X219718163Y-157243692D02*
X219718163Y-157375916D01*
X219850386Y-157389138D01*
X219837164Y-157375916D01*
X219823941Y-157349471D01*
X219823941Y-157283359D01*
X219837164Y-157256915D01*
X219850386Y-157243692D01*
X219876831Y-157230470D01*
X219942942Y-157230470D01*
X219969387Y-157243692D01*
X219982609Y-157256915D01*
X219995832Y-157283359D01*
X219995832Y-157349471D01*
X219982609Y-157375916D01*
X219969387Y-157389138D01*
D11*
%TO.C,D8*%
X211487142Y-165486428D02*
X211487142Y-164886428D01*
X211630000Y-164886428D01*
X211715714Y-164915000D01*
X211772857Y-164972142D01*
X211801428Y-165029285D01*
X211830000Y-165143571D01*
X211830000Y-165229285D01*
X211801428Y-165343571D01*
X211772857Y-165400714D01*
X211715714Y-165457857D01*
X211630000Y-165486428D01*
X211487142Y-165486428D01*
X212172857Y-165143571D02*
X212115714Y-165115000D01*
X212087142Y-165086428D01*
X212058571Y-165029285D01*
X212058571Y-165000714D01*
X212087142Y-164943571D01*
X212115714Y-164915000D01*
X212172857Y-164886428D01*
X212287142Y-164886428D01*
X212344285Y-164915000D01*
X212372857Y-164943571D01*
X212401428Y-165000714D01*
X212401428Y-165029285D01*
X212372857Y-165086428D01*
X212344285Y-165115000D01*
X212287142Y-165143571D01*
X212172857Y-165143571D01*
X212115714Y-165172142D01*
X212087142Y-165200714D01*
X212058571Y-165257857D01*
X212058571Y-165372142D01*
X212087142Y-165429285D01*
X212115714Y-165457857D01*
X212172857Y-165486428D01*
X212287142Y-165486428D01*
X212344285Y-165457857D01*
X212372857Y-165429285D01*
X212401428Y-165372142D01*
X212401428Y-165257857D01*
X212372857Y-165200714D01*
X212344285Y-165172142D01*
X212287142Y-165143571D01*
%TO.C,R6*%
X196375000Y-177346428D02*
X196175000Y-177060714D01*
X196032142Y-177346428D02*
X196032142Y-176746428D01*
X196260714Y-176746428D01*
X196317857Y-176775000D01*
X196346428Y-176803571D01*
X196375000Y-176860714D01*
X196375000Y-176946428D01*
X196346428Y-177003571D01*
X196317857Y-177032142D01*
X196260714Y-177060714D01*
X196032142Y-177060714D01*
X196889285Y-176746428D02*
X196775000Y-176746428D01*
X196717857Y-176775000D01*
X196689285Y-176803571D01*
X196632142Y-176889285D01*
X196603571Y-177003571D01*
X196603571Y-177232142D01*
X196632142Y-177289285D01*
X196660714Y-177317857D01*
X196717857Y-177346428D01*
X196832142Y-177346428D01*
X196889285Y-177317857D01*
X196917857Y-177289285D01*
X196946428Y-177232142D01*
X196946428Y-177089285D01*
X196917857Y-177032142D01*
X196889285Y-177003571D01*
X196832142Y-176975000D01*
X196717857Y-176975000D01*
X196660714Y-177003571D01*
X196632142Y-177032142D01*
X196603571Y-177089285D01*
D10*
%TO.C,Q16*%
X200921095Y-106309642D02*
X200883000Y-106385833D01*
X200806809Y-106462023D01*
X200692523Y-106576309D01*
X200654428Y-106652500D01*
X200654428Y-106728690D01*
X200844904Y-106690595D02*
X200806809Y-106766785D01*
X200730619Y-106842976D01*
X200578238Y-106881071D01*
X200311571Y-106881071D01*
X200159190Y-106842976D01*
X200083000Y-106766785D01*
X200044904Y-106690595D01*
X200044904Y-106538214D01*
X200083000Y-106462023D01*
X200159190Y-106385833D01*
X200311571Y-106347738D01*
X200578238Y-106347738D01*
X200730619Y-106385833D01*
X200806809Y-106462023D01*
X200844904Y-106538214D01*
X200844904Y-106690595D01*
X200844904Y-105585833D02*
X200844904Y-106042976D01*
X200844904Y-105814404D02*
X200044904Y-105814404D01*
X200159190Y-105890595D01*
X200235380Y-105966785D01*
X200273476Y-106042976D01*
X200044904Y-104900119D02*
X200044904Y-105052500D01*
X200083000Y-105128690D01*
X200121095Y-105166785D01*
X200235380Y-105242976D01*
X200387761Y-105281071D01*
X200692523Y-105281071D01*
X200768714Y-105242976D01*
X200806809Y-105204880D01*
X200844904Y-105128690D01*
X200844904Y-104976309D01*
X200806809Y-104900119D01*
X200768714Y-104862023D01*
X200692523Y-104823928D01*
X200502047Y-104823928D01*
X200425857Y-104862023D01*
X200387761Y-104900119D01*
X200349666Y-104976309D01*
X200349666Y-105128690D01*
X200387761Y-105204880D01*
X200425857Y-105242976D01*
X200502047Y-105281071D01*
%TO.C,Q9*%
X192930095Y-111423690D02*
X192892000Y-111499880D01*
X192815809Y-111576071D01*
X192701523Y-111690357D01*
X192663428Y-111766547D01*
X192663428Y-111842738D01*
X192853904Y-111804642D02*
X192815809Y-111880833D01*
X192739619Y-111957023D01*
X192587238Y-111995119D01*
X192320571Y-111995119D01*
X192168190Y-111957023D01*
X192092000Y-111880833D01*
X192053904Y-111804642D01*
X192053904Y-111652261D01*
X192092000Y-111576071D01*
X192168190Y-111499880D01*
X192320571Y-111461785D01*
X192587238Y-111461785D01*
X192739619Y-111499880D01*
X192815809Y-111576071D01*
X192853904Y-111652261D01*
X192853904Y-111804642D01*
X192853904Y-111080833D02*
X192853904Y-110928452D01*
X192815809Y-110852261D01*
X192777714Y-110814166D01*
X192663428Y-110737976D01*
X192511047Y-110699880D01*
X192206285Y-110699880D01*
X192130095Y-110737976D01*
X192092000Y-110776071D01*
X192053904Y-110852261D01*
X192053904Y-111004642D01*
X192092000Y-111080833D01*
X192130095Y-111118928D01*
X192206285Y-111157023D01*
X192396761Y-111157023D01*
X192472952Y-111118928D01*
X192511047Y-111080833D01*
X192549142Y-111004642D01*
X192549142Y-110852261D01*
X192511047Y-110776071D01*
X192472952Y-110737976D01*
X192396761Y-110699880D01*
D11*
%TO.C,R9*%
X181646428Y-108375000D02*
X181360714Y-108575000D01*
X181646428Y-108717857D02*
X181046428Y-108717857D01*
X181046428Y-108489285D01*
X181075000Y-108432142D01*
X181103571Y-108403571D01*
X181160714Y-108375000D01*
X181246428Y-108375000D01*
X181303571Y-108403571D01*
X181332142Y-108432142D01*
X181360714Y-108489285D01*
X181360714Y-108717857D01*
X181646428Y-108089285D02*
X181646428Y-107975000D01*
X181617857Y-107917857D01*
X181589285Y-107889285D01*
X181503571Y-107832142D01*
X181389285Y-107803571D01*
X181160714Y-107803571D01*
X181103571Y-107832142D01*
X181075000Y-107860714D01*
X181046428Y-107917857D01*
X181046428Y-108032142D01*
X181075000Y-108089285D01*
X181103571Y-108117857D01*
X181160714Y-108146428D01*
X181303571Y-108146428D01*
X181360714Y-108117857D01*
X181389285Y-108089285D01*
X181417857Y-108032142D01*
X181417857Y-107917857D01*
X181389285Y-107860714D01*
X181360714Y-107832142D01*
X181303571Y-107803571D01*
D10*
%TO.C,U8*%
X222863095Y-83302380D02*
X222863095Y-84111904D01*
X222910714Y-84207142D01*
X222958333Y-84254761D01*
X223053571Y-84302380D01*
X223244047Y-84302380D01*
X223339285Y-84254761D01*
X223386904Y-84207142D01*
X223434523Y-84111904D01*
X223434523Y-83302380D01*
X224053571Y-83730952D02*
X223958333Y-83683333D01*
X223910714Y-83635714D01*
X223863095Y-83540476D01*
X223863095Y-83492857D01*
X223910714Y-83397619D01*
X223958333Y-83350000D01*
X224053571Y-83302380D01*
X224244047Y-83302380D01*
X224339285Y-83350000D01*
X224386904Y-83397619D01*
X224434523Y-83492857D01*
X224434523Y-83540476D01*
X224386904Y-83635714D01*
X224339285Y-83683333D01*
X224244047Y-83730952D01*
X224053571Y-83730952D01*
X223958333Y-83778571D01*
X223910714Y-83826190D01*
X223863095Y-83921428D01*
X223863095Y-84111904D01*
X223910714Y-84207142D01*
X223958333Y-84254761D01*
X224053571Y-84302380D01*
X224244047Y-84302380D01*
X224339285Y-84254761D01*
X224386904Y-84207142D01*
X224434523Y-84111904D01*
X224434523Y-83921428D01*
X224386904Y-83826190D01*
X224339285Y-83778571D01*
X224244047Y-83730952D01*
D11*
%TO.C,R58*%
X213716428Y-161190714D02*
X213430714Y-161390714D01*
X213716428Y-161533571D02*
X213116428Y-161533571D01*
X213116428Y-161305000D01*
X213145000Y-161247857D01*
X213173571Y-161219285D01*
X213230714Y-161190714D01*
X213316428Y-161190714D01*
X213373571Y-161219285D01*
X213402142Y-161247857D01*
X213430714Y-161305000D01*
X213430714Y-161533571D01*
X213116428Y-160647857D02*
X213116428Y-160933571D01*
X213402142Y-160962142D01*
X213373571Y-160933571D01*
X213345000Y-160876428D01*
X213345000Y-160733571D01*
X213373571Y-160676428D01*
X213402142Y-160647857D01*
X213459285Y-160619285D01*
X213602142Y-160619285D01*
X213659285Y-160647857D01*
X213687857Y-160676428D01*
X213716428Y-160733571D01*
X213716428Y-160876428D01*
X213687857Y-160933571D01*
X213659285Y-160962142D01*
X213373571Y-160276428D02*
X213345000Y-160333571D01*
X213316428Y-160362142D01*
X213259285Y-160390714D01*
X213230714Y-160390714D01*
X213173571Y-160362142D01*
X213145000Y-160333571D01*
X213116428Y-160276428D01*
X213116428Y-160162142D01*
X213145000Y-160105000D01*
X213173571Y-160076428D01*
X213230714Y-160047857D01*
X213259285Y-160047857D01*
X213316428Y-160076428D01*
X213345000Y-160105000D01*
X213373571Y-160162142D01*
X213373571Y-160276428D01*
X213402142Y-160333571D01*
X213430714Y-160362142D01*
X213487857Y-160390714D01*
X213602142Y-160390714D01*
X213659285Y-160362142D01*
X213687857Y-160333571D01*
X213716428Y-160276428D01*
X213716428Y-160162142D01*
X213687857Y-160105000D01*
X213659285Y-160076428D01*
X213602142Y-160047857D01*
X213487857Y-160047857D01*
X213430714Y-160076428D01*
X213402142Y-160105000D01*
X213373571Y-160162142D01*
D10*
%TO.C,C31*%
X171232142Y-148367857D02*
X171279761Y-148415476D01*
X171327380Y-148558333D01*
X171327380Y-148653571D01*
X171279761Y-148796428D01*
X171184523Y-148891666D01*
X171089285Y-148939285D01*
X170898809Y-148986904D01*
X170755952Y-148986904D01*
X170565476Y-148939285D01*
X170470238Y-148891666D01*
X170375000Y-148796428D01*
X170327380Y-148653571D01*
X170327380Y-148558333D01*
X170375000Y-148415476D01*
X170422619Y-148367857D01*
X170327380Y-148034523D02*
X170327380Y-147415476D01*
X170708333Y-147748809D01*
X170708333Y-147605952D01*
X170755952Y-147510714D01*
X170803571Y-147463095D01*
X170898809Y-147415476D01*
X171136904Y-147415476D01*
X171232142Y-147463095D01*
X171279761Y-147510714D01*
X171327380Y-147605952D01*
X171327380Y-147891666D01*
X171279761Y-147986904D01*
X171232142Y-148034523D01*
X171327380Y-146463095D02*
X171327380Y-147034523D01*
X171327380Y-146748809D02*
X170327380Y-146748809D01*
X170470238Y-146844047D01*
X170565476Y-146939285D01*
X170613095Y-147034523D01*
%TO.C,J14*%
X287584645Y-155122380D02*
X287584645Y-155836666D01*
X287537026Y-155979523D01*
X287441788Y-156074761D01*
X287298930Y-156122380D01*
X287203692Y-156122380D01*
X288584645Y-156122380D02*
X288013216Y-156122380D01*
X288298930Y-156122380D02*
X288298930Y-155122380D01*
X288203692Y-155265238D01*
X288108454Y-155360476D01*
X288013216Y-155408095D01*
X289441788Y-155455714D02*
X289441788Y-156122380D01*
X289203692Y-155074761D02*
X288965597Y-155789047D01*
X289584645Y-155789047D01*
%TO.C,Q11*%
X192996095Y-106322142D02*
X192958000Y-106398333D01*
X192881809Y-106474523D01*
X192767523Y-106588809D01*
X192729428Y-106665000D01*
X192729428Y-106741190D01*
X192919904Y-106703095D02*
X192881809Y-106779285D01*
X192805619Y-106855476D01*
X192653238Y-106893571D01*
X192386571Y-106893571D01*
X192234190Y-106855476D01*
X192158000Y-106779285D01*
X192119904Y-106703095D01*
X192119904Y-106550714D01*
X192158000Y-106474523D01*
X192234190Y-106398333D01*
X192386571Y-106360238D01*
X192653238Y-106360238D01*
X192805619Y-106398333D01*
X192881809Y-106474523D01*
X192919904Y-106550714D01*
X192919904Y-106703095D01*
X192919904Y-105598333D02*
X192919904Y-106055476D01*
X192919904Y-105826904D02*
X192119904Y-105826904D01*
X192234190Y-105903095D01*
X192310380Y-105979285D01*
X192348476Y-106055476D01*
X192919904Y-104836428D02*
X192919904Y-105293571D01*
X192919904Y-105065000D02*
X192119904Y-105065000D01*
X192234190Y-105141190D01*
X192310380Y-105217380D01*
X192348476Y-105293571D01*
D11*
%TO.C,R16*%
X209084285Y-165776428D02*
X208884285Y-165490714D01*
X208741428Y-165776428D02*
X208741428Y-165176428D01*
X208970000Y-165176428D01*
X209027142Y-165205000D01*
X209055714Y-165233571D01*
X209084285Y-165290714D01*
X209084285Y-165376428D01*
X209055714Y-165433571D01*
X209027142Y-165462142D01*
X208970000Y-165490714D01*
X208741428Y-165490714D01*
X209655714Y-165776428D02*
X209312857Y-165776428D01*
X209484285Y-165776428D02*
X209484285Y-165176428D01*
X209427142Y-165262142D01*
X209370000Y-165319285D01*
X209312857Y-165347857D01*
X210170000Y-165176428D02*
X210055714Y-165176428D01*
X209998571Y-165205000D01*
X209970000Y-165233571D01*
X209912857Y-165319285D01*
X209884285Y-165433571D01*
X209884285Y-165662142D01*
X209912857Y-165719285D01*
X209941428Y-165747857D01*
X209998571Y-165776428D01*
X210112857Y-165776428D01*
X210170000Y-165747857D01*
X210198571Y-165719285D01*
X210227142Y-165662142D01*
X210227142Y-165519285D01*
X210198571Y-165462142D01*
X210170000Y-165433571D01*
X210112857Y-165405000D01*
X209998571Y-165405000D01*
X209941428Y-165433571D01*
X209912857Y-165462142D01*
X209884285Y-165519285D01*
D10*
%TO.C,J11*%
X336140354Y-124977619D02*
X336140354Y-124263333D01*
X336187973Y-124120476D01*
X336283211Y-124025238D01*
X336426069Y-123977619D01*
X336521307Y-123977619D01*
X335140354Y-123977619D02*
X335711783Y-123977619D01*
X335426069Y-123977619D02*
X335426069Y-124977619D01*
X335521307Y-124834761D01*
X335616545Y-124739523D01*
X335711783Y-124691904D01*
X334187973Y-123977619D02*
X334759402Y-123977619D01*
X334473688Y-123977619D02*
X334473688Y-124977619D01*
X334568926Y-124834761D01*
X334664164Y-124739523D01*
X334759402Y-124691904D01*
%TO.C,Q5*%
X188355095Y-165701190D02*
X188317000Y-165777380D01*
X188240809Y-165853571D01*
X188126523Y-165967857D01*
X188088428Y-166044047D01*
X188088428Y-166120238D01*
X188278904Y-166082142D02*
X188240809Y-166158333D01*
X188164619Y-166234523D01*
X188012238Y-166272619D01*
X187745571Y-166272619D01*
X187593190Y-166234523D01*
X187517000Y-166158333D01*
X187478904Y-166082142D01*
X187478904Y-165929761D01*
X187517000Y-165853571D01*
X187593190Y-165777380D01*
X187745571Y-165739285D01*
X188012238Y-165739285D01*
X188164619Y-165777380D01*
X188240809Y-165853571D01*
X188278904Y-165929761D01*
X188278904Y-166082142D01*
X187478904Y-165015476D02*
X187478904Y-165396428D01*
X187859857Y-165434523D01*
X187821761Y-165396428D01*
X187783666Y-165320238D01*
X187783666Y-165129761D01*
X187821761Y-165053571D01*
X187859857Y-165015476D01*
X187936047Y-164977380D01*
X188126523Y-164977380D01*
X188202714Y-165015476D01*
X188240809Y-165053571D01*
X188278904Y-165129761D01*
X188278904Y-165320238D01*
X188240809Y-165396428D01*
X188202714Y-165434523D01*
D11*
%TO.C,R39*%
X228816428Y-162010714D02*
X228530714Y-162210714D01*
X228816428Y-162353571D02*
X228216428Y-162353571D01*
X228216428Y-162125000D01*
X228245000Y-162067857D01*
X228273571Y-162039285D01*
X228330714Y-162010714D01*
X228416428Y-162010714D01*
X228473571Y-162039285D01*
X228502142Y-162067857D01*
X228530714Y-162125000D01*
X228530714Y-162353571D01*
X228216428Y-161810714D02*
X228216428Y-161439285D01*
X228445000Y-161639285D01*
X228445000Y-161553571D01*
X228473571Y-161496428D01*
X228502142Y-161467857D01*
X228559285Y-161439285D01*
X228702142Y-161439285D01*
X228759285Y-161467857D01*
X228787857Y-161496428D01*
X228816428Y-161553571D01*
X228816428Y-161725000D01*
X228787857Y-161782142D01*
X228759285Y-161810714D01*
X228816428Y-161153571D02*
X228816428Y-161039285D01*
X228787857Y-160982142D01*
X228759285Y-160953571D01*
X228673571Y-160896428D01*
X228559285Y-160867857D01*
X228330714Y-160867857D01*
X228273571Y-160896428D01*
X228245000Y-160925000D01*
X228216428Y-160982142D01*
X228216428Y-161096428D01*
X228245000Y-161153571D01*
X228273571Y-161182142D01*
X228330714Y-161210714D01*
X228473571Y-161210714D01*
X228530714Y-161182142D01*
X228559285Y-161153571D01*
X228587857Y-161096428D01*
X228587857Y-160982142D01*
X228559285Y-160925000D01*
X228530714Y-160896428D01*
X228473571Y-160867857D01*
%TO.C,R5*%
X181696428Y-164325000D02*
X181410714Y-164525000D01*
X181696428Y-164667857D02*
X181096428Y-164667857D01*
X181096428Y-164439285D01*
X181125000Y-164382142D01*
X181153571Y-164353571D01*
X181210714Y-164325000D01*
X181296428Y-164325000D01*
X181353571Y-164353571D01*
X181382142Y-164382142D01*
X181410714Y-164439285D01*
X181410714Y-164667857D01*
X181096428Y-163782142D02*
X181096428Y-164067857D01*
X181382142Y-164096428D01*
X181353571Y-164067857D01*
X181325000Y-164010714D01*
X181325000Y-163867857D01*
X181353571Y-163810714D01*
X181382142Y-163782142D01*
X181439285Y-163753571D01*
X181582142Y-163753571D01*
X181639285Y-163782142D01*
X181667857Y-163810714D01*
X181696428Y-163867857D01*
X181696428Y-164010714D01*
X181667857Y-164067857D01*
X181639285Y-164096428D01*
D10*
%TO.C,U9*%
X211977380Y-127611904D02*
X212786904Y-127611904D01*
X212882142Y-127564285D01*
X212929761Y-127516666D01*
X212977380Y-127421428D01*
X212977380Y-127230952D01*
X212929761Y-127135714D01*
X212882142Y-127088095D01*
X212786904Y-127040476D01*
X211977380Y-127040476D01*
X212977380Y-126516666D02*
X212977380Y-126326190D01*
X212929761Y-126230952D01*
X212882142Y-126183333D01*
X212739285Y-126088095D01*
X212548809Y-126040476D01*
X212167857Y-126040476D01*
X212072619Y-126088095D01*
X212025000Y-126135714D01*
X211977380Y-126230952D01*
X211977380Y-126421428D01*
X212025000Y-126516666D01*
X212072619Y-126564285D01*
X212167857Y-126611904D01*
X212405952Y-126611904D01*
X212501190Y-126564285D01*
X212548809Y-126516666D01*
X212596428Y-126421428D01*
X212596428Y-126230952D01*
X212548809Y-126135714D01*
X212501190Y-126088095D01*
X212405952Y-126040476D01*
D11*
%TO.C,C11*%
X229134285Y-157269285D02*
X229105714Y-157297857D01*
X229020000Y-157326428D01*
X228962857Y-157326428D01*
X228877142Y-157297857D01*
X228820000Y-157240714D01*
X228791428Y-157183571D01*
X228762857Y-157069285D01*
X228762857Y-156983571D01*
X228791428Y-156869285D01*
X228820000Y-156812142D01*
X228877142Y-156755000D01*
X228962857Y-156726428D01*
X229020000Y-156726428D01*
X229105714Y-156755000D01*
X229134285Y-156783571D01*
X229705714Y-157326428D02*
X229362857Y-157326428D01*
X229534285Y-157326428D02*
X229534285Y-156726428D01*
X229477142Y-156812142D01*
X229420000Y-156869285D01*
X229362857Y-156897857D01*
X230277142Y-157326428D02*
X229934285Y-157326428D01*
X230105714Y-157326428D02*
X230105714Y-156726428D01*
X230048571Y-156812142D01*
X229991428Y-156869285D01*
X229934285Y-156897857D01*
D10*
%TO.C,D12*%
X179197380Y-149589285D02*
X178197380Y-149589285D01*
X178197380Y-149351190D01*
X178245000Y-149208333D01*
X178340238Y-149113095D01*
X178435476Y-149065476D01*
X178625952Y-149017857D01*
X178768809Y-149017857D01*
X178959285Y-149065476D01*
X179054523Y-149113095D01*
X179149761Y-149208333D01*
X179197380Y-149351190D01*
X179197380Y-149589285D01*
X179197380Y-148065476D02*
X179197380Y-148636904D01*
X179197380Y-148351190D02*
X178197380Y-148351190D01*
X178340238Y-148446428D01*
X178435476Y-148541666D01*
X178483095Y-148636904D01*
X178292619Y-147684523D02*
X178245000Y-147636904D01*
X178197380Y-147541666D01*
X178197380Y-147303571D01*
X178245000Y-147208333D01*
X178292619Y-147160714D01*
X178387857Y-147113095D01*
X178483095Y-147113095D01*
X178625952Y-147160714D01*
X179197380Y-147732142D01*
X179197380Y-147113095D01*
D15*
%TO.C,U22*%
X224610000Y-103440000D02*
X225910000Y-105140000D01*
X220490000Y-105140000D02*
X220490000Y-113860000D01*
X225910000Y-113860000D02*
X220490000Y-113860000D01*
X221790000Y-103440000D02*
X220490000Y-105140000D01*
X225910000Y-105140000D02*
X225910000Y-113860000D01*
X224610000Y-103440000D02*
X221790000Y-103440000D01*
D11*
%TO.C,C22*%
X215600000Y-119500000D02*
X215600000Y-120600000D01*
X214500000Y-120600000D02*
X214500000Y-119500000D01*
%TO.C,R18*%
X171400000Y-147200000D02*
X171400000Y-148300000D01*
X170300000Y-148300000D02*
X170300000Y-147200000D01*
%TO.C,C29*%
X227640000Y-150080000D02*
X228740000Y-150080000D01*
X228740000Y-151180000D02*
X227640000Y-151180000D01*
%TO.C,R51*%
X180900000Y-126750000D02*
X180900000Y-128050000D01*
X179400000Y-128050000D02*
X179400000Y-126750000D01*
D15*
%TO.C,D2*%
X177300000Y-156000000D02*
X173450000Y-156000000D01*
X177300000Y-154000000D02*
X173450000Y-154000000D01*
X177300000Y-156000000D02*
X177300000Y-154000000D01*
D11*
%TO.C,R1*%
X165250000Y-155300000D02*
X166350000Y-155300000D01*
X166350000Y-156400000D02*
X165250000Y-156400000D01*
%TO.C,R45*%
X209000000Y-116300000D02*
X207900000Y-116300000D01*
X207900000Y-115200000D02*
X209000000Y-115200000D01*
%TO.C,C20*%
X222375000Y-140225000D02*
X221275000Y-140225000D01*
X221275000Y-139125000D02*
X222375000Y-139125000D01*
%TO.C,R25*%
X191150000Y-121475000D02*
X189850000Y-121475000D01*
X189850000Y-119975000D02*
X191150000Y-119975000D01*
%TO.C,C14*%
X225150000Y-161490000D02*
X224050000Y-161490000D01*
X224050000Y-160390000D02*
X225150000Y-160390000D01*
%TO.C,C32*%
X158750000Y-147350000D02*
X158750000Y-148450000D01*
X157650000Y-148450000D02*
X157650000Y-147350000D01*
D15*
%TO.C,U17*%
X221790000Y-176860000D02*
X224610000Y-176860000D01*
X220490000Y-166440000D02*
X225910000Y-166440000D01*
X225910000Y-175160000D02*
X225910000Y-166440000D01*
X224610000Y-176860000D02*
X225910000Y-175160000D01*
X220490000Y-175160000D02*
X220490000Y-166440000D01*
X221790000Y-176860000D02*
X220490000Y-175160000D01*
D11*
%TO.C,C19*%
X223750000Y-137100000D02*
X222450000Y-137100000D01*
X222450000Y-135600000D02*
X223750000Y-135600000D01*
%TO.C,R59*%
X207845000Y-164630000D02*
X207845000Y-163530000D01*
X208945000Y-163530000D02*
X208945000Y-164630000D01*
D15*
%TO.C,J1*%
X167927500Y-130600000D02*
X167927500Y-129700000D01*
X167927500Y-124600000D02*
X167927500Y-125500000D01*
X169277500Y-124600000D02*
X167927500Y-124600000D01*
X169277500Y-130600000D02*
X167927500Y-130600000D01*
X171177500Y-129500000D02*
X171177500Y-125700000D01*
X167602500Y-130100000D02*
G75*
G03*
X167602500Y-130100000I-250000J0D01*
G01*
D11*
%TO.C,C25*%
X233725000Y-144675000D02*
X233725000Y-143375000D01*
X235225000Y-143375000D02*
X235225000Y-144675000D01*
D15*
%TO.C,Q1*%
X171435000Y-151395000D02*
X171435000Y-152325000D01*
X171435000Y-154555000D02*
X169975000Y-154555000D01*
X171435000Y-154555000D02*
X171435000Y-153625000D01*
X171435000Y-151395000D02*
X169275000Y-151395000D01*
%TO.C,U12*%
X241025000Y-137375000D02*
X241025000Y-139185000D01*
X241025000Y-139185000D02*
X235900000Y-139185000D01*
X241025000Y-147775000D02*
X241025000Y-145965000D01*
X242525000Y-147775000D02*
X241025000Y-147775000D01*
X241025000Y-145965000D02*
X239925000Y-145965000D01*
X242525000Y-137375000D02*
X241025000Y-137375000D01*
%TO.C,U20*%
X202490000Y-105140000D02*
X202490000Y-113860000D01*
X203790000Y-103440000D02*
X202490000Y-105140000D01*
X207910000Y-113860000D02*
X202490000Y-113860000D01*
X206610000Y-103440000D02*
X207910000Y-105140000D01*
X206610000Y-103440000D02*
X203790000Y-103440000D01*
X207910000Y-105140000D02*
X207910000Y-113860000D01*
D16*
%TO.C,Q10*%
X188100000Y-111537500D02*
X188100000Y-108237500D01*
X191400000Y-111537500D02*
X191400000Y-108237500D01*
D17*
X188450000Y-112237500D02*
G75*
G03*
X188450000Y-112237500I-100000J0D01*
G01*
D11*
%TO.C,R28*%
X193325000Y-115875000D02*
X194425000Y-115875000D01*
X194425000Y-116975000D02*
X193325000Y-116975000D01*
D16*
%TO.C,Q13*%
X197025000Y-159950000D02*
X197025000Y-163250000D01*
X200325000Y-159950000D02*
X200325000Y-163250000D01*
D17*
X200175000Y-159250000D02*
G75*
G03*
X200175000Y-159250000I-100000J0D01*
G01*
D11*
%TO.C,R44*%
X207900000Y-116600000D02*
X209000000Y-116600000D01*
X209000000Y-117700000D02*
X207900000Y-117700000D01*
%TO.C,R10*%
X189800000Y-174450000D02*
X190900000Y-174450000D01*
X190900000Y-175550000D02*
X189800000Y-175550000D01*
D15*
%TO.C,J10*%
X302515000Y-101030000D02*
X321665000Y-101030000D01*
X321665000Y-101030000D02*
X321665000Y-122070000D01*
X321665000Y-122070000D02*
X302515000Y-122070000D01*
X302515000Y-122070000D02*
X302515000Y-101030000D01*
D11*
%TO.C,R55*%
X191325000Y-112825000D02*
X191325000Y-113925000D01*
X190225000Y-113925000D02*
X190225000Y-112825000D01*
D17*
%TO.C,U2*%
X181050000Y-170250000D02*
X181450000Y-170250000D01*
X181050000Y-175050000D02*
X182050000Y-175050000D01*
D11*
X182650000Y-176300000D02*
X182650000Y-176300000D01*
D17*
X187450000Y-173300000D02*
X187450000Y-175050000D01*
X187450000Y-175050000D02*
X186450000Y-175050000D01*
X187450000Y-170250000D02*
X187450000Y-172100000D01*
X181050000Y-173300000D02*
X181050000Y-175050000D01*
D11*
X182650000Y-176400000D02*
X182650000Y-176400000D01*
D17*
X181050000Y-172100000D02*
X181050000Y-170250000D01*
X187050000Y-170250000D02*
X187450000Y-170250000D01*
D11*
X182650000Y-176400000D02*
G75*
G03*
X182650000Y-176300000I0J50000D01*
G01*
X182650000Y-176300000D02*
G75*
G03*
X182650000Y-176400000I0J-50000D01*
G01*
%TO.C,R7*%
X181900000Y-178300000D02*
X180800000Y-178300000D01*
X180800000Y-177200000D02*
X181900000Y-177200000D01*
%TO.C,D9*%
X205900000Y-116300000D02*
X204800000Y-116300000D01*
X204800000Y-115200000D02*
X205900000Y-115200000D01*
%TO.C,R12*%
X193425000Y-171650000D02*
X194525000Y-171650000D01*
X194525000Y-172750000D02*
X193425000Y-172750000D01*
%TO.C,C28*%
X251275000Y-151130000D02*
X250175000Y-151130000D01*
X250175000Y-150030000D02*
X251275000Y-150030000D01*
D15*
%TO.C,U7*%
X211950000Y-149465000D02*
X210850000Y-149465000D01*
X211950000Y-140875000D02*
X211950000Y-142685000D01*
X213450000Y-151275000D02*
X211950000Y-151275000D01*
X211950000Y-142685000D02*
X206825000Y-142685000D01*
X211950000Y-151275000D02*
X211950000Y-149465000D01*
X213450000Y-140875000D02*
X211950000Y-140875000D01*
D11*
%TO.C,R19*%
X171450000Y-145350000D02*
X171450000Y-144250000D01*
X172550000Y-144250000D02*
X172550000Y-145350000D01*
%TO.C,C2*%
X165325000Y-152925000D02*
X165325000Y-154025000D01*
X164225000Y-154025000D02*
X164225000Y-152925000D01*
%TO.C,C33*%
X184275000Y-151975000D02*
X184275000Y-153075000D01*
X183175000Y-153075000D02*
X183175000Y-151975000D01*
%TO.C,C34*%
X176450000Y-150650000D02*
X175350000Y-150650000D01*
X175350000Y-149550000D02*
X176450000Y-149550000D01*
D16*
%TO.C,Q14*%
X200300000Y-167415000D02*
X200300000Y-164115000D01*
X197000000Y-167415000D02*
X197000000Y-164115000D01*
D17*
X197350000Y-168115000D02*
G75*
G03*
X197350000Y-168115000I-100000J0D01*
G01*
D11*
%TO.C,R63*%
X200250000Y-168700000D02*
X200250000Y-169800000D01*
X199150000Y-169800000D02*
X199150000Y-168700000D01*
D15*
%TO.C,Q7*%
X195580000Y-118115000D02*
X194650000Y-118115000D01*
X192420000Y-118115000D02*
X192420000Y-120275000D01*
X195580000Y-118115000D02*
X195580000Y-119575000D01*
X192420000Y-118115000D02*
X193350000Y-118115000D01*
%TO.C,U23*%
X233990000Y-176910000D02*
X236810000Y-176910000D01*
X232690000Y-166490000D02*
X238110000Y-166490000D01*
X236810000Y-176910000D02*
X238110000Y-175210000D01*
X233990000Y-176910000D02*
X232690000Y-175210000D01*
X232690000Y-175210000D02*
X232690000Y-166490000D01*
X238110000Y-175210000D02*
X238110000Y-166490000D01*
D11*
%TO.C,R57*%
X193300000Y-101675000D02*
X193300000Y-102775000D01*
X192200000Y-102775000D02*
X192200000Y-101675000D01*
%TO.C,R60*%
X226600000Y-117650000D02*
X225500000Y-117650000D01*
X225500000Y-116550000D02*
X226600000Y-116550000D01*
D15*
%TO.C,C5*%
X197131548Y-154770000D02*
G75*
G03*
X197131548Y-154770000I-291548J0D01*
G01*
X202340000Y-150030000D02*
G75*
G03*
X202340000Y-150030000I-5500000J0D01*
G01*
D11*
%TO.C,C18*%
X209825000Y-137050000D02*
X208525000Y-137050000D01*
X208525000Y-135550000D02*
X209825000Y-135550000D01*
D15*
%TO.C,U18*%
X211490000Y-175160000D02*
X211490000Y-166440000D01*
X212790000Y-176860000D02*
X211490000Y-175160000D01*
X215610000Y-176860000D02*
X216910000Y-175160000D01*
X216910000Y-175160000D02*
X216910000Y-166440000D01*
X211490000Y-166440000D02*
X216910000Y-166440000D01*
X212790000Y-176860000D02*
X215610000Y-176860000D01*
D11*
%TO.C,R4*%
X173100000Y-151000000D02*
X172000000Y-151000000D01*
X172000000Y-149900000D02*
X173100000Y-149900000D01*
%TO.C,R20*%
X170050000Y-145350000D02*
X170050000Y-144250000D01*
X171150000Y-144250000D02*
X171150000Y-145350000D01*
D15*
%TO.C,J12*%
X344975000Y-179295000D02*
X325825000Y-179295000D01*
X325825000Y-179295000D02*
X325825000Y-158255000D01*
X325825000Y-158255000D02*
X344975000Y-158255000D01*
X344975000Y-158255000D02*
X344975000Y-179295000D01*
D16*
%TO.C,U1*%
X179950000Y-138760039D02*
X179950000Y-133360039D01*
X166950000Y-133360039D02*
X170250000Y-133360039D01*
X179950000Y-133360039D02*
X176650000Y-133360039D01*
X166950000Y-138760039D02*
X166950000Y-133360039D01*
X176650000Y-138760039D02*
X179950000Y-138760039D01*
X170250000Y-138760039D02*
X166950000Y-138760039D01*
D15*
X177035078Y-132810039D02*
G75*
G03*
X177035078Y-132810039I-160078J0D01*
G01*
D11*
%TO.C,R32*%
X228470000Y-155835000D02*
X227370000Y-155835000D01*
X227370000Y-154735000D02*
X228470000Y-154735000D01*
%TO.C,R54*%
X195275000Y-112850000D02*
X195275000Y-113950000D01*
X194175000Y-113950000D02*
X194175000Y-112850000D01*
%TO.C,R27*%
X189775000Y-115725000D02*
X191075000Y-115725000D01*
X191075000Y-117225000D02*
X189775000Y-117225000D01*
%TO.C,R15*%
X200400000Y-140100000D02*
X201500000Y-140100000D01*
X201500000Y-141200000D02*
X200400000Y-141200000D01*
%TO.C,R26*%
X189750000Y-118575000D02*
X190850000Y-118575000D01*
X190850000Y-119675000D02*
X189750000Y-119675000D01*
%TO.C,R61*%
X226600000Y-116250000D02*
X225500000Y-116250000D01*
X225500000Y-115150000D02*
X226600000Y-115150000D01*
D15*
%TO.C,U10*%
X242375000Y-151780000D02*
X240875000Y-151780000D01*
X240875000Y-160370000D02*
X239775000Y-160370000D01*
X242375000Y-162180000D02*
X240875000Y-162180000D01*
X240875000Y-153590000D02*
X235750000Y-153590000D01*
X240875000Y-151780000D02*
X240875000Y-153590000D01*
X240875000Y-162180000D02*
X240875000Y-160370000D01*
D11*
%TO.C,C27*%
X235875000Y-115900000D02*
X234775000Y-115900000D01*
X234775000Y-114800000D02*
X235875000Y-114800000D01*
%TO.C,C4*%
X186600000Y-177200000D02*
X187700000Y-177200000D01*
X187700000Y-178300000D02*
X186600000Y-178300000D01*
D17*
%TO.C,U3*%
X187050000Y-114675000D02*
X187450000Y-114675000D01*
X187450000Y-119475000D02*
X186450000Y-119475000D01*
X181050000Y-119475000D02*
X182050000Y-119475000D01*
D11*
X182650000Y-120725000D02*
X182650000Y-120725000D01*
D17*
X181050000Y-117725000D02*
X181050000Y-119475000D01*
X187450000Y-117725000D02*
X187450000Y-119475000D01*
X181050000Y-116525000D02*
X181050000Y-114675000D01*
X181050000Y-114675000D02*
X181450000Y-114675000D01*
X187450000Y-114675000D02*
X187450000Y-116525000D01*
D11*
X182650000Y-120825000D02*
X182650000Y-120825000D01*
X182650000Y-120725000D02*
G75*
G03*
X182650000Y-120825000I0J-50000D01*
G01*
X182650000Y-120825000D02*
G75*
G03*
X182650000Y-120725000I0J50000D01*
G01*
%TO.C,R3*%
X168600000Y-152425000D02*
X168600000Y-153525000D01*
X167500000Y-153525000D02*
X167500000Y-152425000D01*
%TO.C,R35*%
X215225000Y-154750000D02*
X216325000Y-154750000D01*
X216325000Y-155850000D02*
X215225000Y-155850000D01*
%TO.C,R31*%
X210975000Y-157650000D02*
X209875000Y-157650000D01*
X209875000Y-156550000D02*
X210975000Y-156550000D01*
D15*
%TO.C,C10*%
X201250000Y-128340000D02*
G75*
G03*
X201250000Y-128340000I-5500000J0D01*
G01*
X196041548Y-123600000D02*
G75*
G03*
X196041548Y-123600000I-291548J0D01*
G01*
D13*
%TO.C,SW1*%
X173315000Y-148985000D02*
X176535000Y-148985000D01*
X176535000Y-148985000D02*
X176535000Y-143765000D01*
X176535000Y-143765000D02*
X173315000Y-143765000D01*
X173315000Y-143765000D02*
X173315000Y-148985000D01*
D16*
%TO.C,U16*%
X165540000Y-101610000D02*
X151890000Y-101610000D01*
X151890000Y-122410000D02*
X165540000Y-122410000D01*
X172850000Y-116960000D02*
X172850000Y-117960000D01*
X172410000Y-106660000D02*
X173410000Y-106660000D01*
X178990000Y-109410000D02*
X178990000Y-114610000D01*
X168290000Y-122410000D02*
X178990000Y-122410000D01*
X178990000Y-101610000D02*
X168290000Y-101610000D01*
X151890000Y-101610000D02*
X151890000Y-122410000D01*
X178990000Y-122410000D02*
X178990000Y-120260000D01*
X178990000Y-103760000D02*
X178990000Y-101610000D01*
X172910000Y-107160000D02*
X172910000Y-106160000D01*
D11*
%TO.C,R46*%
X216800000Y-116600000D02*
X217900000Y-116600000D01*
X217900000Y-117700000D02*
X216800000Y-117700000D01*
%TO.C,R48*%
X226770000Y-145660000D02*
X226770000Y-146760000D01*
X225670000Y-146760000D02*
X225670000Y-145660000D01*
%TO.C,C7*%
X183700000Y-121600000D02*
X184800000Y-121600000D01*
X184800000Y-122700000D02*
X183700000Y-122700000D01*
%TO.C,R50*%
X174700000Y-126750000D02*
X173600000Y-126750000D01*
X173600000Y-125650000D02*
X174700000Y-125650000D01*
%TO.C,R37*%
X206075000Y-155748250D02*
X204975000Y-155748250D01*
X204975000Y-154648250D02*
X206075000Y-154648250D01*
%TO.C,C26*%
X244875000Y-116000000D02*
X243775000Y-116000000D01*
X243775000Y-114900000D02*
X244875000Y-114900000D01*
%TO.C,R64*%
X198150000Y-113925000D02*
X198150000Y-112825000D01*
X199250000Y-112825000D02*
X199250000Y-113925000D01*
%TO.C,C24*%
X241400000Y-134150000D02*
X241400000Y-132850000D01*
X242900000Y-132850000D02*
X242900000Y-134150000D01*
%TO.C,R65*%
X196150000Y-102750000D02*
X196150000Y-101650000D01*
X197250000Y-101650000D02*
X197250000Y-102750000D01*
%TO.C,R56*%
X188250000Y-102800000D02*
X188250000Y-101700000D01*
X189350000Y-101700000D02*
X189350000Y-102800000D01*
D15*
%TO.C,J13*%
X274175000Y-179395000D02*
X255025000Y-179395000D01*
X255025000Y-179395000D02*
X255025000Y-158355000D01*
X255025000Y-158355000D02*
X274175000Y-158355000D01*
X274175000Y-158355000D02*
X274175000Y-179395000D01*
D16*
%TO.C,Q15*%
X199325000Y-111550000D02*
X199325000Y-108250000D01*
X196025000Y-111550000D02*
X196025000Y-108250000D01*
D17*
X196375000Y-112250000D02*
G75*
G03*
X196375000Y-112250000I-100000J0D01*
G01*
D11*
%TO.C,R8*%
X189700000Y-175850000D02*
X191000000Y-175850000D01*
X191000000Y-177350000D02*
X189700000Y-177350000D01*
%TO.C,R21*%
X192525000Y-168725000D02*
X192525000Y-169825000D01*
X191425000Y-169825000D02*
X191425000Y-168725000D01*
%TO.C,R29*%
X229470000Y-156385000D02*
X230570000Y-156385000D01*
X230570000Y-157485000D02*
X229470000Y-157485000D01*
D18*
%TO.C,IC2*%
X168050000Y-149900000D02*
G75*
G03*
X168050000Y-149900000I-125000J0D01*
G01*
D15*
%TO.C,C9*%
X281800000Y-130200000D02*
G75*
G03*
X281800000Y-130200000I-5500000J0D01*
G01*
X276591548Y-125460000D02*
G75*
G03*
X276591548Y-125460000I-291548J0D01*
G01*
D11*
%TO.C,R14*%
X189175000Y-158625000D02*
X189175000Y-157525000D01*
X190275000Y-157525000D02*
X190275000Y-158625000D01*
D15*
%TO.C,U11*%
X240700000Y-129800000D02*
X238890000Y-129800000D01*
X230300000Y-129800000D02*
X232110000Y-129800000D01*
X240700000Y-128300000D02*
X240700000Y-129800000D01*
X230300000Y-128300000D02*
X230300000Y-129800000D01*
X238890000Y-129800000D02*
X238890000Y-130900000D01*
X232110000Y-129800000D02*
X232110000Y-134925000D01*
%TO.C,J15*%
X321515000Y-179350000D02*
X302365000Y-179350000D01*
X302365000Y-179350000D02*
X302365000Y-158310000D01*
X302365000Y-158310000D02*
X321515000Y-158310000D01*
X321515000Y-158310000D02*
X321515000Y-179350000D01*
%TO.C,Q2*%
X195480000Y-173890000D02*
X194550000Y-173890000D01*
X192320000Y-173890000D02*
X193250000Y-173890000D01*
X195480000Y-173890000D02*
X195480000Y-175350000D01*
X192320000Y-173890000D02*
X192320000Y-176050000D01*
D16*
%TO.C,Q12*%
X192050000Y-104062500D02*
X192050000Y-107362500D01*
X195350000Y-104062500D02*
X195350000Y-107362500D01*
D17*
X195200000Y-103362500D02*
G75*
G03*
X195200000Y-103362500I-100000J0D01*
G01*
D15*
%TO.C,U13*%
X227087828Y-146743752D02*
X227087828Y-148656248D01*
X229450028Y-148656248D02*
X229450028Y-146743752D01*
X229120528Y-145299801D02*
G75*
G03*
X229120528Y-145299801I-101600J0D01*
G01*
D11*
%TO.C,C17*%
X204800000Y-148225000D02*
X204800000Y-146925000D01*
X206300000Y-146925000D02*
X206300000Y-148225000D01*
%TO.C,C1*%
X166975000Y-152925000D02*
X166975000Y-154025000D01*
X165875000Y-154025000D02*
X165875000Y-152925000D01*
D15*
%TO.C,IC1*%
X160325000Y-151415000D02*
X162275000Y-151415000D01*
X160325000Y-156535000D02*
X158375000Y-156535000D01*
X160325000Y-151415000D02*
X158375000Y-151415000D01*
X160325000Y-156535000D02*
X163775000Y-156535000D01*
D11*
%TO.C,R43*%
X219330000Y-163390000D02*
X219330000Y-164490000D01*
X218230000Y-164490000D02*
X218230000Y-163390000D01*
%TO.C,C15*%
X215975000Y-161450000D02*
X214875000Y-161450000D01*
X214875000Y-160350000D02*
X215975000Y-160350000D01*
%TO.C,C13*%
X210625000Y-158800000D02*
X210625000Y-160100000D01*
X209125000Y-160100000D02*
X209125000Y-158800000D01*
%TO.C,R42*%
X216830000Y-164490000D02*
X216830000Y-163390000D01*
X217930000Y-163390000D02*
X217930000Y-164490000D01*
%TO.C,R23*%
X194400000Y-122225000D02*
X193300000Y-122225000D01*
X193300000Y-121125000D02*
X194400000Y-121125000D01*
%TO.C,R13*%
X194250000Y-157550000D02*
X194250000Y-158650000D01*
X193150000Y-158650000D02*
X193150000Y-157550000D01*
%TO.C,C35*%
X176925000Y-147700000D02*
X176925000Y-146600000D01*
X178025000Y-146600000D02*
X178025000Y-147700000D01*
%TO.C,R47*%
X216800000Y-115200000D02*
X217900000Y-115200000D01*
X217900000Y-116300000D02*
X216800000Y-116300000D01*
D15*
%TO.C,C6*%
X276466548Y-145360000D02*
G75*
G03*
X276466548Y-145360000I-291548J0D01*
G01*
X281675000Y-150100000D02*
G75*
G03*
X281675000Y-150100000I-5500000J0D01*
G01*
D16*
%TO.C,Q3*%
X196325000Y-159937500D02*
X196325000Y-163237500D01*
X193025000Y-159937500D02*
X193025000Y-163237500D01*
D17*
X196175000Y-159237500D02*
G75*
G03*
X196175000Y-159237500I-100000J0D01*
G01*
D16*
%TO.C,U4*%
X222970000Y-156485000D02*
X222970000Y-159685000D01*
X227370000Y-159685000D02*
X227970000Y-159685000D01*
X227370000Y-156485000D02*
X227970000Y-156485000D01*
X227085000Y-155935000D02*
G75*
G03*
X227085000Y-155935000I-65000J0D01*
G01*
D11*
%TO.C,C21*%
X203975000Y-118375000D02*
X202875000Y-118375000D01*
X202875000Y-117275000D02*
X203975000Y-117275000D01*
D15*
%TO.C,U24*%
X238110000Y-105140000D02*
X238110000Y-113860000D01*
X232690000Y-105140000D02*
X232690000Y-113860000D01*
X238110000Y-113860000D02*
X232690000Y-113860000D01*
X236810000Y-103440000D02*
X233990000Y-103440000D01*
X233990000Y-103440000D02*
X232690000Y-105140000D01*
X236810000Y-103440000D02*
X238110000Y-105140000D01*
D11*
%TO.C,D10*%
X214650000Y-116300000D02*
X213550000Y-116300000D01*
X213550000Y-115200000D02*
X214650000Y-115200000D01*
D15*
%TO.C,Q8*%
X178110000Y-128780000D02*
X178110000Y-127850000D01*
X178110000Y-125620000D02*
X178110000Y-126550000D01*
X178110000Y-125620000D02*
X175950000Y-125620000D01*
X178110000Y-128780000D02*
X176650000Y-128780000D01*
D11*
%TO.C,R36*%
X207875000Y-154648250D02*
X208975000Y-154648250D01*
X208975000Y-155748250D02*
X207875000Y-155748250D01*
%TO.C,R62*%
X197150000Y-158675000D02*
X197150000Y-157575000D01*
X198250000Y-157575000D02*
X198250000Y-158675000D01*
%TO.C,D6*%
X205945000Y-165480000D02*
X204845000Y-165480000D01*
X204845000Y-164380000D02*
X205945000Y-164380000D01*
D15*
%TO.C,U25*%
X241690000Y-105140000D02*
X241690000Y-113860000D01*
X247110000Y-105140000D02*
X247110000Y-113860000D01*
X245810000Y-103440000D02*
X247110000Y-105140000D01*
X242990000Y-103440000D02*
X241690000Y-105140000D01*
X247110000Y-113860000D02*
X241690000Y-113860000D01*
X245810000Y-103440000D02*
X242990000Y-103440000D01*
%TO.C,D1*%
X177300000Y-153550000D02*
X173450000Y-153550000D01*
X177300000Y-153550000D02*
X177300000Y-151550000D01*
X177300000Y-151550000D02*
X173450000Y-151550000D01*
D11*
%TO.C,R11*%
X189875000Y-171250000D02*
X191175000Y-171250000D01*
X191175000Y-172750000D02*
X189875000Y-172750000D01*
%TO.C,D3*%
X184850000Y-161350000D02*
X183750000Y-161350000D01*
X183750000Y-160250000D02*
X184850000Y-160250000D01*
%TO.C,C16*%
X206530000Y-161430000D02*
X205430000Y-161430000D01*
X205430000Y-160330000D02*
X206530000Y-160330000D01*
%TO.C,R2*%
X169275000Y-156425000D02*
X168175000Y-156425000D01*
X168175000Y-155325000D02*
X169275000Y-155325000D01*
%TO.C,R40*%
X225600000Y-164640000D02*
X225600000Y-163540000D01*
X226700000Y-163540000D02*
X226700000Y-164640000D01*
D16*
%TO.C,U6*%
X203375000Y-156500000D02*
X203375000Y-159700000D01*
X207775000Y-156500000D02*
X208375000Y-156500000D01*
X207775000Y-159700000D02*
X208375000Y-159700000D01*
X207490000Y-155950000D02*
G75*
G03*
X207490000Y-155950000I-65000J0D01*
G01*
D11*
%TO.C,C36*%
X178425000Y-147700000D02*
X178425000Y-146600000D01*
X179525000Y-146600000D02*
X179525000Y-147700000D01*
%TO.C,R17*%
X172825000Y-147200000D02*
X172825000Y-148300000D01*
X171725000Y-148300000D02*
X171725000Y-147200000D01*
%TO.C,R52*%
X182700000Y-126750000D02*
X182700000Y-128050000D01*
X181200000Y-128050000D02*
X181200000Y-126750000D01*
D10*
%TO.C,J7*%
X153522400Y-134859800D02*
X153522400Y-125944400D01*
X151414200Y-136968000D02*
X152125400Y-134859800D01*
X150920000Y-124200000D02*
X151980000Y-124200000D01*
X150910000Y-125940000D02*
X150910000Y-124200000D01*
X165714400Y-124217200D02*
X165714400Y-125487200D01*
X154690800Y-138517400D02*
X163479200Y-138517400D01*
X151033200Y-138517400D02*
X151033200Y-137069600D01*
X152100000Y-138517400D02*
X151033200Y-138517400D01*
X165028600Y-124217200D02*
X165714400Y-124217200D01*
X154436800Y-124217200D02*
X154716200Y-124217200D01*
X165790600Y-134936000D02*
X165790600Y-137755400D01*
X165765200Y-127189000D02*
X165765200Y-133259600D01*
X151033200Y-137069600D02*
X151414200Y-136968000D01*
X156189400Y-124217200D02*
X163631600Y-124217200D01*
X152125400Y-134859800D02*
X153497000Y-134859800D01*
X153522400Y-125944400D02*
X150906200Y-125944400D01*
D11*
%TO.C,D7*%
X223700000Y-165490000D02*
X222600000Y-165490000D01*
X222600000Y-164390000D02*
X223700000Y-164390000D01*
D15*
%TO.C,U14*%
X157043752Y-141931100D02*
X158956248Y-141931100D01*
X158956248Y-139568900D02*
X157043752Y-139568900D01*
X155701401Y-140000000D02*
G75*
G03*
X155701401Y-140000000I-101600J0D01*
G01*
D16*
%TO.C,Q4*%
X192375000Y-159937500D02*
X192375000Y-163237500D01*
X189075000Y-159937500D02*
X189075000Y-163237500D01*
D17*
X192225000Y-159237500D02*
G75*
G03*
X192225000Y-159237500I-100000J0D01*
G01*
D11*
%TO.C,D11*%
X222550000Y-115150000D02*
X223650000Y-115150000D01*
X223650000Y-116250000D02*
X222550000Y-116250000D01*
D16*
%TO.C,Q6*%
X196325000Y-167402500D02*
X196325000Y-164102500D01*
X193025000Y-167402500D02*
X193025000Y-164102500D01*
D17*
X193375000Y-168102500D02*
G75*
G03*
X193375000Y-168102500I-100000J0D01*
G01*
D15*
%TO.C,J9*%
X278900000Y-101255000D02*
X298050000Y-101255000D01*
X298050000Y-101255000D02*
X298050000Y-122295000D01*
X298050000Y-122295000D02*
X278900000Y-122295000D01*
X278900000Y-122295000D02*
X278900000Y-101255000D01*
D11*
%TO.C,C30*%
X161450000Y-140200000D02*
X161450000Y-141300000D01*
X160350000Y-141300000D02*
X160350000Y-140200000D01*
%TO.C,R22*%
X196500000Y-168725000D02*
X196500000Y-169825000D01*
X195400000Y-169825000D02*
X195400000Y-168725000D01*
%TO.C,C23*%
X235325000Y-157830000D02*
X235325000Y-159130000D01*
X233825000Y-159130000D02*
X233825000Y-157830000D01*
%TO.C,R24*%
X180800000Y-121612500D02*
X181900000Y-121612500D01*
X181900000Y-122712500D02*
X180800000Y-122712500D01*
%TO.C,R53*%
X155250000Y-140300000D02*
X155250000Y-141400000D01*
X154150000Y-141400000D02*
X154150000Y-140300000D01*
%TO.C,D5*%
X200400000Y-138650000D02*
X201500000Y-138650000D01*
X201500000Y-139750000D02*
X200400000Y-139750000D01*
D15*
%TO.C,J8*%
X255025000Y-101305000D02*
X274175000Y-101305000D01*
X274175000Y-101305000D02*
X274175000Y-122345000D01*
X274175000Y-122345000D02*
X255025000Y-122345000D01*
X255025000Y-122345000D02*
X255025000Y-101305000D01*
D11*
%TO.C,R30*%
X220225000Y-156550000D02*
X221325000Y-156550000D01*
X221325000Y-157650000D02*
X220225000Y-157650000D01*
D16*
%TO.C,U15*%
X151950000Y-157550000D02*
X151950000Y-178350000D01*
X179050000Y-178350000D02*
X179050000Y-176200000D01*
X168350000Y-178350000D02*
X179050000Y-178350000D01*
X165600000Y-157550000D02*
X151950000Y-157550000D01*
X172910000Y-172900000D02*
X172910000Y-173900000D01*
X151950000Y-178350000D02*
X165600000Y-178350000D01*
X179050000Y-157550000D02*
X168350000Y-157550000D01*
X179050000Y-165350000D02*
X179050000Y-170550000D01*
X172970000Y-163100000D02*
X172970000Y-162100000D01*
X172470000Y-162600000D02*
X173470000Y-162600000D01*
X179050000Y-159700000D02*
X179050000Y-157550000D01*
D11*
%TO.C,R49*%
X173600000Y-127650000D02*
X174700000Y-127650000D01*
X174700000Y-128750000D02*
X173600000Y-128750000D01*
%TO.C,C8*%
X187700000Y-122700000D02*
X186600000Y-122700000D01*
X186600000Y-121600000D02*
X187700000Y-121600000D01*
%TO.C,C3*%
X184800000Y-178300000D02*
X183700000Y-178300000D01*
X183700000Y-177200000D02*
X184800000Y-177200000D01*
%TO.C,C12*%
X220975000Y-158800000D02*
X220975000Y-160100000D01*
X219475000Y-160100000D02*
X219475000Y-158800000D01*
%TO.C,R34*%
X219225000Y-155848250D02*
X218125000Y-155848250D01*
X218125000Y-154748250D02*
X219225000Y-154748250D01*
%TO.C,D4*%
X183800000Y-104300000D02*
X184900000Y-104300000D01*
X184900000Y-105400000D02*
X183800000Y-105400000D01*
D15*
%TO.C,U19*%
X203790000Y-176860000D02*
X206610000Y-176860000D01*
X202490000Y-175160000D02*
X202490000Y-166440000D01*
X206610000Y-176860000D02*
X207910000Y-175160000D01*
X203790000Y-176860000D02*
X202490000Y-175160000D01*
X202490000Y-166440000D02*
X207910000Y-166440000D01*
X207910000Y-175160000D02*
X207910000Y-166440000D01*
%TO.C,U21*%
X212790000Y-103440000D02*
X211490000Y-105140000D01*
X216910000Y-105140000D02*
X216910000Y-113860000D01*
X215610000Y-103440000D02*
X212790000Y-103440000D01*
X211490000Y-105140000D02*
X211490000Y-113860000D01*
X216910000Y-113860000D02*
X211490000Y-113860000D01*
X215610000Y-103440000D02*
X216910000Y-105140000D01*
%TO.C,SP1*%
X195750000Y-139350000D02*
G75*
G03*
X195750000Y-139350000I-7200000J0D01*
G01*
D11*
%TO.C,R33*%
X224420000Y-154735000D02*
X225520000Y-154735000D01*
X225520000Y-155835000D02*
X224420000Y-155835000D01*
%TO.C,R38*%
X223450000Y-162790000D02*
X224550000Y-162790000D01*
X224550000Y-163890000D02*
X223450000Y-163890000D01*
%TO.C,J2*%
X151000000Y-153200000D02*
X151000000Y-143200000D01*
X153750000Y-143700000D02*
X156250000Y-143700000D01*
X156250000Y-143700000D02*
X156250000Y-152700000D01*
X153750000Y-143200000D02*
X153750000Y-143700000D01*
X153750000Y-152700000D02*
X153750000Y-153200000D01*
X151000000Y-143200000D02*
X153750000Y-143200000D01*
X153750000Y-153200000D02*
X151000000Y-153200000D01*
X156250000Y-152700000D02*
X153750000Y-152700000D01*
D15*
%TO.C,U34*%
X177640000Y-152450000D02*
X177640000Y-154400000D01*
X182760000Y-152450000D02*
X182760000Y-154400000D01*
X177640000Y-152450000D02*
X177640000Y-150500000D01*
X182760000Y-152450000D02*
X182760000Y-149000000D01*
D11*
%TO.C,R41*%
X214705000Y-162640000D02*
X215805000Y-162640000D01*
X215805000Y-163740000D02*
X214705000Y-163740000D01*
D16*
%TO.C,U5*%
X218125000Y-156498250D02*
X218725000Y-156498250D01*
X213725000Y-156498250D02*
X213725000Y-159698250D01*
X218125000Y-159698250D02*
X218725000Y-159698250D01*
X217840000Y-155948250D02*
G75*
G03*
X217840000Y-155948250I-65000J0D01*
G01*
D11*
%TO.C,D8*%
X214780000Y-165490000D02*
X213680000Y-165490000D01*
X213680000Y-164390000D02*
X214780000Y-164390000D01*
%TO.C,R6*%
X194500000Y-177650000D02*
X193400000Y-177650000D01*
X193400000Y-176550000D02*
X194500000Y-176550000D01*
D16*
%TO.C,Q16*%
X199325000Y-104062500D02*
X199325000Y-107362500D01*
X196025000Y-104062500D02*
X196025000Y-107362500D01*
D17*
X199175000Y-103362500D02*
G75*
G03*
X199175000Y-103362500I-100000J0D01*
G01*
D16*
%TO.C,Q9*%
X195350000Y-111537500D02*
X195350000Y-108237500D01*
X192050000Y-111537500D02*
X192050000Y-108237500D01*
D17*
X192400000Y-112237500D02*
G75*
G03*
X192400000Y-112237500I-100000J0D01*
G01*
D11*
%TO.C,R9*%
X181900000Y-105200000D02*
X181900000Y-106300000D01*
X180800000Y-106300000D02*
X180800000Y-105200000D01*
D15*
%TO.C,U8*%
X212875000Y-129850000D02*
X211065000Y-129850000D01*
X204285000Y-129850000D02*
X204285000Y-134975000D01*
X211065000Y-129850000D02*
X211065000Y-130950000D01*
X212875000Y-128350000D02*
X212875000Y-129850000D01*
X202475000Y-129850000D02*
X204285000Y-129850000D01*
X202475000Y-128350000D02*
X202475000Y-129850000D01*
D11*
%TO.C,R58*%
X210345000Y-163530000D02*
X210345000Y-164630000D01*
X209245000Y-164630000D02*
X209245000Y-163530000D01*
%TO.C,C31*%
X168925000Y-148275000D02*
X168925000Y-147175000D01*
X170025000Y-147175000D02*
X170025000Y-148275000D01*
D15*
%TO.C,J14*%
X297994169Y-179250000D02*
X278844169Y-179250000D01*
X278844169Y-179250000D02*
X278844169Y-158210000D01*
X278844169Y-158210000D02*
X297994169Y-158210000D01*
X297994169Y-158210000D02*
X297994169Y-179250000D01*
D16*
%TO.C,Q11*%
X188100000Y-104075000D02*
X188100000Y-107375000D01*
X191400000Y-104075000D02*
X191400000Y-107375000D01*
D17*
X191250000Y-103375000D02*
G75*
G03*
X191250000Y-103375000I-100000J0D01*
G01*
D11*
%TO.C,R16*%
X205695000Y-162680000D02*
X206795000Y-162680000D01*
X206795000Y-163780000D02*
X205695000Y-163780000D01*
D15*
%TO.C,J11*%
X325730831Y-100850000D02*
X344880831Y-100850000D01*
X344880831Y-100850000D02*
X344880831Y-121890000D01*
X344880831Y-121890000D02*
X325730831Y-121890000D01*
X325730831Y-121890000D02*
X325730831Y-100850000D01*
D16*
%TO.C,Q5*%
X192375000Y-167415000D02*
X192375000Y-164115000D01*
X189075000Y-167415000D02*
X189075000Y-164115000D01*
D17*
X189425000Y-168115000D02*
G75*
G03*
X189425000Y-168115000I-100000J0D01*
G01*
D11*
%TO.C,R39*%
X228100000Y-163540000D02*
X228100000Y-164640000D01*
X227000000Y-164640000D02*
X227000000Y-163540000D01*
%TO.C,R5*%
X181950000Y-161150000D02*
X181950000Y-162250000D01*
X180850000Y-162250000D02*
X180850000Y-161150000D01*
D15*
%TO.C,U9*%
X216350000Y-128400000D02*
X216350000Y-129900000D01*
X226750000Y-128400000D02*
X226750000Y-129900000D01*
X218160000Y-129900000D02*
X218160000Y-135025000D01*
X224940000Y-129900000D02*
X224940000Y-131000000D01*
X216350000Y-129900000D02*
X218160000Y-129900000D01*
X226750000Y-129900000D02*
X224940000Y-129900000D01*
D11*
%TO.C,C11*%
X228720000Y-159935000D02*
X228720000Y-158635000D01*
X230220000Y-158635000D02*
X230220000Y-159935000D01*
D15*
%TO.C,D12*%
X181925000Y-148600000D02*
X181925000Y-144750000D01*
X179925000Y-148600000D02*
X179925000Y-144750000D01*
X179925000Y-148600000D02*
X181925000Y-148600000D01*
%TD*%
M02*
