%TF.GenerationSoftware,KiCad,Pcbnew,(6.0.10-0)*%
%TF.CreationDate,2023-02-23T20:38:24-08:00*%
%TF.ProjectId,1.0,312e302e-6b69-4636-9164-5f7063625858,rev?*%
%TF.SameCoordinates,Original*%
%TF.FileFunction,Paste,Top*%
%TF.FilePolarity,Positive*%
%FSLAX46Y46*%
G04 Gerber Fmt 4.6, Leading zero omitted, Abs format (unit mm)*
G04 Created by KiCad (PCBNEW (6.0.10-0)) date 2023-02-23 20:38:24*
%MOMM*%
%LPD*%
G01*
G04 APERTURE LIST*
G04 Aperture macros list*
%AMRoundRect*
0 Rectangle with rounded corners*
0 $1 Rounding radius*
0 $2 $3 $4 $5 $6 $7 $8 $9 X,Y pos of 4 corners*
0 Add a 4 corners polygon primitive as box body*
4,1,4,$2,$3,$4,$5,$6,$7,$8,$9,$2,$3,0*
0 Add four circle primitives for the rounded corners*
1,1,$1+$1,$2,$3*
1,1,$1+$1,$4,$5*
1,1,$1+$1,$6,$7*
1,1,$1+$1,$8,$9*
0 Add four rect primitives between the rounded corners*
20,1,$1+$1,$2,$3,$4,$5,0*
20,1,$1+$1,$4,$5,$6,$7,0*
20,1,$1+$1,$6,$7,$8,$9,0*
20,1,$1+$1,$8,$9,$2,$3,0*%
G04 Aperture macros list end*
%ADD10C,0.010000*%
%ADD11R,0.800000X0.600000*%
%ADD12RoundRect,0.150000X-0.250000X0.150000X-0.250000X-0.150000X0.250000X-0.150000X0.250000X0.150000X0*%
%ADD13R,0.600000X0.800000*%
%ADD14R,1.200000X0.700000*%
%ADD15R,1.100000X1.100000*%
%ADD16RoundRect,0.150000X0.150000X0.250000X-0.150000X0.250000X-0.150000X-0.250000X0.150000X-0.250000X0*%
%ADD17R,0.700000X1.200000*%
%ADD18RoundRect,0.175000X0.175000X0.425000X-0.175000X0.425000X-0.175000X-0.425000X0.175000X-0.425000X0*%
%ADD19R,1.800000X1.200000*%
%ADD20R,1.550000X0.600000*%
%ADD21RoundRect,0.175000X0.425000X-0.175000X0.425000X0.175000X-0.425000X0.175000X-0.425000X-0.175000X0*%
%ADD22R,0.900000X0.800000*%
%ADD23R,4.600000X1.100000*%
%ADD24R,4.550000X5.250000*%
%ADD25R,0.500000X1.600000*%
%ADD26R,0.900000X0.600000*%
%ADD27R,1.800000X1.700000*%
%ADD28RoundRect,0.150000X-0.150000X-0.250000X0.150000X-0.250000X0.150000X0.250000X-0.150000X0.250000X0*%
%ADD29R,0.800000X0.900000*%
%ADD30RoundRect,0.150000X0.250000X-0.150000X0.250000X0.150000X-0.250000X0.150000X-0.250000X-0.150000X0*%
%ADD31R,0.760000X2.600000*%
%ADD32R,1.000000X0.900000*%
%ADD33R,0.550000X1.700000*%
%ADD34R,1.000000X1.000000*%
%ADD35R,0.850000X0.300000*%
%ADD36R,0.300000X0.850000*%
%ADD37R,5.250000X5.250000*%
%ADD38R,1.100000X4.600000*%
%ADD39R,5.250000X4.550000*%
%ADD40R,0.254800X0.757199*%
%ADD41R,1.600200X1.600200*%
%ADD42RoundRect,0.150000X0.825000X0.150000X-0.825000X0.150000X-0.825000X-0.150000X0.825000X-0.150000X0*%
%ADD43RoundRect,0.175000X-0.425000X0.175000X-0.425000X-0.175000X0.425000X-0.175000X0.425000X0.175000X0*%
%ADD44R,0.250000X0.800000*%
%ADD45R,0.250000X1.100000*%
%ADD46R,0.250000X0.700000*%
%ADD47R,0.700000X0.250000*%
%ADD48R,1.100000X0.250000*%
%ADD49R,1.950000X0.600000*%
%ADD50R,2.500000X0.950000*%
%ADD51R,1.150000X1.500000*%
%ADD52R,2.200000X1.150000*%
%ADD53R,1.240000X0.800000*%
%ADD54R,1.250000X1.250000*%
%ADD55R,1.200000X1.200000*%
%ADD56R,0.757199X0.254800*%
%ADD57R,1.900000X1.800000*%
%ADD58R,1.900000X1.900000*%
%ADD59R,1.600000X2.100000*%
%ADD60R,1.300000X0.400000*%
%ADD61RoundRect,0.150000X-0.150000X0.825000X-0.150000X-0.825000X0.150000X-0.825000X0.150000X0.825000X0*%
G04 APERTURE END LIST*
%TO.C,Q10*%
G36*
X188945000Y-111547500D02*
G01*
X188605000Y-111547500D01*
X188605000Y-111097500D01*
X188945000Y-111097500D01*
X188945000Y-111547500D01*
G37*
D10*
X188945000Y-111547500D02*
X188605000Y-111547500D01*
X188605000Y-111097500D01*
X188945000Y-111097500D01*
X188945000Y-111547500D01*
G36*
X189595000Y-108677500D02*
G01*
X189255000Y-108677500D01*
X189255000Y-108227500D01*
X189595000Y-108227500D01*
X189595000Y-108677500D01*
G37*
X189595000Y-108677500D02*
X189255000Y-108677500D01*
X189255000Y-108227500D01*
X189595000Y-108227500D01*
X189595000Y-108677500D01*
G36*
X188945000Y-108677500D02*
G01*
X188605000Y-108677500D01*
X188605000Y-108227500D01*
X188945000Y-108227500D01*
X188945000Y-108677500D01*
G37*
X188945000Y-108677500D02*
X188605000Y-108677500D01*
X188605000Y-108227500D01*
X188945000Y-108227500D01*
X188945000Y-108677500D01*
G36*
X189595000Y-111547500D02*
G01*
X189255000Y-111547500D01*
X189255000Y-111097500D01*
X189595000Y-111097500D01*
X189595000Y-111547500D01*
G37*
X189595000Y-111547500D02*
X189255000Y-111547500D01*
X189255000Y-111097500D01*
X189595000Y-111097500D01*
X189595000Y-111547500D01*
G36*
X189625000Y-110347500D02*
G01*
X188605000Y-110347500D01*
X188605000Y-108902500D01*
X189625000Y-108902500D01*
X189625000Y-110347500D01*
G37*
X189625000Y-110347500D02*
X188605000Y-110347500D01*
X188605000Y-108902500D01*
X189625000Y-108902500D01*
X189625000Y-110347500D01*
G36*
X190895000Y-111547500D02*
G01*
X190555000Y-111547500D01*
X190555000Y-111097500D01*
X190895000Y-111097500D01*
X190895000Y-111547500D01*
G37*
X190895000Y-111547500D02*
X190555000Y-111547500D01*
X190555000Y-111097500D01*
X190895000Y-111097500D01*
X190895000Y-111547500D01*
G36*
X190245000Y-111547500D02*
G01*
X189905000Y-111547500D01*
X189905000Y-111097500D01*
X190245000Y-111097500D01*
X190245000Y-111547500D01*
G37*
X190245000Y-111547500D02*
X189905000Y-111547500D01*
X189905000Y-111097500D01*
X190245000Y-111097500D01*
X190245000Y-111547500D01*
G36*
X190895000Y-110347500D02*
G01*
X189875000Y-110347500D01*
X189875000Y-108902500D01*
X190895000Y-108902500D01*
X190895000Y-110347500D01*
G37*
X190895000Y-110347500D02*
X189875000Y-110347500D01*
X189875000Y-108902500D01*
X190895000Y-108902500D01*
X190895000Y-110347500D01*
G36*
X190895000Y-108677500D02*
G01*
X190555000Y-108677500D01*
X190555000Y-108227500D01*
X190895000Y-108227500D01*
X190895000Y-108677500D01*
G37*
X190895000Y-108677500D02*
X190555000Y-108677500D01*
X190555000Y-108227500D01*
X190895000Y-108227500D01*
X190895000Y-108677500D01*
G36*
X190245000Y-108677500D02*
G01*
X189905000Y-108677500D01*
X189905000Y-108227500D01*
X190245000Y-108227500D01*
X190245000Y-108677500D01*
G37*
X190245000Y-108677500D02*
X189905000Y-108677500D01*
X189905000Y-108227500D01*
X190245000Y-108227500D01*
X190245000Y-108677500D01*
%TO.C,Q13*%
G36*
X198550000Y-162585000D02*
G01*
X197530000Y-162585000D01*
X197530000Y-161140000D01*
X198550000Y-161140000D01*
X198550000Y-162585000D01*
G37*
X198550000Y-162585000D02*
X197530000Y-162585000D01*
X197530000Y-161140000D01*
X198550000Y-161140000D01*
X198550000Y-162585000D01*
G36*
X199820000Y-163260000D02*
G01*
X199480000Y-163260000D01*
X199480000Y-162810000D01*
X199820000Y-162810000D01*
X199820000Y-163260000D01*
G37*
X199820000Y-163260000D02*
X199480000Y-163260000D01*
X199480000Y-162810000D01*
X199820000Y-162810000D01*
X199820000Y-163260000D01*
G36*
X199170000Y-163260000D02*
G01*
X198830000Y-163260000D01*
X198830000Y-162810000D01*
X199170000Y-162810000D01*
X199170000Y-163260000D01*
G37*
X199170000Y-163260000D02*
X198830000Y-163260000D01*
X198830000Y-162810000D01*
X199170000Y-162810000D01*
X199170000Y-163260000D01*
G36*
X197870000Y-160390000D02*
G01*
X197530000Y-160390000D01*
X197530000Y-159940000D01*
X197870000Y-159940000D01*
X197870000Y-160390000D01*
G37*
X197870000Y-160390000D02*
X197530000Y-160390000D01*
X197530000Y-159940000D01*
X197870000Y-159940000D01*
X197870000Y-160390000D01*
G36*
X199170000Y-160390000D02*
G01*
X198830000Y-160390000D01*
X198830000Y-159940000D01*
X199170000Y-159940000D01*
X199170000Y-160390000D01*
G37*
X199170000Y-160390000D02*
X198830000Y-160390000D01*
X198830000Y-159940000D01*
X199170000Y-159940000D01*
X199170000Y-160390000D01*
G36*
X198520000Y-163260000D02*
G01*
X198180000Y-163260000D01*
X198180000Y-162810000D01*
X198520000Y-162810000D01*
X198520000Y-163260000D01*
G37*
X198520000Y-163260000D02*
X198180000Y-163260000D01*
X198180000Y-162810000D01*
X198520000Y-162810000D01*
X198520000Y-163260000D01*
G36*
X199820000Y-160390000D02*
G01*
X199480000Y-160390000D01*
X199480000Y-159940000D01*
X199820000Y-159940000D01*
X199820000Y-160390000D01*
G37*
X199820000Y-160390000D02*
X199480000Y-160390000D01*
X199480000Y-159940000D01*
X199820000Y-159940000D01*
X199820000Y-160390000D01*
G36*
X198520000Y-160390000D02*
G01*
X198180000Y-160390000D01*
X198180000Y-159940000D01*
X198520000Y-159940000D01*
X198520000Y-160390000D01*
G37*
X198520000Y-160390000D02*
X198180000Y-160390000D01*
X198180000Y-159940000D01*
X198520000Y-159940000D01*
X198520000Y-160390000D01*
G36*
X199820000Y-162585000D02*
G01*
X198800000Y-162585000D01*
X198800000Y-161140000D01*
X199820000Y-161140000D01*
X199820000Y-162585000D01*
G37*
X199820000Y-162585000D02*
X198800000Y-162585000D01*
X198800000Y-161140000D01*
X199820000Y-161140000D01*
X199820000Y-162585000D01*
G36*
X197870000Y-163260000D02*
G01*
X197530000Y-163260000D01*
X197530000Y-162810000D01*
X197870000Y-162810000D01*
X197870000Y-163260000D01*
G37*
X197870000Y-163260000D02*
X197530000Y-163260000D01*
X197530000Y-162810000D01*
X197870000Y-162810000D01*
X197870000Y-163260000D01*
%TO.C,Q14*%
G36*
X198495000Y-164555000D02*
G01*
X198155000Y-164555000D01*
X198155000Y-164105000D01*
X198495000Y-164105000D01*
X198495000Y-164555000D01*
G37*
X198495000Y-164555000D02*
X198155000Y-164555000D01*
X198155000Y-164105000D01*
X198495000Y-164105000D01*
X198495000Y-164555000D01*
G36*
X199795000Y-166225000D02*
G01*
X198775000Y-166225000D01*
X198775000Y-164780000D01*
X199795000Y-164780000D01*
X199795000Y-166225000D01*
G37*
X199795000Y-166225000D02*
X198775000Y-166225000D01*
X198775000Y-164780000D01*
X199795000Y-164780000D01*
X199795000Y-166225000D01*
G36*
X197845000Y-164555000D02*
G01*
X197505000Y-164555000D01*
X197505000Y-164105000D01*
X197845000Y-164105000D01*
X197845000Y-164555000D01*
G37*
X197845000Y-164555000D02*
X197505000Y-164555000D01*
X197505000Y-164105000D01*
X197845000Y-164105000D01*
X197845000Y-164555000D01*
G36*
X199145000Y-167425000D02*
G01*
X198805000Y-167425000D01*
X198805000Y-166975000D01*
X199145000Y-166975000D01*
X199145000Y-167425000D01*
G37*
X199145000Y-167425000D02*
X198805000Y-167425000D01*
X198805000Y-166975000D01*
X199145000Y-166975000D01*
X199145000Y-167425000D01*
G36*
X199795000Y-167425000D02*
G01*
X199455000Y-167425000D01*
X199455000Y-166975000D01*
X199795000Y-166975000D01*
X199795000Y-167425000D01*
G37*
X199795000Y-167425000D02*
X199455000Y-167425000D01*
X199455000Y-166975000D01*
X199795000Y-166975000D01*
X199795000Y-167425000D01*
G36*
X199795000Y-164555000D02*
G01*
X199455000Y-164555000D01*
X199455000Y-164105000D01*
X199795000Y-164105000D01*
X199795000Y-164555000D01*
G37*
X199795000Y-164555000D02*
X199455000Y-164555000D01*
X199455000Y-164105000D01*
X199795000Y-164105000D01*
X199795000Y-164555000D01*
G36*
X198495000Y-167425000D02*
G01*
X198155000Y-167425000D01*
X198155000Y-166975000D01*
X198495000Y-166975000D01*
X198495000Y-167425000D01*
G37*
X198495000Y-167425000D02*
X198155000Y-167425000D01*
X198155000Y-166975000D01*
X198495000Y-166975000D01*
X198495000Y-167425000D01*
G36*
X199145000Y-164555000D02*
G01*
X198805000Y-164555000D01*
X198805000Y-164105000D01*
X199145000Y-164105000D01*
X199145000Y-164555000D01*
G37*
X199145000Y-164555000D02*
X198805000Y-164555000D01*
X198805000Y-164105000D01*
X199145000Y-164105000D01*
X199145000Y-164555000D01*
G36*
X197845000Y-167425000D02*
G01*
X197505000Y-167425000D01*
X197505000Y-166975000D01*
X197845000Y-166975000D01*
X197845000Y-167425000D01*
G37*
X197845000Y-167425000D02*
X197505000Y-167425000D01*
X197505000Y-166975000D01*
X197845000Y-166975000D01*
X197845000Y-167425000D01*
G36*
X198525000Y-166225000D02*
G01*
X197505000Y-166225000D01*
X197505000Y-164780000D01*
X198525000Y-164780000D01*
X198525000Y-166225000D01*
G37*
X198525000Y-166225000D02*
X197505000Y-166225000D01*
X197505000Y-164780000D01*
X198525000Y-164780000D01*
X198525000Y-166225000D01*
%TO.C,Q15*%
G36*
X198820000Y-108690000D02*
G01*
X198480000Y-108690000D01*
X198480000Y-108240000D01*
X198820000Y-108240000D01*
X198820000Y-108690000D01*
G37*
X198820000Y-108690000D02*
X198480000Y-108690000D01*
X198480000Y-108240000D01*
X198820000Y-108240000D01*
X198820000Y-108690000D01*
G36*
X196870000Y-108690000D02*
G01*
X196530000Y-108690000D01*
X196530000Y-108240000D01*
X196870000Y-108240000D01*
X196870000Y-108690000D01*
G37*
X196870000Y-108690000D02*
X196530000Y-108690000D01*
X196530000Y-108240000D01*
X196870000Y-108240000D01*
X196870000Y-108690000D01*
G36*
X197550000Y-110360000D02*
G01*
X196530000Y-110360000D01*
X196530000Y-108915000D01*
X197550000Y-108915000D01*
X197550000Y-110360000D01*
G37*
X197550000Y-110360000D02*
X196530000Y-110360000D01*
X196530000Y-108915000D01*
X197550000Y-108915000D01*
X197550000Y-110360000D01*
G36*
X196870000Y-111560000D02*
G01*
X196530000Y-111560000D01*
X196530000Y-111110000D01*
X196870000Y-111110000D01*
X196870000Y-111560000D01*
G37*
X196870000Y-111560000D02*
X196530000Y-111560000D01*
X196530000Y-111110000D01*
X196870000Y-111110000D01*
X196870000Y-111560000D01*
G36*
X198170000Y-111560000D02*
G01*
X197830000Y-111560000D01*
X197830000Y-111110000D01*
X198170000Y-111110000D01*
X198170000Y-111560000D01*
G37*
X198170000Y-111560000D02*
X197830000Y-111560000D01*
X197830000Y-111110000D01*
X198170000Y-111110000D01*
X198170000Y-111560000D01*
G36*
X198820000Y-111560000D02*
G01*
X198480000Y-111560000D01*
X198480000Y-111110000D01*
X198820000Y-111110000D01*
X198820000Y-111560000D01*
G37*
X198820000Y-111560000D02*
X198480000Y-111560000D01*
X198480000Y-111110000D01*
X198820000Y-111110000D01*
X198820000Y-111560000D01*
G36*
X197520000Y-111560000D02*
G01*
X197180000Y-111560000D01*
X197180000Y-111110000D01*
X197520000Y-111110000D01*
X197520000Y-111560000D01*
G37*
X197520000Y-111560000D02*
X197180000Y-111560000D01*
X197180000Y-111110000D01*
X197520000Y-111110000D01*
X197520000Y-111560000D01*
G36*
X197520000Y-108690000D02*
G01*
X197180000Y-108690000D01*
X197180000Y-108240000D01*
X197520000Y-108240000D01*
X197520000Y-108690000D01*
G37*
X197520000Y-108690000D02*
X197180000Y-108690000D01*
X197180000Y-108240000D01*
X197520000Y-108240000D01*
X197520000Y-108690000D01*
G36*
X198170000Y-108690000D02*
G01*
X197830000Y-108690000D01*
X197830000Y-108240000D01*
X198170000Y-108240000D01*
X198170000Y-108690000D01*
G37*
X198170000Y-108690000D02*
X197830000Y-108690000D01*
X197830000Y-108240000D01*
X198170000Y-108240000D01*
X198170000Y-108690000D01*
G36*
X198820000Y-110360000D02*
G01*
X197800000Y-110360000D01*
X197800000Y-108915000D01*
X198820000Y-108915000D01*
X198820000Y-110360000D01*
G37*
X198820000Y-110360000D02*
X197800000Y-110360000D01*
X197800000Y-108915000D01*
X198820000Y-108915000D01*
X198820000Y-110360000D01*
%TO.C,Q12*%
G36*
X193545000Y-107372500D02*
G01*
X193205000Y-107372500D01*
X193205000Y-106922500D01*
X193545000Y-106922500D01*
X193545000Y-107372500D01*
G37*
X193545000Y-107372500D02*
X193205000Y-107372500D01*
X193205000Y-106922500D01*
X193545000Y-106922500D01*
X193545000Y-107372500D01*
G36*
X194195000Y-107372500D02*
G01*
X193855000Y-107372500D01*
X193855000Y-106922500D01*
X194195000Y-106922500D01*
X194195000Y-107372500D01*
G37*
X194195000Y-107372500D02*
X193855000Y-107372500D01*
X193855000Y-106922500D01*
X194195000Y-106922500D01*
X194195000Y-107372500D01*
G36*
X194845000Y-106697500D02*
G01*
X193825000Y-106697500D01*
X193825000Y-105252500D01*
X194845000Y-105252500D01*
X194845000Y-106697500D01*
G37*
X194845000Y-106697500D02*
X193825000Y-106697500D01*
X193825000Y-105252500D01*
X194845000Y-105252500D01*
X194845000Y-106697500D01*
G36*
X194845000Y-104502500D02*
G01*
X194505000Y-104502500D01*
X194505000Y-104052500D01*
X194845000Y-104052500D01*
X194845000Y-104502500D01*
G37*
X194845000Y-104502500D02*
X194505000Y-104502500D01*
X194505000Y-104052500D01*
X194845000Y-104052500D01*
X194845000Y-104502500D01*
G36*
X193545000Y-104502500D02*
G01*
X193205000Y-104502500D01*
X193205000Y-104052500D01*
X193545000Y-104052500D01*
X193545000Y-104502500D01*
G37*
X193545000Y-104502500D02*
X193205000Y-104502500D01*
X193205000Y-104052500D01*
X193545000Y-104052500D01*
X193545000Y-104502500D01*
G36*
X192895000Y-107372500D02*
G01*
X192555000Y-107372500D01*
X192555000Y-106922500D01*
X192895000Y-106922500D01*
X192895000Y-107372500D01*
G37*
X192895000Y-107372500D02*
X192555000Y-107372500D01*
X192555000Y-106922500D01*
X192895000Y-106922500D01*
X192895000Y-107372500D01*
G36*
X194845000Y-107372500D02*
G01*
X194505000Y-107372500D01*
X194505000Y-106922500D01*
X194845000Y-106922500D01*
X194845000Y-107372500D01*
G37*
X194845000Y-107372500D02*
X194505000Y-107372500D01*
X194505000Y-106922500D01*
X194845000Y-106922500D01*
X194845000Y-107372500D01*
G36*
X193575000Y-106697500D02*
G01*
X192555000Y-106697500D01*
X192555000Y-105252500D01*
X193575000Y-105252500D01*
X193575000Y-106697500D01*
G37*
X193575000Y-106697500D02*
X192555000Y-106697500D01*
X192555000Y-105252500D01*
X193575000Y-105252500D01*
X193575000Y-106697500D01*
G36*
X194195000Y-104502500D02*
G01*
X193855000Y-104502500D01*
X193855000Y-104052500D01*
X194195000Y-104052500D01*
X194195000Y-104502500D01*
G37*
X194195000Y-104502500D02*
X193855000Y-104502500D01*
X193855000Y-104052500D01*
X194195000Y-104052500D01*
X194195000Y-104502500D01*
G36*
X192895000Y-104502500D02*
G01*
X192555000Y-104502500D01*
X192555000Y-104052500D01*
X192895000Y-104052500D01*
X192895000Y-104502500D01*
G37*
X192895000Y-104502500D02*
X192555000Y-104502500D01*
X192555000Y-104052500D01*
X192895000Y-104052500D01*
X192895000Y-104502500D01*
%TO.C,Q3*%
G36*
X195170000Y-163247500D02*
G01*
X194830000Y-163247500D01*
X194830000Y-162797500D01*
X195170000Y-162797500D01*
X195170000Y-163247500D01*
G37*
X195170000Y-163247500D02*
X194830000Y-163247500D01*
X194830000Y-162797500D01*
X195170000Y-162797500D01*
X195170000Y-163247500D01*
G36*
X195170000Y-160377500D02*
G01*
X194830000Y-160377500D01*
X194830000Y-159927500D01*
X195170000Y-159927500D01*
X195170000Y-160377500D01*
G37*
X195170000Y-160377500D02*
X194830000Y-160377500D01*
X194830000Y-159927500D01*
X195170000Y-159927500D01*
X195170000Y-160377500D01*
G36*
X194520000Y-160377500D02*
G01*
X194180000Y-160377500D01*
X194180000Y-159927500D01*
X194520000Y-159927500D01*
X194520000Y-160377500D01*
G37*
X194520000Y-160377500D02*
X194180000Y-160377500D01*
X194180000Y-159927500D01*
X194520000Y-159927500D01*
X194520000Y-160377500D01*
G36*
X193870000Y-163247500D02*
G01*
X193530000Y-163247500D01*
X193530000Y-162797500D01*
X193870000Y-162797500D01*
X193870000Y-163247500D01*
G37*
X193870000Y-163247500D02*
X193530000Y-163247500D01*
X193530000Y-162797500D01*
X193870000Y-162797500D01*
X193870000Y-163247500D01*
G36*
X195820000Y-162572500D02*
G01*
X194800000Y-162572500D01*
X194800000Y-161127500D01*
X195820000Y-161127500D01*
X195820000Y-162572500D01*
G37*
X195820000Y-162572500D02*
X194800000Y-162572500D01*
X194800000Y-161127500D01*
X195820000Y-161127500D01*
X195820000Y-162572500D01*
G36*
X194550000Y-162572500D02*
G01*
X193530000Y-162572500D01*
X193530000Y-161127500D01*
X194550000Y-161127500D01*
X194550000Y-162572500D01*
G37*
X194550000Y-162572500D02*
X193530000Y-162572500D01*
X193530000Y-161127500D01*
X194550000Y-161127500D01*
X194550000Y-162572500D01*
G36*
X193870000Y-160377500D02*
G01*
X193530000Y-160377500D01*
X193530000Y-159927500D01*
X193870000Y-159927500D01*
X193870000Y-160377500D01*
G37*
X193870000Y-160377500D02*
X193530000Y-160377500D01*
X193530000Y-159927500D01*
X193870000Y-159927500D01*
X193870000Y-160377500D01*
G36*
X194520000Y-163247500D02*
G01*
X194180000Y-163247500D01*
X194180000Y-162797500D01*
X194520000Y-162797500D01*
X194520000Y-163247500D01*
G37*
X194520000Y-163247500D02*
X194180000Y-163247500D01*
X194180000Y-162797500D01*
X194520000Y-162797500D01*
X194520000Y-163247500D01*
G36*
X195820000Y-163247500D02*
G01*
X195480000Y-163247500D01*
X195480000Y-162797500D01*
X195820000Y-162797500D01*
X195820000Y-163247500D01*
G37*
X195820000Y-163247500D02*
X195480000Y-163247500D01*
X195480000Y-162797500D01*
X195820000Y-162797500D01*
X195820000Y-163247500D01*
G36*
X195820000Y-160377500D02*
G01*
X195480000Y-160377500D01*
X195480000Y-159927500D01*
X195820000Y-159927500D01*
X195820000Y-160377500D01*
G37*
X195820000Y-160377500D02*
X195480000Y-160377500D01*
X195480000Y-159927500D01*
X195820000Y-159927500D01*
X195820000Y-160377500D01*
%TO.C,Q4*%
G36*
X191870000Y-162572500D02*
G01*
X190850000Y-162572500D01*
X190850000Y-161127500D01*
X191870000Y-161127500D01*
X191870000Y-162572500D01*
G37*
X191870000Y-162572500D02*
X190850000Y-162572500D01*
X190850000Y-161127500D01*
X191870000Y-161127500D01*
X191870000Y-162572500D01*
G36*
X190570000Y-163247500D02*
G01*
X190230000Y-163247500D01*
X190230000Y-162797500D01*
X190570000Y-162797500D01*
X190570000Y-163247500D01*
G37*
X190570000Y-163247500D02*
X190230000Y-163247500D01*
X190230000Y-162797500D01*
X190570000Y-162797500D01*
X190570000Y-163247500D01*
G36*
X190600000Y-162572500D02*
G01*
X189580000Y-162572500D01*
X189580000Y-161127500D01*
X190600000Y-161127500D01*
X190600000Y-162572500D01*
G37*
X190600000Y-162572500D02*
X189580000Y-162572500D01*
X189580000Y-161127500D01*
X190600000Y-161127500D01*
X190600000Y-162572500D01*
G36*
X191870000Y-160377500D02*
G01*
X191530000Y-160377500D01*
X191530000Y-159927500D01*
X191870000Y-159927500D01*
X191870000Y-160377500D01*
G37*
X191870000Y-160377500D02*
X191530000Y-160377500D01*
X191530000Y-159927500D01*
X191870000Y-159927500D01*
X191870000Y-160377500D01*
G36*
X191870000Y-163247500D02*
G01*
X191530000Y-163247500D01*
X191530000Y-162797500D01*
X191870000Y-162797500D01*
X191870000Y-163247500D01*
G37*
X191870000Y-163247500D02*
X191530000Y-163247500D01*
X191530000Y-162797500D01*
X191870000Y-162797500D01*
X191870000Y-163247500D01*
G36*
X191220000Y-163247500D02*
G01*
X190880000Y-163247500D01*
X190880000Y-162797500D01*
X191220000Y-162797500D01*
X191220000Y-163247500D01*
G37*
X191220000Y-163247500D02*
X190880000Y-163247500D01*
X190880000Y-162797500D01*
X191220000Y-162797500D01*
X191220000Y-163247500D01*
G36*
X189920000Y-160377500D02*
G01*
X189580000Y-160377500D01*
X189580000Y-159927500D01*
X189920000Y-159927500D01*
X189920000Y-160377500D01*
G37*
X189920000Y-160377500D02*
X189580000Y-160377500D01*
X189580000Y-159927500D01*
X189920000Y-159927500D01*
X189920000Y-160377500D01*
G36*
X191220000Y-160377500D02*
G01*
X190880000Y-160377500D01*
X190880000Y-159927500D01*
X191220000Y-159927500D01*
X191220000Y-160377500D01*
G37*
X191220000Y-160377500D02*
X190880000Y-160377500D01*
X190880000Y-159927500D01*
X191220000Y-159927500D01*
X191220000Y-160377500D01*
G36*
X189920000Y-163247500D02*
G01*
X189580000Y-163247500D01*
X189580000Y-162797500D01*
X189920000Y-162797500D01*
X189920000Y-163247500D01*
G37*
X189920000Y-163247500D02*
X189580000Y-163247500D01*
X189580000Y-162797500D01*
X189920000Y-162797500D01*
X189920000Y-163247500D01*
G36*
X190570000Y-160377500D02*
G01*
X190230000Y-160377500D01*
X190230000Y-159927500D01*
X190570000Y-159927500D01*
X190570000Y-160377500D01*
G37*
X190570000Y-160377500D02*
X190230000Y-160377500D01*
X190230000Y-159927500D01*
X190570000Y-159927500D01*
X190570000Y-160377500D01*
%TO.C,Q6*%
G36*
X195170000Y-167412500D02*
G01*
X194830000Y-167412500D01*
X194830000Y-166962500D01*
X195170000Y-166962500D01*
X195170000Y-167412500D01*
G37*
X195170000Y-167412500D02*
X194830000Y-167412500D01*
X194830000Y-166962500D01*
X195170000Y-166962500D01*
X195170000Y-167412500D01*
G36*
X195170000Y-164542500D02*
G01*
X194830000Y-164542500D01*
X194830000Y-164092500D01*
X195170000Y-164092500D01*
X195170000Y-164542500D01*
G37*
X195170000Y-164542500D02*
X194830000Y-164542500D01*
X194830000Y-164092500D01*
X195170000Y-164092500D01*
X195170000Y-164542500D01*
G36*
X193870000Y-164542500D02*
G01*
X193530000Y-164542500D01*
X193530000Y-164092500D01*
X193870000Y-164092500D01*
X193870000Y-164542500D01*
G37*
X193870000Y-164542500D02*
X193530000Y-164542500D01*
X193530000Y-164092500D01*
X193870000Y-164092500D01*
X193870000Y-164542500D01*
G36*
X195820000Y-164542500D02*
G01*
X195480000Y-164542500D01*
X195480000Y-164092500D01*
X195820000Y-164092500D01*
X195820000Y-164542500D01*
G37*
X195820000Y-164542500D02*
X195480000Y-164542500D01*
X195480000Y-164092500D01*
X195820000Y-164092500D01*
X195820000Y-164542500D01*
G36*
X194520000Y-164542500D02*
G01*
X194180000Y-164542500D01*
X194180000Y-164092500D01*
X194520000Y-164092500D01*
X194520000Y-164542500D01*
G37*
X194520000Y-164542500D02*
X194180000Y-164542500D01*
X194180000Y-164092500D01*
X194520000Y-164092500D01*
X194520000Y-164542500D01*
G36*
X195820000Y-167412500D02*
G01*
X195480000Y-167412500D01*
X195480000Y-166962500D01*
X195820000Y-166962500D01*
X195820000Y-167412500D01*
G37*
X195820000Y-167412500D02*
X195480000Y-167412500D01*
X195480000Y-166962500D01*
X195820000Y-166962500D01*
X195820000Y-167412500D01*
G36*
X194520000Y-167412500D02*
G01*
X194180000Y-167412500D01*
X194180000Y-166962500D01*
X194520000Y-166962500D01*
X194520000Y-167412500D01*
G37*
X194520000Y-167412500D02*
X194180000Y-167412500D01*
X194180000Y-166962500D01*
X194520000Y-166962500D01*
X194520000Y-167412500D01*
G36*
X194550000Y-166212500D02*
G01*
X193530000Y-166212500D01*
X193530000Y-164767500D01*
X194550000Y-164767500D01*
X194550000Y-166212500D01*
G37*
X194550000Y-166212500D02*
X193530000Y-166212500D01*
X193530000Y-164767500D01*
X194550000Y-164767500D01*
X194550000Y-166212500D01*
G36*
X195820000Y-166212500D02*
G01*
X194800000Y-166212500D01*
X194800000Y-164767500D01*
X195820000Y-164767500D01*
X195820000Y-166212500D01*
G37*
X195820000Y-166212500D02*
X194800000Y-166212500D01*
X194800000Y-164767500D01*
X195820000Y-164767500D01*
X195820000Y-166212500D01*
G36*
X193870000Y-167412500D02*
G01*
X193530000Y-167412500D01*
X193530000Y-166962500D01*
X193870000Y-166962500D01*
X193870000Y-167412500D01*
G37*
X193870000Y-167412500D02*
X193530000Y-167412500D01*
X193530000Y-166962500D01*
X193870000Y-166962500D01*
X193870000Y-167412500D01*
%TO.C,Q16*%
G36*
X198820000Y-106697500D02*
G01*
X197800000Y-106697500D01*
X197800000Y-105252500D01*
X198820000Y-105252500D01*
X198820000Y-106697500D01*
G37*
X198820000Y-106697500D02*
X197800000Y-106697500D01*
X197800000Y-105252500D01*
X198820000Y-105252500D01*
X198820000Y-106697500D01*
G36*
X196870000Y-104502500D02*
G01*
X196530000Y-104502500D01*
X196530000Y-104052500D01*
X196870000Y-104052500D01*
X196870000Y-104502500D01*
G37*
X196870000Y-104502500D02*
X196530000Y-104502500D01*
X196530000Y-104052500D01*
X196870000Y-104052500D01*
X196870000Y-104502500D01*
G36*
X197520000Y-104502500D02*
G01*
X197180000Y-104502500D01*
X197180000Y-104052500D01*
X197520000Y-104052500D01*
X197520000Y-104502500D01*
G37*
X197520000Y-104502500D02*
X197180000Y-104502500D01*
X197180000Y-104052500D01*
X197520000Y-104052500D01*
X197520000Y-104502500D01*
G36*
X197550000Y-106697500D02*
G01*
X196530000Y-106697500D01*
X196530000Y-105252500D01*
X197550000Y-105252500D01*
X197550000Y-106697500D01*
G37*
X197550000Y-106697500D02*
X196530000Y-106697500D01*
X196530000Y-105252500D01*
X197550000Y-105252500D01*
X197550000Y-106697500D01*
G36*
X198170000Y-104502500D02*
G01*
X197830000Y-104502500D01*
X197830000Y-104052500D01*
X198170000Y-104052500D01*
X198170000Y-104502500D01*
G37*
X198170000Y-104502500D02*
X197830000Y-104502500D01*
X197830000Y-104052500D01*
X198170000Y-104052500D01*
X198170000Y-104502500D01*
G36*
X197520000Y-107372500D02*
G01*
X197180000Y-107372500D01*
X197180000Y-106922500D01*
X197520000Y-106922500D01*
X197520000Y-107372500D01*
G37*
X197520000Y-107372500D02*
X197180000Y-107372500D01*
X197180000Y-106922500D01*
X197520000Y-106922500D01*
X197520000Y-107372500D01*
G36*
X196870000Y-107372500D02*
G01*
X196530000Y-107372500D01*
X196530000Y-106922500D01*
X196870000Y-106922500D01*
X196870000Y-107372500D01*
G37*
X196870000Y-107372500D02*
X196530000Y-107372500D01*
X196530000Y-106922500D01*
X196870000Y-106922500D01*
X196870000Y-107372500D01*
G36*
X198170000Y-107372500D02*
G01*
X197830000Y-107372500D01*
X197830000Y-106922500D01*
X198170000Y-106922500D01*
X198170000Y-107372500D01*
G37*
X198170000Y-107372500D02*
X197830000Y-107372500D01*
X197830000Y-106922500D01*
X198170000Y-106922500D01*
X198170000Y-107372500D01*
G36*
X198820000Y-104502500D02*
G01*
X198480000Y-104502500D01*
X198480000Y-104052500D01*
X198820000Y-104052500D01*
X198820000Y-104502500D01*
G37*
X198820000Y-104502500D02*
X198480000Y-104502500D01*
X198480000Y-104052500D01*
X198820000Y-104052500D01*
X198820000Y-104502500D01*
G36*
X198820000Y-107372500D02*
G01*
X198480000Y-107372500D01*
X198480000Y-106922500D01*
X198820000Y-106922500D01*
X198820000Y-107372500D01*
G37*
X198820000Y-107372500D02*
X198480000Y-107372500D01*
X198480000Y-106922500D01*
X198820000Y-106922500D01*
X198820000Y-107372500D01*
%TO.C,Q9*%
G36*
X194845000Y-111547500D02*
G01*
X194505000Y-111547500D01*
X194505000Y-111097500D01*
X194845000Y-111097500D01*
X194845000Y-111547500D01*
G37*
X194845000Y-111547500D02*
X194505000Y-111547500D01*
X194505000Y-111097500D01*
X194845000Y-111097500D01*
X194845000Y-111547500D01*
G36*
X193575000Y-110347500D02*
G01*
X192555000Y-110347500D01*
X192555000Y-108902500D01*
X193575000Y-108902500D01*
X193575000Y-110347500D01*
G37*
X193575000Y-110347500D02*
X192555000Y-110347500D01*
X192555000Y-108902500D01*
X193575000Y-108902500D01*
X193575000Y-110347500D01*
G36*
X192895000Y-108677500D02*
G01*
X192555000Y-108677500D01*
X192555000Y-108227500D01*
X192895000Y-108227500D01*
X192895000Y-108677500D01*
G37*
X192895000Y-108677500D02*
X192555000Y-108677500D01*
X192555000Y-108227500D01*
X192895000Y-108227500D01*
X192895000Y-108677500D01*
G36*
X194195000Y-108677500D02*
G01*
X193855000Y-108677500D01*
X193855000Y-108227500D01*
X194195000Y-108227500D01*
X194195000Y-108677500D01*
G37*
X194195000Y-108677500D02*
X193855000Y-108677500D01*
X193855000Y-108227500D01*
X194195000Y-108227500D01*
X194195000Y-108677500D01*
G36*
X193545000Y-108677500D02*
G01*
X193205000Y-108677500D01*
X193205000Y-108227500D01*
X193545000Y-108227500D01*
X193545000Y-108677500D01*
G37*
X193545000Y-108677500D02*
X193205000Y-108677500D01*
X193205000Y-108227500D01*
X193545000Y-108227500D01*
X193545000Y-108677500D01*
G36*
X194195000Y-111547500D02*
G01*
X193855000Y-111547500D01*
X193855000Y-111097500D01*
X194195000Y-111097500D01*
X194195000Y-111547500D01*
G37*
X194195000Y-111547500D02*
X193855000Y-111547500D01*
X193855000Y-111097500D01*
X194195000Y-111097500D01*
X194195000Y-111547500D01*
G36*
X192895000Y-111547500D02*
G01*
X192555000Y-111547500D01*
X192555000Y-111097500D01*
X192895000Y-111097500D01*
X192895000Y-111547500D01*
G37*
X192895000Y-111547500D02*
X192555000Y-111547500D01*
X192555000Y-111097500D01*
X192895000Y-111097500D01*
X192895000Y-111547500D01*
G36*
X194845000Y-108677500D02*
G01*
X194505000Y-108677500D01*
X194505000Y-108227500D01*
X194845000Y-108227500D01*
X194845000Y-108677500D01*
G37*
X194845000Y-108677500D02*
X194505000Y-108677500D01*
X194505000Y-108227500D01*
X194845000Y-108227500D01*
X194845000Y-108677500D01*
G36*
X194845000Y-110347500D02*
G01*
X193825000Y-110347500D01*
X193825000Y-108902500D01*
X194845000Y-108902500D01*
X194845000Y-110347500D01*
G37*
X194845000Y-110347500D02*
X193825000Y-110347500D01*
X193825000Y-108902500D01*
X194845000Y-108902500D01*
X194845000Y-110347500D01*
G36*
X193545000Y-111547500D02*
G01*
X193205000Y-111547500D01*
X193205000Y-111097500D01*
X193545000Y-111097500D01*
X193545000Y-111547500D01*
G37*
X193545000Y-111547500D02*
X193205000Y-111547500D01*
X193205000Y-111097500D01*
X193545000Y-111097500D01*
X193545000Y-111547500D01*
%TO.C,Q11*%
G36*
X188945000Y-107385000D02*
G01*
X188605000Y-107385000D01*
X188605000Y-106935000D01*
X188945000Y-106935000D01*
X188945000Y-107385000D01*
G37*
X188945000Y-107385000D02*
X188605000Y-107385000D01*
X188605000Y-106935000D01*
X188945000Y-106935000D01*
X188945000Y-107385000D01*
G36*
X190245000Y-107385000D02*
G01*
X189905000Y-107385000D01*
X189905000Y-106935000D01*
X190245000Y-106935000D01*
X190245000Y-107385000D01*
G37*
X190245000Y-107385000D02*
X189905000Y-107385000D01*
X189905000Y-106935000D01*
X190245000Y-106935000D01*
X190245000Y-107385000D01*
G36*
X189595000Y-104515000D02*
G01*
X189255000Y-104515000D01*
X189255000Y-104065000D01*
X189595000Y-104065000D01*
X189595000Y-104515000D01*
G37*
X189595000Y-104515000D02*
X189255000Y-104515000D01*
X189255000Y-104065000D01*
X189595000Y-104065000D01*
X189595000Y-104515000D01*
G36*
X189625000Y-106710000D02*
G01*
X188605000Y-106710000D01*
X188605000Y-105265000D01*
X189625000Y-105265000D01*
X189625000Y-106710000D01*
G37*
X189625000Y-106710000D02*
X188605000Y-106710000D01*
X188605000Y-105265000D01*
X189625000Y-105265000D01*
X189625000Y-106710000D01*
G36*
X189595000Y-107385000D02*
G01*
X189255000Y-107385000D01*
X189255000Y-106935000D01*
X189595000Y-106935000D01*
X189595000Y-107385000D01*
G37*
X189595000Y-107385000D02*
X189255000Y-107385000D01*
X189255000Y-106935000D01*
X189595000Y-106935000D01*
X189595000Y-107385000D01*
G36*
X190895000Y-107385000D02*
G01*
X190555000Y-107385000D01*
X190555000Y-106935000D01*
X190895000Y-106935000D01*
X190895000Y-107385000D01*
G37*
X190895000Y-107385000D02*
X190555000Y-107385000D01*
X190555000Y-106935000D01*
X190895000Y-106935000D01*
X190895000Y-107385000D01*
G36*
X190245000Y-104515000D02*
G01*
X189905000Y-104515000D01*
X189905000Y-104065000D01*
X190245000Y-104065000D01*
X190245000Y-104515000D01*
G37*
X190245000Y-104515000D02*
X189905000Y-104515000D01*
X189905000Y-104065000D01*
X190245000Y-104065000D01*
X190245000Y-104515000D01*
G36*
X190895000Y-104515000D02*
G01*
X190555000Y-104515000D01*
X190555000Y-104065000D01*
X190895000Y-104065000D01*
X190895000Y-104515000D01*
G37*
X190895000Y-104515000D02*
X190555000Y-104515000D01*
X190555000Y-104065000D01*
X190895000Y-104065000D01*
X190895000Y-104515000D01*
G36*
X190895000Y-106710000D02*
G01*
X189875000Y-106710000D01*
X189875000Y-105265000D01*
X190895000Y-105265000D01*
X190895000Y-106710000D01*
G37*
X190895000Y-106710000D02*
X189875000Y-106710000D01*
X189875000Y-105265000D01*
X190895000Y-105265000D01*
X190895000Y-106710000D01*
G36*
X188945000Y-104515000D02*
G01*
X188605000Y-104515000D01*
X188605000Y-104065000D01*
X188945000Y-104065000D01*
X188945000Y-104515000D01*
G37*
X188945000Y-104515000D02*
X188605000Y-104515000D01*
X188605000Y-104065000D01*
X188945000Y-104065000D01*
X188945000Y-104515000D01*
%TO.C,Q5*%
G36*
X189920000Y-167425000D02*
G01*
X189580000Y-167425000D01*
X189580000Y-166975000D01*
X189920000Y-166975000D01*
X189920000Y-167425000D01*
G37*
X189920000Y-167425000D02*
X189580000Y-167425000D01*
X189580000Y-166975000D01*
X189920000Y-166975000D01*
X189920000Y-167425000D01*
G36*
X191870000Y-166225000D02*
G01*
X190850000Y-166225000D01*
X190850000Y-164780000D01*
X191870000Y-164780000D01*
X191870000Y-166225000D01*
G37*
X191870000Y-166225000D02*
X190850000Y-166225000D01*
X190850000Y-164780000D01*
X191870000Y-164780000D01*
X191870000Y-166225000D01*
G36*
X191220000Y-167425000D02*
G01*
X190880000Y-167425000D01*
X190880000Y-166975000D01*
X191220000Y-166975000D01*
X191220000Y-167425000D01*
G37*
X191220000Y-167425000D02*
X190880000Y-167425000D01*
X190880000Y-166975000D01*
X191220000Y-166975000D01*
X191220000Y-167425000D01*
G36*
X190570000Y-167425000D02*
G01*
X190230000Y-167425000D01*
X190230000Y-166975000D01*
X190570000Y-166975000D01*
X190570000Y-167425000D01*
G37*
X190570000Y-167425000D02*
X190230000Y-167425000D01*
X190230000Y-166975000D01*
X190570000Y-166975000D01*
X190570000Y-167425000D01*
G36*
X191870000Y-167425000D02*
G01*
X191530000Y-167425000D01*
X191530000Y-166975000D01*
X191870000Y-166975000D01*
X191870000Y-167425000D01*
G37*
X191870000Y-167425000D02*
X191530000Y-167425000D01*
X191530000Y-166975000D01*
X191870000Y-166975000D01*
X191870000Y-167425000D01*
G36*
X189920000Y-164555000D02*
G01*
X189580000Y-164555000D01*
X189580000Y-164105000D01*
X189920000Y-164105000D01*
X189920000Y-164555000D01*
G37*
X189920000Y-164555000D02*
X189580000Y-164555000D01*
X189580000Y-164105000D01*
X189920000Y-164105000D01*
X189920000Y-164555000D01*
G36*
X190600000Y-166225000D02*
G01*
X189580000Y-166225000D01*
X189580000Y-164780000D01*
X190600000Y-164780000D01*
X190600000Y-166225000D01*
G37*
X190600000Y-166225000D02*
X189580000Y-166225000D01*
X189580000Y-164780000D01*
X190600000Y-164780000D01*
X190600000Y-166225000D01*
G36*
X191220000Y-164555000D02*
G01*
X190880000Y-164555000D01*
X190880000Y-164105000D01*
X191220000Y-164105000D01*
X191220000Y-164555000D01*
G37*
X191220000Y-164555000D02*
X190880000Y-164555000D01*
X190880000Y-164105000D01*
X191220000Y-164105000D01*
X191220000Y-164555000D01*
G36*
X190570000Y-164555000D02*
G01*
X190230000Y-164555000D01*
X190230000Y-164105000D01*
X190570000Y-164105000D01*
X190570000Y-164555000D01*
G37*
X190570000Y-164555000D02*
X190230000Y-164555000D01*
X190230000Y-164105000D01*
X190570000Y-164105000D01*
X190570000Y-164555000D01*
G36*
X191870000Y-164555000D02*
G01*
X191530000Y-164555000D01*
X191530000Y-164105000D01*
X191870000Y-164105000D01*
X191870000Y-164555000D01*
G37*
X191870000Y-164555000D02*
X191530000Y-164555000D01*
X191530000Y-164105000D01*
X191870000Y-164105000D01*
X191870000Y-164555000D01*
%TD*%
D11*
%TO.C,C22*%
X215050000Y-120900000D03*
X215050000Y-119200000D03*
%TD*%
D12*
%TO.C,R18*%
X170850000Y-146900000D03*
X170850000Y-148600000D03*
%TD*%
D13*
%TO.C,C29*%
X227340000Y-150630000D03*
X229040000Y-150630000D03*
%TD*%
D14*
%TO.C,R51*%
X180150000Y-128400000D03*
X180150000Y-126400000D03*
%TD*%
D15*
%TO.C,D2*%
X176500000Y-155000000D03*
X173700000Y-155000000D03*
%TD*%
D16*
%TO.C,R1*%
X166650000Y-155850000D03*
X164950000Y-155850000D03*
%TD*%
%TO.C,R45*%
X209300000Y-115750000D03*
X207600000Y-115750000D03*
%TD*%
D13*
%TO.C,C20*%
X220975000Y-139675000D03*
X222675000Y-139675000D03*
%TD*%
D17*
%TO.C,R25*%
X191500000Y-120725000D03*
X189500000Y-120725000D03*
%TD*%
D13*
%TO.C,C14*%
X223750000Y-160940000D03*
X225450000Y-160940000D03*
%TD*%
D11*
%TO.C,C32*%
X158200000Y-148750000D03*
X158200000Y-147050000D03*
%TD*%
D18*
%TO.C,C19*%
X224100000Y-136350000D03*
X222100000Y-136350000D03*
%TD*%
D12*
%TO.C,R59*%
X208395000Y-163230000D03*
X208395000Y-164930000D03*
%TD*%
D19*
%TO.C,J1*%
X170477500Y-124800000D03*
X170477500Y-130400000D03*
D20*
X167952500Y-129100000D03*
X167952500Y-128100000D03*
X167952500Y-127100000D03*
X167952500Y-126100000D03*
%TD*%
D21*
%TO.C,C25*%
X234475000Y-145025000D03*
X234475000Y-143025000D03*
%TD*%
D22*
%TO.C,Q1*%
X169675000Y-152025000D03*
X169675000Y-153925000D03*
X171675000Y-152975000D03*
%TD*%
D23*
%TO.C,U12*%
X238200000Y-140035000D03*
D24*
X244925000Y-145350000D03*
X249775000Y-139800000D03*
X244925000Y-139800000D03*
X249775000Y-145350000D03*
D23*
X238200000Y-142575000D03*
X238200000Y-145115000D03*
%TD*%
D16*
%TO.C,R28*%
X194725000Y-116425000D03*
X193025000Y-116425000D03*
%TD*%
%TO.C,R44*%
X209300000Y-117150000D03*
X207600000Y-117150000D03*
%TD*%
%TO.C,R10*%
X191200000Y-175000000D03*
X189500000Y-175000000D03*
%TD*%
D12*
%TO.C,R55*%
X190775000Y-112525000D03*
X190775000Y-114225000D03*
%TD*%
D25*
%TO.C,U2*%
X182650000Y-175150000D03*
X184250000Y-175150000D03*
X185850000Y-175150000D03*
D26*
X187050000Y-172650000D03*
D27*
X185750000Y-170300000D03*
X182750000Y-170300000D03*
D26*
X181450000Y-172650000D03*
%TD*%
D28*
%TO.C,R7*%
X180500000Y-177750000D03*
X182200000Y-177750000D03*
%TD*%
%TO.C,D9*%
X204500000Y-115750000D03*
X206200000Y-115750000D03*
%TD*%
D16*
%TO.C,R12*%
X194825000Y-172200000D03*
X193125000Y-172200000D03*
%TD*%
D13*
%TO.C,C28*%
X251575000Y-150580000D03*
X249875000Y-150580000D03*
%TD*%
D23*
%TO.C,U7*%
X209125000Y-143535000D03*
D24*
X215850000Y-148850000D03*
X220700000Y-148850000D03*
D23*
X209125000Y-146075000D03*
D24*
X220700000Y-143300000D03*
X215850000Y-143300000D03*
D23*
X209125000Y-148615000D03*
%TD*%
D12*
%TO.C,R19*%
X172000000Y-143950000D03*
X172000000Y-145650000D03*
%TD*%
D11*
%TO.C,C2*%
X164775000Y-152625000D03*
X164775000Y-154325000D03*
%TD*%
%TO.C,C33*%
X183725000Y-153375000D03*
X183725000Y-151675000D03*
%TD*%
D13*
%TO.C,C34*%
X176750000Y-150100000D03*
X175050000Y-150100000D03*
%TD*%
D12*
%TO.C,R63*%
X199700000Y-168400000D03*
X199700000Y-170100000D03*
%TD*%
D29*
%TO.C,Q7*%
X193050000Y-119875000D03*
X194950000Y-119875000D03*
X194000000Y-117875000D03*
%TD*%
D30*
%TO.C,R57*%
X192750000Y-103075000D03*
X192750000Y-101375000D03*
%TD*%
D16*
%TO.C,R60*%
X226900000Y-117100000D03*
X225200000Y-117100000D03*
%TD*%
D18*
%TO.C,C18*%
X210175000Y-136300000D03*
X208175000Y-136300000D03*
%TD*%
D16*
%TO.C,R4*%
X173400000Y-150450000D03*
X171700000Y-150450000D03*
%TD*%
D30*
%TO.C,R20*%
X170600000Y-145650000D03*
X170600000Y-143950000D03*
%TD*%
D31*
%TO.C,U1*%
X175990000Y-133910039D03*
X175990000Y-138210039D03*
X174720000Y-133910039D03*
X174720000Y-138210039D03*
X173450000Y-133910039D03*
X173450000Y-138210039D03*
X172180000Y-133910039D03*
X172180000Y-138210039D03*
X170910000Y-133910039D03*
X170910000Y-138210039D03*
%TD*%
D16*
%TO.C,R32*%
X228770000Y-155285000D03*
X227070000Y-155285000D03*
%TD*%
D12*
%TO.C,R54*%
X194725000Y-112550000D03*
X194725000Y-114250000D03*
%TD*%
D17*
%TO.C,R27*%
X191425000Y-116475000D03*
X189425000Y-116475000D03*
%TD*%
D16*
%TO.C,R15*%
X201800000Y-140650000D03*
X200100000Y-140650000D03*
%TD*%
%TO.C,R26*%
X191150000Y-119125000D03*
X189450000Y-119125000D03*
%TD*%
%TO.C,R61*%
X226900000Y-115700000D03*
X225200000Y-115700000D03*
%TD*%
D23*
%TO.C,U10*%
X238050000Y-154440000D03*
X238050000Y-156980000D03*
D24*
X244775000Y-154205000D03*
X244775000Y-159755000D03*
X249625000Y-154205000D03*
X249625000Y-159755000D03*
D23*
X238050000Y-159520000D03*
%TD*%
D13*
%TO.C,C27*%
X236175000Y-115350000D03*
X234475000Y-115350000D03*
%TD*%
%TO.C,C4*%
X186300000Y-177750000D03*
X188000000Y-177750000D03*
%TD*%
D25*
%TO.C,U3*%
X182650000Y-119575000D03*
X184250000Y-119575000D03*
X185850000Y-119575000D03*
D26*
X187050000Y-117075000D03*
D27*
X185750000Y-114725000D03*
X182750000Y-114725000D03*
D26*
X181450000Y-117075000D03*
%TD*%
D12*
%TO.C,R3*%
X168050000Y-152125000D03*
X168050000Y-153825000D03*
%TD*%
D16*
%TO.C,R35*%
X216625000Y-155300000D03*
X214925000Y-155300000D03*
%TD*%
%TO.C,R31*%
X211275000Y-157100000D03*
X209575000Y-157100000D03*
%TD*%
D32*
%TO.C,SW1*%
X174325000Y-148425000D03*
D33*
X173700000Y-146375000D03*
D32*
X175925000Y-148425000D03*
X174325000Y-144325000D03*
X175925000Y-144325000D03*
%TD*%
D16*
%TO.C,R46*%
X218200000Y-117150000D03*
X216500000Y-117150000D03*
%TD*%
D12*
%TO.C,R48*%
X226220000Y-145360000D03*
X226220000Y-147060000D03*
%TD*%
D13*
%TO.C,C7*%
X185100000Y-122150000D03*
X183400000Y-122150000D03*
%TD*%
D16*
%TO.C,R50*%
X175000000Y-126200000D03*
X173300000Y-126200000D03*
%TD*%
%TO.C,R37*%
X206375000Y-155198250D03*
X204675000Y-155198250D03*
%TD*%
D13*
%TO.C,C26*%
X245175000Y-115450000D03*
X243475000Y-115450000D03*
%TD*%
D12*
%TO.C,R64*%
X198700000Y-112525000D03*
X198700000Y-114225000D03*
%TD*%
D21*
%TO.C,C24*%
X242150000Y-134500000D03*
X242150000Y-132500000D03*
%TD*%
D30*
%TO.C,R65*%
X196700000Y-103050000D03*
X196700000Y-101350000D03*
%TD*%
%TO.C,R56*%
X188800000Y-103100000D03*
X188800000Y-101400000D03*
%TD*%
D34*
%TO.C,TP1*%
X178225000Y-144175000D03*
%TD*%
D17*
%TO.C,R8*%
X191350000Y-176600000D03*
X189350000Y-176600000D03*
%TD*%
D12*
%TO.C,R21*%
X191975000Y-168425000D03*
X191975000Y-170125000D03*
%TD*%
D16*
%TO.C,R29*%
X230870000Y-156935000D03*
X229170000Y-156935000D03*
%TD*%
D35*
%TO.C,IC2*%
X167500000Y-149150000D03*
X167500000Y-148650000D03*
X167500000Y-148150000D03*
X167500000Y-147650000D03*
X167500000Y-147150000D03*
X167500000Y-146650000D03*
X167500000Y-146150000D03*
X167500000Y-145650000D03*
X167500000Y-145150000D03*
X167500000Y-144650000D03*
X167500000Y-144150000D03*
X167500000Y-143650000D03*
D36*
X166800000Y-142950000D03*
X166300000Y-142950000D03*
X165800000Y-142950000D03*
X165300000Y-142950000D03*
X164800000Y-142950000D03*
X164300000Y-142950000D03*
X163800000Y-142950000D03*
X163300000Y-142950000D03*
X162800000Y-142950000D03*
X162300000Y-142950000D03*
X161800000Y-142950000D03*
X161300000Y-142950000D03*
D35*
X160600000Y-143650000D03*
X160600000Y-144150000D03*
X160600000Y-144650000D03*
X160600000Y-145150000D03*
X160600000Y-145650000D03*
X160600000Y-146150000D03*
X160600000Y-146650000D03*
X160600000Y-147150000D03*
X160600000Y-147650000D03*
X160600000Y-148150000D03*
X160600000Y-148650000D03*
X160600000Y-149150000D03*
D36*
X161300000Y-149850000D03*
X161800000Y-149850000D03*
X162300000Y-149850000D03*
X162800000Y-149850000D03*
X163300000Y-149850000D03*
X163800000Y-149850000D03*
X164300000Y-149850000D03*
X164800000Y-149850000D03*
X165300000Y-149850000D03*
X165800000Y-149850000D03*
X166300000Y-149850000D03*
X166800000Y-149850000D03*
D37*
X164050000Y-146400000D03*
%TD*%
D30*
%TO.C,R14*%
X189725000Y-158925000D03*
X189725000Y-157225000D03*
%TD*%
D38*
%TO.C,U11*%
X232960000Y-132625000D03*
D39*
X238275000Y-125900000D03*
X232725000Y-125900000D03*
X232725000Y-121050000D03*
X238275000Y-121050000D03*
D38*
X235500000Y-132625000D03*
X238040000Y-132625000D03*
%TD*%
D29*
%TO.C,Q2*%
X192950000Y-175650000D03*
X194850000Y-175650000D03*
X193900000Y-173650000D03*
%TD*%
D40*
%TO.C,U13*%
X229018929Y-146229200D03*
X228518928Y-146229200D03*
X228018928Y-146229200D03*
X227518927Y-146229200D03*
X227518927Y-149170800D03*
X228018928Y-149170800D03*
X228518928Y-149170800D03*
X229018929Y-149170800D03*
D41*
X228268928Y-147700000D03*
%TD*%
D21*
%TO.C,C17*%
X205550000Y-148575000D03*
X205550000Y-146575000D03*
%TD*%
D11*
%TO.C,C1*%
X166425000Y-152625000D03*
X166425000Y-154325000D03*
%TD*%
D42*
%TO.C,IC1*%
X162800000Y-155880000D03*
X162800000Y-154610000D03*
X162800000Y-153340000D03*
X162800000Y-152070000D03*
X157850000Y-152070000D03*
X157850000Y-153340000D03*
X157850000Y-154610000D03*
X157850000Y-155880000D03*
%TD*%
D12*
%TO.C,R43*%
X218780000Y-163090000D03*
X218780000Y-164790000D03*
%TD*%
D13*
%TO.C,C15*%
X214575000Y-160900000D03*
X216275000Y-160900000D03*
%TD*%
D43*
%TO.C,C13*%
X209875000Y-158450000D03*
X209875000Y-160450000D03*
%TD*%
D12*
%TO.C,R42*%
X217380000Y-163090000D03*
X217380000Y-164790000D03*
%TD*%
D16*
%TO.C,R23*%
X194700000Y-121675000D03*
X193000000Y-121675000D03*
%TD*%
D30*
%TO.C,R13*%
X193700000Y-158950000D03*
X193700000Y-157250000D03*
%TD*%
D11*
%TO.C,C35*%
X177475000Y-148000000D03*
X177475000Y-146300000D03*
%TD*%
D16*
%TO.C,R47*%
X218200000Y-115750000D03*
X216500000Y-115750000D03*
%TD*%
D44*
%TO.C,U4*%
X227020000Y-156685000D03*
D45*
X226370000Y-156835000D03*
X225720000Y-156835000D03*
D46*
X225070000Y-156635000D03*
X224220000Y-156635000D03*
X223370000Y-156635000D03*
X223370000Y-159535000D03*
X224220000Y-159535000D03*
X225070000Y-159535000D03*
D45*
X225720000Y-159335000D03*
X226370000Y-159335000D03*
D46*
X227020000Y-159535000D03*
D47*
X227920000Y-159335000D03*
X227920000Y-158835000D03*
D48*
X227720000Y-158335000D03*
X227720000Y-157835000D03*
D47*
X227920000Y-157335000D03*
X227920000Y-156835000D03*
D49*
X224220000Y-157085000D03*
X224220000Y-159085000D03*
%TD*%
D13*
%TO.C,C21*%
X202575000Y-117825000D03*
X204275000Y-117825000D03*
%TD*%
D28*
%TO.C,D10*%
X213250000Y-115750000D03*
X214950000Y-115750000D03*
%TD*%
D22*
%TO.C,Q8*%
X176350000Y-126250000D03*
X176350000Y-128150000D03*
X178350000Y-127200000D03*
%TD*%
D16*
%TO.C,R36*%
X209275000Y-155198250D03*
X207575000Y-155198250D03*
%TD*%
D30*
%TO.C,R62*%
X197700000Y-158975000D03*
X197700000Y-157275000D03*
%TD*%
D28*
%TO.C,D6*%
X204545000Y-164930000D03*
X206245000Y-164930000D03*
%TD*%
D15*
%TO.C,D1*%
X176500000Y-152550000D03*
X173700000Y-152550000D03*
%TD*%
D17*
%TO.C,R11*%
X191525000Y-172000000D03*
X189525000Y-172000000D03*
%TD*%
D16*
%TO.C,D3*%
X185150000Y-160800000D03*
X183450000Y-160800000D03*
%TD*%
D13*
%TO.C,C16*%
X205130000Y-160880000D03*
X206830000Y-160880000D03*
%TD*%
D16*
%TO.C,R2*%
X169575000Y-155875000D03*
X167875000Y-155875000D03*
%TD*%
D12*
%TO.C,R40*%
X226150000Y-163240000D03*
X226150000Y-164940000D03*
%TD*%
D44*
%TO.C,U6*%
X207425000Y-156700000D03*
D45*
X206775000Y-156850000D03*
X206125000Y-156850000D03*
D46*
X205475000Y-156650000D03*
X204625000Y-156650000D03*
X203775000Y-156650000D03*
X203775000Y-159550000D03*
X204625000Y-159550000D03*
X205475000Y-159550000D03*
D45*
X206125000Y-159350000D03*
X206775000Y-159350000D03*
D46*
X207425000Y-159550000D03*
D47*
X208325000Y-159350000D03*
X208325000Y-158850000D03*
D48*
X208125000Y-158350000D03*
X208125000Y-157850000D03*
D47*
X208325000Y-157350000D03*
X208325000Y-156850000D03*
D49*
X204625000Y-157100000D03*
X204625000Y-159100000D03*
%TD*%
D11*
%TO.C,C36*%
X178975000Y-148000000D03*
X178975000Y-146300000D03*
%TD*%
D30*
%TO.C,R17*%
X172275000Y-148600000D03*
X172275000Y-146900000D03*
%TD*%
D14*
%TO.C,R52*%
X181950000Y-128400000D03*
X181950000Y-126400000D03*
%TD*%
D50*
%TO.C,J7*%
X153344600Y-138525000D03*
D51*
X165475000Y-126340000D03*
D52*
X164680000Y-138425000D03*
X153200000Y-123735000D03*
D51*
X165475000Y-134120000D03*
D53*
X152724600Y-134180000D03*
X152724600Y-133080000D03*
X152724600Y-131980000D03*
X152724600Y-130880000D03*
X152724600Y-129780000D03*
X152724600Y-128680000D03*
X152724600Y-127580000D03*
X152724600Y-126460000D03*
D54*
X155450000Y-124585000D03*
D55*
X164350000Y-124560000D03*
%TD*%
D28*
%TO.C,D7*%
X222300000Y-164940000D03*
X224000000Y-164940000D03*
%TD*%
D56*
%TO.C,U14*%
X156529200Y-139999999D03*
X156529200Y-140500000D03*
X156529200Y-141000000D03*
X156529200Y-141500001D03*
X159470800Y-141500001D03*
X159470800Y-141000000D03*
X159470800Y-140500000D03*
X159470800Y-139999999D03*
D41*
X158000000Y-140750000D03*
%TD*%
D28*
%TO.C,D11*%
X222250000Y-115700000D03*
X223950000Y-115700000D03*
%TD*%
D11*
%TO.C,C30*%
X160900000Y-141600000D03*
X160900000Y-139900000D03*
%TD*%
D12*
%TO.C,R22*%
X195950000Y-168425000D03*
X195950000Y-170125000D03*
%TD*%
D21*
%TO.C,C23*%
X234575000Y-159480000D03*
X234575000Y-157480000D03*
%TD*%
D28*
%TO.C,R24*%
X180500000Y-122162500D03*
X182200000Y-122162500D03*
%TD*%
D30*
%TO.C,R53*%
X154700000Y-141700000D03*
X154700000Y-140000000D03*
%TD*%
D16*
%TO.C,D5*%
X201800000Y-139200000D03*
X200100000Y-139200000D03*
%TD*%
%TO.C,R30*%
X221625000Y-157100000D03*
X219925000Y-157100000D03*
%TD*%
%TO.C,R49*%
X175000000Y-128200000D03*
X173300000Y-128200000D03*
%TD*%
D13*
%TO.C,C8*%
X186300000Y-122150000D03*
X188000000Y-122150000D03*
%TD*%
%TO.C,C3*%
X185100000Y-177750000D03*
X183400000Y-177750000D03*
%TD*%
D43*
%TO.C,C12*%
X220225000Y-158450000D03*
X220225000Y-160450000D03*
%TD*%
D16*
%TO.C,R34*%
X219525000Y-155298250D03*
X217825000Y-155298250D03*
%TD*%
%TO.C,D4*%
X185200000Y-104850000D03*
X183500000Y-104850000D03*
%TD*%
%TO.C,R33*%
X225820000Y-155285000D03*
X224120000Y-155285000D03*
%TD*%
%TO.C,R38*%
X224850000Y-163340000D03*
X223150000Y-163340000D03*
%TD*%
D57*
%TO.C,J2*%
X152500000Y-144400000D03*
D58*
X152500000Y-147000000D03*
D59*
X155000000Y-151300000D03*
X155050000Y-145100000D03*
D58*
X152500000Y-149400000D03*
D57*
X152500000Y-152000000D03*
D60*
X155200000Y-146900000D03*
X155200000Y-147550000D03*
X155200000Y-148200000D03*
X155200000Y-148850000D03*
X155200000Y-149500000D03*
%TD*%
D61*
%TO.C,U34*%
X182105000Y-149975000D03*
X180835000Y-149975000D03*
X179565000Y-149975000D03*
X178295000Y-149975000D03*
X178295000Y-154925000D03*
X179565000Y-154925000D03*
X180835000Y-154925000D03*
X182105000Y-154925000D03*
%TD*%
D16*
%TO.C,R41*%
X216105000Y-163190000D03*
X214405000Y-163190000D03*
%TD*%
D44*
%TO.C,U5*%
X217775000Y-156698250D03*
D45*
X217125000Y-156848250D03*
X216475000Y-156848250D03*
D46*
X215825000Y-156648250D03*
X214975000Y-156648250D03*
X214125000Y-156648250D03*
X214125000Y-159548250D03*
X214975000Y-159548250D03*
X215825000Y-159548250D03*
D45*
X216475000Y-159348250D03*
X217125000Y-159348250D03*
D46*
X217775000Y-159548250D03*
D47*
X218675000Y-159348250D03*
X218675000Y-158848250D03*
D48*
X218475000Y-158348250D03*
X218475000Y-157848250D03*
D47*
X218675000Y-157348250D03*
X218675000Y-156848250D03*
D49*
X214975000Y-157098250D03*
X214975000Y-159098250D03*
%TD*%
D28*
%TO.C,D8*%
X213380000Y-164940000D03*
X215080000Y-164940000D03*
%TD*%
D16*
%TO.C,R6*%
X194800000Y-177100000D03*
X193100000Y-177100000D03*
%TD*%
D30*
%TO.C,R9*%
X181350000Y-106600000D03*
X181350000Y-104900000D03*
%TD*%
D38*
%TO.C,U8*%
X205135000Y-132675000D03*
D39*
X210450000Y-121100000D03*
X204900000Y-125950000D03*
D38*
X207675000Y-132675000D03*
D39*
X204900000Y-121100000D03*
X210450000Y-125950000D03*
D38*
X210215000Y-132675000D03*
%TD*%
D12*
%TO.C,R58*%
X209795000Y-163230000D03*
X209795000Y-164930000D03*
%TD*%
D11*
%TO.C,C31*%
X169475000Y-146875000D03*
X169475000Y-148575000D03*
%TD*%
D16*
%TO.C,R16*%
X207095000Y-163230000D03*
X205395000Y-163230000D03*
%TD*%
D12*
%TO.C,R39*%
X227550000Y-163240000D03*
X227550000Y-164940000D03*
%TD*%
D30*
%TO.C,R5*%
X181400000Y-162550000D03*
X181400000Y-160850000D03*
%TD*%
D38*
%TO.C,U9*%
X219010000Y-132725000D03*
X221550000Y-132725000D03*
D39*
X224325000Y-121150000D03*
X224325000Y-126000000D03*
X218775000Y-126000000D03*
X218775000Y-121150000D03*
D38*
X224090000Y-132725000D03*
%TD*%
D43*
%TO.C,C11*%
X229470000Y-158285000D03*
X229470000Y-160285000D03*
%TD*%
D15*
%TO.C,D12*%
X180925000Y-147800000D03*
X180925000Y-145000000D03*
%TD*%
M02*
