%TF.GenerationSoftware,KiCad,Pcbnew,(6.0.10-0)*%
%TF.CreationDate,2023-02-23T20:38:25-08:00*%
%TF.ProjectId,1.0,312e302e-6b69-4636-9164-5f7063625858,rev?*%
%TF.SameCoordinates,Original*%
%TF.FileFunction,Soldermask,Bot*%
%TF.FilePolarity,Negative*%
%FSLAX46Y46*%
G04 Gerber Fmt 4.6, Leading zero omitted, Abs format (unit mm)*
G04 Created by KiCad (PCBNEW (6.0.10-0)) date 2023-02-23 20:38:25*
%MOMM*%
%LPD*%
G01*
G04 APERTURE LIST*
G04 Aperture macros list*
%AMFreePoly0*
4,1,22,0.550000,-0.750000,0.000000,-0.750000,0.000000,-0.745033,-0.079941,-0.743568,-0.215256,-0.701293,-0.333266,-0.622738,-0.424486,-0.514219,-0.481581,-0.384460,-0.499164,-0.250000,-0.500000,-0.250000,-0.500000,0.250000,-0.499164,0.250000,-0.499963,0.256109,-0.478152,0.396186,-0.417904,0.524511,-0.324060,0.630769,-0.204165,0.706417,-0.067858,0.745374,0.000000,0.744959,0.000000,0.750000,
0.550000,0.750000,0.550000,-0.750000,0.550000,-0.750000,$1*%
%AMFreePoly1*
4,1,20,0.000000,0.744959,0.073905,0.744508,0.209726,0.703889,0.328688,0.626782,0.421226,0.519385,0.479903,0.390333,0.500000,0.250000,0.500000,-0.250000,0.499851,-0.262216,0.476331,-0.402017,0.414519,-0.529596,0.319384,-0.634700,0.198574,-0.708877,0.061801,-0.746166,0.000000,-0.745033,0.000000,-0.750000,-0.550000,-0.750000,-0.550000,0.750000,0.000000,0.750000,0.000000,0.744959,
0.000000,0.744959,$1*%
G04 Aperture macros list end*
%ADD10R,3.800000X3.800000*%
%ADD11C,4.000000*%
%ADD12R,1.500000X1.500000*%
%ADD13C,3.250000*%
%ADD14C,3.000000*%
%ADD15C,1.000000*%
%ADD16O,2.600000X1.300000*%
%ADD17R,4.916000X4.916000*%
%ADD18C,4.916000*%
%ADD19R,2.000000X2.000000*%
%ADD20C,2.000000*%
%ADD21R,1.800000X1.200000*%
%ADD22R,1.550000X0.600000*%
%ADD23R,5.000000X4.000000*%
%ADD24FreePoly0,90.000000*%
%ADD25R,1.500000X1.000000*%
%ADD26FreePoly1,90.000000*%
G04 APERTURE END LIST*
D10*
%TO.C,U22*%
X223200000Y-106150000D03*
D11*
X223200000Y-111150000D03*
%TD*%
D12*
%TO.C,P2*%
X174800000Y-130600000D03*
%TD*%
D10*
%TO.C,U17*%
X223200000Y-174150000D03*
D11*
X223200000Y-169150000D03*
%TD*%
D10*
%TO.C,U20*%
X205200000Y-106150000D03*
D11*
X205200000Y-111150000D03*
%TD*%
D13*
%TO.C,J10*%
X317800000Y-111130000D03*
X306400000Y-111130000D03*
D14*
X317800000Y-118430000D03*
X312100000Y-118430000D03*
X306400000Y-118430000D03*
%TD*%
D12*
%TO.C,P1*%
X177775000Y-130600000D03*
%TD*%
D10*
%TO.C,U23*%
X235400000Y-174200000D03*
D11*
X235400000Y-169200000D03*
%TD*%
D14*
%TO.C,C5*%
X196840000Y-152530000D03*
X196790000Y-147530000D03*
%TD*%
D10*
%TO.C,U18*%
X214200000Y-174150000D03*
D11*
X214200000Y-169150000D03*
%TD*%
D13*
%TO.C,J12*%
X341090000Y-169195000D03*
X329690000Y-169195000D03*
D14*
X329690000Y-161895000D03*
X335390000Y-161895000D03*
X341090000Y-161895000D03*
%TD*%
D15*
%TO.C,U1*%
X171545000Y-136060039D03*
X175355000Y-136060039D03*
%TD*%
D14*
%TO.C,C10*%
X195750000Y-125840000D03*
X195800000Y-130840000D03*
%TD*%
D16*
%TO.C,U16*%
X166890000Y-102560000D03*
X166890000Y-121460000D03*
D17*
X176290000Y-117460000D03*
D18*
X176290000Y-106560000D03*
%TD*%
D13*
%TO.C,J13*%
X270290000Y-169295000D03*
X258890000Y-169295000D03*
D14*
X258890000Y-161995000D03*
X264590000Y-161995000D03*
X270290000Y-161995000D03*
%TD*%
%TO.C,C9*%
X276300000Y-127700000D03*
X276350000Y-132700000D03*
%TD*%
D13*
%TO.C,J15*%
X317630000Y-169250000D03*
X306230000Y-169250000D03*
D14*
X306230000Y-161950000D03*
X311930000Y-161950000D03*
X317630000Y-161950000D03*
%TD*%
%TO.C,C6*%
X276175000Y-147600000D03*
X276225000Y-152600000D03*
%TD*%
D10*
%TO.C,U24*%
X235400000Y-106150000D03*
D11*
X235400000Y-111150000D03*
%TD*%
D10*
%TO.C,U25*%
X244400000Y-106150000D03*
D11*
X244400000Y-111150000D03*
%TD*%
D13*
%TO.C,J9*%
X282785000Y-111355000D03*
X294185000Y-111355000D03*
D14*
X294185000Y-118655000D03*
X288485000Y-118655000D03*
X282785000Y-118655000D03*
%TD*%
D13*
%TO.C,J8*%
X270310000Y-111405000D03*
X258910000Y-111405000D03*
D14*
X270310000Y-118705000D03*
X264610000Y-118705000D03*
X258910000Y-118705000D03*
%TD*%
D16*
%TO.C,U15*%
X166950000Y-158500000D03*
X166950000Y-177400000D03*
D17*
X176350000Y-173400000D03*
D18*
X176350000Y-162500000D03*
%TD*%
D10*
%TO.C,U19*%
X205200000Y-174150000D03*
D11*
X205200000Y-169150000D03*
%TD*%
D10*
%TO.C,U21*%
X214200000Y-106150000D03*
D11*
X214200000Y-111150000D03*
%TD*%
D19*
%TO.C,SP1*%
X188550000Y-135550000D03*
D20*
X188550000Y-143150000D03*
%TD*%
D13*
%TO.C,J14*%
X294109169Y-169150000D03*
X282709169Y-169150000D03*
D14*
X282709169Y-161850000D03*
X288409169Y-161850000D03*
X294109169Y-161850000D03*
%TD*%
D13*
%TO.C,J11*%
X341015831Y-110950000D03*
X329615831Y-110950000D03*
D14*
X341015831Y-118250000D03*
X335315831Y-118250000D03*
X329615831Y-118250000D03*
%TD*%
D19*
%TO.C,TP11*%
X163200000Y-146400000D03*
%TD*%
D21*
%TO.C,J4*%
X152162500Y-155100000D03*
X152162500Y-149500000D03*
D22*
X156037500Y-153800000D03*
X156037500Y-152800000D03*
X156037500Y-151800000D03*
X156037500Y-150800000D03*
%TD*%
D23*
%TO.C,U27*%
X282510831Y-136805000D03*
X294110831Y-136805000D03*
X282510831Y-103405000D03*
X288310831Y-103405000D03*
X294110831Y-103405000D03*
%TD*%
%TO.C,U32*%
X294219169Y-143505000D03*
X282619169Y-143505000D03*
X294219169Y-176905000D03*
X288419169Y-176905000D03*
X282619169Y-176905000D03*
%TD*%
%TO.C,U33*%
X317819169Y-143355000D03*
X306219169Y-143355000D03*
X317819169Y-176755000D03*
X312019169Y-176755000D03*
X306219169Y-176755000D03*
%TD*%
%TO.C,U31*%
X270420831Y-143555000D03*
X258820831Y-143555000D03*
X270420831Y-176955000D03*
X264620831Y-176955000D03*
X258820831Y-176955000D03*
%TD*%
D24*
%TO.C,JP2*%
X158800000Y-155300000D03*
D25*
X158800000Y-154000000D03*
D26*
X158800000Y-152700000D03*
%TD*%
D19*
%TO.C,TP13*%
X163200000Y-138850000D03*
%TD*%
D23*
%TO.C,U29*%
X329526662Y-136745000D03*
X341126662Y-136745000D03*
X329526662Y-103345000D03*
X335326662Y-103345000D03*
X341126662Y-103345000D03*
%TD*%
%TO.C,U26*%
X258805831Y-136845000D03*
X270405831Y-136845000D03*
X258805831Y-103445000D03*
X264605831Y-103445000D03*
X270405831Y-103445000D03*
%TD*%
D19*
%TO.C,TP5*%
X153560000Y-116570000D03*
%TD*%
%TO.C,TP6*%
X153560000Y-118770000D03*
%TD*%
%TO.C,TP4*%
X169875000Y-146400000D03*
%TD*%
D21*
%TO.C,J3*%
X152262500Y-147000000D03*
X152262500Y-141400000D03*
D22*
X156137500Y-145700000D03*
X156137500Y-144700000D03*
X156137500Y-143700000D03*
X156137500Y-142700000D03*
%TD*%
D23*
%TO.C,U30*%
X341150000Y-143400000D03*
X329550000Y-143400000D03*
X341150000Y-176800000D03*
X335350000Y-176800000D03*
X329550000Y-176800000D03*
%TD*%
D19*
%TO.C,TP7*%
X169875000Y-148800000D03*
%TD*%
%TO.C,TP9*%
X153570000Y-121060000D03*
%TD*%
%TO.C,TP12*%
X167050000Y-144000000D03*
%TD*%
%TO.C,TP3*%
X167050000Y-146400000D03*
%TD*%
%TO.C,TP14*%
X163200000Y-144000000D03*
%TD*%
%TO.C,TP10*%
X153560000Y-114370000D03*
%TD*%
D23*
%TO.C,U28*%
X306188338Y-136885000D03*
X317788338Y-136885000D03*
X306188338Y-103485000D03*
X311988338Y-103485000D03*
X317788338Y-103485000D03*
%TD*%
D19*
%TO.C,TP15*%
X163225000Y-148800000D03*
%TD*%
%TO.C,TP16*%
X187500000Y-140000000D03*
%TD*%
D21*
%TO.C,J6*%
X152262500Y-138800000D03*
X152262500Y-133200000D03*
D22*
X156137500Y-137500000D03*
X156137500Y-136500000D03*
X156137500Y-135500000D03*
X156137500Y-134500000D03*
%TD*%
D24*
%TO.C,JP1*%
X158800000Y-146925000D03*
D25*
X158800000Y-145625000D03*
D26*
X158800000Y-144325000D03*
%TD*%
D19*
%TO.C,TP8*%
X169900000Y-144025000D03*
%TD*%
D21*
%TO.C,J5*%
X152262500Y-130700000D03*
X152262500Y-125100000D03*
D22*
X156137500Y-129400000D03*
X156137500Y-128400000D03*
X156137500Y-127400000D03*
X156137500Y-126400000D03*
%TD*%
M02*
