%TF.GenerationSoftware,KiCad,Pcbnew,(6.0.10-0)*%
%TF.CreationDate,2023-02-23T20:38:24-08:00*%
%TF.ProjectId,1.0,312e302e-6b69-4636-9164-5f7063625858,rev?*%
%TF.SameCoordinates,Original*%
%TF.FileFunction,Copper,L1,Top*%
%TF.FilePolarity,Positive*%
%FSLAX46Y46*%
G04 Gerber Fmt 4.6, Leading zero omitted, Abs format (unit mm)*
G04 Created by KiCad (PCBNEW (6.0.10-0)) date 2023-02-23 20:38:24*
%MOMM*%
%LPD*%
G01*
G04 APERTURE LIST*
G04 Aperture macros list*
%AMRoundRect*
0 Rectangle with rounded corners*
0 $1 Rounding radius*
0 $2 $3 $4 $5 $6 $7 $8 $9 X,Y pos of 4 corners*
0 Add a 4 corners polygon primitive as box body*
4,1,4,$2,$3,$4,$5,$6,$7,$8,$9,$2,$3,0*
0 Add four circle primitives for the rounded corners*
1,1,$1+$1,$2,$3*
1,1,$1+$1,$4,$5*
1,1,$1+$1,$6,$7*
1,1,$1+$1,$8,$9*
0 Add four rect primitives between the rounded corners*
20,1,$1+$1,$2,$3,$4,$5,0*
20,1,$1+$1,$4,$5,$6,$7,0*
20,1,$1+$1,$6,$7,$8,$9,0*
20,1,$1+$1,$8,$9,$2,$3,0*%
%AMFreePoly0*
4,1,37,1.753536,1.228536,1.755000,1.225000,1.755000,0.725000,1.753536,0.721464,1.750000,0.720000,1.345000,0.720000,1.345000,0.580000,1.750000,0.580000,1.753536,0.578536,1.755000,0.575000,1.755000,0.075000,1.753536,0.071464,1.750000,0.070000,1.345000,0.070000,1.345000,-0.070000,1.750000,-0.070000,1.753536,-0.071464,1.755000,-0.075000,1.755000,-0.575000,1.753536,-0.578536,
1.750000,-0.580000,1.345000,-0.580000,1.345000,-0.720000,1.750000,-0.720000,1.753536,-0.721464,1.755000,-0.725000,1.755000,-1.225000,1.753536,-1.228536,1.750000,-1.230000,-0.560000,-1.230000,-0.563536,-1.228536,-0.565000,-1.225000,-0.565000,1.225000,-0.563536,1.228536,-0.560000,1.230000,1.750000,1.230000,1.753536,1.228536,1.753536,1.228536,$1*%
G04 Aperture macros list end*
%TA.AperFunction,ComponentPad*%
%ADD10R,3.800000X3.800000*%
%TD*%
%TA.AperFunction,ComponentPad*%
%ADD11C,4.000000*%
%TD*%
%TA.AperFunction,SMDPad,CuDef*%
%ADD12R,0.800000X0.600000*%
%TD*%
%TA.AperFunction,SMDPad,CuDef*%
%ADD13RoundRect,0.150000X-0.250000X0.150000X-0.250000X-0.150000X0.250000X-0.150000X0.250000X0.150000X0*%
%TD*%
%TA.AperFunction,SMDPad,CuDef*%
%ADD14R,0.600000X0.800000*%
%TD*%
%TA.AperFunction,SMDPad,CuDef*%
%ADD15R,1.200000X0.700000*%
%TD*%
%TA.AperFunction,SMDPad,CuDef*%
%ADD16R,1.100000X1.100000*%
%TD*%
%TA.AperFunction,SMDPad,CuDef*%
%ADD17RoundRect,0.150000X0.150000X0.250000X-0.150000X0.250000X-0.150000X-0.250000X0.150000X-0.250000X0*%
%TD*%
%TA.AperFunction,SMDPad,CuDef*%
%ADD18R,0.700000X1.200000*%
%TD*%
%TA.AperFunction,ComponentPad*%
%ADD19R,1.500000X1.500000*%
%TD*%
%TA.AperFunction,SMDPad,CuDef*%
%ADD20RoundRect,0.175000X0.175000X0.425000X-0.175000X0.425000X-0.175000X-0.425000X0.175000X-0.425000X0*%
%TD*%
%TA.AperFunction,SMDPad,CuDef*%
%ADD21R,1.800000X1.200000*%
%TD*%
%TA.AperFunction,SMDPad,CuDef*%
%ADD22R,1.550000X0.600000*%
%TD*%
%TA.AperFunction,SMDPad,CuDef*%
%ADD23RoundRect,0.175000X0.425000X-0.175000X0.425000X0.175000X-0.425000X0.175000X-0.425000X-0.175000X0*%
%TD*%
%TA.AperFunction,SMDPad,CuDef*%
%ADD24R,0.900000X0.800000*%
%TD*%
%TA.AperFunction,SMDPad,CuDef*%
%ADD25R,4.600000X1.100000*%
%TD*%
%TA.AperFunction,SMDPad,CuDef*%
%ADD26R,4.550000X5.250000*%
%TD*%
%TA.AperFunction,SMDPad,CuDef*%
%ADD27R,9.400000X10.800000*%
%TD*%
%TA.AperFunction,SMDPad,CuDef*%
%ADD28R,0.500000X0.630000*%
%TD*%
%TA.AperFunction,SMDPad,CuDef*%
%ADD29FreePoly0,90.000000*%
%TD*%
%TA.AperFunction,SMDPad,CuDef*%
%ADD30FreePoly0,270.000000*%
%TD*%
%TA.AperFunction,ComponentPad*%
%ADD31C,3.000000*%
%TD*%
%TA.AperFunction,SMDPad,CuDef*%
%ADD32R,0.500000X1.600000*%
%TD*%
%TA.AperFunction,SMDPad,CuDef*%
%ADD33R,0.900000X0.600000*%
%TD*%
%TA.AperFunction,SMDPad,CuDef*%
%ADD34R,1.800000X1.700000*%
%TD*%
%TA.AperFunction,SMDPad,CuDef*%
%ADD35RoundRect,0.150000X-0.150000X-0.250000X0.150000X-0.250000X0.150000X0.250000X-0.150000X0.250000X0*%
%TD*%
%TA.AperFunction,SMDPad,CuDef*%
%ADD36R,0.800000X0.900000*%
%TD*%
%TA.AperFunction,SMDPad,CuDef*%
%ADD37RoundRect,0.150000X0.250000X-0.150000X0.250000X0.150000X-0.250000X0.150000X-0.250000X-0.150000X0*%
%TD*%
%TA.AperFunction,SMDPad,CuDef*%
%ADD38R,0.760000X2.600000*%
%TD*%
%TA.AperFunction,SMDPad,CuDef*%
%ADD39R,1.000000X0.900000*%
%TD*%
%TA.AperFunction,SMDPad,CuDef*%
%ADD40R,0.550000X1.700000*%
%TD*%
%TA.AperFunction,ComponentPad*%
%ADD41O,2.600000X1.300000*%
%TD*%
%TA.AperFunction,ComponentPad*%
%ADD42R,4.916000X4.916000*%
%TD*%
%TA.AperFunction,ComponentPad*%
%ADD43C,4.916000*%
%TD*%
%TA.AperFunction,SMDPad,CuDef*%
%ADD44R,1.000000X1.000000*%
%TD*%
%TA.AperFunction,SMDPad,CuDef*%
%ADD45R,0.850000X0.300000*%
%TD*%
%TA.AperFunction,SMDPad,CuDef*%
%ADD46R,0.300000X0.850000*%
%TD*%
%TA.AperFunction,SMDPad,CuDef*%
%ADD47R,5.250000X5.250000*%
%TD*%
%TA.AperFunction,SMDPad,CuDef*%
%ADD48R,1.100000X4.600000*%
%TD*%
%TA.AperFunction,SMDPad,CuDef*%
%ADD49R,5.250000X4.550000*%
%TD*%
%TA.AperFunction,SMDPad,CuDef*%
%ADD50R,10.800000X9.400000*%
%TD*%
%TA.AperFunction,SMDPad,CuDef*%
%ADD51R,0.254800X0.757199*%
%TD*%
%TA.AperFunction,SMDPad,CuDef*%
%ADD52R,1.600200X1.600200*%
%TD*%
%TA.AperFunction,SMDPad,CuDef*%
%ADD53RoundRect,0.150000X0.825000X0.150000X-0.825000X0.150000X-0.825000X-0.150000X0.825000X-0.150000X0*%
%TD*%
%TA.AperFunction,SMDPad,CuDef*%
%ADD54RoundRect,0.175000X-0.425000X0.175000X-0.425000X-0.175000X0.425000X-0.175000X0.425000X0.175000X0*%
%TD*%
%TA.AperFunction,SMDPad,CuDef*%
%ADD55R,0.250000X0.800000*%
%TD*%
%TA.AperFunction,SMDPad,CuDef*%
%ADD56R,0.250000X1.100000*%
%TD*%
%TA.AperFunction,SMDPad,CuDef*%
%ADD57R,0.250000X0.700000*%
%TD*%
%TA.AperFunction,SMDPad,CuDef*%
%ADD58R,0.700000X0.250000*%
%TD*%
%TA.AperFunction,SMDPad,CuDef*%
%ADD59R,1.100000X0.250000*%
%TD*%
%TA.AperFunction,SMDPad,CuDef*%
%ADD60R,1.950000X0.600000*%
%TD*%
%TA.AperFunction,SMDPad,CuDef*%
%ADD61R,2.500000X0.950000*%
%TD*%
%TA.AperFunction,SMDPad,CuDef*%
%ADD62R,1.150000X1.500000*%
%TD*%
%TA.AperFunction,SMDPad,CuDef*%
%ADD63R,2.200000X1.150000*%
%TD*%
%TA.AperFunction,SMDPad,CuDef*%
%ADD64R,1.240000X0.800000*%
%TD*%
%TA.AperFunction,SMDPad,CuDef*%
%ADD65R,1.250000X1.250000*%
%TD*%
%TA.AperFunction,SMDPad,CuDef*%
%ADD66R,1.200000X1.200000*%
%TD*%
%TA.AperFunction,SMDPad,CuDef*%
%ADD67R,0.757199X0.254800*%
%TD*%
%TA.AperFunction,ComponentPad*%
%ADD68R,2.000000X2.000000*%
%TD*%
%TA.AperFunction,ComponentPad*%
%ADD69C,2.000000*%
%TD*%
%TA.AperFunction,SMDPad,CuDef*%
%ADD70R,1.900000X1.800000*%
%TD*%
%TA.AperFunction,SMDPad,CuDef*%
%ADD71R,1.900000X1.900000*%
%TD*%
%TA.AperFunction,SMDPad,CuDef*%
%ADD72R,1.600000X2.100000*%
%TD*%
%TA.AperFunction,SMDPad,CuDef*%
%ADD73R,1.300000X0.400000*%
%TD*%
%TA.AperFunction,SMDPad,CuDef*%
%ADD74RoundRect,0.150000X-0.150000X0.825000X-0.150000X-0.825000X0.150000X-0.825000X0.150000X0.825000X0*%
%TD*%
%TA.AperFunction,ViaPad*%
%ADD75C,0.600000*%
%TD*%
%TA.AperFunction,ViaPad*%
%ADD76C,3.500000*%
%TD*%
%TA.AperFunction,ViaPad*%
%ADD77C,2.500000*%
%TD*%
%TA.AperFunction,ViaPad*%
%ADD78C,2.000000*%
%TD*%
%TA.AperFunction,ViaPad*%
%ADD79C,0.500000*%
%TD*%
%TA.AperFunction,Conductor*%
%ADD80C,0.250000*%
%TD*%
%TA.AperFunction,Conductor*%
%ADD81C,0.350000*%
%TD*%
%TA.AperFunction,Conductor*%
%ADD82C,1.000000*%
%TD*%
%TA.AperFunction,Conductor*%
%ADD83C,2.500000*%
%TD*%
%TA.AperFunction,Conductor*%
%ADD84C,0.200000*%
%TD*%
G04 APERTURE END LIST*
D10*
%TO.P,U22,1,-*%
%TO.N,GND*%
X223200000Y-106150000D03*
D11*
%TO.P,U22,2,+*%
%TO.N,5V_3*%
X223200000Y-111150000D03*
%TD*%
D12*
%TO.P,C22,1*%
%TO.N,5V_2*%
X215050000Y-120900000D03*
%TO.P,C22,2*%
%TO.N,GND*%
X215050000Y-119200000D03*
%TD*%
D13*
%TO.P,R18,1*%
%TO.N,/batt_ctl/BATT_1_VSENSE*%
X170850000Y-146900000D03*
%TO.P,R18,2*%
%TO.N,GNDD*%
X170850000Y-148600000D03*
%TD*%
D14*
%TO.P,C29,1*%
%TO.N,GNDD*%
X227340000Y-150630000D03*
%TO.P,C29,2*%
%TO.N,+3V3*%
X229040000Y-150630000D03*
%TD*%
D15*
%TO.P,R51,1*%
%TO.N,+5V*%
X180150000Y-128400000D03*
%TO.P,R51,2*%
%TO.N,Net-(Q8-Pad3)*%
X180150000Y-126400000D03*
%TD*%
D16*
%TO.P,D2,1,K*%
%TO.N,Net-(C33-Pad2)*%
X176500000Y-155000000D03*
%TO.P,D2,2,A*%
%TO.N,BATT_1_PWR*%
X173700000Y-155000000D03*
%TD*%
D17*
%TO.P,R1,1*%
%TO.N,+3V3*%
X166650000Y-155850000D03*
%TO.P,R1,2*%
%TO.N,/processor/FLASH_CS*%
X164950000Y-155850000D03*
%TD*%
%TO.P,R45,1*%
%TO.N,+5V*%
X209300000Y-115750000D03*
%TO.P,R45,2*%
%TO.N,Net-(D9-Pad2)*%
X207600000Y-115750000D03*
%TD*%
D14*
%TO.P,C20,1*%
%TO.N,5V_3*%
X220975000Y-139675000D03*
%TO.P,C20,2*%
%TO.N,GND*%
X222675000Y-139675000D03*
%TD*%
D18*
%TO.P,R25,1*%
%TO.N,/batt_ctl/BATT_2_CTL*%
X191500000Y-120725000D03*
%TO.P,R25,2*%
%TO.N,Net-(R25-Pad2)*%
X189500000Y-120725000D03*
%TD*%
D14*
%TO.P,C14,1*%
%TO.N,3-3V_1*%
X223750000Y-160940000D03*
%TO.P,C14,2*%
%TO.N,GND*%
X225450000Y-160940000D03*
%TD*%
D12*
%TO.P,C32,1*%
%TO.N,+3V3*%
X158200000Y-148750000D03*
%TO.P,C32,2*%
%TO.N,GNDD*%
X158200000Y-147050000D03*
%TD*%
D19*
%TO.P,P2,1,1*%
%TO.N,/~{RESET_RAW}*%
X174800000Y-130600000D03*
%TD*%
D10*
%TO.P,U17,1,-*%
%TO.N,GND*%
X223200000Y-174150000D03*
D11*
%TO.P,U17,2,+*%
%TO.N,3-3V_1*%
X223200000Y-169150000D03*
%TD*%
D20*
%TO.P,C19,1*%
%TO.N,+BATT*%
X224100000Y-136350000D03*
%TO.P,C19,2*%
%TO.N,GND*%
X222100000Y-136350000D03*
%TD*%
D13*
%TO.P,R59,1*%
%TO.N,3-3V_3*%
X208395000Y-163230000D03*
%TO.P,R59,2*%
%TO.N,Net-(D6-Pad2)*%
X208395000Y-164930000D03*
%TD*%
D21*
%TO.P,J1,*%
%TO.N,*%
X170477500Y-124800000D03*
X170477500Y-130400000D03*
D22*
%TO.P,J1,1*%
%TO.N,/RESET*%
X167952500Y-129100000D03*
%TO.P,J1,2*%
%TO.N,/SERIAL1_TX*%
X167952500Y-128100000D03*
%TO.P,J1,3*%
%TO.N,/SERIAL1_RX*%
X167952500Y-127100000D03*
%TO.P,J1,4*%
%TO.N,GNDD*%
X167952500Y-126100000D03*
%TD*%
D23*
%TO.P,C25,1*%
%TO.N,+BATT*%
X234475000Y-145025000D03*
%TO.P,C25,2*%
%TO.N,GND*%
X234475000Y-143025000D03*
%TD*%
D24*
%TO.P,Q1,1,B*%
%TO.N,Net-(Q1-Pad1)*%
X169675000Y-152025000D03*
%TO.P,Q1,2,E*%
%TO.N,GNDD*%
X169675000Y-153925000D03*
%TO.P,Q1,3,C*%
%TO.N,/~{RESET_RAW}*%
X171675000Y-152975000D03*
%TD*%
D25*
%TO.P,U12,1,ADJ*%
%TO.N,GND*%
X238200000Y-140035000D03*
D26*
%TO.P,U12,2,VOUT*%
%TO.N,12V_3*%
X244925000Y-145350000D03*
D27*
X247350000Y-142575000D03*
D26*
X249775000Y-139800000D03*
X244925000Y-139800000D03*
X249775000Y-145350000D03*
D25*
X238200000Y-142575000D03*
%TO.P,U12,3,VIN*%
%TO.N,+BATT*%
X238200000Y-145115000D03*
%TD*%
D10*
%TO.P,U20,1,-*%
%TO.N,GND*%
X205200000Y-106150000D03*
D11*
%TO.P,U20,2,+*%
%TO.N,+5V*%
X205200000Y-111150000D03*
%TD*%
D28*
%TO.P,Q10,1,S*%
%TO.N,+BATT*%
X190075000Y-111322500D03*
X188775000Y-111322500D03*
X189425000Y-111322500D03*
%TO.P,Q10,2,G*%
%TO.N,Net-(Q10-Pad2)*%
X190725000Y-111322500D03*
D29*
%TO.P,Q10,3,D*%
%TO.N,Net-(Q10-Pad3)*%
X189750000Y-109887500D03*
%TD*%
D17*
%TO.P,R28,1*%
%TO.N,Net-(Q7-Pad3)*%
X194725000Y-116425000D03*
%TO.P,R28,2*%
%TO.N,Net-(R27-Pad1)*%
X193025000Y-116425000D03*
%TD*%
D28*
%TO.P,Q13,1,S*%
%TO.N,+BATT*%
X198350000Y-160165000D03*
X199650000Y-160165000D03*
X199000000Y-160165000D03*
%TO.P,Q13,2,G*%
%TO.N,Net-(Q13-Pad2)*%
X197700000Y-160165000D03*
D30*
%TO.P,Q13,3,D*%
%TO.N,Net-(Q13-Pad3)*%
X198675000Y-161600000D03*
%TD*%
D17*
%TO.P,R44,1*%
%TO.N,+5V*%
X209300000Y-117150000D03*
%TO.P,R44,2*%
%TO.N,Net-(D9-Pad2)*%
X207600000Y-117150000D03*
%TD*%
%TO.P,R10,1*%
%TO.N,Net-(Q2-Pad1)*%
X191200000Y-175000000D03*
%TO.P,R10,2*%
%TO.N,Net-(R10-Pad2)*%
X189500000Y-175000000D03*
%TD*%
D31*
%TO.P,J10,1*%
%TO.N,Net-(J10-Pad1)*%
X317800000Y-118430000D03*
%TO.P,J10,2*%
%TO.N,Net-(J10-Pad2)*%
X312100000Y-118430000D03*
%TO.P,J10,3*%
%TO.N,Net-(J10-Pad3)*%
X306400000Y-118430000D03*
%TD*%
D13*
%TO.P,R55,1*%
%TO.N,Net-(Q10-Pad2)*%
X190775000Y-112525000D03*
%TO.P,R55,2*%
%TO.N,Net-(Q7-Pad3)*%
X190775000Y-114225000D03*
%TD*%
D32*
%TO.P,U2,1,VCC*%
%TO.N,+3V3*%
X182650000Y-175150000D03*
%TO.P,U2,2,GND*%
%TO.N,GNDD*%
X184250000Y-175150000D03*
%TO.P,U2,3,VOUT*%
%TO.N,Net-(C4-Pad2)*%
X185850000Y-175150000D03*
D33*
%TO.P,U2,4,NC*%
%TO.N,unconnected-(U2-Pad4)*%
X187050000Y-172650000D03*
D34*
%TO.P,U2,5,IP+*%
%TO.N,Net-(Q13-Pad3)*%
X185750000Y-170300000D03*
%TO.P,U2,6,IP-*%
%TO.N,BATT_1_PWR*%
X182750000Y-170300000D03*
D33*
%TO.P,U2,7,NC*%
%TO.N,unconnected-(U2-Pad7)*%
X181450000Y-172650000D03*
%TD*%
D35*
%TO.P,R7,1*%
%TO.N,/batt_ctl/BATT_1_CURR*%
X180500000Y-177750000D03*
%TO.P,R7,2*%
%TO.N,Net-(C4-Pad2)*%
X182200000Y-177750000D03*
%TD*%
%TO.P,D9,1,K*%
%TO.N,GND*%
X204500000Y-115750000D03*
%TO.P,D9,2,A*%
%TO.N,Net-(D9-Pad2)*%
X206200000Y-115750000D03*
%TD*%
D17*
%TO.P,R12,1*%
%TO.N,Net-(Q2-Pad3)*%
X194825000Y-172200000D03*
%TO.P,R12,2*%
%TO.N,Net-(R11-Pad1)*%
X193125000Y-172200000D03*
%TD*%
D14*
%TO.P,C28,1*%
%TO.N,+12V*%
X251575000Y-150580000D03*
%TO.P,C28,2*%
%TO.N,GND*%
X249875000Y-150580000D03*
%TD*%
D25*
%TO.P,U7,1,ADJ*%
%TO.N,GND*%
X209125000Y-143535000D03*
D26*
%TO.P,U7,2,VOUT*%
%TO.N,5V_3*%
X215850000Y-148850000D03*
D27*
X218275000Y-146075000D03*
D26*
X220700000Y-148850000D03*
D25*
X209125000Y-146075000D03*
D26*
X220700000Y-143300000D03*
X215850000Y-143300000D03*
D25*
%TO.P,U7,3,VIN*%
%TO.N,+BATT*%
X209125000Y-148615000D03*
%TD*%
D13*
%TO.P,R19,1*%
%TO.N,BATT_2_PWR*%
X172000000Y-143950000D03*
%TO.P,R19,2*%
%TO.N,/batt_ctl/BATT_2_VSENSE*%
X172000000Y-145650000D03*
%TD*%
D12*
%TO.P,C2,1*%
%TO.N,Net-(C2-Pad1)*%
X164775000Y-152625000D03*
%TO.P,C2,2*%
%TO.N,GNDD*%
X164775000Y-154325000D03*
%TD*%
D19*
%TO.P,P1,1,1*%
%TO.N,Net-(P1-Pad1)*%
X177775000Y-130600000D03*
%TD*%
D12*
%TO.P,C33,1*%
%TO.N,GNDD*%
X183725000Y-153375000D03*
%TO.P,C33,2*%
%TO.N,Net-(C33-Pad2)*%
X183725000Y-151675000D03*
%TD*%
D14*
%TO.P,C34,1*%
%TO.N,Net-(C34-Pad1)*%
X176750000Y-150100000D03*
%TO.P,C34,2*%
%TO.N,GNDD*%
X175050000Y-150100000D03*
%TD*%
D28*
%TO.P,Q14,1,S*%
%TO.N,+BATT*%
X198975000Y-167200000D03*
X197675000Y-167200000D03*
X198325000Y-167200000D03*
%TO.P,Q14,2,G*%
%TO.N,Net-(Q14-Pad2)*%
X199625000Y-167200000D03*
D29*
%TO.P,Q14,3,D*%
%TO.N,Net-(Q13-Pad3)*%
X198650000Y-165765000D03*
%TD*%
D13*
%TO.P,R63,1*%
%TO.N,Net-(Q14-Pad2)*%
X199700000Y-168400000D03*
%TO.P,R63,2*%
%TO.N,Net-(Q2-Pad3)*%
X199700000Y-170100000D03*
%TD*%
D36*
%TO.P,Q7,1,B*%
%TO.N,Net-(Q7-Pad1)*%
X193050000Y-119875000D03*
%TO.P,Q7,2,E*%
%TO.N,GNDD*%
X194950000Y-119875000D03*
%TO.P,Q7,3,C*%
%TO.N,Net-(Q7-Pad3)*%
X194000000Y-117875000D03*
%TD*%
D10*
%TO.P,U23,1,-*%
%TO.N,GND*%
X235400000Y-174200000D03*
D11*
%TO.P,U23,2,+*%
%TO.N,+12V*%
X235400000Y-169200000D03*
%TD*%
D37*
%TO.P,R57,1*%
%TO.N,Net-(Q12-Pad2)*%
X192750000Y-103075000D03*
%TO.P,R57,2*%
%TO.N,Net-(Q7-Pad3)*%
X192750000Y-101375000D03*
%TD*%
D17*
%TO.P,R60,1*%
%TO.N,5V_3*%
X226900000Y-117100000D03*
%TO.P,R60,2*%
%TO.N,Net-(D11-Pad2)*%
X225200000Y-117100000D03*
%TD*%
D31*
%TO.P,C5,1*%
%TO.N,+BATT*%
X196840000Y-152530000D03*
%TO.P,C5,2*%
%TO.N,GND*%
X196790000Y-147530000D03*
%TD*%
D20*
%TO.P,C18,1*%
%TO.N,+BATT*%
X210175000Y-136300000D03*
%TO.P,C18,2*%
%TO.N,GND*%
X208175000Y-136300000D03*
%TD*%
D10*
%TO.P,U18,1,-*%
%TO.N,GND*%
X214200000Y-174150000D03*
D11*
%TO.P,U18,2,+*%
%TO.N,3-3V_2*%
X214200000Y-169150000D03*
%TD*%
D17*
%TO.P,R4,1*%
%TO.N,+3V3*%
X173400000Y-150450000D03*
%TO.P,R4,2*%
%TO.N,/~{RESET_RAW}*%
X171700000Y-150450000D03*
%TD*%
D37*
%TO.P,R20,1*%
%TO.N,/batt_ctl/BATT_2_VSENSE*%
X170600000Y-145650000D03*
%TO.P,R20,2*%
%TO.N,GNDD*%
X170600000Y-143950000D03*
%TD*%
D31*
%TO.P,J12,1*%
%TO.N,Net-(J12-Pad1)*%
X329690000Y-161895000D03*
%TO.P,J12,2*%
%TO.N,Net-(J12-Pad2)*%
X335390000Y-161895000D03*
%TO.P,J12,3*%
%TO.N,Net-(J12-Pad3)*%
X341090000Y-161895000D03*
%TD*%
D38*
%TO.P,U1,1,Vref*%
%TO.N,+3V3*%
X175990000Y-133910039D03*
%TO.P,U1,2,SWDIO/TMS*%
%TO.N,/SWDIO*%
X175990000Y-138210039D03*
%TO.P,U1,3,GND*%
%TO.N,GNDD*%
X174720000Y-133910039D03*
%TO.P,U1,4,SWDCLK/TCK*%
%TO.N,/SWCLK*%
X174720000Y-138210039D03*
%TO.P,U1,5,GND*%
%TO.N,GNDD*%
X173450000Y-133910039D03*
%TO.P,U1,6,SWO/TDO*%
%TO.N,unconnected-(U1-Pad6)*%
X173450000Y-138210039D03*
%TO.P,U1,7,KEY*%
%TO.N,unconnected-(U1-Pad7)*%
X172180000Y-133910039D03*
%TO.P,U1,8,NC/TDI*%
%TO.N,unconnected-(U1-Pad8)*%
X172180000Y-138210039D03*
%TO.P,U1,9,GNDDetect*%
%TO.N,Net-(P1-Pad1)*%
X170910000Y-133910039D03*
%TO.P,U1,10,~{RESET}*%
%TO.N,/~{RESET_RAW}*%
X170910000Y-138210039D03*
%TD*%
D17*
%TO.P,R32,1*%
%TO.N,3-3V_1*%
X228770000Y-155285000D03*
%TO.P,R32,2*%
%TO.N,Net-(R32-Pad2)*%
X227070000Y-155285000D03*
%TD*%
D13*
%TO.P,R54,1*%
%TO.N,Net-(Q9-Pad2)*%
X194725000Y-112550000D03*
%TO.P,R54,2*%
%TO.N,Net-(Q7-Pad3)*%
X194725000Y-114250000D03*
%TD*%
D18*
%TO.P,R27,1*%
%TO.N,Net-(R27-Pad1)*%
X191425000Y-116475000D03*
%TO.P,R27,2*%
%TO.N,Net-(Q10-Pad3)*%
X189425000Y-116475000D03*
%TD*%
D17*
%TO.P,R15,1*%
%TO.N,+BATT*%
X201800000Y-140650000D03*
%TO.P,R15,2*%
%TO.N,Net-(D5-Pad2)*%
X200100000Y-140650000D03*
%TD*%
%TO.P,R26,1*%
%TO.N,Net-(Q7-Pad1)*%
X191150000Y-119125000D03*
%TO.P,R26,2*%
%TO.N,Net-(R25-Pad2)*%
X189450000Y-119125000D03*
%TD*%
%TO.P,R61,1*%
%TO.N,5V_3*%
X226900000Y-115700000D03*
%TO.P,R61,2*%
%TO.N,Net-(D11-Pad2)*%
X225200000Y-115700000D03*
%TD*%
D25*
%TO.P,U10,1,ADJ*%
%TO.N,GND*%
X238050000Y-154440000D03*
%TO.P,U10,2,VOUT*%
%TO.N,+12V*%
X238050000Y-156980000D03*
D26*
X244775000Y-154205000D03*
X244775000Y-159755000D03*
X249625000Y-154205000D03*
X249625000Y-159755000D03*
D27*
X247200000Y-156980000D03*
D25*
%TO.P,U10,3,VIN*%
%TO.N,+BATT*%
X238050000Y-159520000D03*
%TD*%
D14*
%TO.P,C27,1*%
%TO.N,12V_2*%
X236175000Y-115350000D03*
%TO.P,C27,2*%
%TO.N,GND*%
X234475000Y-115350000D03*
%TD*%
%TO.P,C4,1*%
%TO.N,GNDD*%
X186300000Y-177750000D03*
%TO.P,C4,2*%
%TO.N,Net-(C4-Pad2)*%
X188000000Y-177750000D03*
%TD*%
D32*
%TO.P,U3,1,VCC*%
%TO.N,+3V3*%
X182650000Y-119575000D03*
%TO.P,U3,2,GND*%
%TO.N,GNDD*%
X184250000Y-119575000D03*
%TO.P,U3,3,VOUT*%
%TO.N,Net-(C8-Pad2)*%
X185850000Y-119575000D03*
D33*
%TO.P,U3,4,NC*%
%TO.N,unconnected-(U3-Pad4)*%
X187050000Y-117075000D03*
D34*
%TO.P,U3,5,IP+*%
%TO.N,Net-(Q10-Pad3)*%
X185750000Y-114725000D03*
%TO.P,U3,6,IP-*%
%TO.N,BATT_2_PWR*%
X182750000Y-114725000D03*
D33*
%TO.P,U3,7,NC*%
%TO.N,unconnected-(U3-Pad7)*%
X181450000Y-117075000D03*
%TD*%
D13*
%TO.P,R3,1*%
%TO.N,Net-(Q1-Pad1)*%
X168050000Y-152125000D03*
%TO.P,R3,2*%
%TO.N,/RESET*%
X168050000Y-153825000D03*
%TD*%
D17*
%TO.P,R35,1*%
%TO.N,Net-(R34-Pad2)*%
X216625000Y-155300000D03*
%TO.P,R35,2*%
%TO.N,GND*%
X214925000Y-155300000D03*
%TD*%
%TO.P,R31,1*%
%TO.N,+BATT*%
X211275000Y-157100000D03*
%TO.P,R31,2*%
%TO.N,Net-(R31-Pad2)*%
X209575000Y-157100000D03*
%TD*%
D31*
%TO.P,C10,1*%
%TO.N,+BATT*%
X195750000Y-125840000D03*
%TO.P,C10,2*%
%TO.N,GND*%
X195800000Y-130840000D03*
%TD*%
D39*
%TO.P,SW1,1,1*%
%TO.N,/~{RESET_RAW}*%
X174325000Y-148425000D03*
D40*
X173700000Y-146375000D03*
D39*
%TO.P,SW1,2,2*%
%TO.N,unconnected-(SW1-Pad2)*%
X175925000Y-148425000D03*
%TO.P,SW1,3,3*%
%TO.N,GNDD*%
X174325000Y-144325000D03*
%TO.P,SW1,4,4*%
%TO.N,unconnected-(SW1-Pad4)*%
X175925000Y-144325000D03*
%TD*%
D41*
%TO.P,U16,*%
%TO.N,*%
X166890000Y-102560000D03*
X166890000Y-121460000D03*
D42*
%TO.P,U16,1,-*%
%TO.N,GND*%
X176290000Y-117460000D03*
D43*
%TO.P,U16,2,+*%
%TO.N,BATT_2_PWR*%
X176290000Y-106560000D03*
%TD*%
D17*
%TO.P,R46,1*%
%TO.N,5V_2*%
X218200000Y-117150000D03*
%TO.P,R46,2*%
%TO.N,Net-(D10-Pad2)*%
X216500000Y-117150000D03*
%TD*%
D13*
%TO.P,R48,1*%
%TO.N,Net-(R48-Pad1)*%
X226220000Y-145360000D03*
%TO.P,R48,2*%
%TO.N,+3V3*%
X226220000Y-147060000D03*
%TD*%
D14*
%TO.P,C7,1*%
%TO.N,GNDD*%
X185100000Y-122150000D03*
%TO.P,C7,2*%
%TO.N,+3V3*%
X183400000Y-122150000D03*
%TD*%
D17*
%TO.P,R50,1*%
%TO.N,Net-(Q8-Pad1)*%
X175000000Y-126200000D03*
%TO.P,R50,2*%
%TO.N,/BUZZER*%
X173300000Y-126200000D03*
%TD*%
%TO.P,R37,1*%
%TO.N,Net-(R36-Pad2)*%
X206375000Y-155198250D03*
%TO.P,R37,2*%
%TO.N,GND*%
X204675000Y-155198250D03*
%TD*%
D14*
%TO.P,C26,1*%
%TO.N,12V_3*%
X245175000Y-115450000D03*
%TO.P,C26,2*%
%TO.N,GND*%
X243475000Y-115450000D03*
%TD*%
D13*
%TO.P,R64,1*%
%TO.N,Net-(Q15-Pad2)*%
X198700000Y-112525000D03*
%TO.P,R64,2*%
%TO.N,Net-(Q7-Pad3)*%
X198700000Y-114225000D03*
%TD*%
D23*
%TO.P,C24,1*%
%TO.N,+BATT*%
X242150000Y-134500000D03*
%TO.P,C24,2*%
%TO.N,GND*%
X242150000Y-132500000D03*
%TD*%
D37*
%TO.P,R65,1*%
%TO.N,Net-(Q16-Pad2)*%
X196700000Y-103050000D03*
%TO.P,R65,2*%
%TO.N,Net-(Q7-Pad3)*%
X196700000Y-101350000D03*
%TD*%
%TO.P,R56,1*%
%TO.N,Net-(Q11-Pad2)*%
X188800000Y-103100000D03*
%TO.P,R56,2*%
%TO.N,Net-(Q7-Pad3)*%
X188800000Y-101400000D03*
%TD*%
D31*
%TO.P,J13,1*%
%TO.N,Net-(J13-Pad1)*%
X258890000Y-161995000D03*
%TO.P,J13,2*%
%TO.N,Net-(J13-Pad2)*%
X264590000Y-161995000D03*
%TO.P,J13,3*%
%TO.N,Net-(J13-Pad3)*%
X270290000Y-161995000D03*
%TD*%
D44*
%TO.P,TP1,1*%
%TO.N,/~{RESET_RAW}*%
X178225000Y-144175000D03*
%TD*%
D28*
%TO.P,Q15,1,S*%
%TO.N,+BATT*%
X198000000Y-111335000D03*
X197350000Y-111335000D03*
X196700000Y-111335000D03*
%TO.P,Q15,2,G*%
%TO.N,Net-(Q15-Pad2)*%
X198650000Y-111335000D03*
D29*
%TO.P,Q15,3,D*%
%TO.N,Net-(Q10-Pad3)*%
X197675000Y-109900000D03*
%TD*%
D18*
%TO.P,R8,1*%
%TO.N,/batt_ctl/BATT_1_CTL*%
X191350000Y-176600000D03*
%TO.P,R8,2*%
%TO.N,Net-(R10-Pad2)*%
X189350000Y-176600000D03*
%TD*%
D13*
%TO.P,R21,1*%
%TO.N,Net-(Q5-Pad2)*%
X191975000Y-168425000D03*
%TO.P,R21,2*%
%TO.N,Net-(Q2-Pad3)*%
X191975000Y-170125000D03*
%TD*%
D17*
%TO.P,R29,1*%
%TO.N,+BATT*%
X230870000Y-156935000D03*
%TO.P,R29,2*%
%TO.N,Net-(R29-Pad2)*%
X229170000Y-156935000D03*
%TD*%
D45*
%TO.P,IC2,1,PA00*%
%TO.N,unconnected-(IC2-Pad1)*%
X167500000Y-149150000D03*
%TO.P,IC2,2,PA01*%
%TO.N,unconnected-(IC2-Pad2)*%
X167500000Y-148650000D03*
%TO.P,IC2,3,PA02*%
%TO.N,/A0_SENSE*%
X167500000Y-148150000D03*
%TO.P,IC2,4,PA03*%
%TO.N,unconnected-(IC2-Pad4)*%
X167500000Y-147650000D03*
%TO.P,IC2,5,GNDANA*%
%TO.N,GNDD*%
X167500000Y-147150000D03*
%TO.P,IC2,6,VDDANA*%
%TO.N,+3V3*%
X167500000Y-146650000D03*
%TO.P,IC2,7,PB08*%
%TO.N,/batt_ctl/BATT_1_VSENSE*%
X167500000Y-146150000D03*
%TO.P,IC2,8,PB09*%
%TO.N,/batt_ctl/BATT_1_CURR*%
X167500000Y-145650000D03*
%TO.P,IC2,9,PA04*%
%TO.N,/batt_ctl/BATT_2_VSENSE*%
X167500000Y-145150000D03*
%TO.P,IC2,10,PA05*%
%TO.N,/batt_ctl/BATT_2_CURR*%
X167500000Y-144650000D03*
%TO.P,IC2,11,PA06*%
%TO.N,unconnected-(IC2-Pad11)*%
X167500000Y-144150000D03*
%TO.P,IC2,12,PA07*%
%TO.N,unconnected-(IC2-Pad12)*%
X167500000Y-143650000D03*
D46*
%TO.P,IC2,13,PA08*%
%TO.N,unconnected-(IC2-Pad13)*%
X166800000Y-142950000D03*
%TO.P,IC2,14,PA09*%
%TO.N,unconnected-(IC2-Pad14)*%
X166300000Y-142950000D03*
%TO.P,IC2,15,PA10*%
%TO.N,/SERIAL1_TX*%
X165800000Y-142950000D03*
%TO.P,IC2,16,PA11*%
%TO.N,/SERIAL1_RX*%
X165300000Y-142950000D03*
%TO.P,IC2,17,VDDIO_1*%
%TO.N,+3V3*%
X164800000Y-142950000D03*
%TO.P,IC2,18,GND_1*%
%TO.N,GNDD*%
X164300000Y-142950000D03*
%TO.P,IC2,19,PB10*%
%TO.N,/MOSI*%
X163800000Y-142950000D03*
%TO.P,IC2,20,PB11*%
%TO.N,/SCK*%
X163300000Y-142950000D03*
%TO.P,IC2,21,PA12*%
%TO.N,/MISO*%
X162800000Y-142950000D03*
%TO.P,IC2,22,PA13*%
%TO.N,unconnected-(IC2-Pad22)*%
X162300000Y-142950000D03*
%TO.P,IC2,23,PA14*%
%TO.N,/SD_CS*%
X161800000Y-142950000D03*
%TO.P,IC2,24,PA15*%
%TO.N,unconnected-(IC2-Pad24)*%
X161300000Y-142950000D03*
D45*
%TO.P,IC2,25,PA16*%
%TO.N,/BUZZER*%
X160600000Y-143650000D03*
%TO.P,IC2,26,PA17*%
%TO.N,/batt_ctl/BATT_2_CTL*%
X160600000Y-144150000D03*
%TO.P,IC2,27,PA18*%
%TO.N,/batt_ctl/BATT_1_CTL*%
X160600000Y-144650000D03*
%TO.P,IC2,28,PA19*%
%TO.N,unconnected-(IC2-Pad28)*%
X160600000Y-145150000D03*
%TO.P,IC2,29,PA20*%
%TO.N,unconnected-(IC2-Pad29)*%
X160600000Y-145650000D03*
%TO.P,IC2,30,PA21*%
%TO.N,unconnected-(IC2-Pad30)*%
X160600000Y-146150000D03*
%TO.P,IC2,31,PA22*%
%TO.N,/SDA*%
X160600000Y-146650000D03*
%TO.P,IC2,32,PA23*%
%TO.N,/SCL*%
X160600000Y-147150000D03*
%TO.P,IC2,33,PA24*%
%TO.N,/USB_D-*%
X160600000Y-147650000D03*
%TO.P,IC2,34,PA25*%
%TO.N,/USB_D+*%
X160600000Y-148150000D03*
%TO.P,IC2,35,GND_2*%
%TO.N,GNDD*%
X160600000Y-148650000D03*
%TO.P,IC2,36,VDDIO_2*%
%TO.N,+3V3*%
X160600000Y-149150000D03*
D46*
%TO.P,IC2,37,PB22*%
%TO.N,/processor/FLASH_MOSI*%
X161300000Y-149850000D03*
%TO.P,IC2,38,PB23*%
%TO.N,/processor/FLASH_SCK*%
X161800000Y-149850000D03*
%TO.P,IC2,39,PA27*%
%TO.N,/processor/FLASH_CS*%
X162300000Y-149850000D03*
%TO.P,IC2,40,~{RESET}*%
%TO.N,/~{RESET_RAW}*%
X162800000Y-149850000D03*
%TO.P,IC2,41,PA28*%
%TO.N,unconnected-(IC2-Pad41)*%
X163300000Y-149850000D03*
%TO.P,IC2,42,GND_3*%
%TO.N,GNDD*%
X163800000Y-149850000D03*
%TO.P,IC2,43,VDDCORE*%
%TO.N,Net-(C2-Pad1)*%
X164300000Y-149850000D03*
%TO.P,IC2,44,VDDIN*%
%TO.N,+3V3*%
X164800000Y-149850000D03*
%TO.P,IC2,45,PA30*%
%TO.N,/SWCLK*%
X165300000Y-149850000D03*
%TO.P,IC2,46,PA31*%
%TO.N,/SWDIO*%
X165800000Y-149850000D03*
%TO.P,IC2,47,PB02*%
%TO.N,/A5_SENSE*%
X166300000Y-149850000D03*
%TO.P,IC2,48,PB03*%
%TO.N,/processor/FLASH_MISO*%
X166800000Y-149850000D03*
D47*
%TO.P,IC2,49,EP_GND*%
%TO.N,GNDD*%
X164050000Y-146400000D03*
%TD*%
D31*
%TO.P,C9,1*%
%TO.N,+BATT*%
X276300000Y-127700000D03*
%TO.P,C9,2*%
%TO.N,GND*%
X276350000Y-132700000D03*
%TD*%
D37*
%TO.P,R14,1*%
%TO.N,Net-(Q4-Pad2)*%
X189725000Y-158925000D03*
%TO.P,R14,2*%
%TO.N,Net-(Q2-Pad3)*%
X189725000Y-157225000D03*
%TD*%
D48*
%TO.P,U11,1,ADJ*%
%TO.N,GND*%
X232960000Y-132625000D03*
D49*
%TO.P,U11,2,VOUT*%
%TO.N,12V_2*%
X238275000Y-125900000D03*
X232725000Y-125900000D03*
X232725000Y-121050000D03*
D50*
X235500000Y-123475000D03*
D49*
X238275000Y-121050000D03*
D48*
X235500000Y-132625000D03*
%TO.P,U11,3,VIN*%
%TO.N,+BATT*%
X238040000Y-132625000D03*
%TD*%
D31*
%TO.P,J15,1*%
%TO.N,Net-(J15-Pad1)*%
X306230000Y-161950000D03*
%TO.P,J15,2*%
%TO.N,Net-(J15-Pad2)*%
X311930000Y-161950000D03*
%TO.P,J15,3*%
%TO.N,Net-(J15-Pad3)*%
X317630000Y-161950000D03*
%TD*%
D36*
%TO.P,Q2,1,B*%
%TO.N,Net-(Q2-Pad1)*%
X192950000Y-175650000D03*
%TO.P,Q2,2,E*%
%TO.N,GNDD*%
X194850000Y-175650000D03*
%TO.P,Q2,3,C*%
%TO.N,Net-(Q2-Pad3)*%
X193900000Y-173650000D03*
%TD*%
D28*
%TO.P,Q12,1,S*%
%TO.N,+BATT*%
X193375000Y-104277500D03*
X194025000Y-104277500D03*
X194675000Y-104277500D03*
%TO.P,Q12,2,G*%
%TO.N,Net-(Q12-Pad2)*%
X192725000Y-104277500D03*
D30*
%TO.P,Q12,3,D*%
%TO.N,Net-(Q10-Pad3)*%
X193700000Y-105712500D03*
%TD*%
D51*
%TO.P,U13,1,SDA*%
%TO.N,/SDA*%
X229018929Y-146229200D03*
%TO.P,U13,2,SCL*%
%TO.N,/SCL*%
X228518928Y-146229200D03*
%TO.P,U13,3,OS*%
%TO.N,Net-(R48-Pad1)*%
X228018928Y-146229200D03*
%TO.P,U13,4,GND*%
%TO.N,GNDD*%
X227518927Y-146229200D03*
%TO.P,U13,5,A2*%
%TO.N,unconnected-(U13-Pad5)*%
X227518927Y-149170800D03*
%TO.P,U13,6,A1*%
%TO.N,unconnected-(U13-Pad6)*%
X228018928Y-149170800D03*
%TO.P,U13,7,A0*%
%TO.N,unconnected-(U13-Pad7)*%
X228518928Y-149170800D03*
%TO.P,U13,8,VCC*%
%TO.N,+3V3*%
X229018929Y-149170800D03*
D52*
%TO.P,U13,9,EP_GND*%
%TO.N,GNDD*%
X228268928Y-147700000D03*
%TD*%
D23*
%TO.P,C17,1*%
%TO.N,+BATT*%
X205550000Y-148575000D03*
%TO.P,C17,2*%
%TO.N,GND*%
X205550000Y-146575000D03*
%TD*%
D12*
%TO.P,C1,1*%
%TO.N,+3V3*%
X166425000Y-152625000D03*
%TO.P,C1,2*%
%TO.N,GNDD*%
X166425000Y-154325000D03*
%TD*%
D53*
%TO.P,IC1,1,~{CS}*%
%TO.N,/processor/FLASH_CS*%
X162800000Y-155880000D03*
%TO.P,IC1,2,SO_(IO1)*%
%TO.N,/processor/FLASH_MISO*%
X162800000Y-154610000D03*
%TO.P,IC1,3,~{WP_(IO2)}*%
%TO.N,+3V3*%
X162800000Y-153340000D03*
%TO.P,IC1,4,VSS*%
%TO.N,GNDD*%
X162800000Y-152070000D03*
%TO.P,IC1,5,SI_(IO0)*%
%TO.N,/processor/FLASH_MOSI*%
X157850000Y-152070000D03*
%TO.P,IC1,6,SCLK*%
%TO.N,/processor/FLASH_SCK*%
X157850000Y-153340000D03*
%TO.P,IC1,7,~{HOLD_(IO3)}*%
%TO.N,+3V3*%
X157850000Y-154610000D03*
%TO.P,IC1,8,VCC*%
X157850000Y-155880000D03*
%TD*%
D13*
%TO.P,R43,1*%
%TO.N,3-3V_2*%
X218780000Y-163090000D03*
%TO.P,R43,2*%
%TO.N,Net-(D8-Pad2)*%
X218780000Y-164790000D03*
%TD*%
D14*
%TO.P,C15,1*%
%TO.N,3-3V_2*%
X214575000Y-160900000D03*
%TO.P,C15,2*%
%TO.N,GND*%
X216275000Y-160900000D03*
%TD*%
D54*
%TO.P,C13,1*%
%TO.N,+BATT*%
X209875000Y-158450000D03*
%TO.P,C13,2*%
%TO.N,GND*%
X209875000Y-160450000D03*
%TD*%
D13*
%TO.P,R42,1*%
%TO.N,3-3V_2*%
X217380000Y-163090000D03*
%TO.P,R42,2*%
%TO.N,Net-(D8-Pad2)*%
X217380000Y-164790000D03*
%TD*%
D17*
%TO.P,R23,1*%
%TO.N,GNDD*%
X194700000Y-121675000D03*
%TO.P,R23,2*%
%TO.N,/batt_ctl/BATT_2_CTL*%
X193000000Y-121675000D03*
%TD*%
D37*
%TO.P,R13,1*%
%TO.N,Net-(Q3-Pad2)*%
X193700000Y-158950000D03*
%TO.P,R13,2*%
%TO.N,Net-(Q2-Pad3)*%
X193700000Y-157250000D03*
%TD*%
D12*
%TO.P,C35,1*%
%TO.N,+3V3*%
X177475000Y-148000000D03*
%TO.P,C35,2*%
%TO.N,GNDD*%
X177475000Y-146300000D03*
%TD*%
D17*
%TO.P,R47,1*%
%TO.N,5V_2*%
X218200000Y-115750000D03*
%TO.P,R47,2*%
%TO.N,Net-(D10-Pad2)*%
X216500000Y-115750000D03*
%TD*%
D31*
%TO.P,C6,1*%
%TO.N,+BATT*%
X276175000Y-147600000D03*
%TO.P,C6,2*%
%TO.N,GND*%
X276225000Y-152600000D03*
%TD*%
D28*
%TO.P,Q3,1,S*%
%TO.N,+BATT*%
X194350000Y-160152500D03*
X195000000Y-160152500D03*
X195650000Y-160152500D03*
%TO.P,Q3,2,G*%
%TO.N,Net-(Q3-Pad2)*%
X193700000Y-160152500D03*
D30*
%TO.P,Q3,3,D*%
%TO.N,Net-(Q13-Pad3)*%
X194675000Y-161587500D03*
%TD*%
D55*
%TO.P,U4,1,FB*%
%TO.N,Net-(R32-Pad2)*%
X227020000Y-156685000D03*
D56*
%TO.P,U4,2,VCC*%
%TO.N,unconnected-(U4-Pad2)*%
X226370000Y-156835000D03*
%TO.P,U4,3,AGND*%
%TO.N,GND*%
X225720000Y-156835000D03*
D57*
%TO.P,U4,4,SW*%
%TO.N,unconnected-(U4-Pad4)*%
X225070000Y-156635000D03*
%TO.P,U4,5,SW*%
%TO.N,unconnected-(U4-Pad5)*%
X224220000Y-156635000D03*
%TO.P,U4,6,SW*%
%TO.N,unconnected-(U4-Pad6)*%
X223370000Y-156635000D03*
%TO.P,U4,7,OUT*%
%TO.N,3-3V_1*%
X223370000Y-159535000D03*
%TO.P,U4,8,OUT*%
X224220000Y-159535000D03*
%TO.P,U4,9,OUT*%
X225070000Y-159535000D03*
D56*
%TO.P,U4,10,NC*%
%TO.N,unconnected-(U4-Pad10)*%
X225720000Y-159335000D03*
%TO.P,U4,11,BST*%
%TO.N,unconnected-(U4-Pad11)*%
X226370000Y-159335000D03*
D57*
%TO.P,U4,12,PGND*%
%TO.N,unconnected-(U4-Pad12)*%
X227020000Y-159535000D03*
D58*
%TO.P,U4,13,PGND*%
%TO.N,unconnected-(U4-Pad13)*%
X227920000Y-159335000D03*
%TO.P,U4,14,PGND*%
%TO.N,GND*%
X227920000Y-158835000D03*
D59*
%TO.P,U4,15,NC*%
%TO.N,unconnected-(U4-Pad15)*%
X227720000Y-158335000D03*
%TO.P,U4,16,IN*%
%TO.N,+BATT*%
X227720000Y-157835000D03*
D58*
%TO.P,U4,17,EN*%
%TO.N,Net-(R29-Pad2)*%
X227920000Y-157335000D03*
%TO.P,U4,18,PG*%
%TO.N,unconnected-(U4-Pad18)*%
X227920000Y-156835000D03*
D60*
%TO.P,U4,19,NC*%
%TO.N,unconnected-(U4-Pad19)*%
X224220000Y-157085000D03*
%TO.P,U4,20,NC*%
%TO.N,3-3V_1*%
X224220000Y-159085000D03*
%TD*%
D14*
%TO.P,C21,1*%
%TO.N,+5V*%
X202575000Y-117825000D03*
%TO.P,C21,2*%
%TO.N,GND*%
X204275000Y-117825000D03*
%TD*%
D10*
%TO.P,U24,1,-*%
%TO.N,GND*%
X235400000Y-106150000D03*
D11*
%TO.P,U24,2,+*%
%TO.N,12V_2*%
X235400000Y-111150000D03*
%TD*%
D35*
%TO.P,D10,1,K*%
%TO.N,GND*%
X213250000Y-115750000D03*
%TO.P,D10,2,A*%
%TO.N,Net-(D10-Pad2)*%
X214950000Y-115750000D03*
%TD*%
D24*
%TO.P,Q8,1,B*%
%TO.N,Net-(Q8-Pad1)*%
X176350000Y-126250000D03*
%TO.P,Q8,2,E*%
%TO.N,GNDD*%
X176350000Y-128150000D03*
%TO.P,Q8,3,C*%
%TO.N,Net-(Q8-Pad3)*%
X178350000Y-127200000D03*
%TD*%
D17*
%TO.P,R36,1*%
%TO.N,3-3V_3*%
X209275000Y-155198250D03*
%TO.P,R36,2*%
%TO.N,Net-(R36-Pad2)*%
X207575000Y-155198250D03*
%TD*%
D37*
%TO.P,R62,1*%
%TO.N,Net-(Q13-Pad2)*%
X197700000Y-158975000D03*
%TO.P,R62,2*%
%TO.N,Net-(Q2-Pad3)*%
X197700000Y-157275000D03*
%TD*%
D35*
%TO.P,D6,1,K*%
%TO.N,GND*%
X204545000Y-164930000D03*
%TO.P,D6,2,A*%
%TO.N,Net-(D6-Pad2)*%
X206245000Y-164930000D03*
%TD*%
D10*
%TO.P,U25,1,-*%
%TO.N,GND*%
X244400000Y-106150000D03*
D11*
%TO.P,U25,2,+*%
%TO.N,12V_3*%
X244400000Y-111150000D03*
%TD*%
D16*
%TO.P,D1,1,K*%
%TO.N,Net-(C33-Pad2)*%
X176500000Y-152550000D03*
%TO.P,D1,2,A*%
%TO.N,VUSB*%
X173700000Y-152550000D03*
%TD*%
D18*
%TO.P,R11,1*%
%TO.N,Net-(R11-Pad1)*%
X191525000Y-172000000D03*
%TO.P,R11,2*%
%TO.N,Net-(Q13-Pad3)*%
X189525000Y-172000000D03*
%TD*%
D17*
%TO.P,D3,1,K*%
%TO.N,GND*%
X185150000Y-160800000D03*
%TO.P,D3,2,A*%
%TO.N,Net-(D3-Pad2)*%
X183450000Y-160800000D03*
%TD*%
D14*
%TO.P,C16,1*%
%TO.N,3-3V_3*%
X205130000Y-160880000D03*
%TO.P,C16,2*%
%TO.N,GND*%
X206830000Y-160880000D03*
%TD*%
D17*
%TO.P,R2,1*%
%TO.N,GNDD*%
X169575000Y-155875000D03*
%TO.P,R2,2*%
%TO.N,/RESET*%
X167875000Y-155875000D03*
%TD*%
D13*
%TO.P,R40,1*%
%TO.N,3-3V_1*%
X226150000Y-163240000D03*
%TO.P,R40,2*%
%TO.N,Net-(D7-Pad2)*%
X226150000Y-164940000D03*
%TD*%
D55*
%TO.P,U6,1,FB*%
%TO.N,Net-(R36-Pad2)*%
X207425000Y-156700000D03*
D56*
%TO.P,U6,2,VCC*%
%TO.N,unconnected-(U6-Pad2)*%
X206775000Y-156850000D03*
%TO.P,U6,3,AGND*%
%TO.N,GND*%
X206125000Y-156850000D03*
D57*
%TO.P,U6,4,SW*%
%TO.N,unconnected-(U6-Pad4)*%
X205475000Y-156650000D03*
%TO.P,U6,5,SW*%
%TO.N,unconnected-(U6-Pad5)*%
X204625000Y-156650000D03*
%TO.P,U6,6,SW*%
%TO.N,unconnected-(U6-Pad6)*%
X203775000Y-156650000D03*
%TO.P,U6,7,OUT*%
%TO.N,3-3V_3*%
X203775000Y-159550000D03*
%TO.P,U6,8,OUT*%
X204625000Y-159550000D03*
%TO.P,U6,9,OUT*%
X205475000Y-159550000D03*
D56*
%TO.P,U6,10,NC*%
%TO.N,unconnected-(U6-Pad10)*%
X206125000Y-159350000D03*
%TO.P,U6,11,BST*%
%TO.N,unconnected-(U6-Pad11)*%
X206775000Y-159350000D03*
D57*
%TO.P,U6,12,PGND*%
%TO.N,unconnected-(U6-Pad12)*%
X207425000Y-159550000D03*
D58*
%TO.P,U6,13,PGND*%
%TO.N,unconnected-(U6-Pad13)*%
X208325000Y-159350000D03*
%TO.P,U6,14,PGND*%
%TO.N,GND*%
X208325000Y-158850000D03*
D59*
%TO.P,U6,15,NC*%
%TO.N,unconnected-(U6-Pad15)*%
X208125000Y-158350000D03*
%TO.P,U6,16,IN*%
%TO.N,+BATT*%
X208125000Y-157850000D03*
D58*
%TO.P,U6,17,EN*%
%TO.N,Net-(R31-Pad2)*%
X208325000Y-157350000D03*
%TO.P,U6,18,PG*%
%TO.N,unconnected-(U6-Pad18)*%
X208325000Y-156850000D03*
D60*
%TO.P,U6,19,NC*%
%TO.N,unconnected-(U6-Pad19)*%
X204625000Y-157100000D03*
%TO.P,U6,20,NC*%
%TO.N,3-3V_3*%
X204625000Y-159100000D03*
%TD*%
D12*
%TO.P,C36,1*%
%TO.N,+3V3*%
X178975000Y-148000000D03*
%TO.P,C36,2*%
%TO.N,GNDD*%
X178975000Y-146300000D03*
%TD*%
D37*
%TO.P,R17,1*%
%TO.N,BATT_1_PWR*%
X172275000Y-148600000D03*
%TO.P,R17,2*%
%TO.N,/batt_ctl/BATT_1_VSENSE*%
X172275000Y-146900000D03*
%TD*%
D15*
%TO.P,R52,1*%
%TO.N,+5V*%
X181950000Y-128400000D03*
%TO.P,R52,2*%
%TO.N,Net-(Q8-Pad3)*%
X181950000Y-126400000D03*
%TD*%
D61*
%TO.P,J7,*%
%TO.N,*%
X153344600Y-138525000D03*
D62*
X165475000Y-126340000D03*
D63*
X164680000Y-138425000D03*
X153200000Y-123735000D03*
D62*
X165475000Y-134120000D03*
D64*
%TO.P,J7,1*%
%TO.N,N/C*%
X152724600Y-134180000D03*
%TO.P,J7,2,CS*%
%TO.N,/SD_CS*%
X152724600Y-133080000D03*
%TO.P,J7,3,DIN*%
%TO.N,/MOSI*%
X152724600Y-131980000D03*
%TO.P,J7,4,VDD*%
%TO.N,+3V3*%
X152724600Y-130880000D03*
%TO.P,J7,5,SCLK*%
%TO.N,/SCK*%
X152724600Y-129780000D03*
%TO.P,J7,6,GND*%
%TO.N,GNDD*%
X152724600Y-128680000D03*
%TO.P,J7,7,DOUT*%
%TO.N,/MISO*%
X152724600Y-127580000D03*
%TO.P,J7,8*%
%TO.N,N/C*%
X152724600Y-126460000D03*
D65*
%TO.P,J7,9,Switch_N.O.*%
%TO.N,unconnected-(J7-Pad9)*%
X155450000Y-124585000D03*
D66*
%TO.P,J7,10,Switch_N.O.*%
%TO.N,unconnected-(J7-Pad10)*%
X164350000Y-124560000D03*
%TD*%
D35*
%TO.P,D7,1,K*%
%TO.N,GND*%
X222300000Y-164940000D03*
%TO.P,D7,2,A*%
%TO.N,Net-(D7-Pad2)*%
X224000000Y-164940000D03*
%TD*%
D67*
%TO.P,U14,1,SDA*%
%TO.N,/SDA*%
X156529200Y-139999999D03*
%TO.P,U14,2,SCL*%
%TO.N,/SCL*%
X156529200Y-140500000D03*
%TO.P,U14,3,OS*%
%TO.N,Net-(R53-Pad1)*%
X156529200Y-141000000D03*
%TO.P,U14,4,GND*%
%TO.N,GNDD*%
X156529200Y-141500001D03*
%TO.P,U14,5,A2*%
X159470800Y-141500001D03*
%TO.P,U14,6,A1*%
X159470800Y-141000000D03*
%TO.P,U14,7,A0*%
X159470800Y-140500000D03*
%TO.P,U14,8,VCC*%
%TO.N,+3V3*%
X159470800Y-139999999D03*
D52*
%TO.P,U14,9,EP_GND*%
%TO.N,GNDD*%
X158000000Y-140750000D03*
%TD*%
D28*
%TO.P,Q4,1,S*%
%TO.N,+BATT*%
X191700000Y-160152500D03*
X191050000Y-160152500D03*
X190400000Y-160152500D03*
%TO.P,Q4,2,G*%
%TO.N,Net-(Q4-Pad2)*%
X189750000Y-160152500D03*
D30*
%TO.P,Q4,3,D*%
%TO.N,Net-(Q13-Pad3)*%
X190725000Y-161587500D03*
%TD*%
D35*
%TO.P,D11,1,K*%
%TO.N,GND*%
X222250000Y-115700000D03*
%TO.P,D11,2,A*%
%TO.N,Net-(D11-Pad2)*%
X223950000Y-115700000D03*
%TD*%
D28*
%TO.P,Q6,1,S*%
%TO.N,+BATT*%
X194350000Y-167187500D03*
X195000000Y-167187500D03*
X193700000Y-167187500D03*
%TO.P,Q6,2,G*%
%TO.N,Net-(Q6-Pad2)*%
X195650000Y-167187500D03*
D29*
%TO.P,Q6,3,D*%
%TO.N,Net-(Q13-Pad3)*%
X194675000Y-165752500D03*
%TD*%
D31*
%TO.P,J9,1*%
%TO.N,Net-(J9-Pad1)*%
X294185000Y-118655000D03*
%TO.P,J9,2*%
%TO.N,Net-(J9-Pad2)*%
X288485000Y-118655000D03*
%TO.P,J9,3*%
%TO.N,Net-(J9-Pad3)*%
X282785000Y-118655000D03*
%TD*%
D12*
%TO.P,C30,1*%
%TO.N,GNDD*%
X160900000Y-141600000D03*
%TO.P,C30,2*%
%TO.N,+3V3*%
X160900000Y-139900000D03*
%TD*%
D13*
%TO.P,R22,1*%
%TO.N,Net-(Q6-Pad2)*%
X195950000Y-168425000D03*
%TO.P,R22,2*%
%TO.N,Net-(Q2-Pad3)*%
X195950000Y-170125000D03*
%TD*%
D23*
%TO.P,C23,1*%
%TO.N,+BATT*%
X234575000Y-159480000D03*
%TO.P,C23,2*%
%TO.N,GND*%
X234575000Y-157480000D03*
%TD*%
D35*
%TO.P,R24,1*%
%TO.N,/batt_ctl/BATT_2_CURR*%
X180500000Y-122162500D03*
%TO.P,R24,2*%
%TO.N,Net-(C8-Pad2)*%
X182200000Y-122162500D03*
%TD*%
D37*
%TO.P,R53,1*%
%TO.N,Net-(R53-Pad1)*%
X154700000Y-141700000D03*
%TO.P,R53,2*%
%TO.N,+3V3*%
X154700000Y-140000000D03*
%TD*%
D17*
%TO.P,D5,1,K*%
%TO.N,GND*%
X201800000Y-139200000D03*
%TO.P,D5,2,A*%
%TO.N,Net-(D5-Pad2)*%
X200100000Y-139200000D03*
%TD*%
D31*
%TO.P,J8,1*%
%TO.N,Net-(J8-Pad1)*%
X270310000Y-118705000D03*
%TO.P,J8,2*%
%TO.N,Net-(J8-Pad2)*%
X264610000Y-118705000D03*
%TO.P,J8,3*%
%TO.N,Net-(J8-Pad3)*%
X258910000Y-118705000D03*
%TD*%
D17*
%TO.P,R30,1*%
%TO.N,+BATT*%
X221625000Y-157100000D03*
%TO.P,R30,2*%
%TO.N,Net-(R30-Pad2)*%
X219925000Y-157100000D03*
%TD*%
D41*
%TO.P,U15,*%
%TO.N,*%
X166950000Y-158500000D03*
X166950000Y-177400000D03*
D42*
%TO.P,U15,1,-*%
%TO.N,GND*%
X176350000Y-173400000D03*
D43*
%TO.P,U15,2,+*%
%TO.N,BATT_1_PWR*%
X176350000Y-162500000D03*
%TD*%
D17*
%TO.P,R49,1*%
%TO.N,GNDD*%
X175000000Y-128200000D03*
%TO.P,R49,2*%
%TO.N,/BUZZER*%
X173300000Y-128200000D03*
%TD*%
D14*
%TO.P,C8,1*%
%TO.N,GNDD*%
X186300000Y-122150000D03*
%TO.P,C8,2*%
%TO.N,Net-(C8-Pad2)*%
X188000000Y-122150000D03*
%TD*%
%TO.P,C3,1*%
%TO.N,GNDD*%
X185100000Y-177750000D03*
%TO.P,C3,2*%
%TO.N,+3V3*%
X183400000Y-177750000D03*
%TD*%
D54*
%TO.P,C12,1*%
%TO.N,+BATT*%
X220225000Y-158450000D03*
%TO.P,C12,2*%
%TO.N,GND*%
X220225000Y-160450000D03*
%TD*%
D17*
%TO.P,R34,1*%
%TO.N,3-3V_2*%
X219525000Y-155298250D03*
%TO.P,R34,2*%
%TO.N,Net-(R34-Pad2)*%
X217825000Y-155298250D03*
%TD*%
%TO.P,D4,1,K*%
%TO.N,GND*%
X185200000Y-104850000D03*
%TO.P,D4,2,A*%
%TO.N,Net-(D4-Pad2)*%
X183500000Y-104850000D03*
%TD*%
D10*
%TO.P,U19,1,-*%
%TO.N,GND*%
X205200000Y-174150000D03*
D11*
%TO.P,U19,2,+*%
%TO.N,3-3V_3*%
X205200000Y-169150000D03*
%TD*%
D10*
%TO.P,U21,1,-*%
%TO.N,GND*%
X214200000Y-106150000D03*
D11*
%TO.P,U21,2,+*%
%TO.N,5V_2*%
X214200000Y-111150000D03*
%TD*%
D68*
%TO.P,SP1,1,+*%
%TO.N,Net-(Q8-Pad3)*%
X188550000Y-135550000D03*
D69*
%TO.P,SP1,2,-*%
%TO.N,GNDD*%
X188550000Y-143150000D03*
%TD*%
D17*
%TO.P,R33,1*%
%TO.N,Net-(R32-Pad2)*%
X225820000Y-155285000D03*
%TO.P,R33,2*%
%TO.N,GND*%
X224120000Y-155285000D03*
%TD*%
%TO.P,R38,1*%
%TO.N,3-3V_1*%
X224850000Y-163340000D03*
%TO.P,R38,2*%
%TO.N,Net-(D7-Pad2)*%
X223150000Y-163340000D03*
%TD*%
D70*
%TO.P,J2,*%
%TO.N,*%
X152500000Y-144400000D03*
D71*
X152500000Y-147000000D03*
D72*
X155000000Y-151300000D03*
X155050000Y-145100000D03*
D71*
X152500000Y-149400000D03*
D70*
X152500000Y-152000000D03*
D73*
%TO.P,J2,1,VBUS*%
%TO.N,VUSB*%
X155200000Y-146900000D03*
%TO.P,J2,2,D-*%
%TO.N,/USB_D-*%
X155200000Y-147550000D03*
%TO.P,J2,3,D+*%
%TO.N,/USB_D+*%
X155200000Y-148200000D03*
%TO.P,J2,4,GND*%
%TO.N,GNDD*%
X155200000Y-148850000D03*
%TO.P,J2,5,Shield*%
X155200000Y-149500000D03*
%TD*%
D74*
%TO.P,U34,1,EN*%
%TO.N,Net-(C33-Pad2)*%
X182105000Y-149975000D03*
%TO.P,U34,2,VIN*%
X180835000Y-149975000D03*
%TO.P,U34,3,VOUT*%
%TO.N,+3V3*%
X179565000Y-149975000D03*
%TO.P,U34,4,BYP*%
%TO.N,Net-(C34-Pad1)*%
X178295000Y-149975000D03*
%TO.P,U34,5,GND*%
%TO.N,GNDD*%
X178295000Y-154925000D03*
%TO.P,U34,6,GND*%
X179565000Y-154925000D03*
%TO.P,U34,7,GND*%
X180835000Y-154925000D03*
%TO.P,U34,8,GND*%
X182105000Y-154925000D03*
%TD*%
D17*
%TO.P,R41,1*%
%TO.N,3-3V_2*%
X216105000Y-163190000D03*
%TO.P,R41,2*%
%TO.N,Net-(D8-Pad2)*%
X214405000Y-163190000D03*
%TD*%
D55*
%TO.P,U5,1,FB*%
%TO.N,Net-(R34-Pad2)*%
X217775000Y-156698250D03*
D56*
%TO.P,U5,2,VCC*%
%TO.N,unconnected-(U5-Pad2)*%
X217125000Y-156848250D03*
%TO.P,U5,3,AGND*%
%TO.N,GND*%
X216475000Y-156848250D03*
D57*
%TO.P,U5,4,SW*%
%TO.N,unconnected-(U5-Pad4)*%
X215825000Y-156648250D03*
%TO.P,U5,5,SW*%
%TO.N,unconnected-(U5-Pad5)*%
X214975000Y-156648250D03*
%TO.P,U5,6,SW*%
%TO.N,unconnected-(U5-Pad6)*%
X214125000Y-156648250D03*
%TO.P,U5,7,OUT*%
%TO.N,3-3V_2*%
X214125000Y-159548250D03*
%TO.P,U5,8,OUT*%
X214975000Y-159548250D03*
%TO.P,U5,9,OUT*%
X215825000Y-159548250D03*
D56*
%TO.P,U5,10,NC*%
%TO.N,unconnected-(U5-Pad10)*%
X216475000Y-159348250D03*
%TO.P,U5,11,BST*%
%TO.N,unconnected-(U5-Pad11)*%
X217125000Y-159348250D03*
D57*
%TO.P,U5,12,PGND*%
%TO.N,unconnected-(U5-Pad12)*%
X217775000Y-159548250D03*
D58*
%TO.P,U5,13,PGND*%
%TO.N,unconnected-(U5-Pad13)*%
X218675000Y-159348250D03*
%TO.P,U5,14,PGND*%
%TO.N,GND*%
X218675000Y-158848250D03*
D59*
%TO.P,U5,15,NC*%
%TO.N,unconnected-(U5-Pad15)*%
X218475000Y-158348250D03*
%TO.P,U5,16,IN*%
%TO.N,+BATT*%
X218475000Y-157848250D03*
D58*
%TO.P,U5,17,EN*%
%TO.N,Net-(R30-Pad2)*%
X218675000Y-157348250D03*
%TO.P,U5,18,PG*%
%TO.N,unconnected-(U5-Pad18)*%
X218675000Y-156848250D03*
D60*
%TO.P,U5,19,NC*%
%TO.N,unconnected-(U5-Pad19)*%
X214975000Y-157098250D03*
%TO.P,U5,20,NC*%
%TO.N,3-3V_2*%
X214975000Y-159098250D03*
%TD*%
D35*
%TO.P,D8,1,K*%
%TO.N,GND*%
X213380000Y-164940000D03*
%TO.P,D8,2,A*%
%TO.N,Net-(D8-Pad2)*%
X215080000Y-164940000D03*
%TD*%
D17*
%TO.P,R6,1*%
%TO.N,GNDD*%
X194800000Y-177100000D03*
%TO.P,R6,2*%
%TO.N,/batt_ctl/BATT_1_CTL*%
X193100000Y-177100000D03*
%TD*%
D28*
%TO.P,Q16,1,S*%
%TO.N,+BATT*%
X198650000Y-104277500D03*
X198000000Y-104277500D03*
X197350000Y-104277500D03*
%TO.P,Q16,2,G*%
%TO.N,Net-(Q16-Pad2)*%
X196700000Y-104277500D03*
D30*
%TO.P,Q16,3,D*%
%TO.N,Net-(Q10-Pad3)*%
X197675000Y-105712500D03*
%TD*%
D28*
%TO.P,Q9,1,S*%
%TO.N,+BATT*%
X192725000Y-111322500D03*
X193375000Y-111322500D03*
X194025000Y-111322500D03*
%TO.P,Q9,2,G*%
%TO.N,Net-(Q9-Pad2)*%
X194675000Y-111322500D03*
D29*
%TO.P,Q9,3,D*%
%TO.N,Net-(Q10-Pad3)*%
X193700000Y-109887500D03*
%TD*%
D37*
%TO.P,R9,1*%
%TO.N,BATT_2_PWR*%
X181350000Y-106600000D03*
%TO.P,R9,2*%
%TO.N,Net-(D4-Pad2)*%
X181350000Y-104900000D03*
%TD*%
D48*
%TO.P,U8,1,ADJ*%
%TO.N,GND*%
X205135000Y-132675000D03*
D49*
%TO.P,U8,2,VOUT*%
%TO.N,+5V*%
X210450000Y-121100000D03*
D50*
X207675000Y-123525000D03*
D49*
X204900000Y-125950000D03*
D48*
X207675000Y-132675000D03*
D49*
X204900000Y-121100000D03*
X210450000Y-125950000D03*
D48*
%TO.P,U8,3,VIN*%
%TO.N,+BATT*%
X210215000Y-132675000D03*
%TD*%
D13*
%TO.P,R58,1*%
%TO.N,3-3V_3*%
X209795000Y-163230000D03*
%TO.P,R58,2*%
%TO.N,Net-(D6-Pad2)*%
X209795000Y-164930000D03*
%TD*%
D12*
%TO.P,C31,1*%
%TO.N,+3V3*%
X169475000Y-146875000D03*
%TO.P,C31,2*%
%TO.N,GNDD*%
X169475000Y-148575000D03*
%TD*%
D31*
%TO.P,J14,1*%
%TO.N,Net-(J14-Pad1)*%
X282709169Y-161850000D03*
%TO.P,J14,2*%
%TO.N,Net-(J14-Pad2)*%
X288409169Y-161850000D03*
%TO.P,J14,3*%
%TO.N,Net-(J14-Pad3)*%
X294109169Y-161850000D03*
%TD*%
D28*
%TO.P,Q11,1,S*%
%TO.N,+BATT*%
X190075000Y-104290000D03*
X190725000Y-104290000D03*
X189425000Y-104290000D03*
%TO.P,Q11,2,G*%
%TO.N,Net-(Q11-Pad2)*%
X188775000Y-104290000D03*
D30*
%TO.P,Q11,3,D*%
%TO.N,Net-(Q10-Pad3)*%
X189750000Y-105725000D03*
%TD*%
D17*
%TO.P,R16,1*%
%TO.N,3-3V_3*%
X207095000Y-163230000D03*
%TO.P,R16,2*%
%TO.N,Net-(D6-Pad2)*%
X205395000Y-163230000D03*
%TD*%
D31*
%TO.P,J11,1*%
%TO.N,Net-(J11-Pad1)*%
X341015831Y-118250000D03*
%TO.P,J11,2*%
%TO.N,Net-(J11-Pad2)*%
X335315831Y-118250000D03*
%TO.P,J11,3*%
%TO.N,Net-(J11-Pad3)*%
X329615831Y-118250000D03*
%TD*%
D28*
%TO.P,Q5,1,S*%
%TO.N,+BATT*%
X189750000Y-167200000D03*
X191050000Y-167200000D03*
X190400000Y-167200000D03*
%TO.P,Q5,2,G*%
%TO.N,Net-(Q5-Pad2)*%
X191700000Y-167200000D03*
D29*
%TO.P,Q5,3,D*%
%TO.N,Net-(Q13-Pad3)*%
X190725000Y-165765000D03*
%TD*%
D13*
%TO.P,R39,1*%
%TO.N,3-3V_1*%
X227550000Y-163240000D03*
%TO.P,R39,2*%
%TO.N,Net-(D7-Pad2)*%
X227550000Y-164940000D03*
%TD*%
D37*
%TO.P,R5,1*%
%TO.N,BATT_1_PWR*%
X181400000Y-162550000D03*
%TO.P,R5,2*%
%TO.N,Net-(D3-Pad2)*%
X181400000Y-160850000D03*
%TD*%
D48*
%TO.P,U9,1,ADJ*%
%TO.N,GND*%
X219010000Y-132725000D03*
%TO.P,U9,2,VOUT*%
%TO.N,5V_2*%
X221550000Y-132725000D03*
D50*
X221550000Y-123575000D03*
D49*
X224325000Y-121150000D03*
X224325000Y-126000000D03*
X218775000Y-126000000D03*
X218775000Y-121150000D03*
D48*
%TO.P,U9,3,VIN*%
%TO.N,+BATT*%
X224090000Y-132725000D03*
%TD*%
D54*
%TO.P,C11,1*%
%TO.N,+BATT*%
X229470000Y-158285000D03*
%TO.P,C11,2*%
%TO.N,GND*%
X229470000Y-160285000D03*
%TD*%
D16*
%TO.P,D12,1,K*%
%TO.N,Net-(C33-Pad2)*%
X180925000Y-147800000D03*
%TO.P,D12,2,A*%
%TO.N,BATT_2_PWR*%
X180925000Y-145000000D03*
%TD*%
D75*
%TO.N,3-3V_1*%
X227930000Y-155300000D03*
X224580000Y-160940000D03*
%TO.N,GND*%
X186600000Y-141075000D03*
X206725000Y-136300000D03*
D76*
X199350000Y-177400000D03*
D75*
X238030000Y-153270000D03*
X203640000Y-164975000D03*
X221410000Y-164940000D03*
D77*
X258790000Y-147810000D03*
D75*
X249910000Y-149470000D03*
X213300000Y-117375000D03*
X242475000Y-115450000D03*
X222250000Y-117000000D03*
X226360000Y-160930000D03*
X205550000Y-145300000D03*
X186800000Y-104825000D03*
X220400000Y-136350000D03*
X214010000Y-155320000D03*
D77*
X282710000Y-147680000D03*
D75*
X207710000Y-160880000D03*
X233550000Y-115350000D03*
X234550000Y-156560000D03*
D76*
X198535754Y-117154369D03*
D75*
X212475000Y-164935000D03*
X203830000Y-155200000D03*
X242150000Y-131640000D03*
D77*
X317780000Y-132690000D03*
X306240000Y-147640000D03*
D76*
X200460278Y-172671662D03*
D75*
X186625000Y-160825000D03*
D77*
X329520000Y-147790000D03*
D75*
X204300000Y-116825000D03*
X186475000Y-140025000D03*
D77*
X341110000Y-132780000D03*
D76*
X198535754Y-120939246D03*
D75*
X202850000Y-139175000D03*
D77*
X270450000Y-132950000D03*
D75*
X223180000Y-155290000D03*
X232960000Y-135710000D03*
X234470000Y-142110000D03*
X186600000Y-138900000D03*
X217170000Y-160910000D03*
D77*
X294160000Y-132680000D03*
D75*
X223700000Y-139650000D03*
X187325000Y-140025000D03*
%TO.N,GNDD*%
X156400000Y-149500000D03*
X169575000Y-154950000D03*
X180100000Y-169350000D03*
X175050000Y-151000000D03*
X160750000Y-140700000D03*
X178225000Y-145775000D03*
X182000000Y-141125000D03*
X156650000Y-144700000D03*
X154800000Y-152800000D03*
X182105000Y-152895000D03*
X152340000Y-128670000D03*
X171324502Y-149525000D03*
X163349228Y-151344103D03*
X163825000Y-139525000D03*
X174639961Y-133910039D03*
X167625000Y-125050000D03*
X180175000Y-114325000D03*
X155375000Y-137500000D03*
X181275000Y-140000000D03*
X157275000Y-147075500D03*
X174071360Y-127760890D03*
X174325000Y-143350000D03*
X158124025Y-125273249D03*
X182000000Y-138950000D03*
X182125000Y-140000000D03*
X171334324Y-142909180D03*
%TO.N,+3V3*%
X177025000Y-133975000D03*
X159125000Y-155400000D03*
X160900000Y-139050000D03*
X164874500Y-151700000D03*
X159050000Y-148925000D03*
X165850000Y-155875000D03*
X164850000Y-139700000D03*
X168437448Y-147697047D03*
X153700000Y-140150000D03*
X181275000Y-176325000D03*
X173400000Y-151500000D03*
X181650000Y-120600000D03*
X179450000Y-148675000D03*
X151653616Y-131768518D03*
X162775000Y-153325000D03*
X155375000Y-136500000D03*
X157374526Y-125275639D03*
%TO.N,+BATT*%
X211710000Y-157980000D03*
X231260000Y-157910000D03*
X211180000Y-158450000D03*
D78*
X191114642Y-102351165D03*
D77*
X282470000Y-132820000D03*
X329560000Y-132500000D03*
D78*
X196387851Y-113202347D03*
X195071964Y-102308799D03*
D75*
X222040000Y-157990000D03*
D78*
X189272441Y-169447441D03*
X192410358Y-113248835D03*
X234500000Y-147190000D03*
X226175000Y-136350000D03*
D77*
X341160000Y-147740000D03*
D78*
X212300000Y-136375000D03*
X244480000Y-134420000D03*
X196020842Y-157878882D03*
X193635121Y-169465039D03*
D77*
X270430000Y-147810000D03*
D78*
X234670000Y-161320000D03*
X203750000Y-140700000D03*
D77*
X306100000Y-132490000D03*
D78*
X188425000Y-113300000D03*
D77*
X294160000Y-147730000D03*
D75*
X230590000Y-158260000D03*
D78*
X199175000Y-102475000D03*
D77*
X317820000Y-147650000D03*
D78*
X205575000Y-150475000D03*
X197650000Y-169475000D03*
X200231635Y-157881635D03*
X192034478Y-157894772D03*
D77*
X258820000Y-132730000D03*
D75*
X221430000Y-158440000D03*
%TO.N,3-3V_2*%
X215400000Y-160900000D03*
X218710000Y-155300000D03*
%TO.N,3-3V_3*%
X205930000Y-160900000D03*
X208420000Y-155230000D03*
D79*
%TO.N,+5V*%
X158825000Y-149650500D03*
X158829085Y-151340639D03*
X179150000Y-128500000D03*
D75*
%TO.N,/processor/FLASH_MISO*%
X167425761Y-151366448D03*
X162800000Y-154089500D03*
%TO.N,/batt_ctl/BATT_2_CURR*%
X169750000Y-143350000D03*
X169175000Y-144550500D03*
%TO.N,/batt_ctl/BATT_1_VSENSE*%
X168425498Y-146275000D03*
%TO.N,/batt_ctl/BATT_1_CURR*%
X169525000Y-145700000D03*
X172225000Y-157150000D03*
%TO.N,/batt_ctl/BATT_2_VSENSE*%
X168450000Y-143875000D03*
%TO.N,/A0_SENSE*%
X169400000Y-149550000D03*
%TO.N,/MOSI*%
X163874500Y-141953680D03*
X151710000Y-116660000D03*
X162149500Y-141975000D03*
%TO.N,/SCK*%
X151780000Y-118780000D03*
%TO.N,/MISO*%
X163874500Y-141125000D03*
X151880500Y-120930000D03*
X162724000Y-141125000D03*
%TO.N,/SD_CS*%
X151770000Y-114540000D03*
D79*
%TO.N,/BUZZER*%
X160725000Y-142675000D03*
X173275000Y-129124500D03*
D75*
%TO.N,/batt_ctl/BATT_1_CTL*%
X159474500Y-142775000D03*
X154225000Y-154725000D03*
%TO.N,/batt_ctl/BATT_2_CTL*%
X191025000Y-122800000D03*
X160018146Y-142259052D03*
%TO.N,/SDA*%
X157850000Y-139500000D03*
X157900000Y-142250000D03*
%TO.N,/SCL*%
X155637708Y-140287292D03*
X157325500Y-143200000D03*
%TO.N,/~{RESET_RAW}*%
X162730483Y-150921127D03*
%TO.N,/SWCLK*%
X165588243Y-151471256D03*
X174718767Y-140818767D03*
%TO.N,/SWDIO*%
X165876883Y-150779562D03*
X175475000Y-140875000D03*
%TO.N,/A5_SENSE*%
X166800500Y-151779732D03*
D79*
%TO.N,Net-(Q8-Pad3)*%
X184675000Y-127225000D03*
D75*
%TO.N,BATT_1_PWR*%
X172600000Y-155300000D03*
X172425000Y-147775000D03*
%TO.N,BATT_2_PWR*%
X174169500Y-121505500D03*
X180200000Y-130275000D03*
X179650000Y-145025000D03*
X172050000Y-144700000D03*
%TD*%
D80*
%TO.N,3-3V_1*%
X223560000Y-160940000D02*
X223770000Y-160940000D01*
X223370000Y-159535000D02*
X223370000Y-160930000D01*
X228710000Y-155300000D02*
X228720000Y-155290000D01*
X223410000Y-159480000D02*
X224980000Y-159480000D01*
X223370000Y-159535000D02*
X223370000Y-159520000D01*
X223920000Y-160980000D02*
X223890000Y-160950000D01*
X222575000Y-164080686D02*
X222575000Y-161365000D01*
X223370000Y-160930000D02*
X223470000Y-161030000D01*
X227550000Y-163240000D02*
X224920000Y-163240000D01*
X223880000Y-160720000D02*
X223810000Y-160720000D01*
X225035000Y-159535000D02*
X224980000Y-159480000D01*
X224580000Y-160630000D02*
X224580000Y-160940000D01*
X222910000Y-161030000D02*
X223470000Y-161030000D01*
X224850000Y-163340000D02*
X224850000Y-160420000D01*
X227930000Y-155300000D02*
X228710000Y-155300000D01*
X223750000Y-160940000D02*
X224580000Y-160940000D01*
X224220000Y-159535000D02*
X224220000Y-160380000D01*
X224220000Y-160380000D02*
X223880000Y-160720000D01*
X222575000Y-161365000D02*
X222910000Y-161030000D01*
X223200000Y-169150000D02*
X223200000Y-164705686D01*
X225070000Y-159535000D02*
X225070000Y-160140000D01*
X223470000Y-161030000D02*
X223560000Y-160940000D01*
X224920000Y-163240000D02*
X224870000Y-163290000D01*
X225070000Y-159535000D02*
X225035000Y-159535000D01*
X223370000Y-159520000D02*
X223410000Y-159480000D01*
X225070000Y-160140000D02*
X224580000Y-160630000D01*
X223200000Y-164705686D02*
X222575000Y-164080686D01*
%TO.N,GND*%
X219200000Y-158850000D02*
X218500000Y-158850000D01*
X222675000Y-139675000D02*
X223675000Y-139675000D01*
X223185000Y-155285000D02*
X223180000Y-155290000D01*
X222250000Y-117000000D02*
X222250000Y-115700000D01*
X216475000Y-156848250D02*
X216475000Y-156145000D01*
X186775000Y-104850000D02*
X186800000Y-104825000D01*
X216050000Y-155726041D02*
X216050000Y-155720000D01*
X205550000Y-146575000D02*
X205550000Y-145300000D01*
X224120000Y-155285000D02*
X223185000Y-155285000D01*
X216475000Y-156145000D02*
X216305000Y-155975000D01*
X229470000Y-160285000D02*
X229470000Y-159640000D01*
X222300000Y-164940000D02*
X221410000Y-164940000D01*
X204275000Y-116850000D02*
X204300000Y-116825000D01*
X234575000Y-156585000D02*
X234550000Y-156560000D01*
X215050000Y-119200000D02*
X214950000Y-119200000D01*
X225450000Y-160940000D02*
X226350000Y-160940000D01*
X186600000Y-160800000D02*
X186625000Y-160825000D01*
X234475000Y-143025000D02*
X234475000Y-142115000D01*
X213300000Y-117550000D02*
X213300000Y-117375000D01*
X226360000Y-160930000D02*
X226960000Y-160330000D01*
X214925000Y-155300000D02*
X214030000Y-155300000D01*
X205150000Y-135750000D02*
X205150000Y-132750000D01*
X229470000Y-159640000D02*
X228680000Y-158850000D01*
X214030000Y-155300000D02*
X214010000Y-155320000D01*
X203685000Y-164930000D02*
X203640000Y-164975000D01*
X232960000Y-132625000D02*
X232960000Y-135710000D01*
X217590000Y-160490000D02*
X220390000Y-160490000D01*
X225720000Y-156835000D02*
X225720000Y-156200000D01*
X217170000Y-160910000D02*
X217590000Y-160490000D01*
X213300000Y-117375000D02*
X213250000Y-117325000D01*
X203831750Y-155198250D02*
X203830000Y-155200000D01*
X209875000Y-160450000D02*
X208140000Y-160450000D01*
X201800000Y-139200000D02*
X202825000Y-139200000D01*
X242150000Y-132500000D02*
X242150000Y-131640000D01*
X224810000Y-155290000D02*
X224120000Y-155290000D01*
X235240000Y-140120000D02*
X238260000Y-140120000D01*
X216305000Y-155975000D02*
X216298959Y-155975000D01*
X228680000Y-158850000D02*
X227840000Y-158850000D01*
X204300000Y-116825000D02*
X204500000Y-116625000D01*
X205385709Y-155210000D02*
X204660000Y-155210000D01*
X204500000Y-116625000D02*
X204500000Y-115800000D01*
X214950000Y-119200000D02*
X213300000Y-117550000D01*
X249875000Y-150580000D02*
X249875000Y-149505000D01*
X205550000Y-144200000D02*
X206125000Y-143625000D01*
X204275000Y-117825000D02*
X204275000Y-116850000D01*
X249875000Y-149505000D02*
X249910000Y-149470000D01*
X204545000Y-164930000D02*
X203685000Y-164930000D01*
X209875000Y-160450000D02*
X209875000Y-159875000D01*
X213380000Y-164940000D02*
X212480000Y-164940000D01*
X205700000Y-136300000D02*
X205150000Y-135750000D01*
X215650000Y-155320000D02*
X214930000Y-155320000D01*
X206125000Y-156850000D02*
X206125000Y-155949291D01*
X234575000Y-157480000D02*
X234575000Y-156585000D01*
X225720000Y-156200000D02*
X224810000Y-155290000D01*
X216298959Y-155975000D02*
X216050000Y-155726041D01*
X208175000Y-136300000D02*
X206725000Y-136300000D01*
X216275000Y-160900000D02*
X217160000Y-160900000D01*
X217160000Y-160900000D02*
X217170000Y-160910000D01*
X234470000Y-140890000D02*
X235240000Y-140120000D01*
X185200000Y-104850000D02*
X186775000Y-104850000D01*
X204275000Y-117825000D02*
X204450000Y-117650000D01*
X185150000Y-160800000D02*
X186600000Y-160800000D01*
X234475000Y-115350000D02*
X233550000Y-115350000D01*
X202825000Y-139200000D02*
X202850000Y-139175000D01*
X213250000Y-117325000D02*
X213250000Y-115825000D01*
X222100000Y-136350000D02*
X220400000Y-136350000D01*
X238050000Y-154440000D02*
X238050000Y-153290000D01*
X226350000Y-160940000D02*
X226360000Y-160930000D01*
X220225000Y-159875000D02*
X219200000Y-158850000D01*
X208890000Y-158890000D02*
X208220000Y-158890000D01*
X206125000Y-155949291D02*
X205385709Y-155210000D01*
X209875000Y-159875000D02*
X208890000Y-158890000D01*
X206125000Y-143625000D02*
X209100000Y-143625000D01*
X208140000Y-160450000D02*
X207710000Y-160880000D01*
X205550000Y-145300000D02*
X205550000Y-144200000D01*
X243475000Y-115450000D02*
X242475000Y-115450000D01*
X223675000Y-139675000D02*
X223700000Y-139650000D01*
X220400000Y-136350000D02*
X219350000Y-136350000D01*
X206830000Y-160880000D02*
X207710000Y-160880000D01*
X204675000Y-155198250D02*
X203831750Y-155198250D01*
X234475000Y-142115000D02*
X234470000Y-142110000D01*
X226960000Y-160330000D02*
X229540000Y-160330000D01*
X220225000Y-160450000D02*
X220225000Y-159875000D01*
X238050000Y-153290000D02*
X238030000Y-153270000D01*
X219025000Y-136025000D02*
X219025000Y-133125000D01*
X206725000Y-136300000D02*
X205700000Y-136300000D01*
X212480000Y-164940000D02*
X212475000Y-164935000D01*
X234470000Y-142110000D02*
X234470000Y-140890000D01*
X216050000Y-155720000D02*
X215650000Y-155320000D01*
X219350000Y-136350000D02*
X219025000Y-136025000D01*
%TO.N,Net-(C2-Pad1)*%
X164665685Y-152625000D02*
X164300000Y-152259315D01*
X164775000Y-152625000D02*
X164665685Y-152625000D01*
X164300000Y-152259315D02*
X164300000Y-149775000D01*
%TO.N,GNDD*%
X164449500Y-142236206D02*
X164300000Y-142385706D01*
X158200000Y-147050000D02*
X157300500Y-147050000D01*
X159949999Y-141500001D02*
X160825001Y-141500001D01*
X185100000Y-177650000D02*
X184250000Y-176800000D01*
X184250000Y-173750000D02*
X180700000Y-173750000D01*
X169500000Y-148600000D02*
X170850000Y-148600000D01*
X167500000Y-147150000D02*
X166100000Y-147150000D01*
X164300000Y-142385706D02*
X164300000Y-142950000D01*
X194850000Y-175650000D02*
X194200000Y-175650000D01*
X164050000Y-153050000D02*
X164050000Y-152575000D01*
X227518927Y-146229200D02*
X227518927Y-146978927D01*
X185175000Y-122150000D02*
X185100000Y-122225000D01*
X170600000Y-143950000D02*
X170600000Y-143643504D01*
X165350000Y-154325000D02*
X164775000Y-154325000D01*
X184225000Y-119675000D02*
X184250000Y-119650000D01*
X174639961Y-133910039D02*
X174700000Y-133850000D01*
X178225000Y-146300000D02*
X177500000Y-146300000D01*
X174325000Y-143350000D02*
X174325000Y-144325000D01*
X174510470Y-128200000D02*
X175000000Y-128200000D01*
X194700000Y-120400000D02*
X194850000Y-120250000D01*
X183150000Y-154925000D02*
X183675000Y-154400000D01*
X152350000Y-128680000D02*
X152724600Y-128680000D01*
X164300000Y-144050000D02*
X164325000Y-144075000D01*
X170850000Y-148600000D02*
X170850000Y-149050498D01*
X194300000Y-119875000D02*
X192537500Y-118112500D01*
X185200000Y-177750000D02*
X185150000Y-177800000D01*
X155200000Y-149500000D02*
X156400000Y-149500000D01*
X182105000Y-154925000D02*
X183150000Y-154925000D01*
X158250000Y-140500000D02*
X158200000Y-140450000D01*
X170850000Y-149050498D02*
X171324502Y-149525000D01*
X194950000Y-119875000D02*
X194300000Y-119875000D01*
X186300000Y-122150000D02*
X185175000Y-122150000D01*
X185100000Y-122150000D02*
X184225000Y-121275000D01*
X178975000Y-146300000D02*
X178225000Y-146300000D01*
X174071360Y-127760890D02*
X174510470Y-128200000D01*
X160825001Y-141500001D02*
X160850000Y-141525000D01*
X163800000Y-150893331D02*
X163800000Y-149975000D01*
X164300000Y-142950000D02*
X164300000Y-144050000D01*
X180700000Y-173750000D02*
X180100000Y-173150000D01*
X184250000Y-119575000D02*
X184250000Y-118125000D01*
X176350000Y-128150000D02*
X175125000Y-128150000D01*
X167952500Y-126100000D02*
X167952500Y-125377500D01*
X178295000Y-154925000D02*
X182100000Y-154925000D01*
X163475000Y-152000000D02*
X163325000Y-152000000D01*
X192300000Y-173750000D02*
X186375000Y-173750000D01*
X152340000Y-128670000D02*
X152350000Y-128680000D01*
X175050000Y-150100000D02*
X175050000Y-151000000D01*
X227110000Y-147680000D02*
X228210000Y-147680000D01*
X184250000Y-118125000D02*
X184262500Y-118112500D01*
X164775000Y-153775000D02*
X164050000Y-153050000D01*
X170600000Y-143643504D02*
X171334324Y-142909180D01*
X169575000Y-154950000D02*
X169575000Y-154025000D01*
X186375000Y-173750000D02*
X184250000Y-173750000D01*
X167952500Y-125377500D02*
X167625000Y-125050000D01*
X163349228Y-151344103D02*
X163349228Y-151825772D01*
X227518927Y-146978927D02*
X227750000Y-147210000D01*
X184225000Y-121275000D02*
X184225000Y-119675000D01*
X159470800Y-140520800D02*
X159450000Y-140500000D01*
X180175000Y-114325000D02*
X180175000Y-117625000D01*
X164825000Y-144275000D02*
X164800000Y-144300000D01*
X178225000Y-146300000D02*
X178225000Y-145775000D01*
X165625000Y-147150000D02*
X164150000Y-147150000D01*
X194200000Y-175650000D02*
X192300000Y-173750000D01*
X159470800Y-140500000D02*
X158250000Y-140500000D01*
X160600000Y-148650000D02*
X161825000Y-148650000D01*
X160750000Y-140700000D02*
X160750000Y-141500000D01*
X184250000Y-176800000D02*
X184250000Y-174750000D01*
X194800000Y-177100000D02*
X194800000Y-175825000D01*
X169575000Y-154025000D02*
X169600000Y-154000000D01*
X169575000Y-154950000D02*
X169575000Y-155850000D01*
X174720000Y-133910039D02*
X174639961Y-133910039D01*
X163825000Y-139525000D02*
X164449500Y-140149500D01*
X226790000Y-150080000D02*
X226790000Y-148000000D01*
X169475000Y-148575000D02*
X169500000Y-148600000D01*
X227340000Y-150630000D02*
X226790000Y-150080000D01*
X180662500Y-118112500D02*
X184262500Y-118112500D01*
X155200000Y-149500000D02*
X155200000Y-148850000D01*
X163349228Y-151825772D02*
X163250000Y-151925000D01*
X180100000Y-173150000D02*
X180100000Y-169350000D01*
X166425000Y-154325000D02*
X165350000Y-154325000D01*
X175125000Y-128150000D02*
X175100000Y-128175000D01*
X159949999Y-141500001D02*
X159470800Y-141500001D01*
X194800000Y-175825000D02*
X194725000Y-175750000D01*
X159470800Y-141500001D02*
X159470800Y-140520800D01*
X164050000Y-152575000D02*
X163475000Y-152000000D01*
X184250000Y-175150000D02*
X184250000Y-173750000D01*
X180175000Y-117625000D02*
X180662500Y-118112500D01*
X183675000Y-154400000D02*
X183675000Y-153400000D01*
X163349228Y-151344103D02*
X163800000Y-150893331D01*
X186300000Y-177750000D02*
X185200000Y-177750000D01*
X177500000Y-146300000D02*
X177475000Y-146325000D01*
X157300500Y-147050000D02*
X157275000Y-147075500D01*
X173450000Y-133910039D02*
X174639961Y-133910039D01*
X194700000Y-121675000D02*
X194700000Y-120400000D01*
X226790000Y-148000000D02*
X227110000Y-147680000D01*
X157399999Y-141500001D02*
X157600000Y-141300000D01*
X185100000Y-177750000D02*
X185100000Y-177650000D01*
X156529200Y-141500001D02*
X157399999Y-141500001D01*
X192537500Y-118112500D02*
X184262500Y-118112500D01*
X164449500Y-140149500D02*
X164449500Y-142236206D01*
X164775000Y-154325000D02*
X164775000Y-153775000D01*
%TO.N,+3V3*%
X166650000Y-155850000D02*
X165875000Y-155850000D01*
X167987325Y-146650000D02*
X167375000Y-146650000D01*
X175990000Y-133910039D02*
X176960039Y-133910039D01*
X151653616Y-131768518D02*
X151829600Y-131592534D01*
X162790000Y-153340000D02*
X162775000Y-153325000D01*
X162800000Y-153340000D02*
X162790000Y-153340000D01*
X158645000Y-155880000D02*
X157850000Y-155880000D01*
X153850000Y-140000000D02*
X154700000Y-140000000D01*
X160300000Y-139900000D02*
X160200000Y-140000000D01*
X179565000Y-149975000D02*
X179565000Y-148790000D01*
X229040000Y-150630000D02*
X229040000Y-149220000D01*
X173400000Y-150450000D02*
X173400000Y-151500000D01*
X182650000Y-120600000D02*
X181650000Y-120600000D01*
X179450000Y-148400000D02*
X179050000Y-148000000D01*
X168237325Y-146900000D02*
X167987325Y-146650000D01*
X178850000Y-148000000D02*
X178925000Y-147925000D01*
D81*
X181300000Y-176300000D02*
X181275000Y-176325000D01*
D80*
X164849500Y-142070520D02*
X164849500Y-139700500D01*
X151829600Y-131592534D02*
X151829600Y-131305000D01*
X182650000Y-120600000D02*
X182650000Y-119500000D01*
X159125000Y-155400000D02*
X158645000Y-155880000D01*
X151829600Y-131305000D02*
X152254600Y-130880000D01*
X168375000Y-146900000D02*
X168375000Y-147634599D01*
X152254600Y-130880000D02*
X152724600Y-130880000D01*
X183400000Y-121350000D02*
X182650000Y-120600000D01*
X159275000Y-149150000D02*
X160600000Y-149150000D01*
D81*
X183400000Y-177750000D02*
X183400000Y-177050000D01*
D80*
X165675000Y-152500500D02*
X165699500Y-152525000D01*
X169450000Y-146900000D02*
X168375000Y-146900000D01*
X160900000Y-139050000D02*
X160900000Y-139900000D01*
X164800000Y-142950000D02*
X164850000Y-142900000D01*
X168375000Y-146900000D02*
X168237325Y-146900000D01*
X164874500Y-151700000D02*
X165224500Y-152050000D01*
X165675000Y-152050000D02*
X165675000Y-152500500D01*
D81*
X183400000Y-177050000D02*
X182650000Y-176300000D01*
D80*
X165875000Y-155850000D02*
X165850000Y-155875000D01*
X153700000Y-140150000D02*
X153850000Y-140000000D01*
X164800000Y-151625500D02*
X164800000Y-149850000D01*
X164874500Y-151700000D02*
X164800000Y-151625500D01*
X176960039Y-133910039D02*
X177025000Y-133975000D01*
X169475000Y-146875000D02*
X169450000Y-146900000D01*
X177475000Y-148000000D02*
X178850000Y-148000000D01*
X164849500Y-142899500D02*
X164849500Y-142070520D01*
X165699500Y-152525000D02*
X166325000Y-152525000D01*
X164849500Y-139700500D02*
X164850000Y-139700000D01*
X158550000Y-154825000D02*
X158125000Y-154825000D01*
D81*
X182650000Y-176300000D02*
X181300000Y-176300000D01*
D80*
X179565000Y-148790000D02*
X179450000Y-148675000D01*
X168375000Y-147634599D02*
X168437448Y-147697047D01*
X166325000Y-152525000D02*
X166425000Y-152625000D01*
X159050000Y-148925000D02*
X159275000Y-149150000D01*
X183400000Y-122150000D02*
X183400000Y-121350000D01*
X160200000Y-140000000D02*
X159500000Y-140000000D01*
X159125000Y-155400000D02*
X158550000Y-154825000D01*
X159050000Y-148925000D02*
X158250000Y-148925000D01*
X158250000Y-148925000D02*
X158200000Y-148875000D01*
D81*
X182650000Y-176300000D02*
X182650000Y-175150000D01*
D80*
X179450000Y-148675000D02*
X179450000Y-148400000D01*
X160900000Y-139900000D02*
X160300000Y-139900000D01*
X164850000Y-142900000D02*
X164849500Y-142899500D01*
X165224500Y-152050000D02*
X165675000Y-152050000D01*
%TO.N,Net-(C4-Pad2)*%
X186600000Y-178600000D02*
X187450000Y-177750000D01*
X187450000Y-177750000D02*
X185850000Y-176150000D01*
X182200000Y-177750000D02*
X183050000Y-178600000D01*
X185850000Y-176150000D02*
X185850000Y-175700000D01*
X183050000Y-178600000D02*
X186600000Y-178600000D01*
X188000000Y-177750000D02*
X187450000Y-177750000D01*
D82*
%TO.N,+BATT*%
X210175000Y-132875000D02*
X210225000Y-132825000D01*
X210175000Y-136300000D02*
X212225000Y-136300000D01*
X195587613Y-160152500D02*
X195000000Y-160152500D01*
D80*
X209640000Y-158450000D02*
X209040000Y-157850000D01*
D82*
X203700000Y-140650000D02*
X203750000Y-140700000D01*
X196057881Y-157915921D02*
X196057881Y-159682232D01*
D80*
X219982500Y-158450000D02*
X219382500Y-157850000D01*
D82*
X224100000Y-136350000D02*
X224100000Y-132525000D01*
X193375000Y-111322500D02*
X192677500Y-111322500D01*
X195975000Y-112200000D02*
X195975000Y-112789496D01*
X198055684Y-167200000D02*
X197576184Y-167679500D01*
X193595707Y-169425625D02*
X193595707Y-167667000D01*
X189272441Y-169447441D02*
X189257699Y-169447441D01*
X197576184Y-169401184D02*
X197650000Y-169475000D01*
D80*
X220225000Y-158450000D02*
X221420000Y-158450000D01*
D82*
X234500000Y-145270000D02*
X234500000Y-147190000D01*
X195450000Y-102686835D02*
X195450000Y-103614214D01*
D80*
X221625000Y-157100000D02*
X221625000Y-157575000D01*
X229470000Y-158285000D02*
X229175000Y-158285000D01*
D82*
X205550000Y-148575000D02*
X205550000Y-150450000D01*
X192066379Y-159678008D02*
X191591887Y-160152500D01*
D80*
X211275000Y-158355000D02*
X211180000Y-158450000D01*
D82*
X198325000Y-167200000D02*
X198055684Y-167200000D01*
X234575000Y-159480000D02*
X234575000Y-161225000D01*
X196057881Y-159682232D02*
X195587613Y-160152500D01*
D80*
X209875000Y-158450000D02*
X209640000Y-158450000D01*
D82*
X199175000Y-103525000D02*
X198422500Y-104277500D01*
D80*
X221420000Y-158450000D02*
X221430000Y-158440000D01*
X230565000Y-158285000D02*
X230590000Y-158260000D01*
X211275000Y-157100000D02*
X211275000Y-157545000D01*
D82*
X200231635Y-159726725D02*
X199793360Y-160165000D01*
X192025000Y-112863477D02*
X192410358Y-113248835D01*
X238240000Y-159480000D02*
X238270000Y-159510000D01*
X195450000Y-103614214D02*
X194786714Y-104277500D01*
X234575000Y-159480000D02*
X238240000Y-159480000D01*
X201800000Y-140650000D02*
X203700000Y-140650000D01*
X212225000Y-136300000D02*
X212300000Y-136375000D01*
D80*
X220225000Y-158450000D02*
X219982500Y-158450000D01*
D82*
X234575000Y-161225000D02*
X234670000Y-161320000D01*
X189425000Y-111322500D02*
X188902500Y-111322500D01*
X199175000Y-102475000D02*
X199175000Y-103525000D01*
X195975000Y-112789496D02*
X196387851Y-113202347D01*
X224100000Y-136350000D02*
X226175000Y-136350000D01*
X191591887Y-160152500D02*
X191050000Y-160152500D01*
D80*
X231260000Y-157910000D02*
X230870000Y-157520000D01*
D82*
X199793360Y-160165000D02*
X199000000Y-160165000D01*
D80*
X230870000Y-157520000D02*
X230870000Y-156935000D01*
X209040000Y-157850000D02*
X207960000Y-157850000D01*
D82*
X234655000Y-145115000D02*
X234500000Y-145270000D01*
D81*
X237840000Y-159480000D02*
X237850000Y-159470000D01*
D82*
X194075207Y-167187500D02*
X194350000Y-167187500D01*
X192034478Y-157894772D02*
X192066379Y-157926673D01*
X205550000Y-150450000D02*
X205575000Y-150475000D01*
X188902500Y-111322500D02*
X188425000Y-111800000D01*
D80*
X219382500Y-157850000D02*
X218470000Y-157850000D01*
D82*
X193595707Y-167667000D02*
X194075207Y-167187500D01*
D80*
X218470000Y-157850000D02*
X218460000Y-157840000D01*
X221625000Y-157575000D02*
X222040000Y-157990000D01*
D82*
X210175000Y-136300000D02*
X210175000Y-132875000D01*
D80*
X209875000Y-158450000D02*
X211180000Y-158450000D01*
D82*
X195071964Y-102308799D02*
X195450000Y-102686835D01*
X189257699Y-169447441D02*
X189257699Y-167657653D01*
X238040000Y-132625000D02*
X238040000Y-133690000D01*
X193635121Y-169465039D02*
X193595707Y-169425625D01*
X196840000Y-111335000D02*
X195975000Y-112200000D01*
X198422500Y-104277500D02*
X198000000Y-104277500D01*
X188425000Y-111800000D02*
X188425000Y-113300000D01*
X238200000Y-145115000D02*
X234655000Y-145115000D01*
X197350000Y-111335000D02*
X196840000Y-111335000D01*
X189715352Y-167200000D02*
X190400000Y-167200000D01*
D80*
X228730000Y-157840000D02*
X227510000Y-157840000D01*
D82*
X192025000Y-111975000D02*
X192025000Y-112863477D01*
X238770000Y-134420000D02*
X244480000Y-134420000D01*
X197576184Y-167679500D02*
X197576184Y-169401184D01*
X189257699Y-167657653D02*
X189715352Y-167200000D01*
X238040000Y-133690000D02*
X238770000Y-134420000D01*
X192677500Y-111322500D02*
X192025000Y-111975000D01*
X194786714Y-104277500D02*
X194025000Y-104277500D01*
X205550000Y-148575000D02*
X210600000Y-148575000D01*
X191114642Y-102351165D02*
X191114642Y-104035358D01*
D80*
X229470000Y-158285000D02*
X230565000Y-158285000D01*
D82*
X196020842Y-157878882D02*
X196057881Y-157915921D01*
D80*
X211275000Y-157545000D02*
X211710000Y-157980000D01*
D82*
X210600000Y-148575000D02*
X210625000Y-148600000D01*
X192066379Y-157926673D02*
X192066379Y-159678008D01*
X191114642Y-104035358D02*
X190860000Y-104290000D01*
D80*
X229470000Y-158285000D02*
X229555000Y-158285000D01*
D82*
X190860000Y-104290000D02*
X190075000Y-104290000D01*
X200231635Y-157881635D02*
X200231635Y-159726725D01*
D80*
X229175000Y-158285000D02*
X228730000Y-157840000D01*
%TO.N,Net-(C8-Pad2)*%
X188000000Y-122150000D02*
X187875000Y-122025000D01*
X188000000Y-122150000D02*
X187450000Y-122150000D01*
X186775000Y-122825000D02*
X182862500Y-122825000D01*
X187450000Y-122150000D02*
X185850000Y-120550000D01*
X187450000Y-122150000D02*
X186775000Y-122825000D01*
X185850000Y-120550000D02*
X185850000Y-119575000D01*
X182862500Y-122825000D02*
X182200000Y-122162500D01*
%TO.N,3-3V_2*%
X215825000Y-160095000D02*
X215800000Y-160120000D01*
X215750000Y-159470000D02*
X215820000Y-159540000D01*
X216090000Y-162090000D02*
X215400000Y-161400000D01*
X214575000Y-160900000D02*
X214910000Y-160900000D01*
X214680000Y-161130000D02*
X214680000Y-160970000D01*
X219510000Y-155300000D02*
X219520000Y-155310000D01*
X215825000Y-159548250D02*
X215825000Y-160095000D01*
X214980000Y-160120000D02*
X214980000Y-160830000D01*
X218710000Y-155300000D02*
X219510000Y-155300000D01*
X214200000Y-169150000D02*
X214200000Y-163986041D01*
X214125000Y-159535000D02*
X214190000Y-159470000D01*
X215800000Y-160120000D02*
X214980000Y-160120000D01*
X215400000Y-161400000D02*
X215400000Y-160900000D01*
X214125000Y-159548250D02*
X214125000Y-159535000D01*
X213830000Y-163616041D02*
X213830000Y-161740000D01*
X214125000Y-160485000D02*
X214610000Y-160970000D01*
X214190000Y-159470000D02*
X215750000Y-159470000D01*
X216105000Y-163190000D02*
X216090000Y-163175000D01*
X214980000Y-160120000D02*
X214980000Y-159610000D01*
X214910000Y-160900000D02*
X215400000Y-160900000D01*
X213830000Y-161740000D02*
X214570000Y-161000000D01*
X216205000Y-163090000D02*
X216105000Y-163190000D01*
X218780000Y-163090000D02*
X216205000Y-163090000D01*
X214125000Y-159548250D02*
X214125000Y-160485000D01*
X216090000Y-163175000D02*
X216090000Y-162090000D01*
X214980000Y-160830000D02*
X214910000Y-160900000D01*
X214200000Y-163986041D02*
X213830000Y-163616041D01*
%TO.N,3-3V_3*%
X205200000Y-169150000D02*
X205200000Y-164090000D01*
X208420000Y-155230000D02*
X209280000Y-155230000D01*
X203775000Y-159550000D02*
X203780000Y-159550000D01*
X204625000Y-163515000D02*
X204625000Y-159550000D01*
X205475000Y-159550000D02*
X205475000Y-160805000D01*
X203880000Y-159450000D02*
X205390000Y-159450000D01*
X207095000Y-163230000D02*
X209835000Y-163230000D01*
X205200000Y-164090000D02*
X204625000Y-163515000D01*
X205550000Y-160880000D02*
X205910000Y-160880000D01*
X205130000Y-160880000D02*
X205550000Y-160880000D01*
X205475000Y-160805000D02*
X205550000Y-160880000D01*
X204845000Y-160815000D02*
X205045000Y-160815000D01*
X205045000Y-160815000D02*
X205070000Y-160790000D01*
X203780000Y-159550000D02*
X203880000Y-159450000D01*
X207095000Y-163230000D02*
X205930000Y-162065000D01*
X205930000Y-162065000D02*
X205930000Y-160900000D01*
X209280000Y-155230000D02*
X209290000Y-155220000D01*
X203775000Y-159550000D02*
X203775000Y-160815000D01*
X205910000Y-160880000D02*
X205930000Y-160900000D01*
X205390000Y-159450000D02*
X205470000Y-159530000D01*
X209835000Y-163230000D02*
X209860000Y-163255000D01*
X203775000Y-160815000D02*
X204845000Y-160815000D01*
D81*
%TO.N,5V_3*%
X220700000Y-143300000D02*
X223325000Y-143300000D01*
X227700000Y-138925000D02*
X227700000Y-117950000D01*
X227700000Y-117950000D02*
X226875000Y-117125000D01*
X223325000Y-143300000D02*
X227700000Y-138925000D01*
X209125000Y-146075000D02*
X215700000Y-146075000D01*
X226900000Y-115625000D02*
X223475000Y-112200000D01*
X226900000Y-115700000D02*
X226900000Y-115625000D01*
X220975000Y-139675000D02*
X220975000Y-141625000D01*
X220975000Y-141625000D02*
X220950000Y-141650000D01*
X215700000Y-146075000D02*
X215725000Y-146100000D01*
X226900000Y-115900000D02*
X226925000Y-115875000D01*
X226900000Y-117100000D02*
X226900000Y-115900000D01*
X223475000Y-112200000D02*
X223475000Y-111950000D01*
%TO.N,+5V*%
X209300000Y-115750000D02*
X209325000Y-115725000D01*
X207675000Y-125025000D02*
X207550000Y-124900000D01*
X209300000Y-120300000D02*
X209250000Y-120350000D01*
X204350000Y-124300000D02*
X204375000Y-124275000D01*
X180175000Y-128500000D02*
X180225000Y-128450000D01*
X179150000Y-128500000D02*
X180175000Y-128500000D01*
X209300000Y-115275000D02*
X205225000Y-111200000D01*
X204900000Y-121100000D02*
X202550000Y-118750000D01*
X188550000Y-124300000D02*
X204350000Y-124300000D01*
X181950000Y-128400000D02*
X180275000Y-128400000D01*
X184450000Y-128400000D02*
X188550000Y-124300000D01*
X180150000Y-128400000D02*
X180375000Y-128400000D01*
X158829085Y-150979085D02*
X158829085Y-151340639D01*
X181950000Y-128400000D02*
X184450000Y-128400000D01*
X180275000Y-128400000D02*
X180250000Y-128425000D01*
X209300000Y-115750000D02*
X209300000Y-115275000D01*
X209300000Y-117150000D02*
X209300000Y-115750000D01*
X202550000Y-118750000D02*
X202550000Y-117775000D01*
X209300000Y-117150000D02*
X209300000Y-120300000D01*
X207675000Y-132675000D02*
X207675000Y-125025000D01*
X158825000Y-149650500D02*
X158825000Y-150975000D01*
X158825000Y-150975000D02*
X158829085Y-150979085D01*
%TO.N,5V_2*%
X218200000Y-115800000D02*
X218175000Y-115775000D01*
X218200000Y-117150000D02*
X218200000Y-115800000D01*
X217300000Y-120900000D02*
X217350000Y-120850000D01*
X218200000Y-115750000D02*
X218200000Y-115150000D01*
X221550000Y-124475000D02*
X221575000Y-124450000D01*
X215050000Y-120900000D02*
X217300000Y-120900000D01*
X221550000Y-132725000D02*
X221550000Y-124475000D01*
X218200000Y-115150000D02*
X214500000Y-111450000D01*
X218200000Y-117150000D02*
X218200000Y-120275000D01*
X218775000Y-121150000D02*
X218250000Y-120625000D01*
X218250000Y-117200000D02*
X218225000Y-117175000D01*
%TO.N,12V_3*%
X245175000Y-115450000D02*
X245175000Y-112450000D01*
X245855000Y-142575000D02*
X245900000Y-142620000D01*
X245855000Y-138870000D02*
X245855000Y-116185000D01*
X245160000Y-115490000D02*
X245160000Y-115430000D01*
X245175000Y-112450000D02*
X244425000Y-111700000D01*
X244925000Y-139800000D02*
X245855000Y-138870000D01*
X245855000Y-116185000D02*
X245160000Y-115490000D01*
X238200000Y-142575000D02*
X245855000Y-142575000D01*
%TO.N,12V_2*%
X236175000Y-115350000D02*
X236175000Y-112400000D01*
X236175000Y-115350000D02*
X236175000Y-119875000D01*
X236175000Y-119875000D02*
X236140000Y-119910000D01*
X236175000Y-112400000D02*
X235325000Y-111550000D01*
%TO.N,+12V*%
X235400000Y-169200000D02*
X241310000Y-163290000D01*
X241310000Y-156980000D02*
X244520000Y-156980000D01*
X244520000Y-156980000D02*
X244530000Y-156990000D01*
X251575000Y-150580000D02*
X251575000Y-151855000D01*
X251575000Y-151855000D02*
X250660000Y-152770000D01*
X238050000Y-156980000D02*
X241310000Y-156980000D01*
X241310000Y-163290000D02*
X241310000Y-156980000D01*
D80*
%TO.N,VUSB*%
X156600000Y-156206041D02*
X156600000Y-155800000D01*
X153750000Y-147525000D02*
X154375000Y-146900000D01*
X153750000Y-152950000D02*
X153750000Y-147525000D01*
X173700000Y-153350000D02*
X170100000Y-156950000D01*
X156600000Y-155800000D02*
X153750000Y-152950000D01*
X170100000Y-156950000D02*
X157343959Y-156950000D01*
X157343959Y-156950000D02*
X156600000Y-156206041D01*
X154375000Y-146900000D02*
X155425000Y-146900000D01*
X173700000Y-152550000D02*
X173700000Y-153350000D01*
%TO.N,Net-(D3-Pad2)*%
X181425000Y-160800000D02*
X181375000Y-160850000D01*
X183450000Y-160800000D02*
X181425000Y-160800000D01*
%TO.N,Net-(D4-Pad2)*%
X183500000Y-104850000D02*
X181425000Y-104850000D01*
X181425000Y-104850000D02*
X181300000Y-104975000D01*
%TO.N,Net-(D5-Pad2)*%
X200100000Y-140650000D02*
X200100000Y-139200000D01*
%TO.N,Net-(Q13-Pad3)*%
X189525000Y-172000000D02*
X189525000Y-171800000D01*
X186150000Y-170150000D02*
X186125000Y-170125000D01*
D83*
X185750000Y-163650000D02*
X198775000Y-163650000D01*
D80*
X186375000Y-170775000D02*
X185950000Y-170350000D01*
X188500000Y-170775000D02*
X186375000Y-170775000D01*
D83*
X185750000Y-170300000D02*
X185750000Y-163650000D01*
D80*
X189525000Y-171800000D02*
X188500000Y-170775000D01*
%TO.N,Net-(D7-Pad2)*%
X224040000Y-164940000D02*
X224030000Y-164950000D01*
X227550000Y-164940000D02*
X224040000Y-164940000D01*
X223150000Y-164090000D02*
X223150000Y-163370000D01*
X224000000Y-164940000D02*
X223150000Y-164090000D01*
%TO.N,Net-(D8-Pad2)*%
X215080000Y-163940000D02*
X214430000Y-163290000D01*
X218780000Y-164790000D02*
X215355000Y-164790000D01*
X215355000Y-164790000D02*
X215155000Y-164990000D01*
X215080000Y-164940000D02*
X215080000Y-163940000D01*
%TO.N,Net-(D9-Pad2)*%
X207600000Y-115800000D02*
X207575000Y-115775000D01*
X207600000Y-117150000D02*
X207600000Y-115800000D01*
X206200000Y-115750000D02*
X207700000Y-115750000D01*
%TO.N,Net-(D10-Pad2)*%
X216500000Y-117150000D02*
X216500000Y-115725000D01*
X216500000Y-115750000D02*
X215000000Y-115750000D01*
X215000000Y-115750000D02*
X214975000Y-115775000D01*
%TO.N,/processor/FLASH_CS*%
X161605000Y-155880000D02*
X161075000Y-155350000D01*
X161075000Y-151565686D02*
X162300000Y-150340686D01*
X164800000Y-155950000D02*
X164900000Y-155850000D01*
X162800000Y-155880000D02*
X161605000Y-155880000D01*
X164950000Y-155850000D02*
X162925000Y-155850000D01*
X162300000Y-150340686D02*
X162300000Y-149700000D01*
X161075000Y-155350000D02*
X161075000Y-151565686D01*
X162925000Y-155850000D02*
X162750000Y-156025000D01*
%TO.N,/processor/FLASH_MISO*%
X167425000Y-151365687D02*
X167425000Y-150948820D01*
X162800000Y-154089500D02*
X162800000Y-154610000D01*
X166850000Y-150373820D02*
X166850000Y-149875000D01*
X167425761Y-151366448D02*
X167425000Y-151365687D01*
X167425000Y-150948820D02*
X166850000Y-150373820D01*
%TO.N,/processor/FLASH_MOSI*%
X161300000Y-149700000D02*
X161300000Y-150125000D01*
X159355000Y-152070000D02*
X157850000Y-152070000D01*
X159713970Y-151711027D02*
X159713971Y-151711028D01*
X160138234Y-150862500D02*
X160138235Y-150862500D01*
X159713971Y-151711028D02*
X159355000Y-152070000D01*
X161300000Y-150125000D02*
X160562500Y-150862500D01*
X159431128Y-151003921D02*
X159713970Y-151286763D01*
X160138235Y-150862500D02*
X159855392Y-150579657D01*
X159431129Y-150579658D02*
G75*
G02*
X159855391Y-150579658I212131J-212131D01*
G01*
X160138234Y-150862500D02*
G75*
G03*
X160562500Y-150862500I212133J212134D01*
G01*
X159713975Y-151711032D02*
G75*
G03*
X159713970Y-151286763I-212175J212132D01*
G01*
X159431117Y-151003932D02*
G75*
G02*
X159431128Y-150579657I212183J212132D01*
G01*
%TO.N,/processor/FLASH_SCK*%
X157850000Y-153340000D02*
X157860000Y-153350000D01*
X161800000Y-150275000D02*
X161800000Y-149775000D01*
X159400000Y-153350000D02*
X160675000Y-152075000D01*
X160675000Y-152075000D02*
X160675000Y-151400000D01*
X160675000Y-151400000D02*
X161800000Y-150275000D01*
X157860000Y-153350000D02*
X159400000Y-153350000D01*
%TO.N,/batt_ctl/BATT_2_CURR*%
X169025000Y-142625000D02*
X169025000Y-128225000D01*
X175075000Y-122175000D02*
X180425000Y-122175000D01*
X169075500Y-144650000D02*
X169175000Y-144550500D01*
X167999314Y-144650000D02*
X169075500Y-144650000D01*
X167500000Y-144650000D02*
X167999314Y-144650000D01*
X169025000Y-128225000D02*
X175075000Y-122175000D01*
X169750000Y-143350000D02*
X169025000Y-142625000D01*
%TO.N,/batt_ctl/BATT_1_VSENSE*%
X170850000Y-146850000D02*
X170850000Y-146900000D01*
X170275000Y-146275000D02*
X170850000Y-146850000D01*
X168300498Y-146150000D02*
X167500000Y-146150000D01*
X170850000Y-146900000D02*
X170875000Y-146925000D01*
X168425498Y-146275000D02*
X168300498Y-146150000D01*
X168425498Y-146275000D02*
X170275000Y-146275000D01*
X170875000Y-146925000D02*
X172050000Y-146925000D01*
%TO.N,/batt_ctl/BATT_1_CURR*%
X180500000Y-177750000D02*
X175234000Y-177750000D01*
X167600000Y-145550000D02*
X167500000Y-145650000D01*
X172225000Y-157675000D02*
X172225000Y-157150000D01*
X172225000Y-174741000D02*
X172225000Y-157675000D01*
X169525000Y-145700000D02*
X169375000Y-145550000D01*
X175234000Y-177750000D02*
X172225000Y-174741000D01*
X169375000Y-145550000D02*
X167600000Y-145550000D01*
%TO.N,/batt_ctl/BATT_2_VSENSE*%
X168090000Y-145125000D02*
X170575000Y-145125000D01*
X171950000Y-145650000D02*
X171975000Y-145625000D01*
X169312673Y-143875000D02*
X168450000Y-143875000D01*
X168065000Y-145150000D02*
X168090000Y-145125000D01*
X169750000Y-144312327D02*
X169312673Y-143875000D01*
X170600000Y-145650000D02*
X171950000Y-145650000D01*
X170600000Y-145650000D02*
X170600000Y-145150000D01*
X169750000Y-145125000D02*
X169750000Y-144312327D01*
X168065000Y-145150000D02*
X167500000Y-145150000D01*
X170575000Y-145125000D02*
X170600000Y-145150000D01*
%TO.N,/A0_SENSE*%
X168170000Y-148255000D02*
X168170000Y-148445000D01*
X169275000Y-149550000D02*
X169400000Y-149550000D01*
X168065000Y-148150000D02*
X168170000Y-148255000D01*
X168170000Y-148445000D02*
X169275000Y-149550000D01*
X167500000Y-148150000D02*
X168065000Y-148150000D01*
%TO.N,/SERIAL1_TX*%
X165800000Y-142950000D02*
X165900000Y-142850000D01*
X165900000Y-142850000D02*
X165900000Y-139995685D01*
X166850000Y-139045685D02*
X166850000Y-128675000D01*
X165900000Y-139995685D02*
X166850000Y-139045685D01*
X166850000Y-128675000D02*
X167375000Y-128150000D01*
%TO.N,/SERIAL1_RX*%
X166950000Y-127075000D02*
X167800000Y-127075000D01*
X165300000Y-142480000D02*
X165500000Y-142280000D01*
X165500000Y-142280000D02*
X165500000Y-139830000D01*
X166450000Y-138880000D02*
X166450000Y-127575000D01*
X165500000Y-139830000D02*
X166450000Y-138880000D01*
X166450000Y-127575000D02*
X166950000Y-127075000D01*
X165300000Y-142950000D02*
X165300000Y-142480000D01*
%TO.N,/MOSI*%
X150906000Y-131834075D02*
X151415443Y-132343518D01*
X154925000Y-132025000D02*
X154975000Y-132025000D01*
X154975000Y-132025000D02*
X155350000Y-132025000D01*
X154025000Y-132325000D02*
X154025000Y-132375000D01*
X163874500Y-141953680D02*
X163874500Y-142244814D01*
X150906000Y-117464000D02*
X150906000Y-131834075D01*
X152254600Y-131980000D02*
X152724600Y-131980000D01*
X154625000Y-132375000D02*
X154625000Y-132325000D01*
X151710000Y-116660000D02*
X150906000Y-117464000D01*
X163800000Y-142319314D02*
X163800000Y-142950000D01*
X151415443Y-132343518D02*
X151891082Y-132343518D01*
X155350000Y-132025000D02*
X162149500Y-138824500D01*
X163874500Y-142244814D02*
X163800000Y-142319314D01*
X151891082Y-132343518D02*
X152254600Y-131980000D01*
X152675000Y-132025000D02*
X153725000Y-132025000D01*
X162149500Y-138824500D02*
X162149500Y-141975000D01*
X154625000Y-132375000D02*
G75*
G02*
X154325000Y-132675000I-300000J0D01*
G01*
X154325000Y-132675000D02*
G75*
G02*
X154025000Y-132375000I0J300000D01*
G01*
X154025000Y-132325000D02*
G75*
G03*
X153725000Y-132025000I-300000J0D01*
G01*
X154925000Y-132025000D02*
G75*
G03*
X154625000Y-132325000I0J-300000D01*
G01*
%TO.N,/SCK*%
X151780000Y-118780000D02*
X151306000Y-119254000D01*
X151306000Y-129386000D02*
X151700000Y-129780000D01*
X151700000Y-129780000D02*
X152724600Y-129780000D01*
X153715685Y-129825000D02*
X152600000Y-129825000D01*
X163300000Y-142950000D02*
X163300000Y-140575000D01*
X162549500Y-139824500D02*
X162549500Y-138658814D01*
X151306000Y-119254000D02*
X151306000Y-129386000D01*
X163300000Y-140575000D02*
X162549500Y-139824500D01*
X162549500Y-138658814D02*
X153715685Y-129825000D01*
%TO.N,/MISO*%
X151800000Y-127525400D02*
X151854600Y-127580000D01*
X154000000Y-127850000D02*
X153725000Y-127575000D01*
X154000000Y-129543628D02*
X154000000Y-127850000D01*
X151800000Y-121010500D02*
X151800000Y-127525400D01*
X151880500Y-120930000D02*
X151800000Y-121010500D01*
X163874500Y-140583814D02*
X162949500Y-139658814D01*
X162800000Y-142325000D02*
X162800000Y-141201000D01*
X163874500Y-141125000D02*
X163874500Y-140583814D01*
X162949500Y-138493128D02*
X154000000Y-129543628D01*
X162949500Y-139658814D02*
X162949500Y-138493128D01*
X153725000Y-127575000D02*
X152650000Y-127575000D01*
X162800000Y-142950000D02*
X162800000Y-142325000D01*
X162800000Y-141201000D02*
X162724000Y-141125000D01*
X151854600Y-127580000D02*
X152724600Y-127580000D01*
%TO.N,/SD_CS*%
X151620000Y-114540000D02*
X150506000Y-115654000D01*
X161575000Y-142280000D02*
X161575000Y-138815686D01*
X161800000Y-142505000D02*
X161575000Y-142280000D01*
X155859314Y-133100000D02*
X152725000Y-133100000D01*
X151210000Y-133080000D02*
X152724600Y-133080000D01*
X150506000Y-115654000D02*
X150506000Y-132376000D01*
X150506000Y-132376000D02*
X151210000Y-133080000D01*
X161800000Y-142950000D02*
X161800000Y-142505000D01*
X161575000Y-138815686D02*
X155859314Y-133100000D01*
X151770000Y-114540000D02*
X151620000Y-114540000D01*
D81*
%TO.N,/BUZZER*%
X173300000Y-128200000D02*
X173300000Y-126200000D01*
X173275000Y-129124500D02*
X173275000Y-128125000D01*
X160600000Y-142999000D02*
X160725000Y-142874000D01*
X160725000Y-142874000D02*
X160725000Y-142675000D01*
X160600000Y-143650000D02*
X160600000Y-142999000D01*
X160600000Y-142999000D02*
X160624000Y-142975000D01*
D80*
%TO.N,/batt_ctl/BATT_1_CTL*%
X154225000Y-157306686D02*
X175918314Y-179000000D01*
X175918314Y-179000000D02*
X189925000Y-179000000D01*
X193100000Y-177100000D02*
X192325000Y-177100000D01*
X191375000Y-177550000D02*
X191375000Y-176550000D01*
X192325000Y-177100000D02*
X191950000Y-176725000D01*
X159474500Y-143169621D02*
X159530000Y-143225121D01*
X154225000Y-154725000D02*
X154225000Y-157306686D01*
X159474500Y-142775000D02*
X159474500Y-143169621D01*
X189925000Y-179000000D02*
X191375000Y-177550000D01*
X159530000Y-143225121D02*
X159530000Y-144210686D01*
X159530000Y-144210686D02*
X159969315Y-144650000D01*
X191950000Y-176725000D02*
X191400000Y-176725000D01*
X159969315Y-144650000D02*
X160600000Y-144650000D01*
%TO.N,/batt_ctl/BATT_2_CTL*%
X159930000Y-143390806D02*
X159930000Y-144045000D01*
X160018146Y-142505473D02*
X160049500Y-142536827D01*
X160049500Y-142536827D02*
X160049500Y-143271306D01*
X191475000Y-121175000D02*
X191500000Y-121150000D01*
X160035000Y-144150000D02*
X160600000Y-144150000D01*
X191475000Y-121275000D02*
X191450000Y-121250000D01*
X191475000Y-122350000D02*
X191475000Y-121175000D01*
X193000000Y-121675000D02*
X192600000Y-121275000D01*
X160049500Y-143271306D02*
X159930000Y-143390806D01*
X159930000Y-144045000D02*
X160035000Y-144150000D01*
X191025000Y-122800000D02*
X191475000Y-122350000D01*
X160018146Y-142259052D02*
X160018146Y-142505473D01*
X192600000Y-121275000D02*
X191475000Y-121275000D01*
%TO.N,/SDA*%
X157850000Y-139500000D02*
X156750000Y-139500000D01*
X160035000Y-146650000D02*
X157900000Y-144515000D01*
X156750000Y-139500000D02*
X156529200Y-139720800D01*
X157900000Y-144515000D02*
X157900000Y-142250000D01*
X160600000Y-146650000D02*
X160035000Y-146650000D01*
X156529200Y-139720800D02*
X156529200Y-139999999D01*
%TO.N,/SCL*%
X157325500Y-144550500D02*
X157325500Y-143200000D01*
X160600000Y-147150000D02*
X159925000Y-147150000D01*
X159925000Y-147150000D02*
X157325500Y-144550500D01*
X155850416Y-140500000D02*
X156775000Y-140500000D01*
X155637708Y-140287292D02*
X155850416Y-140500000D01*
D84*
%TO.N,/USB_D-*%
X155275000Y-147625000D02*
X160825000Y-147625000D01*
X160825000Y-147625000D02*
X160875000Y-147675000D01*
X155075000Y-147650000D02*
X155050000Y-147625000D01*
X155200000Y-147550000D02*
X155275000Y-147625000D01*
%TO.N,/USB_D+*%
X155200000Y-148200000D02*
X155300000Y-148100000D01*
X160550000Y-148100000D02*
X160675000Y-148225000D01*
X155300000Y-148100000D02*
X160550000Y-148100000D01*
D80*
%TO.N,/~{RESET_RAW}*%
X170910000Y-138210039D02*
X170910000Y-136985000D01*
X171675000Y-152975000D02*
X171675000Y-150350000D01*
X171675000Y-152975000D02*
X171675000Y-154800000D01*
X171675000Y-154800000D02*
X169925000Y-156550000D01*
X166958614Y-155200000D02*
X161750000Y-155200000D01*
X173700000Y-147800000D02*
X173700000Y-146625000D01*
X176000000Y-146375000D02*
X178175000Y-144200000D01*
X173700000Y-146375000D02*
X176000000Y-146375000D01*
X173225000Y-149525000D02*
X174175000Y-148575000D01*
X161550000Y-151743959D02*
X162372832Y-150921127D01*
X170200000Y-136275000D02*
X170200000Y-132375000D01*
X173550000Y-146225000D02*
X173600000Y-146275000D01*
X170200000Y-132375000D02*
X170675000Y-131900000D01*
X172625000Y-149525000D02*
X173225000Y-149525000D01*
X161550000Y-155000000D02*
X161550000Y-151743959D01*
X172450000Y-130550000D02*
X174550000Y-130550000D01*
X171100000Y-131900000D02*
X172450000Y-130550000D01*
X169925000Y-156550000D02*
X167498959Y-156550000D01*
X173550000Y-141770039D02*
X173550000Y-146225000D01*
X162800000Y-150851610D02*
X162730483Y-150921127D01*
X167275000Y-155516386D02*
X166958614Y-155200000D01*
X162800000Y-149850000D02*
X162800000Y-150851610D01*
X171700000Y-150450000D02*
X172625000Y-149525000D01*
X162372832Y-150921127D02*
X162730483Y-150921127D01*
X170910000Y-136985000D02*
X170200000Y-136275000D01*
X170675000Y-131900000D02*
X171100000Y-131900000D01*
X174325000Y-148425000D02*
X173700000Y-147800000D01*
X170910000Y-139130039D02*
X173550000Y-141770039D01*
X161750000Y-155200000D02*
X161550000Y-155000000D01*
X167275000Y-156326041D02*
X167275000Y-155516386D01*
X170910000Y-138210039D02*
X170910000Y-139130039D01*
X167498959Y-156550000D02*
X167275000Y-156326041D01*
X173700000Y-146625000D02*
X173775000Y-146550000D01*
X171675000Y-150350000D02*
X171725000Y-150300000D01*
%TO.N,/SWCLK*%
X174718767Y-140818767D02*
X174725000Y-140812534D01*
X165588243Y-151471256D02*
X165300000Y-151183013D01*
X165300000Y-151183013D02*
X165300000Y-149850000D01*
X174725000Y-140812534D02*
X174725000Y-138500000D01*
%TO.N,/SWDIO*%
X175475000Y-140875000D02*
X175950000Y-140400000D01*
X175950000Y-140400000D02*
X175950000Y-139175000D01*
X165876883Y-150376883D02*
X165876883Y-150779562D01*
X165800000Y-150300000D02*
X165876883Y-150376883D01*
X165800000Y-149850000D02*
X165800000Y-150300000D01*
%TO.N,/A5_SENSE*%
X166800000Y-150889506D02*
X166300000Y-150389506D01*
X166300000Y-150389506D02*
X166300000Y-149850000D01*
X166800000Y-151779232D02*
X166800000Y-150889506D01*
X166800500Y-151779732D02*
X166800000Y-151779232D01*
%TO.N,/RESET*%
X167875000Y-153950000D02*
X168000000Y-153825000D01*
X167875000Y-155875000D02*
X167875000Y-153950000D01*
%TO.N,Net-(P1-Pad1)*%
X170910000Y-133910039D02*
X170910000Y-132990039D01*
X176175000Y-131925000D02*
X177525000Y-130575000D01*
X171975039Y-131925000D02*
X176175000Y-131925000D01*
X170910000Y-132990039D02*
X171975039Y-131925000D01*
%TO.N,Net-(Q1-Pad1)*%
X168050000Y-152125000D02*
X169600000Y-152125000D01*
%TO.N,Net-(Q2-Pad1)*%
X192300000Y-175000000D02*
X192950000Y-175650000D01*
X191200000Y-175000000D02*
X192300000Y-175000000D01*
%TO.N,Net-(Q2-Pad3)*%
X200775000Y-156250000D02*
X197650000Y-156250000D01*
X201950000Y-157425000D02*
X200775000Y-156250000D01*
X199750000Y-170175000D02*
X199600000Y-170175000D01*
X199700000Y-170100000D02*
X201950000Y-167850000D01*
X197650000Y-156250000D02*
X196575000Y-156250000D01*
X193700000Y-157250000D02*
X193700000Y-156325000D01*
X190800000Y-156250000D02*
X193775000Y-156250000D01*
X199600000Y-170175000D02*
X198825000Y-170950000D01*
X198825000Y-170950000D02*
X195950000Y-170950000D01*
X193900000Y-173650000D02*
X193900000Y-172650000D01*
X195950000Y-170950000D02*
X192775000Y-170950000D01*
X194825000Y-172200000D02*
X194825000Y-170975000D01*
X195950000Y-170125000D02*
X195950000Y-170950000D01*
X197600000Y-157275000D02*
X197750000Y-157275000D01*
X201950000Y-167850000D02*
X201950000Y-157425000D01*
X192775000Y-170950000D02*
X191975000Y-170150000D01*
X197700000Y-157275000D02*
X197700000Y-156300000D01*
X189725000Y-157225000D02*
X189825000Y-157225000D01*
X191975000Y-170150000D02*
X191975000Y-170125000D01*
X194350000Y-172200000D02*
X194825000Y-172200000D01*
X193775000Y-156250000D02*
X196575000Y-156250000D01*
X193900000Y-172650000D02*
X194350000Y-172200000D01*
X189825000Y-157225000D02*
X190800000Y-156250000D01*
X193700000Y-156325000D02*
X193775000Y-156250000D01*
X197700000Y-156300000D02*
X197650000Y-156250000D01*
%TO.N,Net-(Q3-Pad2)*%
X193700000Y-158950000D02*
X193625000Y-159025000D01*
X193625000Y-159025000D02*
X193625000Y-160225000D01*
%TO.N,Net-(Q5-Pad2)*%
X191975000Y-168425000D02*
X191775000Y-168225000D01*
X191775000Y-168225000D02*
X191775000Y-167250000D01*
%TO.N,Net-(Q8-Pad1)*%
X175075000Y-126250000D02*
X175025000Y-126200000D01*
X176350000Y-126250000D02*
X175075000Y-126250000D01*
%TO.N,Net-(Q8-Pad3)*%
X181875000Y-126400000D02*
X181900000Y-126375000D01*
D81*
X180150000Y-126400000D02*
X181925000Y-126400000D01*
X184675000Y-127225000D02*
X183875000Y-126425000D01*
X178350000Y-127200000D02*
X179125000Y-127200000D01*
D80*
X179800000Y-126525000D02*
X179875000Y-126525000D01*
D81*
X179125000Y-127200000D02*
X179925000Y-126400000D01*
X182000000Y-126425000D02*
X181975000Y-126400000D01*
X183875000Y-126425000D02*
X182000000Y-126425000D01*
D80*
%TO.N,Net-(R10-Pad2)*%
X189450000Y-175600000D02*
X189450000Y-174950000D01*
X189350000Y-175700000D02*
X189450000Y-175600000D01*
X189350000Y-176600000D02*
X189350000Y-175700000D01*
%TO.N,Net-(C34-Pad1)*%
X176750000Y-150100000D02*
X178275000Y-150100000D01*
X178275000Y-150100000D02*
X178300000Y-150075000D01*
%TO.N,Net-(R11-Pad1)*%
X191575000Y-172200000D02*
X191475000Y-172100000D01*
X193125000Y-172200000D02*
X191575000Y-172200000D01*
%TO.N,Net-(Q4-Pad2)*%
X189725000Y-158925000D02*
X189675000Y-158975000D01*
X189675000Y-158975000D02*
X189675000Y-160075000D01*
%TO.N,Net-(R29-Pad2)*%
X227920000Y-157335000D02*
X228855000Y-157335000D01*
X228855000Y-157335000D02*
X229220000Y-156970000D01*
%TO.N,Net-(R30-Pad2)*%
X219776750Y-157348250D02*
X219950000Y-157175000D01*
X218675000Y-157348250D02*
X219776750Y-157348250D01*
%TO.N,Net-(R31-Pad2)*%
X209280000Y-157350000D02*
X209520000Y-157110000D01*
X208325000Y-157350000D02*
X209280000Y-157350000D01*
%TO.N,Net-(R32-Pad2)*%
X225820000Y-155285000D02*
X227035000Y-155285000D01*
X227020000Y-155320000D02*
X227040000Y-155300000D01*
X227020000Y-156685000D02*
X227020000Y-155320000D01*
X227035000Y-155285000D02*
X227050000Y-155270000D01*
%TO.N,Net-(R34-Pad2)*%
X216631750Y-155298250D02*
X216630000Y-155300000D01*
X217775000Y-156698250D02*
X217775000Y-155315000D01*
X217825000Y-155298250D02*
X216631750Y-155298250D01*
X217775000Y-155315000D02*
X217820000Y-155270000D01*
%TO.N,Net-(R36-Pad2)*%
X206375000Y-155198250D02*
X207538250Y-155198250D01*
X207425000Y-155235000D02*
X207490000Y-155170000D01*
X207425000Y-156700000D02*
X207425000Y-155235000D01*
X207538250Y-155198250D02*
X207570000Y-155230000D01*
%TO.N,Net-(R53-Pad1)*%
X155475000Y-141000000D02*
X156775000Y-141000000D01*
X154700000Y-141700000D02*
X154775000Y-141700000D01*
X154775000Y-141700000D02*
X155475000Y-141000000D01*
%TO.N,Net-(Q6-Pad2)*%
X195950000Y-168425000D02*
X195725000Y-168200000D01*
X195725000Y-168200000D02*
X195725000Y-167175000D01*
%TO.N,Net-(Q7-Pad1)*%
X192800000Y-119875000D02*
X192100000Y-119175000D01*
X193050000Y-119875000D02*
X192800000Y-119875000D01*
X192100000Y-119175000D02*
X191200000Y-119175000D01*
%TO.N,Net-(Q7-Pad3)*%
X194725000Y-114775000D02*
X194775000Y-114825000D01*
X190775000Y-114225000D02*
X191375000Y-114825000D01*
X189400000Y-100800000D02*
X192750000Y-100800000D01*
X199910966Y-100800000D02*
X200650000Y-101539034D01*
X194725000Y-116425000D02*
X194725000Y-114875000D01*
X194775000Y-114825000D02*
X198075000Y-114825000D01*
X194725000Y-114250000D02*
X194725000Y-114775000D01*
X200650000Y-112275000D02*
X198700000Y-114225000D01*
X191375000Y-114825000D02*
X194775000Y-114825000D01*
X194000000Y-117875000D02*
X194750000Y-117125000D01*
X194750000Y-117125000D02*
X194750000Y-116675000D01*
X192750000Y-100800000D02*
X196700000Y-100800000D01*
X188800000Y-101400000D02*
X189400000Y-100800000D01*
X192750000Y-101375000D02*
X192750000Y-100800000D01*
X196700000Y-100800000D02*
X199910966Y-100800000D01*
X198075000Y-114825000D02*
X198675000Y-114225000D01*
X200650000Y-101539034D02*
X200650000Y-112275000D01*
X194725000Y-114875000D02*
X194775000Y-114825000D01*
X196700000Y-101350000D02*
X196700000Y-100800000D01*
%TO.N,Net-(Q9-Pad2)*%
X194750000Y-112525000D02*
X194750000Y-111300000D01*
X194725000Y-112550000D02*
X194750000Y-112525000D01*
D83*
%TO.N,Net-(Q10-Pad3)*%
X185850000Y-107600000D02*
X197825000Y-107600000D01*
X185750000Y-114725000D02*
X185750000Y-107700000D01*
D80*
X185975000Y-114900000D02*
X187200000Y-116125000D01*
X187200000Y-116125000D02*
X189425000Y-116125000D01*
D83*
X185750000Y-107700000D02*
X185850000Y-107600000D01*
D80*
%TO.N,Net-(Q10-Pad2)*%
X190800000Y-112500000D02*
X190800000Y-111300000D01*
X190775000Y-112525000D02*
X190800000Y-112500000D01*
%TO.N,Net-(Q11-Pad2)*%
X188800000Y-103100000D02*
X188700000Y-103200000D01*
X188700000Y-103200000D02*
X188700000Y-104325000D01*
%TO.N,Net-(R25-Pad2)*%
X189500000Y-120725000D02*
X189387500Y-120612500D01*
X189387500Y-120612500D02*
X189387500Y-119400000D01*
%TO.N,Net-(R27-Pad1)*%
X192825000Y-116625000D02*
X191425000Y-116625000D01*
X193025000Y-116425000D02*
X192825000Y-116625000D01*
%TO.N,Net-(D6-Pad2)*%
X206245000Y-164930000D02*
X206245000Y-164120000D01*
X209795000Y-164930000D02*
X206285000Y-164930000D01*
X206245000Y-164120000D02*
X205420000Y-163295000D01*
X206285000Y-164930000D02*
X206270000Y-164915000D01*
%TO.N,Net-(D11-Pad2)*%
X225200000Y-115700000D02*
X224000000Y-115700000D01*
X225200000Y-117100000D02*
X225200000Y-115550000D01*
X224000000Y-115700000D02*
X223950000Y-115650000D01*
X225200000Y-115550000D02*
X225225000Y-115525000D01*
D83*
%TO.N,BATT_1_PWR*%
X176700000Y-163750000D02*
X176350000Y-163400000D01*
D80*
X173700000Y-155000000D02*
X172900000Y-155000000D01*
D83*
X182750000Y-164000000D02*
X182500000Y-163750000D01*
D80*
X172325000Y-147875000D02*
X172325000Y-148475000D01*
X172900000Y-155000000D02*
X172600000Y-155300000D01*
X173775000Y-155825000D02*
X173775000Y-155075000D01*
X172425000Y-147775000D02*
X172325000Y-147875000D01*
X176350000Y-162500000D02*
X176350000Y-158400000D01*
D83*
X182500000Y-163750000D02*
X176700000Y-163750000D01*
X182750000Y-170300000D02*
X182750000Y-164000000D01*
D80*
X176350000Y-158400000D02*
X173775000Y-155825000D01*
%TO.N,BATT_2_PWR*%
X173207000Y-113118000D02*
X176350000Y-109975000D01*
D83*
X176750000Y-107700000D02*
X176550000Y-107500000D01*
D80*
X173207000Y-120543000D02*
X173207000Y-113118000D01*
X172050000Y-144700000D02*
X172050000Y-144175000D01*
X172050000Y-144175000D02*
X171950000Y-144075000D01*
D83*
X182750000Y-114725000D02*
X182750000Y-107700000D01*
D80*
X174169500Y-121505500D02*
X173207000Y-120543000D01*
X179675000Y-145000000D02*
X179650000Y-145025000D01*
D83*
X182750000Y-107700000D02*
X176750000Y-107700000D01*
D80*
X180925000Y-145000000D02*
X179675000Y-145000000D01*
X180200000Y-144275000D02*
X180200000Y-130275000D01*
X180925000Y-145000000D02*
X180200000Y-144275000D01*
X176350000Y-109975000D02*
X176350000Y-106675000D01*
%TO.N,Net-(C33-Pad2)*%
X176500000Y-152550000D02*
X178850000Y-152550000D01*
X176500000Y-152650000D02*
X176550000Y-152600000D01*
X182975000Y-149975000D02*
X180835000Y-149975000D01*
X183725000Y-151675000D02*
X183725000Y-150725000D01*
X176500000Y-155000000D02*
X176500000Y-152650000D01*
X180835000Y-149975000D02*
X180835000Y-147890000D01*
X178850000Y-152550000D02*
X180925000Y-150475000D01*
X183725000Y-150725000D02*
X182975000Y-149975000D01*
X180835000Y-147890000D02*
X180875000Y-147850000D01*
%TO.N,Net-(Q13-Pad2)*%
X197700000Y-158975000D02*
X197625000Y-159050000D01*
X197625000Y-159050000D02*
X197625000Y-160200000D01*
%TO.N,Net-(Q14-Pad2)*%
X199700000Y-168400000D02*
X199700000Y-167200000D01*
%TO.N,Net-(Q15-Pad2)*%
X198725000Y-112500000D02*
X198725000Y-111325000D01*
X198700000Y-112525000D02*
X198725000Y-112500000D01*
%TD*%
M02*
