%TF.GenerationSoftware,KiCad,Pcbnew,(6.0.10-0)*%
%TF.CreationDate,2023-03-03T19:39:16-08:00*%
%TF.ProjectId,1.0,312e302e-6b69-4636-9164-5f7063625858,rev?*%
%TF.SameCoordinates,Original*%
%TF.FileFunction,Copper,L4,Bot*%
%TF.FilePolarity,Positive*%
%FSLAX46Y46*%
G04 Gerber Fmt 4.6, Leading zero omitted, Abs format (unit mm)*
G04 Created by KiCad (PCBNEW (6.0.10-0)) date 2023-03-03 19:39:16*
%MOMM*%
%LPD*%
G01*
G04 APERTURE LIST*
G04 Aperture macros list*
%AMFreePoly0*
4,1,22,0.550000,-0.750000,0.000000,-0.750000,0.000000,-0.745033,-0.079941,-0.743568,-0.215256,-0.701293,-0.333266,-0.622738,-0.424486,-0.514219,-0.481581,-0.384460,-0.499164,-0.250000,-0.500000,-0.250000,-0.500000,0.250000,-0.499164,0.250000,-0.499963,0.256109,-0.478152,0.396186,-0.417904,0.524511,-0.324060,0.630769,-0.204165,0.706417,-0.067858,0.745374,0.000000,0.744959,0.000000,0.750000,
0.550000,0.750000,0.550000,-0.750000,0.550000,-0.750000,$1*%
%AMFreePoly1*
4,1,20,0.000000,0.744959,0.073905,0.744508,0.209726,0.703889,0.328688,0.626782,0.421226,0.519385,0.479903,0.390333,0.500000,0.250000,0.500000,-0.250000,0.499851,-0.262216,0.476331,-0.402017,0.414519,-0.529596,0.319384,-0.634700,0.198574,-0.708877,0.061801,-0.746166,0.000000,-0.745033,0.000000,-0.750000,-0.550000,-0.750000,-0.550000,0.750000,0.000000,0.750000,0.000000,0.744959,
0.000000,0.744959,$1*%
G04 Aperture macros list end*
%TA.AperFunction,ComponentPad*%
%ADD10C,3.600000*%
%TD*%
%TA.AperFunction,ComponentPad*%
%ADD11R,3.800000X3.800000*%
%TD*%
%TA.AperFunction,ComponentPad*%
%ADD12C,4.000000*%
%TD*%
%TA.AperFunction,ComponentPad*%
%ADD13R,1.500000X1.500000*%
%TD*%
%TA.AperFunction,ComponentPad*%
%ADD14C,3.000000*%
%TD*%
%TA.AperFunction,ComponentPad*%
%ADD15O,2.600000X1.300000*%
%TD*%
%TA.AperFunction,ComponentPad*%
%ADD16R,4.916000X4.916000*%
%TD*%
%TA.AperFunction,ComponentPad*%
%ADD17C,4.916000*%
%TD*%
%TA.AperFunction,ComponentPad*%
%ADD18R,2.000000X2.000000*%
%TD*%
%TA.AperFunction,ComponentPad*%
%ADD19C,2.000000*%
%TD*%
%TA.AperFunction,SMDPad,CuDef*%
%ADD20R,2.000000X2.000000*%
%TD*%
%TA.AperFunction,SMDPad,CuDef*%
%ADD21R,1.800000X1.200000*%
%TD*%
%TA.AperFunction,SMDPad,CuDef*%
%ADD22R,1.550000X0.600000*%
%TD*%
%TA.AperFunction,SMDPad,CuDef*%
%ADD23FreePoly0,90.000000*%
%TD*%
%TA.AperFunction,SMDPad,CuDef*%
%ADD24R,1.500000X1.000000*%
%TD*%
%TA.AperFunction,SMDPad,CuDef*%
%ADD25FreePoly1,90.000000*%
%TD*%
%TA.AperFunction,SMDPad,CuDef*%
%ADD26C,2.000000*%
%TD*%
%TA.AperFunction,ViaPad*%
%ADD27C,0.600000*%
%TD*%
%TA.AperFunction,ViaPad*%
%ADD28C,3.500000*%
%TD*%
%TA.AperFunction,ViaPad*%
%ADD29C,2.000000*%
%TD*%
%TA.AperFunction,ViaPad*%
%ADD30C,0.700000*%
%TD*%
%TA.AperFunction,Conductor*%
%ADD31C,0.250000*%
%TD*%
%TA.AperFunction,Conductor*%
%ADD32C,2.500000*%
%TD*%
%TA.AperFunction,Conductor*%
%ADD33C,0.350000*%
%TD*%
G04 APERTURE END LIST*
%TO.C,NT1*%
G36*
X186300000Y-141000000D02*
G01*
X182300000Y-141000000D01*
X182300000Y-139000000D01*
X186300000Y-139000000D01*
X186300000Y-141000000D01*
G37*
%TD*%
D10*
%TO.P,U28,1*%
%TO.N,N/C*%
X247150000Y-108675000D03*
%TD*%
D11*
%TO.P,U22,1,-*%
%TO.N,GND*%
X223200000Y-106150000D03*
D12*
%TO.P,U22,2,+*%
%TO.N,5V_3*%
X223200000Y-111150000D03*
%TD*%
D11*
%TO.P,U35,1*%
%TO.N,N/C*%
X232300000Y-106170000D03*
D12*
%TO.P,U35,2*%
X232300000Y-111170000D03*
%TD*%
D13*
%TO.P,P2,1,1*%
%TO.N,/~{RESET_RAW}*%
X174800000Y-130600000D03*
%TD*%
D11*
%TO.P,U17,1,-*%
%TO.N,GND*%
X223200000Y-174150000D03*
D12*
%TO.P,U17,2,+*%
%TO.N,3-3V_1*%
X223200000Y-169150000D03*
%TD*%
D11*
%TO.P,U20,1,-*%
%TO.N,GND*%
X205200000Y-106150000D03*
D12*
%TO.P,U20,2,+*%
%TO.N,+5V*%
X205200000Y-111150000D03*
%TD*%
D13*
%TO.P,P1,1,1*%
%TO.N,Net-(P1-Pad1)*%
X177775000Y-130600000D03*
%TD*%
D11*
%TO.P,U23,1,-*%
%TO.N,GND*%
X242725000Y-174150000D03*
D12*
%TO.P,U23,2,+*%
%TO.N,+12V*%
X242725000Y-169150000D03*
%TD*%
D14*
%TO.P,C5,1*%
%TO.N,+BATT*%
X244725000Y-157550000D03*
%TO.P,C5,2*%
%TO.N,GND*%
X239725000Y-157600000D03*
%TD*%
D11*
%TO.P,U18,1,-*%
%TO.N,GND*%
X214200000Y-174150000D03*
D12*
%TO.P,U18,2,+*%
%TO.N,3-3V_2*%
X214200000Y-169150000D03*
%TD*%
D15*
%TO.P,U16,*%
%TO.N,*%
X166890000Y-121460000D03*
X166890000Y-102560000D03*
D16*
%TO.P,U16,1,-*%
%TO.N,GND*%
X176290000Y-117460000D03*
D17*
%TO.P,U16,2,+*%
%TO.N,BATT_2_PWR*%
X176290000Y-106560000D03*
%TD*%
D10*
%TO.P,U27,1*%
%TO.N,unconnected-(U27-Pad1)*%
X247400000Y-171400000D03*
%TD*%
D11*
%TO.P,U24,1,-*%
%TO.N,GND*%
X241280000Y-106170000D03*
D12*
%TO.P,U24,2,+*%
%TO.N,12V_2*%
X241280000Y-111170000D03*
%TD*%
D11*
%TO.P,U25,1,-*%
%TO.N,GND*%
X233725000Y-174150000D03*
D12*
%TO.P,U25,2,+*%
%TO.N,12V_3*%
X233725000Y-169150000D03*
%TD*%
D15*
%TO.P,U15,*%
%TO.N,*%
X166950000Y-177400000D03*
X166950000Y-158500000D03*
D16*
%TO.P,U15,1,-*%
%TO.N,GND*%
X176350000Y-173400000D03*
D17*
%TO.P,U15,2,+*%
%TO.N,BATT_1_PWR*%
X176350000Y-162500000D03*
%TD*%
D11*
%TO.P,U19,1,-*%
%TO.N,GND*%
X205200000Y-174150000D03*
D12*
%TO.P,U19,2,+*%
%TO.N,3-3V_3*%
X205200000Y-169150000D03*
%TD*%
D11*
%TO.P,U21,1,-*%
%TO.N,GND*%
X214200000Y-106150000D03*
D12*
%TO.P,U21,2,+*%
%TO.N,5V_2*%
X214200000Y-111150000D03*
%TD*%
D18*
%TO.P,SP1,1,+*%
%TO.N,Net-(Q8-Pad3)*%
X188200000Y-127600000D03*
D19*
%TO.P,SP1,2,-*%
%TO.N,GNDD*%
X188200000Y-135200000D03*
%TD*%
D20*
%TO.P,TP11,1*%
%TO.N,/batt_ctl/BATT_1_CTL*%
X163200000Y-146400000D03*
%TD*%
D21*
%TO.P,J4,*%
%TO.N,*%
X152162500Y-155100000D03*
X152162500Y-149500000D03*
D22*
%TO.P,J4,1*%
%TO.N,Net-(J4-Pad1)*%
X156037500Y-153800000D03*
%TO.P,J4,2*%
%TO.N,GNDD*%
X156037500Y-152800000D03*
%TO.P,J4,3*%
%TO.N,/A5_SENSE*%
X156037500Y-151800000D03*
%TO.P,J4,4*%
%TO.N,unconnected-(J4-Pad4)*%
X156037500Y-150800000D03*
%TD*%
D15*
%TO.P,U26,*%
%TO.N,*%
X234425000Y-154225000D03*
X234425000Y-135325000D03*
D16*
%TO.P,U26,1,-*%
%TO.N,+BATT*%
X225025000Y-150225000D03*
D17*
%TO.P,U26,2,+*%
%TO.N,GND*%
X225025000Y-139325000D03*
%TD*%
D23*
%TO.P,JP2,1,1*%
%TO.N,+3V3*%
X158800000Y-155300000D03*
D24*
%TO.P,JP2,2,2*%
%TO.N,Net-(J4-Pad1)*%
X158800000Y-154000000D03*
D25*
%TO.P,JP2,3,3*%
%TO.N,+5V*%
X158800000Y-152700000D03*
%TD*%
D20*
%TO.P,TP13,1*%
%TO.N,GNDD*%
X163200000Y-138850000D03*
%TD*%
D26*
%TO.P,NT1,1*%
%TO.N,GNDD*%
X182300000Y-140000000D03*
%TO.P,NT1,2*%
%TO.N,GND*%
X186300000Y-140000000D03*
%TD*%
D20*
%TO.P,TP5,1*%
%TO.N,/MOSI*%
X153560000Y-116570000D03*
%TD*%
%TO.P,TP6,1*%
%TO.N,/SCK*%
X153560000Y-118770000D03*
%TD*%
%TO.P,TP4,1*%
%TO.N,/batt_ctl/BATT_1_CURR*%
X169875000Y-146400000D03*
%TD*%
D21*
%TO.P,J3,*%
%TO.N,*%
X152262500Y-147000000D03*
X152262500Y-141400000D03*
D22*
%TO.P,J3,1*%
%TO.N,Net-(J3-Pad1)*%
X156137500Y-145700000D03*
%TO.P,J3,2*%
%TO.N,GNDD*%
X156137500Y-144700000D03*
%TO.P,J3,3*%
%TO.N,/A0_SENSE*%
X156137500Y-143700000D03*
%TO.P,J3,4*%
%TO.N,unconnected-(J3-Pad4)*%
X156137500Y-142700000D03*
%TD*%
D20*
%TO.P,TP7,1*%
%TO.N,/A0_SENSE*%
X169875000Y-148800000D03*
%TD*%
%TO.P,TP9,1*%
%TO.N,/MISO*%
X153570000Y-121060000D03*
%TD*%
%TO.P,TP12,1*%
%TO.N,/batt_ctl/BATT_2_VSENSE*%
X167050000Y-144000000D03*
%TD*%
%TO.P,TP3,1*%
%TO.N,/batt_ctl/BATT_1_VSENSE*%
X167050000Y-146400000D03*
%TD*%
%TO.P,TP14,1*%
%TO.N,/batt_ctl/BATT_2_CTL*%
X163200000Y-144000000D03*
%TD*%
%TO.P,TP10,1*%
%TO.N,/SD_CS*%
X153560000Y-114370000D03*
%TD*%
%TO.P,TP15,1*%
%TO.N,/A5_SENSE*%
X163225000Y-148800000D03*
%TD*%
%TO.P,TP16,1*%
%TO.N,GND*%
X187500000Y-140000000D03*
%TD*%
D21*
%TO.P,J6,*%
%TO.N,*%
X152262500Y-138800000D03*
X152262500Y-133200000D03*
D22*
%TO.P,J6,1*%
%TO.N,GNDD*%
X156137500Y-137500000D03*
%TO.P,J6,2*%
%TO.N,+3V3*%
X156137500Y-136500000D03*
%TO.P,J6,3*%
%TO.N,/SDA*%
X156137500Y-135500000D03*
%TO.P,J6,4*%
%TO.N,/SCL*%
X156137500Y-134500000D03*
%TD*%
D23*
%TO.P,JP1,1,1*%
%TO.N,+3V3*%
X158800000Y-146925000D03*
D24*
%TO.P,JP1,2,2*%
%TO.N,Net-(J3-Pad1)*%
X158800000Y-145625000D03*
D25*
%TO.P,JP1,3,3*%
%TO.N,+5V*%
X158800000Y-144325000D03*
%TD*%
D20*
%TO.P,TP8,1*%
%TO.N,/batt_ctl/BATT_2_CURR*%
X169900000Y-144025000D03*
%TD*%
D21*
%TO.P,J5,*%
%TO.N,*%
X152262500Y-130700000D03*
X152262500Y-125100000D03*
D22*
%TO.P,J5,1*%
%TO.N,GNDD*%
X156137500Y-129400000D03*
%TO.P,J5,2*%
%TO.N,+3V3*%
X156137500Y-128400000D03*
%TO.P,J5,3*%
%TO.N,/SDA*%
X156137500Y-127400000D03*
%TO.P,J5,4*%
%TO.N,/SCL*%
X156137500Y-126400000D03*
%TD*%
D27*
%TO.N,3-3V_1*%
X223460000Y-160155000D03*
X226810000Y-154515000D03*
%TO.N,GND*%
X186600000Y-160800000D03*
X186600000Y-138900000D03*
X222000000Y-164235000D03*
X204575000Y-115963750D03*
X186790000Y-104820000D03*
X212400000Y-116075000D03*
X248740000Y-122765000D03*
X204280000Y-164225000D03*
X247675000Y-137925000D03*
X231690000Y-117420000D03*
D28*
X198850000Y-177575000D03*
D27*
X201100000Y-137325000D03*
X186830000Y-155550000D03*
X195425000Y-140125000D03*
X187325000Y-140025000D03*
X216110000Y-160200000D03*
X222060000Y-154505000D03*
X222800000Y-145100000D03*
X203731750Y-154548250D03*
X213080000Y-164235000D03*
D28*
X198535754Y-117154369D03*
D27*
X232990000Y-123215000D03*
X222250000Y-117260000D03*
X215950000Y-118825000D03*
X239650000Y-116125000D03*
X231625000Y-164375000D03*
X212970000Y-154600000D03*
X214950000Y-140100000D03*
X230355000Y-144110000D03*
D28*
X198825000Y-173400000D03*
D27*
X213100000Y-137250000D03*
X225240000Y-160145000D03*
X203510000Y-145410000D03*
X186475000Y-140025000D03*
X195560000Y-123540000D03*
D28*
X202404369Y-117154369D03*
D27*
X186600000Y-141070000D03*
X232640000Y-129840000D03*
X238655000Y-133415000D03*
X188250000Y-142700000D03*
X207610000Y-160230000D03*
X240985000Y-164320000D03*
%TO.N,GNDD*%
X171330000Y-149530000D03*
X155375000Y-137500000D03*
X180175000Y-114325000D03*
X167620000Y-125040000D03*
X179750000Y-156975000D03*
X163810000Y-139540000D03*
X152340000Y-128670000D03*
X174070995Y-127759695D03*
X169575000Y-154950000D03*
X171330826Y-142896778D03*
X174639961Y-133910039D03*
X178210000Y-145790000D03*
X178300000Y-153225000D03*
X154799500Y-152800000D03*
X156400000Y-149500000D03*
X180100000Y-169360000D03*
X174320000Y-143350000D03*
X156650000Y-144700000D03*
X157270000Y-147070000D03*
X181270000Y-140000000D03*
X158650000Y-125190000D03*
X182000000Y-141125000D03*
X160760000Y-140700000D03*
X182000000Y-138950000D03*
X175040000Y-150990000D03*
X163349228Y-151344103D03*
X182125000Y-140000000D03*
X181775000Y-135200000D03*
%TO.N,+3V3*%
X168414467Y-147663088D03*
X160890000Y-139040000D03*
X159125000Y-155400000D03*
X181280000Y-176280000D03*
X162800000Y-153340000D03*
X153700000Y-140150000D03*
X173400000Y-151500000D03*
X164874500Y-151700000D03*
X155375000Y-136500000D03*
X181650000Y-120600000D03*
X151650000Y-131760000D03*
X159280000Y-148649500D03*
X165850000Y-155840000D03*
X157899997Y-125190000D03*
X179450000Y-148675000D03*
X176960039Y-133910039D03*
X164849500Y-139700500D03*
%TO.N,+BATT*%
X230110000Y-157195000D03*
D29*
X191114642Y-102351165D03*
X196387851Y-113202347D03*
X195071964Y-102308799D03*
X221840000Y-122065000D03*
X189272441Y-169447441D03*
D27*
X211070000Y-157800000D03*
D29*
X192410358Y-113248835D03*
D27*
X220990000Y-157280000D03*
D29*
X230375000Y-149860000D03*
D27*
X220370000Y-157750000D03*
D29*
X246925000Y-133305000D03*
X188235000Y-151625000D03*
X196020842Y-157878882D03*
X193635121Y-169465039D03*
D27*
X211610000Y-157320000D03*
D29*
X187750000Y-157050000D03*
X188425000Y-113300000D03*
D27*
X229450000Y-157495000D03*
D29*
X199175000Y-102475000D03*
X206650000Y-133650000D03*
X218275000Y-137225000D03*
X197650000Y-169475000D03*
X200231635Y-157881635D03*
X192034478Y-157894772D03*
X203460000Y-150930000D03*
D27*
%TO.N,3-3V_2*%
X214350000Y-160200000D03*
X217660000Y-154600000D03*
%TO.N,3-3V_3*%
X208320000Y-154580000D03*
X205830000Y-160250000D03*
D30*
%TO.N,+5V*%
X177349502Y-128500000D03*
X158600000Y-151204500D03*
X159008882Y-149454577D03*
%TO.N,12V_3*%
X228925000Y-136525000D03*
X237025000Y-162850000D03*
D27*
%TO.N,/processor/FLASH_MISO*%
X162800000Y-154089500D03*
X167425061Y-151365647D03*
%TO.N,/batt_ctl/BATT_2_CURR*%
X169170000Y-144550500D03*
X169740000Y-143340000D03*
%TO.N,/batt_ctl/BATT_1_VSENSE*%
X168425498Y-146275000D03*
%TO.N,/batt_ctl/BATT_1_CURR*%
X169520000Y-145700000D03*
X172225000Y-157150000D03*
%TO.N,/batt_ctl/BATT_2_VSENSE*%
X168450000Y-143875000D03*
%TO.N,/A0_SENSE*%
X169400000Y-149550000D03*
%TO.N,/MOSI*%
X162170820Y-141953680D03*
X163874500Y-141953680D03*
X151710000Y-116660000D03*
%TO.N,/SCK*%
X151780000Y-118780000D03*
%TO.N,/MISO*%
X163874500Y-141125000D03*
X162724000Y-141125000D03*
X151880500Y-120930000D03*
%TO.N,/SD_CS*%
X151770000Y-114540000D03*
D30*
%TO.N,/BUZZER*%
X160644959Y-142449500D03*
X173200500Y-129224500D03*
D27*
%TO.N,/batt_ctl/BATT_1_CTL*%
X159474500Y-143004500D03*
X154225000Y-154725000D03*
%TO.N,/batt_ctl/BATT_2_CTL*%
X191025000Y-122800000D03*
X159480997Y-142255025D03*
%TO.N,/SDA*%
X157850000Y-139500000D03*
X229325500Y-145925000D03*
X157900000Y-142250000D03*
%TO.N,/SCL*%
X155637708Y-140287292D03*
X157325500Y-143200000D03*
X228724750Y-145325500D03*
%TO.N,/~{RESET_RAW}*%
X168309337Y-132019551D03*
X169919750Y-132020250D03*
%TO.N,/SWCLK*%
X165588243Y-151471256D03*
X174725000Y-140812534D03*
%TO.N,/SWDIO*%
X175475000Y-140875000D03*
X165876883Y-150779562D03*
%TO.N,/A5_SENSE*%
X166800000Y-151779232D03*
%TO.N,BATT_1_PWR*%
X172425000Y-147775000D03*
X172600000Y-155300000D03*
%TO.N,BATT_2_PWR*%
X179650000Y-145025000D03*
X180200000Y-130275000D03*
X174169500Y-121505500D03*
X172030000Y-144710000D03*
%TD*%
D31*
%TO.N,3-3V_1*%
X223460000Y-160155000D02*
X223460000Y-157865000D01*
X223460000Y-157865000D02*
X226810000Y-154515000D01*
D32*
%TO.N,GND*%
X198825000Y-177550000D02*
X198850000Y-177575000D01*
D31*
X186450000Y-140000000D02*
X186475000Y-140025000D01*
D32*
X201950000Y-106075000D02*
X205175000Y-106075000D01*
X198825000Y-173400000D02*
X198825000Y-177550000D01*
D31*
X186600000Y-138900000D02*
X186300000Y-139200000D01*
X186300000Y-140025000D02*
X187325000Y-140025000D01*
X186300000Y-140025000D02*
X186475000Y-140025000D01*
D32*
X204475000Y-173400000D02*
X205275000Y-174200000D01*
X198535754Y-117154369D02*
X199550000Y-116140123D01*
X199550000Y-108474999D02*
X201950000Y-106075000D01*
D31*
X186300000Y-140775000D02*
X186600000Y-141075000D01*
D32*
X198230123Y-117460000D02*
X198535754Y-117154369D01*
X176350000Y-173400000D02*
X204475000Y-173400000D01*
D31*
X187500000Y-140000000D02*
X187350000Y-140000000D01*
X187350000Y-140000000D02*
X187325000Y-140025000D01*
X186300000Y-140000000D02*
X186450000Y-140000000D01*
X186300000Y-140025000D02*
X186300000Y-140775000D01*
D32*
X176290000Y-117460000D02*
X198230123Y-117460000D01*
D31*
X186300000Y-139200000D02*
X186300000Y-140025000D01*
D32*
X202404369Y-117154369D02*
X198535754Y-117154369D01*
X199550000Y-116140123D02*
X199550000Y-108474999D01*
D31*
X186300000Y-140025000D02*
X186425000Y-140025000D01*
X186600000Y-141075000D02*
X186600000Y-141070000D01*
%TO.N,GNDD*%
X155375000Y-137500000D02*
X156137500Y-137500000D01*
X182300000Y-140000000D02*
X181275000Y-140000000D01*
X182300000Y-140825000D02*
X182300000Y-140000000D01*
X156612500Y-129400000D02*
X156137500Y-129400000D01*
X188200000Y-135200000D02*
X181775000Y-135200000D01*
X156137500Y-144700000D02*
X156650000Y-144700000D01*
X182300000Y-139250000D02*
X182000000Y-138950000D01*
X154800000Y-152800000D02*
X156037500Y-152800000D01*
X182300000Y-140000000D02*
X182300000Y-139250000D01*
X154800000Y-152800000D02*
X154799500Y-152800000D01*
X158650000Y-125190000D02*
X158650000Y-127362500D01*
X182000000Y-141125000D02*
X182300000Y-140825000D01*
X182300000Y-140000000D02*
X182125000Y-140000000D01*
X181275000Y-140000000D02*
X181270000Y-140000000D01*
X158650000Y-127362500D02*
X156612500Y-129400000D01*
%TO.N,+3V3*%
X159050000Y-148419500D02*
X159050000Y-147225000D01*
X157900497Y-125190000D02*
X157899997Y-125190000D01*
X155375000Y-136500000D02*
X156137500Y-136500000D01*
X157900497Y-127112003D02*
X156612500Y-128400000D01*
X157900497Y-125190000D02*
X157900497Y-127112003D01*
X159280000Y-148649500D02*
X159050000Y-148419500D01*
X156612500Y-128400000D02*
X156137500Y-128400000D01*
%TO.N,3-3V_2*%
X214350000Y-157910000D02*
X217660000Y-154600000D01*
X214350000Y-160200000D02*
X214350000Y-157910000D01*
%TO.N,3-3V_3*%
X205830000Y-160250000D02*
X205830000Y-157070000D01*
X205830000Y-157070000D02*
X208320000Y-154580000D01*
D33*
%TO.N,+5V*%
X159470000Y-149440000D02*
X159023459Y-149440000D01*
X158600000Y-151204500D02*
X158600000Y-152570000D01*
X159850000Y-144325000D02*
X160150000Y-144625000D01*
X177349502Y-128500000D02*
X169950000Y-128500000D01*
X158800000Y-144325000D02*
X159850000Y-144325000D01*
X169950000Y-128500000D02*
X158800000Y-139650000D01*
X158800000Y-139650000D02*
X158800000Y-144325000D01*
X158600000Y-152570000D02*
X158790000Y-152760000D01*
X160150000Y-144625000D02*
X160150000Y-148779595D01*
X160130405Y-148779595D02*
X159470000Y-149440000D01*
X159023459Y-149440000D02*
X159008882Y-149454577D01*
X160150000Y-148779595D02*
X160130405Y-148779595D01*
%TO.N,12V_3*%
X228008000Y-153833000D02*
X228008000Y-138142000D01*
X228008000Y-137442000D02*
X228925000Y-136525000D01*
X228008000Y-153833000D02*
X237025000Y-162850000D01*
X228008000Y-138142000D02*
X228008000Y-137442000D01*
D31*
%TO.N,/processor/FLASH_MISO*%
X167425761Y-152049239D02*
X167425761Y-151366448D01*
X162800000Y-154089500D02*
X165385500Y-154089500D01*
X165385500Y-154089500D02*
X167425761Y-152049239D01*
%TO.N,/batt_ctl/BATT_2_CURR*%
X169900000Y-144025000D02*
X169900000Y-143500000D01*
X169900000Y-143500000D02*
X169750000Y-143350000D01*
%TO.N,/batt_ctl/BATT_1_VSENSE*%
X167425000Y-146275000D02*
X167400000Y-146300000D01*
X168425498Y-146275000D02*
X167425000Y-146275000D01*
%TO.N,/batt_ctl/BATT_1_CURR*%
X172225000Y-157150000D02*
X172025000Y-156950000D01*
X172025000Y-148550000D02*
X170325000Y-146850000D01*
X170325000Y-146850000D02*
X170225000Y-146850000D01*
X172025000Y-156950000D02*
X172025000Y-148550000D01*
%TO.N,/batt_ctl/BATT_2_VSENSE*%
X167375000Y-143875000D02*
X167350000Y-143900000D01*
X168450000Y-143875000D02*
X167375000Y-143875000D01*
%TO.N,/A0_SENSE*%
X169400000Y-150640685D02*
X163965685Y-156075000D01*
X153525000Y-155475000D02*
X153525000Y-145075000D01*
X153525000Y-145075000D02*
X154850000Y-143750000D01*
X163965685Y-156075000D02*
X154125000Y-156075000D01*
X154850000Y-143750000D02*
X156350000Y-143750000D01*
X169400000Y-149550000D02*
X169400000Y-150640685D01*
X154125000Y-156075000D02*
X153525000Y-155475000D01*
%TO.N,/MOSI*%
X151710000Y-116660000D02*
X153090000Y-116660000D01*
X163874500Y-141953680D02*
X162170820Y-141953680D01*
%TO.N,/SCK*%
X151780000Y-118780000D02*
X153250000Y-118780000D01*
%TO.N,/MISO*%
X151880500Y-120930000D02*
X153780000Y-120930000D01*
X162724000Y-141125000D02*
X163874500Y-141125000D01*
%TO.N,/SD_CS*%
X151770000Y-114540000D02*
X153210000Y-114540000D01*
D33*
%TO.N,/BUZZER*%
X170325000Y-129050000D02*
X173200500Y-129050000D01*
X173200500Y-129050000D02*
X173275000Y-129124500D01*
X161575000Y-141175000D02*
X161575000Y-137800000D01*
X160644959Y-142105041D02*
X161575000Y-141175000D01*
X161575000Y-137800000D02*
X170325000Y-129050000D01*
X160644959Y-142449500D02*
X160644959Y-142105041D01*
X173275000Y-129150000D02*
X173200500Y-129224500D01*
X173275000Y-129124500D02*
X173275000Y-129150000D01*
D31*
%TO.N,/batt_ctl/BATT_1_CTL*%
X154945000Y-150130000D02*
X159520000Y-150130000D01*
X159474500Y-143004500D02*
X159474500Y-143174500D01*
X154225000Y-150850000D02*
X154945000Y-150130000D01*
X162075000Y-145775000D02*
X162550000Y-145775000D01*
X159474500Y-143174500D02*
X162075000Y-145775000D01*
X161950000Y-147650000D02*
X163200000Y-146400000D01*
X154225000Y-154725000D02*
X154225000Y-150850000D01*
X159520000Y-150130000D02*
X161950000Y-147700000D01*
X161950000Y-147700000D02*
X161950000Y-147650000D01*
%TO.N,/batt_ctl/BATT_2_CTL*%
X164900000Y-142009314D02*
X166234314Y-140675000D01*
X164450000Y-144000000D02*
X164900000Y-143550000D01*
X159480997Y-142255025D02*
X159655472Y-142429500D01*
X173925000Y-140675000D02*
X180925000Y-133675000D01*
X180925000Y-133675000D02*
X180925000Y-130161827D01*
X159655472Y-142429500D02*
X159712673Y-142429500D01*
X160049500Y-142989500D02*
X161060000Y-144000000D01*
X160049500Y-142766327D02*
X160049500Y-142989500D01*
X164900000Y-143550000D02*
X164900000Y-142009314D01*
X188286827Y-122800000D02*
X191025000Y-122800000D01*
X161060000Y-144000000D02*
X163200000Y-144000000D01*
X180925000Y-130161827D02*
X188286827Y-122800000D01*
X163200000Y-144000000D02*
X164450000Y-144000000D01*
X159712673Y-142429500D02*
X160049500Y-142766327D01*
X166234314Y-140675000D02*
X173925000Y-140675000D01*
%TO.N,/SDA*%
X157375000Y-137575000D02*
X157375000Y-138000000D01*
X157325497Y-126687003D02*
X156612500Y-127400000D01*
X157225000Y-138875000D02*
X157850000Y-139500000D01*
X156250000Y-135450000D02*
X156225000Y-135475000D01*
X157200000Y-137350000D02*
X157200000Y-137400000D01*
X157200000Y-137400000D02*
X157375000Y-137575000D01*
X234235000Y-103755000D02*
X202113324Y-103755000D01*
X157200000Y-135450000D02*
X157350000Y-135300000D01*
X157500000Y-136450000D02*
X157900000Y-136450000D01*
X236000000Y-144575000D02*
X236000000Y-105520000D01*
X229325500Y-145925000D02*
X234650000Y-145925000D01*
X157875000Y-140775000D02*
X158025000Y-140925000D01*
X158025000Y-140050000D02*
X158025000Y-140450000D01*
X155210000Y-127400000D02*
X156137500Y-127400000D01*
X157350000Y-134087500D02*
X154980000Y-131717500D01*
X157325497Y-121124503D02*
X157325497Y-126687003D01*
X236000000Y-105520000D02*
X234235000Y-103755000D01*
X158025000Y-141325000D02*
X157900000Y-141450000D01*
X157350000Y-135300000D02*
X157350000Y-134087500D01*
X158025000Y-140925000D02*
X158025000Y-141325000D01*
X157850000Y-139500000D02*
X157850000Y-139875000D01*
X157900000Y-137050000D02*
X157500000Y-137050000D01*
X154980000Y-131717500D02*
X154980000Y-127630000D01*
X234650000Y-145925000D02*
X236000000Y-144575000D01*
X157875000Y-140600000D02*
X157875000Y-140775000D01*
X158025000Y-140450000D02*
X157875000Y-140600000D01*
X168728681Y-109721319D02*
X157325497Y-121124503D01*
X157225000Y-138150000D02*
X157225000Y-138875000D01*
X196147004Y-109721319D02*
X168728681Y-109721319D01*
X154980000Y-127630000D02*
X155210000Y-127400000D01*
X202113324Y-103755000D02*
X196147004Y-109721319D01*
X157375000Y-138000000D02*
X157225000Y-138150000D01*
X157200000Y-135450000D02*
X156250000Y-135450000D01*
X157850000Y-139875000D02*
X158025000Y-140050000D01*
X157200000Y-136150000D02*
X157200000Y-135450000D01*
X157900000Y-141450000D02*
X157900000Y-142250000D01*
X156612500Y-127400000D02*
X156137500Y-127400000D01*
X157900000Y-137050000D02*
G75*
G03*
X158200000Y-136750000I0J300000D01*
G01*
X157200000Y-137350000D02*
G75*
G02*
X157500000Y-137050000I300000J0D01*
G01*
X157500000Y-136450000D02*
G75*
G02*
X157200000Y-136150000I0J300000D01*
G01*
X158200000Y-136750000D02*
G75*
G03*
X157900000Y-136450000I-300000J0D01*
G01*
%TO.N,/SCL*%
X154432500Y-132792500D02*
X154550000Y-132675000D01*
X234400686Y-103355000D02*
X236400000Y-105354314D01*
X154717500Y-133657500D02*
X154432500Y-133372500D01*
X156550000Y-126400000D02*
X156925497Y-126024503D01*
X154440000Y-128590000D02*
X154440000Y-128165000D01*
X154432500Y-133372500D02*
X154432500Y-132792500D01*
X154717500Y-134567500D02*
X154717500Y-133657500D01*
X229187327Y-146600000D02*
X228750500Y-146163173D01*
X234575000Y-146600000D02*
X229187327Y-146600000D01*
X154557500Y-128707500D02*
X154440000Y-128590000D01*
X154717500Y-139367084D02*
X154717500Y-134567500D01*
X168562996Y-109321319D02*
X195981319Y-109321319D01*
X156925497Y-126024503D02*
X156925497Y-120958818D01*
X154717500Y-134567500D02*
X156057500Y-134567500D01*
X195981319Y-109321319D02*
X201947639Y-103355000D01*
X154432500Y-130582500D02*
X154550000Y-130465000D01*
X154557500Y-127002500D02*
X155160000Y-126400000D01*
X154432500Y-132232500D02*
X154432500Y-131807500D01*
X154440000Y-129150000D02*
X154557500Y-129032500D01*
X154550000Y-129840000D02*
X154440000Y-129730000D01*
X154550000Y-131150000D02*
X154432500Y-131032500D01*
X156137500Y-126400000D02*
X156550000Y-126400000D01*
X157325500Y-141975084D02*
X157325500Y-143200000D01*
X236400000Y-105354314D02*
X236400000Y-144775000D01*
X154550000Y-132350000D02*
X154432500Y-132232500D01*
X154440000Y-129730000D02*
X154440000Y-129150000D01*
X154557500Y-128047500D02*
X154557500Y-127002500D01*
X154432500Y-131032500D02*
X154432500Y-130582500D01*
X154550000Y-131690000D02*
X154550000Y-131150000D01*
X154550000Y-130465000D02*
X154550000Y-129840000D01*
X201947639Y-103355000D02*
X234400686Y-103355000D01*
X155637708Y-140287292D02*
X157325500Y-141975084D01*
X236400000Y-144775000D02*
X234575000Y-146600000D01*
X154432500Y-131807500D02*
X154550000Y-131690000D01*
X156057500Y-134567500D02*
X156100000Y-134525000D01*
X156925497Y-120958818D02*
X168562996Y-109321319D01*
X156137500Y-126400000D02*
X155160000Y-126400000D01*
X228750500Y-145351250D02*
X228724750Y-145325500D01*
X154440000Y-128165000D02*
X154557500Y-128047500D01*
X154557500Y-129032500D02*
X154557500Y-128707500D01*
X228750500Y-146163173D02*
X228750500Y-145351250D01*
X155637708Y-140287292D02*
X154717500Y-139367084D01*
X154550000Y-132675000D02*
X154550000Y-132350000D01*
%TO.N,/~{RESET_RAW}*%
X169919750Y-132020250D02*
X168881148Y-132020250D01*
X168880449Y-132019551D02*
X168309337Y-132019551D01*
X168881148Y-132020250D02*
X168880449Y-132019551D01*
%TO.N,/SWCLK*%
X166400000Y-141075000D02*
X165301883Y-142173117D01*
X174462534Y-141075000D02*
X166400000Y-141075000D01*
X174718767Y-140818767D02*
X174462534Y-141075000D01*
X165301883Y-142173117D02*
X165301883Y-151184896D01*
X165301883Y-151184896D02*
X165588243Y-151471256D01*
%TO.N,/SWDIO*%
X168675000Y-141575000D02*
X168775000Y-141475000D01*
X174875000Y-141475000D02*
X175475000Y-140875000D01*
X166350000Y-141690686D02*
X166565686Y-141475000D01*
X167800000Y-141475000D02*
X167900000Y-141575000D01*
X166025000Y-142175000D02*
X166350000Y-141850000D01*
X165701883Y-150604562D02*
X165701883Y-142338803D01*
X167765686Y-141475000D02*
X167800000Y-141475000D01*
X168775000Y-141475000D02*
X174875000Y-141475000D01*
X165701883Y-142338803D02*
X165865686Y-142175000D01*
X167465686Y-142175000D02*
X167465686Y-141775000D01*
X166865686Y-141775000D02*
X166865686Y-142175000D01*
X165876883Y-150779562D02*
X165701883Y-150604562D01*
X165865686Y-142175000D02*
X166025000Y-142175000D01*
X166350000Y-141850000D02*
X166350000Y-141690686D01*
X167900000Y-141575000D02*
X168675000Y-141575000D01*
X167765686Y-141474986D02*
G75*
G03*
X167465686Y-141775000I14J-300014D01*
G01*
X166865700Y-141775000D02*
G75*
G03*
X166565686Y-141475000I-300000J0D01*
G01*
X167165686Y-142475014D02*
G75*
G02*
X166865686Y-142175000I14J300014D01*
G01*
X167465700Y-142175000D02*
G75*
G02*
X167165686Y-142475000I-300000J0D01*
G01*
%TO.N,/A5_SENSE*%
X164600000Y-152275000D02*
X163950000Y-151625000D01*
X166305232Y-152275000D02*
X164600000Y-152275000D01*
X166800500Y-151779732D02*
X166305232Y-152275000D01*
X156037500Y-151800000D02*
X156512500Y-151800000D01*
X161545000Y-150530000D02*
X162850000Y-149225000D01*
X163950000Y-151625000D02*
X163950000Y-149475000D01*
X157782500Y-150530000D02*
X161545000Y-150530000D01*
X156512500Y-151800000D02*
X157782500Y-150530000D01*
%TO.N,Net-(J3-Pad1)*%
X158775000Y-145650000D02*
X156225000Y-145650000D01*
X158800000Y-145625000D02*
X158775000Y-145650000D01*
%TO.N,Net-(J4-Pad1)*%
X158750000Y-153800000D02*
X158875000Y-153925000D01*
X156037500Y-153800000D02*
X158750000Y-153800000D01*
%TO.N,BATT_1_PWR*%
X172600000Y-155300000D02*
X172600000Y-147950000D01*
X172600000Y-147950000D02*
X172425000Y-147775000D01*
%TO.N,BATT_2_PWR*%
X172050000Y-144700000D02*
X172040000Y-144700000D01*
X172040000Y-144700000D02*
X172030000Y-144710000D01*
X179650000Y-145025000D02*
X172375000Y-145025000D01*
X174169500Y-121505500D02*
X180200000Y-127536000D01*
X172375000Y-145025000D02*
X172050000Y-144700000D01*
X180200000Y-127536000D02*
X180200000Y-130275000D01*
%TD*%
M02*
