%TF.GenerationSoftware,KiCad,Pcbnew,(6.0.10-0)*%
%TF.CreationDate,2023-03-03T19:39:16-08:00*%
%TF.ProjectId,1.0,312e302e-6b69-4636-9164-5f7063625858,rev?*%
%TF.SameCoordinates,Original*%
%TF.FileFunction,Legend,Top*%
%TF.FilePolarity,Positive*%
%FSLAX46Y46*%
G04 Gerber Fmt 4.6, Leading zero omitted, Abs format (unit mm)*
G04 Created by KiCad (PCBNEW (6.0.10-0)) date 2023-03-03 19:39:16*
%MOMM*%
%LPD*%
G01*
G04 APERTURE LIST*
%ADD10C,0.200000*%
%ADD11C,0.150000*%
%ADD12C,0.100000*%
%ADD13C,0.050000*%
%ADD14C,0.120000*%
%ADD15C,0.127000*%
%ADD16C,0.250000*%
G04 APERTURE END LIST*
D10*
X201680000Y-165420000D02*
X228720000Y-165420000D01*
X228720000Y-165420000D02*
X228720000Y-177820000D01*
X228720000Y-177820000D02*
X201680000Y-177820000D01*
X201680000Y-177820000D02*
X201680000Y-165420000D01*
X201560000Y-102410000D02*
X237310000Y-102410000D01*
X237310000Y-102410000D02*
X237310000Y-114810000D01*
X237310000Y-114810000D02*
X201560000Y-114810000D01*
X201560000Y-114810000D02*
X201560000Y-102410000D01*
X230155000Y-165380000D02*
X248325000Y-165380000D01*
X248325000Y-165380000D02*
X248325000Y-177780000D01*
X248325000Y-177780000D02*
X230155000Y-177780000D01*
X230155000Y-177780000D02*
X230155000Y-165380000D01*
X244164761Y-101037619D02*
X244736190Y-101037619D01*
X244450476Y-101037619D02*
X244450476Y-102037619D01*
X244545714Y-101894761D01*
X244640952Y-101799523D01*
X244736190Y-101751904D01*
X243783809Y-101942380D02*
X243736190Y-101990000D01*
X243640952Y-102037619D01*
X243402857Y-102037619D01*
X243307619Y-101990000D01*
X243260000Y-101942380D01*
X243212380Y-101847142D01*
X243212380Y-101751904D01*
X243260000Y-101609047D01*
X243831428Y-101037619D01*
X243212380Y-101037619D01*
X242926666Y-102037619D02*
X242593333Y-101037619D01*
X242260000Y-102037619D01*
X241164761Y-101418571D02*
X240402857Y-101418571D01*
X239260000Y-102037619D02*
X238640952Y-102037619D01*
X238974285Y-101656666D01*
X238831428Y-101656666D01*
X238736190Y-101609047D01*
X238688571Y-101561428D01*
X238640952Y-101466190D01*
X238640952Y-101228095D01*
X238688571Y-101132857D01*
X238736190Y-101085238D01*
X238831428Y-101037619D01*
X239117142Y-101037619D01*
X239212380Y-101085238D01*
X239260000Y-101132857D01*
X238260000Y-101323333D02*
X237783809Y-101323333D01*
X238355238Y-101037619D02*
X238021904Y-102037619D01*
X237688571Y-101037619D01*
X236660238Y-179162380D02*
X236088809Y-179162380D01*
X236374523Y-179162380D02*
X236374523Y-178162380D01*
X236279285Y-178305238D01*
X236184047Y-178400476D01*
X236088809Y-178448095D01*
X237041190Y-178257619D02*
X237088809Y-178210000D01*
X237184047Y-178162380D01*
X237422142Y-178162380D01*
X237517380Y-178210000D01*
X237565000Y-178257619D01*
X237612619Y-178352857D01*
X237612619Y-178448095D01*
X237565000Y-178590952D01*
X236993571Y-179162380D01*
X237612619Y-179162380D01*
X237898333Y-178162380D02*
X238231666Y-179162380D01*
X238565000Y-178162380D01*
X239660238Y-178781428D02*
X240422142Y-178781428D01*
X241565000Y-178162380D02*
X242184047Y-178162380D01*
X241850714Y-178543333D01*
X241993571Y-178543333D01*
X242088809Y-178590952D01*
X242136428Y-178638571D01*
X242184047Y-178733809D01*
X242184047Y-178971904D01*
X242136428Y-179067142D01*
X242088809Y-179114761D01*
X241993571Y-179162380D01*
X241707857Y-179162380D01*
X241612619Y-179114761D01*
X241565000Y-179067142D01*
X242565000Y-178876666D02*
X243041190Y-178876666D01*
X242469761Y-179162380D02*
X242803095Y-178162380D01*
X243136428Y-179162380D01*
X221596190Y-102047619D02*
X222072380Y-102047619D01*
X222120000Y-101571428D01*
X222072380Y-101619047D01*
X221977142Y-101666666D01*
X221739047Y-101666666D01*
X221643809Y-101619047D01*
X221596190Y-101571428D01*
X221548571Y-101476190D01*
X221548571Y-101238095D01*
X221596190Y-101142857D01*
X221643809Y-101095238D01*
X221739047Y-101047619D01*
X221977142Y-101047619D01*
X222072380Y-101095238D01*
X222120000Y-101142857D01*
X221262857Y-102047619D02*
X220929523Y-101047619D01*
X220596190Y-102047619D01*
X219500952Y-101428571D02*
X218739047Y-101428571D01*
X217596190Y-102047619D02*
X216977142Y-102047619D01*
X217310476Y-101666666D01*
X217167619Y-101666666D01*
X217072380Y-101619047D01*
X217024761Y-101571428D01*
X216977142Y-101476190D01*
X216977142Y-101238095D01*
X217024761Y-101142857D01*
X217072380Y-101095238D01*
X217167619Y-101047619D01*
X217453333Y-101047619D01*
X217548571Y-101095238D01*
X217596190Y-101142857D01*
X216596190Y-101333333D02*
X216120000Y-101333333D01*
X216691428Y-101047619D02*
X216358095Y-102047619D01*
X216024761Y-101047619D01*
X210458095Y-178192380D02*
X211077142Y-178192380D01*
X210743809Y-178573333D01*
X210886666Y-178573333D01*
X210981904Y-178620952D01*
X211029523Y-178668571D01*
X211077142Y-178763809D01*
X211077142Y-179001904D01*
X211029523Y-179097142D01*
X210981904Y-179144761D01*
X210886666Y-179192380D01*
X210600952Y-179192380D01*
X210505714Y-179144761D01*
X210458095Y-179097142D01*
X211362857Y-178192380D02*
X211696190Y-179192380D01*
X212029523Y-178192380D01*
X213124761Y-178811428D02*
X213886666Y-178811428D01*
X215648571Y-179192380D02*
X215077142Y-179192380D01*
X215362857Y-179192380D02*
X215362857Y-178192380D01*
X215267619Y-178335238D01*
X215172380Y-178430476D01*
X215077142Y-178478095D01*
X216077142Y-179097142D02*
X216124761Y-179144761D01*
X216077142Y-179192380D01*
X216029523Y-179144761D01*
X216077142Y-179097142D01*
X216077142Y-179192380D01*
X216505714Y-178287619D02*
X216553333Y-178240000D01*
X216648571Y-178192380D01*
X216886666Y-178192380D01*
X216981904Y-178240000D01*
X217029523Y-178287619D01*
X217077142Y-178382857D01*
X217077142Y-178478095D01*
X217029523Y-178620952D01*
X216458095Y-179192380D01*
X217077142Y-179192380D01*
X217458095Y-178906666D02*
X217934285Y-178906666D01*
X217362857Y-179192380D02*
X217696190Y-178192380D01*
X218029523Y-179192380D01*
D11*
%TO.C,U22*%
X227207142Y-106771428D02*
X227207142Y-105628571D01*
X227207142Y-111671428D02*
X227207142Y-110528571D01*
X227778571Y-111100000D02*
X226635714Y-111100000D01*
%TO.C,U35*%
X236257142Y-106701428D02*
X236257142Y-105558571D01*
X236267142Y-111861428D02*
X236267142Y-110718571D01*
X236838571Y-111290000D02*
X235695714Y-111290000D01*
%TO.C,U17*%
X227507142Y-169821428D02*
X227507142Y-168678571D01*
X228078571Y-169250000D02*
X226935714Y-169250000D01*
X227497142Y-174721428D02*
X227497142Y-173578571D01*
D12*
%TO.C,C19*%
X184189285Y-150519285D02*
X184160714Y-150547857D01*
X184075000Y-150576428D01*
X184017857Y-150576428D01*
X183932142Y-150547857D01*
X183875000Y-150490714D01*
X183846428Y-150433571D01*
X183817857Y-150319285D01*
X183817857Y-150233571D01*
X183846428Y-150119285D01*
X183875000Y-150062142D01*
X183932142Y-150005000D01*
X184017857Y-149976428D01*
X184075000Y-149976428D01*
X184160714Y-150005000D01*
X184189285Y-150033571D01*
X184760714Y-150576428D02*
X184417857Y-150576428D01*
X184589285Y-150576428D02*
X184589285Y-149976428D01*
X184532142Y-150062142D01*
X184475000Y-150119285D01*
X184417857Y-150147857D01*
X185046428Y-150576428D02*
X185160714Y-150576428D01*
X185217857Y-150547857D01*
X185246428Y-150519285D01*
X185303571Y-150433571D01*
X185332142Y-150319285D01*
X185332142Y-150090714D01*
X185303571Y-150033571D01*
X185275000Y-150005000D01*
X185217857Y-149976428D01*
X185103571Y-149976428D01*
X185046428Y-150005000D01*
X185017857Y-150033571D01*
X184989285Y-150090714D01*
X184989285Y-150233571D01*
X185017857Y-150290714D01*
X185046428Y-150319285D01*
X185103571Y-150347857D01*
X185217857Y-150347857D01*
X185275000Y-150319285D01*
X185303571Y-150290714D01*
X185332142Y-150233571D01*
D11*
%TO.C,U20*%
X209257142Y-106671428D02*
X209257142Y-105528571D01*
X209257142Y-111721428D02*
X209257142Y-110578571D01*
X209828571Y-111150000D02*
X208685714Y-111150000D01*
%TO.C,U23*%
X247202142Y-174741428D02*
X247202142Y-173598571D01*
X247157142Y-169546428D02*
X247157142Y-168403571D01*
X247728571Y-168975000D02*
X246585714Y-168975000D01*
%TO.C,C5*%
X242058333Y-154832142D02*
X242010714Y-154879761D01*
X241867857Y-154927380D01*
X241772619Y-154927380D01*
X241629761Y-154879761D01*
X241534523Y-154784523D01*
X241486904Y-154689285D01*
X241439285Y-154498809D01*
X241439285Y-154355952D01*
X241486904Y-154165476D01*
X241534523Y-154070238D01*
X241629761Y-153975000D01*
X241772619Y-153927380D01*
X241867857Y-153927380D01*
X242010714Y-153975000D01*
X242058333Y-154022619D01*
X242963095Y-153927380D02*
X242486904Y-153927380D01*
X242439285Y-154403571D01*
X242486904Y-154355952D01*
X242582142Y-154308333D01*
X242820238Y-154308333D01*
X242915476Y-154355952D01*
X242963095Y-154403571D01*
X243010714Y-154498809D01*
X243010714Y-154736904D01*
X242963095Y-154832142D01*
X242915476Y-154879761D01*
X242820238Y-154927380D01*
X242582142Y-154927380D01*
X242486904Y-154879761D01*
X242439285Y-154832142D01*
%TO.C,U18*%
X218457142Y-169821428D02*
X218457142Y-168678571D01*
X219028571Y-169250000D02*
X217885714Y-169250000D01*
X218467142Y-174721428D02*
X218467142Y-173578571D01*
D13*
%TO.C,TP1*%
X177846428Y-144710714D02*
X178017857Y-144710714D01*
X177932142Y-145010714D02*
X177932142Y-144710714D01*
X178117857Y-145010714D02*
X178117857Y-144710714D01*
X178232142Y-144710714D01*
X178260714Y-144725000D01*
X178275000Y-144739285D01*
X178289285Y-144767857D01*
X178289285Y-144810714D01*
X178275000Y-144839285D01*
X178260714Y-144853571D01*
X178232142Y-144867857D01*
X178117857Y-144867857D01*
X178575000Y-145010714D02*
X178403571Y-145010714D01*
X178489285Y-145010714D02*
X178489285Y-144710714D01*
X178460714Y-144753571D01*
X178432142Y-144782142D01*
X178403571Y-144796428D01*
D12*
%TO.C,C17*%
X217819285Y-137685714D02*
X217847857Y-137714285D01*
X217876428Y-137800000D01*
X217876428Y-137857142D01*
X217847857Y-137942857D01*
X217790714Y-138000000D01*
X217733571Y-138028571D01*
X217619285Y-138057142D01*
X217533571Y-138057142D01*
X217419285Y-138028571D01*
X217362142Y-138000000D01*
X217305000Y-137942857D01*
X217276428Y-137857142D01*
X217276428Y-137800000D01*
X217305000Y-137714285D01*
X217333571Y-137685714D01*
X217876428Y-137114285D02*
X217876428Y-137457142D01*
X217876428Y-137285714D02*
X217276428Y-137285714D01*
X217362142Y-137342857D01*
X217419285Y-137400000D01*
X217447857Y-137457142D01*
X217276428Y-136914285D02*
X217276428Y-136514285D01*
X217876428Y-136771428D01*
D11*
%TO.C,U24*%
X245697142Y-106701428D02*
X245697142Y-105558571D01*
X245697142Y-111801428D02*
X245697142Y-110658571D01*
X246268571Y-111230000D02*
X245125714Y-111230000D01*
%TO.C,U25*%
X238272142Y-169621428D02*
X238272142Y-168478571D01*
X238843571Y-169050000D02*
X237700714Y-169050000D01*
X238282142Y-174771428D02*
X238282142Y-173628571D01*
D12*
%TO.C,J7*%
X151171428Y-140600000D02*
X151600000Y-140600000D01*
X151685714Y-140628571D01*
X151742857Y-140685714D01*
X151771428Y-140771428D01*
X151771428Y-140828571D01*
X151171428Y-140371428D02*
X151171428Y-139971428D01*
X151771428Y-140228571D01*
%TO.C,C23*%
X243294285Y-137385714D02*
X243322857Y-137414285D01*
X243351428Y-137500000D01*
X243351428Y-137557142D01*
X243322857Y-137642857D01*
X243265714Y-137700000D01*
X243208571Y-137728571D01*
X243094285Y-137757142D01*
X243008571Y-137757142D01*
X242894285Y-137728571D01*
X242837142Y-137700000D01*
X242780000Y-137642857D01*
X242751428Y-137557142D01*
X242751428Y-137500000D01*
X242780000Y-137414285D01*
X242808571Y-137385714D01*
X242808571Y-137157142D02*
X242780000Y-137128571D01*
X242751428Y-137071428D01*
X242751428Y-136928571D01*
X242780000Y-136871428D01*
X242808571Y-136842857D01*
X242865714Y-136814285D01*
X242922857Y-136814285D01*
X243008571Y-136842857D01*
X243351428Y-137185714D01*
X243351428Y-136814285D01*
X242751428Y-136614285D02*
X242751428Y-136242857D01*
X242980000Y-136442857D01*
X242980000Y-136357142D01*
X243008571Y-136300000D01*
X243037142Y-136271428D01*
X243094285Y-136242857D01*
X243237142Y-136242857D01*
X243294285Y-136271428D01*
X243322857Y-136300000D01*
X243351428Y-136357142D01*
X243351428Y-136528571D01*
X243322857Y-136585714D01*
X243294285Y-136614285D01*
D11*
%TO.C,U19*%
X209557142Y-169821428D02*
X209557142Y-168678571D01*
X210128571Y-169250000D02*
X208985714Y-169250000D01*
X209507142Y-174711428D02*
X209507142Y-173568571D01*
%TO.C,U21*%
X218307142Y-106671428D02*
X218307142Y-105528571D01*
X218307142Y-111671428D02*
X218307142Y-110528571D01*
X218878571Y-111100000D02*
X217735714Y-111100000D01*
D14*
%TO.C,U22*%
X224610000Y-103440000D02*
X225910000Y-105140000D01*
X220490000Y-105140000D02*
X220490000Y-113860000D01*
X225910000Y-113860000D02*
X220490000Y-113860000D01*
X221790000Y-103440000D02*
X220490000Y-105140000D01*
X225910000Y-105140000D02*
X225910000Y-113860000D01*
X224610000Y-103440000D02*
X221790000Y-103440000D01*
D12*
%TO.C,C22*%
X196875000Y-139557500D02*
X197975000Y-139557500D01*
X197975000Y-140657500D02*
X196875000Y-140657500D01*
%TO.C,R18*%
X171400000Y-147200000D02*
X171400000Y-148300000D01*
X170300000Y-148300000D02*
X170300000Y-147200000D01*
%TO.C,C29*%
X223340000Y-144675000D02*
X223340000Y-145775000D01*
X222240000Y-145775000D02*
X222240000Y-144675000D01*
D14*
%TO.C,D16*%
X232125000Y-163725000D02*
X232125000Y-165125000D01*
X232125000Y-165125000D02*
X234225000Y-165125000D01*
X232125000Y-163725000D02*
X234225000Y-163725000D01*
%TO.C,D15*%
X240150000Y-116825000D02*
X242250000Y-116825000D01*
X240150000Y-115425000D02*
X242250000Y-115425000D01*
X240150000Y-115425000D02*
X240150000Y-116825000D01*
D12*
%TO.C,R51*%
X178075000Y-125200000D02*
X176775000Y-125200000D01*
X176775000Y-123700000D02*
X178075000Y-123700000D01*
D14*
%TO.C,D2*%
X177300000Y-156000000D02*
X173450000Y-156000000D01*
X177300000Y-154000000D02*
X173450000Y-154000000D01*
X177300000Y-156000000D02*
X177300000Y-154000000D01*
D12*
%TO.C,R1*%
X165250000Y-155300000D02*
X166350000Y-155300000D01*
X166350000Y-156400000D02*
X165250000Y-156400000D01*
%TO.C,R45*%
X209950000Y-116523750D02*
X208850000Y-116523750D01*
X208850000Y-115423750D02*
X209950000Y-115423750D01*
%TO.C,C20*%
X214650000Y-119355000D02*
X213550000Y-119355000D01*
X213550000Y-118255000D02*
X214650000Y-118255000D01*
D14*
%TO.C,U35*%
X230890000Y-103460000D02*
X229590000Y-105160000D01*
X229590000Y-105160000D02*
X229590000Y-113880000D01*
X233710000Y-103460000D02*
X230890000Y-103460000D01*
X235010000Y-105160000D02*
X235010000Y-113880000D01*
X233710000Y-103460000D02*
X235010000Y-105160000D01*
X235010000Y-113880000D02*
X229590000Y-113880000D01*
D12*
%TO.C,R25*%
X191150000Y-121475000D02*
X189850000Y-121475000D01*
X189850000Y-119975000D02*
X191150000Y-119975000D01*
%TO.C,C14*%
X224030000Y-160705000D02*
X222930000Y-160705000D01*
X222930000Y-159605000D02*
X224030000Y-159605000D01*
%TO.C,R66*%
X234940000Y-116860000D02*
X236040000Y-116860000D01*
X236040000Y-117960000D02*
X234940000Y-117960000D01*
%TO.C,C32*%
X158750000Y-147250000D02*
X158750000Y-148350000D01*
X157650000Y-148350000D02*
X157650000Y-147250000D01*
%TO.C,C37*%
X202760000Y-148610000D02*
X202760000Y-147310000D01*
X204260000Y-147310000D02*
X204260000Y-148610000D01*
D14*
%TO.C,U17*%
X221790000Y-176860000D02*
X224610000Y-176860000D01*
X220490000Y-166440000D02*
X225910000Y-166440000D01*
X225910000Y-175160000D02*
X225910000Y-166440000D01*
X224610000Y-176860000D02*
X225910000Y-175160000D01*
X220490000Y-175160000D02*
X220490000Y-166440000D01*
X221790000Y-176860000D02*
X220490000Y-175160000D01*
D12*
%TO.C,R69*%
X246200000Y-116900000D02*
X244900000Y-116900000D01*
X244900000Y-115400000D02*
X246200000Y-115400000D01*
%TO.C,C19*%
X183875000Y-148725000D02*
X183875000Y-147425000D01*
X185375000Y-147425000D02*
X185375000Y-148725000D01*
%TO.C,R59*%
X208445000Y-163925000D02*
X208445000Y-162825000D01*
X209545000Y-162825000D02*
X209545000Y-163925000D01*
D14*
%TO.C,J1*%
X167927500Y-130600000D02*
X167927500Y-129700000D01*
X167927500Y-124600000D02*
X167927500Y-125500000D01*
X169277500Y-124600000D02*
X167927500Y-124600000D01*
X169277500Y-130600000D02*
X167927500Y-130600000D01*
X171177500Y-129500000D02*
X171177500Y-125700000D01*
X167602500Y-130100000D02*
G75*
G03*
X167602500Y-130100000I-250000J0D01*
G01*
D12*
%TO.C,C25*%
X233740000Y-120490000D02*
X233740000Y-121790000D01*
X232240000Y-121790000D02*
X232240000Y-120490000D01*
D14*
%TO.C,Q1*%
X171435000Y-151395000D02*
X171435000Y-152325000D01*
X171435000Y-154555000D02*
X169975000Y-154555000D01*
X171435000Y-154555000D02*
X171435000Y-153625000D01*
X171435000Y-151395000D02*
X169275000Y-151395000D01*
%TO.C,U12*%
X231400000Y-124890000D02*
X229590000Y-124890000D01*
X229590000Y-124890000D02*
X229590000Y-119765000D01*
X221000000Y-124890000D02*
X222810000Y-124890000D01*
X221000000Y-126390000D02*
X221000000Y-124890000D01*
X222810000Y-124890000D02*
X222810000Y-123790000D01*
X231400000Y-126390000D02*
X231400000Y-124890000D01*
%TO.C,U20*%
X202490000Y-105140000D02*
X202490000Y-113860000D01*
X203790000Y-103440000D02*
X202490000Y-105140000D01*
X207910000Y-113860000D02*
X202490000Y-113860000D01*
X206610000Y-103440000D02*
X207910000Y-105140000D01*
X206610000Y-103440000D02*
X203790000Y-103440000D01*
X207910000Y-105140000D02*
X207910000Y-113860000D01*
D15*
%TO.C,Q10*%
X188100000Y-111537500D02*
X188100000Y-108237500D01*
X191400000Y-111537500D02*
X191400000Y-108237500D01*
D10*
X188450000Y-112237500D02*
G75*
G03*
X188450000Y-112237500I-100000J0D01*
G01*
D12*
%TO.C,R28*%
X193325000Y-115875000D02*
X194425000Y-115875000D01*
X194425000Y-116975000D02*
X193325000Y-116975000D01*
D15*
%TO.C,Q13*%
X197025000Y-159950000D02*
X197025000Y-163250000D01*
X200325000Y-159950000D02*
X200325000Y-163250000D01*
D10*
X200175000Y-159250000D02*
G75*
G03*
X200175000Y-159250000I-100000J0D01*
G01*
D12*
%TO.C,R44*%
X208850000Y-116823750D02*
X209950000Y-116823750D01*
X209950000Y-117923750D02*
X208850000Y-117923750D01*
%TO.C,R10*%
X189800000Y-174450000D02*
X190900000Y-174450000D01*
X190900000Y-175550000D02*
X189800000Y-175550000D01*
%TO.C,R55*%
X191325000Y-112825000D02*
X191325000Y-113925000D01*
X190225000Y-113925000D02*
X190225000Y-112825000D01*
D10*
%TO.C,U2*%
X181050000Y-170250000D02*
X181450000Y-170250000D01*
X181050000Y-175050000D02*
X182050000Y-175050000D01*
D12*
X182650000Y-176300000D02*
X182650000Y-176300000D01*
D10*
X187450000Y-173300000D02*
X187450000Y-175050000D01*
X187450000Y-175050000D02*
X186450000Y-175050000D01*
X187450000Y-170250000D02*
X187450000Y-172100000D01*
X181050000Y-173300000D02*
X181050000Y-175050000D01*
D12*
X182650000Y-176400000D02*
X182650000Y-176400000D01*
D10*
X181050000Y-172100000D02*
X181050000Y-170250000D01*
X187050000Y-170250000D02*
X187450000Y-170250000D01*
D12*
X182650000Y-176400000D02*
G75*
G03*
X182650000Y-176300000I0J50000D01*
G01*
X182650000Y-176300000D02*
G75*
G03*
X182650000Y-176400000I0J-50000D01*
G01*
%TO.C,R7*%
X181900000Y-178300000D02*
X180800000Y-178300000D01*
X180800000Y-177200000D02*
X181900000Y-177200000D01*
D14*
%TO.C,D9*%
X205000000Y-115273750D02*
X207100000Y-115273750D01*
X205000000Y-116673750D02*
X207100000Y-116673750D01*
X205000000Y-115273750D02*
X205000000Y-116673750D01*
D12*
%TO.C,R12*%
X193425000Y-171650000D02*
X194525000Y-171650000D01*
X194525000Y-172750000D02*
X193425000Y-172750000D01*
%TO.C,C28*%
X249290000Y-120265000D02*
X249290000Y-121365000D01*
X248190000Y-121365000D02*
X248190000Y-120265000D01*
D14*
%TO.C,U7*%
X217265000Y-130850000D02*
X217265000Y-131950000D01*
X208675000Y-130850000D02*
X210485000Y-130850000D01*
X219075000Y-129350000D02*
X219075000Y-130850000D01*
X210485000Y-130850000D02*
X210485000Y-135975000D01*
X219075000Y-130850000D02*
X217265000Y-130850000D01*
X208675000Y-129350000D02*
X208675000Y-130850000D01*
D12*
%TO.C,R19*%
X171450000Y-145350000D02*
X171450000Y-144250000D01*
X172550000Y-144250000D02*
X172550000Y-145350000D01*
%TO.C,C2*%
X165325000Y-152925000D02*
X165325000Y-154025000D01*
X164225000Y-154025000D02*
X164225000Y-152925000D01*
%TO.C,C33*%
X182025000Y-157575000D02*
X180925000Y-157575000D01*
X180925000Y-156475000D02*
X182025000Y-156475000D01*
%TO.C,C34*%
X176450000Y-150650000D02*
X175350000Y-150650000D01*
X175350000Y-149550000D02*
X176450000Y-149550000D01*
%TO.C,R68*%
X246935000Y-165070000D02*
X245635000Y-165070000D01*
X245635000Y-163570000D02*
X246935000Y-163570000D01*
D15*
%TO.C,Q14*%
X200300000Y-167415000D02*
X200300000Y-164115000D01*
X197000000Y-167415000D02*
X197000000Y-164115000D01*
D10*
X197350000Y-168115000D02*
G75*
G03*
X197350000Y-168115000I-100000J0D01*
G01*
D14*
%TO.C,D14*%
X241816000Y-163598000D02*
X241816000Y-164998000D01*
X241816000Y-164998000D02*
X243916000Y-164998000D01*
X241816000Y-163598000D02*
X243916000Y-163598000D01*
D12*
%TO.C,R63*%
X200250000Y-168700000D02*
X200250000Y-169800000D01*
X199150000Y-169800000D02*
X199150000Y-168700000D01*
D14*
%TO.C,Q7*%
X192420000Y-118115000D02*
X193350000Y-118115000D01*
X192420000Y-118115000D02*
X192420000Y-120275000D01*
X195580000Y-118115000D02*
X194650000Y-118115000D01*
X195580000Y-118115000D02*
X195580000Y-119575000D01*
%TO.C,U23*%
X241315000Y-176860000D02*
X244135000Y-176860000D01*
X240015000Y-166440000D02*
X245435000Y-166440000D01*
X244135000Y-176860000D02*
X245435000Y-175160000D01*
X241315000Y-176860000D02*
X240015000Y-175160000D01*
X240015000Y-175160000D02*
X240015000Y-166440000D01*
X245435000Y-175160000D02*
X245435000Y-166440000D01*
D12*
%TO.C,R57*%
X193300000Y-101675000D02*
X193300000Y-102775000D01*
X192200000Y-102775000D02*
X192200000Y-101675000D01*
%TO.C,R60*%
X226600000Y-117910000D02*
X225500000Y-117910000D01*
X225500000Y-116810000D02*
X226600000Y-116810000D01*
D14*
%TO.C,C5*%
X247256548Y-157550000D02*
G75*
G03*
X247256548Y-157550000I-291548J0D01*
G01*
X247725000Y-157550000D02*
G75*
G03*
X247725000Y-157550000I-5500000J0D01*
G01*
D12*
%TO.C,C18*%
X204200000Y-138075000D02*
X202900000Y-138075000D01*
X202900000Y-136575000D02*
X204200000Y-136575000D01*
%TO.C,C38*%
X213850000Y-140650000D02*
X212750000Y-140650000D01*
X212750000Y-139550000D02*
X213850000Y-139550000D01*
D14*
%TO.C,U18*%
X211490000Y-175160000D02*
X211490000Y-166440000D01*
X212790000Y-176860000D02*
X211490000Y-175160000D01*
X215610000Y-176860000D02*
X216910000Y-175160000D01*
X216910000Y-175160000D02*
X216910000Y-166440000D01*
X211490000Y-166440000D02*
X216910000Y-166440000D01*
X212790000Y-176860000D02*
X215610000Y-176860000D01*
D12*
%TO.C,R4*%
X173100000Y-151000000D02*
X172000000Y-151000000D01*
X172000000Y-149900000D02*
X173100000Y-149900000D01*
%TO.C,R20*%
X170050000Y-145350000D02*
X170050000Y-144250000D01*
X171150000Y-144250000D02*
X171150000Y-145350000D01*
D15*
%TO.C,U1*%
X179950000Y-138760039D02*
X179950000Y-133360039D01*
X166950000Y-133360039D02*
X170250000Y-133360039D01*
X179950000Y-133360039D02*
X176650000Y-133360039D01*
X166950000Y-138760039D02*
X166950000Y-133360039D01*
X176650000Y-138760039D02*
X179950000Y-138760039D01*
X170250000Y-138760039D02*
X166950000Y-138760039D01*
D14*
X177035078Y-132810039D02*
G75*
G03*
X177035078Y-132810039I-160078J0D01*
G01*
D12*
%TO.C,R32*%
X227350000Y-155050000D02*
X226250000Y-155050000D01*
X226250000Y-153950000D02*
X227350000Y-153950000D01*
%TO.C,R54*%
X195275000Y-112850000D02*
X195275000Y-113950000D01*
X194175000Y-113950000D02*
X194175000Y-112850000D01*
%TO.C,R27*%
X189775000Y-115725000D02*
X191075000Y-115725000D01*
X191075000Y-117225000D02*
X189775000Y-117225000D01*
%TO.C,R15*%
X184400000Y-156450000D02*
X185500000Y-156450000D01*
X185500000Y-157550000D02*
X184400000Y-157550000D01*
%TO.C,R26*%
X189750000Y-118575000D02*
X190850000Y-118575000D01*
X190850000Y-119675000D02*
X189750000Y-119675000D01*
%TO.C,R61*%
X226600000Y-116510000D02*
X225500000Y-116510000D01*
X225500000Y-115410000D02*
X226600000Y-115410000D01*
D14*
%TO.C,U10*%
X237150000Y-129100000D02*
X237150000Y-130600000D01*
X245740000Y-130600000D02*
X245740000Y-131700000D01*
X247550000Y-129100000D02*
X247550000Y-130600000D01*
X238960000Y-130600000D02*
X238960000Y-135725000D01*
X237150000Y-130600000D02*
X238960000Y-130600000D01*
X247550000Y-130600000D02*
X245740000Y-130600000D01*
D12*
%TO.C,C27*%
X246250000Y-138350000D02*
X247350000Y-138350000D01*
X247350000Y-139450000D02*
X246250000Y-139450000D01*
%TO.C,C4*%
X186600000Y-177200000D02*
X187700000Y-177200000D01*
X187700000Y-178300000D02*
X186600000Y-178300000D01*
%TO.C,R67*%
X234950000Y-115440000D02*
X236050000Y-115440000D01*
X236050000Y-116540000D02*
X234950000Y-116540000D01*
D10*
%TO.C,U3*%
X187050000Y-114675000D02*
X187450000Y-114675000D01*
X187450000Y-119475000D02*
X186450000Y-119475000D01*
X181050000Y-119475000D02*
X182050000Y-119475000D01*
D12*
X182650000Y-120725000D02*
X182650000Y-120725000D01*
D10*
X181050000Y-117725000D02*
X181050000Y-119475000D01*
X187450000Y-117725000D02*
X187450000Y-119475000D01*
X181050000Y-116525000D02*
X181050000Y-114675000D01*
X181050000Y-114675000D02*
X181450000Y-114675000D01*
X187450000Y-114675000D02*
X187450000Y-116525000D01*
D12*
X182650000Y-120825000D02*
X182650000Y-120825000D01*
X182650000Y-120725000D02*
G75*
G03*
X182650000Y-120825000I0J-50000D01*
G01*
X182650000Y-120825000D02*
G75*
G03*
X182650000Y-120725000I0J50000D01*
G01*
%TO.C,R3*%
X168600000Y-152425000D02*
X168600000Y-153525000D01*
X167500000Y-153525000D02*
X167500000Y-152425000D01*
%TO.C,R35*%
X214175000Y-154050000D02*
X215275000Y-154050000D01*
X215275000Y-155150000D02*
X214175000Y-155150000D01*
%TO.C,R31*%
X210875000Y-157000000D02*
X209775000Y-157000000D01*
X209775000Y-155900000D02*
X210875000Y-155900000D01*
D13*
%TO.C,SW1*%
X173315000Y-148985000D02*
X176535000Y-148985000D01*
X176535000Y-148985000D02*
X176535000Y-143765000D01*
X176535000Y-143765000D02*
X173315000Y-143765000D01*
X173315000Y-143765000D02*
X173315000Y-148985000D01*
D15*
%TO.C,U16*%
X172850000Y-116960000D02*
X172850000Y-117960000D01*
X165540000Y-101610000D02*
X151890000Y-101610000D01*
X151890000Y-101610000D02*
X151890000Y-122410000D01*
X178990000Y-122410000D02*
X178990000Y-120260000D01*
X172910000Y-107160000D02*
X172910000Y-106160000D01*
X151890000Y-122410000D02*
X165540000Y-122410000D01*
X178990000Y-109410000D02*
X178990000Y-114610000D01*
X178990000Y-103760000D02*
X178990000Y-101610000D01*
X178990000Y-101610000D02*
X168290000Y-101610000D01*
X172410000Y-106660000D02*
X173410000Y-106660000D01*
X168290000Y-122410000D02*
X178990000Y-122410000D01*
D12*
%TO.C,R46*%
X216800000Y-116860000D02*
X217900000Y-116860000D01*
X217900000Y-117960000D02*
X216800000Y-117960000D01*
%TO.C,R48*%
X227775000Y-143825000D02*
X226675000Y-143825000D01*
X226675000Y-142725000D02*
X227775000Y-142725000D01*
%TO.C,C7*%
X183700000Y-121600000D02*
X184800000Y-121600000D01*
X184800000Y-122700000D02*
X183700000Y-122700000D01*
%TO.C,R50*%
X174700000Y-126750000D02*
X173600000Y-126750000D01*
X173600000Y-125650000D02*
X174700000Y-125650000D01*
%TO.C,R37*%
X205975000Y-155098250D02*
X204875000Y-155098250D01*
X204875000Y-153998250D02*
X205975000Y-153998250D01*
%TO.C,C26*%
X233190000Y-127415000D02*
X233190000Y-128515000D01*
X232090000Y-128515000D02*
X232090000Y-127415000D01*
%TO.C,R64*%
X198150000Y-113925000D02*
X198150000Y-112825000D01*
X199250000Y-112825000D02*
X199250000Y-113925000D01*
%TO.C,C24*%
X229625000Y-147470000D02*
X229625000Y-146170000D01*
X231125000Y-146170000D02*
X231125000Y-147470000D01*
%TO.C,R65*%
X196150000Y-102750000D02*
X196150000Y-101650000D01*
X197250000Y-101650000D02*
X197250000Y-102750000D01*
%TO.C,R56*%
X188250000Y-102800000D02*
X188250000Y-101700000D01*
X189350000Y-101700000D02*
X189350000Y-102800000D01*
D15*
%TO.C,Q15*%
X199325000Y-111550000D02*
X199325000Y-108250000D01*
X196025000Y-111550000D02*
X196025000Y-108250000D01*
D10*
X196375000Y-112250000D02*
G75*
G03*
X196375000Y-112250000I-100000J0D01*
G01*
D12*
%TO.C,R8*%
X189700000Y-175850000D02*
X191000000Y-175850000D01*
X191000000Y-177350000D02*
X189700000Y-177350000D01*
%TO.C,R21*%
X192525000Y-168725000D02*
X192525000Y-169825000D01*
X191425000Y-169825000D02*
X191425000Y-168725000D01*
%TO.C,R29*%
X228350000Y-155600000D02*
X229450000Y-155600000D01*
X229450000Y-156700000D02*
X228350000Y-156700000D01*
D16*
%TO.C,IC2*%
X168050000Y-149900000D02*
G75*
G03*
X168050000Y-149900000I-125000J0D01*
G01*
D12*
%TO.C,R14*%
X189175000Y-158625000D02*
X189175000Y-157525000D01*
X190275000Y-157525000D02*
X190275000Y-158625000D01*
D14*
%TO.C,U11*%
X236945000Y-150510000D02*
X236945000Y-148700000D01*
X236945000Y-140110000D02*
X236945000Y-141920000D01*
X238445000Y-150510000D02*
X236945000Y-150510000D01*
X238445000Y-140110000D02*
X236945000Y-140110000D01*
X236945000Y-148700000D02*
X235845000Y-148700000D01*
X236945000Y-141920000D02*
X231820000Y-141920000D01*
%TO.C,Q2*%
X195480000Y-173890000D02*
X195480000Y-175350000D01*
X192320000Y-173890000D02*
X193250000Y-173890000D01*
X195480000Y-173890000D02*
X194550000Y-173890000D01*
X192320000Y-173890000D02*
X192320000Y-176050000D01*
D15*
%TO.C,Q12*%
X192050000Y-104062500D02*
X192050000Y-107362500D01*
X195350000Y-104062500D02*
X195350000Y-107362500D01*
D10*
X195200000Y-103362500D02*
G75*
G03*
X195200000Y-103362500I-100000J0D01*
G01*
D14*
%TO.C,U13*%
X226676248Y-144118900D02*
X224763752Y-144118900D01*
X224763752Y-146481100D02*
X226676248Y-146481100D01*
X228221799Y-146050000D02*
G75*
G03*
X228221799Y-146050000I-101600J0D01*
G01*
D12*
%TO.C,C17*%
X216025000Y-138000000D02*
X214725000Y-138000000D01*
X214725000Y-136500000D02*
X216025000Y-136500000D01*
%TO.C,C1*%
X166975000Y-152925000D02*
X166975000Y-154025000D01*
X165875000Y-154025000D02*
X165875000Y-152925000D01*
D14*
%TO.C,IC1*%
X160325000Y-151415000D02*
X162275000Y-151415000D01*
X160325000Y-156535000D02*
X158375000Y-156535000D01*
X160325000Y-151415000D02*
X158375000Y-151415000D01*
X160325000Y-156535000D02*
X163775000Y-156535000D01*
D12*
%TO.C,R43*%
X219930000Y-162685000D02*
X219930000Y-163785000D01*
X218830000Y-163785000D02*
X218830000Y-162685000D01*
%TO.C,C15*%
X214925000Y-160750000D02*
X213825000Y-160750000D01*
X213825000Y-159650000D02*
X214925000Y-159650000D01*
%TO.C,C13*%
X210525000Y-158150000D02*
X210525000Y-159450000D01*
X209025000Y-159450000D02*
X209025000Y-158150000D01*
D14*
%TO.C,D13*%
X231240000Y-116700000D02*
X233340000Y-116700000D01*
X231240000Y-115300000D02*
X233340000Y-115300000D01*
X231240000Y-115300000D02*
X231240000Y-116700000D01*
D12*
%TO.C,R42*%
X217430000Y-163785000D02*
X217430000Y-162685000D01*
X218530000Y-162685000D02*
X218530000Y-163785000D01*
%TO.C,R23*%
X194400000Y-122225000D02*
X193300000Y-122225000D01*
X193300000Y-121125000D02*
X194400000Y-121125000D01*
%TO.C,R13*%
X194250000Y-157550000D02*
X194250000Y-158650000D01*
X193150000Y-158650000D02*
X193150000Y-157550000D01*
%TO.C,C35*%
X176925000Y-147700000D02*
X176925000Y-146600000D01*
X178025000Y-146600000D02*
X178025000Y-147700000D01*
%TO.C,R47*%
X216800000Y-115460000D02*
X217900000Y-115460000D01*
X217900000Y-116560000D02*
X216800000Y-116560000D01*
D15*
%TO.C,Q3*%
X196325000Y-159937500D02*
X196325000Y-163237500D01*
X193025000Y-159937500D02*
X193025000Y-163237500D01*
D10*
X196175000Y-159237500D02*
G75*
G03*
X196175000Y-159237500I-100000J0D01*
G01*
D15*
%TO.C,U4*%
X221850000Y-155700000D02*
X221850000Y-158900000D01*
X226250000Y-158900000D02*
X226850000Y-158900000D01*
X226250000Y-155700000D02*
X226850000Y-155700000D01*
X225965000Y-155150000D02*
G75*
G03*
X225965000Y-155150000I-65000J0D01*
G01*
D12*
%TO.C,C21*%
X196110000Y-124875000D02*
X196110000Y-125975000D01*
X195010000Y-125975000D02*
X195010000Y-124875000D01*
D14*
%TO.C,U24*%
X243990000Y-105160000D02*
X243990000Y-113880000D01*
X238570000Y-105160000D02*
X238570000Y-113880000D01*
X243990000Y-113880000D02*
X238570000Y-113880000D01*
X242690000Y-103460000D02*
X239870000Y-103460000D01*
X239870000Y-103460000D02*
X238570000Y-105160000D01*
X242690000Y-103460000D02*
X243990000Y-105160000D01*
%TO.C,D10*%
X212800000Y-115310000D02*
X214900000Y-115310000D01*
X212800000Y-115310000D02*
X212800000Y-116710000D01*
X212800000Y-116710000D02*
X214900000Y-116710000D01*
%TO.C,Q8*%
X178110000Y-128780000D02*
X176650000Y-128780000D01*
X178110000Y-128780000D02*
X178110000Y-127850000D01*
X178110000Y-125620000D02*
X178110000Y-126550000D01*
X178110000Y-125620000D02*
X175950000Y-125620000D01*
D12*
%TO.C,R36*%
X207775000Y-153998250D02*
X208875000Y-153998250D01*
X208875000Y-155098250D02*
X207775000Y-155098250D01*
%TO.C,R62*%
X197150000Y-158675000D02*
X197150000Y-157575000D01*
X198250000Y-157575000D02*
X198250000Y-158675000D01*
D14*
%TO.C,D6*%
X204535000Y-163525000D02*
X206635000Y-163525000D01*
X204535000Y-164925000D02*
X206635000Y-164925000D01*
X204535000Y-163525000D02*
X204535000Y-164925000D01*
%TO.C,U25*%
X236435000Y-175160000D02*
X236435000Y-166440000D01*
X231015000Y-175160000D02*
X231015000Y-166440000D01*
X232315000Y-176860000D02*
X231015000Y-175160000D01*
X235135000Y-176860000D02*
X236435000Y-175160000D01*
X231015000Y-166440000D02*
X236435000Y-166440000D01*
X232315000Y-176860000D02*
X235135000Y-176860000D01*
%TO.C,D1*%
X177300000Y-153550000D02*
X173450000Y-153550000D01*
X177300000Y-153550000D02*
X177300000Y-151550000D01*
X177300000Y-151550000D02*
X173450000Y-151550000D01*
D12*
%TO.C,R11*%
X189875000Y-171250000D02*
X191175000Y-171250000D01*
X191175000Y-172750000D02*
X189875000Y-172750000D01*
D14*
%TO.C,D3*%
X185600000Y-160100000D02*
X183500000Y-160100000D01*
X185600000Y-161500000D02*
X185600000Y-160100000D01*
X185600000Y-161500000D02*
X183500000Y-161500000D01*
D12*
%TO.C,C16*%
X206430000Y-160780000D02*
X205330000Y-160780000D01*
X205330000Y-159680000D02*
X206430000Y-159680000D01*
%TO.C,R2*%
X169275000Y-156425000D02*
X168175000Y-156425000D01*
X168175000Y-155325000D02*
X169275000Y-155325000D01*
%TO.C,R40*%
X226200000Y-163935000D02*
X226200000Y-162835000D01*
X227300000Y-162835000D02*
X227300000Y-163935000D01*
D15*
%TO.C,U6*%
X207675000Y-159050000D02*
X208275000Y-159050000D01*
X203275000Y-155850000D02*
X203275000Y-159050000D01*
X207675000Y-155850000D02*
X208275000Y-155850000D01*
X207390000Y-155300000D02*
G75*
G03*
X207390000Y-155300000I-65000J0D01*
G01*
D12*
%TO.C,C36*%
X178425000Y-147700000D02*
X178425000Y-146600000D01*
X179525000Y-146600000D02*
X179525000Y-147700000D01*
%TO.C,R17*%
X172825000Y-147200000D02*
X172825000Y-148300000D01*
X171725000Y-148300000D02*
X171725000Y-147200000D01*
%TO.C,R52*%
X180750000Y-124725000D02*
X180750000Y-126025000D01*
X179250000Y-126025000D02*
X179250000Y-124725000D01*
%TO.C,R70*%
X235950000Y-163675000D02*
X237250000Y-163675000D01*
X237250000Y-165175000D02*
X235950000Y-165175000D01*
D11*
%TO.C,J7*%
X165714400Y-124217200D02*
X165714400Y-125487200D01*
X151414200Y-136968000D02*
X152125400Y-134859800D01*
X154436800Y-124217200D02*
X154716200Y-124217200D01*
X165765200Y-127189000D02*
X165765200Y-133259600D01*
X154690800Y-138517400D02*
X163479200Y-138517400D01*
X151033200Y-137069600D02*
X151414200Y-136968000D01*
X151033200Y-138517400D02*
X151033200Y-137069600D01*
X150920000Y-124200000D02*
X151980000Y-124200000D01*
X152000000Y-138517400D02*
X151033200Y-138517400D01*
X156189400Y-124217200D02*
X163631600Y-124217200D01*
X150910000Y-125940000D02*
X150910000Y-124200000D01*
X165028600Y-124217200D02*
X165714400Y-124217200D01*
X153522400Y-125944400D02*
X150906200Y-125944400D01*
X152125400Y-134859800D02*
X153497000Y-134859800D01*
X165790600Y-135000000D02*
X165790600Y-137755400D01*
X153522400Y-134859800D02*
X153522400Y-125944400D01*
D14*
%TO.C,D7*%
X222335000Y-163535000D02*
X222335000Y-164935000D01*
X222335000Y-164935000D02*
X224435000Y-164935000D01*
X222335000Y-163535000D02*
X224435000Y-163535000D01*
%TO.C,U14*%
X157043752Y-141931100D02*
X158956248Y-141931100D01*
X158956248Y-139568900D02*
X157043752Y-139568900D01*
X155701401Y-140000000D02*
G75*
G03*
X155701401Y-140000000I-101600J0D01*
G01*
D15*
%TO.C,Q4*%
X192375000Y-159937500D02*
X192375000Y-163237500D01*
X189075000Y-159937500D02*
X189075000Y-163237500D01*
D10*
X192225000Y-159237500D02*
G75*
G03*
X192225000Y-159237500I-100000J0D01*
G01*
D14*
%TO.C,D11*%
X221800000Y-115260000D02*
X223900000Y-115260000D01*
X221800000Y-116660000D02*
X223900000Y-116660000D01*
X221800000Y-115260000D02*
X221800000Y-116660000D01*
D15*
%TO.C,Q6*%
X196325000Y-167402500D02*
X196325000Y-164102500D01*
X193025000Y-167402500D02*
X193025000Y-164102500D01*
D10*
X193375000Y-168102500D02*
G75*
G03*
X193375000Y-168102500I-100000J0D01*
G01*
D12*
%TO.C,C30*%
X161450000Y-140200000D02*
X161450000Y-141300000D01*
X160350000Y-141300000D02*
X160350000Y-140200000D01*
%TO.C,R22*%
X196500000Y-168725000D02*
X196500000Y-169825000D01*
X195400000Y-169825000D02*
X195400000Y-168725000D01*
%TO.C,C23*%
X240200000Y-136200000D02*
X241500000Y-136200000D01*
X241500000Y-137700000D02*
X240200000Y-137700000D01*
%TO.C,R24*%
X180800000Y-121612500D02*
X181900000Y-121612500D01*
X181900000Y-122712500D02*
X180800000Y-122712500D01*
%TO.C,R53*%
X155250000Y-140300000D02*
X155250000Y-141400000D01*
X154150000Y-141400000D02*
X154150000Y-140300000D01*
D14*
%TO.C,D5*%
X186250000Y-156250000D02*
X186250000Y-154850000D01*
X186250000Y-156250000D02*
X184150000Y-156250000D01*
X186250000Y-154850000D02*
X184150000Y-154850000D01*
D12*
%TO.C,R30*%
X219175000Y-155850000D02*
X220275000Y-155850000D01*
X220275000Y-156950000D02*
X219175000Y-156950000D01*
D15*
%TO.C,U15*%
X179050000Y-165350000D02*
X179050000Y-170550000D01*
X172910000Y-172900000D02*
X172910000Y-173900000D01*
X172470000Y-162600000D02*
X173470000Y-162600000D01*
X165600000Y-157550000D02*
X151950000Y-157550000D01*
X179050000Y-178350000D02*
X179050000Y-176200000D01*
X179050000Y-159700000D02*
X179050000Y-157550000D01*
X168350000Y-178350000D02*
X179050000Y-178350000D01*
X172970000Y-163100000D02*
X172970000Y-162100000D01*
X151950000Y-178350000D02*
X165600000Y-178350000D01*
X179050000Y-157550000D02*
X168350000Y-157550000D01*
X151950000Y-157550000D02*
X151950000Y-178350000D01*
D12*
%TO.C,R49*%
X173600000Y-127650000D02*
X174700000Y-127650000D01*
X174700000Y-128750000D02*
X173600000Y-128750000D01*
%TO.C,C8*%
X187700000Y-122700000D02*
X186600000Y-122700000D01*
X186600000Y-121600000D02*
X187700000Y-121600000D01*
%TO.C,C3*%
X184800000Y-178300000D02*
X183700000Y-178300000D01*
X183700000Y-177200000D02*
X184800000Y-177200000D01*
%TO.C,C12*%
X219925000Y-158100000D02*
X219925000Y-159400000D01*
X218425000Y-159400000D02*
X218425000Y-158100000D01*
%TO.C,R34*%
X218175000Y-155148250D02*
X217075000Y-155148250D01*
X217075000Y-154048250D02*
X218175000Y-154048250D01*
D14*
%TO.C,D4*%
X185500000Y-105510000D02*
X185500000Y-104110000D01*
X185500000Y-105510000D02*
X183400000Y-105510000D01*
X185500000Y-104110000D02*
X183400000Y-104110000D01*
%TO.C,U19*%
X203790000Y-176860000D02*
X206610000Y-176860000D01*
X202490000Y-175160000D02*
X202490000Y-166440000D01*
X206610000Y-176860000D02*
X207910000Y-175160000D01*
X203790000Y-176860000D02*
X202490000Y-175160000D01*
X202490000Y-166440000D02*
X207910000Y-166440000D01*
X207910000Y-175160000D02*
X207910000Y-166440000D01*
%TO.C,U36*%
X210030000Y-143120000D02*
X204905000Y-143120000D01*
X211530000Y-141310000D02*
X210030000Y-141310000D01*
X210030000Y-149900000D02*
X208930000Y-149900000D01*
X211530000Y-151710000D02*
X210030000Y-151710000D01*
X210030000Y-141310000D02*
X210030000Y-143120000D01*
X210030000Y-151710000D02*
X210030000Y-149900000D01*
%TO.C,U21*%
X212790000Y-103440000D02*
X211490000Y-105140000D01*
X216910000Y-105140000D02*
X216910000Y-113860000D01*
X215610000Y-103440000D02*
X212790000Y-103440000D01*
X211490000Y-105140000D02*
X211490000Y-113860000D01*
X216910000Y-113860000D02*
X211490000Y-113860000D01*
X215610000Y-103440000D02*
X216910000Y-105140000D01*
%TO.C,SP1*%
X195400000Y-131400000D02*
G75*
G03*
X195400000Y-131400000I-7200000J0D01*
G01*
D12*
%TO.C,R33*%
X223300000Y-153950000D02*
X224400000Y-153950000D01*
X224400000Y-155050000D02*
X223300000Y-155050000D01*
%TO.C,R38*%
X224050000Y-162085000D02*
X225150000Y-162085000D01*
X225150000Y-163185000D02*
X224050000Y-163185000D01*
%TO.C,J2*%
X151000000Y-153200000D02*
X151000000Y-143200000D01*
X153750000Y-143700000D02*
X156250000Y-143700000D01*
X156250000Y-143700000D02*
X156250000Y-152700000D01*
X153750000Y-143200000D02*
X153750000Y-143700000D01*
X153750000Y-152700000D02*
X153750000Y-153200000D01*
X151000000Y-143200000D02*
X153750000Y-143200000D01*
X153750000Y-153200000D02*
X151000000Y-153200000D01*
X156250000Y-152700000D02*
X153750000Y-152700000D01*
D14*
%TO.C,U34*%
X177640000Y-152450000D02*
X177640000Y-154400000D01*
X182760000Y-152450000D02*
X182760000Y-154400000D01*
X177640000Y-152450000D02*
X177640000Y-150500000D01*
X182760000Y-152450000D02*
X182760000Y-149000000D01*
D12*
%TO.C,R41*%
X215305000Y-161935000D02*
X216405000Y-161935000D01*
X216405000Y-163035000D02*
X215305000Y-163035000D01*
D15*
%TO.C,U5*%
X217075000Y-158998250D02*
X217675000Y-158998250D01*
X217075000Y-155798250D02*
X217675000Y-155798250D01*
X212675000Y-155798250D02*
X212675000Y-158998250D01*
X216790000Y-155248250D02*
G75*
G03*
X216790000Y-155248250I-65000J0D01*
G01*
D14*
%TO.C,D8*%
X213385000Y-163535000D02*
X213385000Y-164935000D01*
X213385000Y-164935000D02*
X215485000Y-164935000D01*
X213385000Y-163535000D02*
X215485000Y-163535000D01*
D12*
%TO.C,R6*%
X194500000Y-177650000D02*
X193400000Y-177650000D01*
X193400000Y-176550000D02*
X194500000Y-176550000D01*
D15*
%TO.C,Q16*%
X199325000Y-104062500D02*
X199325000Y-107362500D01*
X196025000Y-104062500D02*
X196025000Y-107362500D01*
D10*
X199175000Y-103362500D02*
G75*
G03*
X199175000Y-103362500I-100000J0D01*
G01*
D15*
%TO.C,Q9*%
X195350000Y-111537500D02*
X195350000Y-108237500D01*
X192050000Y-111537500D02*
X192050000Y-108237500D01*
D10*
X192400000Y-112237500D02*
G75*
G03*
X192400000Y-112237500I-100000J0D01*
G01*
D12*
%TO.C,R9*%
X181900000Y-105200000D02*
X181900000Y-106300000D01*
X180800000Y-106300000D02*
X180800000Y-105200000D01*
D14*
%TO.C,U8*%
X207250000Y-130875000D02*
X205440000Y-130875000D01*
X198660000Y-130875000D02*
X198660000Y-136000000D01*
X205440000Y-130875000D02*
X205440000Y-131975000D01*
X207250000Y-129375000D02*
X207250000Y-130875000D01*
X196850000Y-130875000D02*
X198660000Y-130875000D01*
X196850000Y-129375000D02*
X196850000Y-130875000D01*
D12*
%TO.C,R58*%
X210945000Y-162825000D02*
X210945000Y-163925000D01*
X209845000Y-163925000D02*
X209845000Y-162825000D01*
%TO.C,C31*%
X168925000Y-148275000D02*
X168925000Y-147175000D01*
X170025000Y-147175000D02*
X170025000Y-148275000D01*
D15*
%TO.C,Q11*%
X188100000Y-104075000D02*
X188100000Y-107375000D01*
X191400000Y-104075000D02*
X191400000Y-107375000D01*
D10*
X191250000Y-103375000D02*
G75*
G03*
X191250000Y-103375000I-100000J0D01*
G01*
D12*
%TO.C,R16*%
X206295000Y-161975000D02*
X207395000Y-161975000D01*
X207395000Y-163075000D02*
X206295000Y-163075000D01*
D15*
%TO.C,Q5*%
X192375000Y-167415000D02*
X192375000Y-164115000D01*
X189075000Y-167415000D02*
X189075000Y-164115000D01*
D10*
X189425000Y-168115000D02*
G75*
G03*
X189425000Y-168115000I-100000J0D01*
G01*
D12*
%TO.C,R39*%
X228700000Y-162835000D02*
X228700000Y-163935000D01*
X227600000Y-163935000D02*
X227600000Y-162835000D01*
%TO.C,R5*%
X181950000Y-161150000D02*
X181950000Y-162250000D01*
X180850000Y-162250000D02*
X180850000Y-161150000D01*
D14*
%TO.C,U9*%
X192575000Y-141325000D02*
X191075000Y-141325000D01*
X192575000Y-151725000D02*
X191075000Y-151725000D01*
X191075000Y-143135000D02*
X185950000Y-143135000D01*
X191075000Y-149915000D02*
X189975000Y-149915000D01*
X191075000Y-141325000D02*
X191075000Y-143135000D01*
X191075000Y-151725000D02*
X191075000Y-149915000D01*
D12*
%TO.C,C11*%
X227600000Y-159150000D02*
X227600000Y-157850000D01*
X229100000Y-157850000D02*
X229100000Y-159150000D01*
D14*
%TO.C,D12*%
X181925000Y-148600000D02*
X181925000Y-144750000D01*
X179925000Y-148600000D02*
X179925000Y-144750000D01*
X179925000Y-148600000D02*
X181925000Y-148600000D01*
%TD*%
M02*
