%TF.GenerationSoftware,KiCad,Pcbnew,(6.0.10-0)*%
%TF.CreationDate,2023-03-03T19:39:16-08:00*%
%TF.ProjectId,1.0,312e302e-6b69-4636-9164-5f7063625858,rev?*%
%TF.SameCoordinates,Original*%
%TF.FileFunction,Copper,L1,Top*%
%TF.FilePolarity,Positive*%
%FSLAX46Y46*%
G04 Gerber Fmt 4.6, Leading zero omitted, Abs format (unit mm)*
G04 Created by KiCad (PCBNEW (6.0.10-0)) date 2023-03-03 19:39:16*
%MOMM*%
%LPD*%
G01*
G04 APERTURE LIST*
G04 Aperture macros list*
%AMRoundRect*
0 Rectangle with rounded corners*
0 $1 Rounding radius*
0 $2 $3 $4 $5 $6 $7 $8 $9 X,Y pos of 4 corners*
0 Add a 4 corners polygon primitive as box body*
4,1,4,$2,$3,$4,$5,$6,$7,$8,$9,$2,$3,0*
0 Add four circle primitives for the rounded corners*
1,1,$1+$1,$2,$3*
1,1,$1+$1,$4,$5*
1,1,$1+$1,$6,$7*
1,1,$1+$1,$8,$9*
0 Add four rect primitives between the rounded corners*
20,1,$1+$1,$2,$3,$4,$5,0*
20,1,$1+$1,$4,$5,$6,$7,0*
20,1,$1+$1,$6,$7,$8,$9,0*
20,1,$1+$1,$8,$9,$2,$3,0*%
%AMFreePoly0*
4,1,37,1.753536,1.228536,1.755000,1.225000,1.755000,0.725000,1.753536,0.721464,1.750000,0.720000,1.345000,0.720000,1.345000,0.580000,1.750000,0.580000,1.753536,0.578536,1.755000,0.575000,1.755000,0.075000,1.753536,0.071464,1.750000,0.070000,1.345000,0.070000,1.345000,-0.070000,1.750000,-0.070000,1.753536,-0.071464,1.755000,-0.075000,1.755000,-0.575000,1.753536,-0.578536,
1.750000,-0.580000,1.345000,-0.580000,1.345000,-0.720000,1.750000,-0.720000,1.753536,-0.721464,1.755000,-0.725000,1.755000,-1.225000,1.753536,-1.228536,1.750000,-1.230000,-0.560000,-1.230000,-0.563536,-1.228536,-0.565000,-1.225000,-0.565000,1.225000,-0.563536,1.228536,-0.560000,1.230000,1.750000,1.230000,1.753536,1.228536,1.753536,1.228536,$1*%
G04 Aperture macros list end*
%TA.AperFunction,ComponentPad*%
%ADD10C,3.600000*%
%TD*%
%TA.AperFunction,ComponentPad*%
%ADD11R,3.800000X3.800000*%
%TD*%
%TA.AperFunction,ComponentPad*%
%ADD12C,4.000000*%
%TD*%
%TA.AperFunction,SMDPad,CuDef*%
%ADD13R,0.600000X0.800000*%
%TD*%
%TA.AperFunction,SMDPad,CuDef*%
%ADD14RoundRect,0.150000X-0.250000X0.150000X-0.250000X-0.150000X0.250000X-0.150000X0.250000X0.150000X0*%
%TD*%
%TA.AperFunction,SMDPad,CuDef*%
%ADD15R,0.800000X0.600000*%
%TD*%
%TA.AperFunction,SMDPad,CuDef*%
%ADD16R,0.700000X1.200000*%
%TD*%
%TA.AperFunction,SMDPad,CuDef*%
%ADD17R,1.100000X1.100000*%
%TD*%
%TA.AperFunction,SMDPad,CuDef*%
%ADD18RoundRect,0.150000X0.150000X0.250000X-0.150000X0.250000X-0.150000X-0.250000X0.150000X-0.250000X0*%
%TD*%
%TA.AperFunction,SMDPad,CuDef*%
%ADD19RoundRect,0.175000X0.425000X-0.175000X0.425000X0.175000X-0.425000X0.175000X-0.425000X-0.175000X0*%
%TD*%
%TA.AperFunction,ComponentPad*%
%ADD20R,1.500000X1.500000*%
%TD*%
%TA.AperFunction,SMDPad,CuDef*%
%ADD21R,1.800000X1.200000*%
%TD*%
%TA.AperFunction,SMDPad,CuDef*%
%ADD22R,1.550000X0.600000*%
%TD*%
%TA.AperFunction,SMDPad,CuDef*%
%ADD23RoundRect,0.175000X-0.425000X0.175000X-0.425000X-0.175000X0.425000X-0.175000X0.425000X0.175000X0*%
%TD*%
%TA.AperFunction,SMDPad,CuDef*%
%ADD24R,0.900000X0.800000*%
%TD*%
%TA.AperFunction,SMDPad,CuDef*%
%ADD25R,1.100000X4.600000*%
%TD*%
%TA.AperFunction,SMDPad,CuDef*%
%ADD26R,5.250000X4.550000*%
%TD*%
%TA.AperFunction,SMDPad,CuDef*%
%ADD27R,10.800000X9.400000*%
%TD*%
%TA.AperFunction,SMDPad,CuDef*%
%ADD28R,0.500000X0.630000*%
%TD*%
%TA.AperFunction,SMDPad,CuDef*%
%ADD29FreePoly0,90.000000*%
%TD*%
%TA.AperFunction,SMDPad,CuDef*%
%ADD30FreePoly0,270.000000*%
%TD*%
%TA.AperFunction,SMDPad,CuDef*%
%ADD31R,0.500000X1.600000*%
%TD*%
%TA.AperFunction,SMDPad,CuDef*%
%ADD32R,0.900000X0.600000*%
%TD*%
%TA.AperFunction,SMDPad,CuDef*%
%ADD33R,1.800000X1.700000*%
%TD*%
%TA.AperFunction,SMDPad,CuDef*%
%ADD34RoundRect,0.150000X-0.150000X-0.250000X0.150000X-0.250000X0.150000X0.250000X-0.150000X0.250000X0*%
%TD*%
%TA.AperFunction,SMDPad,CuDef*%
%ADD35R,0.800000X0.900000*%
%TD*%
%TA.AperFunction,SMDPad,CuDef*%
%ADD36RoundRect,0.150000X0.250000X-0.150000X0.250000X0.150000X-0.250000X0.150000X-0.250000X-0.150000X0*%
%TD*%
%TA.AperFunction,ComponentPad*%
%ADD37C,3.000000*%
%TD*%
%TA.AperFunction,SMDPad,CuDef*%
%ADD38RoundRect,0.175000X0.175000X0.425000X-0.175000X0.425000X-0.175000X-0.425000X0.175000X-0.425000X0*%
%TD*%
%TA.AperFunction,SMDPad,CuDef*%
%ADD39R,0.760000X2.600000*%
%TD*%
%TA.AperFunction,SMDPad,CuDef*%
%ADD40R,1.000000X0.900000*%
%TD*%
%TA.AperFunction,SMDPad,CuDef*%
%ADD41R,0.550000X1.700000*%
%TD*%
%TA.AperFunction,ComponentPad*%
%ADD42O,2.600000X1.300000*%
%TD*%
%TA.AperFunction,ComponentPad*%
%ADD43R,4.916000X4.916000*%
%TD*%
%TA.AperFunction,ComponentPad*%
%ADD44C,4.916000*%
%TD*%
%TA.AperFunction,SMDPad,CuDef*%
%ADD45R,1.000000X1.000000*%
%TD*%
%TA.AperFunction,SMDPad,CuDef*%
%ADD46R,0.850000X0.300000*%
%TD*%
%TA.AperFunction,SMDPad,CuDef*%
%ADD47R,0.300000X0.850000*%
%TD*%
%TA.AperFunction,SMDPad,CuDef*%
%ADD48R,5.250000X5.250000*%
%TD*%
%TA.AperFunction,SMDPad,CuDef*%
%ADD49R,4.600000X1.100000*%
%TD*%
%TA.AperFunction,SMDPad,CuDef*%
%ADD50R,4.550000X5.250000*%
%TD*%
%TA.AperFunction,SMDPad,CuDef*%
%ADD51R,9.400000X10.800000*%
%TD*%
%TA.AperFunction,SMDPad,CuDef*%
%ADD52R,0.757199X0.254800*%
%TD*%
%TA.AperFunction,SMDPad,CuDef*%
%ADD53R,1.600200X1.600200*%
%TD*%
%TA.AperFunction,SMDPad,CuDef*%
%ADD54RoundRect,0.150000X0.825000X0.150000X-0.825000X0.150000X-0.825000X-0.150000X0.825000X-0.150000X0*%
%TD*%
%TA.AperFunction,SMDPad,CuDef*%
%ADD55R,0.250000X0.800000*%
%TD*%
%TA.AperFunction,SMDPad,CuDef*%
%ADD56R,0.250000X1.100000*%
%TD*%
%TA.AperFunction,SMDPad,CuDef*%
%ADD57R,1.950000X0.600000*%
%TD*%
%TA.AperFunction,SMDPad,CuDef*%
%ADD58R,0.250000X0.700000*%
%TD*%
%TA.AperFunction,SMDPad,CuDef*%
%ADD59R,0.700000X0.250000*%
%TD*%
%TA.AperFunction,SMDPad,CuDef*%
%ADD60R,1.100000X0.250000*%
%TD*%
%TA.AperFunction,SMDPad,CuDef*%
%ADD61R,1.200000X0.700000*%
%TD*%
%TA.AperFunction,SMDPad,CuDef*%
%ADD62R,2.200000X1.150000*%
%TD*%
%TA.AperFunction,SMDPad,CuDef*%
%ADD63R,1.150000X1.500000*%
%TD*%
%TA.AperFunction,SMDPad,CuDef*%
%ADD64R,2.500000X0.950000*%
%TD*%
%TA.AperFunction,SMDPad,CuDef*%
%ADD65R,1.240000X0.800000*%
%TD*%
%TA.AperFunction,SMDPad,CuDef*%
%ADD66R,1.250000X1.250000*%
%TD*%
%TA.AperFunction,SMDPad,CuDef*%
%ADD67R,1.200000X1.200000*%
%TD*%
%TA.AperFunction,ComponentPad*%
%ADD68R,2.000000X2.000000*%
%TD*%
%TA.AperFunction,ComponentPad*%
%ADD69C,2.000000*%
%TD*%
%TA.AperFunction,SMDPad,CuDef*%
%ADD70R,1.900000X1.800000*%
%TD*%
%TA.AperFunction,SMDPad,CuDef*%
%ADD71R,1.900000X1.900000*%
%TD*%
%TA.AperFunction,SMDPad,CuDef*%
%ADD72R,1.600000X2.100000*%
%TD*%
%TA.AperFunction,SMDPad,CuDef*%
%ADD73R,1.300000X0.400000*%
%TD*%
%TA.AperFunction,SMDPad,CuDef*%
%ADD74RoundRect,0.150000X-0.150000X0.825000X-0.150000X-0.825000X0.150000X-0.825000X0.150000X0.825000X0*%
%TD*%
%TA.AperFunction,ViaPad*%
%ADD75C,0.600000*%
%TD*%
%TA.AperFunction,ViaPad*%
%ADD76C,3.500000*%
%TD*%
%TA.AperFunction,ViaPad*%
%ADD77C,2.000000*%
%TD*%
%TA.AperFunction,ViaPad*%
%ADD78C,0.700000*%
%TD*%
%TA.AperFunction,Conductor*%
%ADD79C,0.250000*%
%TD*%
%TA.AperFunction,Conductor*%
%ADD80C,0.350000*%
%TD*%
%TA.AperFunction,Conductor*%
%ADD81C,1.000000*%
%TD*%
%TA.AperFunction,Conductor*%
%ADD82C,2.500000*%
%TD*%
%TA.AperFunction,Conductor*%
%ADD83C,0.200000*%
%TD*%
G04 APERTURE END LIST*
D10*
%TO.P,U28,1*%
%TO.N,N/C*%
X247150000Y-108675000D03*
%TD*%
D11*
%TO.P,U22,1,-*%
%TO.N,GND*%
X223200000Y-106150000D03*
D12*
%TO.P,U22,2,+*%
%TO.N,5V_3*%
X223200000Y-111150000D03*
%TD*%
D13*
%TO.P,C22,1*%
%TO.N,5V_2*%
X198275000Y-140107500D03*
%TO.P,C22,2*%
%TO.N,GND*%
X196575000Y-140107500D03*
%TD*%
D14*
%TO.P,R18,1*%
%TO.N,/batt_ctl/BATT_1_VSENSE*%
X170850000Y-146900000D03*
%TO.P,R18,2*%
%TO.N,GNDD*%
X170850000Y-148600000D03*
%TD*%
D15*
%TO.P,C29,1*%
%TO.N,GND*%
X222790000Y-144375000D03*
%TO.P,C29,2*%
%TO.N,3-3V_1*%
X222790000Y-146075000D03*
%TD*%
D13*
%TO.P,D16,1,K*%
%TO.N,GND*%
X232575000Y-164425000D03*
%TO.P,D16,2,A*%
%TO.N,Net-(D16-Pad2)*%
X234275000Y-164425000D03*
%TD*%
%TO.P,D15,1,K*%
%TO.N,GND*%
X240600000Y-116125000D03*
%TO.P,D15,2,A*%
%TO.N,Net-(D15-Pad2)*%
X242300000Y-116125000D03*
%TD*%
D16*
%TO.P,R51,1*%
%TO.N,+5V*%
X176425000Y-124450000D03*
%TO.P,R51,2*%
%TO.N,Net-(Q8-Pad3)*%
X178425000Y-124450000D03*
%TD*%
D17*
%TO.P,D2,1,K*%
%TO.N,Net-(C33-Pad2)*%
X176500000Y-155000000D03*
%TO.P,D2,2,A*%
%TO.N,BATT_1_PWR*%
X173700000Y-155000000D03*
%TD*%
D18*
%TO.P,R1,1*%
%TO.N,+3V3*%
X166650000Y-155850000D03*
%TO.P,R1,2*%
%TO.N,/processor/FLASH_CS*%
X164950000Y-155850000D03*
%TD*%
%TO.P,R45,1*%
%TO.N,+5V*%
X210250000Y-115973750D03*
%TO.P,R45,2*%
%TO.N,Net-(D9-Pad2)*%
X208550000Y-115973750D03*
%TD*%
D13*
%TO.P,C20,1*%
%TO.N,5V_3*%
X213250000Y-118805000D03*
%TO.P,C20,2*%
%TO.N,GND*%
X214950000Y-118805000D03*
%TD*%
D11*
%TO.P,U35,1*%
%TO.N,N/C*%
X232300000Y-106170000D03*
D12*
%TO.P,U35,2*%
X232300000Y-111170000D03*
%TD*%
D16*
%TO.P,R25,1*%
%TO.N,/batt_ctl/BATT_2_CTL*%
X191500000Y-120725000D03*
%TO.P,R25,2*%
%TO.N,Net-(R25-Pad2)*%
X189500000Y-120725000D03*
%TD*%
D13*
%TO.P,C14,1*%
%TO.N,3-3V_1*%
X222630000Y-160155000D03*
%TO.P,C14,2*%
%TO.N,GND*%
X224330000Y-160155000D03*
%TD*%
D18*
%TO.P,R66,1*%
%TO.N,5V_4*%
X236340000Y-117410000D03*
%TO.P,R66,2*%
%TO.N,Net-(D13-Pad2)*%
X234640000Y-117410000D03*
%TD*%
D15*
%TO.P,C32,1*%
%TO.N,+3V3*%
X158200000Y-148650000D03*
%TO.P,C32,2*%
%TO.N,GNDD*%
X158200000Y-146950000D03*
%TD*%
D19*
%TO.P,C37,1*%
%TO.N,+BATT*%
X203510000Y-148960000D03*
%TO.P,C37,2*%
%TO.N,GND*%
X203510000Y-146960000D03*
%TD*%
D20*
%TO.P,P2,1,1*%
%TO.N,/~{RESET_RAW}*%
X174800000Y-130600000D03*
%TD*%
D11*
%TO.P,U17,1,-*%
%TO.N,GND*%
X223200000Y-174150000D03*
D12*
%TO.P,U17,2,+*%
%TO.N,3-3V_1*%
X223200000Y-169150000D03*
%TD*%
D16*
%TO.P,R69,1*%
%TO.N,Net-(D15-Pad2)*%
X244550000Y-116150000D03*
%TO.P,R69,2*%
%TO.N,12V_2*%
X246550000Y-116150000D03*
%TD*%
D19*
%TO.P,C19,1*%
%TO.N,+BATT*%
X184625000Y-149075000D03*
%TO.P,C19,2*%
%TO.N,GND*%
X184625000Y-147075000D03*
%TD*%
D14*
%TO.P,R59,1*%
%TO.N,3-3V_3*%
X208995000Y-162525000D03*
%TO.P,R59,2*%
%TO.N,Net-(D6-Pad2)*%
X208995000Y-164225000D03*
%TD*%
D21*
%TO.P,J1,*%
%TO.N,*%
X170477500Y-124800000D03*
X170477500Y-130400000D03*
D22*
%TO.P,J1,1*%
%TO.N,/~{RESET_RAW}*%
X167952500Y-129100000D03*
%TO.P,J1,2*%
%TO.N,/SERIAL1_TX*%
X167952500Y-128100000D03*
%TO.P,J1,3*%
%TO.N,/SERIAL1_RX*%
X167952500Y-127100000D03*
%TO.P,J1,4*%
%TO.N,GNDD*%
X167952500Y-126100000D03*
%TD*%
D23*
%TO.P,C25,1*%
%TO.N,+BATT*%
X232990000Y-120140000D03*
%TO.P,C25,2*%
%TO.N,GND*%
X232990000Y-122140000D03*
%TD*%
D24*
%TO.P,Q1,1,B*%
%TO.N,Net-(Q1-Pad1)*%
X169675000Y-152025000D03*
%TO.P,Q1,2,E*%
%TO.N,GNDD*%
X169675000Y-153925000D03*
%TO.P,Q1,3,C*%
%TO.N,/~{RESET_RAW}*%
X171675000Y-152975000D03*
%TD*%
D25*
%TO.P,U12,1,ADJ*%
%TO.N,GND*%
X228740000Y-122065000D03*
D26*
%TO.P,U12,2,VOUT*%
%TO.N,12V_3*%
X223425000Y-128790000D03*
D27*
X226200000Y-131215000D03*
D26*
X228975000Y-133640000D03*
X228975000Y-128790000D03*
X223425000Y-133640000D03*
D25*
X226200000Y-122065000D03*
%TO.P,U12,3,VIN*%
%TO.N,+BATT*%
X223660000Y-122065000D03*
%TD*%
D11*
%TO.P,U20,1,-*%
%TO.N,GND*%
X205200000Y-106150000D03*
D12*
%TO.P,U20,2,+*%
%TO.N,+5V*%
X205200000Y-111150000D03*
%TD*%
D28*
%TO.P,Q10,1,S*%
%TO.N,+BATT*%
X190075000Y-111322500D03*
X188775000Y-111322500D03*
X189425000Y-111322500D03*
%TO.P,Q10,2,G*%
%TO.N,Net-(Q10-Pad2)*%
X190725000Y-111322500D03*
D29*
%TO.P,Q10,3,D*%
%TO.N,Net-(Q10-Pad3)*%
X189750000Y-109887500D03*
%TD*%
D18*
%TO.P,R28,1*%
%TO.N,Net-(Q7-Pad3)*%
X194725000Y-116425000D03*
%TO.P,R28,2*%
%TO.N,Net-(R27-Pad1)*%
X193025000Y-116425000D03*
%TD*%
D28*
%TO.P,Q13,1,S*%
%TO.N,+BATT*%
X198350000Y-160165000D03*
X199650000Y-160165000D03*
X199000000Y-160165000D03*
%TO.P,Q13,2,G*%
%TO.N,Net-(Q13-Pad2)*%
X197700000Y-160165000D03*
D30*
%TO.P,Q13,3,D*%
%TO.N,Net-(Q13-Pad3)*%
X198675000Y-161600000D03*
%TD*%
D18*
%TO.P,R44,1*%
%TO.N,+5V*%
X210250000Y-117373750D03*
%TO.P,R44,2*%
%TO.N,Net-(D9-Pad2)*%
X208550000Y-117373750D03*
%TD*%
%TO.P,R10,1*%
%TO.N,Net-(Q2-Pad1)*%
X191200000Y-175000000D03*
%TO.P,R10,2*%
%TO.N,Net-(R10-Pad2)*%
X189500000Y-175000000D03*
%TD*%
D14*
%TO.P,R55,1*%
%TO.N,Net-(Q10-Pad2)*%
X190775000Y-112525000D03*
%TO.P,R55,2*%
%TO.N,Net-(Q7-Pad3)*%
X190775000Y-114225000D03*
%TD*%
D31*
%TO.P,U2,1,VCC*%
%TO.N,+3V3*%
X182650000Y-175150000D03*
%TO.P,U2,2,GND*%
%TO.N,GNDD*%
X184250000Y-175150000D03*
%TO.P,U2,3,VOUT*%
%TO.N,Net-(C4-Pad2)*%
X185850000Y-175150000D03*
D32*
%TO.P,U2,4,NC*%
%TO.N,unconnected-(U2-Pad4)*%
X187050000Y-172650000D03*
D33*
%TO.P,U2,5,IP+*%
%TO.N,Net-(Q13-Pad3)*%
X185750000Y-170300000D03*
%TO.P,U2,6,IP-*%
%TO.N,BATT_1_PWR*%
X182750000Y-170300000D03*
D32*
%TO.P,U2,7,NC*%
%TO.N,unconnected-(U2-Pad7)*%
X181450000Y-172650000D03*
%TD*%
D34*
%TO.P,R7,1*%
%TO.N,/batt_ctl/BATT_1_CURR*%
X180500000Y-177750000D03*
%TO.P,R7,2*%
%TO.N,Net-(C4-Pad2)*%
X182200000Y-177750000D03*
%TD*%
D13*
%TO.P,D9,1,K*%
%TO.N,GND*%
X205450000Y-115973750D03*
%TO.P,D9,2,A*%
%TO.N,Net-(D9-Pad2)*%
X207150000Y-115973750D03*
%TD*%
D18*
%TO.P,R12,1*%
%TO.N,Net-(Q2-Pad3)*%
X194825000Y-172200000D03*
%TO.P,R12,2*%
%TO.N,Net-(R11-Pad1)*%
X193125000Y-172200000D03*
%TD*%
D15*
%TO.P,C28,1*%
%TO.N,+12V*%
X248740000Y-119965000D03*
%TO.P,C28,2*%
%TO.N,GND*%
X248740000Y-121665000D03*
%TD*%
D25*
%TO.P,U7,1,ADJ*%
%TO.N,GND*%
X211335000Y-133675000D03*
D26*
%TO.P,U7,2,VOUT*%
%TO.N,5V_3*%
X216650000Y-126950000D03*
D27*
X213875000Y-124525000D03*
D26*
X216650000Y-122100000D03*
D25*
X213875000Y-133675000D03*
D26*
X211100000Y-122100000D03*
X211100000Y-126950000D03*
D25*
%TO.P,U7,3,VIN*%
%TO.N,+BATT*%
X216415000Y-133675000D03*
%TD*%
D14*
%TO.P,R19,1*%
%TO.N,BATT_2_PWR*%
X172000000Y-143950000D03*
%TO.P,R19,2*%
%TO.N,/batt_ctl/BATT_2_VSENSE*%
X172000000Y-145650000D03*
%TD*%
D15*
%TO.P,C2,1*%
%TO.N,Net-(C2-Pad1)*%
X164775000Y-152625000D03*
%TO.P,C2,2*%
%TO.N,GNDD*%
X164775000Y-154325000D03*
%TD*%
D20*
%TO.P,P1,1,1*%
%TO.N,Net-(P1-Pad1)*%
X177775000Y-130600000D03*
%TD*%
D13*
%TO.P,C33,1*%
%TO.N,GNDD*%
X180625000Y-157025000D03*
%TO.P,C33,2*%
%TO.N,Net-(C33-Pad2)*%
X182325000Y-157025000D03*
%TD*%
%TO.P,C34,1*%
%TO.N,Net-(C34-Pad1)*%
X176750000Y-150100000D03*
%TO.P,C34,2*%
%TO.N,GNDD*%
X175050000Y-150100000D03*
%TD*%
D16*
%TO.P,R68,1*%
%TO.N,Net-(D14-Pad2)*%
X245285000Y-164320000D03*
%TO.P,R68,2*%
%TO.N,+12V*%
X247285000Y-164320000D03*
%TD*%
D28*
%TO.P,Q14,1,S*%
%TO.N,+BATT*%
X198975000Y-167200000D03*
X197675000Y-167200000D03*
X198325000Y-167200000D03*
%TO.P,Q14,2,G*%
%TO.N,Net-(Q14-Pad2)*%
X199625000Y-167200000D03*
D29*
%TO.P,Q14,3,D*%
%TO.N,Net-(Q13-Pad3)*%
X198650000Y-165765000D03*
%TD*%
D13*
%TO.P,D14,1,K*%
%TO.N,GND*%
X242266000Y-164298000D03*
%TO.P,D14,2,A*%
%TO.N,Net-(D14-Pad2)*%
X243966000Y-164298000D03*
%TD*%
D14*
%TO.P,R63,1*%
%TO.N,Net-(Q14-Pad2)*%
X199700000Y-168400000D03*
%TO.P,R63,2*%
%TO.N,Net-(Q2-Pad3)*%
X199700000Y-170100000D03*
%TD*%
D35*
%TO.P,Q7,1,B*%
%TO.N,Net-(Q7-Pad1)*%
X193050000Y-119875000D03*
%TO.P,Q7,2,E*%
%TO.N,GNDD*%
X194950000Y-119875000D03*
%TO.P,Q7,3,C*%
%TO.N,Net-(Q7-Pad3)*%
X194000000Y-117875000D03*
%TD*%
D11*
%TO.P,U23,1,-*%
%TO.N,GND*%
X242725000Y-174150000D03*
D12*
%TO.P,U23,2,+*%
%TO.N,+12V*%
X242725000Y-169150000D03*
%TD*%
D36*
%TO.P,R57,1*%
%TO.N,Net-(Q12-Pad2)*%
X192750000Y-103075000D03*
%TO.P,R57,2*%
%TO.N,Net-(Q7-Pad3)*%
X192750000Y-101375000D03*
%TD*%
D18*
%TO.P,R60,1*%
%TO.N,5V_3*%
X226900000Y-117360000D03*
%TO.P,R60,2*%
%TO.N,Net-(D11-Pad2)*%
X225200000Y-117360000D03*
%TD*%
D37*
%TO.P,C5,1*%
%TO.N,+BATT*%
X244725000Y-157550000D03*
%TO.P,C5,2*%
%TO.N,GND*%
X239725000Y-157600000D03*
%TD*%
D38*
%TO.P,C18,1*%
%TO.N,+BATT*%
X204550000Y-137325000D03*
%TO.P,C18,2*%
%TO.N,GND*%
X202550000Y-137325000D03*
%TD*%
D13*
%TO.P,C38,1*%
%TO.N,5V_4*%
X212450000Y-140100000D03*
%TO.P,C38,2*%
%TO.N,GND*%
X214150000Y-140100000D03*
%TD*%
D11*
%TO.P,U18,1,-*%
%TO.N,GND*%
X214200000Y-174150000D03*
D12*
%TO.P,U18,2,+*%
%TO.N,3-3V_2*%
X214200000Y-169150000D03*
%TD*%
D18*
%TO.P,R4,1*%
%TO.N,+3V3*%
X173400000Y-150450000D03*
%TO.P,R4,2*%
%TO.N,/~{RESET_RAW}*%
X171700000Y-150450000D03*
%TD*%
D36*
%TO.P,R20,1*%
%TO.N,/batt_ctl/BATT_2_VSENSE*%
X170600000Y-145650000D03*
%TO.P,R20,2*%
%TO.N,GNDD*%
X170600000Y-143950000D03*
%TD*%
D39*
%TO.P,U1,1,Vref*%
%TO.N,+3V3*%
X175990000Y-133910039D03*
%TO.P,U1,2,SWDIO/TMS*%
%TO.N,/SWDIO*%
X175990000Y-138210039D03*
%TO.P,U1,3,GND*%
%TO.N,GNDD*%
X174720000Y-133910039D03*
%TO.P,U1,4,SWDCLK/TCK*%
%TO.N,/SWCLK*%
X174720000Y-138210039D03*
%TO.P,U1,5,GND*%
%TO.N,GNDD*%
X173450000Y-133910039D03*
%TO.P,U1,6,SWO/TDO*%
%TO.N,unconnected-(U1-Pad6)*%
X173450000Y-138210039D03*
%TO.P,U1,7,KEY*%
%TO.N,unconnected-(U1-Pad7)*%
X172180000Y-133910039D03*
%TO.P,U1,8,NC/TDI*%
%TO.N,unconnected-(U1-Pad8)*%
X172180000Y-138210039D03*
%TO.P,U1,9,GNDDetect*%
%TO.N,Net-(P1-Pad1)*%
X170910000Y-133910039D03*
%TO.P,U1,10,~{RESET}*%
%TO.N,/~{RESET_RAW}*%
X170910000Y-138210039D03*
%TD*%
D18*
%TO.P,R32,1*%
%TO.N,3-3V_1*%
X227650000Y-154500000D03*
%TO.P,R32,2*%
%TO.N,Net-(R32-Pad2)*%
X225950000Y-154500000D03*
%TD*%
D14*
%TO.P,R54,1*%
%TO.N,Net-(Q9-Pad2)*%
X194725000Y-112550000D03*
%TO.P,R54,2*%
%TO.N,Net-(Q7-Pad3)*%
X194725000Y-114250000D03*
%TD*%
D16*
%TO.P,R27,1*%
%TO.N,Net-(R27-Pad1)*%
X191425000Y-116475000D03*
%TO.P,R27,2*%
%TO.N,Net-(Q10-Pad3)*%
X189425000Y-116475000D03*
%TD*%
D18*
%TO.P,R15,1*%
%TO.N,+BATT*%
X185800000Y-157000000D03*
%TO.P,R15,2*%
%TO.N,Net-(D5-Pad2)*%
X184100000Y-157000000D03*
%TD*%
%TO.P,R26,1*%
%TO.N,Net-(Q7-Pad1)*%
X191150000Y-119125000D03*
%TO.P,R26,2*%
%TO.N,Net-(R25-Pad2)*%
X189450000Y-119125000D03*
%TD*%
%TO.P,R61,1*%
%TO.N,5V_3*%
X226900000Y-115960000D03*
%TO.P,R61,2*%
%TO.N,Net-(D11-Pad2)*%
X225200000Y-115960000D03*
%TD*%
D25*
%TO.P,U10,1,ADJ*%
%TO.N,GND*%
X239810000Y-133425000D03*
%TO.P,U10,2,VOUT*%
%TO.N,+12V*%
X242350000Y-133425000D03*
D26*
X239575000Y-126700000D03*
X245125000Y-126700000D03*
X239575000Y-121850000D03*
X245125000Y-121850000D03*
D27*
X242350000Y-124275000D03*
D25*
%TO.P,U10,3,VIN*%
%TO.N,+BATT*%
X244890000Y-133425000D03*
%TD*%
D13*
%TO.P,C27,1*%
%TO.N,12V_2*%
X245950000Y-138900000D03*
%TO.P,C27,2*%
%TO.N,GND*%
X247650000Y-138900000D03*
%TD*%
%TO.P,C4,1*%
%TO.N,GNDD*%
X186300000Y-177750000D03*
%TO.P,C4,2*%
%TO.N,Net-(C4-Pad2)*%
X188000000Y-177750000D03*
%TD*%
D18*
%TO.P,R67,1*%
%TO.N,5V_4*%
X236350000Y-115990000D03*
%TO.P,R67,2*%
%TO.N,Net-(D13-Pad2)*%
X234650000Y-115990000D03*
%TD*%
D31*
%TO.P,U3,1,VCC*%
%TO.N,+3V3*%
X182650000Y-119575000D03*
%TO.P,U3,2,GND*%
%TO.N,GNDD*%
X184250000Y-119575000D03*
%TO.P,U3,3,VOUT*%
%TO.N,Net-(C8-Pad2)*%
X185850000Y-119575000D03*
D32*
%TO.P,U3,4,NC*%
%TO.N,unconnected-(U3-Pad4)*%
X187050000Y-117075000D03*
D33*
%TO.P,U3,5,IP+*%
%TO.N,Net-(Q10-Pad3)*%
X185750000Y-114725000D03*
%TO.P,U3,6,IP-*%
%TO.N,BATT_2_PWR*%
X182750000Y-114725000D03*
D32*
%TO.P,U3,7,NC*%
%TO.N,unconnected-(U3-Pad7)*%
X181450000Y-117075000D03*
%TD*%
D14*
%TO.P,R3,1*%
%TO.N,Net-(Q1-Pad1)*%
X168050000Y-152125000D03*
%TO.P,R3,2*%
%TO.N,/RESET*%
X168050000Y-153825000D03*
%TD*%
D18*
%TO.P,R35,1*%
%TO.N,Net-(R34-Pad2)*%
X215575000Y-154600000D03*
%TO.P,R35,2*%
%TO.N,GND*%
X213875000Y-154600000D03*
%TD*%
%TO.P,R31,1*%
%TO.N,+BATT*%
X211175000Y-156450000D03*
%TO.P,R31,2*%
%TO.N,Net-(R31-Pad2)*%
X209475000Y-156450000D03*
%TD*%
D40*
%TO.P,SW1,1,1*%
%TO.N,/~{RESET_RAW}*%
X174325000Y-148425000D03*
D41*
X173700000Y-146375000D03*
D40*
%TO.P,SW1,2,2*%
%TO.N,unconnected-(SW1-Pad2)*%
X175925000Y-148425000D03*
%TO.P,SW1,3,3*%
%TO.N,GNDD*%
X174325000Y-144325000D03*
%TO.P,SW1,4,4*%
%TO.N,unconnected-(SW1-Pad4)*%
X175925000Y-144325000D03*
%TD*%
D42*
%TO.P,U16,*%
%TO.N,*%
X166890000Y-121460000D03*
X166890000Y-102560000D03*
D43*
%TO.P,U16,1,-*%
%TO.N,GND*%
X176290000Y-117460000D03*
D44*
%TO.P,U16,2,+*%
%TO.N,BATT_2_PWR*%
X176290000Y-106560000D03*
%TD*%
D18*
%TO.P,R46,1*%
%TO.N,5V_2*%
X218200000Y-117410000D03*
%TO.P,R46,2*%
%TO.N,Net-(D10-Pad2)*%
X216500000Y-117410000D03*
%TD*%
%TO.P,R48,1*%
%TO.N,Net-(R48-Pad1)*%
X228075000Y-143275000D03*
%TO.P,R48,2*%
%TO.N,3-3V_1*%
X226375000Y-143275000D03*
%TD*%
D13*
%TO.P,C7,1*%
%TO.N,GNDD*%
X185100000Y-122150000D03*
%TO.P,C7,2*%
%TO.N,+3V3*%
X183400000Y-122150000D03*
%TD*%
D18*
%TO.P,R50,1*%
%TO.N,Net-(Q8-Pad1)*%
X175000000Y-126200000D03*
%TO.P,R50,2*%
%TO.N,/BUZZER*%
X173300000Y-126200000D03*
%TD*%
%TO.P,R37,1*%
%TO.N,Net-(R36-Pad2)*%
X206275000Y-154548250D03*
%TO.P,R37,2*%
%TO.N,GND*%
X204575000Y-154548250D03*
%TD*%
D15*
%TO.P,C26,1*%
%TO.N,12V_3*%
X232640000Y-127115000D03*
%TO.P,C26,2*%
%TO.N,GND*%
X232640000Y-128815000D03*
%TD*%
D10*
%TO.P,U27,1*%
%TO.N,unconnected-(U27-Pad1)*%
X247400000Y-171400000D03*
%TD*%
D14*
%TO.P,R64,1*%
%TO.N,Net-(Q15-Pad2)*%
X198700000Y-112525000D03*
%TO.P,R64,2*%
%TO.N,Net-(Q7-Pad3)*%
X198700000Y-114225000D03*
%TD*%
D19*
%TO.P,C24,1*%
%TO.N,+BATT*%
X230375000Y-147820000D03*
%TO.P,C24,2*%
%TO.N,GND*%
X230375000Y-145820000D03*
%TD*%
D36*
%TO.P,R65,1*%
%TO.N,Net-(Q16-Pad2)*%
X196700000Y-103050000D03*
%TO.P,R65,2*%
%TO.N,Net-(Q7-Pad3)*%
X196700000Y-101350000D03*
%TD*%
%TO.P,R56,1*%
%TO.N,Net-(Q11-Pad2)*%
X188800000Y-103100000D03*
%TO.P,R56,2*%
%TO.N,Net-(Q7-Pad3)*%
X188800000Y-101400000D03*
%TD*%
D45*
%TO.P,TP1,1*%
%TO.N,/~{RESET_RAW}*%
X178225000Y-144175000D03*
%TD*%
D28*
%TO.P,Q15,1,S*%
%TO.N,+BATT*%
X198000000Y-111335000D03*
X197350000Y-111335000D03*
X196700000Y-111335000D03*
%TO.P,Q15,2,G*%
%TO.N,Net-(Q15-Pad2)*%
X198650000Y-111335000D03*
D29*
%TO.P,Q15,3,D*%
%TO.N,Net-(Q10-Pad3)*%
X197675000Y-109900000D03*
%TD*%
D16*
%TO.P,R8,1*%
%TO.N,/batt_ctl/BATT_1_CTL*%
X191350000Y-176600000D03*
%TO.P,R8,2*%
%TO.N,Net-(R10-Pad2)*%
X189350000Y-176600000D03*
%TD*%
D14*
%TO.P,R21,1*%
%TO.N,Net-(Q5-Pad2)*%
X191975000Y-168425000D03*
%TO.P,R21,2*%
%TO.N,Net-(Q2-Pad3)*%
X191975000Y-170125000D03*
%TD*%
D18*
%TO.P,R29,1*%
%TO.N,+BATT*%
X229750000Y-156150000D03*
%TO.P,R29,2*%
%TO.N,Net-(R29-Pad2)*%
X228050000Y-156150000D03*
%TD*%
D46*
%TO.P,IC2,1,PA00*%
%TO.N,unconnected-(IC2-Pad1)*%
X167500000Y-149150000D03*
%TO.P,IC2,2,PA01*%
%TO.N,unconnected-(IC2-Pad2)*%
X167500000Y-148650000D03*
%TO.P,IC2,3,PA02*%
%TO.N,/A0_SENSE*%
X167500000Y-148150000D03*
%TO.P,IC2,4,PA03*%
%TO.N,unconnected-(IC2-Pad4)*%
X167500000Y-147650000D03*
%TO.P,IC2,5,GNDANA*%
%TO.N,GNDD*%
X167500000Y-147150000D03*
%TO.P,IC2,6,VDDANA*%
%TO.N,+3V3*%
X167500000Y-146650000D03*
%TO.P,IC2,7,PB08*%
%TO.N,/batt_ctl/BATT_1_VSENSE*%
X167500000Y-146150000D03*
%TO.P,IC2,8,PB09*%
%TO.N,/batt_ctl/BATT_1_CURR*%
X167500000Y-145650000D03*
%TO.P,IC2,9,PA04*%
%TO.N,/batt_ctl/BATT_2_VSENSE*%
X167500000Y-145150000D03*
%TO.P,IC2,10,PA05*%
%TO.N,/batt_ctl/BATT_2_CURR*%
X167500000Y-144650000D03*
%TO.P,IC2,11,PA06*%
%TO.N,unconnected-(IC2-Pad11)*%
X167500000Y-144150000D03*
%TO.P,IC2,12,PA07*%
%TO.N,unconnected-(IC2-Pad12)*%
X167500000Y-143650000D03*
D47*
%TO.P,IC2,13,PA08*%
%TO.N,unconnected-(IC2-Pad13)*%
X166800000Y-142950000D03*
%TO.P,IC2,14,PA09*%
%TO.N,unconnected-(IC2-Pad14)*%
X166300000Y-142950000D03*
%TO.P,IC2,15,PA10*%
%TO.N,/SERIAL1_TX*%
X165800000Y-142950000D03*
%TO.P,IC2,16,PA11*%
%TO.N,/SERIAL1_RX*%
X165300000Y-142950000D03*
%TO.P,IC2,17,VDDIO_1*%
%TO.N,+3V3*%
X164800000Y-142950000D03*
%TO.P,IC2,18,GND_1*%
%TO.N,GNDD*%
X164300000Y-142950000D03*
%TO.P,IC2,19,PB10*%
%TO.N,/MOSI*%
X163800000Y-142950000D03*
%TO.P,IC2,20,PB11*%
%TO.N,/SCK*%
X163300000Y-142950000D03*
%TO.P,IC2,21,PA12*%
%TO.N,/MISO*%
X162800000Y-142950000D03*
%TO.P,IC2,22,PA13*%
%TO.N,unconnected-(IC2-Pad22)*%
X162300000Y-142950000D03*
%TO.P,IC2,23,PA14*%
%TO.N,/SD_CS*%
X161800000Y-142950000D03*
%TO.P,IC2,24,PA15*%
%TO.N,unconnected-(IC2-Pad24)*%
X161300000Y-142950000D03*
D46*
%TO.P,IC2,25,PA16*%
%TO.N,/BUZZER*%
X160600000Y-143650000D03*
%TO.P,IC2,26,PA17*%
%TO.N,/batt_ctl/BATT_2_CTL*%
X160600000Y-144150000D03*
%TO.P,IC2,27,PA18*%
%TO.N,/batt_ctl/BATT_1_CTL*%
X160600000Y-144650000D03*
%TO.P,IC2,28,PA19*%
%TO.N,unconnected-(IC2-Pad28)*%
X160600000Y-145150000D03*
%TO.P,IC2,29,PA20*%
%TO.N,unconnected-(IC2-Pad29)*%
X160600000Y-145650000D03*
%TO.P,IC2,30,PA21*%
%TO.N,unconnected-(IC2-Pad30)*%
X160600000Y-146150000D03*
%TO.P,IC2,31,PA22*%
%TO.N,/SDA*%
X160600000Y-146650000D03*
%TO.P,IC2,32,PA23*%
%TO.N,/SCL*%
X160600000Y-147150000D03*
%TO.P,IC2,33,PA24*%
%TO.N,/USB_D-*%
X160600000Y-147650000D03*
%TO.P,IC2,34,PA25*%
%TO.N,/USB_D+*%
X160600000Y-148150000D03*
%TO.P,IC2,35,GND_2*%
%TO.N,GNDD*%
X160600000Y-148650000D03*
%TO.P,IC2,36,VDDIO_2*%
%TO.N,+3V3*%
X160600000Y-149150000D03*
D47*
%TO.P,IC2,37,PB22*%
%TO.N,/processor/FLASH_MOSI*%
X161300000Y-149850000D03*
%TO.P,IC2,38,PB23*%
%TO.N,/processor/FLASH_SCK*%
X161800000Y-149850000D03*
%TO.P,IC2,39,PA27*%
%TO.N,/processor/FLASH_CS*%
X162300000Y-149850000D03*
%TO.P,IC2,40,~{RESET}*%
%TO.N,/~{RESET_RAW}*%
X162800000Y-149850000D03*
%TO.P,IC2,41,PA28*%
%TO.N,unconnected-(IC2-Pad41)*%
X163300000Y-149850000D03*
%TO.P,IC2,42,GND_3*%
%TO.N,GNDD*%
X163800000Y-149850000D03*
%TO.P,IC2,43,VDDCORE*%
%TO.N,Net-(C2-Pad1)*%
X164300000Y-149850000D03*
%TO.P,IC2,44,VDDIN*%
%TO.N,+3V3*%
X164800000Y-149850000D03*
%TO.P,IC2,45,PA30*%
%TO.N,/SWCLK*%
X165300000Y-149850000D03*
%TO.P,IC2,46,PA31*%
%TO.N,/SWDIO*%
X165800000Y-149850000D03*
%TO.P,IC2,47,PB02*%
%TO.N,/A5_SENSE*%
X166300000Y-149850000D03*
%TO.P,IC2,48,PB03*%
%TO.N,/processor/FLASH_MISO*%
X166800000Y-149850000D03*
D48*
%TO.P,IC2,49,EP_GND*%
%TO.N,GNDD*%
X164050000Y-146400000D03*
%TD*%
D36*
%TO.P,R14,1*%
%TO.N,Net-(Q4-Pad2)*%
X189725000Y-158925000D03*
%TO.P,R14,2*%
%TO.N,Net-(Q2-Pad3)*%
X189725000Y-157225000D03*
%TD*%
D49*
%TO.P,U11,1,ADJ*%
%TO.N,GND*%
X234120000Y-142770000D03*
D50*
%TO.P,U11,2,VOUT*%
%TO.N,12V_2*%
X240845000Y-148085000D03*
X240845000Y-142535000D03*
X245695000Y-142535000D03*
D51*
X243270000Y-145310000D03*
D50*
X245695000Y-148085000D03*
D49*
X234120000Y-145310000D03*
%TO.P,U11,3,VIN*%
%TO.N,+BATT*%
X234120000Y-147850000D03*
%TD*%
D35*
%TO.P,Q2,1,B*%
%TO.N,Net-(Q2-Pad1)*%
X192950000Y-175650000D03*
%TO.P,Q2,2,E*%
%TO.N,GNDD*%
X194850000Y-175650000D03*
%TO.P,Q2,3,C*%
%TO.N,Net-(Q2-Pad3)*%
X193900000Y-173650000D03*
%TD*%
D28*
%TO.P,Q12,1,S*%
%TO.N,+BATT*%
X193375000Y-104277500D03*
X194025000Y-104277500D03*
X194675000Y-104277500D03*
%TO.P,Q12,2,G*%
%TO.N,Net-(Q12-Pad2)*%
X192725000Y-104277500D03*
D30*
%TO.P,Q12,3,D*%
%TO.N,Net-(Q10-Pad3)*%
X193700000Y-105712500D03*
%TD*%
D52*
%TO.P,U13,1,SDA*%
%TO.N,/SDA*%
X227190800Y-146050001D03*
%TO.P,U13,2,SCL*%
%TO.N,/SCL*%
X227190800Y-145550000D03*
%TO.P,U13,3,OS*%
%TO.N,Net-(R48-Pad1)*%
X227190800Y-145050000D03*
%TO.P,U13,4,GND*%
%TO.N,GND*%
X227190800Y-144549999D03*
%TO.P,U13,5,A2*%
%TO.N,unconnected-(U13-Pad5)*%
X224249200Y-144549999D03*
%TO.P,U13,6,A1*%
%TO.N,unconnected-(U13-Pad6)*%
X224249200Y-145050000D03*
%TO.P,U13,7,A0*%
%TO.N,unconnected-(U13-Pad7)*%
X224249200Y-145550000D03*
%TO.P,U13,8,VCC*%
%TO.N,3-3V_1*%
X224249200Y-146050001D03*
D53*
%TO.P,U13,9,EP_GND*%
%TO.N,GND*%
X225720000Y-145300000D03*
%TD*%
D38*
%TO.P,C17,1*%
%TO.N,+BATT*%
X216375000Y-137250000D03*
%TO.P,C17,2*%
%TO.N,GND*%
X214375000Y-137250000D03*
%TD*%
D15*
%TO.P,C1,1*%
%TO.N,+3V3*%
X166425000Y-152625000D03*
%TO.P,C1,2*%
%TO.N,GNDD*%
X166425000Y-154325000D03*
%TD*%
D54*
%TO.P,IC1,1,~{CS}*%
%TO.N,/processor/FLASH_CS*%
X162800000Y-155880000D03*
%TO.P,IC1,2,SO_(IO1)*%
%TO.N,/processor/FLASH_MISO*%
X162800000Y-154610000D03*
%TO.P,IC1,3,~{WP_(IO2)}*%
%TO.N,+3V3*%
X162800000Y-153340000D03*
%TO.P,IC1,4,VSS*%
%TO.N,GNDD*%
X162800000Y-152070000D03*
%TO.P,IC1,5,SI_(IO0)*%
%TO.N,/processor/FLASH_MOSI*%
X157850000Y-152070000D03*
%TO.P,IC1,6,SCLK*%
%TO.N,/processor/FLASH_SCK*%
X157850000Y-153340000D03*
%TO.P,IC1,7,~{HOLD_(IO3)}*%
%TO.N,+3V3*%
X157850000Y-154610000D03*
%TO.P,IC1,8,VCC*%
X157850000Y-155880000D03*
%TD*%
D14*
%TO.P,R43,1*%
%TO.N,3-3V_2*%
X219380000Y-162385000D03*
%TO.P,R43,2*%
%TO.N,Net-(D8-Pad2)*%
X219380000Y-164085000D03*
%TD*%
D13*
%TO.P,C15,1*%
%TO.N,3-3V_2*%
X213525000Y-160200000D03*
%TO.P,C15,2*%
%TO.N,GND*%
X215225000Y-160200000D03*
%TD*%
D23*
%TO.P,C13,1*%
%TO.N,+BATT*%
X209775000Y-157800000D03*
%TO.P,C13,2*%
%TO.N,GND*%
X209775000Y-159800000D03*
%TD*%
D13*
%TO.P,D13,1,K*%
%TO.N,GND*%
X231690000Y-116000000D03*
%TO.P,D13,2,A*%
%TO.N,Net-(D13-Pad2)*%
X233390000Y-116000000D03*
%TD*%
D14*
%TO.P,R42,1*%
%TO.N,3-3V_2*%
X217980000Y-162385000D03*
%TO.P,R42,2*%
%TO.N,Net-(D8-Pad2)*%
X217980000Y-164085000D03*
%TD*%
D18*
%TO.P,R23,1*%
%TO.N,GNDD*%
X194700000Y-121675000D03*
%TO.P,R23,2*%
%TO.N,/batt_ctl/BATT_2_CTL*%
X193000000Y-121675000D03*
%TD*%
D36*
%TO.P,R13,1*%
%TO.N,Net-(Q3-Pad2)*%
X193700000Y-158950000D03*
%TO.P,R13,2*%
%TO.N,Net-(Q2-Pad3)*%
X193700000Y-157250000D03*
%TD*%
D15*
%TO.P,C35,1*%
%TO.N,+3V3*%
X177475000Y-148000000D03*
%TO.P,C35,2*%
%TO.N,GNDD*%
X177475000Y-146300000D03*
%TD*%
D18*
%TO.P,R47,1*%
%TO.N,5V_2*%
X218200000Y-116010000D03*
%TO.P,R47,2*%
%TO.N,Net-(D10-Pad2)*%
X216500000Y-116010000D03*
%TD*%
D28*
%TO.P,Q3,1,S*%
%TO.N,+BATT*%
X194350000Y-160152500D03*
X195000000Y-160152500D03*
X195650000Y-160152500D03*
%TO.P,Q3,2,G*%
%TO.N,Net-(Q3-Pad2)*%
X193700000Y-160152500D03*
D30*
%TO.P,Q3,3,D*%
%TO.N,Net-(Q13-Pad3)*%
X194675000Y-161587500D03*
%TD*%
D55*
%TO.P,U4,1,FB*%
%TO.N,Net-(R32-Pad2)*%
X225900000Y-155900000D03*
D56*
%TO.P,U4,2,VCC*%
%TO.N,unconnected-(U4-Pad2)*%
X225250000Y-156050000D03*
%TO.P,U4,3,AGND*%
%TO.N,GND*%
X224600000Y-156050000D03*
D57*
%TO.P,U4,4,SW*%
%TO.N,unconnected-(U4-Pad4)*%
X223100000Y-156300000D03*
D58*
X223950000Y-155850000D03*
X222250000Y-155850000D03*
X223100000Y-155850000D03*
D57*
%TO.P,U4,9,OUT*%
%TO.N,3-3V_1*%
X223100000Y-158300000D03*
D58*
X223100000Y-158750000D03*
X222250000Y-158750000D03*
X223950000Y-158750000D03*
D56*
%TO.P,U4,10,NC*%
%TO.N,unconnected-(U4-Pad10)*%
X224600000Y-158550000D03*
%TO.P,U4,11,BST*%
%TO.N,unconnected-(U4-Pad11)*%
X225250000Y-158550000D03*
D58*
%TO.P,U4,12,PGND*%
%TO.N,unconnected-(U4-Pad12)*%
X225900000Y-158750000D03*
D59*
%TO.P,U4,13,PGND*%
%TO.N,unconnected-(U4-Pad13)*%
X226800000Y-158550000D03*
%TO.P,U4,14,PGND*%
%TO.N,GND*%
X226800000Y-158050000D03*
D60*
%TO.P,U4,15,NC*%
%TO.N,unconnected-(U4-Pad15)*%
X226600000Y-157550000D03*
%TO.P,U4,16,IN*%
%TO.N,+BATT*%
X226600000Y-157050000D03*
D59*
%TO.P,U4,17,EN*%
%TO.N,Net-(R29-Pad2)*%
X226800000Y-156550000D03*
%TO.P,U4,18,PG*%
%TO.N,unconnected-(U4-Pad18)*%
X226800000Y-156050000D03*
%TD*%
D15*
%TO.P,C21,1*%
%TO.N,+5V*%
X195560000Y-126275000D03*
%TO.P,C21,2*%
%TO.N,GND*%
X195560000Y-124575000D03*
%TD*%
D11*
%TO.P,U24,1,-*%
%TO.N,GND*%
X241280000Y-106170000D03*
D12*
%TO.P,U24,2,+*%
%TO.N,12V_2*%
X241280000Y-111170000D03*
%TD*%
D13*
%TO.P,D10,1,K*%
%TO.N,GND*%
X213250000Y-116010000D03*
%TO.P,D10,2,A*%
%TO.N,Net-(D10-Pad2)*%
X214950000Y-116010000D03*
%TD*%
D24*
%TO.P,Q8,1,B*%
%TO.N,Net-(Q8-Pad1)*%
X176350000Y-126250000D03*
%TO.P,Q8,2,E*%
%TO.N,GNDD*%
X176350000Y-128150000D03*
%TO.P,Q8,3,C*%
%TO.N,Net-(Q8-Pad3)*%
X178350000Y-127200000D03*
%TD*%
D18*
%TO.P,R36,1*%
%TO.N,3-3V_3*%
X209175000Y-154548250D03*
%TO.P,R36,2*%
%TO.N,Net-(R36-Pad2)*%
X207475000Y-154548250D03*
%TD*%
D36*
%TO.P,R62,1*%
%TO.N,Net-(Q13-Pad2)*%
X197700000Y-158975000D03*
%TO.P,R62,2*%
%TO.N,Net-(Q2-Pad3)*%
X197700000Y-157275000D03*
%TD*%
D13*
%TO.P,D6,1,K*%
%TO.N,GND*%
X204985000Y-164225000D03*
%TO.P,D6,2,A*%
%TO.N,Net-(D6-Pad2)*%
X206685000Y-164225000D03*
%TD*%
D11*
%TO.P,U25,1,-*%
%TO.N,GND*%
X233725000Y-174150000D03*
D12*
%TO.P,U25,2,+*%
%TO.N,12V_3*%
X233725000Y-169150000D03*
%TD*%
D17*
%TO.P,D1,1,K*%
%TO.N,Net-(C33-Pad2)*%
X176500000Y-152550000D03*
%TO.P,D1,2,A*%
%TO.N,VUSB*%
X173700000Y-152550000D03*
%TD*%
D16*
%TO.P,R11,1*%
%TO.N,Net-(R11-Pad1)*%
X191525000Y-172000000D03*
%TO.P,R11,2*%
%TO.N,Net-(Q13-Pad3)*%
X189525000Y-172000000D03*
%TD*%
D13*
%TO.P,D3,1,K*%
%TO.N,GND*%
X185150000Y-160800000D03*
%TO.P,D3,2,A*%
%TO.N,Net-(D3-Pad2)*%
X183450000Y-160800000D03*
%TD*%
%TO.P,C16,1*%
%TO.N,3-3V_3*%
X205030000Y-160230000D03*
%TO.P,C16,2*%
%TO.N,GND*%
X206730000Y-160230000D03*
%TD*%
D18*
%TO.P,R2,1*%
%TO.N,GNDD*%
X169575000Y-155875000D03*
%TO.P,R2,2*%
%TO.N,/RESET*%
X167875000Y-155875000D03*
%TD*%
D14*
%TO.P,R40,1*%
%TO.N,3-3V_1*%
X226750000Y-162535000D03*
%TO.P,R40,2*%
%TO.N,Net-(D7-Pad2)*%
X226750000Y-164235000D03*
%TD*%
D55*
%TO.P,U6,1,FB*%
%TO.N,Net-(R36-Pad2)*%
X207325000Y-156050000D03*
D56*
%TO.P,U6,2,VCC*%
%TO.N,unconnected-(U6-Pad2)*%
X206675000Y-156200000D03*
%TO.P,U6,3,AGND*%
%TO.N,GND*%
X206025000Y-156200000D03*
D58*
%TO.P,U6,4,SW*%
%TO.N,unconnected-(U6-Pad4)*%
X204525000Y-156000000D03*
X203675000Y-156000000D03*
D57*
X204525000Y-156450000D03*
D58*
X205375000Y-156000000D03*
%TO.P,U6,9,OUT*%
%TO.N,3-3V_3*%
X204525000Y-158900000D03*
X205375000Y-158900000D03*
X203675000Y-158900000D03*
D57*
X204525000Y-158450000D03*
D56*
%TO.P,U6,10,NC*%
%TO.N,unconnected-(U6-Pad10)*%
X206025000Y-158700000D03*
%TO.P,U6,11,BST*%
%TO.N,unconnected-(U6-Pad11)*%
X206675000Y-158700000D03*
D58*
%TO.P,U6,12,PGND*%
%TO.N,unconnected-(U6-Pad12)*%
X207325000Y-158900000D03*
D59*
%TO.P,U6,13,PGND*%
%TO.N,unconnected-(U6-Pad13)*%
X208225000Y-158700000D03*
%TO.P,U6,14,PGND*%
%TO.N,GND*%
X208225000Y-158200000D03*
D60*
%TO.P,U6,15,NC*%
%TO.N,unconnected-(U6-Pad15)*%
X208025000Y-157700000D03*
%TO.P,U6,16,IN*%
%TO.N,+BATT*%
X208025000Y-157200000D03*
D59*
%TO.P,U6,17,EN*%
%TO.N,Net-(R31-Pad2)*%
X208225000Y-156700000D03*
%TO.P,U6,18,PG*%
%TO.N,unconnected-(U6-Pad18)*%
X208225000Y-156200000D03*
%TD*%
D15*
%TO.P,C36,1*%
%TO.N,+3V3*%
X178975000Y-148000000D03*
%TO.P,C36,2*%
%TO.N,GNDD*%
X178975000Y-146300000D03*
%TD*%
D36*
%TO.P,R17,1*%
%TO.N,BATT_1_PWR*%
X172275000Y-148600000D03*
%TO.P,R17,2*%
%TO.N,/batt_ctl/BATT_1_VSENSE*%
X172275000Y-146900000D03*
%TD*%
D61*
%TO.P,R52,1*%
%TO.N,+5V*%
X180000000Y-126375000D03*
%TO.P,R52,2*%
%TO.N,Net-(Q8-Pad3)*%
X180000000Y-124375000D03*
%TD*%
D16*
%TO.P,R70,1*%
%TO.N,Net-(D16-Pad2)*%
X235600000Y-164425000D03*
%TO.P,R70,2*%
%TO.N,12V_3*%
X237600000Y-164425000D03*
%TD*%
D62*
%TO.P,J7,*%
%TO.N,*%
X153200000Y-123735000D03*
D63*
X165475000Y-126340000D03*
D64*
X153344600Y-138525000D03*
D62*
X164680000Y-138425000D03*
D63*
X165475000Y-134120000D03*
D65*
%TO.P,J7,1*%
%TO.N,N/C*%
X152724600Y-134180000D03*
%TO.P,J7,2,CS*%
%TO.N,/SD_CS*%
X152724600Y-133080000D03*
%TO.P,J7,3,DIN*%
%TO.N,/MOSI*%
X152724600Y-131980000D03*
%TO.P,J7,4,VDD*%
%TO.N,+3V3*%
X152724600Y-130880000D03*
%TO.P,J7,5,SCLK*%
%TO.N,/SCK*%
X152724600Y-129780000D03*
%TO.P,J7,6,GND*%
%TO.N,GNDD*%
X152724600Y-128680000D03*
%TO.P,J7,7,DOUT*%
%TO.N,/MISO*%
X152724600Y-127580000D03*
%TO.P,J7,8*%
%TO.N,N/C*%
X152724600Y-126460000D03*
D66*
%TO.P,J7,9,Switch_N.O.*%
%TO.N,unconnected-(J7-Pad9)*%
X155450000Y-124585000D03*
D67*
%TO.P,J7,10,Switch_N.O.*%
%TO.N,unconnected-(J7-Pad10)*%
X164350000Y-124560000D03*
%TD*%
D13*
%TO.P,D7,1,K*%
%TO.N,GND*%
X222785000Y-164235000D03*
%TO.P,D7,2,A*%
%TO.N,Net-(D7-Pad2)*%
X224485000Y-164235000D03*
%TD*%
D52*
%TO.P,U14,1,SDA*%
%TO.N,/SDA*%
X156529200Y-139999999D03*
%TO.P,U14,2,SCL*%
%TO.N,/SCL*%
X156529200Y-140500000D03*
%TO.P,U14,3,OS*%
%TO.N,Net-(R53-Pad1)*%
X156529200Y-141000000D03*
%TO.P,U14,4,GND*%
%TO.N,GNDD*%
X156529200Y-141500001D03*
%TO.P,U14,5,A2*%
X159470800Y-141500001D03*
%TO.P,U14,6,A1*%
X159470800Y-141000000D03*
%TO.P,U14,7,A0*%
X159470800Y-140500000D03*
%TO.P,U14,8,VCC*%
%TO.N,+3V3*%
X159470800Y-139999999D03*
D53*
%TO.P,U14,9,EP_GND*%
%TO.N,GNDD*%
X158000000Y-140750000D03*
%TD*%
D28*
%TO.P,Q4,1,S*%
%TO.N,+BATT*%
X191700000Y-160152500D03*
X191050000Y-160152500D03*
X190400000Y-160152500D03*
%TO.P,Q4,2,G*%
%TO.N,Net-(Q4-Pad2)*%
X189750000Y-160152500D03*
D30*
%TO.P,Q4,3,D*%
%TO.N,Net-(Q13-Pad3)*%
X190725000Y-161587500D03*
%TD*%
D13*
%TO.P,D11,1,K*%
%TO.N,GND*%
X222250000Y-115960000D03*
%TO.P,D11,2,A*%
%TO.N,Net-(D11-Pad2)*%
X223950000Y-115960000D03*
%TD*%
D28*
%TO.P,Q6,1,S*%
%TO.N,+BATT*%
X194350000Y-167187500D03*
X195000000Y-167187500D03*
X193700000Y-167187500D03*
%TO.P,Q6,2,G*%
%TO.N,Net-(Q6-Pad2)*%
X195650000Y-167187500D03*
D29*
%TO.P,Q6,3,D*%
%TO.N,Net-(Q13-Pad3)*%
X194675000Y-165752500D03*
%TD*%
D15*
%TO.P,C30,1*%
%TO.N,GNDD*%
X160900000Y-141600000D03*
%TO.P,C30,2*%
%TO.N,+3V3*%
X160900000Y-139900000D03*
%TD*%
D14*
%TO.P,R22,1*%
%TO.N,Net-(Q6-Pad2)*%
X195950000Y-168425000D03*
%TO.P,R22,2*%
%TO.N,Net-(Q2-Pad3)*%
X195950000Y-170125000D03*
%TD*%
D38*
%TO.P,C23,1*%
%TO.N,+BATT*%
X241850000Y-136950000D03*
%TO.P,C23,2*%
%TO.N,GND*%
X239850000Y-136950000D03*
%TD*%
D34*
%TO.P,R24,1*%
%TO.N,/batt_ctl/BATT_2_CURR*%
X180500000Y-122162500D03*
%TO.P,R24,2*%
%TO.N,Net-(C8-Pad2)*%
X182200000Y-122162500D03*
%TD*%
D36*
%TO.P,R53,1*%
%TO.N,Net-(R53-Pad1)*%
X154700000Y-141700000D03*
%TO.P,R53,2*%
%TO.N,+3V3*%
X154700000Y-140000000D03*
%TD*%
D13*
%TO.P,D5,1,K*%
%TO.N,GND*%
X185800000Y-155550000D03*
%TO.P,D5,2,A*%
%TO.N,Net-(D5-Pad2)*%
X184100000Y-155550000D03*
%TD*%
D18*
%TO.P,R30,1*%
%TO.N,+BATT*%
X220575000Y-156400000D03*
%TO.P,R30,2*%
%TO.N,Net-(R30-Pad2)*%
X218875000Y-156400000D03*
%TD*%
D42*
%TO.P,U15,*%
%TO.N,*%
X166950000Y-177400000D03*
X166950000Y-158500000D03*
D43*
%TO.P,U15,1,-*%
%TO.N,GND*%
X176350000Y-173400000D03*
D44*
%TO.P,U15,2,+*%
%TO.N,BATT_1_PWR*%
X176350000Y-162500000D03*
%TD*%
D18*
%TO.P,R49,1*%
%TO.N,GNDD*%
X175000000Y-128200000D03*
%TO.P,R49,2*%
%TO.N,/BUZZER*%
X173300000Y-128200000D03*
%TD*%
D13*
%TO.P,C8,1*%
%TO.N,GNDD*%
X186300000Y-122150000D03*
%TO.P,C8,2*%
%TO.N,Net-(C8-Pad2)*%
X188000000Y-122150000D03*
%TD*%
%TO.P,C3,1*%
%TO.N,GNDD*%
X185100000Y-177750000D03*
%TO.P,C3,2*%
%TO.N,+3V3*%
X183400000Y-177750000D03*
%TD*%
D23*
%TO.P,C12,1*%
%TO.N,+BATT*%
X219175000Y-157750000D03*
%TO.P,C12,2*%
%TO.N,GND*%
X219175000Y-159750000D03*
%TD*%
D18*
%TO.P,R34,1*%
%TO.N,3-3V_2*%
X218475000Y-154598250D03*
%TO.P,R34,2*%
%TO.N,Net-(R34-Pad2)*%
X216775000Y-154598250D03*
%TD*%
D13*
%TO.P,D4,1,K*%
%TO.N,GND*%
X185050000Y-104810000D03*
%TO.P,D4,2,A*%
%TO.N,Net-(D4-Pad2)*%
X183350000Y-104810000D03*
%TD*%
D11*
%TO.P,U19,1,-*%
%TO.N,GND*%
X205200000Y-174150000D03*
D12*
%TO.P,U19,2,+*%
%TO.N,3-3V_3*%
X205200000Y-169150000D03*
%TD*%
D49*
%TO.P,U36,1,ADJ*%
%TO.N,GND*%
X207205000Y-143970000D03*
D50*
%TO.P,U36,2,VOUT*%
%TO.N,5V_4*%
X218780000Y-149285000D03*
X213930000Y-143735000D03*
X218780000Y-143735000D03*
X213930000Y-149285000D03*
D49*
X207205000Y-146510000D03*
D51*
X216355000Y-146510000D03*
D49*
%TO.P,U36,3,VIN*%
%TO.N,+BATT*%
X207205000Y-149050000D03*
%TD*%
D11*
%TO.P,U21,1,-*%
%TO.N,GND*%
X214200000Y-106150000D03*
D12*
%TO.P,U21,2,+*%
%TO.N,5V_2*%
X214200000Y-111150000D03*
%TD*%
D68*
%TO.P,SP1,1,+*%
%TO.N,Net-(Q8-Pad3)*%
X188200000Y-127600000D03*
D69*
%TO.P,SP1,2,-*%
%TO.N,GNDD*%
X188200000Y-135200000D03*
%TD*%
D18*
%TO.P,R33,1*%
%TO.N,Net-(R32-Pad2)*%
X224700000Y-154500000D03*
%TO.P,R33,2*%
%TO.N,GND*%
X223000000Y-154500000D03*
%TD*%
%TO.P,R38,1*%
%TO.N,3-3V_1*%
X225450000Y-162635000D03*
%TO.P,R38,2*%
%TO.N,Net-(D7-Pad2)*%
X223750000Y-162635000D03*
%TD*%
D70*
%TO.P,J2,*%
%TO.N,*%
X152500000Y-144400000D03*
D71*
X152500000Y-147000000D03*
D72*
X155000000Y-151300000D03*
X155050000Y-145100000D03*
D71*
X152500000Y-149400000D03*
D70*
X152500000Y-152000000D03*
D73*
%TO.P,J2,1,VBUS*%
%TO.N,VUSB*%
X155200000Y-146900000D03*
%TO.P,J2,2,D-*%
%TO.N,/USB_D-*%
X155200000Y-147550000D03*
%TO.P,J2,3,D+*%
%TO.N,/USB_D+*%
X155200000Y-148200000D03*
%TO.P,J2,4,GND*%
%TO.N,GNDD*%
X155200000Y-148850000D03*
%TO.P,J2,5,Shield*%
X155200000Y-149500000D03*
%TD*%
D74*
%TO.P,U34,1,EN*%
%TO.N,Net-(C33-Pad2)*%
X182105000Y-149975000D03*
%TO.P,U34,2,VIN*%
X180835000Y-149975000D03*
%TO.P,U34,3,VOUT*%
%TO.N,+3V3*%
X179565000Y-149975000D03*
%TO.P,U34,4,BYP*%
%TO.N,Net-(C34-Pad1)*%
X178295000Y-149975000D03*
%TO.P,U34,5,GND*%
%TO.N,GNDD*%
X178295000Y-154925000D03*
%TO.P,U34,6,GND*%
X179565000Y-154925000D03*
%TO.P,U34,7,GND*%
X180835000Y-154925000D03*
%TO.P,U34,8,GND*%
X182105000Y-154925000D03*
%TD*%
D18*
%TO.P,R41,1*%
%TO.N,3-3V_2*%
X216705000Y-162485000D03*
%TO.P,R41,2*%
%TO.N,Net-(D8-Pad2)*%
X215005000Y-162485000D03*
%TD*%
D55*
%TO.P,U5,1,FB*%
%TO.N,Net-(R34-Pad2)*%
X216725000Y-155998250D03*
D56*
%TO.P,U5,2,VCC*%
%TO.N,unconnected-(U5-Pad2)*%
X216075000Y-156148250D03*
%TO.P,U5,3,AGND*%
%TO.N,GND*%
X215425000Y-156148250D03*
D58*
%TO.P,U5,4,SW*%
%TO.N,unconnected-(U5-Pad4)*%
X213075000Y-155948250D03*
X213925000Y-155948250D03*
X214775000Y-155948250D03*
D57*
X213925000Y-156398250D03*
D58*
%TO.P,U5,9,OUT*%
%TO.N,3-3V_2*%
X213925000Y-158848250D03*
X214775000Y-158848250D03*
D57*
X213925000Y-158398250D03*
D58*
X213075000Y-158848250D03*
D56*
%TO.P,U5,10,NC*%
%TO.N,unconnected-(U5-Pad10)*%
X215425000Y-158648250D03*
%TO.P,U5,11,BST*%
%TO.N,unconnected-(U5-Pad11)*%
X216075000Y-158648250D03*
D58*
%TO.P,U5,12,PGND*%
%TO.N,unconnected-(U5-Pad12)*%
X216725000Y-158848250D03*
D59*
%TO.P,U5,13,PGND*%
%TO.N,unconnected-(U5-Pad13)*%
X217625000Y-158648250D03*
%TO.P,U5,14,PGND*%
%TO.N,GND*%
X217625000Y-158148250D03*
D60*
%TO.P,U5,15,NC*%
%TO.N,unconnected-(U5-Pad15)*%
X217425000Y-157648250D03*
%TO.P,U5,16,IN*%
%TO.N,+BATT*%
X217425000Y-157148250D03*
D59*
%TO.P,U5,17,EN*%
%TO.N,Net-(R30-Pad2)*%
X217625000Y-156648250D03*
%TO.P,U5,18,PG*%
%TO.N,unconnected-(U5-Pad18)*%
X217625000Y-156148250D03*
%TD*%
D13*
%TO.P,D8,1,K*%
%TO.N,GND*%
X213835000Y-164235000D03*
%TO.P,D8,2,A*%
%TO.N,Net-(D8-Pad2)*%
X215535000Y-164235000D03*
%TD*%
D18*
%TO.P,R6,1*%
%TO.N,GNDD*%
X194800000Y-177100000D03*
%TO.P,R6,2*%
%TO.N,/batt_ctl/BATT_1_CTL*%
X193100000Y-177100000D03*
%TD*%
D28*
%TO.P,Q16,1,S*%
%TO.N,+BATT*%
X198650000Y-104277500D03*
X198000000Y-104277500D03*
X197350000Y-104277500D03*
%TO.P,Q16,2,G*%
%TO.N,Net-(Q16-Pad2)*%
X196700000Y-104277500D03*
D30*
%TO.P,Q16,3,D*%
%TO.N,Net-(Q10-Pad3)*%
X197675000Y-105712500D03*
%TD*%
D28*
%TO.P,Q9,1,S*%
%TO.N,+BATT*%
X192725000Y-111322500D03*
X193375000Y-111322500D03*
X194025000Y-111322500D03*
%TO.P,Q9,2,G*%
%TO.N,Net-(Q9-Pad2)*%
X194675000Y-111322500D03*
D29*
%TO.P,Q9,3,D*%
%TO.N,Net-(Q10-Pad3)*%
X193700000Y-109887500D03*
%TD*%
D36*
%TO.P,R9,1*%
%TO.N,BATT_2_PWR*%
X181350000Y-106600000D03*
%TO.P,R9,2*%
%TO.N,Net-(D4-Pad2)*%
X181350000Y-104900000D03*
%TD*%
D25*
%TO.P,U8,1,ADJ*%
%TO.N,GND*%
X199510000Y-133700000D03*
D26*
%TO.P,U8,2,VOUT*%
%TO.N,+5V*%
X204825000Y-122125000D03*
D27*
X202050000Y-124550000D03*
D26*
X199275000Y-126975000D03*
D25*
X202050000Y-133700000D03*
D26*
X199275000Y-122125000D03*
X204825000Y-126975000D03*
D25*
%TO.P,U8,3,VIN*%
%TO.N,+BATT*%
X204590000Y-133700000D03*
%TD*%
D14*
%TO.P,R58,1*%
%TO.N,3-3V_3*%
X210395000Y-162525000D03*
%TO.P,R58,2*%
%TO.N,Net-(D6-Pad2)*%
X210395000Y-164225000D03*
%TD*%
D15*
%TO.P,C31,1*%
%TO.N,+3V3*%
X169475000Y-146875000D03*
%TO.P,C31,2*%
%TO.N,GNDD*%
X169475000Y-148575000D03*
%TD*%
D28*
%TO.P,Q11,1,S*%
%TO.N,+BATT*%
X190075000Y-104290000D03*
X190725000Y-104290000D03*
X189425000Y-104290000D03*
%TO.P,Q11,2,G*%
%TO.N,Net-(Q11-Pad2)*%
X188775000Y-104290000D03*
D30*
%TO.P,Q11,3,D*%
%TO.N,Net-(Q10-Pad3)*%
X189750000Y-105725000D03*
%TD*%
D18*
%TO.P,R16,1*%
%TO.N,3-3V_3*%
X207695000Y-162525000D03*
%TO.P,R16,2*%
%TO.N,Net-(D6-Pad2)*%
X205995000Y-162525000D03*
%TD*%
D28*
%TO.P,Q5,1,S*%
%TO.N,+BATT*%
X189750000Y-167200000D03*
X191050000Y-167200000D03*
X190400000Y-167200000D03*
%TO.P,Q5,2,G*%
%TO.N,Net-(Q5-Pad2)*%
X191700000Y-167200000D03*
D29*
%TO.P,Q5,3,D*%
%TO.N,Net-(Q13-Pad3)*%
X190725000Y-165765000D03*
%TD*%
D14*
%TO.P,R39,1*%
%TO.N,3-3V_1*%
X228150000Y-162535000D03*
%TO.P,R39,2*%
%TO.N,Net-(D7-Pad2)*%
X228150000Y-164235000D03*
%TD*%
D36*
%TO.P,R5,1*%
%TO.N,BATT_1_PWR*%
X181400000Y-162550000D03*
%TO.P,R5,2*%
%TO.N,Net-(D3-Pad2)*%
X181400000Y-160850000D03*
%TD*%
D49*
%TO.P,U9,1,ADJ*%
%TO.N,GND*%
X188250000Y-143985000D03*
%TO.P,U9,2,VOUT*%
%TO.N,5V_2*%
X188250000Y-146525000D03*
D51*
X197400000Y-146525000D03*
D50*
X199825000Y-149300000D03*
X194975000Y-149300000D03*
X194975000Y-143750000D03*
X199825000Y-143750000D03*
D49*
%TO.P,U9,3,VIN*%
%TO.N,+BATT*%
X188250000Y-149065000D03*
%TD*%
D23*
%TO.P,C11,1*%
%TO.N,+BATT*%
X228350000Y-157500000D03*
%TO.P,C11,2*%
%TO.N,GND*%
X228350000Y-159500000D03*
%TD*%
D17*
%TO.P,D12,1,K*%
%TO.N,Net-(C33-Pad2)*%
X180925000Y-147800000D03*
%TO.P,D12,2,A*%
%TO.N,BATT_2_PWR*%
X180925000Y-145000000D03*
%TD*%
D42*
%TO.P,U26,*%
%TO.N,*%
X234425000Y-154225000D03*
X234425000Y-135325000D03*
D43*
%TO.P,U26,1,-*%
%TO.N,+BATT*%
X225025000Y-150225000D03*
D44*
%TO.P,U26,2,+*%
%TO.N,GND*%
X225025000Y-139325000D03*
%TD*%
D75*
%TO.N,3-3V_1*%
X223460000Y-160155000D03*
X226810000Y-154515000D03*
%TO.N,GND*%
X186600000Y-160800000D03*
X186600000Y-138900000D03*
X222000000Y-164235000D03*
X204575000Y-115963750D03*
X186790000Y-104820000D03*
X212400000Y-116075000D03*
X248740000Y-122765000D03*
X204280000Y-164225000D03*
X247675000Y-137925000D03*
X231690000Y-117420000D03*
D76*
X198850000Y-177575000D03*
D75*
X201100000Y-137325000D03*
X186830000Y-155550000D03*
X195425000Y-140125000D03*
X187325000Y-140025000D03*
X216110000Y-160200000D03*
X222060000Y-154505000D03*
X222800000Y-145100000D03*
X203731750Y-154548250D03*
X213080000Y-164235000D03*
D76*
X198535754Y-117154369D03*
D75*
X232990000Y-123215000D03*
X222250000Y-117260000D03*
X215950000Y-118825000D03*
X239650000Y-116125000D03*
X231625000Y-164375000D03*
X212970000Y-154600000D03*
X214950000Y-140100000D03*
X230355000Y-144110000D03*
D76*
X198825000Y-173400000D03*
D75*
X213100000Y-137250000D03*
X225240000Y-160145000D03*
X203510000Y-145410000D03*
X186475000Y-140025000D03*
X195560000Y-123540000D03*
D76*
X202404369Y-117154369D03*
D75*
X186600000Y-141070000D03*
X232640000Y-129840000D03*
X238655000Y-133415000D03*
X188250000Y-142700000D03*
X207610000Y-160230000D03*
X240985000Y-164320000D03*
%TO.N,GNDD*%
X171330000Y-149530000D03*
X155375000Y-137500000D03*
X180175000Y-114325000D03*
X167620000Y-125040000D03*
X179750000Y-156975000D03*
X163810000Y-139540000D03*
X152340000Y-128670000D03*
X174070995Y-127759695D03*
X169575000Y-154950000D03*
X171330826Y-142896778D03*
X174639961Y-133910039D03*
X178210000Y-145790000D03*
X178300000Y-153225000D03*
X154799500Y-152800000D03*
X156400000Y-149500000D03*
X180100000Y-169360000D03*
X174320000Y-143350000D03*
X156650000Y-144700000D03*
X157270000Y-147070000D03*
X181270000Y-140000000D03*
X158650000Y-125190000D03*
X182000000Y-141125000D03*
X160760000Y-140700000D03*
X182000000Y-138950000D03*
X175040000Y-150990000D03*
X163349228Y-151344103D03*
X182125000Y-140000000D03*
X181775000Y-135200000D03*
%TO.N,+3V3*%
X168414467Y-147663088D03*
X160890000Y-139040000D03*
X159125000Y-155400000D03*
X181280000Y-176280000D03*
X162800000Y-153340000D03*
X153700000Y-140150000D03*
X173400000Y-151500000D03*
X164874500Y-151700000D03*
X155375000Y-136500000D03*
X181650000Y-120600000D03*
X151650000Y-131760000D03*
X159280000Y-148649500D03*
X165850000Y-155840000D03*
X157899997Y-125190000D03*
X179450000Y-148675000D03*
X176960039Y-133910039D03*
X164849500Y-139700500D03*
%TO.N,+BATT*%
X230110000Y-157195000D03*
D77*
X191114642Y-102351165D03*
X196387851Y-113202347D03*
X195071964Y-102308799D03*
X221840000Y-122065000D03*
X189272441Y-169447441D03*
D75*
X211070000Y-157800000D03*
D77*
X192410358Y-113248835D03*
D75*
X220990000Y-157280000D03*
D77*
X230375000Y-149860000D03*
D75*
X220370000Y-157750000D03*
D77*
X246925000Y-133305000D03*
X188235000Y-151625000D03*
X196020842Y-157878882D03*
X193635121Y-169465039D03*
D75*
X211610000Y-157320000D03*
D77*
X187750000Y-157050000D03*
X188425000Y-113300000D03*
D75*
X229450000Y-157495000D03*
D77*
X199175000Y-102475000D03*
X206650000Y-133650000D03*
X218275000Y-137225000D03*
X197650000Y-169475000D03*
X200231635Y-157881635D03*
X192034478Y-157894772D03*
X203460000Y-150930000D03*
D75*
%TO.N,3-3V_2*%
X214350000Y-160200000D03*
X217660000Y-154600000D03*
%TO.N,3-3V_3*%
X208320000Y-154580000D03*
X205830000Y-160250000D03*
D78*
%TO.N,+5V*%
X177349502Y-128500000D03*
X158600000Y-151204500D03*
X159008882Y-149454577D03*
%TO.N,12V_3*%
X228925000Y-136525000D03*
X237025000Y-162850000D03*
D75*
%TO.N,/processor/FLASH_MISO*%
X162800000Y-154089500D03*
X167425061Y-151365647D03*
%TO.N,/batt_ctl/BATT_2_CURR*%
X169170000Y-144550500D03*
X169740000Y-143340000D03*
%TO.N,/batt_ctl/BATT_1_VSENSE*%
X168425498Y-146275000D03*
%TO.N,/batt_ctl/BATT_1_CURR*%
X169520000Y-145700000D03*
X172225000Y-157150000D03*
%TO.N,/batt_ctl/BATT_2_VSENSE*%
X168450000Y-143875000D03*
%TO.N,/A0_SENSE*%
X169400000Y-149550000D03*
%TO.N,/MOSI*%
X162170820Y-141953680D03*
X163874500Y-141953680D03*
X151710000Y-116660000D03*
%TO.N,/SCK*%
X151780000Y-118780000D03*
%TO.N,/MISO*%
X163874500Y-141125000D03*
X162724000Y-141125000D03*
X151880500Y-120930000D03*
%TO.N,/SD_CS*%
X151770000Y-114540000D03*
D78*
%TO.N,/BUZZER*%
X160644959Y-142449500D03*
X173200500Y-129224500D03*
D75*
%TO.N,/batt_ctl/BATT_1_CTL*%
X159474500Y-143004500D03*
X154225000Y-154725000D03*
%TO.N,/batt_ctl/BATT_2_CTL*%
X191025000Y-122800000D03*
X159480997Y-142255025D03*
%TO.N,/SDA*%
X157850000Y-139500000D03*
X229325500Y-145925000D03*
X157900000Y-142250000D03*
%TO.N,/SCL*%
X155637708Y-140287292D03*
X157325500Y-143200000D03*
X228724750Y-145325500D03*
%TO.N,/~{RESET_RAW}*%
X168309337Y-132019551D03*
X169919750Y-132020250D03*
%TO.N,/SWCLK*%
X165588243Y-151471256D03*
X174725000Y-140812534D03*
%TO.N,/SWDIO*%
X175475000Y-140875000D03*
X165876883Y-150779562D03*
%TO.N,/A5_SENSE*%
X166800000Y-151779232D03*
%TO.N,BATT_1_PWR*%
X172425000Y-147775000D03*
X172600000Y-155300000D03*
%TO.N,BATT_2_PWR*%
X179650000Y-145025000D03*
X180200000Y-130275000D03*
X174169500Y-121505500D03*
X172030000Y-144710000D03*
%TD*%
D79*
%TO.N,3-3V_1*%
X222440000Y-160155000D02*
X222650000Y-160155000D01*
X223460000Y-160155000D02*
X223720000Y-160155000D01*
X224249200Y-146474200D02*
X224650000Y-146875000D01*
X222250000Y-158750000D02*
X222250000Y-160145000D01*
X227590000Y-154515000D02*
X227600000Y-154505000D01*
X222250000Y-160145000D02*
X222350000Y-160245000D01*
X223460000Y-161135000D02*
X223460000Y-160155000D01*
X223475000Y-164800000D02*
X223475000Y-163808959D01*
X228150000Y-162535000D02*
X225520000Y-162535000D01*
X222760000Y-159935000D02*
X222690000Y-159935000D01*
X223950000Y-159355000D02*
X223950000Y-158750000D01*
X222025000Y-145450000D02*
X222025000Y-143815000D01*
X222025000Y-143815000D02*
X222565000Y-143275000D01*
X226810000Y-154515000D02*
X227590000Y-154515000D01*
X222630000Y-160155000D02*
X223460000Y-160155000D01*
X223100000Y-158750000D02*
X223100000Y-159595000D01*
X222565000Y-143275000D02*
X226175000Y-143275000D01*
X225450000Y-162635000D02*
X224960000Y-162635000D01*
X223100000Y-159595000D02*
X222760000Y-159935000D01*
X222500000Y-145925000D02*
X222025000Y-145450000D01*
X223200000Y-169150000D02*
X223200000Y-165075000D01*
X222350000Y-160245000D02*
X222440000Y-160155000D01*
X223720000Y-160155000D02*
X223730000Y-160165000D01*
X223730000Y-159575000D02*
X223950000Y-159355000D01*
X225520000Y-162535000D02*
X225470000Y-162585000D01*
X224249200Y-146050001D02*
X222900000Y-146050000D01*
X223475000Y-163808959D02*
X222625000Y-162958959D01*
X228450000Y-153675000D02*
X227650000Y-154475000D01*
X223730000Y-160165000D02*
X223730000Y-159575000D01*
X224249200Y-146050001D02*
X224249200Y-146474200D01*
X228450000Y-147675000D02*
X228450000Y-153675000D01*
X224960000Y-162635000D02*
X223460000Y-161135000D01*
X227650000Y-146875000D02*
X228450000Y-147675000D01*
X223200000Y-165075000D02*
X223475000Y-164800000D01*
X222625000Y-162958959D02*
X222625000Y-160175000D01*
X224650000Y-146875000D02*
X227650000Y-146875000D01*
%TO.N,GND*%
X218150000Y-158150000D02*
X217450000Y-158150000D01*
X230685000Y-142790000D02*
X235265000Y-142790000D01*
X222250000Y-117260000D02*
X222250000Y-115960000D01*
X215425000Y-156148250D02*
X215425000Y-155445000D01*
X203510000Y-146960000D02*
X203510000Y-145410000D01*
X215000000Y-155026041D02*
X215000000Y-155020000D01*
X214375000Y-137250000D02*
X213100000Y-137250000D01*
X185050000Y-104810000D02*
X185065000Y-104825000D01*
X223000000Y-154500000D02*
X222065000Y-154500000D01*
X215425000Y-155445000D02*
X215255000Y-155275000D01*
X228350000Y-159500000D02*
X228350000Y-158855000D01*
X226295001Y-144549999D02*
X226210000Y-144635000D01*
X222785000Y-164235000D02*
X222000000Y-164235000D01*
X224330000Y-160155000D02*
X225230000Y-160155000D01*
X232990000Y-122140000D02*
X228890000Y-122140000D01*
X215940000Y-118835000D02*
X214960000Y-118835000D01*
X225240000Y-160145000D02*
X225840000Y-159545000D01*
X225740000Y-143995000D02*
X225740000Y-145095000D01*
X213875000Y-154600000D02*
X212980000Y-154600000D01*
X199525000Y-136775000D02*
X199525000Y-133775000D01*
X228350000Y-158855000D02*
X227560000Y-158065000D01*
X216540000Y-159790000D02*
X219340000Y-159790000D01*
X224600000Y-156050000D02*
X224600000Y-155415000D01*
X216120000Y-160210000D02*
X216540000Y-159790000D01*
X185065000Y-104825000D02*
X186800000Y-104825000D01*
X213835000Y-164235000D02*
X213080000Y-164235000D01*
X239850000Y-136950000D02*
X239850000Y-134150000D01*
X195560000Y-124575000D02*
X195560000Y-123540000D01*
X238660000Y-133420000D02*
X238655000Y-133415000D01*
X209775000Y-159800000D02*
X208040000Y-159800000D01*
X241007000Y-164298000D02*
X240985000Y-164320000D01*
X185800000Y-155550000D02*
X186825000Y-155550000D01*
X188250000Y-143985000D02*
X188250000Y-142700000D01*
X223690000Y-154505000D02*
X223000000Y-154505000D01*
X215255000Y-155275000D02*
X215248959Y-155275000D01*
X247675000Y-137925000D02*
X247650000Y-137950000D01*
X227560000Y-158065000D02*
X226720000Y-158065000D01*
X238660000Y-133425000D02*
X238660000Y-133420000D01*
X228890000Y-122140000D02*
X228815000Y-122215000D01*
X232575000Y-164425000D02*
X231675000Y-164425000D01*
X205285709Y-154560000D02*
X204560000Y-154560000D01*
X227190800Y-144549999D02*
X226295001Y-144549999D01*
X230355000Y-143120000D02*
X230685000Y-142790000D01*
X212000000Y-137250000D02*
X211425000Y-136675000D01*
X232640000Y-129840000D02*
X232640000Y-128815000D01*
X204575000Y-115963750D02*
X205440000Y-115963750D01*
X212980000Y-154600000D02*
X212970000Y-154600000D01*
X209775000Y-159800000D02*
X209775000Y-159225000D01*
X230355000Y-144110000D02*
X230355000Y-143120000D01*
X214950000Y-140100000D02*
X214150000Y-140100000D01*
X200075000Y-137325000D02*
X199525000Y-136775000D01*
X186795000Y-104825000D02*
X186790000Y-104820000D01*
X248740000Y-121665000D02*
X248740000Y-122765000D01*
X214600000Y-154620000D02*
X213880000Y-154620000D01*
X242266000Y-164298000D02*
X241007000Y-164298000D01*
X206025000Y-156200000D02*
X206025000Y-155299291D01*
X224600000Y-155415000D02*
X223690000Y-154505000D01*
X212400000Y-116075000D02*
X213240000Y-116075000D01*
X203510000Y-145410000D02*
X203510000Y-144790000D01*
X230375000Y-145820000D02*
X230355000Y-145800000D01*
X215248959Y-155275000D02*
X215000000Y-155026041D01*
X202550000Y-137325000D02*
X201100000Y-137325000D01*
X195442500Y-140107500D02*
X195425000Y-140125000D01*
X186825000Y-155550000D02*
X186830000Y-155550000D01*
X223490000Y-143675000D02*
X225420000Y-143675000D01*
X215225000Y-160200000D02*
X216110000Y-160200000D01*
X232990000Y-122140000D02*
X232990000Y-123215000D01*
X196575000Y-140107500D02*
X195442500Y-140107500D01*
X222790000Y-144375000D02*
X223490000Y-143675000D01*
X216110000Y-160200000D02*
X216120000Y-160210000D01*
X185150000Y-160800000D02*
X186600000Y-160800000D01*
X215950000Y-118825000D02*
X215940000Y-118835000D01*
X184625000Y-147075000D02*
X184625000Y-145375000D01*
X239810000Y-133425000D02*
X238660000Y-133425000D01*
X225230000Y-160155000D02*
X225240000Y-160145000D01*
X204985000Y-164225000D02*
X204280000Y-164225000D01*
X186800000Y-104825000D02*
X186795000Y-104825000D01*
X219175000Y-159175000D02*
X218150000Y-158150000D01*
X208790000Y-158240000D02*
X208120000Y-158240000D01*
X206025000Y-155299291D02*
X205285709Y-154560000D01*
X209775000Y-159225000D02*
X208790000Y-158240000D01*
X211425000Y-136675000D02*
X211425000Y-133700000D01*
X222065000Y-154500000D02*
X222060000Y-154505000D01*
X208040000Y-159800000D02*
X207610000Y-160230000D01*
X213100000Y-137250000D02*
X212000000Y-137250000D01*
X225420000Y-143675000D02*
X225740000Y-143995000D01*
X184625000Y-145375000D02*
X184625000Y-144325000D01*
X239850000Y-134150000D02*
X239650000Y-133950000D01*
X206730000Y-160230000D02*
X207610000Y-160230000D01*
X204575000Y-154548250D02*
X203731750Y-154548250D01*
X225840000Y-159545000D02*
X228420000Y-159545000D01*
X247650000Y-137950000D02*
X247650000Y-138900000D01*
X219175000Y-159750000D02*
X219175000Y-159175000D01*
X230355000Y-145800000D02*
X230355000Y-144110000D01*
X204350000Y-143950000D02*
X207210000Y-143950000D01*
X231690000Y-116000000D02*
X231690000Y-117420000D01*
X205440000Y-115963750D02*
X205450000Y-115973750D01*
X222790000Y-144375000D02*
X222790000Y-145090000D01*
X184950000Y-144000000D02*
X187850000Y-144000000D01*
X201100000Y-137325000D02*
X200075000Y-137325000D01*
X240600000Y-116125000D02*
X239650000Y-116125000D01*
X231675000Y-164425000D02*
X231625000Y-164375000D01*
X215000000Y-155020000D02*
X214600000Y-154620000D01*
X184625000Y-144325000D02*
X184950000Y-144000000D01*
X203510000Y-144790000D02*
X204350000Y-143950000D01*
%TO.N,Net-(C2-Pad1)*%
X164665685Y-152625000D02*
X164300000Y-152259315D01*
X164775000Y-152625000D02*
X164665685Y-152625000D01*
X164300000Y-152259315D02*
X164300000Y-149775000D01*
%TO.N,GNDD*%
X164449500Y-142236206D02*
X164300000Y-142385706D01*
X159949999Y-141500001D02*
X160825001Y-141500001D01*
X185100000Y-177650000D02*
X184250000Y-176800000D01*
X180662500Y-118112500D02*
X184262500Y-118112500D01*
X184250000Y-173750000D02*
X180700000Y-173750000D01*
X169500000Y-148600000D02*
X170850000Y-148600000D01*
X167500000Y-147150000D02*
X166100000Y-147150000D01*
X164300000Y-142385706D02*
X164300000Y-142950000D01*
X194850000Y-175650000D02*
X194200000Y-175650000D01*
X164050000Y-153050000D02*
X164050000Y-152575000D01*
X180625000Y-157025000D02*
X179800000Y-157025000D01*
X157275000Y-147075000D02*
X157270000Y-147070000D01*
X185175000Y-122150000D02*
X185100000Y-122225000D01*
X170600000Y-143950000D02*
X170600000Y-143643504D01*
X157400500Y-146950000D02*
X157275000Y-147075500D01*
X165350000Y-154325000D02*
X164775000Y-154325000D01*
X184225000Y-119675000D02*
X184250000Y-119650000D01*
X174639961Y-133910039D02*
X174700000Y-133850000D01*
X178225000Y-146300000D02*
X177500000Y-146300000D01*
X174325000Y-143350000D02*
X174325000Y-144325000D01*
X171334324Y-142900276D02*
X171330826Y-142896778D01*
X174510470Y-128200000D02*
X175000000Y-128200000D01*
X194700000Y-120400000D02*
X194850000Y-120250000D01*
X163825000Y-139525000D02*
X163810000Y-139540000D01*
X158200000Y-146950000D02*
X157400500Y-146950000D01*
X164300000Y-144050000D02*
X164325000Y-144075000D01*
X174720000Y-133910039D02*
X174639961Y-133910039D01*
X170850000Y-148600000D02*
X170850000Y-149050498D01*
X194300000Y-119875000D02*
X192537500Y-118112500D01*
X185200000Y-177750000D02*
X185150000Y-177800000D01*
X155200000Y-149500000D02*
X156400000Y-149500000D01*
X178295000Y-153230000D02*
X178300000Y-153225000D01*
X167625000Y-125050000D02*
X167625000Y-125045000D01*
X171334324Y-142909180D02*
X171334324Y-142900276D01*
X160750000Y-140700000D02*
X160760000Y-140700000D01*
X170850000Y-149050498D02*
X171324502Y-149525000D01*
X194950000Y-119875000D02*
X194300000Y-119875000D01*
X186300000Y-122150000D02*
X185175000Y-122150000D01*
X185100000Y-122150000D02*
X184225000Y-121275000D01*
X178975000Y-146300000D02*
X178225000Y-146300000D01*
X174071360Y-127760890D02*
X174510470Y-128200000D01*
X160825001Y-141500001D02*
X160850000Y-141525000D01*
X163800000Y-150893331D02*
X163800000Y-149975000D01*
X164300000Y-142950000D02*
X164300000Y-144050000D01*
X180700000Y-173750000D02*
X180100000Y-173150000D01*
X184250000Y-119575000D02*
X184250000Y-118125000D01*
X176350000Y-128150000D02*
X175125000Y-128150000D01*
X167952500Y-126100000D02*
X167952500Y-125377500D01*
X178295000Y-154925000D02*
X182100000Y-154925000D01*
X192300000Y-173750000D02*
X186375000Y-173750000D01*
X152340000Y-128670000D02*
X152350000Y-128680000D01*
X175050000Y-150100000D02*
X175050000Y-151000000D01*
X184250000Y-118125000D02*
X184262500Y-118112500D01*
X178295000Y-154925000D02*
X178295000Y-153230000D01*
X164775000Y-153775000D02*
X164050000Y-153050000D01*
X170600000Y-143643504D02*
X171334324Y-142909180D01*
X169575000Y-154950000D02*
X169575000Y-154025000D01*
X186375000Y-173750000D02*
X184250000Y-173750000D01*
X167952500Y-125377500D02*
X167625000Y-125050000D01*
X163349228Y-151344103D02*
X163349228Y-151825772D01*
X171324502Y-149525000D02*
X171325000Y-149525000D01*
X184225000Y-121275000D02*
X184225000Y-119675000D01*
X179800000Y-157025000D02*
X179750000Y-156975000D01*
X159470800Y-140520800D02*
X159450000Y-140500000D01*
X171325000Y-149525000D02*
X171330000Y-149530000D01*
X174071360Y-127760890D02*
X174071360Y-127760060D01*
X178225000Y-146300000D02*
X178225000Y-145775000D01*
X178225000Y-145775000D02*
X178210000Y-145790000D01*
X180100000Y-169350000D02*
X180100000Y-169360000D01*
X194200000Y-175650000D02*
X192300000Y-173750000D01*
X159470800Y-140500000D02*
X158250000Y-140500000D01*
X160600000Y-148650000D02*
X161825000Y-148650000D01*
X180175000Y-114325000D02*
X180175000Y-117625000D01*
X174325000Y-143350000D02*
X174320000Y-143350000D01*
X157275000Y-147075500D02*
X157275000Y-147075000D01*
X160750000Y-140700000D02*
X160750000Y-141500000D01*
X174071360Y-127760060D02*
X174070995Y-127759695D01*
X184250000Y-176800000D02*
X184250000Y-174750000D01*
X194800000Y-177100000D02*
X194800000Y-175825000D01*
X169575000Y-154025000D02*
X169600000Y-154000000D01*
X169575000Y-154950000D02*
X169575000Y-155850000D01*
X163825000Y-139525000D02*
X164449500Y-140149500D01*
X169475000Y-148575000D02*
X169500000Y-148600000D01*
X175050000Y-151000000D02*
X175040000Y-150990000D01*
X180175000Y-117625000D02*
X180662500Y-118112500D01*
X155200000Y-149500000D02*
X155200000Y-148850000D01*
X180100000Y-173150000D02*
X180100000Y-169350000D01*
X166425000Y-154325000D02*
X165350000Y-154325000D01*
X175125000Y-128150000D02*
X175100000Y-128175000D01*
X159949999Y-141500001D02*
X159470800Y-141500001D01*
X194800000Y-175825000D02*
X194725000Y-175750000D01*
X159470800Y-141500001D02*
X159470800Y-140520800D01*
X164050000Y-152575000D02*
X163475000Y-152000000D01*
X184250000Y-175150000D02*
X184250000Y-173750000D01*
X163349228Y-151344103D02*
X163800000Y-150893331D01*
X186300000Y-177750000D02*
X185200000Y-177750000D01*
X177500000Y-146300000D02*
X177475000Y-146325000D01*
X173450000Y-133910039D02*
X174639961Y-133910039D01*
X194700000Y-121675000D02*
X194700000Y-120400000D01*
X167625000Y-125045000D02*
X167620000Y-125040000D01*
X157399999Y-141500001D02*
X157600000Y-141300000D01*
X185100000Y-177750000D02*
X185100000Y-177650000D01*
X156529200Y-141500001D02*
X157399999Y-141500001D01*
X192537500Y-118112500D02*
X184262500Y-118112500D01*
X164449500Y-140149500D02*
X164449500Y-142236206D01*
X164775000Y-154325000D02*
X164775000Y-153775000D01*
X152724600Y-128680000D02*
X152350000Y-128680000D01*
%TO.N,+3V3*%
X166650000Y-155850000D02*
X165875000Y-155850000D01*
X167987325Y-146650000D02*
X167375000Y-146650000D01*
X175990000Y-133910039D02*
X176960039Y-133910039D01*
X151653616Y-131768518D02*
X151829600Y-131592534D01*
X159280000Y-148649500D02*
X159780500Y-149150000D01*
X158645000Y-155880000D02*
X157850000Y-155880000D01*
X159780500Y-149150000D02*
X160600000Y-149150000D01*
X153850000Y-140000000D02*
X154700000Y-140000000D01*
X160300000Y-139900000D02*
X160200000Y-140000000D01*
X179565000Y-149975000D02*
X179565000Y-148790000D01*
X173400000Y-150450000D02*
X173400000Y-151500000D01*
X182650000Y-120600000D02*
X181650000Y-120600000D01*
X179450000Y-148400000D02*
X179050000Y-148000000D01*
X168237325Y-146900000D02*
X167987325Y-146650000D01*
X178850000Y-148000000D02*
X178925000Y-147925000D01*
X164849500Y-142070520D02*
X164849500Y-139700500D01*
X151829600Y-131592534D02*
X151829600Y-131305000D01*
X165860000Y-155850000D02*
X165850000Y-155840000D01*
X182650000Y-120600000D02*
X182650000Y-119500000D01*
X159125000Y-155400000D02*
X158645000Y-155880000D01*
X151829600Y-131305000D02*
X152254600Y-130880000D01*
X151653616Y-131763616D02*
X151650000Y-131760000D01*
X152254600Y-130880000D02*
X152724600Y-130880000D01*
X183400000Y-121350000D02*
X182650000Y-120600000D01*
X168375000Y-146900000D02*
X168375000Y-147634599D01*
X159249500Y-148680000D02*
X158220000Y-148680000D01*
X160900000Y-139050000D02*
X160890000Y-139040000D01*
D80*
X183400000Y-177750000D02*
X183400000Y-177050000D01*
D79*
X165675000Y-152500500D02*
X165699500Y-152525000D01*
X169450000Y-146900000D02*
X168375000Y-146900000D01*
X160900000Y-139050000D02*
X160900000Y-139900000D01*
X164800000Y-142950000D02*
X164850000Y-142900000D01*
X168375000Y-146900000D02*
X168237325Y-146900000D01*
X159280000Y-148649500D02*
X159249500Y-148680000D01*
X164874500Y-151700000D02*
X165224500Y-152050000D01*
X165675000Y-152050000D02*
X165675000Y-152500500D01*
D80*
X183400000Y-177050000D02*
X182650000Y-176300000D01*
D79*
X153700000Y-140150000D02*
X153850000Y-140000000D01*
X164800000Y-151625500D02*
X164800000Y-149850000D01*
X165875000Y-155850000D02*
X165860000Y-155850000D01*
X164874500Y-151700000D02*
X164800000Y-151625500D01*
X169475000Y-146875000D02*
X169450000Y-146900000D01*
X177475000Y-148000000D02*
X178850000Y-148000000D01*
X164849500Y-142899500D02*
X164849500Y-142070520D01*
X165699500Y-152525000D02*
X166325000Y-152525000D01*
D80*
X181300000Y-176300000D02*
X181280000Y-176280000D01*
D79*
X158550000Y-154825000D02*
X158125000Y-154825000D01*
D80*
X182650000Y-176300000D02*
X181300000Y-176300000D01*
D79*
X179565000Y-148790000D02*
X179450000Y-148675000D01*
X166325000Y-152525000D02*
X166425000Y-152625000D01*
X151653616Y-131768518D02*
X151653616Y-131763616D01*
X183400000Y-122150000D02*
X183400000Y-121350000D01*
X160200000Y-140000000D02*
X159500000Y-140000000D01*
X159125000Y-155400000D02*
X158550000Y-154825000D01*
D80*
X182650000Y-176300000D02*
X182650000Y-175150000D01*
D79*
X179450000Y-148675000D02*
X179450000Y-148400000D01*
X160900000Y-139900000D02*
X160300000Y-139900000D01*
X164850000Y-142900000D02*
X164849500Y-142899500D01*
X165224500Y-152050000D02*
X165675000Y-152050000D01*
%TO.N,Net-(C4-Pad2)*%
X186600000Y-178600000D02*
X187450000Y-177750000D01*
X187450000Y-177750000D02*
X185850000Y-176150000D01*
X182200000Y-177750000D02*
X183050000Y-178600000D01*
X185850000Y-176150000D02*
X185850000Y-175700000D01*
X183050000Y-178600000D02*
X186600000Y-178600000D01*
X188000000Y-177750000D02*
X187450000Y-177750000D01*
D81*
%TO.N,+BATT*%
X204550000Y-133900000D02*
X204600000Y-133850000D01*
D79*
X229750000Y-156835000D02*
X230110000Y-157195000D01*
D81*
X188250000Y-151610000D02*
X188235000Y-151625000D01*
X195587613Y-160152500D02*
X195000000Y-160152500D01*
D79*
X209540000Y-157800000D02*
X208940000Y-157200000D01*
D81*
X187700000Y-157000000D02*
X187750000Y-157050000D01*
X196057881Y-157915921D02*
X196057881Y-159682232D01*
D79*
X218932500Y-157750000D02*
X218332500Y-157150000D01*
D81*
X184625000Y-149075000D02*
X188450000Y-149075000D01*
X193375000Y-111322500D02*
X192677500Y-111322500D01*
X195975000Y-112200000D02*
X195975000Y-112789496D01*
X198055684Y-167200000D02*
X197576184Y-167679500D01*
X244800000Y-136950000D02*
X244850000Y-136900000D01*
X193595707Y-169425625D02*
X193595707Y-167667000D01*
X189272441Y-169447441D02*
X189257699Y-169447441D01*
X197576184Y-169401184D02*
X197650000Y-169475000D01*
X231765000Y-118915000D02*
X225040000Y-118915000D01*
D79*
X219175000Y-157750000D02*
X220370000Y-157750000D01*
D81*
X203520000Y-150870000D02*
X203460000Y-150930000D01*
X195450000Y-102686835D02*
X195450000Y-103614214D01*
D79*
X220575000Y-156400000D02*
X220575000Y-156875000D01*
X229750000Y-156735000D02*
X229750000Y-156835000D01*
D81*
X246805000Y-133425000D02*
X246925000Y-133305000D01*
D79*
X228350000Y-157500000D02*
X228055000Y-157500000D01*
D81*
X216375000Y-137250000D02*
X218250000Y-137250000D01*
X192066379Y-159678008D02*
X191591887Y-160152500D01*
D79*
X229445000Y-157500000D02*
X229450000Y-157495000D01*
D81*
X198325000Y-167200000D02*
X198055684Y-167200000D01*
X196057881Y-159682232D02*
X195587613Y-160152500D01*
D79*
X209775000Y-157800000D02*
X209540000Y-157800000D01*
D81*
X199175000Y-103525000D02*
X198422500Y-104277500D01*
X204590000Y-133700000D02*
X206600000Y-133700000D01*
D79*
X211175000Y-156450000D02*
X211175000Y-156895000D01*
D81*
X200231635Y-159726725D02*
X199793360Y-160165000D01*
X192025000Y-112863477D02*
X192410358Y-113248835D01*
X195450000Y-103614214D02*
X194786714Y-104277500D01*
X244850000Y-136900000D02*
X244850000Y-133235000D01*
X185800000Y-157000000D02*
X187700000Y-157000000D01*
D79*
X219175000Y-157750000D02*
X218932500Y-157750000D01*
D81*
X189425000Y-111322500D02*
X188902500Y-111322500D01*
X199175000Y-102475000D02*
X199175000Y-103525000D01*
X188250000Y-149065000D02*
X188250000Y-151610000D01*
X195975000Y-112789496D02*
X196387851Y-113202347D01*
X203560000Y-149050000D02*
X203520000Y-149090000D01*
X191591887Y-160152500D02*
X191050000Y-160152500D01*
X199793360Y-160165000D02*
X199000000Y-160165000D01*
D79*
X229750000Y-156735000D02*
X229750000Y-156150000D01*
X208940000Y-157200000D02*
X207860000Y-157200000D01*
D81*
X207205000Y-149050000D02*
X203560000Y-149050000D01*
X194075207Y-167187500D02*
X194350000Y-167187500D01*
X192034478Y-157894772D02*
X192066379Y-157926673D01*
X218250000Y-137250000D02*
X218275000Y-137225000D01*
X188902500Y-111322500D02*
X188425000Y-111800000D01*
D79*
X220990000Y-157290000D02*
X220990000Y-157280000D01*
X218332500Y-157150000D02*
X217420000Y-157150000D01*
D81*
X193595707Y-167667000D02*
X194075207Y-167187500D01*
D79*
X220575000Y-156875000D02*
X220990000Y-157290000D01*
D81*
X204550000Y-137325000D02*
X204550000Y-133900000D01*
D79*
X209775000Y-157800000D02*
X211080000Y-157800000D01*
D81*
X195071964Y-102308799D02*
X195450000Y-102686835D01*
X230375000Y-147820000D02*
X235685000Y-147820000D01*
X189257699Y-169447441D02*
X189257699Y-167657653D01*
X193635121Y-169465039D02*
X193595707Y-169425625D01*
X196840000Y-111335000D02*
X195975000Y-112200000D01*
X198422500Y-104277500D02*
X198000000Y-104277500D01*
D79*
X211610000Y-157330000D02*
X211610000Y-157320000D01*
X211080000Y-157800000D02*
X211070000Y-157800000D01*
D81*
X188425000Y-111800000D02*
X188425000Y-113300000D01*
X197350000Y-111335000D02*
X196840000Y-111335000D01*
X189715352Y-167200000D02*
X190400000Y-167200000D01*
D79*
X227610000Y-157055000D02*
X226390000Y-157055000D01*
D81*
X232990000Y-120140000D02*
X231765000Y-118915000D01*
X192025000Y-111975000D02*
X192025000Y-112863477D01*
X230375000Y-147820000D02*
X230375000Y-149860000D01*
X197576184Y-167679500D02*
X197576184Y-169401184D01*
X189257699Y-167657653D02*
X189715352Y-167200000D01*
X244890000Y-133425000D02*
X246805000Y-133425000D01*
X192677500Y-111322500D02*
X192025000Y-111975000D01*
X194786714Y-104277500D02*
X194025000Y-104277500D01*
X203520000Y-149090000D02*
X203520000Y-150870000D01*
X216375000Y-137250000D02*
X216375000Y-132200000D01*
X241850000Y-136950000D02*
X244800000Y-136950000D01*
X206600000Y-133700000D02*
X206650000Y-133650000D01*
X191114642Y-102351165D02*
X191114642Y-104035358D01*
D79*
X228350000Y-157500000D02*
X229445000Y-157500000D01*
D81*
X223660000Y-122065000D02*
X221840000Y-122065000D01*
X196020842Y-157878882D02*
X196057881Y-157915921D01*
D79*
X211175000Y-156895000D02*
X211610000Y-157330000D01*
D81*
X223615000Y-120340000D02*
X223615000Y-122290000D01*
X192066379Y-157926673D02*
X192066379Y-159678008D01*
X191114642Y-104035358D02*
X190860000Y-104290000D01*
X190860000Y-104290000D02*
X190075000Y-104290000D01*
X200231635Y-157881635D02*
X200231635Y-159726725D01*
X225040000Y-118915000D02*
X223615000Y-120340000D01*
D79*
X228055000Y-157500000D02*
X227610000Y-157055000D01*
%TO.N,Net-(C8-Pad2)*%
X188000000Y-122150000D02*
X187450000Y-122150000D01*
X186775000Y-122825000D02*
X182862500Y-122825000D01*
X187450000Y-122150000D02*
X185850000Y-120550000D01*
X187450000Y-122150000D02*
X186775000Y-122825000D01*
X185850000Y-120550000D02*
X185850000Y-119575000D01*
X182862500Y-122825000D02*
X182200000Y-122162500D01*
%TO.N,3-3V_2*%
X214775000Y-159395000D02*
X214750000Y-159420000D01*
X216705000Y-162485000D02*
X216010000Y-162485000D01*
X213525000Y-160200000D02*
X213860000Y-160200000D01*
X218460000Y-154600000D02*
X218470000Y-154610000D01*
X214775000Y-158848250D02*
X214775000Y-159395000D01*
X213930000Y-159420000D02*
X213930000Y-160130000D01*
X217660000Y-154600000D02*
X218460000Y-154600000D01*
X214555000Y-164680000D02*
X214555000Y-163808959D01*
X214555000Y-163808959D02*
X213525000Y-162778959D01*
X214350000Y-160825000D02*
X214350000Y-160200000D01*
X214200000Y-165035000D02*
X214555000Y-164680000D01*
X214750000Y-159420000D02*
X213930000Y-159420000D01*
X213525000Y-162778959D02*
X213525000Y-160200000D01*
X213075000Y-159785000D02*
X213560000Y-160270000D01*
X213930000Y-159420000D02*
X213930000Y-158910000D01*
X216010000Y-162485000D02*
X214350000Y-160825000D01*
X213860000Y-160200000D02*
X214350000Y-160200000D01*
X219380000Y-162385000D02*
X216805000Y-162385000D01*
X213075000Y-158848250D02*
X213075000Y-159785000D01*
X214200000Y-169150000D02*
X214200000Y-165035000D01*
X213930000Y-160130000D02*
X213860000Y-160200000D01*
%TO.N,3-3V_3*%
X208320000Y-154580000D02*
X209180000Y-154580000D01*
X205375000Y-158900000D02*
X205375000Y-160155000D01*
X207695000Y-162525000D02*
X207200000Y-162525000D01*
X207695000Y-162525000D02*
X210435000Y-162525000D01*
X205830000Y-161155000D02*
X205830000Y-160250000D01*
X205110000Y-165275000D02*
X205720000Y-164665000D01*
X205450000Y-160230000D02*
X205810000Y-160230000D01*
X205030000Y-160230000D02*
X205450000Y-160230000D01*
X205375000Y-160155000D02*
X205450000Y-160230000D01*
X204745000Y-160165000D02*
X204945000Y-160165000D01*
X209180000Y-154580000D02*
X209190000Y-154570000D01*
X205050000Y-163128959D02*
X205050000Y-160250000D01*
X203675000Y-158900000D02*
X203675000Y-160165000D01*
X205810000Y-160230000D02*
X205830000Y-160250000D01*
X205720000Y-163798959D02*
X205050000Y-163128959D01*
X205720000Y-164665000D02*
X205720000Y-163798959D01*
X205110000Y-165275000D02*
X205110000Y-168785000D01*
X203675000Y-160165000D02*
X204745000Y-160165000D01*
X207200000Y-162525000D02*
X205830000Y-161155000D01*
D80*
%TO.N,5V_3*%
X213875000Y-133675000D02*
X213875000Y-127100000D01*
X223200000Y-111150000D02*
X219100000Y-115250000D01*
X226900000Y-115960000D02*
X226900000Y-114825000D01*
X213250000Y-118805000D02*
X213250000Y-120755000D01*
X226900000Y-114825000D02*
X223275000Y-111200000D01*
X213875000Y-127100000D02*
X213900000Y-127075000D01*
X226900000Y-116160000D02*
X226925000Y-116135000D01*
X226900000Y-117360000D02*
X226900000Y-116160000D01*
X219100000Y-115250000D02*
X219100000Y-120375000D01*
%TO.N,+5V*%
X182600000Y-128975000D02*
X182125000Y-128500000D01*
X202050000Y-126050000D02*
X201925000Y-125925000D01*
X203675000Y-121325000D02*
X203625000Y-121375000D01*
X210250000Y-116000000D02*
X205250000Y-111000000D01*
X198725000Y-125325000D02*
X198750000Y-125300000D01*
X210250000Y-117373750D02*
X210250000Y-116000000D01*
X195525000Y-126325000D02*
X192875000Y-128975000D01*
X179925000Y-128500000D02*
X177349502Y-128500000D01*
X205600000Y-119525000D02*
X206976250Y-118148750D01*
X158600000Y-151204500D02*
X158600000Y-149863459D01*
X177349502Y-128500000D02*
X177349502Y-126249502D01*
X179950000Y-126325000D02*
X179950000Y-128475000D01*
X192875000Y-128975000D02*
X182600000Y-128975000D01*
X182125000Y-128500000D02*
X179925000Y-128500000D01*
X205600000Y-122125000D02*
X205600000Y-119525000D01*
X177349502Y-125574502D02*
X176525000Y-124750000D01*
X209576250Y-118148750D02*
X210275000Y-117450000D01*
X158600000Y-149863459D02*
X159008882Y-149454577D01*
X202050000Y-133700000D02*
X202050000Y-126050000D01*
X195560000Y-126275000D02*
X197125000Y-126275000D01*
X177349502Y-126249502D02*
X177349502Y-125574502D01*
X206976250Y-118148750D02*
X209576250Y-118148750D01*
%TO.N,5V_2*%
X218200000Y-116060000D02*
X218175000Y-116035000D01*
X218200000Y-117410000D02*
X218200000Y-116060000D01*
X203357449Y-140107500D02*
X208425000Y-135039949D01*
X208025000Y-119698750D02*
X209025000Y-118698750D01*
X218200000Y-115150000D02*
X214500000Y-111450000D01*
X198275000Y-140107500D02*
X198275000Y-141700000D01*
X211725000Y-113750000D02*
X214350000Y-111125000D01*
X208025000Y-129525000D02*
X208025000Y-119698750D01*
X210151250Y-118698750D02*
X211725000Y-117125000D01*
X218200000Y-116010000D02*
X218200000Y-115150000D01*
X208425000Y-129925000D02*
X208025000Y-129525000D01*
X208425000Y-135039949D02*
X208425000Y-129925000D01*
X196500000Y-146525000D02*
X196525000Y-146550000D01*
X211725000Y-117125000D02*
X211725000Y-113750000D01*
X188250000Y-146525000D02*
X196500000Y-146525000D01*
X198275000Y-140107500D02*
X203357449Y-140107500D01*
X209025000Y-118698750D02*
X210151250Y-118698750D01*
%TO.N,12V_3*%
X237600000Y-164775000D02*
X233225000Y-169150000D01*
X237600000Y-164425000D02*
X237600000Y-163425000D01*
X228925000Y-136525000D02*
X228925000Y-134825000D01*
X226200000Y-129720000D02*
X226155000Y-129765000D01*
X232640000Y-127115000D02*
X230840000Y-127115000D01*
X237600000Y-163425000D02*
X237025000Y-162850000D01*
X237600000Y-164425000D02*
X237600000Y-164775000D01*
X226200000Y-122065000D02*
X226200000Y-129720000D01*
X230840000Y-127115000D02*
X230800000Y-127075000D01*
%TO.N,12V_2*%
X236725000Y-118775000D02*
X236100000Y-119400000D01*
X234120000Y-145310000D02*
X239915000Y-145310000D01*
X239915000Y-145310000D02*
X239945000Y-145340000D01*
X245650000Y-115590000D02*
X245650000Y-116590000D01*
X246550000Y-116150000D02*
X245725000Y-116150000D01*
X243465000Y-118775000D02*
X236725000Y-118775000D01*
X245950000Y-138900000D02*
X245950000Y-140660000D01*
X236100000Y-137350000D02*
X239075000Y-140325000D01*
X241310000Y-111250000D02*
X245650000Y-115590000D01*
X245650000Y-116590000D02*
X243465000Y-118775000D01*
X236100000Y-119400000D02*
X236100000Y-137350000D01*
X246870000Y-145985000D02*
X246835000Y-145950000D01*
%TO.N,+12V*%
X243075000Y-168750000D02*
X247285000Y-164540000D01*
X242350000Y-130165000D02*
X242350000Y-126955000D01*
X247465000Y-119965000D02*
X246890000Y-120540000D01*
X248450000Y-129600000D02*
X247400000Y-128550000D01*
X242350000Y-126955000D02*
X242360000Y-126945000D01*
X248740000Y-119965000D02*
X247465000Y-119965000D01*
X247285000Y-164540000D02*
X247285000Y-164320000D01*
X247285000Y-164320000D02*
X248450000Y-163155000D01*
X242350000Y-133425000D02*
X242350000Y-130165000D01*
X243075000Y-169075000D02*
X243075000Y-168750000D01*
X248450000Y-163155000D02*
X248450000Y-129600000D01*
D79*
%TO.N,VUSB*%
X156600000Y-156206041D02*
X156600000Y-155800000D01*
X153750000Y-147525000D02*
X154375000Y-146900000D01*
X153750000Y-152950000D02*
X153750000Y-147525000D01*
X173700000Y-153350000D02*
X170100000Y-156950000D01*
X156600000Y-155800000D02*
X153750000Y-152950000D01*
X170100000Y-156950000D02*
X157343959Y-156950000D01*
X157343959Y-156950000D02*
X156600000Y-156206041D01*
X154375000Y-146900000D02*
X155425000Y-146900000D01*
X173700000Y-152550000D02*
X173700000Y-153350000D01*
%TO.N,Net-(D3-Pad2)*%
X181425000Y-160800000D02*
X181375000Y-160850000D01*
X183450000Y-160800000D02*
X181425000Y-160800000D01*
%TO.N,Net-(D4-Pad2)*%
X183350000Y-104810000D02*
X181465000Y-104810000D01*
X181465000Y-104810000D02*
X181300000Y-104975000D01*
%TO.N,Net-(D5-Pad2)*%
X184100000Y-157000000D02*
X184100000Y-155550000D01*
%TO.N,Net-(Q13-Pad3)*%
X189525000Y-172000000D02*
X189525000Y-171800000D01*
D82*
X185750000Y-163650000D02*
X198775000Y-163650000D01*
D79*
X186375000Y-170775000D02*
X185950000Y-170350000D01*
X188500000Y-170775000D02*
X186375000Y-170775000D01*
D82*
X185750000Y-170300000D02*
X185750000Y-163650000D01*
D79*
X189525000Y-171800000D02*
X188500000Y-170775000D01*
%TO.N,Net-(D7-Pad2)*%
X223750000Y-163500000D02*
X223750000Y-162665000D01*
X224640000Y-164235000D02*
X224630000Y-164245000D01*
X228150000Y-164235000D02*
X224640000Y-164235000D01*
X224485000Y-164235000D02*
X223750000Y-163500000D01*
%TO.N,Net-(D8-Pad2)*%
X219380000Y-164085000D02*
X215955000Y-164085000D01*
X215955000Y-164085000D02*
X215755000Y-164285000D01*
X215535000Y-163090000D02*
X215030000Y-162585000D01*
X215535000Y-164235000D02*
X215535000Y-163090000D01*
%TO.N,Net-(D9-Pad2)*%
X208550000Y-116023750D02*
X208525000Y-115998750D01*
X208550000Y-117373750D02*
X208550000Y-116023750D01*
X207150000Y-115973750D02*
X208650000Y-115973750D01*
%TO.N,Net-(D10-Pad2)*%
X216500000Y-117410000D02*
X216500000Y-115985000D01*
X216500000Y-116010000D02*
X215000000Y-116010000D01*
X215000000Y-116010000D02*
X214975000Y-116035000D01*
%TO.N,/processor/FLASH_CS*%
X161605000Y-155880000D02*
X161075000Y-155350000D01*
X161075000Y-151565686D02*
X162300000Y-150340686D01*
X162800000Y-155880000D02*
X161605000Y-155880000D01*
X164950000Y-155850000D02*
X162925000Y-155850000D01*
X162300000Y-150340686D02*
X162300000Y-149700000D01*
X161075000Y-155350000D02*
X161075000Y-151565686D01*
%TO.N,/processor/FLASH_MISO*%
X167425761Y-151366448D02*
X167425761Y-151366347D01*
X167425000Y-151365687D02*
X167425000Y-150948820D01*
X162800000Y-154089500D02*
X162800000Y-154610000D01*
X167425761Y-151366347D02*
X167425061Y-151365647D01*
X166850000Y-150373820D02*
X166850000Y-149875000D01*
X167425761Y-151366448D02*
X167425000Y-151365687D01*
X167425000Y-150948820D02*
X166850000Y-150373820D01*
%TO.N,/processor/FLASH_MOSI*%
X159431124Y-151003922D02*
X159713967Y-151286764D01*
X159431125Y-151003921D02*
X159431124Y-151003922D01*
X159431125Y-150579658D02*
X159431124Y-150579658D01*
X161300000Y-149700000D02*
X161300000Y-150125000D01*
X159713969Y-151711029D02*
X159355000Y-152070000D01*
X159355000Y-152070000D02*
X157850000Y-152070000D01*
X161300000Y-150125000D02*
X160562500Y-150862500D01*
X159713967Y-151711028D02*
X159713969Y-151711029D01*
X160138232Y-150862500D02*
X159855388Y-150579657D01*
X160138232Y-150862501D02*
X160138232Y-150862500D01*
X160562500Y-150862500D02*
X160562497Y-150862500D01*
X159713971Y-151711032D02*
G75*
G03*
X159713967Y-151286764I-212171J212132D01*
G01*
X160138268Y-150862465D02*
G75*
G03*
X160562497Y-150862500I212132J212065D01*
G01*
X159431114Y-151003932D02*
G75*
G02*
X159431124Y-150579658I212186J212132D01*
G01*
X159431168Y-150579701D02*
G75*
G02*
X159855388Y-150579657I212132J-212099D01*
G01*
%TO.N,/processor/FLASH_SCK*%
X157850000Y-153340000D02*
X157860000Y-153350000D01*
X161800000Y-150275000D02*
X161800000Y-149775000D01*
X159400000Y-153350000D02*
X160675000Y-152075000D01*
X160675000Y-152075000D02*
X160675000Y-151400000D01*
X160675000Y-151400000D02*
X161800000Y-150275000D01*
X157860000Y-153350000D02*
X159400000Y-153350000D01*
%TO.N,/batt_ctl/BATT_2_CURR*%
X169025000Y-142625000D02*
X169025000Y-128225000D01*
X169750000Y-143350000D02*
X169740000Y-143340000D01*
X175075000Y-122175000D02*
X180425000Y-122175000D01*
X169075500Y-144650000D02*
X169175000Y-144550500D01*
X167999314Y-144650000D02*
X169075500Y-144650000D01*
X169175000Y-144550500D02*
X169170000Y-144550500D01*
X167500000Y-144650000D02*
X167999314Y-144650000D01*
X169025000Y-128225000D02*
X175075000Y-122175000D01*
X169750000Y-143350000D02*
X169025000Y-142625000D01*
%TO.N,/batt_ctl/BATT_1_VSENSE*%
X170760000Y-146900000D02*
X170850000Y-146900000D01*
X168425498Y-146275000D02*
X170135000Y-146275000D01*
X170135000Y-146275000D02*
X170760000Y-146900000D01*
X168300498Y-146150000D02*
X167500000Y-146150000D01*
X170850000Y-146900000D02*
X170875000Y-146925000D01*
X168425498Y-146275000D02*
X168300498Y-146150000D01*
X170875000Y-146925000D02*
X172050000Y-146925000D01*
%TO.N,/batt_ctl/BATT_1_CURR*%
X180500000Y-177750000D02*
X175234000Y-177750000D01*
X167600000Y-145550000D02*
X167500000Y-145650000D01*
X172225000Y-157675000D02*
X172225000Y-157150000D01*
X172225000Y-174741000D02*
X172225000Y-157675000D01*
X169525000Y-145700000D02*
X169375000Y-145550000D01*
X169525000Y-145700000D02*
X169520000Y-145700000D01*
X175234000Y-177750000D02*
X172225000Y-174741000D01*
X169375000Y-145550000D02*
X167600000Y-145550000D01*
%TO.N,/batt_ctl/BATT_2_VSENSE*%
X168090000Y-145125000D02*
X170575000Y-145125000D01*
X171950000Y-145650000D02*
X171975000Y-145625000D01*
X169312673Y-143875000D02*
X168450000Y-143875000D01*
X168065000Y-145150000D02*
X168090000Y-145125000D01*
X169750000Y-144312327D02*
X169312673Y-143875000D01*
X170600000Y-145650000D02*
X171950000Y-145650000D01*
X170600000Y-145650000D02*
X170600000Y-145150000D01*
X169750000Y-145125000D02*
X169750000Y-144312327D01*
X168065000Y-145150000D02*
X167500000Y-145150000D01*
X170575000Y-145125000D02*
X170600000Y-145150000D01*
%TO.N,/A0_SENSE*%
X168170000Y-148255000D02*
X168170000Y-148445000D01*
X169275000Y-149550000D02*
X169400000Y-149550000D01*
X168065000Y-148150000D02*
X168170000Y-148255000D01*
X168170000Y-148445000D02*
X169275000Y-149550000D01*
X167500000Y-148150000D02*
X168065000Y-148150000D01*
%TO.N,/SERIAL1_TX*%
X165800000Y-142950000D02*
X165900000Y-142850000D01*
X165900000Y-142850000D02*
X165900000Y-139995685D01*
X166850000Y-139045685D02*
X166850000Y-128675000D01*
X165900000Y-139995685D02*
X166850000Y-139045685D01*
X166850000Y-128675000D02*
X167375000Y-128150000D01*
%TO.N,/SERIAL1_RX*%
X166950000Y-127075000D02*
X167800000Y-127075000D01*
X165300000Y-142480000D02*
X165500000Y-142280000D01*
X165500000Y-142280000D02*
X165500000Y-139830000D01*
X166450000Y-138880000D02*
X166450000Y-127575000D01*
X165500000Y-139830000D02*
X166450000Y-138880000D01*
X166450000Y-127575000D02*
X166950000Y-127075000D01*
X165300000Y-142950000D02*
X165300000Y-142480000D01*
%TO.N,/MOSI*%
X150906000Y-131834075D02*
X151415443Y-132343518D01*
X154925000Y-132025000D02*
X154975000Y-132025000D01*
X154975000Y-132025000D02*
X155350000Y-132025000D01*
X154025000Y-132325000D02*
X154025000Y-132375000D01*
X163874500Y-141953680D02*
X163874500Y-142244814D01*
X150906000Y-117464000D02*
X150906000Y-131834075D01*
X152254600Y-131980000D02*
X152724600Y-131980000D01*
X154625000Y-132375000D02*
X154625000Y-132325000D01*
X151710000Y-116660000D02*
X150906000Y-117464000D01*
X163800000Y-142319314D02*
X163800000Y-142950000D01*
X151415443Y-132343518D02*
X151891082Y-132343518D01*
X155350000Y-132025000D02*
X162149500Y-138824500D01*
X163874500Y-142244814D02*
X163800000Y-142319314D01*
X151891082Y-132343518D02*
X152254600Y-131980000D01*
X152675000Y-132025000D02*
X153725000Y-132025000D01*
X162149500Y-138824500D02*
X162149500Y-141975000D01*
X154625000Y-132375000D02*
G75*
G02*
X154325000Y-132675000I-300000J0D01*
G01*
X154325000Y-132675000D02*
G75*
G02*
X154025000Y-132375000I0J300000D01*
G01*
X154025000Y-132325000D02*
G75*
G03*
X153725000Y-132025000I-300000J0D01*
G01*
X154925000Y-132025000D02*
G75*
G03*
X154625000Y-132325000I0J-300000D01*
G01*
%TO.N,/SCK*%
X151780000Y-118780000D02*
X151306000Y-119254000D01*
X151306000Y-129386000D02*
X151700000Y-129780000D01*
X151700000Y-129780000D02*
X152724600Y-129780000D01*
X153715685Y-129825000D02*
X152600000Y-129825000D01*
X163300000Y-142950000D02*
X163300000Y-140575000D01*
X162549500Y-139824500D02*
X162549500Y-138658814D01*
X151306000Y-119254000D02*
X151306000Y-129386000D01*
X163300000Y-140575000D02*
X162549500Y-139824500D01*
X162549500Y-138658814D02*
X153715685Y-129825000D01*
%TO.N,/MISO*%
X151800000Y-127525400D02*
X151854600Y-127580000D01*
X154000000Y-127850000D02*
X153725000Y-127575000D01*
X151800000Y-121010500D02*
X151880500Y-120930000D01*
X154000000Y-129543628D02*
X154000000Y-127850000D01*
X163874500Y-140583814D02*
X162949500Y-139658814D01*
X162800000Y-142325000D02*
X162800000Y-141201000D01*
X163874500Y-141125000D02*
X163874500Y-140583814D01*
X162949500Y-138493128D02*
X154000000Y-129543628D01*
X162949500Y-139658814D02*
X162949500Y-138493128D01*
X153725000Y-127575000D02*
X152650000Y-127575000D01*
X151800000Y-127525400D02*
X151800000Y-121010500D01*
X162800000Y-142950000D02*
X162800000Y-142325000D01*
X162800000Y-141201000D02*
X162724000Y-141125000D01*
X151854600Y-127580000D02*
X152724600Y-127580000D01*
%TO.N,/SD_CS*%
X151620000Y-114540000D02*
X150506000Y-115654000D01*
X161575000Y-142280000D02*
X161575000Y-138815686D01*
X161800000Y-142505000D02*
X161575000Y-142280000D01*
X155859314Y-133100000D02*
X152725000Y-133100000D01*
X151210000Y-133080000D02*
X152724600Y-133080000D01*
X150506000Y-115654000D02*
X150506000Y-132376000D01*
X150506000Y-132376000D02*
X151210000Y-133080000D01*
X161800000Y-142950000D02*
X161800000Y-142505000D01*
X161575000Y-138815686D02*
X155859314Y-133100000D01*
X151770000Y-114540000D02*
X151620000Y-114540000D01*
D80*
%TO.N,/BUZZER*%
X173300000Y-128200000D02*
X173300000Y-126200000D01*
X160600000Y-143650000D02*
X160600000Y-142494459D01*
X173275000Y-129124500D02*
X173275000Y-128125000D01*
X160600000Y-142494459D02*
X160644959Y-142449500D01*
D79*
%TO.N,/batt_ctl/BATT_1_CTL*%
X159530000Y-143225121D02*
X159530000Y-144210686D01*
X154225000Y-157306686D02*
X175918314Y-179000000D01*
X159969315Y-144650000D02*
X160600000Y-144650000D01*
X159474500Y-143169621D02*
X159530000Y-143225121D01*
X175918314Y-179000000D02*
X189925000Y-179000000D01*
X193100000Y-177100000D02*
X192325000Y-177100000D01*
X191375000Y-177550000D02*
X191375000Y-176550000D01*
X192325000Y-177100000D02*
X191950000Y-176725000D01*
X159530000Y-144210686D02*
X159969315Y-144650000D01*
X154225000Y-154725000D02*
X154225000Y-157306686D01*
X189925000Y-179000000D02*
X191375000Y-177550000D01*
X191950000Y-176725000D02*
X191400000Y-176725000D01*
X159474500Y-143004500D02*
X159474500Y-143169621D01*
%TO.N,/batt_ctl/BATT_2_CTL*%
X159930000Y-144045000D02*
X160035000Y-144150000D01*
X160049500Y-143271306D02*
X159930000Y-143390806D01*
X160035000Y-144150000D02*
X160600000Y-144150000D01*
X159480997Y-142255025D02*
X159538198Y-142255025D01*
X191475000Y-121175000D02*
X191500000Y-121150000D01*
X160049500Y-142766327D02*
X160049500Y-143271306D01*
X191475000Y-121275000D02*
X191450000Y-121250000D01*
X191475000Y-122350000D02*
X191475000Y-121175000D01*
X193000000Y-121675000D02*
X192600000Y-121275000D01*
X159538198Y-142255025D02*
X160049500Y-142766327D01*
X191025000Y-122800000D02*
X191475000Y-122350000D01*
X159930000Y-143390806D02*
X159930000Y-144045000D01*
X192600000Y-121275000D02*
X191475000Y-121275000D01*
%TO.N,/SDA*%
X157850000Y-139500000D02*
X156750000Y-139500000D01*
X160035000Y-146650000D02*
X157900000Y-144515000D01*
X156750000Y-139500000D02*
X156529200Y-139720800D01*
X157900000Y-144515000D02*
X157900000Y-142250000D01*
X229325500Y-145925000D02*
X229200500Y-146050000D01*
X160600000Y-146650000D02*
X160035000Y-146650000D01*
X229200500Y-146050000D02*
X227225000Y-146050000D01*
X156529200Y-139720800D02*
X156529200Y-139999999D01*
%TO.N,/SCL*%
X157325500Y-144550500D02*
X157325500Y-143200000D01*
X160600000Y-147150000D02*
X159925000Y-147150000D01*
X228175000Y-145325500D02*
X227950500Y-145550000D01*
X227950500Y-145550000D02*
X227190800Y-145550000D01*
X228724750Y-145325500D02*
X228175000Y-145325500D01*
X159925000Y-147150000D02*
X157325500Y-144550500D01*
X155850416Y-140500000D02*
X156775000Y-140500000D01*
X155637708Y-140287292D02*
X155850416Y-140500000D01*
D83*
%TO.N,/USB_D-*%
X155275000Y-147625000D02*
X160825000Y-147625000D01*
%TO.N,/USB_D+*%
X155200000Y-148200000D02*
X155300000Y-148100000D01*
X155300000Y-148100000D02*
X160550000Y-148100000D01*
D79*
%TO.N,/~{RESET_RAW}*%
X171675000Y-152975000D02*
X171675000Y-150350000D01*
X171315039Y-131275000D02*
X171652500Y-131275000D01*
X172360000Y-130550000D02*
X174550000Y-130550000D01*
X170200000Y-132760000D02*
X170200000Y-132390039D01*
X173700000Y-147800000D02*
X173700000Y-146625000D01*
X167920000Y-131630214D02*
X167920000Y-129050000D01*
X169925000Y-156550000D02*
X167498959Y-156550000D01*
X170200000Y-136560000D02*
X170200000Y-132760000D01*
X170200000Y-132300500D02*
X170200000Y-132760000D01*
X176000000Y-146375000D02*
X178175000Y-144200000D01*
X173700000Y-146375000D02*
X176000000Y-146375000D01*
X173225000Y-149525000D02*
X174175000Y-148575000D01*
X170910000Y-137270000D02*
X170200000Y-136560000D01*
X167275000Y-155516386D02*
X166958614Y-155200000D01*
X171675000Y-152975000D02*
X171675000Y-154800000D01*
X161550000Y-155000000D02*
X161550000Y-151743959D01*
X173550000Y-146225000D02*
X173600000Y-146275000D01*
X172625000Y-149525000D02*
X173225000Y-149525000D01*
X161750000Y-155200000D02*
X161550000Y-155000000D01*
X162800000Y-150493959D02*
X162800000Y-149690000D01*
X171652500Y-131257500D02*
X172360000Y-130550000D01*
X171675000Y-154800000D02*
X169925000Y-156550000D01*
X173550000Y-141770039D02*
X173550000Y-146225000D01*
X166958614Y-155200000D02*
X161750000Y-155200000D01*
X170910000Y-138210039D02*
X170910000Y-137270000D01*
X171652500Y-131275000D02*
X171652500Y-131257500D01*
X168309337Y-132019551D02*
X167920000Y-131630214D01*
X167275000Y-156326041D02*
X167275000Y-155516386D01*
X171700000Y-150450000D02*
X172625000Y-149525000D01*
X169919750Y-132020250D02*
X170200000Y-132300500D01*
X174325000Y-148425000D02*
X173700000Y-147800000D01*
X161550000Y-151743959D02*
X162800000Y-150493959D01*
X170910000Y-139130039D02*
X173550000Y-141770039D01*
X170910000Y-138210039D02*
X170910000Y-139130039D01*
X167498959Y-156550000D02*
X167275000Y-156326041D01*
X173700000Y-146625000D02*
X173775000Y-146550000D01*
X170200000Y-132390039D02*
X171315039Y-131275000D01*
%TO.N,/SWCLK*%
X165588243Y-151471256D02*
X165300000Y-151183013D01*
X165300000Y-151183013D02*
X165300000Y-149850000D01*
X174725000Y-140812534D02*
X174725000Y-138500000D01*
%TO.N,/SWDIO*%
X175475000Y-140875000D02*
X175950000Y-140400000D01*
X175950000Y-140400000D02*
X175950000Y-139175000D01*
X165876883Y-150376883D02*
X165876883Y-150779562D01*
X165800000Y-150300000D02*
X165876883Y-150376883D01*
X165800000Y-149850000D02*
X165800000Y-150300000D01*
%TO.N,/A5_SENSE*%
X166800000Y-150889506D02*
X166300000Y-150389506D01*
X166300000Y-150389506D02*
X166300000Y-149850000D01*
X166800000Y-151779232D02*
X166800000Y-150889506D01*
%TO.N,/RESET*%
X167875000Y-153950000D02*
X168000000Y-153825000D01*
X167875000Y-155875000D02*
X167875000Y-153950000D01*
%TO.N,Net-(P1-Pad1)*%
X170910000Y-133910039D02*
X170910000Y-132990039D01*
X176175000Y-131925000D02*
X177525000Y-130575000D01*
X171975039Y-131925000D02*
X176175000Y-131925000D01*
X170910000Y-132990039D02*
X171975039Y-131925000D01*
%TO.N,Net-(Q1-Pad1)*%
X168050000Y-152125000D02*
X169600000Y-152125000D01*
%TO.N,Net-(Q2-Pad1)*%
X192300000Y-175000000D02*
X192950000Y-175650000D01*
X191200000Y-175000000D02*
X192300000Y-175000000D01*
%TO.N,Net-(Q2-Pad3)*%
X200775000Y-156250000D02*
X197650000Y-156250000D01*
X201950000Y-157425000D02*
X200775000Y-156250000D01*
X199750000Y-170175000D02*
X199600000Y-170175000D01*
X199700000Y-170100000D02*
X201950000Y-167850000D01*
X197650000Y-156250000D02*
X196575000Y-156250000D01*
X193700000Y-157250000D02*
X193700000Y-156325000D01*
X190800000Y-156250000D02*
X193775000Y-156250000D01*
X199600000Y-170175000D02*
X198825000Y-170950000D01*
X198825000Y-170950000D02*
X195950000Y-170950000D01*
X193900000Y-173650000D02*
X193900000Y-172650000D01*
X195950000Y-170950000D02*
X192775000Y-170950000D01*
X194825000Y-172200000D02*
X194825000Y-170975000D01*
X195950000Y-170125000D02*
X195950000Y-170950000D01*
X201950000Y-167850000D02*
X201950000Y-157425000D01*
X192775000Y-170950000D02*
X191975000Y-170150000D01*
X197700000Y-157275000D02*
X197700000Y-156300000D01*
X189725000Y-157225000D02*
X189825000Y-157225000D01*
X191975000Y-170150000D02*
X191975000Y-170125000D01*
X194350000Y-172200000D02*
X194825000Y-172200000D01*
X193775000Y-156250000D02*
X196575000Y-156250000D01*
X193900000Y-172650000D02*
X194350000Y-172200000D01*
X189825000Y-157225000D02*
X190800000Y-156250000D01*
X193700000Y-156325000D02*
X193775000Y-156250000D01*
X197700000Y-156300000D02*
X197650000Y-156250000D01*
%TO.N,Net-(Q3-Pad2)*%
X193700000Y-158950000D02*
X193625000Y-159025000D01*
X193625000Y-159025000D02*
X193625000Y-160225000D01*
%TO.N,Net-(Q5-Pad2)*%
X191975000Y-168425000D02*
X191775000Y-168225000D01*
X191775000Y-168225000D02*
X191775000Y-167250000D01*
%TO.N,Net-(Q8-Pad1)*%
X175075000Y-126250000D02*
X175025000Y-126200000D01*
X176350000Y-126250000D02*
X175075000Y-126250000D01*
D80*
%TO.N,Net-(Q8-Pad3)*%
X178350000Y-127200000D02*
X178350000Y-124500000D01*
X185150000Y-124400000D02*
X179925000Y-124400000D01*
X178350000Y-124500000D02*
X178400000Y-124450000D01*
X178425000Y-124450000D02*
X180000000Y-124450000D01*
X188200000Y-127600000D02*
X188200000Y-127450000D01*
X188200000Y-127450000D02*
X185150000Y-124400000D01*
D79*
%TO.N,Net-(R10-Pad2)*%
X189450000Y-175600000D02*
X189450000Y-174950000D01*
X189350000Y-175700000D02*
X189450000Y-175600000D01*
X189350000Y-176600000D02*
X189350000Y-175700000D01*
%TO.N,Net-(C34-Pad1)*%
X176750000Y-150100000D02*
X178275000Y-150100000D01*
X178275000Y-150100000D02*
X178300000Y-150075000D01*
%TO.N,Net-(R11-Pad1)*%
X191575000Y-172200000D02*
X191475000Y-172100000D01*
X193125000Y-172200000D02*
X191575000Y-172200000D01*
%TO.N,Net-(Q4-Pad2)*%
X189725000Y-158925000D02*
X189675000Y-158975000D01*
X189675000Y-158975000D02*
X189675000Y-160075000D01*
%TO.N,Net-(R29-Pad2)*%
X226800000Y-156550000D02*
X227735000Y-156550000D01*
X227735000Y-156550000D02*
X228100000Y-156185000D01*
%TO.N,Net-(R30-Pad2)*%
X217625000Y-156648250D02*
X218726750Y-156648250D01*
%TO.N,Net-(R31-Pad2)*%
X209180000Y-156700000D02*
X209420000Y-156460000D01*
X208225000Y-156700000D02*
X209180000Y-156700000D01*
%TO.N,Net-(R32-Pad2)*%
X224700000Y-154500000D02*
X225915000Y-154500000D01*
X225900000Y-154535000D02*
X225920000Y-154515000D01*
X225900000Y-155900000D02*
X225900000Y-154535000D01*
X225915000Y-154500000D02*
X225930000Y-154485000D01*
%TO.N,Net-(R34-Pad2)*%
X215581750Y-154598250D02*
X215580000Y-154600000D01*
X216725000Y-155998250D02*
X216725000Y-154615000D01*
X216775000Y-154598250D02*
X215581750Y-154598250D01*
X216725000Y-154615000D02*
X216770000Y-154570000D01*
%TO.N,Net-(R36-Pad2)*%
X206275000Y-154548250D02*
X207438250Y-154548250D01*
X207325000Y-154585000D02*
X207390000Y-154520000D01*
X207325000Y-156050000D02*
X207325000Y-154585000D01*
X207438250Y-154548250D02*
X207470000Y-154580000D01*
%TO.N,Net-(R48-Pad1)*%
X227190800Y-145050000D02*
X227750000Y-145050000D01*
X228035000Y-144765000D02*
X228035000Y-143065000D01*
X227750000Y-145050000D02*
X228035000Y-144765000D01*
%TO.N,Net-(R53-Pad1)*%
X155475000Y-141000000D02*
X156775000Y-141000000D01*
X154700000Y-141700000D02*
X154775000Y-141700000D01*
X154775000Y-141700000D02*
X155475000Y-141000000D01*
%TO.N,Net-(Q6-Pad2)*%
X195950000Y-168425000D02*
X195725000Y-168200000D01*
X195725000Y-168200000D02*
X195725000Y-167175000D01*
%TO.N,Net-(Q7-Pad1)*%
X192800000Y-119875000D02*
X192100000Y-119175000D01*
X193050000Y-119875000D02*
X192800000Y-119875000D01*
X192100000Y-119175000D02*
X191200000Y-119175000D01*
%TO.N,Net-(Q7-Pad3)*%
X194725000Y-114775000D02*
X194775000Y-114825000D01*
X190775000Y-114225000D02*
X191375000Y-114825000D01*
X189400000Y-100800000D02*
X192750000Y-100800000D01*
X199910966Y-100800000D02*
X200650000Y-101539034D01*
X194725000Y-116425000D02*
X194725000Y-114875000D01*
X194775000Y-114825000D02*
X198075000Y-114825000D01*
X194725000Y-114250000D02*
X194725000Y-114775000D01*
X200650000Y-112275000D02*
X198700000Y-114225000D01*
X191375000Y-114825000D02*
X194775000Y-114825000D01*
X194000000Y-117875000D02*
X194750000Y-117125000D01*
X194750000Y-117125000D02*
X194750000Y-116675000D01*
X192750000Y-100800000D02*
X196700000Y-100800000D01*
X188800000Y-101400000D02*
X189400000Y-100800000D01*
X192750000Y-101375000D02*
X192750000Y-100800000D01*
X196700000Y-100800000D02*
X199910966Y-100800000D01*
X198075000Y-114825000D02*
X198675000Y-114225000D01*
X200650000Y-101539034D02*
X200650000Y-112275000D01*
X194725000Y-114875000D02*
X194775000Y-114825000D01*
X196700000Y-101350000D02*
X196700000Y-100800000D01*
%TO.N,Net-(Q9-Pad2)*%
X194750000Y-112525000D02*
X194750000Y-111300000D01*
X194725000Y-112550000D02*
X194750000Y-112525000D01*
D82*
%TO.N,Net-(Q10-Pad3)*%
X185850000Y-107600000D02*
X197825000Y-107600000D01*
X185750000Y-114725000D02*
X185750000Y-107700000D01*
D79*
X185975000Y-114900000D02*
X187200000Y-116125000D01*
X187200000Y-116125000D02*
X189425000Y-116125000D01*
D82*
X185750000Y-107700000D02*
X185850000Y-107600000D01*
D79*
%TO.N,Net-(Q10-Pad2)*%
X190800000Y-112500000D02*
X190800000Y-111300000D01*
X190775000Y-112525000D02*
X190800000Y-112500000D01*
%TO.N,Net-(Q11-Pad2)*%
X188800000Y-103100000D02*
X188700000Y-103200000D01*
X188700000Y-103200000D02*
X188700000Y-104325000D01*
%TO.N,Net-(Q12-Pad2)*%
X192725000Y-103115000D02*
X192740000Y-103100000D01*
X192725000Y-104277500D02*
X192725000Y-103115000D01*
%TO.N,Net-(R25-Pad2)*%
X189500000Y-120725000D02*
X189387500Y-120612500D01*
X189387500Y-120612500D02*
X189387500Y-119400000D01*
%TO.N,Net-(R27-Pad1)*%
X192825000Y-116625000D02*
X191425000Y-116625000D01*
X193025000Y-116425000D02*
X192825000Y-116625000D01*
%TO.N,Net-(D6-Pad2)*%
X206685000Y-164225000D02*
X206685000Y-163255000D01*
X210395000Y-164225000D02*
X206885000Y-164225000D01*
X206685000Y-163255000D02*
X206020000Y-162590000D01*
X206885000Y-164225000D02*
X206870000Y-164210000D01*
%TO.N,Net-(D11-Pad2)*%
X225200000Y-115960000D02*
X224000000Y-115960000D01*
X225200000Y-117360000D02*
X225200000Y-115810000D01*
X224000000Y-115960000D02*
X223950000Y-115910000D01*
D82*
%TO.N,BATT_1_PWR*%
X176700000Y-163750000D02*
X176350000Y-163400000D01*
D79*
X173700000Y-155000000D02*
X172900000Y-155000000D01*
D82*
X182750000Y-164000000D02*
X182500000Y-163750000D01*
D79*
X172325000Y-147875000D02*
X172325000Y-148475000D01*
X172900000Y-155000000D02*
X172600000Y-155300000D01*
X173775000Y-155825000D02*
X173775000Y-155075000D01*
X172425000Y-147775000D02*
X172325000Y-147875000D01*
X176350000Y-162500000D02*
X176350000Y-158400000D01*
D82*
X182500000Y-163750000D02*
X176700000Y-163750000D01*
X182750000Y-170300000D02*
X182750000Y-164000000D01*
D79*
X176350000Y-158400000D02*
X173775000Y-155825000D01*
%TO.N,BATT_2_PWR*%
X173207000Y-113118000D02*
X176350000Y-109975000D01*
D82*
X176750000Y-107700000D02*
X176550000Y-107500000D01*
D79*
X173207000Y-120543000D02*
X173207000Y-113118000D01*
X180895000Y-145030000D02*
X179655000Y-145030000D01*
D82*
X182750000Y-114725000D02*
X182750000Y-107700000D01*
D79*
X179655000Y-145030000D02*
X179650000Y-145025000D01*
X174169500Y-121505500D02*
X173207000Y-120543000D01*
D82*
X182750000Y-107700000D02*
X176750000Y-107700000D01*
D79*
X180925000Y-145000000D02*
X180895000Y-145030000D01*
X172030000Y-144710000D02*
X172030000Y-144100000D01*
X180200000Y-144275000D02*
X180200000Y-130275000D01*
X180925000Y-145000000D02*
X180200000Y-144275000D01*
X176350000Y-109975000D02*
X176350000Y-106675000D01*
%TO.N,Net-(C33-Pad2)*%
X176500000Y-152550000D02*
X178850000Y-152550000D01*
X176500000Y-152650000D02*
X176550000Y-152600000D01*
X176675000Y-156175000D02*
X176525000Y-156025000D01*
X176500000Y-155000000D02*
X176500000Y-152650000D01*
X180835000Y-149975000D02*
X180835000Y-147890000D01*
X181475000Y-156175000D02*
X176675000Y-156175000D01*
X176525000Y-156025000D02*
X176525000Y-154925000D01*
X178850000Y-152550000D02*
X180925000Y-150475000D01*
X182325000Y-157025000D02*
X181475000Y-156175000D01*
X180835000Y-149975000D02*
X182125000Y-149975000D01*
X180835000Y-147890000D02*
X180875000Y-147850000D01*
%TO.N,Net-(Q13-Pad2)*%
X197700000Y-158975000D02*
X197625000Y-159050000D01*
X197625000Y-159050000D02*
X197625000Y-160200000D01*
%TO.N,Net-(Q14-Pad2)*%
X199700000Y-168400000D02*
X199700000Y-167200000D01*
%TO.N,Net-(Q15-Pad2)*%
X198725000Y-112500000D02*
X198725000Y-111325000D01*
X198700000Y-112525000D02*
X198725000Y-112500000D01*
%TO.N,Net-(Q16-Pad2)*%
X196700000Y-103070000D02*
X196710000Y-103060000D01*
X196700000Y-104277500D02*
X196700000Y-103070000D01*
D80*
%TO.N,5V_4*%
X212450000Y-140100000D02*
X212450000Y-141780000D01*
X232750000Y-139650000D02*
X232750000Y-132075000D01*
X236340000Y-117410000D02*
X236340000Y-115120000D01*
X220650000Y-142225000D02*
X230175000Y-142225000D01*
X230175000Y-142225000D02*
X232750000Y-139650000D01*
X235000000Y-118750000D02*
X236340000Y-117410000D01*
X235000000Y-129825000D02*
X235000000Y-118750000D01*
X236340000Y-115120000D02*
X232410000Y-111190000D01*
X232750000Y-132075000D02*
X235000000Y-129825000D01*
X207205000Y-146510000D02*
X213420000Y-146510000D01*
X213420000Y-146510000D02*
X213430000Y-146520000D01*
D79*
%TO.N,Net-(D13-Pad2)*%
X234640000Y-117410000D02*
X234640000Y-116000000D01*
X234620000Y-116000000D02*
X234640000Y-115980000D01*
X233390000Y-116000000D02*
X234620000Y-116000000D01*
X234640000Y-116000000D02*
X234630000Y-115990000D01*
%TO.N,Net-(D14-Pad2)*%
X243966000Y-164298000D02*
X245357000Y-164298000D01*
%TO.N,Net-(D15-Pad2)*%
X244500000Y-116125000D02*
X244550000Y-116175000D01*
X242300000Y-116125000D02*
X244500000Y-116125000D01*
%TO.N,Net-(D16-Pad2)*%
X234275000Y-164425000D02*
X235650000Y-164425000D01*
%TD*%
M02*
