M48
; DRILL file {KiCad (6.0.10-0)} date Friday, March 03, 2023 at 07:39:12 PM
; FORMAT={-:-/ absolute / metric / decimal}
; #@! TF.CreationDate,2023-03-03T19:39:12-08:00
; #@! TF.GenerationSoftware,Kicad,Pcbnew,(6.0.10-0)
; #@! TF.FileFunction,MixedPlating,1,4
FMAT,2
METRIC
; #@! TA.AperFunction,Plated,PTH,ViaDrill
T1C0.300
; #@! TA.AperFunction,Plated,PTH,ViaDrill
T2C0.400
; #@! TA.AperFunction,Plated,PTH,ComponentDrill
T3C0.600
; #@! TA.AperFunction,Plated,PTH,ComponentDrill
T4C0.900
; #@! TA.AperFunction,Plated,PTH,ViaDrill
T5C1.000
; #@! TA.AperFunction,Plated,PTH,ComponentDrill
T6C1.000
; #@! TA.AperFunction,Plated,PTH,ViaDrill
T7C1.500
; #@! TA.AperFunction,Plated,PTH,ComponentDrill
T8C2.000
; #@! TA.AperFunction,Plated,PTH,ComponentDrill
T9C2.700
; #@! TA.AperFunction,Plated,PTH,ComponentDrill
T10C3.000
; #@! TA.AperFunction,Plated,PTH,ComponentDrill
T11C3.900
; #@! TA.AperFunction,NonPlated,NPTH,ComponentDrill
T12C1.000
%
G90
G05
T1
X151.65Y-131.76
X151.71Y-116.66
X151.77Y-114.54
X151.78Y-118.78
X151.88Y-120.93
X152.34Y-128.67
X153.7Y-140.15
X154.225Y-154.725
X154.799Y-152.8
X155.375Y-136.5
X155.375Y-137.5
X155.638Y-140.287
X156.4Y-149.5
X156.65Y-144.7
X157.27Y-147.07
X157.326Y-143.2
X157.85Y-139.5
X157.9Y-125.19
X157.9Y-142.25
X158.65Y-125.19
X159.125Y-155.4
X159.28Y-148.649
X159.475Y-143.005
X159.481Y-142.255
X160.76Y-140.7
X160.89Y-139.04
X162.171Y-141.954
X162.724Y-141.125
X162.8Y-153.34
X162.8Y-154.089
X163.349Y-151.344
X163.81Y-139.54
X163.874Y-141.125
X163.874Y-141.954
X164.85Y-139.701
X164.874Y-151.7
X165.588Y-151.471
X165.85Y-155.84
X165.877Y-150.78
X166.8Y-151.779
X167.425Y-151.366
X167.62Y-125.04
X168.309Y-132.02
X168.414Y-147.663
X168.425Y-146.275
X168.45Y-143.875
X169.17Y-144.55
X169.4Y-149.55
X169.52Y-145.7
X169.575Y-154.95
X169.74Y-143.34
X169.92Y-132.02
X171.33Y-149.53
X171.331Y-142.897
X172.03Y-144.71
X172.225Y-157.15
X172.425Y-147.775
X172.6Y-155.3
X173.4Y-151.5
X174.071Y-127.76
X174.169Y-121.505
X174.32Y-143.35
X174.64Y-133.91
X174.725Y-140.813
X175.04Y-150.99
X175.475Y-140.875
X176.96Y-133.91
X178.21Y-145.79
X178.3Y-153.225
X179.45Y-148.675
X179.65Y-145.025
X179.75Y-156.975
X180.1Y-169.36
X180.175Y-114.325
X180.2Y-130.275
X181.27Y-140.0
X181.28Y-176.28
X181.65Y-120.6
X181.775Y-135.2
X182.0Y-138.95
X182.0Y-141.125
X182.125Y-140.0
X186.475Y-140.025
X186.6Y-138.9
X186.6Y-141.07
X186.6Y-160.8
X186.79Y-104.82
X186.83Y-155.55
X187.325Y-140.025
X188.25Y-142.7
X191.025Y-122.8
X195.425Y-140.125
X195.56Y-123.54
X201.1Y-137.325
X203.51Y-145.41
X203.732Y-154.548
X204.28Y-164.225
X204.575Y-115.964
X205.83Y-160.25
X207.61Y-160.23
X208.32Y-154.58
X211.07Y-157.8
X211.61Y-157.32
X212.4Y-116.075
X212.97Y-154.6
X213.08Y-164.235
X213.1Y-137.25
X214.35Y-160.2
X214.95Y-140.1
X215.95Y-118.825
X216.11Y-160.2
X217.66Y-154.6
X220.37Y-157.75
X220.99Y-157.28
X222.0Y-164.235
X222.06Y-154.505
X222.25Y-117.26
X222.8Y-145.1
X223.46Y-160.155
X225.24Y-160.145
X226.81Y-154.515
X228.725Y-145.326
X229.325Y-145.925
X229.45Y-157.495
X230.11Y-157.195
X230.355Y-144.11
X231.625Y-164.375
X231.69Y-117.42
X232.64Y-129.84
X232.99Y-123.215
X238.655Y-133.415
X239.65Y-116.125
X240.985Y-164.32
X247.675Y-137.925
X248.74Y-122.765
T2
X158.6Y-151.204
X159.009Y-149.455
X160.645Y-142.45
X173.201Y-129.225
X177.35Y-128.5
X228.925Y-136.525
X237.025Y-162.85
T4
X174.8Y-130.6
X177.775Y-130.6
T5
X187.75Y-157.05
X188.235Y-151.625
X188.425Y-113.3
X189.272Y-169.447
X191.115Y-102.351
X192.034Y-157.895
X192.41Y-113.249
X193.635Y-169.465
X195.072Y-102.309
X196.021Y-157.879
X196.388Y-113.202
X197.65Y-169.475
X199.175Y-102.475
X200.232Y-157.882
X203.46Y-150.93
X206.65Y-133.65
X218.275Y-137.225
X221.84Y-122.065
X230.375Y-149.86
X246.925Y-133.305
T6
X188.2Y-127.6
X188.2Y-135.2
T7
X198.536Y-117.154
X198.825Y-173.4
X198.85Y-177.575
X202.404Y-117.154
T8
X239.725Y-157.6
X244.725Y-157.55
T9
X205.2Y-106.15
X205.2Y-111.15
X205.2Y-169.15
X205.2Y-174.15
X214.2Y-106.15
X214.2Y-111.15
X214.2Y-169.15
X214.2Y-174.15
X223.2Y-106.15
X223.2Y-111.15
X223.2Y-169.15
X223.2Y-174.15
X232.3Y-106.17
X232.3Y-111.17
X233.725Y-169.15
X233.725Y-174.15
X241.28Y-106.17
X241.28Y-111.17
X242.725Y-169.15
X242.725Y-174.15
T10
X247.15Y-108.675
X247.4Y-171.4
T11
X176.29Y-106.56
X176.29Y-117.46
X176.35Y-162.5
X176.35Y-173.4
X225.025Y-139.325
X225.025Y-150.225
T12
X171.545Y-136.06
X175.355Y-136.06
T3
G00X167.39Y-102.56
M15
G01X166.39Y-102.56
M16
G05
G00X167.39Y-121.46
M15
G01X166.39Y-121.46
M16
G05
G00X167.45Y-158.5
M15
G01X166.45Y-158.5
M16
G05
G00X167.45Y-177.4
M15
G01X166.45Y-177.4
M16
G05
G00X234.925Y-135.325
M15
G01X233.925Y-135.325
M16
G05
G00X234.925Y-154.225
M15
G01X233.925Y-154.225
M16
G05
T0
M30
